<?xml version="1.0" encoding="utf-8"?>
<!-- Generator: Adobe Illustrator 21.0.0, SVG Export Plug-In . SVG Version: 6.00 Build 0)  -->
<svg version="1.1" id="Layer_1" xmlns="http://www.w3.org/2000/svg" xmlns:xlink="http://www.w3.org/1999/xlink" x="0px" y="0px"
	 viewBox="0 0 163.5 74" style="enable-background:new 0 0 163.5 74;" xml:space="preserve">
<style type="text/css">
    @font-face {
        font-family: ProximaNovaA-Bold;
        src: url('https://ultradevelopment.github.io/dalimamaps.github.io/fonts/ProximaNovaA-Bold.woff');
    }
    @font-face {
        font-family: 'ProximaNovaA-Regular';
        src: url('https://ultradevelopment.github.io/dalimamaps.github.io/fonts/ProximaNovaA-Regular.woff');
    }
    @font-face {
        font-family: 'ProximaNova-Black';
        src: url('https://ultradevelopment.github.io/dalimamaps.github.io/fonts/ProximaNovaA-Black.woff');
    }
	.st0{font-family:'ProximaNovaA-Bold';}
	.st1{font-size:4.6449px;}
	.st2{font-family:'ProximaNovaA-Regular';}
	.st3{fill:#231F20;}
	.st4{fill:#FFFFFF;}
	.st5{font-family:'ProximaNova-Black';}
	.st6{fill:#EF3D64;}
</style>
<text transform="matrix(1 0 0 1 12.1304 10.0839)" class="st0 st1">Nome</text>
<text transform="matrix(1 0 0 1 12.1304 15.662)" class="st2 st1">Cargo</text>
<text transform="matrix(1 0 0 1 12.1304 21.2401)" class="st2 st1">Departament</text>
<text transform="matrix(1 0 0 1 39.1851 21.2401)" class="st3 st2 st1">o</text>
<a xlink:href="tel:1-562-867-5309">
<text transform="matrix(1 0 0 1 12.1304 29.0526)" class="st2 st1">000 000 000</text>
</a>
<a xlink:href="https://dalima.co.mz/">
<g>
	<rect x="102" y="60.3" class="st4" width="31.4" height="4.8"/>
	<text transform="matrix(1 0 0 1 103.3726 64.8026)" class="st5 st1">dalima.co.mz</text>
</g></a>
<a xlink:href="https://www.facebook.com/DalimaLda">
<g>
	<rect x="133.4" y="60.3" class="st4" width="5.4" height="4.8"/>
	<path d="M135.6,64.8v-1.9h-0.6V62h0.6v-0.3c0-0.6,0.4-1.1,1-1.1h0.7v0.8h-0.7c-0.1,0-0.2,0.1-0.2,0.2V62h0.8v0.8h-0.8v1.9H135.6
		L135.6,64.8z"/>
</g></a>
<a xlink:href="https://www.instagram.com/dalimacomoanima/">
<g>
	<rect x="140.2" y="60.3" class="st4" width="5.4" height="4.8"/>
	<path d="M142.9,61.2c0.5,0,0.6,0,0.8,0c0.2,0,0.3,0,0.4,0.1c0.1,0,0.2,0.1,0.2,0.1c0.1,0.1,0.1,0.1,0.2,0.2c0,0.1,0.1,0.2,0.1,0.4
		c0,0.2,0,0.3,0,0.8c0,0.5,0,0.6,0,0.8c0,0.2,0,0.3-0.1,0.4c0,0.1-0.1,0.2-0.2,0.2c-0.1,0.1-0.1,0.1-0.2,0.2c-0.1,0-0.2,0.1-0.4,0.1
		c-0.2,0-0.3,0-0.8,0s-0.6,0-0.8,0c-0.2,0-0.3,0-0.4-0.1c-0.1,0-0.2-0.1-0.2-0.2c-0.1-0.1-0.1-0.1-0.2-0.2c0-0.1-0.1-0.2-0.1-0.4
		c0-0.2,0-0.3,0-0.8c0-0.5,0-0.6,0-0.8c0-0.2,0-0.3,0.1-0.4c0-0.1,0.1-0.2,0.2-0.2c0.1-0.1,0.1-0.1,0.2-0.1c0.1,0,0.2-0.1,0.4-0.1
		C142.3,61.2,142.4,61.2,142.9,61.2 M142.9,60.8c-0.5,0-0.6,0-0.8,0c-0.2,0-0.4,0-0.5,0.1c-0.1,0.1-0.2,0.1-0.4,0.2
		c-0.1,0.1-0.2,0.2-0.2,0.4c0,0.1-0.1,0.3-0.1,0.5c0,0.2,0,0.3,0,0.8c0,0.5,0,0.6,0,0.8c0,0.2,0,0.4,0.1,0.5
		c0.1,0.1,0.1,0.2,0.2,0.4c0.1,0.1,0.2,0.2,0.4,0.2c0.1,0.1,0.3,0.1,0.5,0.1c0.2,0,0.3,0,0.8,0s0.6,0,0.8,0c0.2,0,0.4,0,0.5-0.1
		c0.1-0.1,0.2-0.1,0.4-0.2c0.1-0.1,0.2-0.2,0.2-0.4c0-0.1,0.1-0.3,0.1-0.5c0-0.2,0-0.3,0-0.8c0-0.5,0-0.6,0-0.8c0-0.2,0-0.4-0.1-0.5
		c-0.1-0.1-0.1-0.2-0.2-0.4c-0.1-0.1-0.2-0.2-0.4-0.2c-0.1-0.1-0.3-0.1-0.5-0.1C143.5,60.8,143.5,60.8,142.9,60.8L142.9,60.8z"/>
	<path d="M142.9,61.8c-0.6,0-1,0.5-1,1c0,0.6,0.5,1,1,1c0.6,0,1-0.5,1-1C143.9,62.2,143.5,61.8,142.9,61.8L142.9,61.8z M142.9,63.5
		c-0.4,0-0.7-0.3-0.7-0.7c0-0.4,0.3-0.7,0.7-0.7s0.7,0.3,0.7,0.7C143.6,63.2,143.3,63.5,142.9,63.5L142.9,63.5z"/>
	<path d="M144.2,61.7c0,0.1-0.1,0.2-0.2,0.2s-0.2-0.1-0.2-0.2c0-0.1,0.1-0.2,0.2-0.2S144.2,61.6,144.2,61.7L144.2,61.7z"/>
</g></a>
<a xlink:href="https://dalima.co.mz/">
<g>
	<path class="st6" d="M77.5,41.1c-0.4,0-0.7,0-0.9,0.1c-0.3,0.1-0.5,0.2-0.6,0.3c-0.1,0.2-0.3,0.3-0.3,0.6c-0.1,0.2-0.1,0.6-0.1,0.9
		v6.6c0,0.4,0,0.7,0.1,0.9c0.1,0.2,0.2,0.4,0.3,0.6c0.1,0.1,0.3,0.3,0.6,0.3c0.2,0.1,0.6,0.1,0.9,0.1H81c0.7,0,1.4-0.1,2-0.4
		c0.6-0.3,1.2-0.6,1.7-1.1c0.5-0.5,0.8-1,1.1-1.7c0.3-0.6,0.4-1.3,0.4-2c0-0.7-0.1-1.4-0.4-2c-0.3-0.6-0.6-1.2-1.1-1.7
		c-0.5-0.5-1-0.8-1.7-1.1c-0.6-0.3-1.3-0.4-2-0.4H77.5L77.5,41.1z"/>
	<path d="M19.9,62.1c-0.6,0.4-1.4,0.5-2,0.5c-1.6,0-3-1.3-3-3.3c0-2.1,1.1-3.5,2.8-3.5c0.8,0,1.7,0.3,2.2,0.8V62.1L19.9,62.1z
		 M19.9,54.2c-0.7-0.4-1.5-0.6-2.2-0.6c-3.3,0-5.6,2.4-5.6,5.8c0,3.6,2.9,5.5,5.9,5.5c1.5,0,3.2-0.4,4.7-1.3V47.4h-2.7V54.2
		L19.9,54.2z M31.5,62.4c-0.5,0.3-1.2,0.4-2,0.4c-1.3,0-2.2-0.7-2.2-1.8c0-0.9,0.9-1.5,2-1.5c0.9,0,1.8,0.4,2.2,0.8V62.4L31.5,62.4z
		 M34.1,57.9c0-2.6-0.9-4.3-4.5-4.3c-1.7,0-3,0.4-4,0.9l0.8,1.9c0.4-0.2,1.6-0.6,3-0.6c1.5,0,2.1,0.6,2.1,1.5v1.1
		c-0.6-0.5-1.9-0.7-2.7-0.7c-2,0-4.3,0.9-4.3,3.3c0,2.1,1.5,3.9,4.8,3.9c2.5,0,4-0.7,4.8-1.3V57.9L34.1,57.9z M39.3,64.5v-17h-2.7
		v17H39.3L39.3,64.5z M44.7,64.5V53.9H42v10.6H44.7L44.7,64.5z M43.3,52.1c1,0,1.7-0.7,1.7-1.7c0-1-0.7-1.7-1.7-1.7
		c-1,0-1.7,0.7-1.7,1.7C41.6,51.4,42.3,52.1,43.3,52.1L43.3,52.1z M63.2,64.5v-7.2c0-2.6-1.2-3.8-3.4-3.8c-1.6,0-2.9,1-3.8,1.6
		c-0.3-0.6-0.9-1.6-2.6-1.6c-1.6,0-2.8,1-3.3,1.4v-1.1h-2.7v10.6h2.7v-7.4c0.3-0.4,1.3-1.1,2.2-1.1c1,0,1.6,0.5,1.6,1.7v6.8h2.7
		v-7.4c0.4-0.5,1.3-1.1,2.3-1.1c1,0,1.5,0.6,1.5,1.8v6.7H63.2L63.2,64.5z M71.9,62.4c-0.5,0.3-1.2,0.4-2,0.4c-1.3,0-2.2-0.7-2.2-1.8
		c0-0.9,0.9-1.5,2-1.5c0.9,0,1.8,0.4,2.2,0.8V62.4L71.9,62.4z M74.5,57.9c0-2.6-0.9-4.3-4.5-4.3c-1.7,0-3,0.4-4,0.9l0.8,1.9
		c0.4-0.2,1.6-0.6,3-0.6c1.5,0,2.1,0.6,2.1,1.5v1.1c-0.6-0.5-1.9-0.7-2.7-0.7c-2,0-4.3,0.9-4.3,3.3c0,2.1,1.5,3.9,4.8,3.9
		c2.5,0,4-0.7,4.8-1.3V57.9L74.5,57.9z"/>
</g></a>
</svg>
