<?xml version="1.0" encoding="utf-8"?>
<!-- Generator: Adobe Illustrator 25.2.3, SVG Export Plug-In . SVG Version: 6.00 Build 0)  -->
<svg version="1.1" id="Layer_1" xmlns="http://www.w3.org/2000/svg" width="243.725" height="95.826" xmlns:xlink="http://www.w3.org/1999/xlink" x="0px" y="0px"
	 viewBox="0 0 243.7 95.8" style="enable-background:new 0 0 243.7 95.8;" xml:space="preserve">
<style type="text/css">
	.st0{opacity:0.92;fill:#2D314E;enable-background:new    ;}
	.st1{fill:none;}
	.st2{fill:#E84D46;}
	.st3{fill:#DCC020;}
	.st4{fill:#676D81;}
	.st5{fill:#FFFFFF;}
	.st6{fill:#002C46;}
	.st7{fill:#FFFFFF;stroke:#FFFFFF;stroke-width:0.5001;stroke-miterlimit:10.001;}
	.st8{fill:#FFFFFF;stroke:#FFFFFF;stroke-width:0.5;stroke-miterlimit:10.002;}
</style>
<g id="xenon_1" transform="translate(-200.275 -451.873)">
	<g id="_24_julho_novo" transform="translate(200.275 451.873)">
		<path id="Path_11" class="st0" d="M126.2,92.6c-0.1,1.9-1.7,3.3-3.6,3.2c-1.9-0.1-3.3-1.7-3.2-3.6c0.1-1.8,1.6-3.2,3.4-3.2
			C124.8,89.1,126.3,90.7,126.2,92.6z"/>
	</g>
	<rect id="Rectangle_43" x="348" y="487" class="st1" width="96" height="26"/>
</g>
<g>
	<rect x="92.5" y="50" class="st2" width="30.3" height="22.3"/>
	<g>
		<rect x="1.6" y="35.1" class="st2" width="44.3" height="15.1"/>
	</g>
	<g>
		<g>
			<rect x="45.6" y="35.1" class="st3" width="47.7" height="15.1"/>
		</g>
	</g>
	<g>
		<rect x="1.6" y="50" class="st4" width="91.7" height="22.3"/>
	</g>
</g>
<polygon class="st2" points="122.8,72.3 122.8,82.6 115.7,70.3 "/>
<g>
	<path class="st5" d="M16,47c-0.6,0-1.1-0.1-1.5-0.3c-0.4-0.2-0.7-0.6-1-1c-0.2-0.4-0.4-0.9-0.6-1.4c-0.2-0.5-0.2-1.1-0.2-1.6
		c0-1.2,0.3-2.3,0.9-3.1c0.6-0.8,1.5-1.2,2.5-1.2c1,0,1.7,0.3,2.3,1L18,40.2c-0.5-0.6-1.1-0.9-1.8-0.9c-0.7,0-1.4,0.3-1.8,1
		c-0.4,0.6-0.6,1.5-0.6,2.3v0.3c0.2-0.3,0.6-0.6,1-0.9s0.9-0.4,1.4-0.4c0.8,0,1.5,0.2,1.9,0.7c0.5,0.5,0.8,1.1,0.8,1.9
		c0,0.7-0.2,1.4-0.8,1.9C17.6,46.6,16.9,47,16,47z M16,46c0.6,0,1.1-0.2,1.4-0.6c0.3-0.4,0.5-0.8,0.5-1.2c0-0.6-0.2-1.1-0.6-1.4
		c-0.3-0.3-0.8-0.5-1.4-0.5c-0.4,0-0.8,0.1-1.2,0.3c-0.4,0.2-0.6,0.6-0.9,0.9c0.1,0.6,0.2,1.1,0.6,1.6C14.8,45.7,15.3,46,16,46z"/>
	<path class="st5" d="M27.5,46.8h-1.3l-2.7-3.6l-2.7,3.6h-1.2l3.2-4.3l-3.1-4H21l2.5,3.3l2.5-3.3h1.3l-3.1,4L27.5,46.8z"/>
	<path class="st5" d="M31,47c-0.6,0-1.3-0.2-1.8-0.4c-0.5-0.2-0.9-0.6-1.2-1l0.6-0.6c0.2,0.3,0.6,0.6,1,0.8c0.4,0.2,0.9,0.3,1.4,0.3
		c0.6,0,1.1-0.2,1.5-0.4c0.3-0.3,0.6-0.6,0.6-1.1s-0.2-0.9-0.6-1.1c-0.4-0.2-0.9-0.3-1.5-0.3c-0.5,0-0.8,0-0.9,0v-1
		c0.1,0,0.4,0,0.9,0c0.6,0,1.1-0.1,1.4-0.3c0.4-0.2,0.6-0.6,0.6-1.1c0-0.4-0.2-0.8-0.6-1.1c-0.3-0.2-0.8-0.4-1.4-0.4
		c-0.8,0-1.6,0.3-2.2,1.1l-0.6-0.6c0.7-0.9,1.7-1.3,2.8-1.3c0.8,0,1.5,0.2,2,0.6c0.6,0.4,0.8,1,0.8,1.6s-0.2,1-0.6,1.3
		c-0.4,0.3-0.8,0.6-1.2,0.6c0.5,0.1,0.9,0.2,1.3,0.6c0.4,0.4,0.7,0.8,0.7,1.4c0,0.7-0.2,1.3-0.8,1.7C32.7,46.7,32,47,31,47z"/>
</g>
<g>
	<path class="st6" d="M59.4,46.8h-1l-4.9-6.6v6.6h-1.1v-8.4h1.1l4.9,6.6v-6.6h1.1L59.4,46.8L59.4,46.8z"/>
	<path class="st6" d="M68.2,45.7c-0.8,0.8-1.8,1.2-3,1.2c-1.2,0-2.2-0.4-3-1.2c-0.8-0.8-1.2-1.9-1.2-3.1s0.4-2.3,1.1-3.1
		c0.8-0.8,1.8-1.2,3-1.2c1.2,0,2.2,0.4,3,1.2c0.8,0.8,1.1,1.9,1.1,3.1C69.4,43.9,69,44.9,68.2,45.7z M65.2,46c0.9,0,1.7-0.3,2.3-1
		s0.9-1.5,0.9-2.4c0-1-0.3-1.8-0.9-2.4s-1.3-1-2.3-1c-0.9,0-1.7,0.3-2.3,1c-0.6,0.6-0.8,1.5-0.8,2.4c0,1,0.2,1.8,0.8,2.4
		C63.6,45.7,64.3,46,65.2,46z"/>
	<path class="st6" d="M74.6,46.8h-1.3l-3.4-8.4h1.2l2.8,7.2l2.8-7.2H78L74.6,46.8z"/>
	<path class="st6" d="M85.6,45.7c-0.8,0.8-1.8,1.2-3,1.2s-2.2-0.4-3-1.2c-0.8-0.8-1.1-1.9-1.1-3.1c0-1.2,0.4-2.3,1.1-3.1
		c0.8-0.8,1.8-1.2,3-1.2s2.2,0.4,3,1.2c0.8,0.8,1.1,1.9,1.1,3.1C86.7,43.9,86.3,44.9,85.6,45.7z M82.6,46c0.9,0,1.7-0.3,2.3-1
		c0.6-0.6,0.9-1.5,0.9-2.4c0-1-0.3-1.8-0.9-2.4s-1.3-1-2.3-1c-0.9,0-1.7,0.3-2.3,1c-0.6,0.7-0.8,1.5-0.8,2.4c0,1,0.2,1.8,0.8,2.4
		C80.9,45.7,81.6,46,82.6,46z"/>
</g>
<g>
	<path class="st7" d="M13,65.3H9.2V57h3.7c0.7,0,1.3,0.2,1.7,0.6c0.4,0.4,0.6,0.9,0.6,1.5c0,0.5-0.2,0.9-0.4,1.3
		c-0.3,0.3-0.6,0.6-1.1,0.6c0.4,0.1,0.8,0.3,1.1,0.7s0.5,0.9,0.5,1.4c0,0.6-0.2,1.2-0.6,1.6C14.3,65.2,13.7,65.3,13,65.3z
		 M12.7,60.6c0.5,0,0.8-0.2,1.1-0.4c0.2-0.2,0.4-0.6,0.4-1s-0.2-0.7-0.4-1c-0.2-0.2-0.6-0.4-1.1-0.4h-2.5v2.7L12.7,60.6L12.7,60.6z
		 M12.7,64.4c0.5,0,0.9-0.2,1.1-0.4c0.2-0.2,0.4-0.6,0.4-1.1c0-0.5-0.2-0.7-0.4-1.1c-0.2-0.2-0.6-0.4-1.1-0.4h-2.6v2.9h2.6V64.4z"/>
	<path class="st7" d="M23.1,65.3h-1.2L19.8,62h-1.7v3.3H17V57h3.4c0.8,0,1.4,0.2,1.9,0.7c0.5,0.5,0.7,1.1,0.7,1.9
		c0,0.7-0.2,1.3-0.6,1.7c-0.4,0.4-1,0.6-1.5,0.7L23.1,65.3z M20.3,61.1c0.5,0,0.9-0.2,1.2-0.5c0.3-0.3,0.5-0.6,0.5-1.1
		c0-0.5-0.2-0.9-0.5-1.1C21.2,58,20.7,58,20.3,58h-2.2v3.2L20.3,61.1L20.3,61.1z"/>
	<path class="st7" d="M30.1,65.3h-5.5V57h5.5v0.9h-4.5v2.7H30v0.9h-4.4v2.9h4.5V65.3z"/>
	<path class="st7" d="M35.6,65.3h-1.3L30.9,57h1.2l2.8,7.2l2.8-7.2H39L35.6,65.3z"/>
	<path class="st7" d="M45.5,65.3H40V57h5.5v0.9H41v2.7h4.4v0.9H41v2.9h4.5V65.3z"/>
	<path class="st7" d="M55.4,65.3h-1.1v-7l-2.8,7h-0.4l-2.8-7v7h-1.1V57h1.5l2.6,6.5l2.6-6.5h1.5V65.3L55.4,65.3z"/>
	<path class="st7" d="M62.8,65.3h-5.5V57h5.5v0.9h-4.5v2.7h4.4v0.9h-4.4v2.9h4.5V65.3z"/>
	<path class="st7" d="M71.4,65.3h-1l-4.9-6.6v6.6h-1.1V57h1.1l4.9,6.6V57h1.1L71.4,65.3L71.4,65.3z"/>
	<path class="st7" d="M76.5,65.3h-1.1v-7.4h-2.7V57H79v0.9h-2.7L76.5,65.3L76.5,65.3z"/>
	<path class="st7" d="M86,65.3h-5.5V57H86v0.9h-4.5v2.7h4.4v0.9h-4.4v2.9H86V65.3z"/>
</g>
<g>
	<path class="st8" d="M104.6,65.7h-1.1v-7.3l-1.4,1.5l-0.7-0.7l2.2-2.2h0.9V65.7z"/>
	<path class="st8" d="M109.1,65.9c-0.7,0-1.3-0.1-1.8-0.4c-0.5-0.3-0.9-0.6-1.2-1l0.6-0.7c0.3,0.3,0.6,0.6,1,0.8
		c0.4,0.2,0.9,0.3,1.4,0.3c0.6,0,1.1-0.1,1.5-0.4c0.4-0.3,0.5-0.7,0.5-1.2c0-0.5-0.2-0.9-0.6-1.2c-0.4-0.3-0.9-0.4-1.6-0.4
		c-0.5,0-0.8,0-0.9,0v-1c0.1,0,0.4,0,0.9,0c0.6,0,1.1-0.1,1.5-0.4c0.4-0.2,0.6-0.6,0.6-1.1c0-0.5-0.2-0.8-0.6-1.1
		c-0.4-0.3-0.8-0.4-1.4-0.4c-0.9,0-1.6,0.4-2.3,1.1l-0.6-0.7c0.7-0.9,1.7-1.3,3-1.3c0.9,0,1.6,0.2,2.1,0.6c0.5,0.4,0.8,1,0.8,1.7
		c0,0.6-0.2,1-0.6,1.4c-0.4,0.3-0.8,0.6-1.3,0.6c0.5,0.1,0.9,0.3,1.4,0.6c0.4,0.4,0.6,0.9,0.6,1.5c0,0.7-0.3,1.3-0.8,1.8
		C110.8,65.7,110,65.9,109.1,65.9z"/>
</g>
</svg>
