<?xml version="1.0" encoding="utf-8"?>
<!-- Generator: Adobe Illustrator 25.2.3, SVG Export Plug-In . SVG Version: 6.00 Build 0)  -->
<svg version="1.1" id="Layer_1" xmlns="http://www.w3.org/2000/svg" width="200" height="95" xmlns:xlink="http://www.w3.org/1999/xlink" x="0px" y="0px"
	 viewBox="0 0 200 95" style="enable-background:new 0 0 200 95;" xml:space="preserve">
<style type="text/css">
	.st0{opacity:0.92;fill:#2D314E;enable-background:new    ;}
	.st1{fill:none;}
	.st2{fill:#E84D46;}
	.st3{fill:#DCC020;}
	.st4{fill:#676D81;}
	.st5{fill:#FFFFFF;}
	.st6{fill:#002C46;}
	.st7{fill:#FFFFFF;stroke:#FFFFFF;stroke-width:0.5;stroke-miterlimit:10;}
	.st8{fill:#FFFFFF;stroke:#FFFFFF;stroke-width:0.5;stroke-miterlimit:10.002;}
</style>
<g id="_24_julho_novo" transform="translate(200.275 451.873)">
	<path id="Path_11" class="st0" d="M-116.1-367.9c-0.1,2.2-2,3.9-4.3,3.8c-2.2-0.1-3.9-2-3.8-4.3c0.1-2.1,1.9-3.8,4-3.8
		C-117.8-372-116-370.1-116.1-367.9z"/>
</g>
<g id="casino" transform="translate(-470.926 -104.601)">
	<g id="Group_66" transform="translate(-445.705 -152.518)">
		<rect id="Rectangle_41" x="916.7" y="274.4" class="st1" width="56.7" height="52.3"/>
	</g>
</g>
<g>
	<rect x="146.2" y="3.9" class="st2" width="44.4" height="15.1"/>
</g>
<g>
	<rect x="80.1" y="3.9" class="st3" width="65.9" height="15.1"/>
</g>
<rect x="110.4" y="19" class="st4" width="80.5" height="22.2"/>
<rect x="68.5" y="19" class="st1" width="30.3" height="22.2"/>
<g>
	<rect x="80.1" y="19" class="st2" width="30.3" height="22.2"/>
</g>
<rect x="146.2" y="3.9" class="st1" width="44.4" height="15.1"/>
<g>
	<rect x="110.5" y="42.4" class="st4" width="80.1" height="22.2"/>
</g>
<rect x="98.8" y="42.4" class="st1" width="91.8" height="22.2"/>
<rect x="68.5" y="42.4" class="st1" width="30.3" height="22.2"/>
<g>
	<rect x="80.1" y="42.4" class="st2" width="30.3" height="22.2"/>
</g>
<polygon class="st2" points="80.1,64.7 80.2,75.5 86,62.6 "/>
<g>
	<path class="st5" d="M157.5,15.9h-1.1V8.4L155,10l-0.7-0.7l2.3-2.3h1L157.5,15.9L157.5,15.9z"/>
	<path class="st5" d="M165.5,15.9h-6.2V15c1.8-1.5,3.1-2.5,3.9-3.3s1.1-1.6,1.1-2.3c0-0.5-0.2-1-0.5-1.2c-0.3-0.3-0.8-0.4-1.3-0.4
		c-1,0-1.8,0.3-2.4,1.1l-0.8-0.8c0.3-0.4,0.8-0.8,1.3-1c0.5-0.3,1.1-0.3,1.8-0.3c0.8,0,1.6,0.3,2.1,0.7c0.6,0.4,0.9,1.1,0.9,1.9
		c0,0.9-0.3,1.6-1,2.5s-1.8,1.8-3.3,3h4.4V15.9z"/>
	<path class="st5" d="M175.1,15.9h-1.4l-2.9-3.8l-2.9,3.8h-1.4l3.5-4.6L166.8,7h1.4l2.7,3.6l2.7-3.6h1.4l-3.3,4.3L175.1,15.9z"/>
	<path class="st5" d="M178.8,16.1c-0.7,0-1.4-0.2-1.9-0.4s-1-0.6-1.3-1l0.7-0.7c0.3,0.3,0.6,0.6,1,0.9c0.4,0.2,1,0.3,1.5,0.3
		c0.6,0,1.1-0.2,1.6-0.4c0.3-0.3,0.6-0.7,0.6-1.2s-0.2-1-0.6-1.2c-0.4-0.3-1-0.3-1.6-0.3c-0.5,0-0.9,0-1,0V11c0.1,0,0.4,0,1,0
		s1.1-0.1,1.5-0.3c0.4-0.3,0.6-0.6,0.6-1.1c0-0.4-0.2-0.9-0.6-1.1c-0.3-0.3-0.9-0.4-1.5-0.4c-0.9,0-1.7,0.3-2.3,1.1l-0.6-0.7
		c0.8-1,1.8-1.4,3-1.4c0.9,0,1.6,0.2,2.2,0.6c0.6,0.4,0.9,1,0.9,1.7c0,0.6-0.2,1-0.6,1.4s-0.9,0.6-1.3,0.7c0.5,0.1,1,0.3,1.4,0.7
		s0.7,0.9,0.7,1.6c0,0.8-0.3,1.4-0.9,1.8C180.6,15.9,179.8,16.1,178.8,16.1z"/>
</g>
<g>
	<path class="st6" d="M102.4,15.9h-1l-5.2-7.1v7.1h-1.1v-9h1.1l5.2,7v-7h1.1L102.4,15.9L102.4,15.9z"/>
	<path class="st6" d="M111.8,14.7c-0.9,0.9-1.9,1.3-3.2,1.3c-1.3,0-2.3-0.4-3.2-1.3c-0.9-0.9-1.2-2-1.2-3.3s0.4-2.4,1.2-3.3
		c0.9-0.9,1.9-1.3,3.2-1.3c1.3,0,2.3,0.4,3.2,1.3s1.2,2,1.2,3.3C113.1,12.7,112.7,13.9,111.8,14.7z M108.6,15.1c1,0,1.8-0.3,2.4-1
		s1-1.6,1-2.6s-0.3-1.9-1-2.6s-1.4-1-2.4-1s-1.8,0.3-2.4,1s-0.9,1.6-0.9,2.6s0.3,1.9,0.9,2.6C106.8,14.7,107.6,15.1,108.6,15.1z"/>
	<path class="st6" d="M118.6,15.9h-1.4L113.6,7h1.3l3,7.7l3-7.7h1.3L118.6,15.9z"/>
	<path class="st6" d="M130.5,14.7c-0.9,0.9-1.9,1.3-3.2,1.3s-2.3-0.4-3.2-1.3s-1.2-2-1.2-3.3s0.4-2.4,1.2-3.3
		c0.9-0.9,1.9-1.3,3.2-1.3c1.3,0,2.3,0.4,3.2,1.3s1.2,2,1.2,3.3S131.3,13.9,130.5,14.7z M127.2,15.1c1,0,1.8-0.3,2.4-1
		c0.6-0.7,1-1.6,1-2.6s-0.3-1.9-1-2.6s-1.4-1-2.4-1c-1,0-1.8,0.3-2.4,1s-0.9,1.6-0.9,2.6s0.3,1.9,0.9,2.6
		C125.4,14.7,126.2,15.1,127.2,15.1z"/>
</g>
<g>
	<path class="st7" d="M125.4,34.8c-1.3,0-2.4-0.4-3.3-1.3s-1.3-2-1.3-3.4s0.4-2.5,1.3-3.4s2-1.3,3.3-1.3c1.5,0,2.6,0.6,3.4,1.7
		l-1,0.5c-0.3-0.4-0.6-0.7-1-1s-1-0.3-1.4-0.3c-1,0-1.8,0.3-2.5,1s-1,1.6-1,2.6s0.3,1.9,1,2.6s1.5,1,2.4,1c0.5,0,1-0.1,1.4-0.3
		c0.4-0.3,0.8-0.5,1-1l1,0.5C127.9,34.2,126.7,34.8,125.4,34.8z"/>
	<path class="st7" d="M137.9,34.6h-1.3l-0.8-2h-4.4l-0.8,2h-1.3l3.6-8.9h1.4L137.9,34.6z M135.4,31.6l-1.9-4.9l-1.9,4.9H135.4z"/>
	<path class="st7" d="M141.8,34.8c-1.5,0-2.6-0.4-3.5-1.4l0.7-0.9c0.8,0.9,1.6,1.3,2.8,1.3c0.7,0,1.3-0.2,1.6-0.4
		c0.3-0.3,0.5-0.7,0.5-1.1c0-0.3-0.2-0.7-0.4-0.9c-0.3-0.3-0.6-0.4-1-0.5c-0.3-0.1-0.8-0.3-1.3-0.3c-0.4-0.2-0.9-0.3-1.3-0.4
		c-0.3-0.2-0.7-0.4-1-0.8c-0.3-0.3-0.4-0.8-0.4-1.3c0-0.7,0.3-1.3,0.9-1.8c0.6-0.4,1.3-0.7,2.3-0.7c1.3,0,2.3,0.4,3.2,1.3l-0.7,0.8
		c-0.6-0.7-1.5-1-2.6-1c-0.5,0-1,0.2-1.3,0.4s-0.5,0.6-0.5,1c0,0.3,0.2,0.6,0.4,0.8s0.6,0.3,1,0.4s0.8,0.3,1.3,0.3
		c0.4,0.2,0.9,0.3,1.3,0.4c0.4,0.1,0.7,0.4,1,0.8c0.3,0.3,0.4,0.8,0.4,1.3c0,0.7-0.3,1.4-0.8,1.8C143.7,34.5,142.9,34.8,141.8,34.8z
		"/>
	<path class="st7" d="M147.8,34.6h-1.1v-9h1.1V34.6z"/>
	<path class="st7" d="M157.4,34.6h-1l-5.2-7.1v7.1H150v-9h1.1l5.2,7v-7h1.1L157.4,34.6L157.4,34.6z"/>
	<path class="st7" d="M166.8,33.4c-0.9,0.9-1.9,1.3-3.2,1.3s-2.3-0.4-3.2-1.3c-0.9-0.9-1.2-2-1.2-3.3s0.4-2.4,1.2-3.3
		c0.9-0.9,1.9-1.3,3.2-1.3s2.3,0.4,3.2,1.3s1.2,2,1.2,3.3S167.6,32.5,166.8,33.4z M163.6,33.7c1,0,1.8-0.3,2.4-1
		c0.6-0.7,1-1.6,1-2.6s-0.3-1.9-1-2.6c-0.6-0.7-1.4-1-2.4-1s-1.8,0.3-2.4,1c-0.6,0.7-0.9,1.6-0.9,2.6s0.3,1.9,0.9,2.6
		C161.7,33.4,162.6,33.7,163.6,33.7z"/>
	<path class="st7" d="M180.9,34.6h-1.3l-0.8-2h-4.4l-0.8,2h-1.3l3.6-8.9h1.4L180.9,34.6z M178.6,31.6l-1.9-4.9l-1.9,4.9H178.6z"/>
</g>
<g>
	<path class="st7" d="M125.5,58.2c-1.3,0-2.4-0.4-3.3-1.3s-1.3-2-1.3-3.4s0.4-2.5,1.3-3.4s2-1.3,3.3-1.3c1.5,0,2.6,0.6,3.4,1.7
		l-1,0.5c-0.3-0.4-0.6-0.7-1-1s-1-0.3-1.4-0.3c-1,0-1.8,0.3-2.5,1s-1,1.6-1,2.6s0.3,1.9,1,2.6c0.7,0.7,1.5,1,2.4,1
		c0.5,0,1-0.1,1.4-0.3c0.4-0.3,0.8-0.5,1-1l1,0.5C128.1,57.6,126.9,58.2,125.5,58.2z"/>
	<path class="st7" d="M138,58.1h-1.3l-0.8-2h-4.4l-0.8,2h-1.3l3.6-8.9h1.4L138,58.1z M135.7,55l-1.9-4.9l-1.9,4.9H135.7z"/>
	<path class="st7" d="M141.9,58.2c-1.5,0-2.6-0.4-3.5-1.4l0.7-0.9c0.8,0.9,1.6,1.3,2.8,1.3c0.7,0,1.3-0.2,1.6-0.4
		c0.3-0.3,0.5-0.7,0.5-1.1c0-0.3-0.2-0.7-0.4-0.9c-0.3-0.3-0.6-0.4-1-0.5s-0.8-0.3-1.3-0.3c-0.4-0.2-0.9-0.3-1.3-0.4
		c-0.3-0.2-0.7-0.4-1-0.8c-0.3-0.3-0.4-0.8-0.4-1.3c0-0.7,0.3-1.3,0.9-1.8c0.6-0.5,1.3-0.7,2.3-0.7c1.3,0,2.3,0.4,3.2,1.3l-0.7,0.8
		c-0.6-0.7-1.5-1-2.6-1c-0.5,0-1,0.2-1.3,0.4c-0.3,0.3-0.5,0.6-0.5,1c0,0.3,0.2,0.6,0.4,0.8s0.6,0.3,1,0.4c0.4,0.1,0.8,0.3,1.3,0.3
		c0.5,0.1,0.9,0.3,1.3,0.4c0.4,0.1,0.7,0.4,1,0.8c0.3,0.3,0.4,0.8,0.4,1.3c0,0.7-0.3,1.4-0.8,1.8C143.9,58,143.1,58.2,141.9,58.2z"
		/>
	<path class="st7" d="M148,58.1h-1.1v-9h1.1V58.1z"/>
	<path class="st7" d="M157.6,58.1h-1l-5.2-7.1v7.1h-1.1v-9h1.1l5.2,7v-7h1.1L157.6,58.1L157.6,58.1z"/>
	<path class="st7" d="M166.9,56.8c-0.9,0.9-1.9,1.3-3.2,1.3s-2.3-0.4-3.2-1.3s-1.2-2-1.2-3.3s0.4-2.4,1.2-3.3
		c0.9-0.9,1.9-1.3,3.2-1.3s2.3,0.4,3.2,1.3c0.9,0.9,1.2,2,1.2,3.3C168.3,54.8,167.8,56,166.9,56.8z M163.7,57.2c1,0,1.8-0.3,2.4-1
		c0.6-0.7,1-1.6,1-2.6s-0.3-1.9-1-2.6s-1.4-1-2.4-1s-1.8,0.3-2.4,1s-0.9,1.6-0.9,2.6s0.3,1.9,0.9,2.6
		C162,56.8,162.8,57.2,163.7,57.2z"/>
	<path class="st7" d="M177.5,58.1h-4.1v-9h4c0.8,0,1.4,0.2,1.8,0.6c0.4,0.4,0.7,1,0.7,1.6c0,0.5-0.2,1-0.4,1.4
		c-0.3,0.3-0.7,0.6-1.1,0.7c0.4,0.1,0.9,0.3,1.2,0.8c0.3,0.4,0.5,1,0.5,1.5c0,0.7-0.3,1.3-0.7,1.7S178.3,58.1,177.5,58.1z
		 M177.3,52.9c0.5,0,0.9-0.2,1.1-0.4c0.3-0.3,0.4-0.6,0.4-1s-0.2-0.8-0.4-1c-0.3-0.3-0.7-0.4-1.1-0.4h-2.7V53L177.3,52.9L177.3,52.9
		z M177.4,57c0.5,0,1-0.2,1.2-0.4c0.3-0.3,0.4-0.7,0.4-1.1s-0.2-0.8-0.4-1.1c-0.3-0.3-0.7-0.4-1.2-0.4h-2.8v3H177.4z"/>
</g>
<g>
	<path class="st8" d="M90.8,34.7c-0.6,0-1.1-0.1-1.6-0.4c-0.5-0.3-0.8-0.6-1.1-1.1c-0.3-0.5-0.5-1-0.6-1.5c-0.1-0.5-0.2-1.1-0.2-1.7
		c0-0.6,0.1-1.1,0.2-1.7c0.1-0.5,0.3-1,0.6-1.5c0.3-0.5,0.6-0.8,1.1-1.1c0.5-0.3,1-0.4,1.6-0.4c0.6,0,1.1,0.1,1.6,0.4
		s0.8,0.6,1.1,1.1c0.3,0.5,0.5,1,0.6,1.5c0.1,0.5,0.2,1.1,0.2,1.7c0,0.6-0.1,1.1-0.2,1.7c-0.1,0.5-0.3,1-0.6,1.5
		c-0.3,0.5-0.6,0.8-1.1,1.1C91.9,34.6,91.4,34.7,90.8,34.7z M89.5,33.1c0.4,0.4,0.8,0.6,1.4,0.6c0.5,0,1-0.2,1.4-0.6
		c0.4-0.4,0.6-0.8,0.7-1.3c0.1-0.5,0.2-1.1,0.2-1.8c0-0.7-0.1-1.2-0.2-1.8c-0.1-0.5-0.4-1-0.7-1.3c-0.4-0.4-0.8-0.6-1.4-0.6
		c-0.5,0-1,0.2-1.4,0.6c-0.4,0.4-0.6,0.8-0.7,1.3c-0.1,0.5-0.2,1.1-0.2,1.8c0,0.7,0.1,1.2,0.2,1.8C88.9,32.3,89.1,32.8,89.5,33.1z"
		/>
	<path class="st8" d="M101.9,34.5h-6.2v-0.9c1.9-1.4,3.2-2.6,3.9-3.4c0.8-0.8,1.1-1.5,1.1-2.3c0-0.5-0.2-1-0.6-1.2
		c-0.4-0.3-0.8-0.4-1.3-0.4c-1,0-1.9,0.4-2.5,1.1l-0.7-0.7c0.3-0.5,0.8-0.8,1.3-1.1c0.6-0.2,1.2-0.4,1.8-0.4c0.8,0,1.5,0.2,2.1,0.7
		c0.6,0.5,0.9,1.1,0.9,2c0,0.8-0.4,1.7-1.1,2.5c-0.7,0.8-1.8,1.8-3.3,3h4.4V34.5z"/>
</g>
<g>
	<path class="st8" d="M90.9,58.7c-0.6,0-1.1-0.1-1.6-0.4c-0.5-0.3-0.8-0.6-1.1-1.1c-0.3-0.5-0.5-1-0.6-1.5c-0.1-0.5-0.2-1.1-0.2-1.7
		s0.1-1.1,0.2-1.7c0.1-0.5,0.3-1,0.6-1.5c0.3-0.5,0.6-0.8,1.1-1.1c0.5-0.3,1-0.4,1.6-0.4c0.6,0,1.1,0.1,1.6,0.4
		c0.5,0.3,0.8,0.6,1.1,1.1c0.3,0.5,0.5,1,0.6,1.5c0.1,0.5,0.2,1.1,0.2,1.7s-0.1,1.1-0.2,1.7c-0.1,0.5-0.3,1-0.6,1.5
		c-0.3,0.5-0.6,0.8-1.1,1.1C92,58.6,91.4,58.7,90.9,58.7z M89.5,57.1c0.4,0.4,0.8,0.6,1.4,0.6c0.5,0,1-0.2,1.4-0.6
		c0.4-0.4,0.6-0.8,0.8-1.4c0.1-0.5,0.2-1.1,0.2-1.8c0-0.7-0.1-1.2-0.2-1.8c-0.1-0.5-0.4-1-0.8-1.4c-0.4-0.4-0.8-0.6-1.4-0.6
		c-0.5,0-1,0.2-1.4,0.6c-0.4,0.4-0.6,0.8-0.8,1.4c-0.1,0.5-0.2,1.1-0.2,1.8c0,0.7,0.1,1.2,0.2,1.8C88.9,56.3,89.1,56.7,89.5,57.1z"
		/>
	<path class="st8" d="M98.7,58.7c-0.7,0-1.4-0.1-1.9-0.4c-0.6-0.3-1-0.6-1.3-1.1l0.7-0.7c0.3,0.4,0.6,0.7,1.1,0.9
		c0.4,0.2,0.9,0.3,1.5,0.3c0.7,0,1.2-0.2,1.6-0.5c0.4-0.3,0.6-0.7,0.6-1.2c0-0.5-0.2-1-0.6-1.2c-0.4-0.3-1-0.4-1.7-0.4
		c-0.5,0-0.9,0-0.9,0v-1c0.1,0,0.4,0,0.9,0c0.6,0,1.1-0.1,1.5-0.4c0.4-0.2,0.6-0.6,0.6-1.1c0-0.5-0.2-0.9-0.6-1.1s-0.9-0.4-1.5-0.4
		c-0.9,0-1.7,0.4-2.4,1.1l-0.6-0.7c0.8-0.9,1.8-1.4,3.1-1.4c0.9,0,1.6,0.2,2.2,0.6s0.9,1,0.9,1.8c0,0.6-0.2,1.1-0.6,1.4
		c-0.4,0.4-0.9,0.6-1.4,0.7c0.5,0.1,1,0.3,1.4,0.7c0.5,0.4,0.7,0.9,0.7,1.6c0,0.8-0.3,1.4-0.9,1.9C100.4,58.5,99.6,58.7,98.7,58.7z"
		/>
</g>
</svg>
