<svg width="146" height="71" viewBox="0 0 146 71" fill="none" xmlns="http://www.w3.org/2000/svg">
<g clip-path="url(#clip0_1_3)">
<path d="M145.928 30.315H100.319V52.5193H145.928V30.315Z" fill="#676D81"/>
<path d="M100.319 30.315H70.0135V52.5193H100.319V30.315Z" fill="#681758"/>
<path d="M145.928 15.2121H107.721V30.215H145.928V15.2121Z" fill="#681758"/>
<path d="M106.52 45.718C105.62 45.718 104.92 45.4179 104.32 44.7178L104.92 43.9177C105.32 44.5178 105.92 44.7178 106.42 44.7178C106.921 44.7178 107.321 44.5178 107.621 44.2177C107.921 43.9177 108.121 43.5176 108.121 42.9175V37.1163H109.221V42.9175C109.221 43.8176 109.021 44.4178 108.521 44.9179C107.921 45.4179 107.321 45.718 106.52 45.718Z" fill="white" stroke="white" stroke-width="0.500296" stroke-miterlimit="10.0038"/>
<path d="M118.023 45.518H116.822L116.122 43.6176H111.922L111.221 45.518H110.021L113.422 37.2164H114.722L118.023 45.518ZM115.722 42.8174L113.922 38.3166L112.122 42.8174H115.722Z" fill="white" stroke="white" stroke-width="0.500296" stroke-miterlimit="10.0038"/>
<path d="M126.024 45.518H125.024L120.223 38.9167V45.518H119.123V37.2164H120.223L125.024 43.7176V37.2164H126.124L126.024 45.518Z" fill="white" stroke="white" stroke-width="0.500296" stroke-miterlimit="10.0038"/>
<path d="M133.426 45.518H127.925V37.2164H133.426V38.1165H129.025V40.8171H133.426V41.7172H129.025V44.6178H133.426V45.518Z" fill="white" stroke="white" stroke-width="0.500296" stroke-miterlimit="10.0038"/>
<path d="M138.227 45.518H137.126V38.1165H134.426V37.2164H140.727V38.1165H138.027L138.227 45.518Z" fill="white" stroke="white" stroke-width="0.500296" stroke-miterlimit="10.0038"/>
<path d="M120.2 25.7854C120 25.9854 119.9 25.9854 119.7 25.9854C119.5 25.9854 119.4 25.8854 119.2 25.7854C119 25.6854 119 25.4854 119 25.2854C119 25.0854 119.1 24.9854 119.2 24.7854C119.3 24.5854 119.5 24.5854 119.7 24.5854C119.9 24.5854 120 24.6854 120.2 24.7854C120.4 24.8854 120.4 25.0854 120.4 25.2854C120.5 25.4854 120.4 25.6854 120.2 25.7854Z" fill="white"/>
<path d="M123.899 26.5978C122.6 26.5978 121.6 26.0979 121 25.1981L121.6 24.4983C122.2 25.1981 122.999 25.598 123.899 25.598C124.499 25.598 124.899 25.3981 125.299 25.0982C125.599 24.7983 125.899 24.2984 125.899 23.7985C125.899 23.1987 125.699 22.7988 125.299 22.4988C124.899 22.1989 124.499 21.999 123.899 21.999C123.199 21.999 122.5 22.1989 122 22.7988L121.3 22.5988V18H126.399V18.8998H122.4V21.799C122.9 21.2992 123.499 21.0992 124.299 21.0992C124.999 21.0992 125.699 21.2992 126.099 21.799C126.499 22.2989 126.898 22.8987 126.898 23.6985C126.898 24.4983 126.699 25.0982 126.099 25.698C125.399 26.2979 124.699 26.5978 123.899 26.5978Z" fill="white"/>
<path d="M117.101 26.2016H116.001V24.1012H112V23.301L115.601 18H117.101V23.301H118.301V24.2012H117.101C117.101 24.1012 117.101 26.2016 117.101 26.2016ZM116.001 23.201V18.8002L113.1 23.201H116.001Z" fill="white"/>
<path d="M136.002 26.4016H134.701L132.001 22.8009L129.3 26.4016H128L131.201 22.1008L128.1 18.1H129.4L131.901 21.4007L134.401 18.1H135.701L132.601 22.1008L136.002 26.4016Z" fill="white"/>
<path d="M139.301 26.6017C138.701 26.6017 138.2 26.5016 137.8 26.3016C137.4 26.1016 137.1 25.7015 136.8 25.3014C136.6 24.9013 136.4 24.4012 136.2 23.9011C136 23.401 136 22.8009 136 22.3008C136 21.1006 136.3 20.0004 136.9 19.2002C137.5 18.4001 138.4 18 139.401 18C140.401 18 141.101 18.3001 141.701 19.0002L141.101 19.8003C140.601 19.2002 140.001 18.9002 139.301 18.9002C138.601 18.9002 137.9 19.2002 137.5 19.9004C137.1 20.6005 136.9 21.4007 136.9 22.2008V22.5009C137.1 22.2008 137.5 21.9008 137.9 21.6007C138.3 21.4007 138.801 21.2006 139.301 21.2006C140.101 21.2006 140.801 21.4007 141.201 21.9007C141.701 22.4008 142.001 23.001 142.001 23.8011C142.001 24.5012 141.801 25.2014 141.201 25.7015C140.801 26.4016 140.101 26.6017 139.301 26.6017ZM139.201 25.6015C139.801 25.6015 140.301 25.4014 140.601 25.0013C140.901 24.6013 141.101 24.2012 141.101 23.8011C141.101 23.201 140.901 22.7009 140.501 22.4008C140.201 22.1008 139.701 21.9007 139.101 21.9007C138.701 21.9007 138.3 22.0008 137.9 22.2008C137.5 22.4008 137.3 22.8009 137 23.101C137.1 23.7011 137.2 24.2012 137.6 24.7013C138.1 25.4014 138.6 25.6015 139.201 25.6015Z" fill="white"/>
<path opacity="0.92" d="M72.989 67.3952C72.889 69.2955 71.2887 70.6958 69.3883 70.5958C67.488 70.4958 66.0877 68.8955 66.1877 66.9951C66.2877 65.1947 67.788 63.7945 69.5884 63.7945C71.5888 63.8945 73.089 65.4948 72.989 67.3952Z" fill="#2D314E"/>
<path d="M70.0135 52.5193V60.9209L75.1145 51.2191L70.0135 52.5193Z" fill="#681758"/>
<path d="M81.5157 45.718C81.0156 45.718 80.5155 45.618 80.0154 45.3179C79.6153 45.0179 79.2152 44.7178 79.0152 44.3177C78.8152 43.9177 78.6151 43.4176 78.5151 42.9175C78.4151 42.4174 78.3151 41.9173 78.3151 41.4172C78.3151 40.9171 78.4151 40.417 78.5151 39.9169C78.6151 39.4168 78.8152 39.0167 79.0152 38.5166C79.2152 38.1165 79.6153 37.7165 80.0154 37.5164C80.4155 37.2164 80.9156 37.1163 81.5157 37.1163C82.0158 37.1163 82.5159 37.2164 82.9159 37.5164C83.316 37.8165 83.7161 38.1165 83.9161 38.5166C84.1162 38.9167 84.3162 39.4168 84.4162 39.9169C84.5163 40.417 84.6163 40.9171 84.6163 41.4172C84.6163 41.9173 84.5163 42.4174 84.4162 42.9175C84.3162 43.4176 84.1162 43.8176 83.9161 44.3177C83.7161 44.7178 83.316 45.1179 82.9159 45.3179C82.5159 45.618 82.0158 45.718 81.5157 45.718ZM80.2154 44.3177C80.5155 44.6178 80.9156 44.8178 81.4157 44.8178C81.9158 44.8178 82.3158 44.6178 82.6159 44.3177C82.9159 44.0177 83.216 43.5176 83.316 43.1175C83.416 42.6174 83.5161 42.1173 83.5161 41.5172C83.5161 40.9171 83.416 40.417 83.316 39.9169C83.216 39.4168 82.9159 39.0167 82.6159 38.7167C82.3158 38.4166 81.9158 38.2166 81.4157 38.2166C80.9156 38.2166 80.5155 38.4166 80.2154 38.7167C79.9154 39.0167 79.6153 39.5168 79.5153 39.9169C79.4153 40.417 79.3153 40.9171 79.3153 41.5172C79.3153 42.1173 79.4153 42.6174 79.5153 43.1175C79.7153 43.5176 79.9154 43.9177 80.2154 44.3177Z" fill="white" stroke="white" stroke-width="0.500096" stroke-miterlimit="10.002"/>
<path d="M88.6171 45.718C87.7169 45.718 86.9167 45.4179 86.3166 44.7178L86.8167 43.9177C87.3168 44.5178 87.9169 44.7178 88.6171 44.7178C89.1171 44.7178 89.6172 44.5178 89.9173 44.2177C90.3174 43.9177 90.5174 43.5176 90.7175 43.0175C90.8175 42.5174 90.9175 42.0173 90.9175 41.4172C90.9175 41.3172 90.9175 41.2171 90.9175 41.1171C90.7175 41.4172 90.4174 41.7172 89.9173 42.0173C89.5172 42.3173 89.0171 42.4174 88.517 42.4174C87.7169 42.4174 87.1168 42.2173 86.5166 41.7172C85.9165 41.2171 85.7165 40.617 85.7165 39.7168C85.7165 39.0167 86.0166 38.3166 86.5166 37.8165C87.0167 37.3164 87.7169 37.0163 88.6171 37.0163C89.2172 37.0163 89.6172 37.1163 90.1173 37.3164C90.6174 37.5164 90.9175 37.9165 91.1175 38.3166C91.3176 38.7167 91.5176 39.2168 91.7176 39.7168C91.8177 40.2169 91.9177 40.717 91.9177 41.3172C91.9177 42.1173 91.8177 42.8174 91.6176 43.4176C91.4176 44.0177 91.0175 44.5178 90.5174 45.0179C90.0173 45.518 89.4172 45.718 88.6171 45.718ZM88.9171 41.6172C89.3172 41.6172 89.7173 41.5172 90.1173 41.3172C90.5174 41.1171 90.8175 40.8171 91.0175 40.417C91.0175 40.1169 90.9175 39.9169 90.8175 39.6168C90.7175 39.3168 90.6174 39.1167 90.4174 38.9167C90.2174 38.7167 90.0173 38.5166 89.8173 38.3166C89.5172 38.2166 89.2172 38.1165 88.9171 38.1165C88.317 38.1165 87.8169 38.3166 87.5168 38.6166C87.2168 39.0167 87.0167 39.4168 87.0167 39.8169C87.0167 40.417 87.2168 40.8171 87.5168 41.1171C87.8169 41.4172 88.317 41.6172 88.9171 41.6172Z" fill="white" stroke="white" stroke-width="0.500096" stroke-miterlimit="10.002"/>
</g>
<defs>
<clipPath id="clip0_1_3">
<rect width="145.528" height="70.532" fill="white"/>
</clipPath>
</defs>
</svg>
