<?xml version="1.0" encoding="utf-8"?>
<!-- Generator: Adobe Illustrator 25.2.3, SVG Export Plug-In . SVG Version: 6.00 Build 0)  -->
<svg version="1.1" id="Layer_1" xmlns="http://www.w3.org/2000/svg" width="234.814" height="84.965" xmlns:xlink="http://www.w3.org/1999/xlink" x="0px" y="0px"
	 viewBox="0 0 234.8 85" style="enable-background:new 0 0 234.8 85;" xml:space="preserve">
<style type="text/css">
	.st0{opacity:0.92;fill:#2D314E;enable-background:new    ;}
	.st1{fill:none;}
	.st2{fill:#D0D09B;}
	.st3{fill:#E84D46;}
	.st4{fill:#FFFFFF;}
	.st5{fill:#002C46;stroke:#002C46;stroke-width:0.4998;stroke-miterlimit:9.9959;}
	.st6{fill:#FFFFFF;stroke:#FFFFFF;stroke-width:0.5;stroke-miterlimit:10.002;}
</style>
<g id="_24_julho_novo" transform="translate(200.275 451.873)">
	<path id="Path_11" class="st0" d="M-75.5-370.2c-0.1,1.9-1.7,3.3-3.6,3.2c-1.9-0.1-3.3-1.7-3.2-3.6c0.1-1.8,1.6-3.2,3.4-3.2
		C-76.9-373.7-75.4-372.1-75.5-370.2z"/>
</g>
<g id="maritimo" transform="translate(-104 -349.572)">
	<rect id="Rectangle_42" x="104.5" y="378" class="st1" width="96" height="24"/>
</g>
<g>
	<g>
		<rect x="151.7" y="36.9" class="st2" width="72.4" height="22.3"/>
	</g>
</g>
<g>
	<rect x="121.4" y="36.9" class="st3" width="30.4" height="22.3"/>
</g>
<g>
	<g>
		<rect x="179.6" y="21.8" class="st3" width="44.4" height="15.1"/>
	</g>
</g>
<polygon class="st3" points="121.4,59.2 121.4,71 127.5,57.6 "/>
<g>
	<path class="st4" d="M191.7,33.6h-1.1v-7l-1.4,1.5l-0.6-0.6l2.1-2.2h0.9L191.7,33.6L191.7,33.6z"/>
	<path class="st4" d="M199.1,33.6h-5.8v-0.8c1.7-1.4,2.9-2.3,3.6-3.1c0.7-0.8,1.1-1.5,1.1-2.1c0-0.5-0.2-0.9-0.5-1.1
		c-0.3-0.2-0.7-0.4-1.2-0.4c-1,0-1.7,0.3-2.3,1.1l-0.6-0.6c0.3-0.4,0.7-0.7,1.2-1c0.5-0.2,1.1-0.3,1.7-0.3c0.7,0,1.5,0.2,1.9,0.6
		c0.6,0.4,0.8,1.1,0.8,1.8c0,0.8-0.3,1.5-1,2.3s-1.7,1.7-3.1,2.8h4.1L199.1,33.6L199.1,33.6z"/>
	<path class="st4" d="M208.1,33.6h-1.3l-2.7-3.6l-2.7,3.6h-1.3l3.2-4.3l-3.1-4.1h1.3l2.5,3.3l2.5-3.3h1.3l-3.1,4.1L208.1,33.6z"/>
	<path class="st4" d="M211.6,33.7c-0.6,0-1.3-0.2-1.8-0.4c-0.5-0.2-0.9-0.6-1.2-1l0.6-0.6c0.2,0.3,0.6,0.6,1,0.8
		c0.4,0.2,0.9,0.3,1.4,0.3c0.6,0,1.1-0.2,1.5-0.4c0.3-0.3,0.6-0.6,0.6-1.1s-0.2-0.9-0.6-1.1c-0.4-0.2-0.9-0.3-1.5-0.3
		c-0.5,0-0.8,0-0.9,0v-1c0.1,0,0.4,0,0.9,0c0.6,0,1.1-0.1,1.4-0.3c0.4-0.2,0.6-0.6,0.6-1.1c0-0.4-0.2-0.8-0.6-1.1
		c-0.3-0.2-0.8-0.4-1.4-0.4c-0.8,0-1.6,0.3-2.2,1.1l-0.6-0.6c0.7-0.9,1.7-1.3,2.8-1.3c0.8,0,1.5,0.2,2,0.6c0.6,0.4,0.8,1,0.8,1.6
		c0,0.6-0.2,1-0.6,1.3c-0.4,0.3-0.8,0.6-1.2,0.6c0.5,0.1,0.9,0.2,1.3,0.6c0.4,0.4,0.6,0.8,0.6,1.5c0,0.7-0.2,1.3-0.8,1.7
		C213.2,33.5,212.5,33.7,211.6,33.7z"/>
</g>
<g>
	<path class="st5" d="M167.5,52.2h-1.1v-7l-2.8,7h-0.4l-2.8-7v7h-1.1v-8.4h1.5l2.6,6.5l2.6-6.5h1.5V52.2L167.5,52.2z"/>
	<path class="st5" d="M176.7,52.2h-1.2l-0.7-1.9h-4.1l-0.7,1.9h-1.2l3.4-8.3h1.3L176.7,52.2z M174.5,49.4l-1.8-4.5l-1.8,4.5H174.5z"
		/>
	<path class="st5" d="M183.9,52.2h-1.2l-2.1-3.3h-1.7v3.3h-1.1v-8.4h3.4c0.8,0,1.4,0.2,1.9,0.7c0.5,0.5,0.7,1.1,0.7,1.9
		c0,0.7-0.2,1.3-0.6,1.7c-0.4,0.4-1,0.6-1.5,0.7L183.9,52.2z M181.1,47.9c0.5,0,0.9-0.2,1.2-0.5s0.5-0.6,0.5-1.1s-0.2-0.9-0.5-1.1
		c-0.3-0.3-0.7-0.4-1.2-0.4h-2.2V48L181.1,47.9L181.1,47.9z"/>
	<path class="st5" d="M188,41.2l-2.1,1.8h-0.7l1.9-1.8C187.1,41.2,188,41.2,188,41.2z M186.5,52.2h-1.1v-8.4h1.1V52.2z"/>
	<path class="st5" d="M191.6,52.2h-1.1v-7.5h-2.7v-0.9h6.3v0.9h-2.7L191.6,52.2L191.6,52.2z"/>
	<path class="st5" d="M196.6,52.2h-1.1v-8.4h1.1V52.2z"/>
	<path class="st5" d="M206.8,52.2h-1.1v-7l-2.8,7h-0.4l-2.8-7v7h-1.1v-8.4h1.5l2.6,6.5l2.6-6.5h1.5V52.2L206.8,52.2z"/>
	<path class="st5" d="M215.6,51.1c-0.8,0.8-1.8,1.2-3,1.2c-1.2,0-2.2-0.4-3-1.2c-0.8-0.8-1.1-1.9-1.1-3.1s0.4-2.3,1.1-3.1
		c0.8-0.8,1.8-1.2,3-1.2c1.2,0,2.2,0.4,3,1.2c0.8,0.8,1.1,1.9,1.1,3.1C216.7,49.2,216.4,50.3,215.6,51.1z M212.6,51.4
		c0.9,0,1.7-0.3,2.3-1c0.6-0.7,0.9-1.5,0.9-2.4s-0.3-1.8-0.9-2.4c-0.6-0.6-1.3-1-2.3-1c-0.9,0-1.7,0.3-2.3,1
		c-0.6,0.7-0.8,1.5-0.8,2.4s0.2,1.8,0.8,2.4C210.9,51.1,211.7,51.4,212.6,51.4z"/>
</g>
<g>
	<path class="st6" d="M134.3,52.2c-0.5,0-1-0.1-1.4-0.4c-0.4-0.2-0.7-0.6-1-1s-0.4-0.8-0.5-1.3c-0.1-0.5-0.2-1-0.2-1.5
		c0-0.5,0.1-1,0.2-1.5c0.1-0.5,0.3-0.9,0.5-1.3c0.2-0.4,0.6-0.7,1-1c0.4-0.2,0.9-0.4,1.4-0.4c0.5,0,1,0.1,1.4,0.4
		c0.4,0.2,0.7,0.6,1,1c0.2,0.4,0.4,0.8,0.5,1.3c0.1,0.5,0.2,1,0.2,1.5c0,0.5-0.1,1-0.2,1.5c-0.1,0.5-0.3,0.9-0.5,1.3
		c-0.2,0.4-0.6,0.7-1,1C135.3,52.1,134.8,52.2,134.3,52.2z M133.1,50.8c0.3,0.3,0.7,0.5,1.2,0.5s0.9-0.2,1.2-0.5
		c0.3-0.3,0.5-0.7,0.7-1.2c0.1-0.5,0.2-1,0.2-1.6s-0.1-1.1-0.2-1.6c-0.1-0.5-0.3-0.9-0.7-1.2c-0.3-0.3-0.7-0.5-1.2-0.5
		s-0.9,0.2-1.2,0.5c-0.3,0.3-0.5,0.7-0.7,1.2c-0.1,0.5-0.2,1-0.2,1.6s0.1,1.1,0.2,1.6C132.6,50.1,132.8,50.5,133.1,50.8z"/>
	<path class="st6" d="M141.1,52h-1v-6.7l-1.3,1.4l-0.6-0.6l2-2.1h0.9V52z"/>
</g>
</svg>
