<?xml version="1.0" encoding="utf-8"?>
<!-- Generator: Adobe Illustrator 25.2.3, SVG Export Plug-In . SVG Version: 6.00 Build 0)  -->
<svg version="1.1" id="Layer_1" xmlns="http://www.w3.org/2000/svg" width="214.664" height="97.275" xmlns:xlink="http://www.w3.org/1999/xlink" x="0px" y="0px"
	 viewBox="0 0 214.7 97.3" style="enable-background:new 0 0 214.7 97.3;" xml:space="preserve">
<style type="text/css">
	.st0{opacity:0.92;fill:#2D314E;enable-background:new    ;}
	.st1{fill:none;}
	.st2{fill:#E84D46;}
	.st3{fill:#676D81;}
	.st4{fill:#FFFFFF;}
	.st5{fill:#FFFFFF;stroke:#FFFFFF;stroke-width:0.4998;stroke-miterlimit:9.9948;}
	.st6{fill:#FFFFFF;stroke:#FFFFFF;stroke-width:0.5;stroke-miterlimit:10.002;}
</style>
<g id="_24_julho_novo" transform="translate(200.275 451.873)">
	<path id="Path_11" class="st0" d="M-89.4-358.4c-0.1,1.9-1.7,3.3-3.6,3.2s-3.3-1.7-3.2-3.6c0.1-1.8,1.6-3.2,3.4-3.2
		C-90.8-361.9-89.3-360.3-89.4-358.4z"/>
</g>
<g id="naval" transform="translate(-131 -1430.655)">
	<rect id="Rectangle_50" x="131" y="1461" class="st1" width="84" height="37"/>
</g>
<g>
	<rect x="160.5" y="41.2" class="st2" width="44" height="14.9"/>
</g>
<g>
	<rect x="137.6" y="55.3" class="st3" width="66.9" height="22.1"/>
</g>
<rect x="107.5" y="55.3" class="st2" width="30.1" height="22.1"/>
<polygon class="st2" points="107.5,77.4 107.5,84.8 112.4,75.3 "/>
<g>
	<path class="st4" d="M170.1,53c-0.6,0-1-0.1-1.4-0.3c-0.4-0.2-0.7-0.6-1-1c-0.2-0.4-0.4-0.9-0.6-1.4c-0.1-0.5-0.2-1-0.2-1.6
		c0-1.2,0.3-2.3,0.9-3.1c0.6-0.8,1.4-1.2,2.5-1.2c1,0,1.7,0.3,2.3,1l-0.6,0.8c-0.5-0.6-1-0.9-1.8-0.9c-0.8,0-1.4,0.3-1.8,1
		c-0.4,0.6-0.6,1.4-0.6,2.3v0.2c0.2-0.3,0.6-0.6,1-0.9c0.4-0.3,0.9-0.4,1.4-0.4c0.8,0,1.4,0.2,1.9,0.7c0.5,0.5,0.8,1.1,0.8,1.9
		c0,0.7-0.2,1.4-0.8,1.9C171.6,52.7,170.9,53,170.1,53z M170,52c0.6,0,1-0.2,1.4-0.6c0.3-0.4,0.5-0.8,0.5-1.2c0-0.6-0.2-1-0.6-1.4
		c-0.3-0.3-0.8-0.5-1.4-0.5c-0.4,0-0.8,0.1-1.2,0.3c-0.4,0.2-0.6,0.6-0.9,0.9c0.1,0.6,0.2,1.1,0.6,1.6C168.9,51.8,169.3,52,170,52z"
		/>
	<path class="st4" d="M175.4,52.7c-0.2,0.2-0.3,0.2-0.5,0.2c-0.2,0-0.3-0.1-0.5-0.2c-0.2-0.1-0.2-0.3-0.2-0.5c0-0.2,0.1-0.3,0.2-0.5
		c0.1-0.2,0.3-0.2,0.5-0.2c0.2,0,0.3,0.1,0.5,0.2c0.2,0.1,0.2,0.3,0.2,0.5C175.7,52.4,175.6,52.6,175.4,52.7z"/>
	<path class="st4" d="M180.2,53c-1.3,0-2.3-0.5-2.9-1.4l0.6-0.7c0.6,0.7,1.4,1.1,2.3,1.1c0.6,0,1-0.2,1.4-0.5
		c0.3-0.3,0.6-0.8,0.6-1.3c0-0.6-0.2-1-0.6-1.3c-0.4-0.3-0.8-0.5-1.4-0.5c-0.7,0-1.4,0.2-1.9,0.8l-0.7-0.2v-4.6h5.1v0.9h-4v2.9
		c0.5-0.5,1.1-0.7,1.9-0.7c0.7,0,1.4,0.2,1.8,0.7c0.4,0.5,0.8,1.1,0.8,1.9c0,0.8-0.2,1.4-0.8,2C181.7,52.7,181,53,180.2,53z"/>
	<path class="st4" d="M191.8,52.8h-1.3l-2.7-3.5l-2.7,3.5h-1.3l3.2-4.3l-3.1-4h1.3l2.5,3.3l2.5-3.3h1.3l-3.1,4L191.8,52.8z"/>
	<path class="st4" d="M195.2,53c-0.6,0-1.3-0.2-1.8-0.4c-0.5-0.2-0.9-0.6-1.2-1l0.6-0.6c0.2,0.3,0.6,0.6,1,0.8
		c0.4,0.2,0.9,0.3,1.4,0.3c0.6,0,1-0.2,1.4-0.4c0.3-0.3,0.6-0.6,0.6-1.1c0-0.5-0.2-0.9-0.6-1.1c-0.4-0.2-0.9-0.3-1.5-0.3
		c-0.5,0-0.8,0-0.9,0v-1c0.1,0,0.4,0,0.9,0c0.6,0,1-0.1,1.4-0.3c0.4-0.2,0.6-0.6,0.6-1s-0.2-0.8-0.6-1c-0.3-0.2-0.8-0.4-1.4-0.4
		c-0.8,0-1.6,0.3-2.2,1l-0.6-0.6c0.7-0.9,1.7-1.3,2.8-1.3c0.8,0,1.5,0.2,2,0.6c0.6,0.4,0.8,1,0.8,1.6c0,0.6-0.2,1-0.6,1.3
		c-0.4,0.3-0.8,0.6-1.2,0.6c0.5,0.1,0.9,0.2,1.3,0.6c0.4,0.4,0.6,0.8,0.6,1.4c0,0.7-0.2,1.3-0.8,1.7C196.8,52.7,196.1,53,195.2,53z"
		/>
</g>
<g>
	<path class="st5" d="M159.8,70.5h-1l-4.8-6.6v6.6h-1v-8.3h1l4.8,6.5v-6.5h1V70.5L159.8,70.5z"/>
	<path class="st5" d="M168.9,70.5h-1.2l-0.7-1.8h-4.1l-0.7,1.8H161l3.4-8.3h1.3L168.9,70.5z M166.7,67.8l-1.8-4.5l-1.8,4.5H166.7z"
		/>
	<path class="st5" d="M173.1,70.5h-1.3l-3.4-8.3h1.2l2.8,7.2l2.8-7.2h1.2L173.1,70.5z"/>
	<path class="st5" d="M183.9,70.5h-1.2l-0.7-1.8h-4.1l-0.7,1.8H176l3.4-8.3h1.3L183.9,70.5z M181.8,67.8l-1.8-4.5l-1.8,4.5H181.8z"
		/>
	<path class="st5" d="M189.8,70.5h-4.9v-8.3h1v7.4h3.9V70.5z"/>
</g>
<g>
	<path class="st6" d="M120.1,70.3h-1v-6.7l-1.3,1.4l-0.6-0.6l2-2.1h0.9V70.3z"/>
	<path class="st6" d="M124.7,70.5c-0.5,0-1-0.1-1.4-0.4c-0.4-0.2-0.7-0.6-1-1s-0.4-0.8-0.5-1.3c-0.1-0.5-0.2-1-0.2-1.5
		s0.1-1,0.2-1.5c0.1-0.5,0.3-0.9,0.5-1.3c0.2-0.4,0.6-0.7,1-1s0.9-0.4,1.4-0.4c0.5,0,1,0.1,1.4,0.4s0.7,0.6,1,1
		c0.2,0.4,0.4,0.8,0.5,1.3c0.1,0.5,0.2,1,0.2,1.5s-0.1,1-0.2,1.5c-0.1,0.5-0.3,0.9-0.5,1.3c-0.2,0.4-0.6,0.7-1,1
		C125.7,70.3,125.3,70.5,124.7,70.5z M123.5,69.1c0.3,0.3,0.7,0.5,1.2,0.5s0.9-0.2,1.2-0.5c0.3-0.3,0.5-0.7,0.7-1.2
		c0.1-0.5,0.2-1,0.2-1.6s-0.1-1.1-0.2-1.6c-0.1-0.5-0.3-0.9-0.7-1.2c-0.3-0.3-0.7-0.5-1.2-0.5s-0.9,0.2-1.2,0.5
		c-0.3,0.3-0.5,0.7-0.7,1.2s-0.2,1-0.2,1.6s0.1,1.1,0.2,1.6S123.2,68.7,123.5,69.1z"/>
</g>
</svg>
