<?xml version="1.0" encoding="utf-8"?>
<!-- Generator: Adobe Illustrator 25.2.3, SVG Export Plug-In . SVG Version: 6.00 Build 0)  -->
<svg version="1.1" id="Layer_1" xmlns="http://www.w3.org/2000/svg" width="243.725" height="95.826" xmlns:xlink="http://www.w3.org/1999/xlink" x="0px" y="0px"
	 viewBox="0 0 243.7 95.8" style="enable-background:new 0 0 243.7 95.8;" xml:space="preserve">
<style type="text/css">
	.st0{opacity:0.92;fill:#2D314E;enable-background:new    ;}
	.st1{fill:none;}
	.st2{fill:#E84D46;}
	.st3{fill:#D0D09B;}
	.st4{fill:#FFFFFF;}
	.st5{fill:#002C46;stroke:#002C46;stroke-width:0.5;stroke-miterlimit:10.002;}
	.st6{fill:#FFFFFF;stroke:#FFFFFF;stroke-width:0.7;stroke-miterlimit:10.005;}
</style>
<g id="xenon_1" transform="translate(-200.275 -451.873)">
	<g id="_24_julho_novo" transform="translate(200.275 451.873)">
		<path id="Path_11" class="st0" d="M126.2,92.6c-0.1,1.9-1.7,3.3-3.6,3.2c-1.9-0.1-3.3-1.7-3.2-3.6c0.1-1.8,1.6-3.2,3.4-3.2
			C124.8,89.1,126.3,90.7,126.2,92.6z"/>
	</g>
	<rect id="Rectangle_43" x="348" y="487" class="st1" width="96" height="26"/>
</g>
<rect x="92.5" y="49.3" class="st2" width="30.3" height="22.2"/>
<g>
	<rect x="16.9" y="34.3" class="st2" width="44.2" height="15"/>
</g>
<rect x="16.9" y="49.3" class="st3" width="76.1" height="22.2"/>
<polygon class="st2" points="122.7,71.5 122.8,82.5 116.9,69.6 "/>
<g>
	<path class="st4" d="M29.2,46h-1v-6.9l-1.4,1.5L26.2,40l2.1-2.2h0.9V46L29.2,46z"/>
	<path class="st4" d="M32.8,46h-1.1l3.4-7.4h-4.5v-1h5.7v0.7L32.8,46z"/>
	<path class="st4" d="M44.6,46h-1.3l-2.7-3.6L38,46h-1.2l3.2-4.3l-3.1-4h1.3l2.5,3.3l2.5-3.3h1.3l-3.1,4L44.6,46z"/>
	<path class="st4" d="M48.5,46.2c-1.3,0-2.3-0.5-2.9-1.4l0.6-0.7c0.6,0.7,1.4,1.1,2.3,1.1c0.6,0,1-0.2,1.4-0.5
		c0.3-0.3,0.6-0.8,0.6-1.3c0-0.6-0.2-1-0.6-1.3c-0.4-0.3-0.8-0.5-1.4-0.5c-0.7,0-1.4,0.2-1.9,0.8L46,42.2v-4.6h5v0.9h-4v2.9
		c0.5-0.5,1.1-0.7,1.9-0.7c0.7,0,1.4,0.2,1.9,0.7c0.5,0.5,0.8,1.1,0.8,1.9s-0.2,1.5-0.8,2C50.1,45.9,49.4,46.2,48.5,46.2z"/>
</g>
<g>
	<path class="st5" d="M26.7,64.6h-1v-8.3H29c0.8,0,1.5,0.2,1.9,0.7c0.5,0.5,0.7,1,0.7,1.8c0,0.8-0.2,1.3-0.7,1.8
		c-0.5,0.5-1.1,0.7-1.9,0.7h-2.3V64.6z M28.8,60.4c0.5,0,0.9-0.2,1.2-0.4c0.3-0.3,0.5-0.6,0.5-1.1c0-0.5-0.2-0.9-0.5-1.1
		c-0.3-0.3-0.7-0.4-1.2-0.4h-2.2v3.1L28.8,60.4L28.8,60.4z"/>
	<path class="st5" d="M32.7,64.5c-0.2,0.2-0.3,0.2-0.5,0.2c-0.2,0-0.3-0.1-0.5-0.2c-0.2-0.2-0.2-0.3-0.2-0.5s0.1-0.3,0.2-0.5
		c0.2-0.2,0.3-0.2,0.5-0.2c0.2,0,0.3,0.1,0.5,0.2c0.2,0.2,0.2,0.3,0.2,0.5C32.9,64.3,32.8,64.4,32.7,64.5z"/>
	<path class="st5" d="M40.6,64.8c-1.4,0-2.4-0.4-3.2-1.3l0.6-0.8c0.7,0.8,1.5,1.2,2.6,1.2c0.6,0,1.2-0.2,1.5-0.4
		c0.3-0.3,0.5-0.6,0.5-1c0-0.3-0.2-0.6-0.4-0.8c-0.2-0.2-0.6-0.4-0.9-0.5c-0.3-0.1-0.7-0.2-1.2-0.3c-0.4-0.2-0.8-0.2-1.2-0.4
		c-0.3-0.2-0.6-0.4-0.9-0.7c-0.2-0.3-0.4-0.7-0.4-1.2c0-0.6,0.2-1.2,0.8-1.7s1.2-0.6,2.1-0.6c1.2,0,2.2,0.4,3,1.2l-0.6,0.7
		c-0.6-0.6-1.4-1-2.4-1c-0.5,0-0.9,0.2-1.2,0.4c-0.3,0.2-0.5,0.6-0.5,1c0,0.3,0.2,0.6,0.4,0.7c0.2,0.2,0.6,0.3,0.9,0.4
		c0.4,0.1,0.7,0.2,1.2,0.3c0.5,0.1,0.8,0.3,1.2,0.4c0.4,0.1,0.6,0.4,0.9,0.7c0.2,0.3,0.4,0.7,0.4,1.2c0,0.6-0.2,1.3-0.7,1.7
		C42.4,64.5,41.6,64.8,40.6,64.8z"/>
	<path class="st5" d="M49,64.8c-1.2,0-2.2-0.4-3-1.2c-0.8-0.8-1.1-1.9-1.1-3.1c0-1.2,0.4-2.3,1.1-3.1c0.8-0.8,1.8-1.2,3-1.2
		c1.2,0,2.2,0.4,3,1.2c0.8,0.8,1.1,1.9,1.1,3.1c0,1.2-0.4,2.3-1.1,3.1l0.8,0.8L52.1,65l-0.8-0.9C50.6,64.6,49.9,64.8,49,64.8z
		 M49,63.9c0.6,0,1.1-0.2,1.6-0.4l-1.2-1.3l0.7-0.6l1.2,1.3c0.5-0.6,0.8-1.5,0.8-2.3c0-1-0.3-1.8-0.9-2.4c-0.6-0.6-1.3-1-2.3-1
		c-0.9,0-1.7,0.3-2.3,1S46,59.5,46,60.5s0.2,1.8,0.8,2.4C47.3,63.5,48.1,63.9,49,63.9z"/>
	<path class="st5" d="M58.2,64.8c-1.1,0-1.9-0.3-2.5-0.9c-0.6-0.6-0.9-1.5-0.9-2.5v-5.1h1v5.1c0,0.8,0.2,1.4,0.6,1.9
		c0.4,0.5,1,0.6,1.8,0.6c0.8,0,1.4-0.2,1.8-0.6c0.4-0.4,0.6-1,0.6-1.9v-5.1h1v5.1c0,1-0.3,1.9-0.9,2.5
		C60.3,64.5,59.3,64.8,58.2,64.8z"/>
	<path class="st5" d="M70.4,64.6h-1.2l-0.7-1.9h-4.1l-0.7,1.9h-1.2l3.4-8.3h1.3L70.4,64.6z M68.2,61.9l-1.8-4.5l-1.8,4.5H68.2z"/>
	<path class="st5" d="M77.5,64.6h-1.2l-2.1-3.3h-1.7v3.3h-1v-8.3h3.4c0.8,0,1.4,0.2,1.9,0.7c0.5,0.5,0.7,1,0.7,1.9
		c0,0.7-0.2,1.3-0.6,1.7c-0.4,0.4-1,0.6-1.5,0.7L77.5,64.6z M74.7,60.4c0.5,0,0.9-0.2,1.2-0.5c0.3-0.3,0.5-0.6,0.5-1.1
		c0-0.5-0.2-0.9-0.5-1.1c-0.3-0.3-0.7-0.4-1.2-0.4h-2.2v3.2L74.7,60.4L74.7,60.4z"/>
	<path class="st5" d="M84.6,64.6h-5.5v-8.3h5.5v0.9h-4.4v2.7h4.4v0.9h-4.4v2.9h4.4V64.6z"/>
</g>
<g>
	<path class="st6" d="M105.3,65h-1.1v-7.3l-1.4,1.5l-0.7-0.7l2.2-2.2h0.9V65z"/>
	<path class="st6" d="M112.9,65h-6v-0.9c1.8-1.4,3-2.5,3.7-3.2c0.7-0.8,1.1-1.5,1.1-2.2c0-0.5-0.2-0.9-0.5-1.2s-0.8-0.4-1.3-0.4
		c-1,0-1.8,0.4-2.4,1.1l-0.7-0.7c0.3-0.4,0.8-0.8,1.3-1c0.5-0.2,1.1-0.4,1.7-0.4c0.8,0,1.5,0.2,2,0.7c0.6,0.4,0.9,1.1,0.9,1.9
		c0,0.8-0.3,1.6-1,2.4s-1.8,1.8-3.2,2.9h4.3V65z"/>
</g>
</svg>
