<?xml version="1.0" encoding="utf-8"?>
<!-- Generator: Adobe Illustrator 25.2.3, SVG Export Plug-In . SVG Version: 6.00 Build 0)  -->
<svg version="1.1" id="Layer_1" xmlns="http://www.w3.org/2000/svg" width="217.851" height="96.502" xmlns:xlink="http://www.w3.org/1999/xlink" x="0px" y="0px"
	 viewBox="0 0 217.9 96.5" style="enable-background:new 0 0 217.9 96.5;" xml:space="preserve">
<style type="text/css">
	.st0{fill:none;}
	.st1{fill:#E84D46;}
	.st2{fill:#676D81;}
	.st3{opacity:0.92;fill:#2D314E;enable-background:new    ;}
	.st4{fill:#FFFFFF;}
	.st5{fill:#FFFFFF;stroke:#FFFFFF;stroke-width:0.4999;stroke-miterlimit:9.9978;}
	.st6{fill:#FFFFFF;stroke:#FFFFFF;stroke-width:0.5;stroke-miterlimit:10.002;}
</style>
<g id="polana" transform="translate(-465 -805.847)">
	<rect id="Rectangle_47" x="465" y="849" class="st0" width="84" height="11"/>
</g>
<rect x="109.6" y="28.9" class="st1" width="30.2" height="22.1"/>
<g>
	<rect x="175.7" y="13.9" class="st1" width="42.2" height="15"/>
</g>
<rect x="139.8" y="28.9" class="st2" width="78.1" height="22.1"/>
<g>
	<rect x="139.8" y="52.3" class="st2" width="78.1" height="22.1"/>
</g>
<rect x="109.6" y="52.3" class="st1" width="30.2" height="22.1"/>
<g id="_24_julho_novo" transform="translate(200.275 451.873)">
	<path id="Path_11" class="st3" d="M-87.3-358.6c-0.1,1.9-1.7,3.3-3.6,3.2c-1.9-0.1-3.3-1.7-3.2-3.6c0.1-1.8,1.6-3.2,3.4-3.2
		C-88.7-362.1-87.2-360.5-87.3-358.6z"/>
</g>
<polygon class="st1" points="109.6,74.4 109.5,83.4 114,73.5 "/>
<g>
	<path class="st4" d="M189.4,25.8c-0.6,0-1-0.1-1.4-0.3s-0.7-0.6-1-1c-0.3-0.4-0.4-0.9-0.6-1.4s-0.2-1-0.2-1.6
		c0-1.2,0.3-2.3,0.9-3.1c0.6-0.8,1.4-1.2,2.5-1.2c1,0,1.7,0.3,2.3,1l-0.6,0.8c-0.5-0.6-1-0.9-1.8-0.9c-0.7,0-1.4,0.3-1.8,1
		c-0.4,0.6-0.6,1.4-0.6,2.3v0.3c0.2-0.3,0.6-0.6,1-0.9c0.4-0.2,0.9-0.4,1.4-0.4c0.8,0,1.4,0.2,1.9,0.7c0.5,0.5,0.8,1.1,0.8,1.9
		c0,0.7-0.2,1.4-0.8,1.9C191,25.5,190.2,25.8,189.4,25.8z M189.3,24.8c0.6,0,1-0.2,1.4-0.6c0.3-0.4,0.5-0.8,0.5-1.2
		c0-0.6-0.2-1-0.6-1.4c-0.3-0.3-0.8-0.5-1.4-0.5c-0.4,0-0.8,0.1-1.2,0.3c-0.4,0.2-0.6,0.6-0.9,0.9c0.1,0.6,0.2,1.1,0.6,1.6
		C188.2,24.6,188.6,24.8,189.3,24.8z"/>
	<path class="st4" d="M200.9,25.6h-1.3l-2.7-3.5l-2.7,3.5H193l3.2-4.3l-3.1-4h1.3l2.5,3.3l2.5-3.3h1.3l-3.1,4L200.9,25.6z"/>
	<path class="st4" d="M204.3,25.8c-0.6,0-1.3-0.2-1.8-0.4c-0.5-0.2-0.9-0.6-1.2-1l0.6-0.6c0.2,0.3,0.6,0.6,1,0.8
		c0.4,0.2,0.9,0.3,1.4,0.3c0.6,0,1-0.2,1.4-0.4c0.3-0.3,0.6-0.6,0.6-1.1s-0.2-0.9-0.6-1.1c-0.4-0.2-0.9-0.3-1.5-0.3
		c-0.5,0-0.8,0-0.9,0v-1c0.1,0,0.4,0,0.9,0c0.6,0,1-0.1,1.4-0.3c0.4-0.2,0.6-0.6,0.6-1s-0.2-0.8-0.6-1c-0.3-0.2-0.8-0.4-1.4-0.4
		c-0.8,0-1.6,0.3-2.2,1l-0.6-0.6c0.7-0.9,1.7-1.3,2.8-1.3c0.8,0,1.5,0.2,2,0.6c0.6,0.4,0.8,1,0.8,1.6c0,0.6-0.2,1-0.6,1.3
		c-0.4,0.3-0.8,0.6-1.2,0.6c0.5,0.1,0.9,0.2,1.3,0.6s0.6,0.8,0.6,1.4c0,0.7-0.2,1.3-0.8,1.7C205.9,25.5,205.2,25.8,204.3,25.8z"/>
</g>
<g>
	<path class="st5" d="M149.9,44.1h-1v-8.3h3.4c0.8,0,1.4,0.2,1.9,0.7c0.5,0.5,0.7,1,0.7,1.8c0,0.7-0.2,1.3-0.7,1.8
		c-0.5,0.5-1.1,0.7-1.9,0.7H150L149.9,44.1L149.9,44.1z M152.1,40c0.5,0,0.9-0.2,1.2-0.5c0.3-0.3,0.5-0.6,0.5-1.1
		c0-0.5-0.2-0.9-0.5-1.1c-0.3-0.3-0.7-0.5-1.2-0.5h-2.2v3.1L152.1,40L152.1,40z"/>
	<path class="st5" d="M163,43.1c-0.8,0.8-1.8,1.2-3,1.2c-1.2,0-2.2-0.4-3-1.2c-0.8-0.8-1.1-1.9-1.1-3.1c0-1.2,0.4-2.3,1.1-3.1
		c0.8-0.8,1.8-1.2,3-1.2c1.2,0,2.2,0.4,3,1.2c0.8,0.8,1.1,1.9,1.1,3.1C164.1,41.2,163.8,42.3,163,43.1z M160,43.4
		c0.9,0,1.7-0.3,2.3-1c0.6-0.6,0.9-1.4,0.9-2.4c0-1-0.3-1.8-0.9-2.4c-0.6-0.6-1.3-1-2.3-1c-0.9,0-1.7,0.3-2.3,1
		c-0.6,0.6-0.8,1.4-0.8,2.4c0,1,0.2,1.8,0.8,2.4C158.3,43.1,159.1,43.4,160,43.4z"/>
	<path class="st5" d="M170.5,44.1h-4.9v-8.3h1v7.4h3.9V44.1z"/>
	<path class="st5" d="M179.1,44.1h-1.2l-0.7-1.9H173l-0.7,1.9h-1.2l3.4-8.3h1.3L179.1,44.1z M176.8,41.4l-1.8-4.5l-1.8,4.5H176.8z"
		/>
	<path class="st5" d="M187,44.1h-1l-4.8-6.6v6.6h-1v-8.3h1l4.8,6.5v-6.5h1V44.1z"/>
	<path class="st5" d="M196.1,44.1h-1.2l-0.7-1.9H190l-0.7,1.9h-1.2l3.4-8.3h1.3L196.1,44.1z M193.9,41.4l-1.8-4.5l-1.8,4.5H193.9z"
		/>
	<path class="st5" d="M204.2,44.1h-3.8v-8.3h3.7c0.7,0,1.3,0.2,1.7,0.6c0.4,0.4,0.6,0.9,0.6,1.5c0,0.5-0.2,0.9-0.4,1.3
		c-0.3,0.3-0.6,0.6-1,0.6c0.4,0.1,0.8,0.3,1.1,0.7c0.3,0.4,0.5,0.9,0.5,1.4c0,0.6-0.2,1.2-0.6,1.6C205.6,44,204.9,44.1,204.2,44.1z
		 M203.9,39.5c0.5,0,0.8-0.2,1-0.4c0.2-0.2,0.4-0.6,0.4-1c0-0.4-0.2-0.7-0.4-1c-0.2-0.2-0.6-0.4-1-0.4h-2.5v2.7L203.9,39.5
		L203.9,39.5z M204,43.3c0.5,0,0.9-0.2,1.1-0.4c0.2-0.2,0.4-0.6,0.4-1c0-0.4-0.2-0.7-0.4-1c-0.2-0.2-0.6-0.4-1.1-0.4h-2.6v2.9
		L204,43.3L204,43.3z"/>
</g>
<g>
	<path class="st5" d="M149.7,67.5h-1v-8.3h3.4c0.8,0,1.4,0.2,1.9,0.7c0.5,0.5,0.7,1,0.7,1.8c0,0.8-0.2,1.3-0.7,1.8
		c-0.5,0.5-1.1,0.7-1.9,0.7h-2.3L149.7,67.5L149.7,67.5z M151.8,63.3c0.5,0,0.9-0.2,1.2-0.5c0.3-0.3,0.5-0.6,0.5-1.1
		c0-0.5-0.2-0.9-0.5-1.1c-0.3-0.3-0.7-0.5-1.2-0.5h-2.2v3.1L151.8,63.3L151.8,63.3z"/>
	<path class="st5" d="M162.7,66.4c-0.8,0.8-1.8,1.2-3,1.2s-2.2-0.4-3-1.2s-1.1-1.9-1.1-3.1c0-1.2,0.4-2.3,1.1-3.1
		c0.8-0.8,1.8-1.2,3-1.2s2.2,0.4,3,1.2s1.1,1.9,1.1,3.1C163.8,64.6,163.5,65.6,162.7,66.4z M159.7,66.8c0.9,0,1.7-0.3,2.3-1
		c0.6-0.6,0.9-1.4,0.9-2.4s-0.3-1.8-0.9-2.4c-0.6-0.6-1.3-1-2.3-1c-0.9,0-1.7,0.3-2.3,1c-0.6,0.6-0.8,1.4-0.8,2.4s0.2,1.8,0.8,2.4
		S158.8,66.8,159.7,66.8z"/>
	<path class="st5" d="M170.3,67.5h-4.9v-8.3h1v7.4h3.9V67.5z"/>
	<path class="st5" d="M178.7,67.5h-1.2l-0.7-1.9h-4.1l-0.7,1.9h-1.2l3.4-8.3h1.3L178.7,67.5z M176.6,64.8l-1.8-4.5l-1.8,4.5H176.6z"
		/>
	<path class="st5" d="M186.7,67.5h-1l-4.8-6.6v6.6h-1v-8.3h1l4.8,6.5v-6.5h1V67.5L186.7,67.5z"/>
	<path class="st5" d="M195.8,67.5h-1.2l-0.7-1.9h-4.1l-0.7,1.9h-1.2l3.4-8.3h1.3L195.8,67.5z M193.6,64.8l-1.8-4.5l-1.8,4.5H193.6z"
		/>
	<path class="st5" d="M207.3,67.5H206l-0.7-1.9h-4.1l-0.7,1.9h-1.2l3.4-8.3h1.3L207.3,67.5z M205.1,64.8l-1.8-4.5l-1.8,4.5H205.1z"
		/>
</g>
<g>
	<path class="st6" d="M121.3,44.3c-0.5,0-1-0.1-1.4-0.4c-0.4-0.3-0.8-0.6-1-1c-0.2-0.4-0.4-0.9-0.5-1.4c-0.1-0.5-0.2-1-0.2-1.5
		s0.1-1,0.2-1.5c0.1-0.5,0.3-0.9,0.5-1.4c0.2-0.4,0.6-0.8,1-1c0.4-0.3,0.9-0.4,1.4-0.4c0.5,0,1,0.1,1.4,0.4c0.4,0.3,0.8,0.6,1,1
		c0.2,0.4,0.4,0.9,0.5,1.4c0.1,0.5,0.2,1,0.2,1.5s-0.1,1-0.2,1.5c-0.1,0.5-0.3,0.9-0.5,1.4c-0.2,0.4-0.6,0.8-1,1
		C122.4,44.2,121.9,44.3,121.3,44.3z M120.1,42.9c0.3,0.3,0.7,0.5,1.2,0.5c0.5,0,0.9-0.2,1.2-0.5c0.3-0.3,0.6-0.8,0.7-1.2
		c0.1-0.5,0.2-1,0.2-1.6c0-0.6-0.1-1.1-0.2-1.6c-0.1-0.5-0.4-0.9-0.7-1.2c-0.3-0.3-0.7-0.5-1.2-0.5c-0.5,0-0.9,0.2-1.2,0.5
		c-0.3,0.3-0.6,0.8-0.7,1.2c-0.1,0.5-0.2,1-0.2,1.6c0,0.6,0.1,1.1,0.2,1.6C119.5,42.1,119.8,42.5,120.1,42.9z"/>
	<path class="st6" d="M127.8,44.2h-1.1l3.3-7.4h-4.5v-0.9h5.7v0.7L127.8,44.2z"/>
</g>
<g>
	<path class="st6" d="M121.1,67.5c-0.5,0-1-0.1-1.4-0.4c-0.4-0.2-0.7-0.6-1-1c-0.2-0.4-0.4-0.9-0.5-1.3c-0.1-0.5-0.2-1-0.2-1.5
		s0.1-1,0.2-1.5c0.1-0.5,0.3-0.9,0.5-1.3c0.2-0.4,0.6-0.7,1-1c0.4-0.2,0.9-0.4,1.4-0.4c0.5,0,1,0.1,1.4,0.4c0.4,0.2,0.7,0.6,1,1
		c0.2,0.4,0.4,0.9,0.5,1.3c0.1,0.5,0.2,1,0.2,1.5s-0.1,1-0.2,1.5c-0.1,0.5-0.3,0.9-0.5,1.3c-0.2,0.4-0.6,0.7-1,1
		C122.1,67.4,121.6,67.5,121.1,67.5z M119.9,66.1c0.3,0.3,0.7,0.5,1.2,0.5c0.5,0,0.9-0.2,1.2-0.5c0.3-0.3,0.6-0.7,0.7-1.2
		c0.1-0.5,0.2-1,0.2-1.6c0-0.6-0.1-1.1-0.2-1.6c-0.1-0.5-0.3-0.9-0.7-1.2c-0.3-0.3-0.7-0.5-1.2-0.5c-0.5,0-0.9,0.2-1.2,0.5
		s-0.6,0.7-0.7,1.2c-0.1,0.5-0.2,1-0.2,1.6c0,0.6,0.1,1.1,0.2,1.6C119.3,65.4,119.5,65.8,119.9,66.1z"/>
	<path class="st6" d="M130.5,66.9c-0.6,0.4-1.3,0.6-2.1,0.6s-1.5-0.2-2.1-0.6c-0.6-0.4-0.8-0.9-0.8-1.6c0-0.5,0.2-1,0.6-1.3
		c0.4-0.4,0.8-0.6,1.4-0.8c-0.5-0.1-1-0.4-1.3-0.7c-0.3-0.3-0.5-0.7-0.5-1.2c0-0.7,0.3-1.2,0.8-1.6c0.6-0.4,1.2-0.5,2-0.5
		c0.8,0,1.4,0.2,2,0.5c0.6,0.4,0.8,0.9,0.8,1.6c0,0.5-0.2,0.9-0.5,1.2c-0.3,0.3-0.8,0.6-1.3,0.7c0.6,0.2,1,0.4,1.4,0.8
		c0.4,0.4,0.6,0.8,0.6,1.3C131.3,66,131,66.5,130.5,66.9z M128.4,66.6c0.5,0,1-0.1,1.3-0.4c0.4-0.3,0.6-0.6,0.6-1
		c0-0.3-0.1-0.6-0.4-0.9c-0.3-0.2-0.5-0.4-0.8-0.5c-0.3-0.1-0.5-0.2-0.7-0.2c-0.2,0-0.5,0.1-0.7,0.2c-0.3,0.1-0.5,0.3-0.8,0.5
		c-0.3,0.2-0.4,0.5-0.4,0.9c0,0.4,0.2,0.8,0.6,1C127.4,66.5,127.9,66.6,128.4,66.6z M128.4,62.8c0.2,0,0.3-0.1,0.5-0.1
		c0.2-0.1,0.4-0.1,0.6-0.2c0.2-0.1,0.4-0.2,0.5-0.4c0.1-0.2,0.2-0.4,0.2-0.6c0-0.4-0.2-0.7-0.5-1s-0.8-0.4-1.3-0.4s-0.9,0.1-1.3,0.4
		c-0.3,0.2-0.5,0.6-0.5,1c0,0.2,0.1,0.4,0.2,0.6c0.1,0.2,0.3,0.3,0.5,0.4c0.2,0.1,0.4,0.2,0.6,0.2C128.1,62.7,128.2,62.7,128.4,62.8
		z"/>
</g>
</svg>
