<?xml version="1.0" encoding="utf-8"?>
<!-- Generator: Adobe Illustrator 24.2.3, SVG Export Plug-In . SVG Version: 6.00 Build 0)  -->
<svg version="1.1" id="Layer_1" xmlns="http://www.w3.org/2000/svg" xmlns:xlink="http://www.w3.org/1999/xlink" x="0px" y="0px"
	 viewBox="0 0 20.8 30" style="enable-background:new 0 0 20.8 30;" xml:space="preserve">
<style type="text/css">
	.st0{fill:#F81A4B;}
</style>
<g>
	<path d="M10.4,0C4.7,0,0,4.7,0,10.4c0,1,0.1,1.9,0.4,2.8c0.2,0.6,0.3,1.1,0.6,1.6C3.1,18.8,10.4,30,10.4,30s7.3-11.2,9.4-15.1
		c0.3-0.5,0.4-1.1,0.6-1.6c0.3-0.9,0.4-1.9,0.4-2.8C20.8,4.7,16.2,0,10.4,0z"/>
	<path class="st0" d="M7.6,5.1c-0.4,0-0.7,0-0.9,0.1C6.4,5.3,6.2,5.4,6,5.5C5.9,5.7,5.8,5.9,5.7,6.1C5.6,6.4,5.6,6.7,5.6,7.1v6.6
		c0,0.4,0,0.7,0.1,0.9C5.8,14.8,5.9,15,6,15.2c0.2,0.2,0.4,0.3,0.6,0.3c0.3,0.1,0.6,0.1,0.9,0.1h3.5c0.7,0,1.4-0.1,2-0.4
		c0.6-0.3,1.2-0.6,1.7-1.1c0.5-0.5,0.8-1,1.1-1.7c0.3-0.6,0.4-1.3,0.4-2c0-0.7-0.1-1.4-0.4-2c-0.3-0.6-0.7-1.2-1.1-1.7
		c-0.5-0.5-1-0.9-1.7-1.1c-0.6-0.3-1.3-0.4-2-0.4H7.6z"/>
</g>
</svg>
