<?xml version="1.0" encoding="utf-8"?>
<!-- Generator: Adobe Illustrator 24.2.3, SVG Export Plug-In . SVG Version: 6.00 Build 0)  -->
<svg version="1.1" id="Layer_1" xmlns="http://www.w3.org/2000/svg" xmlns:xlink="http://www.w3.org/1999/xlink" x="0px" y="0px"
	 viewBox="0 0 60 86.4" style="enable-background:new 0 0 60 86.4;" xml:space="preserve">
<style type="text/css">
	.st0{fill:#F81A4B;}
</style>
<g>
	<path d="M30,7.7c-13.6,0-24.7,11-24.7,24.7c0,2.3,0.3,4.6,0.9,6.7c0.4,1.3,0.8,2.6,1.4,3.8C12.8,52.2,30,78.8,30,78.8
		s17.2-26.6,22.3-35.8c0.6-1.2,1.1-2.5,1.4-3.8c0.6-2.1,0.9-4.4,0.9-6.7C54.7,18.7,43.6,7.7,30,7.7z"/>
	<path class="st0" d="M23.3,19.8c-0.9,0-1.6,0.1-2.2,0.2c-0.6,0.1-1.1,0.4-1.4,0.8c-0.4,0.4-0.6,0.8-0.8,1.4
		c-0.2,0.6-0.2,1.3-0.2,2.2v15.6c0,0.9,0.1,1.6,0.2,2.2c0.1,0.6,0.4,1.1,0.8,1.4c0.4,0.4,0.8,0.6,1.4,0.8c0.6,0.1,1.3,0.2,2.2,0.2
		h8.4c1.7,0,3.3-0.3,4.8-1c1.5-0.7,2.8-1.5,3.9-2.7c1.1-1.1,2-2.4,2.7-3.9c0.7-1.5,1-3.1,1-4.8c0-1.7-0.3-3.3-1-4.8
		c-0.7-1.5-1.5-2.8-2.7-3.9c-1.1-1.1-2.4-2-3.9-2.7c-1.5-0.7-3.1-1-4.8-1H23.3z"/>
</g>
</svg>
