<?xml version="1.0" encoding="utf-8"?>
<!-- Generator: Adobe Illustrator 25.2.3, SVG Export Plug-In . SVG Version: 6.00 Build 0)  -->
<svg version="1.1" id="Layer_1" xmlns="http://www.w3.org/2000/svg" width="243.725" height="95.826" xmlns:xlink="http://www.w3.org/1999/xlink" x="0px" y="0px"
	 viewBox="0 0 243.7 95.8" style="enable-background:new 0 0 243.7 95.8;" xml:space="preserve">
<style type="text/css">
	.st0{opacity:0.92;fill:#2D314E;enable-background:new    ;}
	.st1{fill:none;}
	.st2{fill:#681758;}
	.st3{fill:#292333;}
	.st4{fill:#FFFFFF;stroke:#FFFFFF;stroke-width:0.5003;stroke-miterlimit:10.003;}
	.st5{fill:#FFFFFF;}
	.st6{fill:#FFFFFF;stroke:#FFFFFF;stroke-width:0.7;stroke-miterlimit:10.005;}
</style>
<g id="_24_julho" transform="translate(-200.275 -451.873)">
	<g id="_24_julho_novo" transform="translate(200.275 451.873)">
		<path id="Path_11" class="st0" d="M126.2,92.6c-0.1,1.9-1.7,3.3-3.6,3.2c-1.9-0.1-3.3-1.7-3.2-3.6c0.1-1.8,1.6-3.2,3.4-3.2
			C124.8,89.1,126.3,90.7,126.2,92.6z"/>
	</g>
	<rect id="Rectangle_43" x="348" y="487" class="st1" width="96" height="26"/>
</g>
<g id="Layer_1-2_1_">
	<rect x="92.8" y="53" class="st2" width="30.2" height="22.1"/>
	<g>
		<rect x="2.4" y="38" class="st2" width="44.1" height="15"/>
	</g>
</g>
<g>
	<rect x="2.4" y="53" class="st3" width="91.1" height="22.1"/>
</g>
<polygon class="st2" points="123,73.9 123,84.4 118,72.9 "/>
<g>
	<path class="st4" d="M27,68.2h-5.7v-0.8c1.7-1.4,2.9-2.3,3.6-3.1c0.7-0.7,1-1.4,1-2.1c0-0.5-0.2-0.9-0.5-1.1s-0.7-0.4-1.2-0.4
		c-1,0-1.7,0.3-2.3,1l-0.5-0.6c0.3-0.4,0.7-0.7,1.2-1c0.5-0.2,1-0.3,1.7-0.3s1.4,0.2,1.9,0.6c0.6,0.4,0.8,1,0.8,1.8
		c0,0.8-0.3,1.5-1,2.3c-0.6,0.8-1.7,1.7-3.1,2.7H27V68.2L27,68.2z"/>
	<path class="st4" d="M33.4,68.2h-1v-2.1h-4v-0.9l3.5-5.3h1.5v5.3h1.2v0.9h-1.2V68.2z M32.3,65.2v-4.3l-2.9,4.3H32.3z"/>
	<path class="st4" d="M40.4,68.4c-0.9,0-1.6-0.3-2.2-1l0.6-0.8c0.4,0.6,1,0.8,1.5,0.8s0.9-0.2,1.2-0.5c0.3-0.3,0.5-0.7,0.5-1.3v-5.8
		h1v5.8c0,0.9-0.2,1.5-0.7,2C41.9,68.1,41.2,68.4,40.4,68.4z"/>
	<path class="st4" d="M48.4,68.4c-1.1,0-1.9-0.3-2.5-0.9C45.3,66.9,45,66.1,45,65v-5.1h1V65c0,0.8,0.2,1.4,0.6,1.9s1,0.6,1.8,0.6
		c0.8,0,1.4-0.2,1.8-0.6c0.4-0.4,0.6-1,0.6-1.9v-5.1h1V65c0,1-0.3,1.9-0.9,2.5C50.5,68.1,49.5,68.4,48.4,68.4z"/>
	<path class="st4" d="M58.5,68.2h-4.9v-8.3h1v7.4h3.9V68.2z"/>
	<path class="st4" d="M66.8,68.2h-1v-3.8H61v3.8h-1v-8.3h1v3.5h4.8v-3.5h1V68.2z"/>
	<path class="st4" d="M75.6,67.1c-0.8,0.8-1.8,1.2-3,1.2s-2.2-0.4-3-1.2c-0.8-0.8-1.1-1.9-1.1-3.1c0-1.2,0.4-2.3,1.1-3.1
		c0.8-0.8,1.8-1.2,3-1.2s2.2,0.4,3,1.2c0.8,0.8,1.1,1.9,1.1,3.1C76.7,65.3,76.3,66.3,75.6,67.1z M72.6,67.4c0.9,0,1.7-0.3,2.3-1
		c0.6-0.6,0.9-1.4,0.9-2.4c0-1-0.3-1.8-0.9-2.4c-0.6-0.6-1.3-1-2.3-1c-0.9,0-1.7,0.3-2.3,1S69.5,63,69.5,64c0,1,0.2,1.8,0.8,2.4
		C70.9,67,71.6,67.4,72.6,67.4z"/>
</g>
<g>
	<path class="st5" d="M17.1,49.8c-0.6,0-1-0.1-1.4-0.3c-0.4-0.2-0.7-0.6-1-1c-0.3-0.4-0.4-0.9-0.6-1.4c-0.2-0.5-0.2-1-0.2-1.6
		c0-1.2,0.3-2.3,0.9-3.1s1.4-1.2,2.5-1.2c1,0,1.7,0.3,2.3,1L19,43c-0.5-0.6-1-0.9-1.8-0.9s-1.4,0.3-1.8,1c-0.4,0.6-0.6,1.4-0.6,2.3
		v0.3c0.2-0.3,0.6-0.6,1-0.9c0.4-0.3,0.9-0.4,1.4-0.4c0.8,0,1.4,0.2,1.9,0.7c0.5,0.5,0.8,1.1,0.8,1.9c0,0.7-0.2,1.4-0.8,1.9
		C18.6,49.6,18,49.8,17.1,49.8z M17.1,48.8c0.6,0,1-0.2,1.4-0.6c0.3-0.4,0.5-0.8,0.5-1.2c0-0.6-0.2-1-0.6-1.4
		c-0.3-0.3-0.8-0.5-1.4-0.5c-0.4,0-0.8,0.1-1.2,0.3c-0.4,0.2-0.6,0.6-0.9,0.9c0.1,0.6,0.2,1.1,0.6,1.6
		C15.9,48.6,16.4,48.8,17.1,48.8z"/>
	<path class="st5" d="M28.6,49.6h-1.3l-2.6-3.5L22,49.6h-1.3l3.2-4.3l-3.1-4h1.3l2.5,3.3l2.4-3.3h1.3l-3.1,4L28.6,49.6z"/>
	<path class="st5" d="M32,49.8c-0.6,0-1.3-0.2-1.8-0.4s-0.9-0.6-1.2-1l0.6-0.6c0.2,0.3,0.6,0.6,1,0.8c0.4,0.2,0.9,0.3,1.4,0.3
		c0.6,0,1-0.2,1.4-0.4c0.3-0.3,0.6-0.6,0.6-1.1c0-0.5-0.2-0.9-0.6-1.1C33,46.1,32.5,46,31.9,46c-0.5,0-0.8,0-0.9,0v-1
		c0.1,0,0.4,0,0.9,0c0.6,0,1-0.1,1.4-0.3c0.4-0.2,0.6-0.6,0.6-1s-0.2-0.8-0.6-1c-0.3-0.2-0.8-0.4-1.4-0.4c-0.8,0-1.6,0.3-2.2,1
		l-0.6-0.6c0.7-0.9,1.7-1.3,2.8-1.3c0.8,0,1.5,0.2,2,0.6c0.6,0.4,0.8,1,0.8,1.6c0,0.6-0.2,1-0.6,1.3c-0.4,0.3-0.8,0.6-1.2,0.6
		c0.5,0.1,0.9,0.2,1.3,0.6c0.4,0.4,0.6,0.8,0.6,1.4c0,0.7-0.2,1.3-0.8,1.7C33.6,49.5,33,49.8,32,49.8z"/>
</g>
<g>
	<path class="st6" d="M105.2,68.4h-1.1v-7.2l-1.4,1.5l-0.6-0.7l2.2-2.2h0.9V68.4z"/>
	<path class="st6" d="M110.2,68.5c-0.6,0-1.1-0.1-1.5-0.4c-0.4-0.3-0.8-0.6-1-1.1c-0.3-0.4-0.4-0.9-0.6-1.4c-0.1-0.5-0.2-1-0.2-1.6
		c0-0.5,0.1-1.1,0.2-1.6c0.1-0.5,0.3-1,0.6-1.4c0.3-0.4,0.6-0.8,1-1c0.4-0.3,0.9-0.4,1.5-0.4c0.6,0,1.1,0.1,1.5,0.4
		c0.4,0.3,0.8,0.6,1,1c0.3,0.4,0.4,0.9,0.6,1.4c0.1,0.5,0.2,1,0.2,1.6c0,0.5-0.1,1.1-0.2,1.6c-0.1,0.5-0.3,1-0.6,1.4
		c-0.3,0.4-0.6,0.8-1,1.1C111.2,68.4,110.7,68.5,110.2,68.5z M108.9,67c0.3,0.4,0.8,0.5,1.3,0.5c0.5,0,0.9-0.2,1.3-0.5
		c0.3-0.4,0.6-0.8,0.7-1.3c0.1-0.5,0.2-1.1,0.2-1.7c0-0.6-0.1-1.2-0.2-1.7c-0.1-0.5-0.4-0.9-0.7-1.3c-0.3-0.4-0.8-0.5-1.3-0.5
		c-0.5,0-0.9,0.2-1.3,0.5c-0.3,0.4-0.6,0.8-0.7,1.3c-0.1,0.5-0.2,1.1-0.2,1.7c0,0.6,0.1,1.2,0.2,1.7C108.3,66.2,108.6,66.7,108.9,67
		z"/>
</g>
</svg>
