<?xml version="1.0" encoding="utf-8"?>
<!-- Generator: Adobe Illustrator 25.2.3, SVG Export Plug-In . SVG Version: 6.00 Build 0)  -->
<svg version="1.1" id="Layer_1" xmlns="http://www.w3.org/2000/svg" width="234.552" height="89.546" xmlns:xlink="http://www.w3.org/1999/xlink" x="0px" y="0px"
	 viewBox="0 0 234.6 89.5" style="enable-background:new 0 0 234.6 89.5;" xml:space="preserve">
<style type="text/css">
	.st0{fill:#681758;}
	.st1{fill:#292333;}
	.st2{fill:#FFFFFF;stroke:#FFFFFF;stroke-width:0.4998;stroke-miterlimit:9.996;}
	.st3{fill:#FFFFFF;}
	.st4{opacity:0.92;fill:#2D314E;enable-background:new    ;}
	.st5{fill:none;}
	.st6{fill:#FFFFFF;stroke:#FFFFFF;stroke-width:0.7;stroke-miterlimit:10.005;}
</style>
<rect x="131.5" y="45.7" class="st0" width="30.2" height="22.2"/>
<g>
	<rect x="181" y="30.7" class="st0" width="44.2" height="15"/>
</g>
<rect x="161.7" y="45.7" class="st1" width="63.5" height="22.2"/>
<g>
	<path class="st2" d="M180.1,60.9h-1v-8.3h5.5v0.9h-4.4v2.7h4.4v0.9h-4.4L180.1,60.9L180.1,60.9z"/>
	<path class="st2" d="M187.1,60.9h-1v-8.3h3.4c0.8,0,1.5,0.2,1.9,0.7c0.4,0.5,0.7,1,0.7,1.8s-0.2,1.3-0.7,1.8
		c-0.5,0.5-1.1,0.7-1.9,0.7h-2.3L187.1,60.9L187.1,60.9z M189.2,56.7c0.5,0,0.9-0.2,1.2-0.5s0.5-0.6,0.5-1.1s-0.2-0.9-0.5-1.1
		c-0.3-0.3-0.7-0.5-1.2-0.5H187v3.1L189.2,56.7L189.2,56.7z"/>
	<path class="st2" d="M198.1,60.9h-4.9v-8.3h1V60h3.9V60.9z"/>
	<path class="st2" d="M207.6,60.9h-1v-7l-2.8,7h-0.4l-2.8-7v7h-1v-8.3h1.5l2.6,6.4l2.6-6.4h1.5L207.6,60.9L207.6,60.9z"/>
</g>
<g>
	<path class="st3" d="M197.2,42.4h-1v-2.1h-3.9v-0.9l3.5-5.3h1.5v5.3h1.2v0.9h-1.2L197.2,42.4L197.2,42.4z M196.1,39.3v-4.4
		l-2.9,4.4H196.1z"/>
	<path class="st3" d="M206.8,42.4h-1.3l-2.7-3.5l-2.7,3.5h-1.3l3.2-4.3l-3.1-4h1.3l2.5,3.3l2.5-3.3h1.3l-3.1,4L206.8,42.4z"/>
	<path class="st3" d="M210.7,42.6c-0.6,0-1-0.1-1.5-0.3c-0.5-0.2-0.7-0.6-1-1c-0.2-0.4-0.4-0.9-0.6-1.4c-0.2-0.5-0.2-1-0.2-1.6
		c0-1.2,0.3-2.3,0.9-3.1c0.6-0.8,1.5-1.2,2.5-1.2c1,0,1.7,0.3,2.3,1l-0.6,0.8c-0.5-0.6-1-0.9-1.8-0.9c-0.8,0-1.4,0.3-1.8,1
		s-0.6,1.5-0.6,2.3v0.2c0.2-0.3,0.6-0.6,1-0.9c0.4-0.2,0.9-0.4,1.4-0.4c0.8,0,1.5,0.2,1.9,0.7c0.5,0.5,0.8,1.1,0.8,1.9
		c0,0.7-0.2,1.4-0.8,1.9C212.3,42.3,211.6,42.6,210.7,42.6z M210.7,41.6c0.6,0,1-0.2,1.4-0.6c0.3-0.4,0.5-0.8,0.5-1.2
		c0-0.6-0.2-1-0.6-1.4c-0.3-0.3-0.8-0.5-1.4-0.5c-0.4,0-0.8,0.1-1.2,0.3s-0.6,0.6-0.9,0.9c0.1,0.6,0.2,1.1,0.6,1.6
		C209.5,41.4,210.1,41.6,210.7,41.6z"/>
</g>
<g id="_24_julho_novo" transform="translate(200.275 451.873)">
	<path id="Path_11" class="st4" d="M-66.1-365.5c-0.1,1.9-1.7,3.3-3.6,3.2c-1.9-0.1-3.3-1.7-3.2-3.6c0.1-1.8,1.6-3.2,3.4-3.2
		C-67.5-369-66-367.4-66.1-365.5z"/>
</g>
<g id="fplm_novo" transform="translate(-946 -246.114)">
	<g id="Group_66" transform="translate(29.369)">
		<rect id="Rectangle_41" x="916.6" y="263" class="st5" width="106" height="56"/>
	</g>
</g>
<polygon class="st0" points="131.5,66.8 131.5,76.9 138,64.7 "/>
<g>
	<path class="st6" d="M145.5,60.9h-1V54l-1.3,1.4l-0.6-0.6l2.1-2.1h0.9V60.9z"/>
	<path class="st6" d="M149.7,60.9h-1V54l-1.3,1.4l-0.6-0.6l2.1-2.1h0.9V60.9z"/>
</g>
</svg>
