<?xml version="1.0" encoding="utf-8"?>
<!-- Generator: Adobe Illustrator 25.2.3, SVG Export Plug-In . SVG Version: 6.00 Build 0)  -->
<svg version="1.1" id="Layer_1" xmlns="http://www.w3.org/2000/svg" width="215.612" height="95.442" xmlns:xlink="http://www.w3.org/1999/xlink" x="0px" y="0px"
	 viewBox="0 0 215.6 95.4" style="enable-background:new 0 0 215.6 95.4;" xml:space="preserve">
<style type="text/css">
	.st0{opacity:0.92;fill:#2D314E;enable-background:new    ;}
	.st1{fill:none;}
	.st2{fill:#E84D46;}
	.st3{fill:#292333;}
	.st4{fill:#FFFFFF;}
	.st5{fill:#FFFFFF;stroke:#FFFFFF;stroke-width:0.5;stroke-miterlimit:10.0006;}
	.st6{fill:#FFFFFF;stroke:#FFFFFF;stroke-width:0.5;stroke-miterlimit:10.002;}
</style>
<g id="_24_julho_novo" transform="translate(200.275 451.873)">
	<path id="Path_11" class="st0" d="M-92.7-359.6c-0.1,1.9-1.7,3.3-3.6,3.2c-1.9-0.1-3.3-1.7-3.2-3.6c0.1-1.8,1.6-3.2,3.4-3.2
		C-94.1-363.2-92.6-361.5-92.7-359.6z"/>
</g>
<g id="kaunda" transform="translate(-446 -323.073)">
	<rect id="Rectangle_51" x="446" y="352" class="st1" width="81" height="39"/>
</g>
<g>
	<rect x="169.7" y="38.3" class="st2" width="44.3" height="15"/>
</g>
<g>
	<rect x="135.5" y="53.3" class="st3" width="78.5" height="22.2"/>
</g>
<rect x="105.2" y="53.3" class="st2" width="30.3" height="22.2"/>
<polygon class="st2" points="105.2,75.6 105.2,83.1 109.9,74.1 "/>
<g>
	<path class="st4" d="M186,50.1h-1.1V48h-4v-0.9l3.6-5.3h1.5v5.3h1.2V48H186V50.1z M185,47v-4.4l-2.9,4.4H185z"/>
	<path class="st4" d="M195.6,50.1h-1.3l-2.7-3.6l-2.7,3.6h-1.3l3.2-4.3l-3.1-4h1.3l2.5,3.3l2.5-3.3h1.3l-3.1,4L195.6,50.1z"/>
	<path class="st4" d="M199.6,50.2c-0.6,0-1.1-0.1-1.5-0.3c-0.4-0.2-0.7-0.6-1-1c-0.2-0.4-0.4-0.9-0.6-1.4c-0.2-0.5-0.2-1.1-0.2-1.6
		c0-1.2,0.3-2.3,0.9-3.1c0.6-0.8,1.5-1.2,2.5-1.2s1.7,0.3,2.3,1l-0.6,0.8c-0.5-0.6-1.1-0.9-1.8-0.9c-0.7,0-1.4,0.3-1.8,1
		c-0.4,0.6-0.6,1.5-0.6,2.3v0.3c0.2-0.3,0.6-0.6,1-0.9c0.4-0.2,0.9-0.4,1.4-0.4c0.8,0,1.5,0.2,1.9,0.7c0.4,0.5,0.8,1.1,0.8,1.9
		c0,0.7-0.2,1.4-0.8,1.9C200.9,49.8,200.5,50.2,199.6,50.2z M199.5,49.2c0.6,0,1.1-0.2,1.4-0.6c0.3-0.4,0.5-0.8,0.5-1.2
		c0-0.6-0.2-1.1-0.6-1.4c-0.3-0.3-0.8-0.5-1.4-0.5c-0.4,0-0.8,0.1-1.2,0.3c-0.4,0.2-0.6,0.6-0.9,0.9c0.1,0.6,0.2,1.1,0.6,1.6
		C198.4,49,198.9,49.2,199.5,49.2z"/>
</g>
<g>
	<path class="st5" d="M156.8,68.6h-1.3l-3.2-3.7l-0.8,1v2.8h-1.1v-8.4h1.1v4.3l3.7-4.3h1.3l-3.5,4L156.8,68.6z"/>
	<path class="st5" d="M165.1,68.6H164l-0.7-1.9h-4.2l-0.7,1.9h-1.2l3.4-8.3h1.3L165.1,68.6z M162.9,65.8l-1.8-4.5l-1.8,4.5H162.9z"
		/>
	<path class="st5" d="M169.3,68.8c-1.1,0-1.9-0.3-2.5-0.9s-0.9-1.5-0.9-2.5v-5.1h1.1v5.1c0,0.8,0.2,1.4,0.6,1.9
		c0.4,0.4,1,0.6,1.8,0.6c0.7,0,1.4-0.2,1.8-0.6c0.4-0.4,0.6-1.1,0.6-1.9v-5.1h1.1v5.1c0,1.1-0.3,1.9-0.9,2.5
		C171.2,68.5,170.4,68.8,169.3,68.8z"/>
	<path class="st5" d="M181.6,68.6h-1l-4.9-6.6v6.6h-1.1v-8.3h1.1l4.9,6.5v-6.5h1.1L181.6,68.6L181.6,68.6z"/>
	<path class="st5" d="M186.4,68.6h-2.8v-8.3h2.8c1.3,0,2.3,0.4,3.1,1.2c0.8,0.8,1.2,1.8,1.2,3s-0.4,2.2-1.2,3S187.7,68.6,186.4,68.6
		z M186.4,67.7c1,0,1.8-0.3,2.3-0.9s0.9-1.4,0.9-2.3c0-1-0.3-1.7-0.9-2.3c-0.6-0.6-1.4-0.9-2.3-0.9h-1.8v6.5L186.4,67.7L186.4,67.7z
		"/>
	<path class="st5" d="M199.1,68.6h-1.2l-0.7-1.9h-4.1l-0.7,1.9h-1.3l3.4-8.3h1.3L199.1,68.6z M196.8,65.8l-1.8-4.5l-1.8,4.5H196.8z"
		/>
</g>
<g>
	<path class="st6" d="M117.8,68.9c-0.5,0-1-0.1-1.4-0.4c-0.4-0.3-0.7-0.6-1-1c-0.2-0.4-0.4-0.9-0.5-1.4c-0.1-0.5-0.2-1-0.2-1.5
		c0-0.5,0.1-1,0.2-1.5c0.1-0.5,0.3-0.9,0.5-1.4c0.2-0.4,0.6-0.8,1-1c0.4-0.3,0.9-0.4,1.4-0.4c0.5,0,1,0.1,1.4,0.4s0.8,0.6,1,1
		c0.2,0.4,0.4,0.9,0.5,1.4c0.1,0.5,0.2,1,0.2,1.5c0,0.5-0.1,1-0.2,1.5c-0.1,0.5-0.3,0.9-0.5,1.4c-0.2,0.4-0.6,0.8-1,1
		C118.8,68.7,118.3,68.9,117.8,68.9z M116.6,67.4c0.3,0.3,0.7,0.5,1.2,0.5c0.5,0,0.9-0.2,1.2-0.5c0.3-0.3,0.6-0.8,0.7-1.2
		c0.1-0.5,0.2-1,0.2-1.6c0-0.6-0.1-1.1-0.2-1.6c-0.1-0.5-0.4-0.9-0.7-1.2c-0.3-0.3-0.7-0.5-1.2-0.5c-0.5,0-0.9,0.2-1.2,0.5
		c-0.3,0.3-0.6,0.7-0.7,1.2c-0.1,0.5-0.2,1-0.2,1.6c0,0.6,0.1,1.1,0.2,1.6C116,66.7,116.2,67.1,116.6,67.4z"/>
	<path class="st6" d="M124.8,68.7h-1v-6.9l-1.3,1.4l-0.6-0.6l2.1-2.1h0.9V68.7z"/>
</g>
</svg>
