<?xml version="1.0" encoding="utf-8"?>
<!-- Generator: Adobe Illustrator 25.2.3, SVG Export Plug-In . SVG Version: 6.00 Build 0)  -->
<svg version="1.1" id="Layer_1" xmlns="http://www.w3.org/2000/svg" width="248.113" height="89.546" xmlns:xlink="http://www.w3.org/1999/xlink" x="0px" y="0px"
	 viewBox="0 0 248.1 89.5" style="enable-background:new 0 0 248.1 89.5;" xml:space="preserve">
<style type="text/css">
	.st0{opacity:0.92;fill:#2D314E;enable-background:new    ;}
	.st1{fill:none;}
	.st2{fill:#E84D46;}
	.st3{fill:#292333;}
	.st4{fill:#FFFFFF;stroke:#FFFFFF;stroke-width:0.7;stroke-miterlimit:10.0005;}
	.st5{fill:#FFFFFF;}
	.st6{fill:#FFFFFF;stroke:#FFFFFF;stroke-width:0.5;stroke-miterlimit:10.0005;}
	.st7{fill:#FFFFFF;stroke:#FFFFFF;stroke-width:0.7;stroke-miterlimit:10.005;}
</style>
<g id="_24_julho_novo" transform="translate(200.275 451.873)">
	<path id="Path_11" class="st0" d="M-66-365.5c-0.1,1.9-1.7,3.3-3.6,3.2c-1.9-0.1-3.3-1.7-3.2-3.6c0.1-1.8,1.6-3.2,3.4-3.2
		C-67.4-369-65.9-367.4-66-365.5z"/>
</g>
<g id="mundos" transform="translate(-425.915 -95.114)">
	<g id="Group_66" transform="translate(-490.716 -151)">
		<rect id="Rectangle_41" x="916.6" y="263" class="st1" width="106" height="56"/>
	</g>
</g>
<rect x="130.9" y="21.3" class="st2" width="30.3" height="22.2"/>
<g>
	<rect x="200.2" y="6.3" class="st2" width="44.3" height="15"/>
</g>
<rect x="160.8" y="21.3" class="st3" width="83.8" height="22.2"/>
<g>
	<rect x="160.8" y="44.8" class="st3" width="83.7" height="22.2"/>
</g>
<rect x="130.9" y="44.8" class="st2" width="30.3" height="22.2"/>
<polygon class="st2" points="130.9,67 130.9,75.4 135.1,65.9 "/>
<g>
	<path class="st4" d="M142.8,36.6c-0.5,0-1-0.1-1.4-0.4c-0.4-0.2-0.7-0.5-1-1s-0.4-0.9-0.5-1.3c-0.1-0.5-0.2-1-0.2-1.5
		c0-0.5,0.1-1,0.2-1.5c0.1-0.5,0.3-0.9,0.5-1.3s0.5-0.7,1-1c0.4-0.2,0.9-0.4,1.4-0.4c0.5,0,1,0.1,1.4,0.4c0.4,0.2,0.7,0.5,1,1
		s0.4,0.8,0.5,1.3c0.1,0.5,0.2,1,0.2,1.5c0,0.5-0.1,1-0.2,1.5s-0.3,0.9-0.5,1.3c-0.2,0.4-0.5,0.7-1,1
		C143.7,36.5,143.3,36.6,142.8,36.6z M141.6,35.2c0.3,0.3,0.7,0.5,1.2,0.5c0.5,0,0.9-0.2,1.2-0.5c0.3-0.3,0.5-0.7,0.7-1.2
		c0.1-0.5,0.2-1,0.2-1.6c0-0.6-0.1-1.1-0.2-1.6c-0.1-0.5-0.3-0.9-0.7-1.2c-0.4-0.3-0.7-0.5-1.2-0.5c-0.5,0-0.9,0.2-1.2,0.5
		s-0.5,0.7-0.7,1.2c-0.1,0.5-0.2,1-0.2,1.6c0,0.6,0.1,1.1,0.2,1.6C141,34.5,141.2,34.9,141.6,35.2z"/>
	<path class="st4" d="M151.6,36.4h-1v-2h-3.8v-0.8l3.4-5.1h1.4v5h1.1v0.9h-1.1L151.6,36.4L151.6,36.4z M150.6,33.6v-4.2l-2.8,4.2
		H150.6z"/>
</g>
<g>
	<path class="st5" d="M216.5,18h-1v-2.1h-4V15l3.6-5.3h1.5V15h1.2v0.9h-1.2V18H216.5z M215.5,15v-4.4l-2.9,4.4
		C212.5,15,215.5,15,215.5,15z"/>
	<path class="st5" d="M226,18h-1.3l-2.7-3.6l-2.7,3.6H218l3.2-4.3l-3.1-4h1.3l2.5,3.3l2.5-3.3h1.3l-3.1,4L226,18z"/>
	<path class="st5" d="M230.1,18.2c-0.6,0-1-0.1-1.5-0.3c-0.4-0.2-0.7-0.6-1-1c-0.2-0.4-0.4-0.9-0.6-1.4c-0.2-0.5-0.2-1-0.2-1.6
		c0-1.2,0.3-2.3,0.9-3.1c0.6-0.8,1.5-1.2,2.5-1.2c1,0,1.7,0.3,2.3,1l-0.6,0.8c-0.5-0.6-1-0.9-1.8-0.9c-0.7,0-1.4,0.3-1.8,1
		c-0.4,0.6-0.6,1.5-0.6,2.3v0.3c0.2-0.3,0.6-0.6,1-0.9c0.4-0.2,0.9-0.4,1.4-0.4c0.8,0,1.5,0.2,1.9,0.7c0.5,0.5,0.8,1.1,0.8,1.9
		c0,0.7-0.2,1.4-0.8,1.9C231.6,18,231,18.2,230.1,18.2z M230,17.2c0.6,0,1-0.2,1.4-0.6c0.3-0.4,0.5-0.8,0.5-1.2c0-0.6-0.2-1-0.6-1.4
		c-0.3-0.3-0.8-0.5-1.4-0.5c-0.4,0-0.8,0.1-1.2,0.3c-0.4,0.2-0.6,0.6-0.9,0.9c0.1,0.6,0.2,1.1,0.6,1.6C228.9,17,229.3,17.2,230,17.2
		z"/>
</g>
<g>
	<path class="st6" d="M179.3,36.6h-1v-7l-2.8,7H175l-2.8-7v7h-1v-8.3h1.5l2.6,6.5l2.6-6.5h1.5L179.3,36.6L179.3,36.6z"/>
	<path class="st6" d="M184.7,36.8c-1.1,0-1.9-0.3-2.5-0.9s-0.9-1.5-0.9-2.5v-5.1h1v5.1c0,0.8,0.2,1.4,0.6,1.9c0.5,0.5,1,0.6,1.8,0.6
		c0.8,0,1.4-0.2,1.8-0.6c0.4-0.4,0.6-1,0.6-1.9v-5.1h1v5.1c0,1-0.3,1.9-0.9,2.5C186.6,36.5,185.8,36.8,184.7,36.8z"/>
	<path class="st6" d="M197,36.6h-1l-4.8-6.6v6.6h-1v-8.3h1l4.8,6.5v-6.5h1V36.6L197,36.6z"/>
	<path class="st6" d="M201.7,36.6h-2.8v-8.3h2.8c1.3,0,2.3,0.4,3.1,1.2c0.8,0.8,1.2,1.8,1.2,3c0,1.2-0.4,2.2-1.2,3
		C204.1,36.3,203,36.6,201.7,36.6z M201.7,35.7c1,0,1.8-0.3,2.3-0.9c0.5-0.6,0.9-1.4,0.9-2.3c0-1-0.3-1.7-0.9-2.3
		c-0.6-0.6-1.4-0.9-2.3-0.9h-1.8v6.5h1.8V35.7z"/>
	<path class="st6" d="M214.5,35.5c-0.8,0.8-1.8,1.2-3,1.2c-1.2,0-2.2-0.4-3-1.2s-1.1-1.9-1.1-3.1c0-1.2,0.4-2.3,1.1-3.1
		c0.8-0.8,1.8-1.2,3-1.2c1.2,0,2.2,0.4,3,1.2c0.8,0.8,1.1,1.9,1.1,3.1C215.6,33.7,215.2,34.7,214.5,35.5z M211.5,35.9
		c0.9,0,1.7-0.3,2.3-1c0.6-0.6,0.9-1.5,0.9-2.4c0-1-0.3-1.8-0.9-2.4c-0.6-0.6-1.3-1-2.3-1c-0.9,0-1.7,0.3-2.3,1
		c-0.6,0.6-0.8,1.5-0.8,2.4c0,1,0.2,1.8,0.8,2.4C209.8,35.5,210.5,35.9,211.5,35.9z"/>
	<path class="st6" d="M220,36.8c-1.4,0-2.4-0.4-3.2-1.3l0.6-0.8c0.7,0.8,1.5,1.2,2.6,1.2c0.6,0,1.2-0.2,1.5-0.4
		c0.3-0.3,0.5-0.6,0.5-1c0-0.3-0.2-0.6-0.4-0.8c-0.2-0.2-0.6-0.4-0.9-0.5c-0.3-0.1-0.7-0.2-1.2-0.3c-0.4-0.2-0.8-0.2-1.2-0.4
		c-0.3-0.2-0.6-0.4-0.9-0.7c-0.2-0.3-0.4-0.7-0.4-1.2c0-0.6,0.2-1.2,0.8-1.7c0.6-0.4,1.2-0.6,2.1-0.6c1.2,0,2.2,0.4,3,1.2l-0.6,0.7
		c-0.6-0.6-1.4-1-2.4-1c-0.5,0-0.9,0.2-1.2,0.4s-0.5,0.6-0.5,1c0,0.3,0.2,0.6,0.4,0.7c0.2,0.2,0.6,0.3,0.9,0.4
		c0.4,0.1,0.7,0.2,1.2,0.3c0.4,0.2,0.8,0.3,1.2,0.4c0.4,0.1,0.6,0.4,0.9,0.7s0.4,0.7,0.4,1.2c0,0.6-0.2,1.3-0.7,1.7
		C221.7,36.5,221,36.8,220,36.8z"/>
	<path class="st6" d="M235,36.6h-1.2l-0.7-1.9H229l-0.7,1.9H227l3.4-8.3h1.3L235,36.6z M232.7,33.9l-1.8-4.5l-1.8,4.5H232.7z"/>
</g>
<g>
	<path class="st6" d="M179.7,60h-1v-7l-2.8,7h-0.4l-2.8-7v7h-1v-8.3h1.5l2.6,6.5l2.6-6.5h1.5L179.7,60L179.7,60z"/>
	<path class="st6" d="M185.1,60.2c-1.1,0-1.9-0.3-2.5-0.9c-0.6-0.6-0.9-1.5-0.9-2.5v-5.1h1v5.1c0,0.8,0.2,1.4,0.6,1.9
		c0.4,0.4,1,0.6,1.8,0.6c0.7,0,1.4-0.2,1.8-0.6c0.4-0.4,0.6-1,0.6-1.9v-5.1h1v5.1c0,1-0.3,1.9-0.9,2.5
		C187,59.9,186.1,60.2,185.1,60.2z"/>
	<path class="st6" d="M197.4,60h-1l-4.8-6.6V60h-1v-8.3h1l4.8,6.5v-6.5h1V60L197.4,60z"/>
	<path class="st6" d="M202.1,60h-2.8v-8.3h2.8c1.3,0,2.3,0.4,3.1,1.2c0.7,0.8,1.2,1.8,1.2,3c0,1.2-0.4,2.2-1.2,3
		C204.5,59.7,203.4,60,202.1,60z M202.1,59.1c1,0,1.8-0.3,2.3-0.9s0.9-1.4,0.9-2.3c0-1-0.3-1.7-0.9-2.3c-0.6-0.6-1.4-0.9-2.3-0.9
		h-1.8v6.5h1.8V59.1z"/>
	<path class="st6" d="M214.8,59c-0.8,0.8-1.8,1.2-3,1.2c-1.2,0-2.2-0.4-3-1.2c-0.8-0.8-1.1-1.9-1.1-3.1c0-1.2,0.4-2.3,1.1-3.1
		c0.8-0.8,1.8-1.2,3-1.2c1.2,0,2.2,0.4,3,1.2s1.1,1.9,1.1,3.1C216,57.1,215.6,58.2,214.8,59z M211.8,59.3c0.9,0,1.7-0.3,2.3-1
		c0.6-0.7,0.9-1.5,0.9-2.4c0-1-0.3-1.8-0.9-2.4s-1.3-1-2.3-1c-0.9,0-1.7,0.3-2.3,1c-0.6,0.6-0.8,1.5-0.8,2.4c0,1,0.2,1.8,0.8,2.4
		C210.2,59,210.9,59.3,211.8,59.3z"/>
	<path class="st6" d="M220.3,60.2c-1.4,0-2.4-0.4-3.2-1.3l0.6-0.8c0.7,0.8,1.5,1.2,2.6,1.2c0.6,0,1.2-0.2,1.5-0.4
		c0.3-0.3,0.5-0.6,0.5-1c0-0.3-0.2-0.6-0.4-0.8c-0.2-0.2-0.6-0.4-0.9-0.5c-0.3-0.1-0.7-0.2-1.2-0.3c-0.4-0.2-0.8-0.2-1.2-0.4
		c-0.3-0.2-0.6-0.4-0.9-0.7c-0.2-0.3-0.4-0.7-0.4-1.2c0-0.6,0.2-1.2,0.8-1.7s1.2-0.6,2.1-0.6c1.2,0,2.2,0.4,3,1.2l-0.6,0.7
		c-0.6-0.6-1.4-1-2.4-1c-0.5,0-0.9,0.2-1.2,0.4s-0.5,0.6-0.5,1c0,0.3,0.2,0.6,0.4,0.7c0.2,0.2,0.6,0.3,0.9,0.4
		c0.4,0.1,0.7,0.2,1.2,0.3c0.5,0.1,0.8,0.3,1.2,0.4c0.4,0.1,0.6,0.4,0.9,0.7s0.4,0.7,0.4,1.2c0,0.6-0.2,1.3-0.7,1.7
		C222.2,59.9,221.3,60.2,220.3,60.2z"/>
	<path class="st6" d="M232,60h-3.8v-8.3h3.7c0.7,0,1.3,0.2,1.7,0.6c0.4,0.4,0.6,0.9,0.6,1.5c0,0.5-0.2,0.9-0.4,1.3
		c-0.3,0.3-0.6,0.6-1,0.6c0.4,0.1,0.8,0.3,1.1,0.7c0.3,0.4,0.5,0.9,0.5,1.4c0,0.6-0.2,1.2-0.6,1.6C233.4,59.9,232.7,60,232,60z
		 M231.8,55.3c0.5,0,0.8-0.2,1-0.4c0.2-0.2,0.4-0.6,0.4-1c0-0.4-0.2-0.7-0.4-1c-0.2-0.2-0.6-0.4-1-0.4h-2.5v2.7L231.8,55.3
		L231.8,55.3z M231.8,59.1c0.5,0,0.9-0.2,1.1-0.4c0.2-0.2,0.4-0.6,0.4-1c0-0.4-0.2-0.7-0.4-1c-0.2-0.2-0.6-0.4-1.1-0.4h-2.6v2.9h2.6
		V59.1z"/>
</g>
<g>
	<path class="st7" d="M142.4,60c-0.5,0-1-0.1-1.4-0.4c-0.4-0.2-0.7-0.6-1-1c-0.2-0.4-0.4-0.9-0.5-1.3c-0.1-0.5-0.2-1-0.2-1.5
		c0-0.5,0.1-1,0.2-1.5c0.1-0.5,0.3-0.9,0.5-1.3c0.2-0.4,0.6-0.7,1-1s0.9-0.4,1.4-0.4c0.5,0,1,0.1,1.4,0.4s0.7,0.6,1,1
		c0.2,0.4,0.4,0.8,0.5,1.3c0.1,0.5,0.2,1,0.2,1.5c0,0.5-0.1,1-0.2,1.5c-0.1,0.5-0.3,0.9-0.5,1.3c-0.2,0.4-0.6,0.7-1,1
		C143.4,59.9,142.9,60,142.4,60z M141.2,58.6c0.3,0.3,0.7,0.5,1.2,0.5s0.9-0.2,1.2-0.5c0.3-0.3,0.5-0.7,0.7-1.2
		c0.1-0.5,0.2-1,0.2-1.6c0-0.6-0.1-1.1-0.2-1.6c-0.1-0.5-0.3-0.9-0.7-1.2c-0.3-0.3-0.7-0.5-1.2-0.5s-0.9,0.2-1.2,0.5
		c-0.3,0.3-0.5,0.7-0.7,1.2c-0.1,0.5-0.2,1-0.2,1.6c0,0.6,0.1,1.1,0.2,1.6C140.7,57.9,140.9,58.3,141.2,58.6z"/>
	<path class="st7" d="M149.7,60c-1.2,0-2.2-0.4-2.8-1.3l0.6-0.7c0.6,0.7,1.3,1.1,2.2,1.1c0.5,0,1-0.2,1.3-0.5
		c0.3-0.3,0.5-0.7,0.5-1.2c0-0.5-0.2-0.9-0.5-1.3c-0.3-0.3-0.8-0.5-1.3-0.5c-0.7,0-1.3,0.3-1.9,0.7l-0.7-0.3v-4.3h4.9v0.9h-3.9v2.8
		c0.5-0.5,1.1-0.7,1.9-0.7c0.7,0,1.3,0.2,1.8,0.7c0.5,0.5,0.7,1.1,0.7,1.9s-0.3,1.4-0.8,1.9S150.6,60,149.7,60z"/>
</g>
</svg>
