<?xml version="1.0" encoding="utf-8"?>
<!-- Generator: Adobe Illustrator 25.2.3, SVG Export Plug-In . SVG Version: 6.00 Build 0)  -->
<svg version="1.1" id="Layer_1" xmlns="http://www.w3.org/2000/svg" width="200" height="90" xmlns:xlink="http://www.w3.org/1999/xlink" x="0px" y="0px"
	 viewBox="0 0 200 90" style="enable-background:new 0 0 200 90;" xml:space="preserve">
<style type="text/css">
	.st0{fill:#55BCBD;}
	.st1{opacity:0.92;fill:#2D314E;enable-background:new    ;}
	.st2{fill:#292333;}
	.st3{fill:#002C46;}
	.st4{fill:#FFFFFF;stroke:#FFFFFF;stroke-width:0.5;stroke-miterlimit:10;}
	.st5{fill:#002C46;stroke:#002C46;stroke-width:0.7;stroke-miterlimit:10;}
</style>
<g>
	<g>
		<rect x="155.7" y="28.5" class="st0" width="44.1" height="16.5"/>
	</g>
</g>
<g id="_24_julho_novo" transform="translate(200.275 451.873)">
	<path id="Path_11" class="st1" d="M-113.2-369.9c-0.1,1.8-1.6,3.2-3.4,3.1s-3.2-1.6-3.1-3.4c0.1-1.7,1.5-3.1,3.3-3.1
		C-114.6-373.3-113.1-371.7-113.2-369.9z"/>
</g>
<g>
	<rect x="108.7" y="43.3" class="st2" width="91.1" height="22.1"/>
</g>
<g>
	<g id="Layer_1-2_13_">
		<rect x="79.2" y="43.3" class="st0" width="30.1" height="22.1"/>
	</g>
</g>
<polygon class="st0" points="79.3,65.5 84.1,72.8 84.1,62.8 "/>
<g>
	<path class="st3" d="M171.6,40.2c-0.6,0.5-1.5,0.7-2.4,0.7c-1,0-1.8-0.3-2.4-0.7c-0.6-0.5-1-1.1-1-1.8c0-0.6,0.2-1.1,0.6-1.6
		c0.5-0.5,1-0.7,1.7-0.9c-0.6-0.2-1.1-0.5-1.5-0.8c-0.4-0.4-0.6-0.8-0.6-1.5c0-0.8,0.4-1.4,1-1.8c0.6-0.5,1.4-0.6,2.3-0.6
		s1.7,0.2,2.3,0.6c0.6,0.5,1,1,1,1.8c0,0.6-0.2,1.1-0.6,1.5c-0.5,0.4-0.9,0.6-1.6,0.8c0.6,0.2,1.2,0.5,1.7,0.9
		c0.5,0.5,0.6,0.9,0.6,1.6C172.5,39.1,172.2,39.8,171.6,40.2z M169.1,40c0.6,0,1.1-0.2,1.6-0.5s0.6-0.7,0.6-1.2c0-0.4-0.2-0.7-0.5-1
		s-0.6-0.5-0.9-0.6c-0.3-0.1-0.6-0.2-0.8-0.2s-0.6,0.1-0.8,0.2c-0.3,0.1-0.6,0.4-0.9,0.6c-0.3,0.3-0.5,0.6-0.5,1
		c0,0.5,0.2,0.9,0.6,1.2C168,39.8,168.5,40,169.1,40z M169.1,35.4c0.2,0,0.4-0.1,0.6-0.2c0.2-0.1,0.5-0.2,0.6-0.3
		c0.3-0.1,0.5-0.3,0.6-0.5c0.2-0.2,0.2-0.5,0.2-0.7c0-0.5-0.2-0.8-0.6-1.1c-0.4-0.3-0.9-0.5-1.5-0.5s-1.1,0.2-1.5,0.5
		c-0.4,0.3-0.6,0.6-0.6,1.1c0,0.3,0.1,0.6,0.2,0.7c0.1,0.2,0.4,0.4,0.6,0.5c0.3,0.1,0.5,0.2,0.6,0.3
		C168.7,35.4,168.9,35.4,169.1,35.4z"/>
	<path class="st3" d="M182.5,40.8H181l-3-4.1l-3,4.1h-1.5l3.7-4.9l-3.5-4.6h1.5l2.9,3.8l2.9-3.8h1.5l-3.5,4.6L182.5,40.8z"/>
	<path class="st3" d="M188.7,40.8h-1.2v-2.4H183v-1l4.1-6.1h1.7v6.1h1.4v1h-1.4v2.4H188.7z M187.5,37.4v-5l-3.3,5H187.5z"/>
</g>
<g>
	<path class="st4" d="M124.5,59.2h-1.2v-8.5h-3v-1h7.2v1h-3V59.2L124.5,59.2z"/>
	<path class="st4" d="M128.9,59.1c-0.2,0.2-0.4,0.2-0.6,0.2s-0.4-0.1-0.6-0.2c-0.2-0.2-0.2-0.4-0.2-0.6c0-0.2,0.1-0.4,0.2-0.6
		c0.2-0.2,0.4-0.2,0.6-0.2s0.4,0.1,0.6,0.2c0.2,0.2,0.2,0.4,0.2,0.6C129.1,58.7,129,58.9,128.9,59.1z"/>
	<path class="st4" d="M137.8,59.4c-1.6,0-2.8-0.5-3.7-1.5l0.7-0.9c0.8,0.9,1.8,1.4,3,1.4c0.7,0,1.4-0.2,1.7-0.5
		c0.4-0.4,0.6-0.7,0.6-1.2c0-0.4-0.2-0.7-0.5-0.9c-0.3-0.3-0.6-0.5-1-0.6s-0.8-0.3-1.4-0.4c-0.6-0.1-0.9-0.3-1.4-0.5s-0.7-0.5-1-0.8
		c-0.3-0.4-0.5-0.8-0.5-1.4c0-0.7,0.3-1.4,0.9-1.9c0.6-0.5,1.4-0.7,2.4-0.7c1.4,0,2.5,0.5,3.4,1.4l-0.7,0.8
		c-0.6-0.7-1.6-1.1-2.8-1.1c-0.6,0-1,0.2-1.4,0.5s-0.6,0.6-0.6,1.1c0,0.4,0.2,0.6,0.5,0.8s0.6,0.4,1,0.5s0.8,0.3,1.4,0.4
		c0.5,0.2,0.9,0.4,1.4,0.5c0.5,0.2,0.7,0.5,1,0.8s0.5,0.8,0.5,1.4c0,0.7-0.3,1.5-0.8,1.9C140,59.1,139,59.4,137.8,59.4z"/>
	<path class="st4" d="M147.5,59.4c-1.4,0-2.5-0.5-3.4-1.4s-1.3-2.1-1.3-3.5s0.5-2.6,1.3-3.5c0.9-0.9,2-1.4,3.4-1.4s2.5,0.5,3.4,1.4
		s1.3,2.1,1.3,3.5s-0.5,2.6-1.3,3.5l0.9,0.9l-0.8,0.7l-0.9-1C149.4,59.1,148.5,59.4,147.5,59.4z M147.5,58.3c0.6,0,1.3-0.2,1.8-0.5
		l-1.4-1.5l0.8-0.7l1.4,1.5c0.6-0.7,0.9-1.7,0.9-2.7c0-1.1-0.4-2-1-2.8c-0.6-0.7-1.5-1.1-2.6-1.1c-1,0-1.9,0.4-2.6,1.1
		s-0.9,1.7-0.9,2.8s0.3,2,0.9,2.8C145.6,57.9,146.4,58.3,147.5,58.3z"/>
	<path class="st4" d="M157.9,59.4c-1.3,0-2.2-0.4-2.9-1c-0.6-0.6-1-1.7-1-2.9v-5.8h1.2v5.8c0,0.9,0.3,1.6,0.7,2.1
		c0.5,0.6,1.1,0.7,2,0.7s1.6-0.3,2-0.7c0.5-0.5,0.7-1.2,0.7-2.1v-5.8h1.2v5.8c0,1.2-0.4,2.1-1,2.9C160.3,59.1,159.2,59.4,157.9,59.4
		z"/>
	<path class="st4" d="M171.9,59.2h-1.4l-0.8-2.1h-4.7l-0.8,2.1h-1.4l3.9-9.5h1.5L171.9,59.2z M169.4,56l-2-5.2l-2,5.2H169.4z"/>
	<path class="st4" d="M180.1,59.2h-1.4l-2.4-3.8h-1.9v3.8h-1.2v-9.6h3.9c0.9,0,1.6,0.3,2.1,0.8c0.6,0.6,0.8,1.2,0.8,2.1
		c0,0.8-0.3,1.5-0.7,1.9c-0.5,0.5-1.1,0.7-1.8,0.8L180.1,59.2z M176.8,54.3c0.6,0,1-0.2,1.4-0.6c0.4-0.4,0.6-0.7,0.6-1.3
		s-0.2-1-0.6-1.3c-0.4-0.4-0.8-0.5-1.4-0.5h-2.5v3.7L176.8,54.3L176.8,54.3z"/>
	<path class="st4" d="M188.1,59.2h-6.3v-9.6h6.3v1H183v3h5v1h-5V58h5.1V59.2z"/>
</g>
<g>
	<path class="st5" d="M90.5,59.2c-0.6,0-1.2-0.1-1.6-0.4c-0.5-0.3-0.8-0.7-1.1-1.1c-0.3-0.5-0.5-1-0.6-1.5c-0.1-0.6-0.2-1.1-0.2-1.7
		c0-0.6,0.1-1.2,0.2-1.7c0.1-0.6,0.3-1.1,0.6-1.5c0.3-0.5,0.7-0.9,1.1-1.1c0.5-0.3,1-0.4,1.6-0.4c0.6,0,1.2,0.1,1.6,0.4
		c0.5,0.3,0.9,0.7,1.1,1.1c0.3,0.5,0.5,1,0.6,1.5c0.1,0.6,0.2,1.1,0.2,1.7c0,0.6-0.1,1.2-0.2,1.7c-0.1,0.6-0.3,1.1-0.6,1.5
		c-0.3,0.5-0.7,0.9-1.1,1.1C91.7,59.1,91.1,59.2,90.5,59.2z M89.1,57.6c0.4,0.4,0.8,0.6,1.4,0.6c0.6,0,1-0.2,1.4-0.6
		c0.4-0.4,0.6-0.9,0.8-1.4c0.1-0.5,0.2-1.2,0.2-1.8c0-0.7-0.1-1.3-0.2-1.8c-0.1-0.5-0.4-1-0.8-1.4c-0.4-0.4-0.8-0.6-1.4-0.6
		c-0.6,0-1,0.2-1.4,0.6s-0.6,0.9-0.8,1.4s-0.2,1.2-0.2,1.8c0,0.7,0.1,1.3,0.2,1.8S88.7,57.2,89.1,57.6z"/>
	<path class="st5" d="M97.8,59h-1.3l3.8-8.3h-5.1v-1h6.4v0.8L97.8,59z"/>
</g>
</svg>
