<?xml version="1.0" encoding="utf-8"?>
<!-- Generator: Adobe Illustrator 25.2.3, SVG Export Plug-In . SVG Version: 6.00 Build 0)  -->
<svg version="1.1" id="Layer_1" xmlns="http://www.w3.org/2000/svg" width="243.725" height="95.826" xmlns:xlink="http://www.w3.org/1999/xlink" x="0px" y="0px"
	 viewBox="0 0 243.7 95.8" style="enable-background:new 0 0 243.7 95.8;" xml:space="preserve">
<style type="text/css">
	.st0{opacity:0.92;fill:#2D314E;enable-background:new    ;}
	.st1{fill:none;}
	.st2{fill:#E84D46;}
	.st3{fill:#292333;}
	.st4{fill:#FFFFFF;}
	.st5{fill:#FFFFFF;stroke:#FFFFFF;stroke-width:0.5001;stroke-miterlimit:10.001;}
	.st6{fill:#FFFFFF;stroke:#FFFFFF;stroke-width:0.5;stroke-miterlimit:10.002;}
</style>
<g id="xenon_1" transform="translate(-200.275 -451.873)">
	<g id="_24_julho_novo" transform="translate(200.275 451.873)">
		<path id="Path_11" class="st0" d="M126.2,92.6c-0.1,1.9-1.7,3.3-3.6,3.2c-1.9-0.1-3.3-1.7-3.2-3.6c0.1-1.8,1.6-3.2,3.4-3.2
			C124.8,89.1,126.3,90.7,126.2,92.6z"/>
	</g>
	<rect id="Rectangle_43" x="348" y="487" class="st1" width="96" height="26"/>
</g>
<rect x="92.4" y="53.5" class="st2" width="30.4" height="22.3"/>
<g>
	<rect x="17.5" y="38.4" class="st2" width="44.5" height="15.1"/>
</g>
<rect x="17.5" y="53.5" class="st3" width="74.9" height="22.3"/>
<polygon class="st2" points="122.8,74.6 122.8,83.2 116.7,73.6 "/>
<g>
	<path class="st4" d="M32.2,50.3c-0.6,0-1.1-0.1-1.5-0.3c-0.4-0.2-0.7-0.6-1-1c-0.2-0.4-0.4-0.9-0.6-1.4c-0.2-0.5-0.2-1.1-0.2-1.6
		c0-1.2,0.3-2.3,0.9-3.1c0.6-0.8,1.5-1.2,2.5-1.2s1.7,0.3,2.4,1l-0.6,0.8c-0.5-0.6-1.1-0.9-1.8-0.9s-1.4,0.3-1.8,1
		c-0.4,0.6-0.6,1.5-0.6,2.4v0.2c0.2-0.3,0.6-0.6,1-0.9c0.4-0.2,0.9-0.4,1.4-0.4c0.8,0,1.5,0.2,1.9,0.7c0.5,0.5,0.8,1.1,0.8,1.9
		c0,0.7-0.2,1.4-0.8,1.9C33.9,50,33.1,50.3,32.2,50.3z M32.2,49.3c0.6,0,1.1-0.2,1.4-0.6c0.3-0.4,0.5-0.8,0.5-1.2
		c0-0.6-0.2-1.1-0.6-1.4c-0.3-0.3-0.8-0.5-1.4-0.5c-0.4,0-0.8,0.1-1.2,0.3c-0.4,0.2-0.6,0.6-0.9,0.9c0.1,0.6,0.2,1.1,0.6,1.6
		C31,49.1,31.6,49.3,32.2,49.3z"/>
	<path class="st4" d="M43.9,50.1h-1.3l-2.7-3.6l-2.7,3.6h-1.3l3.2-4.3L36,41.7h1.3l2.5,3.3l2.5-3.3h1.3l-3.1,4.1L43.9,50.1z"/>
	<path class="st4" d="M47.3,50.3c-0.6,0-1.3-0.2-1.8-0.4c-0.5-0.2-0.9-0.6-1.2-1l0.6-0.6c0.2,0.3,0.6,0.6,1,0.8s0.9,0.3,1.4,0.3
		c0.6,0,1.1-0.2,1.5-0.4c0.3-0.3,0.6-0.6,0.6-1.1c0-0.5-0.2-0.9-0.6-1.1c-0.4-0.2-0.9-0.3-1.5-0.3c-0.5,0-0.8,0-0.9,0v-1
		c0.1,0,0.4,0,0.9,0c0.6,0,1.1-0.1,1.4-0.3c0.4-0.2,0.6-0.6,0.6-1.1c0-0.4-0.2-0.8-0.6-1.1c-0.3-0.2-0.8-0.4-1.4-0.4
		c-0.8,0-1.6,0.3-2.2,1.1l-0.6-0.6c0.7-0.9,1.7-1.3,2.8-1.3c0.8,0,1.5,0.2,2,0.6c0.6,0.4,0.8,1,0.8,1.6c0,0.6-0.2,1-0.6,1.3
		c-0.4,0.3-0.8,0.6-1.2,0.6c0.5,0.1,0.9,0.2,1.3,0.6s0.6,0.8,0.6,1.5s-0.2,1.3-0.8,1.7C49,50.1,48.3,50.3,47.3,50.3z"/>
</g>
<g>
	<path class="st5" d="M42,68.8h-1.3L38,65.2l-2.7,3.6h-1.2l3.2-4.3l-3.1-4.1h1.3l2.5,3.3l2.5-3.3h1.3l-3.1,4.1L42,68.8z"/>
	<path class="st5" d="M48.6,68.8h-5.5v-8.4h5.5v0.9h-4.5V64h4.4v0.9h-4.4v2.9h4.5V68.8z"/>
	<path class="st5" d="M57.2,68.8h-1l-4.8-6.6v6.7h-1.1v-8.4h1.1l4.9,6.6v-6.6h1.1L57.2,68.8L57.2,68.8z"/>
	<path class="st5" d="M66,67.8c-0.8,0.8-1.8,1.2-3,1.2c-1.2,0-2.2-0.4-3-1.2c-0.8-0.8-1.1-1.9-1.1-3.1c0-1.2,0.4-2.3,1.1-3.1
		c0.8-0.8,1.8-1.2,3-1.2c1.2,0,2.2,0.4,3,1.2c0.8,0.8,1.1,1.9,1.1,3.1C67.1,65.9,66.8,66.9,66,67.8z M63,68.1c0.9,0,1.7-0.3,2.3-1
		c0.6-0.6,0.9-1.5,0.9-2.4s-0.3-1.8-0.9-2.4c-0.6-0.6-1.3-1-2.3-1c-0.9,0-1.7,0.3-2.3,1c-0.6,0.6-0.8,1.5-0.8,2.4s0.2,1.8,0.8,2.4
		C61.4,67.8,62.1,68.1,63,68.1z"/>
	<path class="st5" d="M75.7,68.8h-1l-4.8-6.6v6.7h-1.1v-8.4h1.1l4.9,6.6v-6.6h1.1L75.7,68.8L75.7,68.8z"/>
</g>
<g>
	<path class="st6" d="M104,69c-0.5,0-1-0.1-1.4-0.4c-0.4-0.3-0.7-0.6-1-1s-0.4-0.9-0.5-1.4c-0.1-0.5-0.2-1-0.2-1.5
		c0-0.5,0.1-1,0.2-1.5c0.1-0.5,0.3-0.9,0.5-1.3c0.2-0.4,0.6-0.7,1-1s0.9-0.4,1.4-0.4c0.5,0,1,0.1,1.4,0.4s0.7,0.6,1,1
		c0.2,0.4,0.4,0.9,0.5,1.3c0.1,0.5,0.2,1,0.2,1.5c0,0.5-0.1,1-0.2,1.5c-0.1,0.5-0.3,0.9-0.5,1.4c-0.2,0.4-0.6,0.8-1,1
		C105,68.9,104.5,69,104,69z M102.7,67.6c0.3,0.3,0.7,0.5,1.2,0.5c0.5,0,0.9-0.2,1.2-0.5c0.3-0.3,0.6-0.7,0.7-1.2
		c0.1-0.5,0.2-1,0.2-1.6s-0.1-1.1-0.2-1.6c-0.1-0.5-0.3-0.9-0.7-1.2c-0.3-0.3-0.7-0.5-1.2-0.5c-0.5,0-0.9,0.2-1.2,0.5
		c-0.3,0.3-0.6,0.7-0.7,1.2s-0.2,1-0.2,1.6s0.1,1.1,0.2,1.6C102.2,66.8,102.4,67.2,102.7,67.6z"/>
	<path class="st6" d="M114,68.8h-5.6V68c1.7-1.3,2.9-2.3,3.5-3c0.7-0.7,1-1.4,1-2.1c0-0.5-0.2-0.9-0.5-1.1c-0.3-0.3-0.7-0.4-1.2-0.4
		c-0.9,0-1.7,0.3-2.2,1l-0.6-0.7c0.3-0.4,0.7-0.7,1.2-1c0.5-0.2,1-0.3,1.6-0.3c0.7,0,1.4,0.2,1.9,0.6c0.5,0.4,0.8,1,0.8,1.8
		c0,0.8-0.3,1.5-1,2.3c-0.7,0.8-1.7,1.7-3,2.7h4V68.8z"/>
</g>
</svg>
