<?xml version="1.0" encoding="utf-8"?>
<!-- Generator: Adobe Illustrator 25.2.3, SVG Export Plug-In . SVG Version: 6.00 Build 0)  -->
<svg version="1.1" id="Layer_1" xmlns="http://www.w3.org/2000/svg" width="243.725" height="95.826" xmlns:xlink="http://www.w3.org/1999/xlink" x="0px" y="0px"
	 viewBox="0 0 243.7 95.8" style="enable-background:new 0 0 243.7 95.8;" xml:space="preserve">
<style type="text/css">
	.st0{fill:#55BCBD;}
	.st1{fill:#292333;}
	.st2{fill:#002C46;}
	.st3{fill:#FFFFFF;stroke:#FFFFFF;stroke-width:0.5002;stroke-miterlimit:10.002;}
	.st4{opacity:0.92;fill:#2D314E;enable-background:new    ;}
	.st5{fill:none;}
	.st6{fill:#002C46;stroke:#002C46;stroke-width:0.7001;stroke-miterlimit:10.002;}
</style>
<g>
	<rect x="16" y="31.3" class="st0" width="43.6" height="19.2"/>
</g>
<g id="Layer_1-2_13_">
	<polygon class="st0" points="105.5,45.7 135.3,45.7 135.3,67.6 112.7,67.6 107.1,67.6 105.5,67.6 	"/>
</g>
<g>
	<rect x="16" y="45.7" class="st1" width="90.2" height="21.9"/>
</g>
<polygon class="st0" points="135.3,66.3 135.3,77.1 128.5,64.9 "/>
<g>
	<path class="st2" d="M29.7,43.5c-0.6,0-1.2-0.1-1.6-0.4c-0.4-0.3-0.8-0.6-1.1-1.1c-0.3-0.5-0.4-1-0.6-1.5c-0.2-0.5-0.2-1.2-0.2-1.8
		c0-1.3,0.4-2.5,1-3.4c0.6-0.9,1.6-1.3,2.7-1.3s1.9,0.4,2.6,1.1L31.9,36c-0.5-0.6-1.2-1-2-1s-1.5,0.4-2,1.1s-0.7,1.6-0.7,2.6v0.4
		c0.3-0.4,0.6-0.7,1.1-1c0.4-0.3,1-0.4,1.5-0.4c0.9,0,1.6,0.3,2.1,0.8c0.5,0.5,0.9,1.2,0.9,2.1c0,0.8-0.3,1.5-0.9,2.1
		C31.4,43.3,30.6,43.5,29.7,43.5z M29.7,42.5c0.6,0,1.2-0.2,1.5-0.6c0.4-0.4,0.5-0.9,0.5-1.3c0-0.6-0.2-1.2-0.6-1.5
		c-0.4-0.4-0.9-0.5-1.5-0.5c-0.4,0-0.9,0.1-1.3,0.4c-0.4,0.3-0.7,0.6-1,1c0.1,0.7,0.3,1.2,0.6,1.8C28.3,42.3,28.9,42.5,29.7,42.5z"
		/>
	<path class="st2" d="M42.3,43.3h-1.4L38,39.4l-2.9,3.9h-1.4l3.5-4.7l-3.4-4.4h1.4l2.7,3.6l2.7-3.6H42l-3.4,4.4L42.3,43.3z"/>
	<path class="st2" d="M46.2,43.5c-0.7,0-1.4-0.2-2-0.4c-0.5-0.3-1-0.6-1.3-1.1l0.7-0.7c0.3,0.4,0.6,0.6,1.1,0.9
		c0.4,0.2,1,0.4,1.5,0.4c0.6,0,1.2-0.2,1.6-0.4c0.4-0.4,0.6-0.7,0.6-1.2c0-0.5-0.2-1-0.6-1.2c-0.4-0.3-1-0.4-1.7-0.4
		c-0.5,0-0.9,0-1,0v-1.1c0.1,0,0.4,0,1,0c0.6,0,1.2-0.1,1.5-0.4c0.4-0.3,0.6-0.6,0.6-1.2c0-0.4-0.2-0.9-0.6-1.2
		c-0.4-0.3-0.9-0.4-1.5-0.4c-0.9,0-1.8,0.4-2.4,1.2l-0.6-0.7c0.8-1,1.9-1.4,3.1-1.4c0.9,0,1.7,0.2,2.2,0.6c0.6,0.4,0.9,1.1,0.9,1.8
		c0,0.6-0.2,1.1-0.6,1.4c-0.4,0.4-0.9,0.6-1.3,0.7c0.5,0.1,1,0.3,1.4,0.7s0.7,0.9,0.7,1.6c0,0.8-0.3,1.4-0.9,1.9
		C47.9,43.2,47.1,43.5,46.2,43.5z"/>
</g>
<g>
	<path class="st3" d="M48.6,61.3h-6.7v-1l5.1-7.2h-5.1v-1h6.6v1l-5.1,7.2h5.2C48.6,60.3,48.6,61.3,48.6,61.3z"/>
	<path class="st3" d="M58.2,61.3h-1.3l-0.8-2h-4.6l-0.8,2h-1.3l3.7-9.1h1.4L58.2,61.3z M55.8,58.2l-2-5l-2,5H55.8z"/>
	<path class="st3" d="M68.4,61.3h-1.2v-7.7l-3.1,7.7h-0.4l-3.1-7.7v7.7h-1.2v-9.1H61l2.8,7.1l2.8-7.1h1.7v9.1
		C68.3,61.3,68.4,61.3,68.4,61.3z"/>
	<path class="st3" d="M74.7,61.3h-4.2v-9.1h4c0.8,0,1.4,0.2,1.9,0.6c0.4,0.4,0.7,1,0.7,1.7c0,0.5-0.2,1-0.4,1.4
		c-0.4,0.4-0.7,0.6-1.2,0.7c0.4,0.1,0.9,0.4,1.2,0.8c0.3,0.4,0.5,1,0.5,1.5c0,0.7-0.3,1.3-0.7,1.8C76.1,61.2,75.5,61.3,74.7,61.3z
		 M74.4,56.1c0.5,0,0.9-0.2,1.2-0.4c0.3-0.3,0.4-0.6,0.4-1.1c0-0.4-0.2-0.8-0.4-1.1c-0.3-0.3-0.7-0.4-1.2-0.4h-2.7V56L74.4,56.1
		L74.4,56.1z M74.5,60.3c0.5,0,1-0.2,1.2-0.4c0.2-0.2,0.4-0.7,0.4-1.2c0-0.5-0.2-0.8-0.4-1.2c-0.3-0.3-0.7-0.4-1.2-0.4h-2.8v3.2
		C71.7,60.3,74.5,60.3,74.5,60.3z"/>
	<path class="st3" d="M80.3,61.3h-1.2v-9.1h1.2V61.3z"/>
</g>
<g id="zambi" transform="translate(-200.275 -451.873)">
	<g id="_24_julho_novo" transform="translate(200.275 451.873)">
		<path id="Path_11" class="st4" d="M138.2,88.1c-0.1,1.7-1.5,3-3.2,2.9c-1.7-0.1-3-1.5-2.9-3.2c0.1-1.6,1.4-2.9,3.1-2.9
			C136.9,84.9,138.3,86.4,138.2,88.1z"/>
	</g>
	<rect id="Rectangle_43" x="357.8" y="488.3" class="st5" width="86.2" height="23.4"/>
</g>
<g>
	<path class="st6" d="M116.4,61.3c-0.6,0-1.1-0.1-1.6-0.4c-0.5-0.3-0.8-0.6-1.1-1.1c-0.3-0.5-0.5-1-0.6-1.5
		c-0.1-0.5-0.2-1.1-0.2-1.7c0-0.6,0.1-1.1,0.2-1.7c0.1-0.5,0.3-1,0.6-1.5c0.3-0.5,0.6-0.8,1.1-1.1s1-0.4,1.6-0.4
		c0.6,0,1.1,0.1,1.6,0.4c0.5,0.3,0.8,0.6,1.1,1.1c0.3,0.5,0.5,0.9,0.6,1.5c0.1,0.5,0.2,1.1,0.2,1.7c0,0.6-0.1,1.1-0.2,1.7
		c-0.1,0.5-0.3,1-0.6,1.5c-0.3,0.5-0.6,0.8-1.1,1.1C117.5,61.2,117,61.3,116.4,61.3z M115.1,59.7c0.4,0.4,0.8,0.6,1.3,0.6
		c0.5,0,1-0.2,1.3-0.6c0.4-0.4,0.6-0.8,0.7-1.3c0.1-0.5,0.2-1.1,0.2-1.7s-0.1-1.2-0.2-1.7c-0.1-0.5-0.4-1-0.7-1.3
		c-0.4-0.4-0.8-0.6-1.3-0.6c-0.5,0-1,0.2-1.3,0.6c-0.4,0.4-0.6,0.8-0.7,1.3c-0.1,0.5-0.2,1.1-0.2,1.7s0.1,1.2,0.2,1.7
		S114.7,59.4,115.1,59.7z"/>
	<path class="st6" d="M124.7,61.3c-0.6,0-1.1-0.1-1.6-0.4c-0.5-0.3-0.8-0.6-1.1-1c-0.3-0.4-0.5-0.9-0.6-1.5
		c-0.1-0.5-0.2-1.1-0.2-1.8c0-1.3,0.3-2.4,0.9-3.3c0.6-0.9,1.5-1.3,2.7-1.3c1,0,1.9,0.4,2.5,1.1l-0.6,0.8c-0.5-0.6-1.2-0.9-1.9-0.9
		c-0.8,0-1.4,0.3-1.9,1c-0.4,0.7-0.7,1.5-0.7,2.5v0.3c0.2-0.4,0.6-0.7,1-1c0.5-0.3,1-0.4,1.5-0.4c0.9,0,1.6,0.2,2.1,0.7
		c0.6,0.5,0.8,1.2,0.8,2.1c0,0.8-0.3,1.5-0.9,2.1C126.4,61,125.6,61.3,124.7,61.3z M124.6,60.3c0.6,0,1.1-0.2,1.5-0.6
		c0.4-0.4,0.5-0.8,0.5-1.3c0-0.6-0.2-1.1-0.6-1.4c-0.4-0.3-0.9-0.5-1.5-0.5c-0.4,0-0.9,0.1-1.3,0.4c-0.4,0.2-0.7,0.6-1,1
		c0.1,0.7,0.3,1.2,0.6,1.7C123.4,60.1,123.9,60.3,124.6,60.3z"/>
</g>
</svg>
