<svg width="243.725" height="95.826" id="Layer_1" data-name="Layer 1" xmlns="http://www.w3.org/2000/svg" xmlns:xlink="http://www.w3.org/1999/xlink" viewBox="0 0 234 84"><defs><style>.cls-1{fill:none;}.cls-2{fill:#676d81;}.cls-3{fill:#fff;}.cls-4{fill:#e2c620;}.cls-5{clip-path:url(#clip-path);}.cls-6{fill:#2d314e;}</style><clipPath id="clip-path"><rect class="cls-1" x="41.59" y="15.76" width="27.42" height="10.55"/></clipPath></defs><rect class="cls-2" x="33.04" y="29.76" width="90.53" height="25.8"/><path class="cls-3" d="M40.75,45.68V44.44c3.23-2.23,4.18-3,4.18-3.9,0-.65-.63-1-1.28-1a2.93,2.93,0,0,0-2.12.85l-1-1a4.18,4.18,0,0,1,3-1.2c1.69,0,3,.88,3,2.35,0,1.27-1.12,2.36-3.17,3.76H46.7v1.38Z"/><path class="cls-3" d="M51.47,45.68V44.16H47.69V42.92l3.14-4.62h2.32v4.47h1v1.39h-1v1.52Zm0-6-2.13,3.08h2.13Z"/><path class="cls-3" d="M58.48,45.68V38.3H61.6c2.47,0,4.19,1.47,4.19,3.68s-1.72,3.7-4.18,3.7ZM64.07,42a2.23,2.23,0,0,0-2.46-2.3H60.16V44.3H61.6A2.29,2.29,0,0,0,64.07,42Z"/><path class="cls-3" d="M67.08,45.68V38.3h5.59v1.38H68.76v1.55h3.83v1.39H68.76V44.3h3.91v1.38Z"/><path class="cls-3" d="M76.51,45.09l.74-1.2a1.81,1.81,0,0,0,1.25.53,1.13,1.13,0,0,0,1.23-1.18V38.3h1.7v5c0,1.74-1.18,2.56-2.79,2.56A3.09,3.09,0,0,1,76.51,45.09Z"/><path class="cls-3" d="M83.07,42.73V38.3h1.71v4.38a1.86,1.86,0,0,0,3.71,0V38.3H90.2v4.43c0,1.82-1.16,3.09-3.56,3.09S83.07,44.55,83.07,42.73Z"/><path class="cls-3" d="M91.79,45.68V38.3h1.7v6h3.33v1.38Z"/><path class="cls-3" d="M103.47,45.68V42.57H99.74v3.11H98.06V38.3h1.68v2.9h3.73V38.3h1.69v7.38Z"/><path class="cls-3" d="M106.43,42a4.14,4.14,0,1,1,4.14,3.82A3.86,3.86,0,0,1,106.43,42ZM113,42a2.4,2.4,0,1,0-2.39,2.42A2.3,2.3,0,0,0,113,42Z"/><rect class="cls-4" x="121.67" y="29.76" width="35.23" height="25.8"/><path class="cls-3" d="M131,48.8V39.08l-2.23,2.27-1.62-1.7,4.21-4.24h2.49V48.8Z"/><path class="cls-3" d="M135.91,45.33a3.83,3.83,0,0,1,2.87-3.43c-1.48-.53-2.65-1.49-2.65-3.16,0-2.53,2.67-3.53,5.16-3.53s5.16,1,5.16,3.53c0,1.67-1.18,2.63-2.65,3.16a3.85,3.85,0,0,1,2.87,3.43c0,2.49-2.57,3.71-5.38,3.71S135.91,47.82,135.91,45.33Zm7.87-.4c0-1.11-1.67-1.63-2.49-1.75-.84.12-2.49.64-2.49,1.75s1.09,1.58,2.49,1.58S143.78,45.89,143.78,44.93Zm-.24-5.7c0-.95-.94-1.49-2.25-1.49s-2.27.54-2.27,1.49,1.45,1.4,2.27,1.54C142.11,40.63,143.54,40.21,143.54,39.23Z"/><rect class="cls-4" x="33.04" y="12.31" width="44.51" height="17.45" rx="0.03"/><g class="cls-5"><path class="cls-3" d="M42.08,21.34c0-2.8,1.69-4.78,4.61-4.78a4.56,4.56,0,0,1,2.91,1L48.66,19a2.74,2.74,0,0,0-2-.72,2.48,2.48,0,0,0-2.47,2.61,1.34,1.34,0,0,0,0,.2,3.3,3.3,0,0,1,2.53-1.19c1.78,0,3.38,1,3.38,3,0,1.8-1.54,3.17-3.79,3.17C43.34,26.1,42.08,23.94,42.08,21.34ZM48,23c0-1-.89-1.38-1.82-1.38a2.58,2.58,0,0,0-1.94.87,1.92,1.92,0,0,0,2,1.87C47.37,24.36,48,23.64,48,23Z"/><path class="cls-3" d="M58.12,25.93l-2.48-3.37-2.48,3.37h-2.5l3.58-4.73-3.36-4.5h2.5l2.26,3.16,2.24-3.16h2.53l-3.36,4.49,3.58,4.74Z"/><path class="cls-3" d="M61,24.62l1.11-1.31a4,4,0,0,0,2.71,1.05c1.19,0,1.86-.49,1.86-1.18s-.61-1.07-2-1.07c-.42,0-1.08,0-1.23,0V20.37h1.23c1.09,0,1.83-.3,1.83-1s-.81-1.09-1.83-1.09a3.72,3.72,0,0,0-2.52,1l-1-1.23a5,5,0,0,1,3.77-1.47c2.31,0,3.73,1,3.73,2.51a2.33,2.33,0,0,1-2.16,2.1,2.4,2.4,0,0,1,2.31,2.22c0,1.59-1.52,2.71-3.89,2.71A5.1,5.1,0,0,1,61,24.62Z"/></g><polygon class="cls-4" points="156.89 68.03 156.89 55.57 146.1 55.57 156.89 68.03"/><path class="cls-6" d="M154.24,73.31a2.56,2.56,0,0,1,2-3.15,2.8,2.8,0,0,1,3.32,2,2.56,2.56,0,0,1-2,3.17,2.83,2.83,0,0,1-3.33-2"/></svg>