<svg width="243.725" height="95.826" id="Layer_1" data-name="Layer 1" xmlns="http://www.w3.org/2000/svg" viewBox="0 0 234 84"><defs><style>.cls-1{fill:#676d81;}.cls-2{fill:#fff;}.cls-3{fill:#55bcbd;}.cls-4{fill:#002c46;}.cls-5{fill:#2d314e;}</style></defs><rect class="cls-1" x="61.77" y="27.93" width="77.81" height="25.8"/><path class="cls-2" d="M72.35,40.16c0-2.28,1.83-3.82,4.21-3.82a3.61,3.61,0,0,1,3.29,1.8l-1.44.67a2.15,2.15,0,0,0-1.85-1.08,2.43,2.43,0,1,0,0,4.86,2.15,2.15,0,0,0,1.85-1.08l1.44.66A3.64,3.64,0,0,1,76.56,44,3.9,3.9,0,0,1,72.35,40.16Z"/><path class="cls-2" d="M86.42,43.85l-.5-1.25H82.53L82,43.85H80.13l3-7.39h2.11l3,7.39ZM84.23,38,83,41.21h2.46Z"/><path class="cls-2" d="M93.62,43.85l-1.55-2.63H90.84v2.63H89.16V36.46h3.69a2.39,2.39,0,0,1,2.66,2.38A2.17,2.17,0,0,1,93.77,41l1.79,2.81Zm.17-5c0-.61-.51-1-1.18-1H90.84v2h1.77A1,1,0,0,0,93.79,38.83Z"/><path class="cls-2" d="M96.87,43.85V36.46H100c2.48,0,4.19,1.47,4.19,3.69s-1.71,3.7-4.18,3.7Zm5.59-3.7a2.23,2.23,0,0,0-2.47-2.3H98.55v4.61H100A2.3,2.3,0,0,0,102.46,40.15Z"/><path class="cls-2" d="M105.09,40.16A4.14,4.14,0,1,1,109.22,44,3.85,3.85,0,0,1,105.09,40.16Zm6.52,0a2.4,2.4,0,1,0-2.39,2.43A2.3,2.3,0,0,0,111.61,40.16Z"/><path class="cls-2" d="M114.08,42.81l.92-1.23a3.6,3.6,0,0,0,2.51,1c.94,0,1.38-.39,1.38-.82,0-1.29-4.55-.39-4.55-3.17,0-1.23,1.14-2.25,3-2.25a4.55,4.55,0,0,1,3.08,1l-.93,1.17a3.54,3.54,0,0,0-2.3-.8c-.71,0-1.11.28-1.11.73,0,1.16,4.53.37,4.53,3.13,0,1.35-1,2.37-3.16,2.37A4.7,4.7,0,0,1,114.08,42.81Z"/><path class="cls-2" d="M121.45,40.16A4.14,4.14,0,1,1,125.58,44,3.85,3.85,0,0,1,121.45,40.16Zm6.52,0a2.4,2.4,0,1,0-2.39,2.43A2.31,2.31,0,0,0,128,40.16Z"/><rect class="cls-3" x="134.27" y="27.93" width="35.23" height="25.8"/><path class="cls-4" d="M146.5,47h-2.85V37.25l-2.23,2.27-1.63-1.7L144,33.58h2.49Z"/><path class="cls-4" d="M154.29,47.21A5.07,5.07,0,0,1,150,45.28a8.07,8.07,0,0,1-1.44-5,7.35,7.35,0,0,1,1.66-5,6.38,6.38,0,0,1,8.53-.52L157.42,37a3.78,3.78,0,0,0-2.67-1A3,3,0,0,0,152.34,37a4,4,0,0,0-.94,2.7,1.06,1.06,0,0,0,0,.28,4,4,0,0,1,1.44-1.22,4.23,4.23,0,0,1,2-.5,4.78,4.78,0,0,1,3.24,1.15,4,4,0,0,1,1.34,3.2,4.26,4.26,0,0,1-1.44,3.3A5.29,5.29,0,0,1,154.29,47.21Zm-.16-2.53a2.44,2.44,0,0,0,1.73-.6,1.82,1.82,0,0,0,.66-1.37,1.71,1.71,0,0,0-.72-1.49,2.92,2.92,0,0,0-1.75-.51A3.19,3.19,0,0,0,151.42,42a3.35,3.35,0,0,0,.76,1.92A2.39,2.39,0,0,0,154.13,44.68Z"/><path class="cls-3" d="M99,27.93H61.83a.06.06,0,0,1-.06-.06V10.53a.06.06,0,0,1,.06-.06H99s.06,0,10.69.06V27.87C99.08,27.9,99.05,27.93,99,27.93Z"/><path class="cls-4" d="M71.45,24.1h-2.1V17.4L67.7,19l-1.2-1.17,3.11-2.92h1.84Z"/><path class="cls-4" d="M80.67,24.1H73.24V22.55a48.26,48.26,0,0,0,4.2-3.13,2.51,2.51,0,0,0,1-1.74,1,1,0,0,0-.47-.9,2,2,0,0,0-1.13-.31,3.66,3.66,0,0,0-2.65,1.07L73,16.24a4.31,4.31,0,0,1,1.71-1.13,5.73,5.73,0,0,1,2.09-.38,4.33,4.33,0,0,1,2.7.8,2.54,2.54,0,0,1,1.08,2.15,3.37,3.37,0,0,1-1,2.22,16.3,16.3,0,0,1-3,2.47h4Z"/><path class="cls-4" d="M91.48,24.1H89l-2.47-3.38L84,24.1H81.5l3.58-4.74-3.36-4.49h2.51L86.49,18l2.24-3.15h2.53L87.9,19.35Z"/><path class="cls-4" d="M96.66,24.1h-2.1V17.4L92.92,19l-1.2-1.17,3.11-2.92h1.83Z"/><path class="cls-4" d="M102.53,24.26a3.87,3.87,0,0,1-3.2-1.32,5.34,5.34,0,0,1-1.07-3.44A4.87,4.87,0,0,1,99.49,16a4.43,4.43,0,0,1,3.38-1.31,4.49,4.49,0,0,1,2.91.95l-.94,1.51a2.88,2.88,0,0,0-2-.72,2.29,2.29,0,0,0-1.78.76,2.64,2.64,0,0,0-.69,1.86,1,1,0,0,0,0,.19,2.91,2.91,0,0,1,1.07-.84,3.24,3.24,0,0,1,1.46-.35,3.67,3.67,0,0,1,2.39.8,2.66,2.66,0,0,1,1,2.2,2.86,2.86,0,0,1-1.06,2.27A4.08,4.08,0,0,1,102.53,24.26Zm-.12-1.74a1.88,1.88,0,0,0,1.28-.42,1.21,1.21,0,0,0,.48-.94,1.17,1.17,0,0,0-.52-1,2.36,2.36,0,0,0-1.3-.35,2.42,2.42,0,0,0-1.94.87A2.26,2.26,0,0,0,101,22,1.83,1.83,0,0,0,102.41,22.52Z"/><polygon class="cls-3" points="169.49 66.2 169.49 53.73 158.7 53.73 169.49 66.2"/><path class="cls-5" d="M166.84,71.47a2.56,2.56,0,0,1,2-3.15,2.81,2.81,0,0,1,3.32,2,2.55,2.55,0,0,1-2,3.16,2.83,2.83,0,0,1-3.33-2"/></svg>