<svg width="243.725" height="95.826" id="Layer_1" data-name="Layer 1" xmlns="http://www.w3.org/2000/svg" viewBox="0 0 234 84"><defs><style>.cls-1{fill:#2d314e;}.cls-2{fill:#55bcbd;}.cls-3{fill:#00ffda;}.cls-4{fill:#002c46;}.cls-5{fill:#676d81;}.cls-6{fill:#fff;}</style></defs><path class="cls-1" d="M71.64,81a2.56,2.56,0,0,1,2-3.15,2.81,2.81,0,0,1,3.32,2A2.55,2.55,0,0,1,75,83a2.82,2.82,0,0,1-3.33-2"/><path class="cls-2" d="M152.72,20h-30.2s0,0,0-.06V2.6a.06.06,0,0,1,0-.06h30.2s.05,0,8.69.06V20C152.77,20,152.75,20,152.72,20Z"/><path class="cls-3" d="M113.88,20H77.19s0-17.41,0-17.41,6.5-.06,6.52-.06h30.21s.05,0,8.68.06V20C113.93,20,113.9,20,113.88,20Z"/><path class="cls-4" d="M134.81,15.67a6.17,6.17,0,0,1-5.63,0A2.07,2.07,0,0,1,128,13.78a2,2,0,0,1,.59-1.43,3.53,3.53,0,0,1,1.53-.93c-1.31-.43-2-1.15-2-2.18a1.89,1.89,0,0,1,.59-1.4,3.19,3.19,0,0,1,1.41-.8,6.95,6.95,0,0,1,3.62,0,3.19,3.19,0,0,1,1.41.8,1.89,1.89,0,0,1,.59,1.4c0,1-.65,1.74-2,2.18a3.59,3.59,0,0,1,1.53.93,2.08,2.08,0,0,1-.57,3.32ZM132,14.6a2.6,2.6,0,0,0,1.3-.3.85.85,0,0,0-.06-1.6,3.83,3.83,0,0,0-1.24-.4,5.56,5.56,0,0,0-.76.18,2.39,2.39,0,0,0-.73.4.82.82,0,0,0-.35.63.92.92,0,0,0,.53.79A2.62,2.62,0,0,0,132,14.6Zm0-4a4.22,4.22,0,0,0,1.14-.36.79.79,0,0,0,.52-.71.83.83,0,0,0-.46-.75,2.37,2.37,0,0,0-1.2-.27,2.42,2.42,0,0,0-1.22.27.85.85,0,0,0-.46.75.81.81,0,0,0,.52.71A4.14,4.14,0,0,0,132,10.64Z"/><path class="cls-4" d="M146.55,16.18H144l-2.47-3.38-2.49,3.38h-2.51l3.59-4.74-3.36-4.5h2.5l2.27,3.16,2.23-3.16h2.54L143,11.43Z"/><path class="cls-4" d="M153.83,16.18h-2.11V14.27H147V12.72l3.92-5.78h2.91v5.6h1.27v1.73h-1.27Zm-2.11-3.64V8.69l-2.66,3.85Z"/><path d="M91,14.07H89.47L85.88,9.48v4.59H84.27V7h1.65l3.49,4.42V7H91Z"/><path d="M97.92,14.07H92.6V7h5.32V8.35H94.2V9.83h3.65v1.32H94.2v1.6h3.72Z"/><path d="M106.73,14.07H105l-1.32-4.83-1.31,4.83h-1.71L98.53,7h1.8l1.32,5.09L103.08,7h1.26l1.42,5.09L107.08,7h1.8Z"/><polygon class="cls-2" points="77.03 77 77.03 45.84 87.84 45.84 77.03 77"/><rect class="cls-2" x="77.03" y="20.01" width="35.26" height="25.83" transform="translate(189.32 65.85) rotate(-180)"/><rect class="cls-5" x="112.29" y="20.01" width="58.37" height="25.83" transform="translate(282.95 65.85) rotate(-180)"/><path class="cls-6" d="M120.84,36h-1.68V28.56h5.59v1.38h-3.91v1.55h3.83v1.39h-3.83Z"/><path class="cls-6" d="M133.39,36h-1.9L131,34.7H127.6L127.1,36h-1.91l3.05-7.39h2.11Zm-2.86-2.64-1.24-3.18-1.23,3.18Z"/><path class="cls-6" d="M138.07,36.08a4.34,4.34,0,0,1-3-1.07,3.74,3.74,0,0,1,0-5.51,4.38,4.38,0,0,1,3-1.06,3.58,3.58,0,0,1,3.29,1.8l-1.44.67a2.1,2.1,0,0,0-.77-.77,2,2,0,0,0-1.08-.31,2.46,2.46,0,0,0-1.79.69,2.51,2.51,0,0,0,0,3.48,2.46,2.46,0,0,0,1.79.69,2.21,2.21,0,0,0,1.85-1.08l1.44.65A3.58,3.58,0,0,1,138.07,36.08Z"/><path class="cls-6" d="M144.15,36h-1.69V28.56h1.69Z"/><path class="cls-6" d="M154.38,36h-1.7V30.62L150.45,36h-.73l-2.23-5.33V36h-1.68V28.56h2.36l1.92,4.62L152,28.56h2.37Z"/><path class="cls-6" d="M164.91,36H159V34.71a38.59,38.59,0,0,0,3.36-2.51,2,2,0,0,0,.82-1.39.82.82,0,0,0-.37-.72,1.67,1.67,0,0,0-.91-.25,2.92,2.92,0,0,0-2.12.86l-1-1.05a3.52,3.52,0,0,1,1.37-.9,4.78,4.78,0,0,1,1.67-.3,3.53,3.53,0,0,1,2.17.64,2,2,0,0,1,.86,1.72,2.71,2.71,0,0,1-.77,1.78,12.58,12.58,0,0,1-2.4,2h3.23Z"/><path class="cls-4" d="M89.89,39.07H87V29.35l-2.23,2.27-1.63-1.71,4.22-4.24h2.49Z"/><path class="cls-4" d="M98.15,39.07H95.29V29.35l-2.22,2.27-1.63-1.71,4.22-4.24h2.49Z"/></svg>