<svg width="243.725" height="95.826" id="Layer_1" data-name="Layer 1" xmlns="http://www.w3.org/2000/svg" viewBox="0 0 234 150"><defs><style>.cls-1{fill:#676d81;}.cls-2{fill:#fff;}.cls-3{fill:#55bcbd;}.cls-4{fill:#002c46;}.cls-5{fill:#aed9d0;}.cls-6{fill:#2d314e;}</style></defs><rect class="cls-1" x="53.02" y="31" width="78.42" height="26.01"/><path class="cls-2" d="M65.76,47.05h-1.7V39.6H69.7V41H65.76v1.56h3.86V44H65.76Z"/><path class="cls-2" d="M78.4,47.05H76.48L76,45.79H72.57l-.51,1.26H70.14l3.07-7.45h2.12Zm-2.89-2.66-1.24-3.2L73,44.39Z"/><path class="cls-2" d="M83.11,47.18a4.4,4.4,0,0,1-3-1.08,3.79,3.79,0,0,1,0-5.55,4.44,4.44,0,0,1,3-1.07,3.62,3.62,0,0,1,3.32,1.82L85,42a2.21,2.21,0,0,0-.77-.78,2.11,2.11,0,0,0-1.09-.3,2.47,2.47,0,0,0-1.8.69,2.51,2.51,0,0,0,0,3.5,2.47,2.47,0,0,0,1.8.69,2.11,2.11,0,0,0,1.09-.3,2.21,2.21,0,0,0,.77-.78l1.46.66A3.64,3.64,0,0,1,83.11,47.18Z"/><path class="cls-2" d="M89.23,47.05H87.54V39.6h1.69Z"/><path class="cls-2" d="M99.54,47.05H97.83V41.68l-2.25,5.37h-.74L92.6,41.68v5.37H90.9V39.6h2.38l1.93,4.66,1.94-4.66h2.39Z"/><path class="cls-2" d="M107,47.18a4.88,4.88,0,0,1-1.85-.33,3.35,3.35,0,0,1-1.29-.86l.9-1.06a2.88,2.88,0,0,0,1,.62,3.34,3.34,0,0,0,1.19.22,1.94,1.94,0,0,0,1.11-.26.77.77,0,0,0,.4-.68.71.71,0,0,0-.38-.66,2.87,2.87,0,0,0-1.22-.2c-.5,0-.83,0-1,0V42.56h1c1,0,1.48-.26,1.48-.79a.71.71,0,0,0-.42-.65,2.11,2.11,0,0,0-1.06-.23,2.91,2.91,0,0,0-2,.77l-.85-1a4,4,0,0,1,3-1.18,3.84,3.84,0,0,1,2.21.55,1.69,1.69,0,0,1,.8,1.47,1.43,1.43,0,0,1-.51,1.12,2.43,2.43,0,0,1-1.23.58,2.25,2.25,0,0,1,1.28.54A1.51,1.51,0,0,1,110.1,45a1.83,1.83,0,0,1-.86,1.58A3.82,3.82,0,0,1,107,47.18Z"/><rect class="cls-3" x="126.1" y="31" width="35.51" height="26.01"/><path class="cls-4" d="M138.43,50.19h-2.88V40.4l-2.24,2.29L131.67,41l4.25-4.26h2.51Z"/><path class="cls-4" d="M149.59,50.19h-2.87V47.4h-6.45V45.13l5.36-8.43h4v8.17h1.74V47.4h-1.74Zm-2.87-5.32V39.25l-3.64,5.62Z"/><path class="cls-3" d="M90.57,31H53.08a.06.06,0,0,1-.06-.06V13.46a.06.06,0,0,1,.06-.06H90.57s-2.07,0,8.65.06V30.94C88.5,31,90.6,31,90.57,31Z"/><path class="cls-5" d="M136.58,31H99.1a.06.06,0,0,1-.06-.06V13.46a.06.06,0,0,1,.06-.06h37.48l29.27.06V30.94Z"/><path class="cls-4" d="M63.7,27.14H56.2V25.58a46.09,46.09,0,0,0,4.24-3.16,2.53,2.53,0,0,0,1-1.76,1,1,0,0,0-.47-.9,2.06,2.06,0,0,0-1.14-.31,3.71,3.71,0,0,0-2.67,1.07L56,19.21a4.41,4.41,0,0,1,1.72-1.13,5.9,5.9,0,0,1,2.12-.39,4.41,4.41,0,0,1,2.72.81,2.57,2.57,0,0,1,1.08,2.16,3.38,3.38,0,0,1-1,2.24,16.24,16.24,0,0,1-3,2.49H63.7Z"/><path class="cls-4" d="M69.14,27.31a5.12,5.12,0,0,1-3.83-1.4l1.18-1.38a3.6,3.6,0,0,0,2.64,1,2.13,2.13,0,0,0,1.35-.4,1.26,1.26,0,0,0,0-2,2.06,2.06,0,0,0-1.31-.38,3.05,3.05,0,0,0-2.09.76l-1.48-.38V17.83h6.84v1.75H67.74v2.27a3.09,3.09,0,0,1,2.19-.78,3.32,3.32,0,0,1,2.27.82,2.78,2.78,0,0,1,.93,2.19A2.89,2.89,0,0,1,72,26.43,4.52,4.52,0,0,1,69.14,27.31Z"/><path class="cls-4" d="M83.78,27.14H81.25l-2.5-3.41-2.5,3.41H73.72l3.62-4.77L74,17.83h2.52L78.75,21,81,17.83h2.55l-3.39,4.52Z"/><path class="cls-4" d="M88.43,27.31a5.13,5.13,0,0,1-3.84-1.4l1.18-1.38a3.62,3.62,0,0,0,2.64,1,2.13,2.13,0,0,0,1.35-.4,1.26,1.26,0,0,0,0-2,2.06,2.06,0,0,0-1.31-.38,3.05,3.05,0,0,0-2.09.76l-1.48-.38V17.83h6.84v1.75H87v2.27a3.1,3.1,0,0,1,2.2-.78,3.29,3.29,0,0,1,2.26.82,2.78,2.78,0,0,1,.93,2.19,2.86,2.86,0,0,1-1.09,2.35A4.51,4.51,0,0,1,88.43,27.31Z"/><path d="M107.88,26,108.7,25a3.69,3.69,0,0,0,2.63,1.09c1.19,0,1.65-.55,1.65-1.07,0-1.63-4.83-.62-4.83-3.47,0-1.3,1.2-2.29,3-2.29a4.47,4.47,0,0,1,3.1,1.1l-.82,1a3.51,3.51,0,0,0-2.42-.89c-.85,0-1.39.39-1.39,1,0,1.46,4.83.56,4.83,3.45,0,1.29-1,2.41-3.22,2.41A4.65,4.65,0,0,1,107.88,26Z"/><path d="M115.55,23.26a4.25,4.25,0,1,1,4.24,4A4,4,0,0,1,115.55,23.26Zm7,0a2.76,2.76,0,1,0-5.51,0,2.76,2.76,0,1,0,5.51,0Z"/><path d="M125.18,23.26a4.25,4.25,0,1,1,4.24,4A4,4,0,0,1,125.18,23.26Zm7,0a2.75,2.75,0,1,0-5.5,0,2.75,2.75,0,1,0,5.5,0Z"/><path d="M141,27.14l-4.34-5.56v5.56h-1.45V19.37h1.49l4.25,5.38V19.37h1.45v7.77Z"/><polygon class="cls-3" points="164.44 110.51 161.6 57.01 150.72 57.01 164.44 110.51"/><path class="cls-6" d="M161.22,111.93a2.58,2.58,0,0,1,2-3.18,2.85,2.85,0,0,1,3.35,2,2.57,2.57,0,0,1-2,3.18,2.84,2.84,0,0,1-3.35-2"/></svg>