<svg width="220" height="80" id="Layer_1" data-name="Layer 1" xmlns="http://www.w3.org/2000/svg" viewBox="0 0 234 84"><defs><style>.cls-1{fill:#2d314e;}.cls-2{fill:#55bcbd;}.cls-3{fill:#676d81;}.cls-4{fill:#fff;}.cls-5{fill:#002c46;}.cls-6{fill:#00ffda;}</style></defs><path class="cls-1" d="M15,70.27a3.54,3.54,0,0,1,2.73-4.35,3.89,3.89,0,0,1,4.58,2.73A3.53,3.53,0,0,1,19.55,73,3.89,3.89,0,0,1,15,70.27"/><polygon class="cls-2" points="25.76 69.71 42.95 69.71 42.95 54.82 25.76 69.71"/><rect class="cls-2" x="42.95" y="34.12" width="48.58" height="35.59" transform="translate(134.48 103.83) rotate(-180)"/><rect class="cls-3" x="91.53" y="34.12" width="75.33" height="35.59" transform="translate(258.39 103.83) rotate(-180)"/><path class="cls-4" d="M101.1,56H98.78V45.82h7.71v1.91H101.1v2.14h5.28v1.9H101.1Z"/><path class="cls-4" d="M118.4,56h-2.63l-.69-1.72h-4.67L109.73,56H107.1l4.19-10.18h2.91Zm-4-3.63L112.75,48l-1.7,4.38Z"/><path class="cls-4" d="M124.84,56.19a6,6,0,0,1-4.16-1.48,5.17,5.17,0,0,1,0-7.59,6,6,0,0,1,4.16-1.47,4.94,4.94,0,0,1,4.54,2.49l-2,.92a3,3,0,0,0-2.55-1.48,3.39,3.39,0,0,0-2.46.94,3.45,3.45,0,0,0,0,4.8,3.39,3.39,0,0,0,2.46.94,3,3,0,0,0,2.55-1.48l2,.9A5,5,0,0,1,124.84,56.19Z"/><path class="cls-4" d="M133.22,56H130.9V45.82h2.32Z"/><path class="cls-4" d="M147.32,56H145V48.66L141.91,56h-1l-3.07-7.34V56H135.5V45.82h3.26l2.64,6.37,2.65-6.37h3.27Z"/><path class="cls-4" d="M158.49,56h-2.32V48.61l-1.81,1.73L153,49l3.43-3.22h2Z"/><path class="cls-5" d="M60.58,60.31H56.65V46.91L53.58,50l-2.25-2.35,5.82-5.84h3.43Z"/><path class="cls-5" d="M75.29,59.21a7.2,7.2,0,0,1-8.61,0,8,8,0,0,1-2.56-3.53,14.1,14.1,0,0,1,0-9.19A7.9,7.9,0,0,1,66.68,43a7.24,7.24,0,0,1,8.61,0,7.92,7.92,0,0,1,2.57,3.51,14.1,14.1,0,0,1,0,9.19A8,8,0,0,1,75.29,59.21Zm-7.06-3.72a3.12,3.12,0,0,0,5.51,0,9.4,9.4,0,0,0,.88-4.4,9.23,9.23,0,0,0-.88-4.4,3.13,3.13,0,0,0-5.51,0,9.43,9.43,0,0,0-.87,4.39A9.53,9.53,0,0,0,68.23,55.49Z"/><rect class="cls-2" x="91.53" y="10.05" width="62.19" height="24.07" rx="0.03"/><path class="cls-6" d="M91.5,34.12s-48.65,0-48.65-.09V10.14c0-.05,48.65-.09,48.65-.09a.09.09,0,0,1,.09.09V34A.09.09,0,0,1,91.5,34.12Z"/><path class="cls-5" d="M108.07,28.76H97.82V26.63a67.37,67.37,0,0,0,5.8-4.32,3.47,3.47,0,0,0,1.41-2.4,1.38,1.38,0,0,0-.65-1.23,2.72,2.72,0,0,0-1.56-.43,5,5,0,0,0-3.65,1.47l-1.66-1.8a6.19,6.19,0,0,1,2.36-1.55,8.13,8.13,0,0,1,2.89-.53A6.05,6.05,0,0,1,106.49,17a3.52,3.52,0,0,1,1.48,3A4.63,4.63,0,0,1,106.65,23a22.13,22.13,0,0,1-4.14,3.41h5.56Z"/><path class="cls-5" d="M115.52,29a7,7,0,0,1-5.25-1.9l1.62-1.89a5,5,0,0,0,3.61,1.39,2.85,2.85,0,0,0,1.85-.55A1.66,1.66,0,0,0,118,24.7a1.7,1.7,0,0,0-.65-1.38,2.87,2.87,0,0,0-1.8-.51,4.15,4.15,0,0,0-2.86,1l-2-.52V16h9.35v2.39H113.6v3.11a4.22,4.22,0,0,1,3-1.07,4.54,4.54,0,0,1,3.1,1.13,3.79,3.79,0,0,1,1.27,3,3.89,3.89,0,0,1-1.49,3.21A6.11,6.11,0,0,1,115.52,29Z"/><path class="cls-5" d="M135.55,28.76h-3.47l-3.41-4.65-3.43,4.65h-3.45l4.94-6.52L122.1,16h3.45l3.12,4.35L131.76,16h3.49l-4.64,6.19Z"/><path class="cls-5" d="M141.9,29a7,7,0,0,1-5.24-1.9l1.61-1.89a5,5,0,0,0,3.61,1.39,2.83,2.83,0,0,0,1.85-.55,1.65,1.65,0,0,0,.69-1.34,1.68,1.68,0,0,0-.66-1.38,2.83,2.83,0,0,0-1.8-.51,4.11,4.11,0,0,0-2.85,1l-2-.52V16h9.36v2.39H140v3.11a4.26,4.26,0,0,1,3-1.07,4.51,4.51,0,0,1,3.09,1.13,3.8,3.8,0,0,1,1.28,3,3.92,3.92,0,0,1-1.49,3.21A6.16,6.16,0,0,1,141.9,29Z"/><path d="M54.64,27.8H52.51l-4.94-6.33V27.8H45.36V18.1h2.27l4.81,6.09V18.1h2.2Z"/><path d="M64.17,27.8H56.82V18.1h7.35v1.81H59v2h5v1.82H59V26h5.14Z"/><path d="M76.3,27.8H74l-1.82-6.66-1.8,6.66H68l-3-9.7h2.47l1.82,7,2-7H73l2,7,1.82-7h2.48Z"/></svg>