<svg width="243.725" height="95.826" id="Layer_1" data-name="Layer 1" xmlns="http://www.w3.org/2000/svg" viewBox="0 0 234 116"><defs><style>.cls-1{fill:#2d314e;}.cls-2{fill:#55bcbd;}.cls-3{fill:#00ffda;}.cls-4{fill:#002c46;}.cls-5{fill:#676d81;}.cls-6{fill:#fff;}.cls-7{fill:#aed9d0;}</style></defs><path class="cls-1" d="M161.07,43a2.57,2.57,0,0,1,2-3.18,2.85,2.85,0,0,1,3.36,2,2.59,2.59,0,0,1-2,3.19,2.85,2.85,0,0,1-3.36-2"/><rect class="cls-2" x="68.69" y="84.36" width="43.06" height="17.63" rx="0.03"/><rect class="cls-3" x="111.72" y="84.36" width="43.06" height="17.63" rx="0.03"/><path class="cls-4" d="M83.84,97.61a6.27,6.27,0,0,1-5.68,0A2.1,2.1,0,0,1,77,95.71a2,2,0,0,1,.6-1.45,3.6,3.6,0,0,1,1.54-1c-1.32-.42-2-1.16-2-2.19a1.86,1.86,0,0,1,.59-1.41,3.34,3.34,0,0,1,1.42-.81A6.64,6.64,0,0,1,81,88.66a6.57,6.57,0,0,1,1.82.24,3.32,3.32,0,0,1,1.43.81,1.89,1.89,0,0,1,.59,1.41c0,1-.66,1.76-2,2.19a3.6,3.6,0,0,1,1.54,1,2,2,0,0,1,.6,1.45A2.1,2.1,0,0,1,83.84,97.61ZM81,96.53a2.52,2.52,0,0,0,1.31-.31.9.9,0,0,0,.54-.8.93.93,0,0,0-.6-.81,3.65,3.65,0,0,0-1.25-.4,5.56,5.56,0,0,0-.76.18,2.17,2.17,0,0,0-.74.41.78.78,0,0,0-.36.62.9.9,0,0,0,.54.8A2.53,2.53,0,0,0,81,96.53Zm0-4a3.6,3.6,0,0,0,1.15-.36.8.8,0,0,0,.52-.71.86.86,0,0,0-.46-.77A2.38,2.38,0,0,0,81,90.42a2.44,2.44,0,0,0-1.23.27.86.86,0,0,0-.46.77.8.8,0,0,0,.52.71A3.64,3.64,0,0,0,81,92.53Z"/><path class="cls-4" d="M95.68,98.12H93.14l-2.5-3.41-2.51,3.41H85.6l3.62-4.78L85.83,88.8h2.53L90.64,92,92.9,88.8h2.56l-3.4,4.53Z"/><path class="cls-4" d="M103,98.12H100.9V96.19H96.13V94.63l4-5.83H103v5.65h1.28v1.74H103Zm-2.13-3.67V90.56l-2.69,3.89Z"/><path d="M123.26,98.12H121.7l-3.62-4.63v4.63h-1.62V91h1.66l3.52,4.46V91h1.62Z"/><path d="M130.23,98.12h-5.37V91h5.37v1.33h-3.76v1.49h3.68v1.33h-3.68v1.62h3.76Z"/><path d="M139.12,98.12H137.4l-1.33-4.87-1.33,4.87H133L130.85,91h1.81L134,96.15,135.44,91h1.26l1.44,5.13L139.47,91h1.81Z"/><rect class="cls-5" x="68.69" y="58.3" width="77.14" height="26.06" transform="translate(214.52 142.66) rotate(-180)"/><rect class="cls-2" x="126.04" y="58.3" width="35.58" height="26.06" transform="translate(287.65 142.66) rotate(-180)"/><path class="cls-4" d="M138.2,77.76h-2.88V68l-2.25,2.29-1.64-1.72,4.26-4.28h2.51Z"/><path class="cls-4" d="M150.67,77.76H140.49V75.49a67.15,67.15,0,0,0,5.76-4.58,3.79,3.79,0,0,0,1.4-2.56,1.49,1.49,0,0,0-.64-1.3,2.56,2.56,0,0,0-1.55-.46,4.85,4.85,0,0,0-3.63,1.56l-1.64-1.9a6.06,6.06,0,0,1,2.34-1.66A7.67,7.67,0,0,1,145.4,64a5.77,5.77,0,0,1,3.7,1.17,3.82,3.82,0,0,1,1.47,3.14,5.12,5.12,0,0,1-1.31,3.26,22.26,22.26,0,0,1-4.11,3.62h5.52Z"/><polygon class="cls-2" points="161.61 46.46 149.56 58.92 161.61 59.47 161.61 46.46"/><path class="cls-6" d="M76.94,74.38l-1.57-2.65H74.13v2.65h-1.7V66.92h3.73a2.43,2.43,0,0,1,2.69,2.41,2.18,2.18,0,0,1-1.76,2.21l1.81,2.84Zm.17-5.06a1.06,1.06,0,0,0-1.19-1H74.13v2h1.79A1.06,1.06,0,0,0,77.11,69.32Z"/><path class="cls-6" d="M80.22,74.38V66.92h5.64v1.4H81.92v1.57h3.86v1.39H81.92V73h3.94v1.4Z"/><path class="cls-6" d="M87.29,74.38V66.92H91a2.41,2.41,0,1,1,0,4.8H89v2.66Zm4.67-5a1,1,0,0,0-1.18-1H89v2h1.79A1,1,0,0,0,92,69.33Z"/><path class="cls-6" d="M94.86,74.38V66.92h1.7v7.46Z"/><path class="cls-6" d="M103.73,74.38l-3.8-4.86v4.86h-1.7V66.92H100l3.69,4.69V66.92h1.7v7.46Z"/><path class="cls-6" d="M106.67,70.66c0-2.36,1.91-3.86,4.26-3.86a3.75,3.75,0,0,1,3.28,1.67l-1.39.71a2.37,2.37,0,0,0-1.89-1,2.45,2.45,0,1,0,0,4.9,2.75,2.75,0,0,0,1.68-.57v-.9h-2.1V70.26h3.8v2.86a4.54,4.54,0,0,1-3.38,1.4C108.58,74.52,106.67,73,106.67,70.66Z"/><path class="cls-6" d="M121.27,74.38l-.5-1.26h-3.42l-.5,1.26h-1.93L118,66.92h2.12l3.08,7.46Zm-2.21-5.87-1.24,3.21h2.48Z"/><rect class="cls-2" x="17" y="36.33" width="43.06" height="17.63" rx="0.03"/><path class="cls-7" d="M103,54H60.09a.06.06,0,0,1-.06-.06V36.39a.06.06,0,0,1,.06-.06H103s26.49,0,26.49.06v17.5S103.06,54,103,54Z"/><path class="cls-4" d="M29.41,50.09h-7.5V48.52a46.09,46.09,0,0,0,4.24-3.16,2.55,2.55,0,0,0,1-1.76,1,1,0,0,0-.48-.9,2,2,0,0,0-1.14-.32,3.7,3.7,0,0,0-2.68,1.08l-1.21-1.31A4.36,4.36,0,0,1,23.41,41a5.9,5.9,0,0,1,2.12-.39,4.41,4.41,0,0,1,2.72.81,2.58,2.58,0,0,1,1.09,2.17,3.34,3.34,0,0,1-1,2.24,15.84,15.84,0,0,1-3,2.5h4.06Z"/><path class="cls-4" d="M34.87,50.26A5.16,5.16,0,0,1,31,48.86l1.18-1.39a3.64,3.64,0,0,0,2.65,1,2.15,2.15,0,0,0,1.35-.39,1.24,1.24,0,0,0,.5-1,1.22,1.22,0,0,0-.48-1,2.08,2.08,0,0,0-1.31-.37,3.07,3.07,0,0,0-2.1.75l-1.48-.38V40.76h6.85v1.75H33.47v2.28A3.07,3.07,0,0,1,35.66,44a3.3,3.3,0,0,1,2.27.82,2.79,2.79,0,0,1,.93,2.2,2.84,2.84,0,0,1-1.09,2.34A4.46,4.46,0,0,1,34.87,50.26Z"/><path class="cls-4" d="M49.54,50.09H47l-2.5-3.41L42,50.09H39.46l3.62-4.78-3.39-4.55h2.52L44.5,44l2.26-3.19h2.56l-3.4,4.53Z"/><path class="cls-4" d="M54.19,50.26a5.16,5.16,0,0,1-3.84-1.4l1.18-1.39a3.64,3.64,0,0,0,2.65,1,2.13,2.13,0,0,0,1.35-.39,1.24,1.24,0,0,0,.5-1,1.22,1.22,0,0,0-.48-1,2.08,2.08,0,0,0-1.31-.37,3.07,3.07,0,0,0-2.1.75l-1.48-.38V40.76h6.85v1.75H52.79v2.28A3.07,3.07,0,0,1,55,44a3.3,3.3,0,0,1,2.27.82,2.79,2.79,0,0,1,.93,2.2,2.84,2.84,0,0,1-1.09,2.34A4.44,4.44,0,0,1,54.19,50.26Z"/><path d="M67.94,49l.82-1.06A3.73,3.73,0,0,0,71.4,49c1.2,0,1.66-.55,1.66-1.07,0-1.63-4.84-.62-4.84-3.48,0-1.29,1.19-2.29,3-2.29a4.5,4.5,0,0,1,3.11,1.1l-.83,1a3.5,3.5,0,0,0-2.42-.9c-.85,0-1.4.39-1.4,1,0,1.45,4.85.56,4.85,3.45,0,1.3-1,2.42-3.22,2.42A4.74,4.74,0,0,1,67.94,49Z"/><path d="M75.63,46.2a4.26,4.26,0,1,1,4.25,4A4,4,0,0,1,75.63,46.2Zm7,0A2.76,2.76,0,1,0,79.88,49,2.66,2.66,0,0,0,82.64,46.2Z"/><path d="M85.27,46.2a4.27,4.27,0,1,1,4.26,4A4,4,0,0,1,85.27,46.2Zm7,0A2.76,2.76,0,1,0,89.53,49,2.66,2.66,0,0,0,92.29,46.2Z"/><path d="M101.09,50.09l-4.35-5.57v5.57H95.28V42.3h1.5L101,47.69V42.3h1.46v7.79Z"/><rect class="cls-5" x="17" y="10.27" width="77.14" height="26.06" transform="translate(111.14 46.6) rotate(-180)"/><rect class="cls-2" x="74.35" y="10.27" width="35.58" height="26.06" transform="translate(184.27 46.6) rotate(-180)"/><path class="cls-4" d="M86.51,29.73H83.63V19.92l-2.25,2.29-1.64-1.72L84,16.21h2.51Z"/><path class="cls-4" d="M94.05,30a6.72,6.72,0,0,1-5.21-2l1.6-2A4.75,4.75,0,0,0,94,27.42a2.74,2.74,0,0,0,1.84-.58,1.79,1.79,0,0,0,.67-1.43A1.82,1.82,0,0,0,95.9,24a2.73,2.73,0,0,0-1.79-.55,4,4,0,0,0-2.84,1.1l-2-.55V16.21h9.28v2.53h-6.4v3.31a4,4,0,0,1,3-1.14,4.31,4.31,0,0,1,3.07,1.2,4.17,4.17,0,0,1,1.26,3.18A4.28,4.28,0,0,1,98,28.7,5.79,5.79,0,0,1,94.05,30Z"/><polygon class="cls-2" points="161.87 41.14 110.1 10.32 109.55 22.37 161.87 41.14"/><path class="cls-6" d="M24.84,26.35h-1.7V18.89h5.65v1.4H24.84v1.56h3.87v1.4H24.84Z"/><path class="cls-6" d="M37.51,26.35H35.59l-.51-1.26H31.66l-.5,1.26H29.23l3.08-7.46h2.13Zm-2.89-2.66-1.25-3.21-1.24,3.21Z"/><path class="cls-6" d="M42.23,26.48a4.45,4.45,0,0,1-3-1.07,3.81,3.81,0,0,1,0-5.57,4.45,4.45,0,0,1,3-1.07,3.61,3.61,0,0,1,3.32,1.82l-1.46.67a2.13,2.13,0,0,0-.77-.78,2.11,2.11,0,0,0-1.09-.3,2.51,2.51,0,0,0-1.81.69,2.52,2.52,0,0,0,0,3.51,2.51,2.51,0,0,0,1.81.7A2.19,2.19,0,0,0,44.09,24l1.46.66A3.64,3.64,0,0,1,42.23,26.48Z"/><path class="cls-6" d="M48.36,26.35h-1.7V18.89h1.7Z"/><path class="cls-6" d="M58.69,26.35H57V21l-2.25,5.38H54L51.74,21v5.38H50V18.89h2.38l1.94,4.66,1.93-4.66h2.4Z"/><path class="cls-6" d="M68.56,26.35h-1.7V24.81H63V23.55l3.17-4.66h2.35v4.52h1v1.4h-1Zm-1.7-2.94V20.3L64.7,23.41Z"/></svg>