<svg width="243.725" height="95.826" id="Layer_1" data-name="Layer 1" xmlns="http://www.w3.org/2000/svg" xmlns:xlink="http://www.w3.org/1999/xlink" viewBox="0 0 234 84"><defs><style>.cls-1{fill:none;}.cls-2{fill:#676d81;}.cls-3{fill:#fff;}.cls-4{fill:#e2c620;}.cls-5{clip-path:url(#clip-path);}.cls-6{fill:#2d314e;}</style><clipPath id="clip-path"><rect class="cls-1" x="53.68" y="19.22" width="28.25" height="10.87"/></clipPath></defs><rect class="cls-1" x="46.01" y="-7.84" width="116.99" height="78.75"/><rect class="cls-1" x="46.01" y="-7.84" width="116.99" height="78.76"/><rect class="cls-2" x="44.87" y="33.64" width="59.74" height="26.59"/><path class="cls-3" d="M59,50.05V42.44h5.76v1.43h-4v1.59h3.94v1.43H60.74v3.16Z"/><path class="cls-3" d="M66.07,50.05V42.44h3.81a2.47,2.47,0,1,1,0,4.9H67.81v2.71Zm4.78-5.16a1.07,1.07,0,0,0-1.21-1H67.81v2h1.83A1.08,1.08,0,0,0,70.85,44.89Z"/><path class="cls-3" d="M73.73,50.05V42.44h1.74v6.19h3.44v1.42Z"/><path class="cls-3" d="M87.26,50.05V44.56L85,50.05h-.76l-2.29-5.49v5.49H80.18V42.44h2.43l2,4.76,2-4.76H89v7.61Z"/><rect class="cls-4" x="104.61" y="33.64" width="36.3" height="26.59"/><path class="cls-3" d="M116.3,53.27v-10L114,45.59l-1.68-1.76,4.35-4.36h2.57v13.8Z"/><path class="cls-3" d="M122,52.07l1.31-2.26A3.63,3.63,0,0,0,126,50.89c2.28,0,3.46-1.93,3.46-3.89v-.31a4.58,4.58,0,0,1-3.56,1.78,4.38,4.38,0,0,1-4.7-4.49c0-2.69,2.13-4.74,5.28-4.74,4.2,0,6,3.23,6,7.12,0,4.18-2.35,7.14-6.43,7.14A6,6,0,0,1,122,52.07Zm7.49-7.43a2.75,2.75,0,0,0-2.79-2.79,2.23,2.23,0,0,0-2.46,2c0,1.45,1.26,2.07,2.54,2.07A3.44,3.44,0,0,0,129.47,44.64Z"/><rect class="cls-4" x="44.87" y="15.66" width="45.86" height="17.98" rx="0.03"/><g class="cls-5"><path class="cls-3" d="M58.57,29.7v-2H53.7v-1.6l4-5.95h3V26H62v1.78H60.73v2Zm0-7.72-2.75,4h2.75Z"/><path class="cls-3" d="M70.19,29.7l-2.55-3.48L65.08,29.7H62.5l3.69-4.88-3.46-4.64h2.58l2.33,3.26L70,20.18h2.61L69.09,24.8l3.7,4.9Z"/><path class="cls-3" d="M73.38,25c0-2.88,1.74-4.92,4.75-4.92a4.69,4.69,0,0,1,3,1l-1,1.56a2.78,2.78,0,0,0-2-.74,2.55,2.55,0,0,0-2.55,2.69,1.34,1.34,0,0,0,0,.2,3.41,3.41,0,0,1,2.61-1.22c1.83,0,3.48,1.07,3.48,3.09,0,1.86-1.59,3.27-3.91,3.27C74.68,29.87,73.38,27.64,73.38,25Zm6.09,1.71c0-1-.92-1.42-1.88-1.42a2.66,2.66,0,0,0-2,.9,2,2,0,0,0,2.06,1.92C78.83,28.07,79.47,27.33,79.47,26.67Z"/></g><polygon class="cls-4" points="140.91 73.08 140.91 60.23 129.78 60.23 140.91 73.08"/><path class="cls-6" d="M138.17,78.51a2.65,2.65,0,0,1,2-3.25,2.9,2.9,0,0,1,3.42,2,2.63,2.63,0,0,1-2,3.26,2.91,2.91,0,0,1-3.43-2"/></svg>