<svg width="243.725" height="95.826" id="Layer_1" data-name="Layer 1" xmlns="http://www.w3.org/2000/svg" viewBox="0 0 234 84"><defs><style>.cls-1{fill:#2d314e;}.cls-2{fill:#676d81;}.cls-3{fill:#ee3d64;}.cls-4{fill:#fff;}</style></defs><path class="cls-1" d="M74.79,13a2.65,2.65,0,0,1,2-3.25,2.92,2.92,0,0,1,3.43,2,2.64,2.64,0,0,1-2,3.25,2.9,2.9,0,0,1-3.43-2"/><rect class="cls-2" x="94.76" y="28.24" width="77.16" height="26.55"/><rect class="cls-3" x="78.68" y="28.24" width="36.25" height="26.55"/><polygon class="cls-3" points="78.68 16.17 90.95 28.88 78.68 29.43 78.68 16.17"/><path class="cls-4" d="M133.35,44l.76-1.23a1.92,1.92,0,0,0,1.29.54,1.17,1.17,0,0,0,1.27-1.22V37h1.74v5.11c0,1.79-1.2,2.63-2.86,2.63A3.22,3.22,0,0,1,133.35,44Z"/><path class="cls-4" d="M145.71,44.62l-3.87-5v5h-1.73V37h1.78l3.76,4.78V37h1.73v7.6Z"/><path class="cls-4" d="M93.81,47a5.39,5.39,0,0,1-6.42,0,5.89,5.89,0,0,1-1.91-2.64,10.43,10.43,0,0,1,0-6.86,5.84,5.84,0,0,1,1.91-2.62,5.43,5.43,0,0,1,6.42,0,5.84,5.84,0,0,1,1.91,2.62,10.43,10.43,0,0,1,0,6.86A5.89,5.89,0,0,1,93.81,47Zm-5.27-2.78a2.19,2.19,0,0,0,2.06,1.24,2.16,2.16,0,0,0,2.05-1.24A7,7,0,0,0,93.3,41a6.92,6.92,0,0,0-.65-3.28,2.34,2.34,0,0,0-4.11,0A7.06,7.06,0,0,0,87.89,41,7.15,7.15,0,0,0,88.54,44.24Z"/><path class="cls-4" d="M102.72,47.83H99.5l4.94-11.19H97.5V34.05h10.35V36.1Z"/><rect class="cls-3" x="128.04" y="54.79" width="43.87" height="17.96" rx="0.03"/><path class="cls-4" d="M137.66,68.81h-2.17V61.92l-1.69,1.61-1.23-1.21,3.2-3h1.89Z"/><path class="cls-4" d="M147.15,68.81H139.5V67.22A53.59,53.59,0,0,0,143.83,64a2.62,2.62,0,0,0,1-1.8,1,1,0,0,0-.48-.92,2.09,2.09,0,0,0-1.17-.32,3.81,3.81,0,0,0-2.73,1.1l-1.23-1.34A4.55,4.55,0,0,1,141,59.56a6.16,6.16,0,0,1,2.16-.39A4.54,4.54,0,0,1,146,60a2.64,2.64,0,0,1,1.1,2.21,3.49,3.49,0,0,1-1,2.29A16.74,16.74,0,0,1,143,67h4.15Z"/><path class="cls-4" d="M158.27,68.81h-2.59l-2.54-3.47-2.56,3.47H148l3.69-4.87-3.46-4.63h2.57l2.34,3.25,2.3-3.25H158l-3.46,4.62Z"/><path class="cls-4" d="M165.75,68.81h-2.16v-2h-4.86v-1.6l4-5.94h3v5.75h1.31v1.79h-1.31Zm-2.16-3.75v-4l-2.75,4Z"/></svg>