<svg id="Layer_1" data-name="Layer 1" xmlns="http://www.w3.org/2000/svg" viewBox="0 0 234 84"><defs><style>.cls-1{fill:#2d314e;}.cls-2{fill:#ee3d64;}.cls-3{fill:#676d81;}.cls-4{fill:#fff;}.cls-5{fill:#ffe5ed;}</style></defs><path class="cls-1" d="M61.29,13.07a2.32,2.32,0,0,1,1.79-2.86,2.56,2.56,0,0,1,3,1.8,2.31,2.31,0,0,1-1.79,2.86,2.55,2.55,0,0,1-3-1.8"/><polygon class="cls-2" points="64.73 14.77 64.73 26.08 74.52 26.08 64.73 14.77"/><rect class="cls-3" x="96.75" y="25.79" width="73.76" height="23.41"/><path class="cls-4" d="M108.07,40.24V35.41l-2,4.83h-.67l-2-4.83v4.83h-1.52v-6.7H104l1.74,4.19,1.75-4.19h2.14v6.7Z"/><path class="cls-4" d="M116.06,40.24l-.45-1.13h-3.07l-.45,1.13h-1.73l2.76-6.7H115l2.76,6.7Zm-2-5.27L113,37.85h2.23Z"/><path class="cls-4" d="M122.6,40.24l-1.41-2.38h-1.11v2.38h-1.53v-6.7h3.35a2.18,2.18,0,0,1,2.42,2.16,2,2,0,0,1-1.58,2l1.62,2.55Zm.15-4.55a.94.94,0,0,0-1.06-.89h-1.61v1.81h1.61A1,1,0,0,0,122.75,35.69Z"/><path class="cls-4" d="M125.2,36.9A3.54,3.54,0,0,1,129,33.43a3.41,3.41,0,0,1,2.95,1.5l-1.25.64a2.12,2.12,0,0,0-1.7-.87,2.2,2.2,0,1,0,0,4.4,2.49,2.49,0,0,0,1.51-.52v-.8h-1.89V36.54h3.42v2.57a4.09,4.09,0,0,1-3,1.25A3.54,3.54,0,0,1,125.2,36.9Z"/><path class="cls-4" d="M133.37,40.24v-6.7h1.53v6.7Z"/><path class="cls-4" d="M141.34,40.24l-3.41-4.37v4.37H136.4v-6.7H138l3.32,4.21V33.54h1.53v6.7Z"/><path class="cls-4" d="M149.28,40.24l-.45-1.13h-3.08l-.45,1.13h-1.73l2.76-6.7h1.92l2.76,6.7Zm-2-5.27-1.12,2.88h2.24Z"/><path class="cls-4" d="M151.7,40.24v-6.7h1.53V39h3v1.25Z"/><path class="cls-4" d="M165.18,40.24l-.45-1.13h-3.07l-.45,1.13h-1.73l2.76-6.7h1.91l2.76,6.7Zm-2-5.27-1.12,2.88h2.23Z"/><rect class="cls-2" x="64.78" y="25.79" width="31.96" height="23.41"/><path class="cls-4" d="M70.24,37c0-3.14,1.55-6.27,5-6.27s5,3.13,5,6.27-1.55,6.28-5,6.28S70.24,40.14,70.24,37Zm7.42,0c0-2.25-.64-4-2.39-4s-2.38,1.73-2.38,4,.65,4,2.38,4S77.66,39.25,77.66,37Z"/><path class="cls-4" d="M84.62,43.07V34.25l-2,2.06-1.47-1.55,3.82-3.84H87.2V43.07Z"/><path class="cls-2" d="M112.39,25.79h-37s0,0,0,0l0-15.75s3.23,0,3.25,0h33.77a0,0,0,0,1,0,0V25.75A0,0,0,0,1,112.39,25.79Z"/><path class="cls-4" d="M79.88,22.32V16.24l-1.5,1.42L77.3,16.59l2.82-2.65h1.67v8.38Z"/><path class="cls-4" d="M83.41,22.32V20.91c3.67-2.53,4.74-3.39,4.74-4.42,0-.74-.71-1.09-1.45-1.09a3.3,3.3,0,0,0-2.4,1l-1.09-1.18a4.68,4.68,0,0,1,3.45-1.37c1.92,0,3.43,1,3.43,2.67,0,1.43-1.26,2.68-3.59,4.26h3.66v1.57Z"/><path class="cls-4" d="M97.68,22.32l-2.24-3.07-2.26,3.07H90.9L94.16,18l-3-4.08h2.27l2.06,2.87,2-2.87h2.29L96.71,18,100,22.32Z"/><path class="cls-4" d="M100.48,18.15a4,4,0,0,1,4.19-4.33,4.17,4.17,0,0,1,2.64.86l-.86,1.37a2.43,2.43,0,0,0-1.78-.65,2.25,2.25,0,0,0-2.25,2.37,1.09,1.09,0,0,0,0,.18,3,3,0,0,1,2.3-1.08,2.78,2.78,0,0,1,3.07,2.72c0,1.64-1.4,2.88-3.44,2.88C101.63,22.47,100.48,20.51,100.48,18.15Zm5.37,1.51c0-.88-.81-1.26-1.65-1.26a2.35,2.35,0,0,0-1.77.79,1.74,1.74,0,0,0,1.82,1.7A1.43,1.43,0,0,0,105.85,19.66Z"/><rect class="cls-5" x="111.4" y="10.12" width="59.24" height="15.72"/><path d="M118.88,19.86l.74-1a3.27,3.27,0,0,0,2.36,1c1.08,0,1.49-.49,1.49-1,0-1.46-4.35-.55-4.35-3.12,0-1.16,1.08-2,2.73-2a4,4,0,0,1,2.79,1l-.74.91a3.18,3.18,0,0,0-2.18-.8c-.76,0-1.25.35-1.25.87,0,1.31,4.35.5,4.35,3.1,0,1.16-.89,2.17-2.89,2.17A4.23,4.23,0,0,1,118.88,19.86Z"/><path d="M125.78,17.35A3.83,3.83,0,1,1,129.61,21,3.59,3.59,0,0,1,125.78,17.35Zm6.31,0a2.48,2.48,0,1,0-5,0,2.48,2.48,0,1,0,5,0Z"/><path d="M134.45,17.35A3.83,3.83,0,1,1,138.27,21,3.59,3.59,0,0,1,134.45,17.35Zm6.3,0a2.48,2.48,0,1,0-4.95,0,2.48,2.48,0,1,0,4.95,0Z"/><path d="M148.66,20.84l-3.91-5v5h-1.31v-7h1.35l3.82,4.84V13.85h1.31v7Z"/><rect class="cls-3" x="96.75" y="49.59" width="73.76" height="23.41"/><path class="cls-4" d="M108.07,64V59.21l-2,4.83h-.67l-2-4.83V64h-1.52V57.35H104l1.74,4.18,1.75-4.18h2.14V64Z"/><path class="cls-4" d="M116.06,64l-.45-1.13h-3.07L112.09,64h-1.73l2.76-6.69H115L117.79,64Zm-2-5.27L113,61.65h2.23Z"/><path class="cls-4" d="M122.6,64l-1.41-2.38h-1.11V64h-1.53V57.35h3.35a2.17,2.17,0,0,1,2.42,2.15,2,2,0,0,1-1.58,2L124.36,64Zm.15-4.55a.94.94,0,0,0-1.06-.89h-1.61v1.81h1.61A.94.94,0,0,0,122.75,59.49Z"/><path class="cls-4" d="M125.2,60.7A3.54,3.54,0,0,1,129,57.23a3.41,3.41,0,0,1,2.95,1.5l-1.25.64a2.12,2.12,0,0,0-1.7-.87,2.2,2.2,0,1,0,0,4.4,2.48,2.48,0,0,0,1.51-.51v-.81h-1.89V60.34h3.42v2.57a4.09,4.09,0,0,1-3,1.25A3.54,3.54,0,0,1,125.2,60.7Z"/><path class="cls-4" d="M133.37,64V57.35h1.53V64Z"/><path class="cls-4" d="M141.34,64l-3.41-4.37V64H136.4V57.35H138l3.32,4.2v-4.2h1.53V64Z"/><path class="cls-4" d="M149.28,64l-.45-1.13h-3.08L145.3,64h-1.73l2.76-6.69h1.92L151,64Zm-2-5.27-1.12,2.88h2.24Z"/><path class="cls-4" d="M151.7,64V57.35h1.53v5.44h3V64Z"/><path class="cls-4" d="M160.23,64V57.35H164c1.37,0,2.06.81,2.06,1.7a1.51,1.51,0,0,1-1.23,1.54,1.63,1.63,0,0,1,1.37,1.63A1.82,1.82,0,0,1,164.12,64Zm4.28-4.74c0-.41-.33-.7-.84-.7h-1.91V60h1.91C164.18,60,164.51,59.73,164.51,59.3Zm.14,2.72c0-.42-.33-.76-.92-.76h-2v1.53h2C164.3,62.79,164.65,62.51,164.65,62Z"/><rect class="cls-2" x="64.78" y="49.59" width="31.96" height="23.41"/><path class="cls-4" d="M70.24,60.81c0-3.14,1.55-6.27,5-6.27s5,3.13,5,6.27-1.55,6.28-5,6.28S70.24,63.94,70.24,60.81Zm7.42,0c0-2.25-.64-4-2.39-4s-2.38,1.73-2.38,4,.65,4,2.38,4S77.66,63.05,77.66,60.81Z"/><path class="cls-4" d="M81.77,66.87v-2c5-3.68,6.44-4.92,6.44-6.41,0-1.08-1-1.59-2-1.59A4.33,4.33,0,0,0,83,58.24L81.5,56.52a6.2,6.2,0,0,1,4.68-2c2.61,0,4.65,1.46,4.65,3.88,0,2.08-1.71,3.88-4.87,6.17h5v2.28Z"/></svg>