<svg width="243.725" height="95.826" id="Layer_1" data-name="Layer 1" xmlns="http://www.w3.org/2000/svg" viewBox="0 0 234 84"><defs><style>.cls-1{fill:#2d314e;}.cls-2{fill:#676d81;}.cls-3{fill:#55bcbd;}.cls-4{fill:#fff;}.cls-5{fill:#002c46;}.cls-6{fill:#00ffda;}</style></defs><path class="cls-1" d="M62.92,13.75a2.61,2.61,0,0,1,2-3.21,2.86,2.86,0,0,1,3.38,2,2.61,2.61,0,0,1-2,3.22,2.88,2.88,0,0,1-3.39-2"/><rect class="cls-2" x="81.49" y="29.53" width="89.67" height="26.24"/><rect class="cls-3" x="65.6" y="29.53" width="35.83" height="26.24"/><polygon class="cls-3" points="65.6 17.61 77.73 30.16 65.6 30.71 65.6 17.61"/><path class="cls-4" d="M118.2,45.73V40.31l-2.27,5.42h-.75l-2.26-5.42v5.42h-1.71V38.21h2.39l2,4.7,2-4.7h2.41v7.52Z"/><path class="cls-4" d="M121.6,42.72V38.21h1.74v4.46a1.89,1.89,0,0,0,3.77,0V38.21h1.75v4.51c0,1.86-1.18,3.14-3.63,3.14S121.6,44.58,121.6,42.72Z"/><path class="cls-4" d="M130.16,42c0-2.38,1.92-3.89,4.29-3.89a3.81,3.81,0,0,1,3.31,1.68l-1.41.72a2.34,2.34,0,0,0-1.9-1,2.47,2.47,0,1,0,0,4.93,2.81,2.81,0,0,0,1.7-.57V43H134v-1.4h3.83v2.88a4.58,4.58,0,0,1-3.41,1.41C132.08,45.86,130.16,44.34,130.16,42Z"/><path class="cls-4" d="M144.87,45.73l-.51-1.28h-3.44l-.51,1.28h-1.94l3.1-7.52h2.14l3.1,7.52Zm-2.23-5.92-1.25,3.24h2.5Z"/><path class="cls-4" d="M147.65,45.73V38.21h4.23c1.53,0,2.31.92,2.31,1.92a1.69,1.69,0,0,1-1.38,1.72,1.84,1.84,0,0,1,1.54,1.84,2.06,2.06,0,0,1-2.34,2Zm4.8-5.32a.83.83,0,0,0-.94-.79h-2.15V41.2h2.15C152.08,41.2,152.45,40.89,152.45,40.41Zm.15,3.05c0-.47-.36-.85-1-.85h-2.22v1.71h2.22C152.22,44.32,152.6,44,152.6,43.46Z"/><path class="cls-4" d="M155.73,45.73V38.21h5.69v1.41h-4V41.2h3.9v1.41h-3.9v1.71h4v1.41Z"/><path class="cls-5" d="M80.55,48.09a5.33,5.33,0,0,1-6.35,0,6,6,0,0,1-1.89-2.6,10.37,10.37,0,0,1,0-6.78,5.94,5.94,0,0,1,1.89-2.59,5.37,5.37,0,0,1,6.35,0,5.78,5.78,0,0,1,1.89,2.59,10.37,10.37,0,0,1,0,6.78A5.87,5.87,0,0,1,80.55,48.09Zm-5.2-2.74a2.3,2.3,0,0,0,4.06,0,7,7,0,0,0,.64-3.25,7,7,0,0,0-.64-3.25,2.31,2.31,0,0,0-4.06,0,6.93,6.93,0,0,0-.65,3.24A7,7,0,0,0,75.35,45.35Z"/><path class="cls-5" d="M89.08,49.12a5.83,5.83,0,0,1-4-1.4l1.29-2.23a3.8,3.8,0,0,0,2.72,1.06,3,3,0,0,0,2.5-1.13,4.24,4.24,0,0,0,.91-2.71v-.3A4.54,4.54,0,0,1,89,44.16,4.83,4.83,0,0,1,85.69,43a4.09,4.09,0,0,1-1.35-3.26,4.36,4.36,0,0,1,1.45-3.35,5.37,5.37,0,0,1,3.76-1.32A5.15,5.15,0,0,1,94,37a8.19,8.19,0,0,1,1.47,5.06,7.46,7.46,0,0,1-1.7,5.1A5.83,5.83,0,0,1,89.08,49.12Zm.71-7.45a3.29,3.29,0,0,0,2.68-1.28,3.41,3.41,0,0,0-.78-2,2.43,2.43,0,0,0-2-.81,2.51,2.51,0,0,0-1.77.61,1.86,1.86,0,0,0-.66,1.39A1.74,1.74,0,0,0,88,41.15,3,3,0,0,0,89.79,41.67Z"/><rect class="cls-3" x="121.73" y="55.78" width="49.43" height="17.75" rx="0.03"/><path class="cls-6" d="M121.62,73.53H80.9s-15.42,0-15.42-.07,0-17.68.07-17.68h56.07a.06.06,0,0,1,.06.06V73.46A.07.07,0,0,1,121.62,73.53Z"/><path class="cls-5" d="M135.77,69.63h-7.56V68.06a52.48,52.48,0,0,0,4.28-3.18,2.58,2.58,0,0,0,1-1.78,1,1,0,0,0-.48-.91,2,2,0,0,0-1.15-.31A3.72,3.72,0,0,0,129.21,63L128,61.64a4.46,4.46,0,0,1,1.74-1.15,5.91,5.91,0,0,1,2.13-.39,4.46,4.46,0,0,1,2.74.82,2.58,2.58,0,0,1,1.1,2.18,3.42,3.42,0,0,1-1,2.26,15.55,15.55,0,0,1-3.05,2.51h4.1Z"/><path class="cls-5" d="M141.27,69.8a5.2,5.2,0,0,1-3.87-1.4l1.19-1.4a3.63,3.63,0,0,0,2.66,1,2.13,2.13,0,0,0,1.37-.4,1.28,1.28,0,0,0,0-2,2.1,2.1,0,0,0-1.33-.38,3.08,3.08,0,0,0-2.1.76l-1.5-.38V60.24h6.9V62h-4.76v2.3a3.11,3.11,0,0,1,2.22-.79,3.35,3.35,0,0,1,2.28.83,2.79,2.79,0,0,1,.94,2.21,2.91,2.91,0,0,1-1.1,2.37A4.52,4.52,0,0,1,141.27,69.8Z"/><path class="cls-5" d="M156,69.63h-2.56L151,66.2l-2.52,3.43h-2.55l3.65-4.81-3.42-4.58h2.54l2.3,3.21,2.28-3.21h2.57l-3.41,4.57Z"/><path class="cls-5" d="M160.72,69.8a5.23,5.23,0,0,1-3.87-1.4L158,67a3.66,3.66,0,0,0,2.67,1,2.1,2.1,0,0,0,1.36-.4,1.26,1.26,0,0,0,0-2,2.09,2.09,0,0,0-1.32-.38,3.1,3.1,0,0,0-2.11.76l-1.49-.38V60.24h6.9V62h-4.76v2.3a3.09,3.09,0,0,1,2.21-.79,3.32,3.32,0,0,1,2.28.83,2.79,2.79,0,0,1,.95,2.21,2.91,2.91,0,0,1-1.1,2.37A4.55,4.55,0,0,1,160.72,69.8Z"/><path d="M84,68.13H82.46l-3.65-4.66v4.66H77.18V61h1.67l3.55,4.49V61H84Z"/><path d="M91.05,68.13H85.63V61h5.42v1.34H87.26v1.5H91v1.34H87.26v1.63h3.79Z"/><path d="M100,68.13H98.26l-1.34-4.91-1.33,4.91H93.86L91.67,61h1.82l1.34,5.17L96.29,61h1.27L99,66.15,100.35,61h1.83Z"/></svg>