<svg id="Layer_1" width="220" height="80" data-name="Layer 1" xmlns="http://www.w3.org/2000/svg" viewBox="0 0 234 84"><defs><style>.cls-1{fill:#676d81;}.cls-2{fill:#fff;}.cls-3{fill:#ee3d64;}.cls-4{fill:#2d314e;}</style></defs><rect class="cls-1" x="75.11" y="56.92" width="69.59" height="22.09"/><path class="cls-2" d="M90.28,70.55H88.83V66l-1.91,4.56h-.63L84.38,66v4.56H82.94V64.22h2l1.64,4,1.65-4h2Z"/><path class="cls-2" d="M97,69.94a3.2,3.2,0,0,1-2.27.72,3.25,3.25,0,0,1-2.28-.72A2.47,2.47,0,0,1,91.7,68V64.22h1.46V68a1.42,1.42,0,0,0,.41,1.08,1.63,1.63,0,0,0,1.18.41,1.6,1.6,0,0,0,1.17-.41A1.46,1.46,0,0,0,96.33,68V64.22H97.8V68A2.48,2.48,0,0,1,97,69.94Z"/><path class="cls-2" d="M105.27,70.55h-1.39l-3.22-4.13v4.13H99.22V64.22h1.48l3.13,4v-4h1.44Z"/><path class="cls-2" d="M109.37,70.55h-2.68V64.22h2.67a3.77,3.77,0,0,1,2.59.88,2.87,2.87,0,0,1,1,2.28,2.92,2.92,0,0,1-1,2.3A3.81,3.81,0,0,1,109.37,70.55Zm0-1.19a2.12,2.12,0,0,0,1.55-.57,1.92,1.92,0,0,0,.57-1.41,2,2,0,0,0-.55-1.42,2.11,2.11,0,0,0-1.56-.55h-1.24v4Z"/><path class="cls-2" d="M117.27,70.66a3.62,3.62,0,0,1-2.54-.92,3.26,3.26,0,0,1,0-4.7,4,4,0,0,1,5.07,0,3.26,3.26,0,0,1,0,4.7A3.61,3.61,0,0,1,117.27,70.66Zm-1.49-1.78a2,2,0,0,0,1.49.59,2,2,0,0,0,1.48-.59,2.23,2.23,0,0,0,0-3,2,2,0,0,0-1.48-.59,2,2,0,0,0-1.5.59,2.09,2.09,0,0,0-.56,1.49A2.05,2.05,0,0,0,115.78,68.88Z"/><path class="cls-2" d="M124.31,70.66a4,4,0,0,1-2.88-1l.79-1.05a2.94,2.94,0,0,0,2.15.87,1.51,1.51,0,0,0,.87-.21.58.58,0,0,0,.3-.5.48.48,0,0,0-.28-.42,2.34,2.34,0,0,0-.72-.24c-.29,0-.6-.12-.94-.21a7.39,7.39,0,0,1-.94-.32,1.67,1.67,0,0,1-.72-.57,1.55,1.55,0,0,1-.29-1,1.68,1.68,0,0,1,.7-1.37,2.93,2.93,0,0,1,1.87-.55,3.87,3.87,0,0,1,2.63.88l-.8,1a2.9,2.9,0,0,0-2-.69,1.29,1.29,0,0,0-.7.17.56.56,0,0,0-.25.46.45.45,0,0,0,.29.38,2.44,2.44,0,0,0,.72.23c.29,0,.6.13.93.22a9.33,9.33,0,0,1,.94.33,1.82,1.82,0,0,1,.72.58,1.54,1.54,0,0,1,.28.94,1.79,1.79,0,0,1-.69,1.47A3.15,3.15,0,0,1,124.31,70.66Z"/><path class="cls-2" d="M134.42,70.55h-3.67V64.22h3.56a2.05,2.05,0,0,1,1.43.47,1.5,1.5,0,0,1,.51,1.14,1.48,1.48,0,0,1-.33,1,1.45,1.45,0,0,1-.83.49,1.45,1.45,0,0,1,.92.51,1.55,1.55,0,0,1,.37,1,1.61,1.61,0,0,1-.51,1.23A2,2,0,0,1,134.42,70.55ZM134,66.74a.87.87,0,0,0,.58-.18.62.62,0,0,0,.21-.49.63.63,0,0,0-.21-.48.87.87,0,0,0-.58-.18h-1.8v1.33Zm.06,2.62a1,1,0,0,0,.64-.19.65.65,0,0,0,.22-.53.67.67,0,0,0-.22-.52,1,1,0,0,0-.64-.2h-1.86v1.44Z"/><rect class="cls-3" x="44.96" y="56.92" width="30.16" height="22.09"/><path class="cls-2" d="M50.11,69c0-3,1.46-5.91,4.74-5.91s4.74,2.95,4.74,5.91-1.46,5.93-4.74,5.93S50.11,72,50.11,69Zm7,0c0-2.11-.6-3.75-2.25-3.75S52.6,66.9,52.6,69s.62,3.76,2.25,3.76S57.1,71.12,57.1,69Z"/><path class="cls-2" d="M60.76,69c0-3.47,2-5.93,5.34-5.93a5.08,5.08,0,0,1,3.39,1.18l-1.1,1.88a3,3,0,0,0-2.29-.9,3,3,0,0,0-2.86,3.25,1.85,1.85,0,0,0,0,.24,3.76,3.76,0,0,1,2.94-1.48A3.66,3.66,0,0,1,70.11,71c0,2.24-1.79,3.94-4.4,3.94C62.22,74.94,60.76,72.26,60.76,69Zm6.86,2.06c0-1.2-1-1.72-2.12-1.72a2.92,2.92,0,0,0-2.25,1.08,2.3,2.3,0,0,0,2.32,2.32A1.86,1.86,0,0,0,67.62,71.09Z"/><rect class="cls-1" x="75.11" y="33.3" width="69.59" height="22.09"/><path class="cls-2" d="M90.28,46.93H88.83V42.37l-1.91,4.56h-.63l-1.91-4.56v4.56H82.94V40.61h2l1.64,4,1.65-4h2Z"/><path class="cls-2" d="M97,46.33a3.2,3.2,0,0,1-2.27.72,3.25,3.25,0,0,1-2.28-.72,2.49,2.49,0,0,1-.77-1.93V40.61h1.46v3.75a1.43,1.43,0,0,0,.41,1.09,1.62,1.62,0,0,0,1.18.4,1.6,1.6,0,0,0,1.17-.4,1.47,1.47,0,0,0,.41-1.09V40.61H97.8V44.4A2.49,2.49,0,0,1,97,46.33Z"/><path class="cls-2" d="M105.27,46.93h-1.39l-3.22-4.12v4.12H99.22V40.61h1.48l3.13,4v-4h1.44Z"/><path class="cls-2" d="M109.37,46.93h-2.68V40.61h2.67a3.81,3.81,0,0,1,2.59.87,3.13,3.13,0,0,1,0,4.58A3.81,3.81,0,0,1,109.37,46.93Zm0-1.18a2.12,2.12,0,0,0,1.55-.57,1.92,1.92,0,0,0,.57-1.41,2,2,0,0,0-.55-1.42,2.11,2.11,0,0,0-1.56-.56h-1.24v4Z"/><path class="cls-2" d="M117.27,47.05a3.62,3.62,0,0,1-2.54-.92,3.27,3.27,0,0,1,0-4.71,3.62,3.62,0,0,1,2.54-.92,3.58,3.58,0,0,1,2.53.93,3.25,3.25,0,0,1,0,4.69A3.58,3.58,0,0,1,117.27,47.05Zm-1.49-1.79a1.94,1.94,0,0,0,1.49.59,1.92,1.92,0,0,0,1.48-.59,2.22,2.22,0,0,0,0-3,2,2,0,0,0-1.48-.59,2,2,0,0,0-1.5.59,2.06,2.06,0,0,0-.56,1.48A2,2,0,0,0,115.78,45.26Z"/><path class="cls-2" d="M124.31,47.05a4,4,0,0,1-2.88-1l.79-1a3,3,0,0,0,2.15.86,1.6,1.6,0,0,0,.87-.2.6.6,0,0,0,.3-.5.48.48,0,0,0-.28-.42,2.34,2.34,0,0,0-.72-.24c-.29-.05-.6-.13-.94-.22a7.4,7.4,0,0,1-.94-.31,1.74,1.74,0,0,1-.72-.57,1.58,1.58,0,0,1-.29-1,1.68,1.68,0,0,1,.7-1.37,2.93,2.93,0,0,1,1.87-.56,3.88,3.88,0,0,1,2.63.89l-.8,1a2.9,2.9,0,0,0-2-.69,1.29,1.29,0,0,0-.7.17.53.53,0,0,0-.25.45c0,.16.1.28.29.38a2.75,2.75,0,0,0,.72.24,7.71,7.71,0,0,1,.93.22,6.1,6.1,0,0,1,.94.33,1.79,1.79,0,0,1,.72.57,1.59,1.59,0,0,1,.28,1,1.82,1.82,0,0,1-.69,1.47A3.15,3.15,0,0,1,124.31,47.05Z"/><path class="cls-2" d="M137.05,46.93h-1.63L135,45.86h-2.91l-.42,1.07H130l2.6-6.32h1.81Zm-2.45-2.25L133.54,42l-1,2.72Z"/><rect class="cls-3" x="44.96" y="33.3" width="30.16" height="22.09"/><path class="cls-2" d="M50.11,43.88c0-3,1.46-5.91,4.74-5.91s4.74,3,4.74,5.91-1.46,5.93-4.74,5.93S50.11,46.84,50.11,43.88Zm7,0c0-2.11-.6-3.74-2.25-3.74s-2.25,1.63-2.25,3.74.62,3.77,2.25,3.77S57.1,46,57.1,43.88Z"/><path class="cls-2" d="M61,48.09l1.36-1.7a4.11,4.11,0,0,0,3,1.26c1.35,0,2.13-.78,2.13-1.71s-.76-1.7-2.06-1.7a3.31,3.31,0,0,0-2.41.93l-1.7-.46V38.14h7.87v2.15H63.82v2.8a3.64,3.64,0,0,1,2.53-1A3.58,3.58,0,0,1,70,45.84c0,2.42-1.82,4-4.59,4A5.69,5.69,0,0,1,61,48.09Z"/><rect class="cls-3" x="112.77" y="18.36" width="31.94" height="14.94" rx="0.03"/><path class="cls-2" d="M121,30V28.39h-4V27.06l3.36-4.94h2.48v4.79h1.09v1.48h-1.09V30Zm0-6.42-2.28,3.3H121Z"/><path class="cls-2" d="M130.7,30l-2.11-2.9L126.46,30h-2.15L127.38,26l-2.88-3.85h2.15l1.94,2.7,1.91-2.7h2.17L129.79,26,132.86,30Z"/><path class="cls-2" d="M133.35,26.09A3.76,3.76,0,0,1,137.29,22a3.9,3.9,0,0,1,2.5.82L139,24.11a2.35,2.35,0,0,0-1.69-.62,2.12,2.12,0,0,0-2.11,2.24,1,1,0,0,0,0,.17,2.82,2.82,0,0,1,2.17-1,2.63,2.63,0,0,1,2.89,2.57c0,1.54-1.32,2.72-3.25,2.72C134.43,30.17,133.35,28.32,133.35,26.09Zm5.06,1.42c0-.83-.76-1.18-1.56-1.18a2.2,2.2,0,0,0-1.66.74,1.63,1.63,0,0,0,1.71,1.6C137.88,28.67,138.41,28.06,138.41,27.51Z"/><polygon class="cls-3" points="44.9 22.9 44.9 33.58 54.15 33.58 44.9 22.9"/><path class="cls-4" d="M42.82,18.39a2.2,2.2,0,0,0,1.69,2.7,2.42,2.42,0,0,0,2.84-1.7,2.19,2.19,0,0,0-1.68-2.7,2.41,2.41,0,0,0-2.85,1.7"/></svg>