<svg width="243.725" height="95.826" id="Layer_1" data-name="Layer 1" xmlns="http://www.w3.org/2000/svg" viewBox="0 0 234 84"><defs><style>.cls-1{fill:#676d81;}.cls-2{fill:#fff;}.cls-3{fill:#ee3d64;}.cls-4{fill:#2d314e;}</style></defs><rect class="cls-1" x="100.62" y="29.45" width="77.29" height="26.11"/><path class="cls-2" d="M135.7,45.57l-3.81-4.88v4.88h-1.7V38.1h1.75l3.7,4.69V38.1h1.7v7.47Z"/><path class="cls-2" d="M144.55,45.57,144,44.3h-3.43l-.5,1.27h-1.93l3.08-7.47h2.14l3.08,7.47Zm-2.22-5.88-1.25,3.21h2.5Z"/><path class="cls-2" d="M149.56,45.57l-3.09-7.47h1.93l2.22,5.73,2.22-5.73h1.93l-3.08,7.47Z"/><path class="cls-2" d="M161.14,45.57l-.51-1.27H157.2l-.5,1.27h-1.93l3.08-7.47H160l3.08,7.47Zm-2.22-5.88-1.25,3.21h2.5Z"/><path class="cls-2" d="M163.83,45.57V38.1h1.72v6.07h3.38v1.4Z"/><rect class="cls-3" x="84.81" y="29.45" width="35.65" height="26.11"/><path class="cls-2" d="M90.92,42c0-3.49,1.73-7,5.61-7s5.6,3.5,5.6,7-1.72,7-5.6,7S90.92,45.45,90.92,42Zm8.27,0c0-2.5-.71-4.43-2.66-4.43S93.87,39.46,93.87,42s.73,4.45,2.66,4.45S99.19,44.46,99.19,42Z"/><path class="cls-2" d="M103.54,45.21a3.88,3.88,0,0,1,2.9-3.47c-1.5-.53-2.68-1.51-2.68-3.19,0-2.56,2.7-3.58,5.22-3.58s5.22,1,5.22,3.58c0,1.68-1.2,2.66-2.68,3.19a3.91,3.91,0,0,1,2.9,3.47c0,2.52-2.6,3.76-5.44,3.76S103.54,47.73,103.54,45.21Zm8-.41c0-1.11-1.69-1.64-2.52-1.76-.85.12-2.52.65-2.52,1.76s1.1,1.61,2.52,1.61S111.5,45.78,111.5,44.8ZM111.25,39c0-1-1-1.51-2.27-1.51s-2.3.55-2.3,1.51,1.47,1.42,2.3,1.56C109.81,40.46,111.25,40,111.25,39Z"/><path class="cls-4" d="M82.13,72.76a2.58,2.58,0,0,1,2-3.18,2.85,2.85,0,0,1,3.36,2,2.59,2.59,0,0,1-2,3.2,2.86,2.86,0,0,1-3.37-2"/><rect class="cls-3" x="125.97" y="11.79" width="51.95" height="17.66" rx="0.03"/><path class="cls-2" d="M131.72,20.93c0-2.83,1.7-4.83,4.66-4.83a4.62,4.62,0,0,1,3,1l-1,1.53a2.74,2.74,0,0,0-2-.73,2.51,2.51,0,0,0-2.51,2.65.62.62,0,0,0,0,.19,3.32,3.32,0,0,1,2.56-1.2c1.8,0,3.42,1.05,3.42,3,0,1.82-1.56,3.21-3.84,3.21C133,25.75,131.72,23.56,131.72,20.93Zm6,1.68c0-1-.9-1.4-1.85-1.4a2.59,2.59,0,0,0-2,.88,1.93,1.93,0,0,0,2,1.89C137.07,24,137.7,23.25,137.7,22.61Z"/><path class="cls-2" d="M141.14,24.6a1.22,1.22,0,1,1,1.21,1.13A1.19,1.19,0,0,1,141.14,24.6Z"/><path class="cls-2" d="M145.14,24.35,146.33,23A3.71,3.71,0,0,0,149,24c1.18,0,1.85-.63,1.85-1.38s-.65-1.39-1.79-1.39a3,3,0,0,0-2.1.76l-1.48-.38V16.24h6.86V18h-4.74v2.28a3.29,3.29,0,0,1,2.21-.78,3,3,0,0,1,3.2,3c0,2-1.58,3.24-4,3.24A5.21,5.21,0,0,1,145.14,24.35Z"/><path class="cls-2" d="M161.14,25.58l-2.5-3.42-2.52,3.42h-2.53l3.63-4.79-3.4-4.55h2.53l2.29,3.19,2.26-3.19h2.56l-3.4,4.53,3.63,4.81Z"/><path class="cls-2" d="M164.06,24.25l1.13-1.33A4.06,4.06,0,0,0,167.93,24c1.21,0,1.89-.49,1.89-1.19s-.62-1.08-2-1.08c-.42,0-1.09,0-1.24,0V20h1.24c1.11,0,1.86-.31,1.86-1s-.83-1.11-1.86-1.11a3.77,3.77,0,0,0-2.55,1l-1.06-1.25A5.1,5.1,0,0,1,168,16.1c2.34,0,3.78,1,3.78,2.53a2.37,2.37,0,0,1-2.19,2.13A2.43,2.43,0,0,1,172,23c0,1.61-1.55,2.75-3.95,2.75A5.21,5.21,0,0,1,164.06,24.25Z"/><polygon class="cls-3" points="84.81 67.43 96.88 54.94 84.81 54.39 84.81 67.43"/></svg>