<svg width="243.725" height="95.826" id="Layer_1" data-name="Layer 1" xmlns="http://www.w3.org/2000/svg" xmlns:xlink="http://www.w3.org/1999/xlink" viewBox="0 0 234 84"><defs><style>.cls-1{fill:none;}.cls-2{fill:#2d314e;}.cls-3{opacity:0.92;}.cls-4{clip-path:url(#clip-path);}.cls-5{clip-path:url(#clip-path-2);}.cls-6{fill:#ff3762;}.cls-7{fill:#fff;}</style><clipPath id="clip-path"><rect class="cls-1" x="58.27" y="12.41" width="120.27" height="46.9"/></clipPath><clipPath id="clip-path-2"><rect class="cls-1" x="58.27" y="12.41" width="120.27" height="46.9"/></clipPath></defs><path class="cls-2" d="M178.54,69.5a6,6,0,1,1-6-6,6,6,0,0,1,6,6"/><g class="cls-3"><g class="cls-4"><g class="cls-5"><path class="cls-6" d="M178.54,35.86V59.32H81.72a23.46,23.46,0,0,1,0-46.91h73.37a23.45,23.45,0,0,1,23.45,23.45"/></g></g></g><path class="cls-7" d="M110,33.42A4.82,4.82,0,0,1,106.43,32a4.69,4.69,0,0,1-1.39-3.5,4.69,4.69,0,0,1,1.39-3.5,5.23,5.23,0,0,1,7.06,0,5.08,5.08,0,0,1,0,7A4.78,4.78,0,0,1,110,33.42Zm-2.08-2.66a2.69,2.69,0,0,0,2.08.88,2.65,2.65,0,0,0,2.07-.88,3.55,3.55,0,0,0,0-4.44,2.64,2.64,0,0,0-2.07-.87,2.69,2.69,0,0,0-2.09.87,3.23,3.23,0,0,0-.78,2.22A3.18,3.18,0,0,0,107.89,30.76Z"/><path class="cls-7" d="M118.42,33.25h-2V23.82h6.67v1.77h-4.66v2H123v1.76h-4.56Z"/><path class="cls-7" d="M126.62,33.25h-2V23.82h6.67v1.77h-4.66v2h4.56v1.76h-4.56Z"/><path class="cls-7" d="M134.81,33.25h-2V23.82h2Z"/><path class="cls-7" d="M141.38,33.42a5,5,0,0,1-3.59-1.37,4.62,4.62,0,0,1-1.44-3.51A4.63,4.63,0,0,1,137.79,25a5,5,0,0,1,3.59-1.35,4.21,4.21,0,0,1,3.93,2.3l-1.72.85a2.64,2.64,0,0,0-.92-1,2.4,2.4,0,0,0-1.29-.38,2.83,2.83,0,0,0-2.13.87,3.35,3.35,0,0,0,0,4.44,2.84,2.84,0,0,0,2.13.88,2.32,2.32,0,0,0,1.29-.39,2.64,2.64,0,0,0,.92-1l1.72.84A4.27,4.27,0,0,1,141.38,33.42Z"/><path class="cls-7" d="M153.31,33.25h-6.67V23.82h6.67v1.77h-4.66v2h4.56v1.76h-4.56v2.15h4.66Z"/><path class="cls-7" d="M115.71,47.38h-2V40.59L111,47.38h-.88l-2.65-6.79v6.79h-2V38h2.81l2.29,5.89L112.88,38h2.83Z"/><path class="cls-7" d="M126.49,47.38h-2.28l-.59-1.59h-4l-.6,1.59h-2.27L120.34,38h2.52ZM123.07,44,121.6,40,120.13,44Z"/><path class="cls-7" d="M129.48,47.38h-2V38h4.41a3.07,3.07,0,0,1,2.32.87,3,3,0,0,1,.84,2.17,3,3,0,0,1-.85,2.15,3.06,3.06,0,0,1-2.31.87h-2.41Zm2.12-5.13a1.49,1.49,0,0,0,1-.34A1.17,1.17,0,0,0,133,41a1.18,1.18,0,0,0-.39-.93,1.49,1.49,0,0,0-1-.35h-2.12v2.53Z"/><path class="cls-7" d="M143.85,46.49a5.29,5.29,0,0,1-6.35,0,3.88,3.88,0,0,1-1.08-2.88V38h2v5.59a2.22,2.22,0,0,0,.58,1.62,2.53,2.53,0,0,0,3.27,0,2.26,2.26,0,0,0,.57-1.62V38h2.05v5.65A3.88,3.88,0,0,1,143.85,46.49Z"/><path class="cls-7" d="M151.12,47.38h-2V39.72h-2.76V38h7.52v1.76h-2.74Z"/><path class="cls-7" d="M159.75,47.55a4.82,4.82,0,0,1-3.54-1.37,5.11,5.11,0,0,1,0-7,5.23,5.23,0,0,1,7.07,0,5.09,5.09,0,0,1,0,7A4.82,4.82,0,0,1,159.75,47.55Zm-2.08-2.65a2.68,2.68,0,0,0,2.08.87,2.64,2.64,0,0,0,2.07-.87,3.24,3.24,0,0,0,.79-2.22,3.21,3.21,0,0,0-.79-2.22,2.89,2.89,0,0,0-4.15,0,3.16,3.16,0,0,0-.79,2.22A3.24,3.24,0,0,0,157.67,44.9Z"/><path class="cls-7" d="M84.06,47.92H76.34a9.11,9.11,0,0,1-2.2-.23,3.22,3.22,0,0,1-1.57-.84,3.29,3.29,0,0,1-.84-1.55,9,9,0,0,1-.23-2.19V28.68a9,9,0,0,1,.23-2.19,3.11,3.11,0,0,1,2.41-2.4,9.7,9.7,0,0,1,2.2-.22h7.72a11.7,11.7,0,0,1,4.69.95,12.17,12.17,0,0,1,6.39,6.39,12,12,0,0,1,0,9.37,12.51,12.51,0,0,1-2.58,3.81A12.31,12.31,0,0,1,88.75,47,11.54,11.54,0,0,1,84.06,47.92Zm-7.72-23.8a8.63,8.63,0,0,0-2.14.22A2.8,2.8,0,0,0,72,26.55a8.49,8.49,0,0,0-.22,2.13V43.11A8.41,8.41,0,0,0,72,45.23a2.83,2.83,0,0,0,2.23,2.22,9.14,9.14,0,0,0,2.14.22h7.72a11.55,11.55,0,0,0,4.59-.93,12,12,0,0,0,6.26-6.26,11.77,11.77,0,0,0,0-9.17,12.18,12.18,0,0,0-2.53-3.73,12,12,0,0,0-3.73-2.53,11.38,11.38,0,0,0-4.59-.93Zm7.72,23H76.34a8.48,8.48,0,0,1-2-.19,2.51,2.51,0,0,1-1.19-.63,2.54,2.54,0,0,1-.62-1.16,8.27,8.27,0,0,1-.2-2V28.68a8.27,8.27,0,0,1,.2-2,2.62,2.62,0,0,1,.62-1.17,2.47,2.47,0,0,1,1.18-.62,8.57,8.57,0,0,1,2-.2h7.72a10.91,10.91,0,0,1,4.35.88A11.5,11.5,0,0,1,92,28a11.37,11.37,0,0,1,2.4,3.54,11.08,11.08,0,0,1,0,8.7,11.29,11.29,0,0,1-6,5.95A10.7,10.7,0,0,1,84.06,47.07ZM76.34,25a8.63,8.63,0,0,0-1.94.19,2,2,0,0,0-1.62,1.61,8.32,8.32,0,0,0-.19,1.92V43.11A8.22,8.22,0,0,0,72.78,45a2.28,2.28,0,0,0,.56,1.06,2.18,2.18,0,0,0,1.07.55,7.94,7.94,0,0,0,1.93.19h7.72A10.58,10.58,0,0,0,88.31,46a11.09,11.09,0,0,0,5.82-5.82,10.82,10.82,0,0,0,0-8.5,11.09,11.09,0,0,0-5.82-5.82A10.58,10.58,0,0,0,84.06,25Z"/></svg>