<svg width="243.725" height="95.826" id="Layer_1" data-name="Layer 1" xmlns="http://www.w3.org/2000/svg" viewBox="0 0 234 152"><defs><style>.cls-1{fill:#55bcbd;}.cls-2{fill:#676d81;}.cls-3{fill:#002c46;}.cls-4{fill:#2d314e;}.cls-5{fill:#fff;}</style></defs><polygon class="cls-1" points="174.55 141.76 168.61 55.69 177.4 55.69 174.55 141.76"/><rect class="cls-2" x="50.04" y="29.54" width="102.17" height="26.09"/><rect class="cls-1" x="146.85" y="29.54" width="30.55" height="26.09"/><path class="cls-3" d="M159.13,48.72h-2.88V38.89L154,41.19l-1.65-1.73,4.27-4.28h2.51Z"/><path class="cls-3" d="M166.22,49a7.91,7.91,0,0,1-3.16-.6,5.58,5.58,0,0,1-2.18-1.57l1.52-1.93A4.92,4.92,0,0,0,164.08,46a5.49,5.49,0,0,0,2,.41,3.26,3.26,0,0,0,1.89-.47,1.47,1.47,0,0,0,.67-1.25,1.26,1.26,0,0,0-.65-1.19,4.29,4.29,0,0,0-2.07-.38c-.85,0-1.41,0-1.68,0V40.56c.16,0,.72,0,1.68,0q2.52,0,2.52-1.44a1.31,1.31,0,0,0-.71-1.19,3.51,3.51,0,0,0-1.81-.42,4.85,4.85,0,0,0-3.45,1.4l-1.44-1.8A6.56,6.56,0,0,1,166.24,35,6.26,6.26,0,0,1,170,36a3.15,3.15,0,0,1,1.37,2.68,2.7,2.7,0,0,1-.87,2,4,4,0,0,1-2.09,1,3.82,3.82,0,0,1,2.18,1,2.84,2.84,0,0,1,1,2.26,3.41,3.41,0,0,1-1.46,2.87A6.22,6.22,0,0,1,166.22,49Z"/><path class="cls-1" d="M80.61,29.54H50.09a.06.06,0,0,1-.05-.06V12a.06.06,0,0,1,.05-.06H80.61s0,0,8.77.06V29.48C80.65,29.51,80.63,29.54,80.61,29.54Z"/><path class="cls-3" d="M62.43,25.08a5.55,5.55,0,0,1-2.84.68,5.62,5.62,0,0,1-2.85-.68,2.12,2.12,0,0,1-1.16-1.91,2.07,2.07,0,0,1,.6-1.45,3.58,3.58,0,0,1,1.54-.94c-1.32-.43-2-1.17-2-2.2a1.93,1.93,0,0,1,.59-1.42,3.38,3.38,0,0,1,1.43-.81,7.1,7.1,0,0,1,3.66,0,3.44,3.44,0,0,1,1.43.81,1.93,1.93,0,0,1,.59,1.42c0,1-.66,1.76-2,2.2a3.58,3.58,0,0,1,1.54.94,2.07,2.07,0,0,1,.6,1.45A2.11,2.11,0,0,1,62.43,25.08ZM59.59,24a2.68,2.68,0,0,0,1.32-.3.91.91,0,0,0,.54-.8.94.94,0,0,0-.61-.82,3.81,3.81,0,0,0-1.25-.4,5.23,5.23,0,0,0-.76.18,2.52,2.52,0,0,0-.75.41.82.82,0,0,0-.35.63.92.92,0,0,0,.53.8A2.7,2.7,0,0,0,59.59,24Zm0-4a3.6,3.6,0,0,0,1.15-.36.82.82,0,0,0,.53-.72.85.85,0,0,0-.47-.76,2.38,2.38,0,0,0-1.21-.27,2.44,2.44,0,0,0-1.23.27.84.84,0,0,0-.46.76.8.8,0,0,0,.52.72A3.64,3.64,0,0,0,59.59,20Z"/><path class="cls-3" d="M74.29,25.59H71.75l-2.5-3.41-2.52,3.41H64.2l3.62-4.79-3.39-4.55H67l2.29,3.2,2.26-3.2h2.56l-3.4,4.54Z"/><path class="cls-3" d="M81.64,25.59H79.52V23.66H74.74V22.09l4-5.84h2.93v5.66h1.29v1.75H81.64Zm-2.12-3.68V18l-2.7,3.89Z"/><path class="cls-4" d="M172.55,145a2.6,2.6,0,0,1,2-3.19,2.85,2.85,0,0,1,3.36,2,2.58,2.58,0,0,1-2,3.19,2.85,2.85,0,0,1-3.37-2"/><path class="cls-5" d="M59.19,45.56H57.48V39.49H55.15v-1.4h6.37v1.4H59.19Z"/><path class="cls-5" d="M64.4,45.56H62.7V38.09h1.7Z"/><path class="cls-5" d="M74.74,45.56H73V40.18l-2.25,5.38H70l-2.25-5.38v5.38h-1.7V38.09h2.38l1.94,4.67,1.94-4.67h2.4Z"/><path class="cls-5" d="M82.07,45.56H76.42V38.09h5.65v1.4H78.12v1.57H82v1.4H78.12v1.7h3.95Z"/><path class="cls-5" d="M86.35,45.7A4.78,4.78,0,0,1,83,44.51l.93-1.24a3.48,3.48,0,0,0,2.54,1,1.85,1.85,0,0,0,1-.24.7.7,0,0,0,.36-.59.57.57,0,0,0-.34-.5,2.65,2.65,0,0,0-.85-.29c-.34-.06-.71-.14-1.11-.25a9.62,9.62,0,0,1-1.11-.37,2.05,2.05,0,0,1-.85-.67,1.82,1.82,0,0,1-.34-1.12A2,2,0,0,1,84,38.64a3.41,3.41,0,0,1,2.2-.66,4.6,4.6,0,0,1,3.11,1l-.94,1.19a3.47,3.47,0,0,0-2.33-.82,1.48,1.48,0,0,0-.82.2.63.63,0,0,0-.3.54.52.52,0,0,0,.34.45,2.93,2.93,0,0,0,.85.27c.34.07.71.16,1.1.27a9.42,9.42,0,0,1,1.1.38,2,2,0,0,1,.85.69,1.81,1.81,0,0,1,.35,1.11A2.12,2.12,0,0,1,88.72,45,3.68,3.68,0,0,1,86.35,45.7Z"/><path class="cls-5" d="M96.8,45.7a4.79,4.79,0,0,1-3.4-1.19l.94-1.24a3.48,3.48,0,0,0,2.54,1,1.87,1.87,0,0,0,1-.24.71.71,0,0,0,.35-.59.57.57,0,0,0-.34-.5,2.57,2.57,0,0,0-.85-.29c-.34-.06-.71-.14-1.11-.25a10.12,10.12,0,0,1-1.1-.37,2,2,0,0,1-.85-.67,1.82,1.82,0,0,1-.34-1.12,2,2,0,0,1,.82-1.62A3.44,3.44,0,0,1,96.7,38a4.64,4.64,0,0,1,3.11,1l-1,1.19a3.44,3.44,0,0,0-2.32-.82,1.52,1.52,0,0,0-.83.2.63.63,0,0,0-.3.54.54.54,0,0,0,.34.45,3,3,0,0,0,.86.27c.34.07.7.16,1.1.27a10.11,10.11,0,0,1,1.1.38,2.1,2.1,0,0,1,.85.69A1.81,1.81,0,0,1,100,43.3,2.11,2.11,0,0,1,99.18,45,3.73,3.73,0,0,1,96.8,45.7Z"/><path class="cls-5" d="M105,45.7a4.24,4.24,0,0,1-3-1.09,3.85,3.85,0,0,1,0-5.55,4.66,4.66,0,0,1,6,0,3.6,3.6,0,0,1,1.18,2.77,3.72,3.72,0,0,1-1,2.65l.59.64-1.19.9-.65-.69A4.81,4.81,0,0,1,105,45.7Zm0-1.41a2.53,2.53,0,0,0,.83-.13l-.87-1,1.18-.91.87,1a2.67,2.67,0,0,0-.25-3.18,2.56,2.56,0,0,0-3.52,0,2.41,2.41,0,0,0-.67,1.75,2.46,2.46,0,0,0,.67,1.76A2.33,2.33,0,0,0,105,44.29Z"/><path class="cls-5" d="M116.79,44.85a4.68,4.68,0,0,1-5.38,0,2.94,2.94,0,0,1-.91-2.28V38.09h1.72v4.44a1.69,1.69,0,0,0,.49,1.28,1.91,1.91,0,0,0,1.39.48,1.87,1.87,0,0,0,1.38-.48,1.69,1.69,0,0,0,.49-1.28V38.09h1.74v4.48A3,3,0,0,1,116.79,44.85Z"/><path class="cls-5" d="M126.83,45.56H124.9l-.5-1.26H121l-.51,1.26h-1.93l3.08-7.47h2.13Zm-2.9-2.66-1.24-3.22-1.25,3.22Z"/><path class="cls-5" d="M134.15,45.56h-2l-1.57-2.65h-1.25v2.65h-1.7V38.09h3.74a2.78,2.78,0,0,1,2,.68,2.22,2.22,0,0,1,.73,1.73,2.12,2.12,0,0,1-.52,1.49,2.37,2.37,0,0,1-1.24.73Zm-3-4.05a1.33,1.33,0,0,0,.85-.27.94.94,0,0,0,.33-.75.88.88,0,0,0-.33-.72,1.34,1.34,0,0,0-.85-.28h-1.8v2Z"/><path class="cls-5" d="M141.12,45.56h-5.65V38.09h5.65v1.4h-4v1.57H141v1.4h-3.87v1.7h4Z"/></svg>