<svg width="243.725" height="95.826" id="Layer_1" data-name="Layer 1" xmlns="http://www.w3.org/2000/svg" viewBox="0 0 234 84"><defs><style>.cls-1{fill:#676d81;}.cls-2{fill:#fff;}.cls-3{fill:#ee3d64;}.cls-4{fill:#2d314e;}</style></defs><rect class="cls-1" x="55.82" y="28.62" width="65.02" height="25.8"/><path class="cls-2" d="M73.33,44.54l-2-2.71-2,2.71h-2l2.86-3.79-2.68-3.6h2l1.81,2.52,1.79-2.52h2l-2.69,3.59,2.87,3.8Z"/><path class="cls-2" d="M76.18,44.54V37.15h5.59v1.38H77.86v1.55h3.83v1.39H77.86v1.68h3.91v1.39Z"/><path class="cls-2" d="M88.63,44.54l-3.76-4.82v4.82H83.18V37.15h1.73l3.66,4.64V37.15h1.68v7.39Z"/><path class="cls-2" d="M91.54,40.85a4.14,4.14,0,1,1,4.13,3.82A3.85,3.85,0,0,1,91.54,40.85Zm6.52,0a2.4,2.4,0,1,0-2.39,2.43A2.3,2.3,0,0,0,98.06,40.85Z"/><path class="cls-2" d="M106.52,44.54l-3.77-4.82v4.82h-1.68V37.15h1.73l3.66,4.64V37.15h1.68v7.39Z"/><rect class="cls-3" x="120.83" y="28.62" width="35.23" height="25.8"/><path class="cls-2" d="M126.82,41c0-3.45,1.71-6.91,5.55-6.91s5.54,3.46,5.54,6.91-1.71,6.93-5.54,6.93S126.82,44.43,126.82,41ZM135,41c0-2.47-.71-4.38-2.63-4.38s-2.63,1.91-2.63,4.38.72,4.4,2.63,4.4S135,43.44,135,41Z"/><path class="cls-2" d="M145.5,47.66V44.89h-6.41V42.64l5.32-8.37h3.94v8.11h1.72v2.51h-1.72v2.77Zm0-10.86-3.62,5.58h3.62Z"/><rect class="cls-3" x="55.82" y="11.16" width="37.31" height="17.45" rx="0.03"/><path class="cls-2" d="M60.89,20.19c0-2.79,1.69-4.77,4.6-4.77a4.58,4.58,0,0,1,2.92,1l-1,1.51a2.71,2.71,0,0,0-2-.72A2.48,2.48,0,0,0,63,19.78.62.62,0,0,0,63,20a3.28,3.28,0,0,1,2.53-1.19c1.77,0,3.37,1,3.37,3,0,1.8-1.54,3.17-3.79,3.17C62.15,25,60.89,22.79,60.89,20.19Zm5.9,1.66c0-1-.88-1.38-1.82-1.38a2.55,2.55,0,0,0-1.93.87,1.9,1.9,0,0,0,2,1.87C66.17,23.21,66.79,22.49,66.79,21.85Z"/><path class="cls-2" d="M76.92,24.79l-2.47-3.38L72,24.79h-2.5L73,20.05l-3.36-4.49h2.51l2.26,3.15,2.24-3.15h2.53L75.86,20l3.58,4.75Z"/><path class="cls-2" d="M79.81,23.47l1.11-1.31a4,4,0,0,0,2.71,1.05c1.2,0,1.87-.49,1.87-1.18s-.61-1.06-2-1.06l-1.23,0V19.22c.18,0,.86,0,1.23,0,1.1,0,1.84-.31,1.84-1s-.82-1.09-1.84-1.09a3.64,3.64,0,0,0-2.51,1l-1-1.24a5,5,0,0,1,3.77-1.46c2.31,0,3.73,1,3.73,2.5A2.35,2.35,0,0,1,85.29,20a2.4,2.4,0,0,1,2.31,2.21c0,1.59-1.53,2.71-3.9,2.71A5.14,5.14,0,0,1,79.81,23.47Z"/><polygon class="cls-3" points="156.06 66.89 156.06 54.42 145.26 54.42 156.06 66.89"/><path class="cls-4" d="M153.41,72.16a2.56,2.56,0,0,1,2-3.15,2.82,2.82,0,0,1,3.33,2,2.57,2.57,0,0,1-2,3.16,2.83,2.83,0,0,1-3.33-2"/></svg>