<svg id="Layer_1" data-name="Layer 1" xmlns="http://www.w3.org/2000/svg" xmlns:xlink="http://www.w3.org/1999/xlink" viewBox="0 0 234 84"><defs><style>.cls-1{fill:none;}.cls-2{fill:#676d81;}.cls-3{fill:#fff;}.cls-4{fill:#e2c620;}.cls-5{fill:#2d314e;}.cls-6{clip-path:url(#clip-path);}</style><clipPath id="clip-path"><rect class="cls-1" x="151.77" y="8.29" width="21.41" height="8.23"/></clipPath></defs><rect class="cls-2" x="91.71" y="38.98" width="88.14" height="20.15"/><path class="cls-3" d="M120,51.41h-1.58l-1.54-2.11-1.55,2.11h-1.57l2.24-3-2.1-2.81h1.57l1.41,2,1.4-2h1.58l-2.1,2.81Z"/><path class="cls-3" d="M122,51.41h-1.32V45.64H122Z"/><path class="cls-3" d="M126.2,51.51a3.26,3.26,0,0,1-2.31-.83,3,3,0,0,1,0-4.29,3.6,3.6,0,0,1,4.62,0,2.78,2.78,0,0,1,.91,2.14,2.86,2.86,0,0,1-.8,2l.45.5-.92.7-.49-.54A3.69,3.69,0,0,1,126.2,51.51Zm0-1.08a2.2,2.2,0,0,0,.64-.1l-.67-.74.91-.7.68.74a1.92,1.92,0,0,0,.31-1.1,1.9,1.9,0,0,0-.51-1.36,2,2,0,0,0-2.72,0,2.07,2.07,0,0,0,0,2.72A1.81,1.81,0,0,0,126.2,50.43Z"/><path class="cls-3" d="M135.28,50.86a3.64,3.64,0,0,1-4.15,0,2.28,2.28,0,0,1-.71-1.76V45.64h1.33v3.43a1.34,1.34,0,0,0,.38,1,1.49,1.49,0,0,0,1.07.37,1.48,1.48,0,0,0,1.07-.37,1.34,1.34,0,0,0,.38-1V45.64H136V49.1A2.28,2.28,0,0,1,135.28,50.86Z"/><path class="cls-3" d="M141.65,51.41h-4.37V45.64h4.37v1.09H138.6v1.21h3V49h-3v1.31h3.05Z"/><path class="cls-3" d="M146.62,51.41h-3.93V45.64H144v4.69h2.6Z"/><path class="cls-3" d="M152,51.41h-4.37V45.64H152v1.09h-3v1.21h3V49h-3v1.31h3Z"/><path class="cls-3" d="M158.57,51.41h-1.26l-2.95-3.76v3.76h-1.31V45.64h1.35l2.86,3.63V45.64h1.31Z"/><path class="cls-3" d="M164.23,51.41h-4.36V45.64h4.36v1.09h-3v1.21h3V49h-3v1.31h3Z"/><path class="cls-3" d="M173.54,51.41h-1.49l-.39-1H169l-.39,1h-1.48l2.37-5.77h1.65Zm-2.24-2.06-1-2.48-1,2.48Z"/><rect class="cls-4" x="79.51" y="38.98" width="27.5" height="20.15"/><path class="cls-3" d="M87.55,53.85V52.09c4.28-3.16,5.53-4.23,5.53-5.51,0-.93-.83-1.37-1.69-1.37a3.71,3.71,0,0,0-2.8,1.21L87.32,45a5.31,5.31,0,0,1,4-1.71c2.24,0,4,1.25,4,3.34,0,1.78-1.47,3.33-4.18,5.31h4.26v2Z"/><path class="cls-3" d="M99.4,53.85V46.26L97.66,48,96.39,46.7l3.29-3.31h1.94V53.85Z"/><rect class="cls-2" x="91.71" y="19.22" width="88.14" height="20.15"/><path class="cls-3" d="M120,31.65h-1.58l-1.54-2.11-1.55,2.11h-1.57l2.24-3-2.1-2.81h1.57l1.41,2,1.4-2h1.58l-2.1,2.81Z"/><path class="cls-3" d="M122,31.65h-1.32V25.88H122Z"/><path class="cls-3" d="M126.2,31.75a3.26,3.26,0,0,1-2.31-.83,3,3,0,0,1,0-4.29,3.6,3.6,0,0,1,4.62,0,2.78,2.78,0,0,1,.91,2.14,2.86,2.86,0,0,1-.8,2l.45.5-.92.7-.49-.54A3.69,3.69,0,0,1,126.2,31.75Zm0-1.08a2.2,2.2,0,0,0,.64-.1l-.67-.74.91-.7.68.74a1.92,1.92,0,0,0,.31-1.1,1.87,1.87,0,0,0-.51-1.35,2,2,0,0,0-2.72,0,1.87,1.87,0,0,0-.51,1.35,1.9,1.9,0,0,0,.51,1.36A1.81,1.81,0,0,0,126.2,30.67Z"/><path class="cls-3" d="M135.28,31.1a3.64,3.64,0,0,1-4.15,0,2.28,2.28,0,0,1-.71-1.76V25.88h1.33v3.43a1.34,1.34,0,0,0,.38,1,1.49,1.49,0,0,0,1.07.37,1.48,1.48,0,0,0,1.07-.37,1.34,1.34,0,0,0,.38-1V25.88H136v3.46A2.28,2.28,0,0,1,135.28,31.1Z"/><path class="cls-3" d="M141.65,31.65h-4.37V25.88h4.37V27H138.6v1.21h3v1.08h-3v1.31h3.05Z"/><path class="cls-3" d="M146.62,31.65h-3.93V25.88H144v4.69h2.6Z"/><path class="cls-3" d="M152,31.65h-4.37V25.88H152V27h-3v1.21h3v1.08h-3v1.31h3Z"/><path class="cls-3" d="M158.57,31.65h-1.26l-2.95-3.76v3.76h-1.31V25.88h1.35l2.86,3.63V25.88h1.31Z"/><path class="cls-3" d="M164.23,31.65h-4.36V25.88h4.36V27h-3v1.21h3v1.08h-3v1.31h3Z"/><path class="cls-3" d="M171.13,31.65h-3.35V25.88H171a1.9,1.9,0,0,1,1.31.43,1.38,1.38,0,0,1,.46,1,1.32,1.32,0,0,1-.3.88,1.3,1.3,0,0,1-.76.45,1.28,1.28,0,0,1,.84.47,1.4,1.4,0,0,1,.34.94,1.47,1.47,0,0,1-.46,1.12A1.89,1.89,0,0,1,171.13,31.65Zm-.39-3.47a.8.8,0,0,0,.53-.17.53.53,0,0,0,.19-.44.56.56,0,0,0-.19-.44.8.8,0,0,0-.53-.16H169.1v1.21Zm.06,2.39a.93.93,0,0,0,.58-.17.68.68,0,0,0,0-1,.87.87,0,0,0-.58-.18h-1.7v1.31Z"/><rect class="cls-4" x="79.51" y="19.22" width="27.5" height="20.15"/><path class="cls-3" d="M86.07,34.09V32.33c4.28-3.16,5.53-4.23,5.53-5.52,0-.92-.83-1.36-1.69-1.36a3.71,3.71,0,0,0-2.8,1.21l-1.27-1.47a5.31,5.31,0,0,1,4-1.71c2.25,0,4,1.25,4,3.33,0,1.79-1.47,3.34-4.18,5.32h4.26v2Z"/><path class="cls-3" d="M95.27,28.87c0-2.7,1.33-5.39,4.33-5.39s4.32,2.69,4.32,5.39-1.33,5.4-4.32,5.4S95.27,31.56,95.27,28.87Zm6.38,0c0-1.93-.55-3.42-2.05-3.42s-2.06,1.49-2.06,3.42.57,3.43,2.06,3.43S101.65,30.79,101.65,28.87Z"/><path class="cls-5" d="M77.44,72.39A2,2,0,0,1,79,69.93a2.22,2.22,0,0,1,2.6,1.55A2,2,0,0,1,80,74a2.21,2.21,0,0,1-2.6-1.56"/><rect class="cls-4" x="145.1" y="5.59" width="34.75" height="13.63" rx="0.03"/><g class="cls-6"><path class="cls-3" d="M155.74,16.23V14.74h-3.69V13.53L155.12,9h2.27v4.37h1v1.35h-1v1.49Zm0-5.85-2.08,3h2.08Z"/><path class="cls-3" d="M164.55,16.23l-1.93-2.64-1.94,2.64h-2l2.8-3.7L158.9,9h1.95l1.77,2.47L164.37,9h2l-2.63,3.5,2.8,3.71Z"/><path class="cls-3" d="M167,12.64a3.42,3.42,0,0,1,3.59-3.72,3.58,3.58,0,0,1,2.28.74l-.74,1.18a2.09,2.09,0,0,0-1.54-.56,1.93,1.93,0,0,0-1.93,2,.76.76,0,0,0,0,.15,2.57,2.57,0,0,1,2-.93,2.4,2.4,0,0,1,2.64,2.35c0,1.4-1.2,2.47-3,2.47C168,16.36,167,14.67,167,12.64Zm4.61,1.3c0-.76-.69-1.08-1.42-1.08a2,2,0,0,0-1.52.68A1.5,1.5,0,0,0,170.21,15C171.1,15,171.58,14.44,171.58,13.94Z"/></g><polygon class="cls-4" points="79.51 68.28 88.82 58.64 79.51 58.22 79.51 68.28"/><rect class="cls-3" x="79.51" y="39.11" width="100.34" height="0.5"/></svg>