<svg width="243.725" height="95.826" id="Layer_1" data-name="Layer 1" xmlns="http://www.w3.org/2000/svg" viewBox="0 0 234 84"><defs><style>.cls-1{fill:#2d314e;}.cls-2{fill:#55bcbd;}.cls-3{fill:#002c46;}.cls-4{fill:#676d81;}.cls-5{fill:#fff;}</style></defs><path class="cls-1" d="M161.06,13.77a2.62,2.62,0,0,1,2-3.23,2.88,2.88,0,0,1,3.4,2,2.61,2.61,0,0,1-2,3.23,2.88,2.88,0,0,1-3.41-2"/><rect class="cls-2" x="67.43" y="55.66" width="43.65" height="17.87" rx="0.03"/><path class="cls-3" d="M80.19,69.78a3.93,3.93,0,0,1-3.27-1.36,5.44,5.44,0,0,1-1.09-3.52,5,5,0,0,1,1.25-3.54A4.49,4.49,0,0,1,80.54,60a4.54,4.54,0,0,1,3,1l-1,1.55a2.92,2.92,0,0,0-2-.74,2.37,2.37,0,0,0-1.82.77A2.74,2.74,0,0,0,78,64.48a1.15,1.15,0,0,0,0,.2,3.13,3.13,0,0,1,1.09-.87,3.44,3.44,0,0,1,1.5-.35,3.79,3.79,0,0,1,2.45.81,2.77,2.77,0,0,1,1,2.26A2.94,2.94,0,0,1,83,68.86,4.22,4.22,0,0,1,80.19,69.78ZM80.07,68a2,2,0,0,0,1.31-.42,1.26,1.26,0,0,0,.49-1,1.18,1.18,0,0,0-.54-1A2.3,2.3,0,0,0,80,65.19a2.51,2.51,0,0,0-2,.89,2.31,2.31,0,0,0,.58,1.35A1.84,1.84,0,0,0,80.07,68Z"/><path class="cls-3" d="M94.82,69.61H92.24l-2.53-3.46-2.55,3.46H84.6l3.67-4.85-3.44-4.6h2.56l2.32,3.23L92,60.16h2.59l-3.44,4.59Z"/><path class="cls-3" d="M99.18,69.78a6.19,6.19,0,0,1-2.35-.42,4,4,0,0,1-1.63-1.1l1.13-1.34a3.55,3.55,0,0,0,1.26.78,4.1,4.1,0,0,0,1.52.29,2.58,2.58,0,0,0,1.41-.33,1,1,0,0,0,.5-.87.88.88,0,0,0-.49-.83A3.47,3.47,0,0,0,99,65.7q-1,0-1.26,0V63.91c.12,0,.54,0,1.26,0,1.25,0,1.87-.34,1.87-1a.9.9,0,0,0-.53-.83A2.8,2.8,0,0,0,99,61.8a3.74,3.74,0,0,0-2.58,1l-1.08-1.26A5.08,5.08,0,0,1,99.2,60a4.92,4.92,0,0,1,2.79.69,2.14,2.14,0,0,1,1,1.87,1.82,1.82,0,0,1-.65,1.42,3,3,0,0,1-1.57.73,3,3,0,0,1,1.63.69,2,2,0,0,1,.74,1.58,2.39,2.39,0,0,1-1.09,2A5,5,0,0,1,99.18,69.78Z"/><rect class="cls-4" x="67.43" y="29.25" width="78.19" height="26.42" transform="translate(213.04 84.91) rotate(-180)"/><rect class="cls-2" x="125.55" y="29.25" width="36.06" height="26.42" transform="translate(287.17 84.91) rotate(-180)"/><path class="cls-3" d="M137.88,49H135V39l-2.29,2.32L131,39.6l4.31-4.33h2.55Z"/><path class="cls-3" d="M144.93,49h-3.2l4.91-11.13h-6.91V35.27H150v2Z"/><polygon class="cls-2" points="161.61 17.25 149.4 29.88 161.61 30.43 161.61 17.25"/><path class="cls-5" d="M78.16,45.55V44.24L82,39.4H78.16V38h6.08v1.29l-3.82,4.85h3.91v1.42Z"/><path class="cls-5" d="M91.32,45.55l-.51-1.28H87.34l-.51,1.28h-2L88,38h2.16l3.11,7.56ZM89.08,39.6l-1.26,3.25h2.52Z"/><path class="cls-5" d="M101.16,45.55V40.09l-2.28,5.46h-.76l-2.28-5.46v5.46H94.12V38h2.41l2,4.72,2-4.72h2.43v7.56Z"/><path class="cls-5" d="M104.58,45.55V38h4.26c1.54,0,2.33.91,2.33,1.92a1.72,1.72,0,0,1-1.39,1.74,1.84,1.84,0,0,1,1.55,1.85,2.07,2.07,0,0,1-2.35,2Zm4.83-5.35c0-.47-.36-.8-.94-.8h-2.16V41h2.16C109.05,41,109.41,40.68,109.41,40.2Zm.16,3.07c0-.48-.36-.86-1-.86h-2.23v1.72h2.23C109.18,44.13,109.57,43.81,109.57,43.27Z"/><path class="cls-5" d="M112.72,45.55V38h1.72v7.56Z"/></svg>