<svg id="Layer_1" data-name="Layer 1" width="180" height="60" xmlns="http://www.w3.org/2000/svg" viewBox="0 0 60.35 30.08"><defs><style>.cls-1{fill:#676d80;}.cls-2{font-size:5.28px;fill:#fff;letter-spacing:0.01em;}.cls-2,.cls-4,.cls-5{font-family:ProximaNova-Bold, Proxima Nova;font-weight:700;}.cls-3{fill:#e2c620;}.cls-4{font-size:9.58px;}.cls-5{font-size:6.6px;letter-spacing:0.01em;}.cls-6{fill:#2d314e;}</style></defs><path class="cls-1" d="M42.24,20.64H3a3,3,0,0,1-3-3V8.33H42.24Z"/><text class="cls-2" transform="translate(3.82 15.92) scale(1.07 1)">24 DE JULHO</text><path class="cls-3" d="M42.24,8.33H56a3,3,0,0,1,3,3v9.31a0,0,0,0,1,0,0H42.24a0,0,0,0,1,0,0V8.33A0,0,0,0,1,42.24,8.33Z"/><text class="cls-4" transform="translate(44.93 17.41)">22</text><path class="cls-3" d="M3,0H18.24a3,3,0,0,1,3,3V8.3a0,0,0,0,1,0,0H0a0,0,0,0,1,0,0V3A3,3,0,0,1,3,0Z"/><text class="cls-5" transform="translate(4.07 6.5) scale(1.07 1)">6X3</text><polygon class="cls-3" points="59.05 26.59 59.05 20.64 53.9 20.64 59.05 26.59"/><path class="cls-6" d="M57.78,29.1a1.23,1.23,0,0,1,.95-1.5,1.35,1.35,0,0,1,1.58.94,1.22,1.22,0,0,1-.94,1.51,1.34,1.34,0,0,1-1.59-.95"/></svg>