<svg id="Layer_1" data-name="Layer 1" width="160" height="40" xmlns="http://www.w3.org/2000/svg" xmlns:xlink="http://www.w3.org/1999/xlink" viewBox="0 0 42.47 21.94"><defs><style>.cls-1{fill:none;}.cls-2{fill:#676d80;}.cls-3{font-size:5.28px;fill:#fff;letter-spacing:0.01em;}.cls-3,.cls-5,.cls-7{font-family:ProximaNova-Bold, Proxima Nova;font-weight:700;}.cls-4{fill:#55b9ba;}.cls-5{font-size:9.58px;}.cls-5,.cls-7{fill:#002c46;}.cls-6{clip-path:url(#clip-path);}.cls-7{font-size:6.6px;letter-spacing:0.01em;}.cls-8{fill:#2d314e;}</style><clipPath id="clip-path"><rect class="cls-1" x="4.08" y="2.95" width="13.08" height="5.03"/></clipPath></defs><path class="cls-2" d="M0,9.63H24.4a0,0,0,0,1,0,0V21.94a0,0,0,0,1,0,0H3a3,3,0,0,1-3-3V9.63A0,0,0,0,1,0,9.63Z"/><text class="cls-3" transform="translate(8.84 17.23) scale(1.07 1)">33</text><path class="cls-4" d="M24.4,9.63H41.21a0,0,0,0,1,0,0v9.31a3,3,0,0,1-3,3H24.4a0,0,0,0,1,0,0V9.63a0,0,0,0,1,0,0Z"/><text class="cls-5" transform="translate(27.97 18.72)">17</text><path class="cls-4" d="M3,1.31H18.24a3,3,0,0,1,3,3V9.6a0,0,0,0,1,0,0H0a0,0,0,0,1,0,0V4.31A3,3,0,0,1,3,1.31Z"/><g class="cls-6"><text class="cls-7" transform="translate(4.07 7.8) scale(1.07 1)">6X3</text></g><polygon class="cls-4" points="41.21 3.81 36.38 9.81 41.21 9.63 41.21 3.81"/><path class="cls-8" d="M41.49,2.57A1.22,1.22,0,0,1,40,1.63a1.35,1.35,0,0,1,1-1.59A1.22,1.22,0,0,1,42.44,1a1.36,1.36,0,0,1-.95,1.59"/></svg>