<svg id="Layer_1" data-name="Layer 1" width="243.725" height="95.826" xmlns="http://www.w3.org/2000/svg" viewBox="0 0 51.03 42.4"><defs><style>.cls-1{fill:#676d80;}.cls-2{font-size:5.28px;letter-spacing:0.01em;}.cls-2,.cls-4,.cls-5{font-family:ProximaNova-Bold, Proxima Nova;font-weight:700;}.cls-3{fill:#ee3d64;}.cls-4{font-size:9.58px;fill:#fff;}.cls-5{font-size:6.6px;letter-spacing:0.01em;}.cls-6{fill:#2d314e;}.cls-7{fill:none;stroke:#fff;stroke-miterlimit:10;stroke-width:0.75px;}</style></defs><path class="cls-1" d="M0,20.64H32.91a0,0,0,0,1,0,0V33a0,0,0,0,1,0,0H3a3,3,0,0,1-3-3V20.64A0,0,0,0,1,0,20.64Z"/><text class="cls-2" transform="translate(3.21 28.24) scale(1.07 1)">CASINO B</text><rect class="cls-3" x="32.91" y="20.64" width="16.81" height="12.31"/><text class="cls-4" transform="translate(35.45 29.73)">03</text><rect class="cls-1" y="8.33" width="32.91" height="12.31"/><text class="cls-2" transform="translate(3.21 15.92) scale(1.07 1)">CASINO A</text><path class="cls-3" d="M32.91,8.33H46.72a3,3,0,0,1,3,3v9.31a0,0,0,0,1,0,0H32.91a0,0,0,0,1,0,0V8.33A0,0,0,0,1,32.91,8.33Z"/><text class="cls-4" transform="translate(35.45 17.41)">02</text><path class="cls-3" d="M3,0H16.27A1.53,1.53,0,0,1,17.8,1.53V8.3a0,0,0,0,1,0,0H0a0,0,0,0,1,0,0V3A3,3,0,0,1,3,0Z"/><text class="cls-5" transform="translate(2.18 6.5) scale(1.07 1)">6X3</text><polygon class="cls-3" points="49.72 38.9 49.72 32.96 44.57 32.96 49.72 38.9"/><path class="cls-6" d="M48.46,41.42a1.21,1.21,0,0,1,.94-1.5,1.34,1.34,0,0,1,1.59.94,1.23,1.23,0,0,1-.94,1.51,1.35,1.35,0,0,1-1.59-.95"/><line class="cls-7" y1="20.44" x2="49.72" y2="20.44"/></svg>