<svg id="Layer_1" data-name="Layer 1" width="180" height="60" xmlns="http://www.w3.org/2000/svg" xmlns:xlink="http://www.w3.org/1999/xlink" viewBox="0 0 47.49 24.9"><defs><style>.cls-1{fill:none;}.cls-2{fill:#2d314e;}.cls-3{opacity:0.92;}.cls-4{clip-path:url(#clip-path);}.cls-5{clip-path:url(#clip-path-2);}.cls-6,.cls-7{fill:#fff;}.cls-7{font-size:5.58px;font-family:ProximaNova-Bold, Proxima Nova;font-weight:700;}</style><clipPath id="clip-path"><rect id="SVGID" class="cls-1" width="47.49" height="18.52"/></clipPath><clipPath id="clip-path-2"><rect id="SVGID-2" data-name="SVGID" class="cls-1" width="47.49" height="18.52"/></clipPath></defs><path class="cls-2" d="M47.49,22.54a2.36,2.36,0,1,1-2.36-2.35,2.36,2.36,0,0,1,2.36,2.35"/><g class="cls-3"><g class="cls-4"><g class="cls-5"><path d="M47.49,9.26v9.26H9.26A9.26,9.26,0,0,1,9.26,0h29a9.26,9.26,0,0,1,9.26,9.26"/></g></g></g><path class="cls-6" d="M10.15,14.14H6.91A3.88,3.88,0,0,1,6,14.05a1.37,1.37,0,0,1-.63-.34A1.28,1.28,0,0,1,5,13.08a3.79,3.79,0,0,1-.09-.9v-6A3.79,3.79,0,0,1,5,5.23a1.28,1.28,0,0,1,.34-.63A1.37,1.37,0,0,1,6,4.26a3.94,3.94,0,0,1,.91-.09h3.24a4.87,4.87,0,0,1,1.94.39,5.28,5.28,0,0,1,1.58,1.08,5.15,5.15,0,0,1,1.07,1.57,5,5,0,0,1,0,3.89,5.19,5.19,0,0,1-1.07,1.58,5.25,5.25,0,0,1-1.58,1.07,4.87,4.87,0,0,1-1.94.39"/><text class="cls-7" transform="translate(18.26 8.16)">OFFICE<tspan x="0" y="5.03">MAPUTO</tspan></text></svg>