<svg id="Layer_1" data-name="Layer 1" width="243.725" height="95.826" xmlns="http://www.w3.org/2000/svg" viewBox="0 0 51.03 77.4"><defs><style>.cls-1{fill:#676d80;}.cls-2{font-size:5.28px;fill:#fff;letter-spacing:0.01em;}.cls-2,.cls-4,.cls-6,.cls-9{font-family:ProximaNova-Bold, Proxima Nova;font-weight:700;}.cls-3{fill:#55b9ba;}.cls-4{font-size:9.58px;}.cls-4,.cls-6,.cls-9{fill:#002c46;}.cls-5{fill:#2d314e;}.cls-6{font-size:6.6px;letter-spacing:0.01em;}.cls-10,.cls-7{fill:none;}.cls-8{fill:#cdcd98;}.cls-9{font-size:3.32px;letter-spacing:0.01em;}.cls-10{stroke:#fff;stroke-miterlimit:10;stroke-width:0.2px;}</style></defs><path class="cls-1" d="M11.56,11.41h36a0,0,0,0,1,0,0v9.31a3,3,0,0,1-3,3h-33a0,0,0,0,1,0,0V11.41A0,0,0,0,1,11.56,11.41Z"/><text class="cls-2" transform="translate(23.07 19) scale(1.07 1)">FACIM</text><rect class="cls-3" x="4.11" y="11.41" width="16.81" height="12.31"/><text class="cls-4" transform="translate(7.67 20.49)">14</text><path class="cls-5" d="M4.23,73.34a1.21,1.21,0,0,1,.94-1.5,1.34,1.34,0,0,1,1.59.94,1.22,1.22,0,0,1-.94,1.51,1.35,1.35,0,0,1-1.59-1"/><path class="cls-3" d="M4.14,11.41a0,0,0,0,1,0,0V6.08a3,3,0,0,1,3-3H21v8.3Z"/><text class="cls-6" transform="translate(6.19 9.58) scale(1.07 1)">6X3</text><rect class="cls-7" x="6.19" y="4.73" width="13.08" height="5.03"/><polygon class="cls-3" points="5.56 70.77 9.8 23.42 4.11 23.17 5.56 70.77"/><rect class="cls-8" x="20.97" y="3.08" width="26.56" height="8.3"/><text class="cls-9" transform="translate(22.15 8.52) scale(1.07 1)">BREVEMENTE</text><line class="cls-10" x1="47.53" y1="11.38" x2="4.14" y2="11.38"/></svg>