<svg id="Layer_1" data-name="Layer 1" width="243.725" height="95.826" xmlns="http://www.w3.org/2000/svg" viewBox="0 0 42.52 30.08"><defs><style>.cls-1{fill:#676d80;}.cls-2{font-size:5.28px;fill:#fff;letter-spacing:0.01em;}.cls-2,.cls-4,.cls-5{font-family:ProximaNova-Bold, Proxima Nova;font-weight:700;}.cls-3{fill:#e2c620;}.cls-4{font-size:9.58px;}.cls-5{font-size:6.6px;letter-spacing:0.01em;}.cls-6{fill:#2d314e;}</style></defs><path class="cls-1" d="M0,8.33H24.4a0,0,0,0,1,0,0V20.64a0,0,0,0,1,0,0H3a3,3,0,0,1-3-3V8.33A0,0,0,0,1,0,8.33Z"/><text class="cls-2" transform="translate(4.76 15.92) scale(1.07 1)">FPLM</text><path class="cls-3" d="M24.4,8.33H38.21a3,3,0,0,1,3,3v9.31a0,0,0,0,1,0,0H24.4a0,0,0,0,1,0,0V8.33A0,0,0,0,1,24.4,8.33Z"/><text class="cls-4" transform="translate(27.34 17.41)">26</text><path class="cls-3" d="M3,0H18.24a3,3,0,0,1,3,3V8.3a0,0,0,0,1,0,0H0a0,0,0,0,1,0,0V3A3,3,0,0,1,3,0Z"/><text class="cls-5" transform="translate(3.91 6.5) scale(1.07 1)">4X6</text><polygon class="cls-3" points="41.21 26.59 41.21 20.64 36.06 20.64 41.21 26.59"/><path class="cls-6" d="M40,29.1a1.21,1.21,0,0,1,.94-1.5,1.34,1.34,0,0,1,1.58.94,1.22,1.22,0,0,1-.94,1.51A1.33,1.33,0,0,1,40,29.1"/></svg>