<svg id="Layer_1" data-name="Layer 1" width="180" height="60" xmlns="http://www.w3.org/2000/svg" viewBox="0 0 48.08 29.44"><defs><style>.cls-1{fill:#676d81;}.cls-2{font-size:5.28px;fill:#fff;font-family:ProximaNovaA-Bold, Proxima Nova Alt;letter-spacing:0.01em;}.cls-2,.cls-4,.cls-5{font-weight:700;}.cls-3{fill:#e2c620;}.cls-4{font-size:9.58px;}.cls-4,.cls-5{font-family:ProximaNova-Bold, Proxima Nova;}.cls-5{font-size:6.6px;letter-spacing:0.01em;}.cls-6{fill:#2d314e;}</style></defs><path class="cls-1" d="M18.65,8.33H48.08a0,0,0,0,1,0,0v9.31a3,3,0,0,1-3,3H18.65a0,0,0,0,1,0,0V8.33A0,0,0,0,1,18.65,8.33Z"/><text class="cls-2" transform="translate(24.59 15.92) scale(1.07 1)">JANET</text><path class="cls-3" d="M4.84,8.33H18.65a0,0,0,0,1,0,0V20.64a0,0,0,0,1,0,0H1.84a0,0,0,0,1,0,0V11.33A3,3,0,0,1,4.84,8.33Z"/><text class="cls-4" transform="translate(4.78 17.41)">24 </text><path class="cls-3" d="M27.55,0H45.08a3,3,0,0,1,3,3V8.3a0,0,0,0,1,0,0H24.58a0,0,0,0,1,0,0V3A3,3,0,0,1,27.55,0Z"/><text class="cls-5" transform="translate(26.62 6.5) scale(1.07 1)">4,5X6</text><polygon class="cls-3" points="1.84 26.59 1.84 20.64 6.99 20.64 1.84 26.59"/><path class="cls-6" d="M0,28.45A1.23,1.23,0,0,1,1,27a1.35,1.35,0,0,1,1.59.95,1.21,1.21,0,0,1-.94,1.5A1.34,1.34,0,0,1,0,28.45"/></svg>