<svg id="Layer_1" data-name="Layer 1" width="243.725" height="95.826" xmlns="http://www.w3.org/2000/svg" viewBox="0 0 55.03 30.08"><defs><style>.cls-1{fill:#cdcd98;}.cls-2{font-size:5.28px;fill:#002c46;letter-spacing:0.01em;}.cls-2,.cls-4,.cls-5{font-family:ProximaNova-Bold, Proxima Nova;font-weight:700;}.cls-3{fill:#ee3d64;}.cls-4{font-size:9.58px;}.cls-5{font-size:6.6px;letter-spacing:0.01em;}.cls-6{fill:#2d314e;}</style></defs><path class="cls-1" d="M52,20.64H18.11V8.33H55v9.31A3,3,0,0,1,52,20.64Z"/><text class="cls-2" transform="translate(23.08 15.92) scale(1.07 1)">MARÍTIMO</text><path class="cls-3" d="M4.31,8.33H18.11a0,0,0,0,1,0,0V20.64a0,0,0,0,1,0,0H1.31a0,0,0,0,1,0,0V11.33A3,3,0,0,1,4.31,8.33Z"/><text class="cls-4" transform="translate(3.99 17.41)">01</text><path class="cls-3" d="M36.8,0H52a3,3,0,0,1,3,3V8.3a0,0,0,0,1,0,0H33.83a0,0,0,0,1,0,0V3A3,3,0,0,1,36.8,0Z"/><text class="cls-5" transform="translate(36.3 6.5) scale(1.07 1)">12X3</text><polygon class="cls-3" points="1.3 26.59 1.3 20.64 6.46 20.64 1.3 26.59"/><path class="cls-6" d="M0,29.1A1.22,1.22,0,0,1,1,27.6a1.35,1.35,0,0,1,1.59.94,1.22,1.22,0,0,1-.94,1.51A1.34,1.34,0,0,1,0,29.1"/></svg>