<svg id="Layer_1" data-name="Layer 1" width="243.725" height="95.826" xmlns="http://www.w3.org/2000/svg" viewBox="0 0 54 29.73"><defs><style>.cls-1{fill:#676d80;}.cls-2{font-size:5.28px;fill:#fff;letter-spacing:0.01em;}.cls-2,.cls-4,.cls-6{font-family:ProximaNova-Bold, Proxima Nova;font-weight:700;}.cls-3{fill:#e2c620;}.cls-4{font-size:9.58px;}.cls-5{fill:#2d314e;}.cls-6{font-size:6.6px;letter-spacing:0.01em;}</style></defs><path class="cls-1" d="M8.76,8.33H54a0,0,0,0,1,0,0v9.31a3,3,0,0,1-3,3H8.76a0,0,0,0,1,0,0V8.33A0,0,0,0,1,8.76,8.33Z"/><text class="cls-2" transform="translate(22.26 15.92) scale(1.07 1)">PANDORA</text><path class="cls-3" d="M4.31,8.33H18.11a0,0,0,0,1,0,0V20.64a0,0,0,0,1,0,0H1.31a0,0,0,0,1,0,0V11.33A3,3,0,0,1,4.31,8.33Z"/><text class="cls-4" transform="translate(4.16 17.41)">21</text><path class="cls-5" d="M0,28.75A1.22,1.22,0,0,1,1,27.25a1.34,1.34,0,0,1,1.59.94,1.22,1.22,0,0,1-.94,1.51A1.35,1.35,0,0,1,0,28.75"/><path class="cls-3" d="M35.76,0H51a3,3,0,0,1,3,3V8.3a0,0,0,0,1,0,0H32.79a0,0,0,0,1,0,0V3A3,3,0,0,1,35.76,0Z"/><text class="cls-6" transform="translate(36.84 6.5) scale(1.07 1)">6X3</text><polygon class="cls-3" points="1.3 26.23 7 20.34 1.3 20.09 1.3 26.23"/></svg>