<svg id="Layer_1" data-name="Layer 1" width="180" height="60" xmlns="http://www.w3.org/2000/svg" viewBox="0 0 71.25 20.64"><defs><style>.cls-1{fill:#2d314e;}.cls-2{fill:#681d58;}.cls-3{font-size:5.28px;fill:#fff;letter-spacing:0.01em;}.cls-3,.cls-5,.cls-6{font-family:ProximaNova-Bold, Proxima Nova;font-weight:700;}.cls-4{fill:#ee3d64;}.cls-5{font-size:9.58px;}.cls-6{font-size:6.6px;letter-spacing:0.01em;}</style></defs><path class="cls-1" d="M0,9.15A1.22,1.22,0,0,1,1,7.65a1.34,1.34,0,0,1,1.59.94,1.22,1.22,0,0,1-.94,1.51A1.35,1.35,0,0,1,0,9.15"/><path class="cls-2" d="M17,8.33H71.25a0,0,0,0,1,0,0v9.31a3,3,0,0,1-3,3H17a0,0,0,0,1,0,0V8.33A0,0,0,0,1,17,8.33Z"/><text class="cls-3" transform="translate(33.57 15.92) scale(1.07 1)">PP CIRCUS</text><path class="cls-4" d="M9.5,8.33H26.31a0,0,0,0,1,0,0V20.64a0,0,0,0,1,0,0H11.59A2.09,2.09,0,0,1,9.5,18.55V8.33A0,0,0,0,1,9.5,8.33Z"/><text class="cls-5" transform="translate(13.06 17.41)">11</text><path class="cls-4" d="M54.29,0h14a3,3,0,0,1,3,3V8.3a0,0,0,0,1,0,0H52.79a0,0,0,0,1,0,0V1.53A1.53,1.53,0,0,1,54.29,0Z"/><text class="cls-6" transform="translate(55.53 6.5) scale(1.07 1)">8X6</text><polygon class="cls-4" points="3.67 8.33 9.56 14.02 9.82 8.33 3.67 8.33"/></svg>