<svg id="Layer_1" data-name="Layer 1" width="243.725" height="95.826" xmlns="http://www.w3.org/2000/svg" viewBox="0 0 70.28 30.08"><defs><style>.cls-1{fill:#681d58;}.cls-2{font-size:5.28px;fill:#fff;letter-spacing:0.01em;}.cls-2,.cls-4,.cls-5{font-family:ProximaNova-Bold, Proxima Nova;font-weight:700;}.cls-3{fill:#ee3d64;}.cls-4{font-size:9.58px;}.cls-5{font-size:6.6px;letter-spacing:0.01em;}.cls-6{fill:#2d314e;}</style></defs><path class="cls-1" d="M0,8.33H52.17a0,0,0,0,1,0,0V20.64a0,0,0,0,1,0,0H2.09A2.09,2.09,0,0,1,0,18.55V8.33a0,0,0,0,1,0,0Z"/><text class="cls-2" transform="translate(2.34 15.92) scale(1.07 1)">POLANA SQUARE</text><path class="cls-3" d="M52.17,8.33H66.89A2.09,2.09,0,0,1,69,10.42V20.64a0,0,0,0,1,0,0H52.17a0,0,0,0,1,0,0V8.33A0,0,0,0,1,52.17,8.33Z"/><text class="cls-4" transform="translate(55.73 17.41)">12</text><path class="cls-3" d="M21.21,8.33H0a0,0,0,0,1,0,0V2.09A2.1,2.1,0,0,1,2.09,0H21.21a2.1,2.1,0,0,1,2,2.09V8.3C21.24,8.31,21.22,8.33,21.21,8.33Z"/><text class="cls-5" transform="translate(4.07 6.5) scale(1.07 1)">16X5</text><polygon class="cls-3" points="68.98 26.59 68.98 20.64 63.83 20.64 68.98 26.59"/><path class="cls-6" d="M67.71,29.1a1.23,1.23,0,0,1,1-1.5,1.34,1.34,0,0,1,1.58.94,1.22,1.22,0,0,1-.94,1.51,1.34,1.34,0,0,1-1.59-.95"/></svg>