<svg id="Layer_1" data-name="Layer 1" width="243.725" height="95.826" xmlns="http://www.w3.org/2000/svg" viewBox="0 0 51.03 52.4"><defs><style>.cls-1{fill:#2d314e;}.cls-2{fill:#676d80;}.cls-3{font-size:5.28px;fill:#fff;letter-spacing:0.01em;}.cls-3,.cls-5,.cls-6,.cls-8{font-family:ProximaNova-Bold, Proxima Nova;font-weight:700;}.cls-4{fill:#55b9ba;}.cls-5{font-size:9.58px;}.cls-5,.cls-6,.cls-8{fill:#002c46;}.cls-6{font-size:6.6px;letter-spacing:0.01em;}.cls-7{fill:#cdcd98;}.cls-8{font-size:3.32px;letter-spacing:0.01em;}</style></defs><path class="cls-1" d="M46.59,49.9a1.21,1.21,0,0,1-1.5-.94A1.35,1.35,0,0,1,46,47.37a1.22,1.22,0,0,1,1.51.94,1.34,1.34,0,0,1-.95,1.59"/><path class="cls-2" d="M2.38,9.79h28.4a0,0,0,0,1,0,0V22.1a0,0,0,0,1,0,0H5.38a3,3,0,0,1-3-3V9.79A0,0,0,0,1,2.38,9.79Z"/><text class="cls-3" transform="translate(4.59 17.38) scale(1.07 1)">REPINGA</text><path class="cls-4" d="M30.78,9.79H48.57a0,0,0,0,1,0,0V22.1a0,0,0,0,1,0,0H30.78a0,0,0,0,1,0,0V9.79A0,0,0,0,1,30.78,9.79Z"/><text class="cls-5" transform="translate(33.95 18.87)">15</text><path class="cls-4" d="M22,9.79H2.44a0,0,0,0,1,0,0V4.46a3,3,0,0,1,3-3H22S22,9.79,22,9.79Z"/><text class="cls-6" transform="translate(6.48 7.96) scale(1.07 1)">6X3</text><polygon class="cls-4" points="47.59 47.55 48.59 22.1 44.55 22.1 47.59 47.55"/><rect class="cls-7" x="21.96" y="1.49" width="26.63" height="8.3"/><text class="cls-8" transform="translate(24.16 6.66) scale(1.07 1)">BREVEMENTE</text></svg>