<svg id="Layer_1" data-name="Layer 1" width="243.725" height="95.826" xmlns="http://www.w3.org/2000/svg" viewBox="0 0 45.9 22.15"><defs><style>.cls-1{fill:#676d80;}.cls-2{font-size:5.28px;fill:#fff;letter-spacing:0.01em;}.cls-2,.cls-4,.cls-5{font-family:ProximaNova-Bold, Proxima Nova;font-weight:700;}.cls-3{fill:#e2c620;}.cls-4{font-size:9.58px;}.cls-5{font-size:6.6px;letter-spacing:0.01em;}.cls-6{fill:#2d314e;}</style></defs><path class="cls-1" d="M0,9.84H36.48a0,0,0,0,1,0,0V22.15a0,0,0,0,1,0,0H3a3,3,0,0,1-3-3V9.84A0,0,0,0,1,0,9.84Z"/><text class="cls-2" transform="translate(7.39 17.44) scale(1.07 1)">RONIL</text><path class="cls-3" d="M27.64,9.84H44.45a0,0,0,0,1,0,0v9.31a3,3,0,0,1-3,3H27.64a0,0,0,0,1,0,0V9.84a0,0,0,0,1,0,0Z"/><text class="cls-4" transform="translate(31.2 18.93)">20</text><path class="cls-3" d="M3,1.52H18.24a3,3,0,0,1,3,3v5.3a0,0,0,0,1,0,0H0a0,0,0,0,1,0,0V4.52A3,3,0,0,1,3,1.52Z"/><text class="cls-5" transform="translate(4.07 8.02) scale(1.07 1)">6X3</text><polygon class="cls-3" points="44.45 5.68 40.32 10 44.45 10 44.45 5.68"/><path class="cls-6" d="M42.19,2.21A1.76,1.76,0,0,1,43.55.05a1.93,1.93,0,0,1,2.29,1.36,1.77,1.77,0,0,1-1.36,2.17,2,2,0,0,1-2.29-1.37"/></svg>