<svg id="Layer_1" data-name="Layer 1" width="180" height="60" xmlns="http://www.w3.org/2000/svg" xmlns:xlink="http://www.w3.org/1999/xlink" viewBox="0 0 42.52 30.08"><defs><style>.cls-1{fill:none;}.cls-2{fill:#676d80;}.cls-3{font-size:5.28px;fill:#fff;letter-spacing:0.01em;}.cls-3,.cls-5,.cls-7{font-family:ProximaNova-Bold, Proxima Nova;font-weight:700;}.cls-4{fill:#55b9ba;}.cls-5{font-size:9.58px;}.cls-5,.cls-7{fill:#002c46;}.cls-6{clip-path:url(#clip-path);}.cls-7{font-size:6.6px;letter-spacing:0.01em;}.cls-8{fill:#2d314e;}</style><clipPath id="clip-path"><rect class="cls-1" x="4.08" y="1.65" width="13.08" height="5.03"/></clipPath></defs><path class="cls-2" d="M0,8.33H24.4a0,0,0,0,1,0,0V20.64a0,0,0,0,1,0,0H3a3,3,0,0,1-3-3V8.33A0,0,0,0,1,0,8.33Z"/><text class="cls-3" transform="translate(3.13 15.92) scale(1.07 1)">SCALA</text><path class="cls-4" d="M24.4,8.33H38.21a3,3,0,0,1,3,3v9.31a0,0,0,0,1,0,0H24.4a0,0,0,0,1,0,0V8.33A0,0,0,0,1,24.4,8.33Z"/><text class="cls-5" transform="translate(27.57 17.41)">19</text><path class="cls-4" d="M3,0H18.24a3,3,0,0,1,3,3V8.3a0,0,0,0,1,0,0H0a0,0,0,0,1,0,0V3A3,3,0,0,1,3,0Z"/><g class="cls-6"><text class="cls-7" transform="translate(4.07 6.5) scale(1.07 1)">6X3</text></g><polygon class="cls-4" points="41.21 26.59 41.21 20.64 36.06 20.64 41.21 26.59"/><path class="cls-8" d="M40,29.1a1.21,1.21,0,0,1,.94-1.5,1.34,1.34,0,0,1,1.58.94,1.22,1.22,0,0,1-.94,1.51A1.33,1.33,0,0,1,40,29.1"/></svg>