<svg id="Layer_1" data-name="Layer 1" width="140" height="40" xmlns="http://www.w3.org/2000/svg" xmlns:xlink="http://www.w3.org/1999/xlink" viewBox="0 0 61.77 21.48"><defs><style>.cls-1{fill:none;}.cls-2{fill:#55b9ba;}.cls-3{clip-path:url(#clip-path);}.cls-4{font-size:6.6px;letter-spacing:0.01em;}.cls-4,.cls-6,.cls-7{fill:#002c46;font-family:ProximaNova-Bold, Proxima Nova;font-weight:700;}.cls-5{fill:#cdcd98;}.cls-6{font-size:5.28px;letter-spacing:0.01em;}.cls-7{font-size:9.58px;}.cls-8{fill:#2d314e;}</style><clipPath id="clip-path"><rect class="cls-1" x="4.08" y="2.49" width="13.08" height="5.03"/></clipPath></defs><path class="cls-2" d="M3,.84H18.24a3,3,0,0,1,3,3v5.3a0,0,0,0,1,0,0H0a0,0,0,0,1,0,0V3.84A3,3,0,0,1,3,.84Z"/><g class="cls-3"><text class="cls-4" transform="translate(4.07 7.34) scale(1.07 1)">8X4</text></g><path class="cls-5" d="M0,9.17H43.67a0,0,0,0,1,0,0V21.48a0,0,0,0,1,0,0H3a3,3,0,0,1-3-3V9.17A0,0,0,0,1,0,9.17Z"/><text class="cls-6" transform="translate(2.82 16.76) scale(1.07 1)">TIME SQUARE</text><path class="cls-2" d="M43.67,9.17H60.48a0,0,0,0,1,0,0v9.31a3,3,0,0,1-3,3H43.67a0,0,0,0,1,0,0V9.17A0,0,0,0,1,43.67,9.17Z"/><text class="cls-7" transform="translate(47.23 18.25)">16</text><polygon class="cls-2" points="60.47 3.5 60.47 9.45 54.97 10.17 60.47 3.5"/><path class="cls-8" d="M59.2,1a1.22,1.22,0,0,0,.95,1.5,1.33,1.33,0,0,0,1.58-.94A1.22,1.22,0,0,0,60.79,0,1.35,1.35,0,0,0,59.2,1"/></svg>