<svg id="Layer_1" data-name="Layer 1" width="180" height="60" xmlns="http://www.w3.org/2000/svg" xmlns:xlink="http://www.w3.org/1999/xlink" viewBox="0 0 44.73 29.73"><defs><style>.cls-1{fill:none;}.cls-2{fill:#676d80;}.cls-3{font-size:5.28px;fill:#fff;letter-spacing:0.01em;}.cls-3,.cls-5,.cls-8{font-family:ProximaNova-Bold, Proxima Nova;font-weight:700;}.cls-4{fill:#55b9ba;}.cls-5{font-size:9.58px;}.cls-5,.cls-8{fill:#002c46;}.cls-6{fill:#2d314e;}.cls-7{clip-path:url(#clip-path);}.cls-8{font-size:6.6px;letter-spacing:0.01em;}</style><clipPath id="clip-path"><rect class="cls-1" x="27.57" y="1.65" width="13.08" height="5.03"/></clipPath></defs><path class="cls-2" d="M8.76,8.33h36a0,0,0,0,1,0,0v9.31a3,3,0,0,1-3,3h-33a0,0,0,0,1,0,0V8.33A0,0,0,0,1,8.76,8.33Z"/><text class="cls-3" transform="translate(22.26 15.92) scale(1.07 1)">ZAMBI</text><path class="cls-4" d="M4.31,8.33H18.11a0,0,0,0,1,0,0V20.64a0,0,0,0,1,0,0H1.31a0,0,0,0,1,0,0V11.33A3,3,0,0,1,4.31,8.33Z"/><text class="cls-5" transform="translate(4.87 17.41)">13</text><path class="cls-6" d="M0,28.75A1.22,1.22,0,0,1,1,27.25a1.34,1.34,0,0,1,1.59.94,1.22,1.22,0,0,1-.94,1.51A1.35,1.35,0,0,1,0,28.75"/><path class="cls-4" d="M26.49,0H41.73a3,3,0,0,1,3,3V8.3a0,0,0,0,1,0,0H23.52a0,0,0,0,1,0,0V3A3,3,0,0,1,26.49,0Z"/><g class="cls-7"><text class="cls-8" transform="translate(27.56 6.5) scale(1.07 1)">6X3</text></g><polygon class="cls-4" points="1.3 26.23 7 20.34 1.3 20.09 1.3 26.23"/></svg>