<svg id="Layer_1" width="243.725" height="95.826" data-name="Layer 1" xmlns="http://www.w3.org/2000/svg" viewBox="0 0 234 84"><defs><style>.cls-1{fill:#676d80;}.cls-2{fill:#fff;}.cls-3{fill:#e2c620;}.cls-4{fill:#2d314e;}</style></defs><path class="cls-1" d="M131.28,53.73H49a6.29,6.29,0,0,1-6.29-6.29V27.93h88.53Z"/><path class="cls-2" d="M51.31,43.85V42.6c3.24-2.23,4.18-3,4.18-3.89,0-.66-.62-1-1.28-1a2.93,2.93,0,0,0-2.12.85l-1-1a4.15,4.15,0,0,1,3-1.2c1.69,0,3,.88,3,2.36,0,1.26-1.12,2.35-3.16,3.75h3.22v1.39Z"/><path class="cls-2" d="M62,43.85V42.32H58.25V41.08l3.14-4.62h2.32v4.47h1v1.39h-1v1.53Zm0-6L59.9,40.93H62Z"/><path class="cls-2" d="M69,43.85V36.46h3.12c2.47,0,4.19,1.47,4.19,3.69s-1.72,3.7-4.18,3.7Zm5.59-3.7a2.23,2.23,0,0,0-2.46-2.31H70.73v4.62h1.43A2.29,2.29,0,0,0,74.63,40.15Z"/><path class="cls-2" d="M77.64,43.85V36.46h5.59v1.38h-3.9v1.55h3.82v1.39H79.33v1.68h3.9v1.39Z"/><path class="cls-2" d="M87.07,43.25l.74-1.2a1.83,1.83,0,0,0,1.25.53,1.13,1.13,0,0,0,1.23-1.18V36.46H92v5C92,43.16,90.82,44,89.21,44A3.1,3.1,0,0,1,87.07,43.25Z"/><path class="cls-2" d="M93.64,40.89V36.46h1.7v4.38a1.86,1.86,0,0,0,3.71,0V36.46h1.71v4.43c0,1.83-1.16,3.09-3.56,3.09S93.64,42.72,93.64,40.89Z"/><path class="cls-2" d="M102.35,43.85V36.46h1.7v6h3.34v1.39Z"/><path class="cls-2" d="M114,43.85V40.73H110.3v3.12h-1.68V36.46h1.68v2.9H114v-2.9h1.69v7.39Z"/><path class="cls-2" d="M117,40.16A4.14,4.14,0,1,1,121.13,44,3.85,3.85,0,0,1,117,40.16Zm6.52,0a2.4,2.4,0,1,0-2.39,2.42A2.3,2.3,0,0,0,123.52,40.16Z"/><path class="cls-3" d="M131.28,27.93h32.23a3,3,0,0,1,3,3v22.8a0,0,0,0,1,0,0H131.28a0,0,0,0,1,0,0V27.93A0,0,0,0,1,131.28,27.93Z"/><path d="M137.85,47V44.72c5.48-4.06,7.09-5.42,7.09-7.07,0-1.19-1.06-1.75-2.17-1.75a4.76,4.76,0,0,0-3.59,1.55l-1.63-1.89a6.85,6.85,0,0,1,5.16-2.19c2.87,0,5.12,1.61,5.12,4.28,0,2.29-1.89,4.28-5.36,6.81h5.46V47Z"/><path d="M149.35,45.06l1.51-1.91a5.22,5.22,0,0,0,3.67,1.53c1.63,0,2.53-.71,2.53-1.71s-.82-1.55-2.69-1.55c-.56,0-1.46,0-1.66,0V38.89c.24,0,1.16,0,1.66,0,1.49,0,2.49-.44,2.49-1.42s-1.1-1.59-2.49-1.59A4.8,4.8,0,0,0,151,37.29l-1.43-1.79a6.64,6.64,0,0,1,5.13-2.13c3.13,0,5.05,1.41,5.05,3.64a3.28,3.28,0,0,1-2.93,3.05,3.36,3.36,0,0,1,3.14,3.21c0,2.31-2.07,3.94-5.29,3.94A6.76,6.76,0,0,1,149.35,45.06Z"/><path class="cls-3" d="M45.75,10.47H84.27a3,3,0,0,1,3,3V27.9a0,0,0,0,1,0,0H42.78a0,0,0,0,1,0,0V13.47A3,3,0,0,1,45.75,10.47Z"/><path d="M51.79,19.5c0-2.8,1.69-4.78,4.61-4.78a4.56,4.56,0,0,1,2.91,1l-.94,1.51a2.74,2.74,0,0,0-2-.72,2.48,2.48,0,0,0-2.47,2.61,1.34,1.34,0,0,0,0,.2,3.26,3.26,0,0,1,2.53-1.19c1.78,0,3.38,1,3.38,3,0,1.8-1.54,3.17-3.79,3.17C53.05,24.26,51.79,22.1,51.79,19.5Zm5.91,1.66c0-1-.89-1.38-1.82-1.38a2.54,2.54,0,0,0-1.94.87,1.92,1.92,0,0,0,2,1.87C57.08,22.52,57.7,21.8,57.7,21.16Z"/><path d="M67.83,24.09l-2.48-3.37-2.48,3.37h-2.5L64,19.36l-3.36-4.5h2.5L65.35,18l2.24-3.16h2.53l-3.36,4.49,3.58,4.74Z"/><path d="M70.72,22.78l1.11-1.32a4,4,0,0,0,2.71,1.06c1.19,0,1.86-.49,1.86-1.18s-.61-1.07-2-1.07c-.42,0-1.08,0-1.23,0V18.53h1.23c1.09,0,1.83-.3,1.83-1s-.81-1.09-1.83-1.09a3.72,3.72,0,0,0-2.52,1l-1.05-1.23a5,5,0,0,1,3.77-1.47c2.31,0,3.73,1,3.73,2.51a2.33,2.33,0,0,1-2.16,2.1,2.4,2.4,0,0,1,2.31,2.22c0,1.59-1.52,2.71-3.89,2.71A5.1,5.1,0,0,1,70.72,22.78Z"/><polygon class="cls-3" points="166.51 66.2 166.51 53.73 155.71 53.73 166.51 66.2"/><path class="cls-4" d="M163.86,71.47a2.56,2.56,0,0,1,2-3.15,2.82,2.82,0,0,1,3.33,2,2.57,2.57,0,0,1-2,3.16,2.83,2.83,0,0,1-3.33-2"/></svg>