<svg width="243.725" height="95.826" id="Layer_1" data-name="Layer 1" xmlns="http://www.w3.org/2000/svg" xmlns:xlink="http://www.w3.org/1999/xlink" viewBox="0 0 234 84"><defs><style>.cls-1{fill:none;}.cls-2{fill:#676d80;}.cls-3{fill:#fff;}.cls-4{fill:#55b9ba;}.cls-5{fill:#002c46;}.cls-6{clip-path:url(#clip-path);}.cls-7{fill:#2d314e;}</style><clipPath id="clip-path"><rect class="cls-1" x="79.78" y="24.6" width="28.38" height="10.91"/></clipPath></defs><path class="cls-2" d="M70.94,39.09h52.94a0,0,0,0,1,0,0V65.8a0,0,0,0,1,0,0H73.94a3,3,0,0,1-3-3V39.09A0,0,0,0,1,70.94,39.09Z"/><path class="cls-3" d="M90.35,54.48l.92-1.09a3.32,3.32,0,0,0,2.24.87c1,0,1.55-.4,1.55-1s-.5-.88-1.64-.88l-1,0V51h1c.9,0,1.52-.25,1.52-.81s-.68-.91-1.52-.91a3.1,3.1,0,0,0-2.09.79l-.87-1a4.19,4.19,0,0,1,3.13-1.21c1.91,0,3.09.8,3.09,2.07a1.94,1.94,0,0,1-1.79,1.75,2,2,0,0,1,1.91,1.83c0,1.32-1.26,2.25-3.22,2.25A4.24,4.24,0,0,1,90.35,54.48Z"/><path class="cls-3" d="M97.64,54.48l.92-1.09a3.35,3.35,0,0,0,2.25.87c1,0,1.54-.4,1.54-1s-.5-.88-1.64-.88l-1,0V51h1c.91,0,1.52-.25,1.52-.81s-.67-.91-1.52-.91a3.1,3.1,0,0,0-2.09.79l-.87-1a4.22,4.22,0,0,1,3.13-1.21c1.92,0,3.09.8,3.09,2.07a1.94,1.94,0,0,1-1.79,1.75,2,2,0,0,1,1.92,1.83c0,1.32-1.27,2.25-3.23,2.25A4.26,4.26,0,0,1,97.64,54.48Z"/><path class="cls-4" d="M123.87,39.09h36.46a0,0,0,0,1,0,0V62.8a3,3,0,0,1-3,3H123.87a0,0,0,0,1,0,0V39.09A0,0,0,0,1,123.87,39.09Z"/><path class="cls-5" d="M135.82,58.8V48.74l-2.31,2.35-1.68-1.77,4.36-4.38h2.58V58.8Z"/><path class="cls-5" d="M140.84,51.9c0-4.2,2.37-7.17,6.47-7.17a6.16,6.16,0,0,1,4.09,1.43l-1.33,2.27a3.67,3.67,0,0,0-2.76-1.08,3.62,3.62,0,0,0-3.48,3.92,1,1,0,0,0,0,.3,4.48,4.48,0,0,1,3.55-1.79,4.42,4.42,0,0,1,4.74,4.51c0,2.7-2.16,4.76-5.32,4.76C142.61,59.05,140.84,55.81,140.84,51.9Zm8.29,2.49c0-1.45-1.24-2.08-2.55-2.08a3.5,3.5,0,0,0-2.72,1.31,2.77,2.77,0,0,0,2.8,2.81A2.25,2.25,0,0,0,149.13,54.39Z"/><path class="cls-4" d="M73.94,21H114a3,3,0,0,1,3,3v15a0,0,0,0,1,0,0H71a0,0,0,0,1,0,0V24A3,3,0,0,1,73.94,21Z"/><g class="cls-6"><path class="cls-5" d="M80.29,30.37c0-2.9,1.75-4.95,4.76-4.95a4.71,4.71,0,0,1,3,1l-1,1.56a2.83,2.83,0,0,0-2-.74,2.56,2.56,0,0,0-2.55,2.71,1.41,1.41,0,0,0,0,.2,3.4,3.4,0,0,1,2.62-1.24C87,28.9,88.62,30,88.62,32c0,1.87-1.59,3.28-3.92,3.28C81.59,35.29,80.29,33.06,80.29,30.37Zm6.11,1.71c0-1-.92-1.43-1.88-1.43a2.67,2.67,0,0,0-2,.9,2,2,0,0,0,2.07,1.94C85.76,33.49,86.4,32.74,86.4,32.08Z"/><path class="cls-5" d="M96.88,35.12l-2.55-3.49-2.58,3.49H89.16l3.71-4.9-3.48-4.65H92l2.35,3.26,2.31-3.26h2.62l-3.48,4.64,3.71,4.91Z"/><path class="cls-5" d="M99.88,33.76,101,32.4a4.11,4.11,0,0,0,2.8,1.09c1.24,0,1.93-.5,1.93-1.22s-.63-1.1-2.05-1.1c-.43,0-1.12,0-1.27,0V29.36c.18,0,.88,0,1.27,0,1.13,0,1.9-.32,1.9-1s-.85-1.13-1.9-1.13a3.81,3.81,0,0,0-2.61,1L100,26.94a5.23,5.23,0,0,1,3.91-1.52c2.39,0,3.86,1,3.86,2.6a2.41,2.41,0,0,1-2.24,2.17,2.48,2.48,0,0,1,2.39,2.3c0,1.64-1.57,2.8-4,2.8A5.3,5.3,0,0,1,99.88,33.76Z"/></g><polygon class="cls-4" points="160.33 26.46 149.86 39.48 160.33 39.09 160.33 26.46"/><path class="cls-7" d="M160.93,23.77a2.65,2.65,0,0,1-3.26-2,2.92,2.92,0,0,1,2.05-3.44,2.64,2.64,0,0,1,3.27,2,2.91,2.91,0,0,1-2.06,3.44"/></svg>