<?xml version="1.0" encoding="UTF-8"?>
<svg id="Layer_1" data-name="Layer 1" xmlns="http://www.w3.org/2000/svg" version="1.1" viewBox="0 0 40 40">
  <defs>
    <style>
      .cls-1 {
        fill: #676d80;
      }

      .cls-1, .cls-2, .cls-3, .cls-4 {
        stroke-width: 0px;
      }

      .cls-2 {
        fill: #2d314e;
      }

      .cls-3 {
        fill: #fff;
      }

      .cls-4 {
        fill: #ee3d64;
      }
    </style>
  </defs>
  <path class="cls-1" d="M7.5,20.1h16.4v6.1h-15.4c-.6,0-1-.5-1-1v-5.1h0Z"/>
  <path class="cls-3" d="M9.2,23c0-.5.4-.9.9-.9,0,0,0,0,0,0,.3,0,.6.2.8.4l-.3.2c0-.2-.3-.3-.4-.3-.3,0-.6.3-.6.6,0,.3.3.6.6.6h0c.2,0,.3,0,.4-.3l.3.2c-.2.3-.5.4-.8.4-.5,0-1-.3-1-.9,0,0,0,0,0,0Z"/>
  <path class="cls-3" d="M12.6,23.8v-.3h-.9v.3h-.6l.7-1.8h.5l.7,1.8h-.5ZM12,22.5l-.3.8h.6l-.3-.8Z"/>
  <path class="cls-3" d="M13.1,23.6l.2-.3c.2.2.4.2.6.2.2,0,.3,0,.3-.2,0-.3-1.1,0-1.1-.8s.3-.5.7-.5c.3,0,.5,0,.7.2l-.2.3c-.2-.1-.3-.2-.5-.2-.2,0-.3,0-.3.2,0,.3,1.1,0,1.1.7s-.2.6-.8.6c-.3,0-.6,0-.8-.3Z"/>
  <path class="cls-3" d="M14.9,23.8v-1.7h.4v1.7h-.4Z"/>
  <path class="cls-3" d="M17,23.8l-.9-1.1v1.1h-.4v-1.7h.4l.9,1.1v-1.1h.4v1.7h-.4Z"/>
  <path class="cls-3" d="M17.7,23c0-.5.4-1,.9-1.1s1,.4,1.1.9c0,.5-.4,1-.9,1.1,0,0,0,0,0,0-.5,0-.9-.3-1-.9,0,0,0,0,0,0ZM19.3,23c0-.3-.3-.6-.6-.6s-.6.3-.6.6c0,.3.3.6.6.6.3,0,.6-.2.6-.5,0,0,0,0,0,0Z"/>
  <path class="cls-3" d="M20.7,23.8v-1.7h1c.4,0,.5.2.5.4,0,.2-.1.4-.3.4.2,0,.4.2.4.4,0,.3-.2.5-.5.5,0,0,0,0,0,0h-1ZM21.9,22.6c0-.1,0-.2-.2-.2h-.5v.4h.5c.1,0,.2,0,.2-.2h0ZM21.9,23.3c0-.1,0-.2-.2-.2h-.5v.4h.5c.1,0,.2,0,.2-.2h0Z"/>
  <rect class="cls-4" x="24" y="20.1" width="8.4" height="6.1"/>
  <path class="cls-3" d="M25.4,23c0-.8.4-1.6,1.3-1.6s1.3.8,1.3,1.6-.4,1.6-1.3,1.6-1.3-.8-1.3-1.6ZM27.3,23c0-.6-.2-1-.6-1s-.6.5-.6,1,.2,1,.6,1,.6-.5.6-1Z"/>
  <path class="cls-3" d="M28.3,24.1l.4-.5c.2.2.5.4.9.4.4,0,.6-.2.6-.4s-.2-.4-.6-.4h-.4v-.6h.4c.4,0,.6-.1.6-.3s-.3-.4-.6-.4c-.3,0-.6.1-.8.3l-.3-.4c.3-.3.8-.5,1.2-.5.7,0,1.2.3,1.2.9,0,.4-.3.7-.7.7.4,0,.7.4.7.8,0,.6-.5.9-1.3.9-.5,0-1-.2-1.3-.5Z"/>
  <rect class="cls-1" x="7.5" y="13.9" width="16.4" height="6.1"/>
  <path class="cls-3" d="M9.2,16.8c0-.5.4-.9,1-.9,0,0,0,0,0,0,.3,0,.6.2.8.4l-.3.2c0-.2-.3-.3-.4-.3-.3,0-.6.2-.6.5,0,.3.2.6.5.6,0,0,0,0,0,0,.2,0,.3-.1.4-.3l.3.2c-.2.3-.5.4-.8.4-.5,0-1-.3-1-.9,0,0,0,0,0,0Z"/>
  <path class="cls-3" d="M12.6,17.7v-.3h-.9v.3h-.6l.7-1.8h.5l.7,1.8h-.5ZM12,16.3l-.3.8h.6l-.3-.8Z"/>
  <path class="cls-3" d="M13.1,17.5l.2-.3c.2.2.4.2.6.2.2,0,.3,0,.3-.2,0-.3-1.1,0-1.1-.8s.3-.5.7-.5c.3,0,.5,0,.7.2l-.2.3c-.2-.1-.3-.2-.5-.2-.2,0-.3,0-.3.2,0,.3,1.1,0,1.1.7s-.2.6-.8.6c-.3,0-.6,0-.8-.3Z"/>
  <path class="cls-3" d="M14.9,17.7v-1.8h.4v1.8h-.4Z"/>
  <path class="cls-3" d="M17,17.7l-.9-1.1v1.1h-.4v-1.8h.4l.9,1.1v-1.1h.4v1.8h-.4Z"/>
  <path class="cls-3" d="M17.7,16.8c0-.5.4-1,.9-1.1s1,.4,1.1.9c0,.5-.4,1-.9,1.1,0,0,0,0,0,0-.5,0-.9-.3-1-.9,0,0,0,0,0,0ZM19.3,16.8c0-.3-.3-.6-.6-.6-.3,0-.6.3-.6.6,0,.3.3.6.6.6.3,0,.6-.2.6-.5,0,0,0,0,0,0Z"/>
  <path class="cls-3" d="M22,17.7v-.3h-.9v.3h-.6l.7-1.8h.5l.7,1.8h-.5ZM21.5,16.3l-.3.8h.6l-.3-.8Z"/>
  <path class="cls-4" d="M24,13.9h7.4c.6,0,1,.5,1,1v5.1h-8.4v-6.1h0Z"/>
  <path class="cls-3" d="M25.4,16.9c0-.8.4-1.6,1.3-1.6s1.3.8,1.3,1.6-.4,1.6-1.3,1.6-1.3-.8-1.3-1.6ZM27.3,16.9c0-.6-.2-1-.6-1s-.6.5-.6,1,.2,1,.6,1,.6-.5.6-1Z"/>
  <path class="cls-3" d="M28.4,18.4v-.5c1.3-1,1.7-1.3,1.7-1.7s-.3-.4-.5-.4c-.3,0-.6.1-.9.4l-.4-.5c.3-.3.8-.5,1.2-.5.7,0,1.2.4,1.2,1s-.4,1-1.3,1.6h1.3v.6h-2.4Z"/>
  <path class="cls-4" d="M8.5,9.7h7.4c.3,0,.5.2.5.5v3.6H7.5v-3.2c0-.6.4-1,1-1Z"/>
  <path class="cls-3" d="M8.7,11.9c0-.6.4-1.1.9-1.1,0,0,.1,0,.2,0,.3,0,.5,0,.7.2l-.2.4c-.1-.1-.3-.2-.5-.2-.3,0-.6.3-.6.6,0,0,0,0,0,0,0,0,0,0,0,0,.1-.2.4-.3.6-.3.4,0,.8.3.8.7,0,0,0,0,0,0,0,.4-.4.8-.9.8,0,0,0,0,0,0-.7,0-1-.5-1-1.1ZM10.1,12.3c0-.2-.2-.3-.4-.3-.2,0-.3,0-.5.2,0,.3.2.5.5.4,0,0,0,0,0,0,.3,0,.4-.2.4-.3Z"/>
  <path class="cls-3" d="M12.5,13l-.6-.8-.6.8h-.6l.9-1.1-.8-1.1h.6l.5.8.5-.8h.6l-.8,1.1.9,1.1h-.6Z"/>
  <path class="cls-3" d="M13.2,12.7l.3-.3c.2.2.4.3.6.3.3,0,.4-.1.4-.3s-.1-.2-.5-.2h-.3v-.4h.3c.3,0,.4,0,.4-.2s-.2-.3-.4-.3c-.2,0-.4,0-.6.2l-.2-.3c.2-.2.6-.4.9-.3.5,0,.9.2.9.6,0,.3-.2.5-.5.5.3,0,.5.2.6.5,0,.4-.4.6-.9.6-.3,0-.7-.1-.9-.4Z"/>
  <polygon class="cls-4" points="32.3 29.2 32.3 26.2 29.8 26.2 32.3 29.2"/>
  <path class="cls-2" d="M31.7,30.4c0-.3.1-.7.4-.7,0,0,0,0,0,0,.3,0,.7.1.8.5,0,.3-.1.7-.4.7,0,0,0,0,0,0-.3,0-.7-.1-.8-.5"/>
  <rect class="cls-3" x="7.5" y="19.8" width="24.8" height=".3"/>
</svg>