<?xml version="1.0" encoding="UTF-8"?>
<svg id="Layer_1" data-name="Layer 1" xmlns="http://www.w3.org/2000/svg" version="1.1" viewBox="0 0 234 84">
  <defs>
    <style>
      .cls-1 {
        fill: #676d80;
      }

      .cls-1, .cls-2, .cls-3, .cls-4 {
        stroke-width: 0px;
      }

      .cls-2 {
        fill: #2d314e;
      }

      .cls-3 {
        fill: #fff;
      }

      .cls-4 {
        fill: #ee3d64;
      }
    </style>
  </defs>
  <path class="cls-1" d="M79.1,41.7h48.9v18.3h-45.9c-1.7,0-3-1.3-3-3v-15.3h0Z"/>
  <path class="cls-3" d="M84.1,50.4c0-1.5,1.3-2.7,2.8-2.7,0,0,.1,0,.2,0,1,0,1.9.5,2.3,1.3l-1,.5c-.3-.5-.8-.8-1.3-.8-.9,0-1.7.8-1.7,1.7,0,.9.8,1.7,1.7,1.7h0c.5,0,1-.3,1.3-.8l1,.5c-.5.8-1.4,1.3-2.3,1.3-1.5.1-2.9-1-3-2.6,0,0,0-.1,0-.2Z"/>
  <path class="cls-3" d="M94.1,53l-.3-.9h-2.4l-.3.9h-1.4l2.2-5.2h1.5l2.2,5.2h-1.3ZM92.5,48.9l-.9,2.3h1.8l-.9-2.3Z"/>
  <path class="cls-3" d="M95.7,52.3l.7-.9c.5.5,1.1.7,1.8.7.7,0,1-.3,1-.6,0-.9-3.2-.3-3.2-2.2s.8-1.6,2.1-1.6c.8,0,1.6.2,2.2.7l-.7.8c-.5-.4-1-.6-1.6-.6-.5,0-.8.2-.8.5,0,.8,3.2.3,3.2,2.2s-.7,1.7-2.2,1.7c-.9,0-1.7-.2-2.4-.8Z"/>
  <path class="cls-3" d="M101.2,53v-5.2h1.2v5.2h-1.2Z"/>
  <path class="cls-3" d="M107.4,53l-2.7-3.4v3.4h-1.2v-5.2h1.2l2.6,3.3v-3.3h1.2v5.2h-1.1Z"/>
  <path class="cls-3" d="M109.4,50.4c-.1-1.6,1.1-3,2.7-3.2s3,1.1,3.2,2.7c.1,1.6-1.1,3-2.7,3.2,0,0-.1,0-.2,0-1.5.1-2.8-1-2.9-2.5,0,0,0-.1,0-.2ZM114.1,50.4c0-.9-.8-1.7-1.7-1.7s-1.7.8-1.7,1.7c0,.9.8,1.7,1.7,1.7.9,0,1.7-.7,1.7-1.6,0,0,0,0,0-.1Z"/>
  <path class="cls-3" d="M118.4,53v-5.2h3c1.1,0,1.6.6,1.6,1.3,0,.6-.4,1.1-1,1.2.6,0,1.1.6,1.1,1.3,0,.8-.7,1.4-1.5,1.4,0,0-.1,0-.2,0h-3ZM121.8,49.3c0-.3-.2-.5-.7-.5h-1.5v1.1h1.5c.4,0,.7-.2.7-.5h0ZM121.9,51.4c0-.3-.2-.6-.7-.6h-1.6v1.2h1.6c.4,0,.7-.2.7-.6h0Z"/>
  <rect class="cls-4" x="128" y="41.7" width="25" height="18.3"/>
  <path class="cls-3" d="M132.2,50.5c0-2.5,1.2-4.9,3.9-4.9s3.9,2.5,3.9,4.9-1.2,4.9-3.9,4.9-3.9-2.4-3.9-4.9ZM138.1,50.5c0-1.8-.5-3.1-1.9-3.1s-1.9,1.3-1.9,3.1.5,3.1,1.9,3.1,1.9-1.4,1.9-3.1Z"/>
  <path class="cls-3" d="M140.9,53.9l1.1-1.3c.7.7,1.6,1.1,2.6,1.1,1.1,0,1.8-.5,1.8-1.2s-.6-1.1-1.9-1.1h-1.2v-1.8h1.2c1.1,0,1.8-.3,1.8-1s-.8-1.1-1.8-1.1c-.9,0-1.8.4-2.4,1l-1-1.3c.9-1,2.3-1.6,3.6-1.5,2.2,0,3.6,1,3.6,2.6,0,1.1-1,2.1-2.1,2.2,1.2,0,2.2,1.1,2.2,2.3,0,1.6-1.5,2.8-3.7,2.8-1.4,0-2.8-.5-3.8-1.5Z"/>
  <rect class="cls-1" x="79.1" y="23.4" width="48.9" height="18.3"/>
  <path class="cls-3" d="M84.1,32.1c0-1.5,1.3-2.8,2.8-2.7,0,0,.1,0,.2,0,1,0,1.9.5,2.3,1.3l-1,.5c-.3-.5-.8-.8-1.3-.8-1,0-1.8.6-1.9,1.6,0,1,.6,1.8,1.6,1.9,0,0,.2,0,.3,0,.5,0,1-.3,1.3-.8l1,.5c-.5.8-1.4,1.3-2.3,1.3-1.5.1-2.9-1-3-2.6,0,0,0-.1,0-.2Z"/>
  <path class="cls-3" d="M94.1,34.7l-.3-.9h-2.4l-.3.9h-1.3l2.2-5.2h1.5l2.2,5.2h-1.4ZM92.5,30.6l-.9,2.2h1.8l-.9-2.2Z"/>
  <path class="cls-3" d="M95.7,34l.7-.9c.5.5,1.1.7,1.8.7.7,0,1-.3,1-.6,0-.9-3.2-.3-3.2-2.2s.8-1.6,2.1-1.6c.8,0,1.6.2,2.2.7l-.7.8c-.5-.4-1-.6-1.6-.6-.5,0-.8.2-.8.5,0,.8,3.2.3,3.2,2.2s-.7,1.7-2.2,1.7c-.9,0-1.7-.3-2.4-.8Z"/>
  <path class="cls-3" d="M101.2,34.7v-5.2h1.2v5.2h-1.2Z"/>
  <path class="cls-3" d="M107.4,34.7l-2.7-3.4v3.4h-1.2v-5.2h1.2l2.6,3.3v-3.3h1.2v5.2h-1.1Z"/>
  <path class="cls-3" d="M109.4,32.1c-.1-1.6,1.1-3,2.7-3.2s3,1.1,3.2,2.7c.1,1.6-1.1,3-2.7,3.2,0,0-.1,0-.2,0-1.5.1-2.8-1-2.9-2.5,0,0,0-.1,0-.2ZM114.1,32.1c0-.9-.8-1.7-1.7-1.7-.9,0-1.7.8-1.7,1.7,0,.9.8,1.7,1.7,1.7.9,0,1.7-.7,1.7-1.6,0,0,0,0,0-.1Z"/>
  <path class="cls-3" d="M122.3,34.7l-.3-.9h-2.4l-.4.9h-1.3l2.2-5.2h1.5l2.2,5.2h-1.4ZM120.8,30.6l-.9,2.2h1.8l-.9-2.2Z"/>
  <path class="cls-4" d="M128,23.4h22c1.7,0,3,1.3,3,3v15.3h-25v-18.3h0Z"/>
  <path class="cls-3" d="M132.2,32.2c0-2.5,1.2-4.9,3.9-4.9s3.9,2.5,3.9,4.9-1.2,4.9-3.9,4.9-3.9-2.5-3.9-4.9ZM138.1,32.2c0-1.8-.5-3.1-1.9-3.1s-1.9,1.4-1.9,3.1.5,3.1,1.9,3.1,1.9-1.4,1.9-3.1Z"/>
  <path class="cls-3" d="M141.3,36.9v-1.6c3.9-2.9,5-3.8,5-5s-.8-1.2-1.5-1.2c-1,0-1.9.4-2.6,1.1l-1.1-1.3c.9-1,2.3-1.6,3.6-1.5,2,0,3.6,1.1,3.6,3s-1.3,3-3.8,4.8h3.9v1.8h-7.1Z"/>
  <path class="cls-4" d="M82.1,11h21.9c.8,0,1.5.7,1.5,1.5v10.9h-26.4v-9.4c0-1.6,1.3-3,3-3Z"/>
  <path class="cls-3" d="M82.7,17.4c-.2-1.7,1.1-3.2,2.8-3.4.1,0,.3,0,.4,0,.7,0,1.5.2,2.1.7l-.7,1.1c-.4-.4-.9-.5-1.4-.5-1,0-1.8.8-1.8,1.8,0,0,0,0,0,0,0,0,0,0,0,.1.4-.5,1.1-.8,1.8-.9,1.2-.1,2.3.8,2.4,2,0,0,0,.1,0,.2,0,1.3-1.2,2.3-2.5,2.3,0,0,0,0-.1,0-2.1,0-3-1.5-3-3.4ZM86.9,18.6c0-.7-.6-1-1.3-1-.5,0-1,.2-1.4.6,0,.8.6,1.3,1.4,1.3,0,0,0,0,0,0,.8,0,1.2-.5,1.2-1Z"/>
  <path class="cls-3" d="M94,20.7l-1.8-2.4-1.8,2.4h-1.7l2.5-3.4-2.4-3.2h1.8l1.6,2.2,1.6-2.2h1.8l-2.4,3.2,2.5,3.4h-1.8Z"/>
  <path class="cls-3" d="M96.1,19.8l.8-.9c.5.5,1.2.7,1.9.8.8,0,1.3-.4,1.3-.8s-.4-.7-1.4-.7h-.9v-1.2h.9c.8,0,1.3-.2,1.3-.7s-.6-.8-1.3-.8c-.7,0-1.3.2-1.8.7l-.7-.9c.7-.7,1.7-1.1,2.7-1,1.6,0,2.6.7,2.6,1.8,0,.8-.7,1.4-1.5,1.5.9,0,1.6.7,1.6,1.6,0,1.1-1.1,1.9-2.8,1.9-1,0-2-.3-2.8-1.1Z"/>
  <polygon class="cls-4" points="153 68.9 153 60 145.3 60 153 68.9"/>
  <path class="cls-2" d="M151.1,72.6c-.3-1,.3-2,1.3-2.2,0,0,0,0,.1,0,1-.2,2.1.4,2.4,1.4.3,1-.3,2-1.3,2.2,0,0,0,0,0,0-1,.2-2.1-.4-2.4-1.4"/>
  <rect class="cls-3" x="79.1" y="41" width="73.9" height=".8"/>
</svg>
