<svg id="Layer_1" data-name="Layer 1" xmlns="http://www.w3.org/2000/svg" viewBox="0 0 234 84"><defs><style>.cls-1{fill:#676d80;}.cls-2{fill:#fff;}.cls-3{fill:#ee3d64;}.cls-4{fill:#2d314e;}</style></defs><path class="cls-1" d="M79.06,41.73H128a0,0,0,0,1,0,0V60a0,0,0,0,1,0,0H82.06a3,3,0,0,1-3-3V41.73A0,0,0,0,1,79.06,41.73Z"/><path class="cls-2" d="M84.11,50.41a2.77,2.77,0,0,1,3-2.71A2.56,2.56,0,0,1,89.44,49l-1,.47a1.54,1.54,0,0,0-1.31-.76,1.72,1.72,0,1,0,0,3.44,1.54,1.54,0,0,0,1.31-.76l1,.46a2.57,2.57,0,0,1-2.33,1.29A2.78,2.78,0,0,1,84.11,50.41Z"/><path class="cls-2" d="M94.1,53l-.35-.89H91.34L91,53H89.64l2.16-5.24h1.49L95.45,53ZM92.54,48.9l-.87,2.26h1.75Z"/><path class="cls-2" d="M95.65,52.29l.66-.87a2.56,2.56,0,0,0,1.78.71c.66,0,1-.27,1-.58,0-.91-3.23-.27-3.23-2.25,0-.87.8-1.59,2.12-1.59a3.23,3.23,0,0,1,2.19.73l-.66.83a2.53,2.53,0,0,0-1.63-.57c-.51,0-.8.2-.8.52,0,.82,3.23.26,3.23,2.22,0,1-.74,1.68-2.25,1.68A3.36,3.36,0,0,1,95.65,52.29Z"/><path class="cls-2" d="M101.15,53V47.79h1.19V53Z"/><path class="cls-2" d="M107.39,53l-2.68-3.42V53h-1.19V47.79h1.23l2.59,3.29V47.79h1.2V53Z"/><path class="cls-2" d="M109.44,50.41a2.94,2.94,0,1,1,2.94,2.71A2.74,2.74,0,0,1,109.44,50.41Zm4.64,0a1.71,1.71,0,1,0-1.7,1.72A1.64,1.64,0,0,0,114.08,50.41Z"/><path class="cls-2" d="M118.44,53V47.79h3c1.07,0,1.61.63,1.61,1.33a1.19,1.19,0,0,1-1,1.21,1.27,1.27,0,0,1,1.07,1.28A1.43,1.43,0,0,1,121.48,53Zm3.34-3.71c0-.32-.25-.55-.65-.55h-1.5v1.1h1.5C121.53,49.87,121.78,49.66,121.78,49.32Zm.11,2.13c0-.33-.25-.6-.71-.6h-1.55v1.2h1.55C121.62,52.05,121.89,51.83,121.89,51.45Z"/><rect class="cls-3" x="128" y="41.73" width="24.99" height="18.31"/><path class="cls-2" d="M132.25,50.5c0-2.45,1.21-4.9,3.93-4.9s3.93,2.45,3.93,4.9-1.21,4.91-3.93,4.91S132.25,53,132.25,50.5Zm5.8,0c0-1.75-.5-3.1-1.87-3.1s-1.86,1.35-1.86,3.1.51,3.12,1.86,3.12S138.05,52.25,138.05,50.5Z"/><path class="cls-2" d="M140.88,53.89,142,52.54a3.74,3.74,0,0,0,2.61,1.08c1.15,0,1.79-.5,1.79-1.21s-.58-1.1-1.91-1.1c-.4,0-1,0-1.18,0V49.52h1.18c1.06,0,1.77-.31,1.77-1s-.78-1.12-1.77-1.12a3.44,3.44,0,0,0-2.42,1l-1-1.27a4.71,4.71,0,0,1,3.63-1.51c2.22,0,3.59,1,3.59,2.58a2.33,2.33,0,0,1-2.08,2.17,2.37,2.37,0,0,1,2.22,2.27c0,1.64-1.46,2.79-3.74,2.79A4.79,4.79,0,0,1,140.88,53.89Z"/><rect class="cls-1" x="79.06" y="23.42" width="48.94" height="18.31"/><path class="cls-2" d="M84.11,32.1a2.78,2.78,0,0,1,3-2.72,2.57,2.57,0,0,1,2.33,1.29l-1,.47a1.53,1.53,0,0,0-1.31-.77,1.73,1.73,0,1,0,0,3.45,1.53,1.53,0,0,0,1.31-.77l1,.47a2.59,2.59,0,0,1-2.33,1.29A2.78,2.78,0,0,1,84.11,32.1Z"/><path class="cls-2" d="M94.1,34.71l-.35-.89H91.34l-.35.89H89.64l2.16-5.24h1.49l2.16,5.24Zm-1.56-4.12-.87,2.25h1.75Z"/><path class="cls-2" d="M95.65,34l.66-.87a2.52,2.52,0,0,0,1.78.72c.66,0,1-.28,1-.59,0-.91-3.23-.27-3.23-2.24,0-.87.8-1.6,2.12-1.6a3.23,3.23,0,0,1,2.19.73l-.66.84a2.49,2.49,0,0,0-1.63-.58c-.51,0-.8.21-.8.52,0,.83,3.23.27,3.23,2.22,0,1-.74,1.69-2.25,1.69A3.36,3.36,0,0,1,95.65,34Z"/><path class="cls-2" d="M101.15,34.71V29.47h1.19v5.24Z"/><path class="cls-2" d="M107.39,34.71l-2.68-3.42v3.42h-1.19V29.47h1.23l2.59,3.29V29.47h1.2v5.24Z"/><path class="cls-2" d="M109.44,32.1a2.94,2.94,0,1,1,2.94,2.71A2.74,2.74,0,0,1,109.44,32.1Zm4.64,0a1.71,1.71,0,1,0-1.7,1.72A1.64,1.64,0,0,0,114.08,32.1Z"/><path class="cls-2" d="M122.31,34.71l-.35-.89h-2.4l-.36.89h-1.35L120,29.47h1.5l2.16,5.24Zm-1.55-4.12-.88,2.25h1.75Z"/><path class="cls-3" d="M128,23.42h22a3,3,0,0,1,3,3V41.73a0,0,0,0,1,0,0H128a0,0,0,0,1,0,0V23.42A0,0,0,0,1,128,23.42Z"/><path class="cls-2" d="M132.25,32.19c0-2.45,1.21-4.9,3.93-4.9s3.93,2.45,3.93,4.9-1.21,4.91-3.93,4.91S132.25,34.64,132.25,32.19Zm5.8,0c0-1.75-.5-3.11-1.87-3.11s-1.86,1.36-1.86,3.11.51,3.11,1.86,3.11S138.05,33.94,138.05,32.19Z"/><path class="cls-2" d="M141.27,36.93v-1.6c3.89-2.87,5-3.84,5-5,0-.84-.75-1.24-1.53-1.24a3.38,3.38,0,0,0-2.55,1.1l-1.15-1.34a4.81,4.81,0,0,1,3.65-1.55c2,0,3.63,1.14,3.63,3,0,1.62-1.33,3-3.8,4.83h3.88v1.78Z"/><path class="cls-3" d="M82.06,11H104a1.53,1.53,0,0,1,1.53,1.53V23.39a0,0,0,0,1,0,0H79.09a0,0,0,0,1,0,0V14A3,3,0,0,1,82.06,11Z"/><path class="cls-2" d="M82.66,17.44a3.11,3.11,0,0,1,3.26-3.39,3.25,3.25,0,0,1,2.07.67l-.67,1.08a1.92,1.92,0,0,0-1.4-.52,1.76,1.76,0,0,0-1.75,1.86.66.66,0,0,0,0,.14,2.35,2.35,0,0,1,1.8-.85,2.18,2.18,0,0,1,2.39,2.14,2.41,2.41,0,0,1-2.69,2.25C83.55,20.82,82.66,19.28,82.66,17.44Zm4.19,1.18c0-.69-.63-1-1.29-1a1.84,1.84,0,0,0-1.38.62,1.36,1.36,0,0,0,1.42,1.33C86.41,19.58,86.85,19.07,86.85,18.62Z"/><path class="cls-2" d="M94,20.7l-1.75-2.4-1.77,2.4H88.74l2.54-3.36-2.38-3.2h1.77l1.61,2.24,1.58-2.24h1.8l-2.38,3.19,2.54,3.37Z"/><path class="cls-2" d="M96.08,19.77l.79-.94a2.85,2.85,0,0,0,1.92.75c.85,0,1.33-.35,1.33-.84S99.69,18,98.71,18l-.87,0V16.75h.87c.78,0,1.3-.22,1.3-.7s-.58-.78-1.3-.78a2.66,2.66,0,0,0-1.79.68l-.74-.87a3.57,3.57,0,0,1,2.68-1c1.63,0,2.64.68,2.64,1.77a1.66,1.66,0,0,1-1.53,1.5,1.71,1.71,0,0,1,1.64,1.57c0,1.13-1.09,1.93-2.76,1.93A3.68,3.68,0,0,1,96.08,19.77Z"/><polygon class="cls-3" points="153 68.89 153 60.04 145.34 60.04 153 68.89"/><path class="cls-4" d="M151.12,72.63a1.81,1.81,0,0,1,1.4-2.24,2,2,0,0,1,2.36,1.41,1.82,1.82,0,0,1-1.4,2.24,2,2,0,0,1-2.36-1.41"/><rect class="cls-2" x="79.06" y="41.05" width="73.94" height="0.75"/></svg>