<svg width="243.725" height="95.826" id="Layer_1" data-name="Layer 1" xmlns="http://www.w3.org/2000/svg" xmlns:xlink="http://www.w3.org/1999/xlink" viewBox="0 0 234 84"><defs><style>.cls-1{fill:none;}.cls-2{fill:#676d80;}.cls-3{fill:#fff;}.cls-4{fill:#ee3d64;}.cls-5{fill:#2d314e;}.cls-6{clip-path:url(#clip-path);}.cls-7{fill:#ffe5ed;}</style><clipPath id="clip-path"><rect class="cls-1" x="137.85" y="14.02" width="27.72" height="10.66"/></clipPath></defs><path class="cls-2" d="M78.35,28.17h95.86a0,0,0,0,1,0,0V51.26a3,3,0,0,1-3,3H78.35a0,0,0,0,1,0,0V28.17A0,0,0,0,1,78.35,28.17Z"/><path class="cls-3" d="M111.61,40.54a3.94,3.94,0,0,1,4.26-3.87,3.67,3.67,0,0,1,3.33,1.83l-1.46.67a2.17,2.17,0,0,0-1.87-1.08,2.45,2.45,0,1,0,0,4.9,2.17,2.17,0,0,0,1.87-1.08l1.46.66a3.69,3.69,0,0,1-3.33,1.83A4,4,0,0,1,111.61,40.54Z"/><path class="cls-3" d="M124.83,44.27l-1.57-2.66H122v2.66h-1.7V36.8h3.73a2.43,2.43,0,0,1,2.7,2.41A2.19,2.19,0,0,1,125,41.42l1.81,2.85Zm.17-5.08c0-.61-.51-1-1.19-1H122v2h1.79A1.05,1.05,0,0,0,125,39.19Z"/><path class="cls-3" d="M128.11,44.27V36.8h1.7v7.47Z"/><path class="cls-3" d="M130.94,43.22l.93-1.25a3.64,3.64,0,0,0,2.54,1c1,0,1.39-.39,1.39-.83,0-1.3-4.6-.39-4.6-3.2,0-1.24,1.15-2.27,3-2.27a4.61,4.61,0,0,1,3.12,1l-.95,1.19a3.53,3.53,0,0,0-2.32-.82c-.72,0-1.13.29-1.13.74,0,1.17,4.59.38,4.59,3.17,0,1.36-1,2.39-3.2,2.39A4.81,4.81,0,0,1,130.94,43.22Z"/><path class="cls-3" d="M140.62,44.27V38.2h-2.34V36.8h6.37v1.4h-2.32v6.07Z"/><path class="cls-3" d="M151.36,44.27l-.5-1.27h-3.43l-.5,1.27H145l3.08-7.47h2.13l3.08,7.47Zm-2.22-5.88L147.9,41.6h2.49Z"/><path class="cls-3" d="M154.05,44.27V36.8h1.72v6.07h3.38v1.4Z"/><path class="cls-4" d="M65.55,28.17H98.17a0,0,0,0,1,0,0V54.26a0,0,0,0,1,0,0H62.55a0,0,0,0,1,0,0V31.17A3,3,0,0,1,65.55,28.17Z"/><path class="cls-3" d="M72.73,47.42V37.6l-2.25,2.29-1.65-1.72,4.26-4.28h2.52V47.42Z"/><path class="cls-3" d="M77.64,40.67c0-3.5,1.73-7,5.6-7s5.6,3.49,5.6,7-1.72,7-5.6,7S77.64,44.16,77.64,40.67Zm8.26,0c0-2.5-.71-4.43-2.66-4.43s-2.66,1.93-2.66,4.43.73,4.44,2.66,4.44S85.9,43.16,85.9,40.67Z"/><path class="cls-5" d="M59.87,71.45a2.59,2.59,0,0,1,2-3.19,2.85,2.85,0,0,1,3.36,2,2.59,2.59,0,0,1-2,3.2,2.86,2.86,0,0,1-3.37-2"/><path class="cls-4" d="M174.2,16.87V28.1s0,.07-.06.07H129.28s-.06,0-.06-.07V16.87a6.35,6.35,0,0,1,6.06-6.33,1.42,1.42,0,0,1,.29,0h32.28A6.35,6.35,0,0,1,174.2,16.87Z"/><g class="cls-6"><path class="cls-3" d="M143,24.3V22.37h-4.77V20.8l4-5.83h2.94v5.65h1.29v1.75h-1.29V24.3Zm0-7.57-2.69,3.89H143Z"/><path class="cls-3" d="M154.4,24.3l-2.5-3.41-2.51,3.41h-2.53l3.62-4.79L147.08,15h2.53l2.29,3.19L154.16,15h2.56l-3.4,4.53L157,24.3Z"/><path class="cls-3" d="M157.53,19.65c0-2.82,1.71-4.82,4.66-4.82a4.57,4.57,0,0,1,2.94,1l-.95,1.53a2.74,2.74,0,0,0-2-.73,2.5,2.5,0,0,0-2.5,2.64,1.34,1.34,0,0,0,0,.2,3.34,3.34,0,0,1,2.56-1.2c1.8,0,3.41,1.05,3.41,3,0,1.82-1.55,3.21-3.83,3.21C158.8,24.47,157.53,22.29,157.53,19.65Zm6,1.68c0-1-.9-1.4-1.84-1.4a2.6,2.6,0,0,0-2,.89,1.93,1.93,0,0,0,2,1.88C162.87,22.7,163.5,22,163.5,21.33Z"/></g><polygon class="cls-4" points="62.55 66.11 74.61 53.64 62.55 53.09 62.55 66.11"/><path class="cls-7" d="M129.22,16.87V28.1s0,.07.06.07h-.05v.19H60.92l.15-15a3.09,3.09,0,0,1,3.08-2.93h71.13v.07A6.35,6.35,0,0,0,129.22,16.87Z"/><path d="M85.91,21.33l.93-1.25a3.63,3.63,0,0,0,2.55,1c1,0,1.4-.4,1.4-.83,0-1.31-4.62-.4-4.62-3.22,0-1.25,1.16-2.28,3-2.28a4.67,4.67,0,0,1,3.13,1l-1,1.19a3.61,3.61,0,0,0-2.33-.82c-.73,0-1.13.3-1.13.75,0,1.18,4.6.38,4.6,3.18,0,1.37-1.06,2.4-3.21,2.4A4.78,4.78,0,0,1,85.91,21.33Z"/><path d="M93.38,18.65a4.2,4.2,0,1,1,4.2,3.87A3.91,3.91,0,0,1,93.38,18.65Zm6.63,0a2.44,2.44,0,1,0-4.87,0,2.44,2.44,0,1,0,4.87,0Z"/><path d="M102.68,18.65a4.2,4.2,0,1,1,4.19,3.87A3.9,3.9,0,0,1,102.68,18.65Zm6.62,0a2.44,2.44,0,1,0-4.87,0,2.44,2.44,0,1,0,4.87,0Z"/><path d="M117.89,22.39l-3.83-4.89v4.89h-1.7v-7.5h1.75l3.72,4.71V14.89h1.7v7.5Z"/></svg>