<svg width="243.725" height="95.826" id="Layer_1" data-name="Layer 1" xmlns="http://www.w3.org/2000/svg" viewBox="0 0 234 84"><defs><style>.cls-1{fill:#676d80;}.cls-2{fill:#fff;}.cls-3{fill:#e2c620;}.cls-4{fill:#2d314e;}</style></defs><path class="cls-1" d="M61.45,27.93h51.14a0,0,0,0,1,0,0v25.8a0,0,0,0,1,0,0H64.45a3,3,0,0,1-3-3V27.93A0,0,0,0,1,61.45,27.93Z"/><path class="cls-2" d="M72.21,43.85V36.46H77.8v1.38H73.89V39.4h3.83v1.38H73.89v3.07Z"/><path class="cls-2" d="M79.07,43.85V36.46h3.69a2.39,2.39,0,1,1,0,4.75h-2v2.64Zm4.63-5a1,1,0,0,0-1.17-1H80.75v2h1.78A1,1,0,0,0,83.7,38.84Z"/><path class="cls-2" d="M86.5,43.85V36.46h1.69v6h3.34v1.39Z"/><path class="cls-2" d="M99.63,43.85V38.52L97.4,43.85h-.73l-2.23-5.33v5.33H92.76V36.46h2.36L97,41.08,99,36.46h2.36v7.39Z"/><path class="cls-3" d="M112.59,27.93h32.23a3,3,0,0,1,3,3v22.8a0,0,0,0,1,0,0H112.59a0,0,0,0,1,0,0V27.93A0,0,0,0,1,112.59,27.93Z"/><path d="M119.69,47V44.72c5.48-4.06,7.08-5.42,7.08-7.07,0-1.18-1.06-1.75-2.16-1.75a4.82,4.82,0,0,0-3.6,1.55l-1.62-1.89a6.83,6.83,0,0,1,5.16-2.19c2.87,0,5.12,1.61,5.12,4.28,0,2.29-1.89,4.28-5.36,6.81h5.46V47Z"/><path d="M131.77,45.2l1.59-2a4.8,4.8,0,0,0,3.55,1.47c1.59,0,2.49-.9,2.49-2s-.88-2-2.41-2a3.86,3.86,0,0,0-2.81,1.09l-2-.54V33.58h9.2v2.51H135v3.27a4.29,4.29,0,0,1,3-1.13,4.19,4.19,0,0,1,4.29,4.34c0,2.83-2.13,4.64-5.36,4.64A6.67,6.67,0,0,1,131.77,45.2Z"/><path class="cls-3" d="M64.45,10.47H103a3,3,0,0,1,3,3V27.9a0,0,0,0,1,0,0H61.48a0,0,0,0,1,0,0V13.47A3,3,0,0,1,64.45,10.47Z"/><path d="M74.74,24.1V22.19H70V20.64l3.92-5.77h2.9v5.59h1.27v1.73H76.84V24.1Zm0-7.49-2.67,3.85h2.67Z"/><path d="M86,24.1l-2.47-3.38L81.06,24.1h-2.5l3.58-4.74-3.36-4.49h2.5L83.55,18l2.23-3.15h2.53L85,19.35l3.59,4.75Z"/><path d="M89.12,19.5c0-2.79,1.68-4.77,4.6-4.77a4.6,4.6,0,0,1,2.92.95l-1,1.51a2.72,2.72,0,0,0-2-.72,2.48,2.48,0,0,0-2.47,2.62,1.21,1.21,0,0,0,0,.19,3.3,3.3,0,0,1,2.53-1.19c1.78,0,3.38,1,3.38,3,0,1.8-1.54,3.17-3.79,3.17C90.37,24.26,89.12,22.1,89.12,19.5ZM95,21.16c0-1-.89-1.38-1.82-1.38a2.59,2.59,0,0,0-1.94.87,1.91,1.91,0,0,0,2,1.87C94.4,22.52,95,21.8,95,21.16Z"/><polygon class="cls-3" points="147.82 66.2 147.82 53.73 137.02 53.73 147.82 66.2"/><path class="cls-4" d="M145.17,71.47a2.55,2.55,0,0,1,2-3.15,2.82,2.82,0,0,1,3.33,2,2.57,2.57,0,0,1-2,3.16,2.82,2.82,0,0,1-3.33-2"/></svg>