<svg width="243.725" height="95.826" id="Layer_1" data-name="Layer 1" xmlns="http://www.w3.org/2000/svg" xmlns:xlink="http://www.w3.org/1999/xlink" viewBox="0 0 234 84"><defs><style>.cls-1{fill:none;}.cls-2{fill:#676d80;}.cls-3{fill:#fff;}.cls-4{fill:#55b9ba;}.cls-5{fill:#002c46;}.cls-6{fill:#2d314e;}.cls-7{clip-path:url(#clip-path);}</style><clipPath id="clip-path"><rect class="cls-1" x="137.87" y="13.97" width="27.74" height="10.67"/></clipPath></defs><path class="cls-2" d="M78.32,28.13h95.94a0,0,0,0,1,0,0V51.25a3,3,0,0,1-3,3H78.32a0,0,0,0,1,0,0V28.13A0,0,0,0,1,78.32,28.13Z"/><path class="cls-3" d="M107.16,44.24V36.77h1.7v7.47Z"/><path class="cls-3" d="M117.49,44.24V38.86l-2.25,5.38h-.75l-2.25-5.38v5.38h-1.7V36.77h2.38l2,4.67,1.94-4.67h2.4v7.47Z"/><path class="cls-3" d="M120.88,44.24V36.77h3.74a2.42,2.42,0,1,1,0,4.81h-2v2.66Zm4.69-5.06a1.06,1.06,0,0,0-1.19-1h-1.8v2h1.8A1.06,1.06,0,0,0,125.57,39.18Z"/><path class="cls-3" d="M133,44.24l-1.57-2.65h-1.25v2.65h-1.7V36.77h3.74a2.43,2.43,0,0,1,2.7,2.41,2.2,2.2,0,0,1-1.76,2.22L135,44.24Zm.17-5.07a1.06,1.06,0,0,0-1.19-1h-1.8v2H132A1.06,1.06,0,0,0,133.16,39.17Z"/><path class="cls-3" d="M136.27,44.24V36.77h5.66v1.4h-4v1.57h3.88v1.4H138v1.7h4v1.4Z"/><path class="cls-3" d="M148.87,44.24l-3.81-4.87v4.87h-1.7V36.77h1.75l3.7,4.7v-4.7h1.7v7.47Z"/><path class="cls-3" d="M151.64,43.19l.93-1.24a3.65,3.65,0,0,0,2.55,1c.94,0,1.39-.39,1.39-.83,0-1.3-4.61-.39-4.61-3.2,0-1.25,1.15-2.28,3-2.28a4.63,4.63,0,0,1,3.11,1l-.94,1.19a3.61,3.61,0,0,0-2.33-.82c-.72,0-1.13.29-1.13.74,0,1.18,4.6.38,4.6,3.17,0,1.37-1.06,2.4-3.21,2.4A4.77,4.77,0,0,1,151.64,43.19Z"/><path class="cls-3" d="M165,44.24,164.5,43h-3.43l-.5,1.26h-1.93l3.08-7.47h2.13l3.09,7.47Zm-2.22-5.88-1.25,3.22H164Z"/><path class="cls-4" d="M65.51,28.13H98.15a0,0,0,0,1,0,0V54.25a0,0,0,0,1,0,0H62.51a0,0,0,0,1,0,0V31.13A3,3,0,0,1,65.51,28.13Z"/><path class="cls-5" d="M74.19,47.4V37.57l-2.26,2.3-1.64-1.73,4.26-4.28h2.52V47.4Z"/><path class="cls-5" d="M80.87,47.4l4.86-11H78.9V33.86H89.08v2L84,47.4Z"/><path class="cls-6" d="M59.83,71.45a2.58,2.58,0,0,1,2-3.19,2.85,2.85,0,0,1,3.37,2,2.59,2.59,0,0,1-2,3.2,2.85,2.85,0,0,1-3.36-2"/><path class="cls-4" d="M132.22,10.47h39a3,3,0,0,1,3,3V28.1a0,0,0,0,1,0,0h-45a0,0,0,0,1,0,0V13.47A3,3,0,0,1,132.22,10.47Z"/><g class="cls-7"><path class="cls-5" d="M138.37,19.61c0-2.83,1.71-4.83,4.66-4.83a4.62,4.62,0,0,1,2.95,1l-1,1.53a2.74,2.74,0,0,0-2-.73,2.51,2.51,0,0,0-2.5,2.65,1.21,1.21,0,0,0,0,.19,3.34,3.34,0,0,1,2.56-1.2c1.8,0,3.42,1.05,3.42,3,0,1.82-1.56,3.21-3.83,3.21C139.64,24.43,138.37,22.24,138.37,19.61Zm6,1.68c0-1-.9-1.4-1.84-1.4a2.61,2.61,0,0,0-2,.88,1.93,1.93,0,0,0,2,1.89C143.72,22.66,144.35,21.93,144.35,21.29Z"/><path class="cls-5" d="M154.6,24.26l-2.51-3.42-2.51,3.42H147l3.63-4.79-3.4-4.55h2.53l2.29,3.19,2.27-3.19h2.56l-3.4,4.53,3.62,4.81Z"/><path class="cls-5" d="M157.52,22.93l1.12-1.33a4.08,4.08,0,0,0,2.74,1.06c1.22,0,1.89-.49,1.89-1.19s-.61-1.08-2-1.08c-.42,0-1.09,0-1.24,0V18.63h1.24c1.11,0,1.86-.31,1.86-1s-.82-1.11-1.86-1.11a3.73,3.73,0,0,0-2.54,1l-1.07-1.25a5.1,5.1,0,0,1,3.82-1.48c2.34,0,3.78,1,3.78,2.53a2.37,2.37,0,0,1-2.19,2.13,2.43,2.43,0,0,1,2.34,2.24c0,1.61-1.54,2.75-3.94,2.75A5.18,5.18,0,0,1,157.52,22.93Z"/></g><polygon class="cls-4" points="62.51 66.11 74.58 53.62 62.51 53.08 62.51 66.11"/></svg>