<svg width="243.725" height="95.826" id="Layer_1" data-name="Layer 1" xmlns="http://www.w3.org/2000/svg" viewBox="0 0 234 84"><defs><style>.cls-1{fill:#676d81;}.cls-2{fill:#fff;}.cls-3{fill:#e2c620;}.cls-4{fill:#2d314e;}</style></defs><path class="cls-1" d="M94.56,31.16H157a0,0,0,0,1,0,0V54.27a3,3,0,0,1-3,3H94.56a0,0,0,0,1,0,0V31.16A0,0,0,0,1,94.56,31.16Z"/><path class="cls-2" d="M109.4,47.41a3.09,3.09,0,0,1-2.16-.74l.75-1.21a1.87,1.87,0,0,0,1.27.54,1.25,1.25,0,0,0,.9-.34,1.14,1.14,0,0,0,.34-.86v-5h1.72v5a2.41,2.41,0,0,1-.77,1.93A3.06,3.06,0,0,1,109.4,47.41Z"/><path class="cls-2" d="M121.34,47.27h-1.93l-.5-1.26h-3.43L115,47.27H113l3.08-7.47h2.14Zm-2.9-2.66-1.25-3.22L116,44.61Z"/><path class="cls-2" d="M129.33,47.27h-1.64l-3.81-4.87v4.87h-1.7V39.8h1.75l3.7,4.69V39.8h1.7Z"/><path class="cls-2" d="M136.67,47.27H131V39.8h5.66v1.4h-4v1.57h3.88v1.4h-3.88v1.7h4Z"/><path class="cls-2" d="M141.66,47.27h-1.72V41.2h-2.33V39.8H144v1.4h-2.32Z"/><path class="cls-3" d="M61.92,31.16H94.56a0,0,0,0,1,0,0V57.27a0,0,0,0,1,0,0H58.92a0,0,0,0,1,0,0V34.16A3,3,0,0,1,61.92,31.16Z"/><path d="M66.1,50.43V48.16c5.54-4.11,7.17-5.49,7.17-7.15,0-1.2-1.08-1.77-2.19-1.77a4.85,4.85,0,0,0-3.64,1.56L65.8,38.9A6.87,6.87,0,0,1,71,36.68c2.91,0,5.18,1.63,5.18,4.33,0,2.31-1.9,4.32-5.42,6.88h5.52v2.54Z"/><path d="M81.46,50.43V40.6L79.2,42.9l-1.64-1.73,4.26-4.29h2.52V50.43Z"/><path class="cls-3" d="M110.08,13.5H154a3,3,0,0,1,3,3V31.13a0,0,0,0,1,0,0H107.11a0,0,0,0,1,0,0V16.5A3,3,0,0,1,110.08,13.5Z"/><path d="M116.62,27.29V25.35h-4.78V23.79l4-5.85h2.93V23.6H120v1.75h-1.29v1.94Zm0-7.58-2.7,3.89h2.7Z"/><path d="M122.2,29.21l-.82-.63a2.43,2.43,0,0,0,1.15-1.32,1.21,1.21,0,0,1-.28,0,1,1,0,0,1-1-1,1.16,1.16,0,0,1,1.18-1.12,1.33,1.33,0,0,1,1.34,1.43A3.2,3.2,0,0,1,122.2,29.21Z"/><path d="M125.2,26.06l1.18-1.39a3.75,3.75,0,0,0,2.66,1c1.18,0,1.85-.63,1.85-1.39s-.66-1.38-1.79-1.38a3,3,0,0,0-2.1.75l-1.49-.37V17.94h6.87V19.7h-4.74V22a3.29,3.29,0,0,1,2.2-.79,3,3,0,0,1,3.21,3c0,2-1.59,3.24-4,3.24A5.19,5.19,0,0,1,125.2,26.06Z"/><path d="M141.2,27.29l-2.5-3.42-2.52,3.42h-2.53l3.63-4.79-3.4-4.56h2.53l2.29,3.2,2.26-3.2h2.56l-3.4,4.54,3.63,4.81Z"/><path d="M144.33,22.64c0-2.83,1.71-4.83,4.66-4.83a4.62,4.62,0,0,1,3,1l-1,1.53a2.75,2.75,0,0,0-2-.73,2.51,2.51,0,0,0-2.5,2.65.62.62,0,0,0,0,.19,3.3,3.3,0,0,1,2.56-1.2c1.8,0,3.42,1.05,3.42,3,0,1.82-1.56,3.21-3.84,3.21C145.61,27.46,144.33,25.27,144.33,22.64Zm6,1.68c0-1-.9-1.4-1.84-1.4a2.59,2.59,0,0,0-2,.88,1.93,1.93,0,0,0,2,1.89C149.68,25.69,150.31,25,150.31,24.32Z"/><polygon class="cls-3" points="58.92 69.89 58.92 57.27 69.84 57.27 58.92 69.89"/><path class="cls-4" d="M55.1,73.85a2.59,2.59,0,0,1,2-3.19,2.84,2.84,0,0,1,3.36,2,2.59,2.59,0,0,1-2,3.2,2.86,2.86,0,0,1-3.37-2"/></svg>