<svg id="Layer_1" data-name="Layer 1" xmlns="http://www.w3.org/2000/svg" viewBox="0 0 234 84"><defs><style>.cls-1{fill:#676d80;}.cls-2{fill:#fff;}.cls-3{fill:#ee3d64;}.cls-4{fill:#2d314e;}</style></defs><path class="cls-1" d="M79.06,41.17H128a0,0,0,0,1,0,0V59.48a0,0,0,0,1,0,0H82.06a3,3,0,0,1-3-3V41.17A0,0,0,0,1,79.06,41.17Z"/><path class="cls-2" d="M85.29,52.05l.52-.85a1.35,1.35,0,0,0,.89.37.81.81,0,0,0,.88-.84v-3.5h1.2v3.52a1.74,1.74,0,0,1-2,1.81A2.21,2.21,0,0,1,85.29,52.05Z"/><path class="cls-2" d="M90,50.37V47.23h1.21v3.11a1.32,1.32,0,0,0,2.63,0V47.23H95v3.14c0,1.3-.83,2.19-2.53,2.19S90,51.67,90,50.37Z"/><path class="cls-2" d="M96.13,52.47V47.23h1.2v4.26h2.38v1Z"/><path class="cls-2" d="M100.58,52.47V47.23h1.19v5.24Z"/><path class="cls-2" d="M103,50.37V47.23h1.21v3.11a1.32,1.32,0,0,0,2.63,0V47.23H108v3.14c0,1.3-.83,2.19-2.53,2.19S103,51.67,103,50.37Z"/><path class="cls-2" d="M108.8,51.73l.65-.87a2.58,2.58,0,0,0,1.79.71c.66,0,1-.27,1-.58,0-.91-3.23-.27-3.23-2.24,0-.88.81-1.6,2.13-1.6a3.23,3.23,0,0,1,2.18.73l-.66.83a2.51,2.51,0,0,0-1.63-.57c-.5,0-.79.2-.79.52,0,.82,3.22.27,3.22,2.22,0,1-.74,1.68-2.25,1.68A3.33,3.33,0,0,1,108.8,51.73Z"/><path class="cls-2" d="M120.4,52.47l-.36-.89h-2.4l-.35.89h-1.36l2.16-5.24h1.5l2.16,5.24Zm-1.56-4.13L118,50.6h1.75Z"/><rect class="cls-3" x="128" y="41.17" width="24.99" height="18.31"/><path class="cls-2" d="M132.25,49.94c0-2.44,1.21-4.89,3.93-4.89s3.93,2.45,3.93,4.89-1.21,4.92-3.93,4.92S132.25,52.39,132.25,49.94Zm5.8,0c0-1.75-.5-3.1-1.87-3.1s-1.86,1.35-1.86,3.1.51,3.12,1.86,3.12S138.05,51.69,138.05,49.94Z"/><path class="cls-2" d="M141.3,53.43,142.42,52a3.43,3.43,0,0,0,2.52,1c1.13,0,1.77-.64,1.77-1.41s-.63-1.41-1.71-1.41a2.73,2.73,0,0,0-2,.77l-1.41-.38V45.19h6.52V47h-4.5v2.32a3.07,3.07,0,0,1,5.14,2.28c0,2-1.51,3.29-3.8,3.29A4.75,4.75,0,0,1,141.3,53.43Z"/><rect class="cls-1" x="79.06" y="22.86" width="48.94" height="18.31"/><path class="cls-2" d="M85.29,33.73l.52-.85a1.31,1.31,0,0,0,.89.38.81.81,0,0,0,.88-.84V28.91h1.2v3.52a1.74,1.74,0,0,1-2,1.82A2.17,2.17,0,0,1,85.29,33.73Z"/><path class="cls-2" d="M90,32.06V28.91h1.21V32a1.32,1.32,0,0,0,2.63,0V28.91H95v3.15c0,1.29-.83,2.19-2.53,2.19S90,33.35,90,32.06Z"/><path class="cls-2" d="M96.13,34.15V28.91h1.2v4.26h2.38v1Z"/><path class="cls-2" d="M100.58,34.15V28.91h1.19v5.24Z"/><path class="cls-2" d="M103,32.06V28.91h1.21V32a1.32,1.32,0,0,0,2.63,0V28.91H108v3.15c0,1.29-.83,2.19-2.53,2.19S103,33.35,103,32.06Z"/><path class="cls-2" d="M108.8,33.41l.65-.87a2.54,2.54,0,0,0,1.79.72c.66,0,1-.28,1-.58,0-.92-3.23-.28-3.23-2.25,0-.87.81-1.6,2.13-1.6a3.23,3.23,0,0,1,2.18.73l-.66.84a2.47,2.47,0,0,0-1.63-.58c-.5,0-.79.21-.79.52,0,.83,3.22.27,3.22,2.23,0,1-.74,1.68-2.25,1.68A3.33,3.33,0,0,1,108.8,33.41Z"/><path class="cls-2" d="M116.52,34.15V28.91h3c1.07,0,1.62.64,1.62,1.34a1.19,1.19,0,0,1-1,1.2,1.29,1.29,0,0,1,1.08,1.28,1.44,1.44,0,0,1-1.64,1.42Zm3.35-3.71c0-.32-.26-.55-.66-.55h-1.5V31h1.5C119.61,31,119.87,30.78,119.87,30.44Zm.11,2.13c0-.33-.26-.59-.72-.59h-1.55v1.19h1.55C119.71,33.17,120,33,120,32.57Z"/><path class="cls-3" d="M128,22.86h22a3,3,0,0,1,3,3V41.17a0,0,0,0,1,0,0H128a0,0,0,0,1,0,0V22.86A0,0,0,0,1,128,22.86Z"/><path class="cls-2" d="M132.25,31.63c0-2.45,1.21-4.9,3.93-4.9s3.93,2.45,3.93,4.9-1.21,4.91-3.93,4.91S132.25,34.08,132.25,31.63Zm5.8,0c0-1.75-.5-3.11-1.87-3.11s-1.86,1.36-1.86,3.11.51,3.12,1.86,3.12S138.05,33.38,138.05,31.63Z"/><path class="cls-2" d="M145.5,36.37v-2H141V32.81l3.77-5.94h2.79v5.75h1.22V34.4h-1.22v2Zm0-7.7-2.56,3.95h2.56Z"/><path class="cls-3" d="M82.06,10.47h20.47a3,3,0,0,1,3,3v9.36a0,0,0,0,1,0,0H79.09a0,0,0,0,1,0,0V13.47A3,3,0,0,1,82.06,10.47Z"/><path class="cls-2" d="M82.66,16.88a3.11,3.11,0,0,1,3.26-3.39,3.25,3.25,0,0,1,2.07.67l-.67,1.08a1.92,1.92,0,0,0-1.4-.52,1.76,1.76,0,0,0-1.75,1.86.66.66,0,0,0,0,.14,2.35,2.35,0,0,1,1.8-.85A2.17,2.17,0,0,1,88.37,18a2.41,2.41,0,0,1-2.69,2.25C83.55,20.26,82.66,18.72,82.66,16.88Zm4.19,1.18c0-.69-.63-1-1.29-1a1.84,1.84,0,0,0-1.38.62A1.36,1.36,0,0,0,85.6,19C86.41,19,86.85,18.51,86.85,18.06Z"/><path class="cls-2" d="M94,20.14l-1.75-2.4-1.76,2.4H88.74l2.54-3.36-2.38-3.2h1.77l1.61,2.24,1.59-2.24h1.79l-2.38,3.19,2.54,3.37Z"/><path class="cls-2" d="M96.08,19.21l.79-.94a2.85,2.85,0,0,0,1.92.75c.85,0,1.33-.35,1.33-.84s-.43-.75-1.41-.75l-.87,0V16.19h.87c.78,0,1.3-.22,1.3-.7s-.58-.78-1.3-.78a2.66,2.66,0,0,0-1.79.68l-.74-.87a3.57,3.57,0,0,1,2.68-1c1.63,0,2.64.68,2.64,1.77a1.66,1.66,0,0,1-1.53,1.5,1.71,1.71,0,0,1,1.64,1.57c0,1.13-1.08,1.93-2.76,1.93A3.7,3.7,0,0,1,96.08,19.21Z"/><polygon class="cls-3" points="153 68.33 153 59.48 145.34 59.48 153 68.33"/><path class="cls-4" d="M151.12,72.07a1.81,1.81,0,0,1,1.4-2.24,2,2,0,0,1,2.36,1.41,1.82,1.82,0,0,1-1.4,2.24,2,2,0,0,1-2.36-1.41"/><rect class="cls-2" x="79.06" y="40.49" width="73.94" height="0.75"/></svg>