<svg width="243.725" height="95.826" id="Layer_1" data-name="Layer 1" xmlns="http://www.w3.org/2000/svg" xmlns:xlink="http://www.w3.org/1999/xlink" viewBox="0 0 234 84"><defs><style>.cls-1{fill:none;}.cls-2{fill:#676d80;}.cls-3{fill:#fff;}.cls-4{fill:#ee3d64;}.cls-5{fill:#2d314e;}.cls-6{clip-path:url(#clip-path);}</style><clipPath id="clip-path"><rect class="cls-1" x="135.22" y="13.97" width="27.74" height="10.67"/></clipPath></defs><path class="cls-2" d="M81,28.13h90.65a0,0,0,0,1,0,0V51.25a3,3,0,0,1-3,3H81a0,0,0,0,1,0,0V28.13A0,0,0,0,1,81,28.13Z"/><path class="cls-3" d="M115.14,44.24l-2.42-3-.62.71v2.29h-1.71V36.77h1.71V40.1l2.83-3.33H117l-3.17,3.51,3.39,4Z"/><path class="cls-3" d="M123.64,44.24l-.5-1.26h-3.43l-.51,1.26h-1.93l3.08-7.47h2.14l3.08,7.47Zm-2.22-5.88-1.25,3.22h2.5Z"/><path class="cls-3" d="M126.41,41.25V36.77h1.72v4.44a1.88,1.88,0,0,0,3.76,0V36.77h1.74v4.48c0,1.85-1.18,3.13-3.61,3.13S126.41,43.1,126.41,41.25Z"/><path class="cls-3" d="M140.82,44.24,137,39.37v4.87h-1.7V36.77h1.75l3.71,4.7v-4.7h1.7v7.47Z"/><path class="cls-3" d="M144.13,44.24V36.77h3.16c2.5,0,4.24,1.49,4.24,3.73s-1.74,3.74-4.23,3.74Zm5.66-3.74a2.26,2.26,0,0,0-2.49-2.33h-1.46v4.67h1.45A2.31,2.31,0,0,0,149.79,40.5Z"/><path class="cls-3" d="M158.36,44.24l-.5-1.26h-3.43l-.5,1.26H152l3.08-7.47h2.13l3.09,7.47Zm-2.21-5.88-1.25,3.22h2.49Z"/><path class="cls-4" d="M68.15,28.13H100.8a0,0,0,0,1,0,0V54.25a0,0,0,0,1,0,0H65.15a0,0,0,0,1,0,0V31.13A3,3,0,0,1,68.15,28.13Z"/><path class="cls-3" d="M71.91,40.64c0-3.49,1.72-7,5.6-7s5.61,3.5,5.61,7-1.73,7-5.61,7S71.91,44.13,71.91,40.64Zm8.26,0c0-2.5-.71-4.43-2.66-4.43s-2.66,1.93-2.66,4.43.73,4.45,2.66,4.45S80.17,43.14,80.17,40.64Z"/><path class="cls-3" d="M84.5,40.66c0-4.1,2.32-7,6.32-7a6,6,0,0,1,4,1.4l-1.3,2.22a3.61,3.61,0,0,0-2.7-1.06,3.55,3.55,0,0,0-3.4,3.84,1.32,1.32,0,0,0,0,.28,4.43,4.43,0,0,1,3.48-1.74A4.32,4.32,0,0,1,95.55,43c0,2.64-2.11,4.65-5.2,4.65C86.23,47.65,84.5,44.48,84.5,40.66Zm8.1,2.44c0-1.42-1.22-2-2.49-2a3.42,3.42,0,0,0-2.67,1.28,2.72,2.72,0,0,0,2.75,2.74A2.2,2.2,0,0,0,92.6,43.1Z"/><path class="cls-5" d="M62.47,71.45a2.59,2.59,0,0,1,2-3.19,2.84,2.84,0,0,1,3.36,2,2.59,2.59,0,0,1-2,3.2,2.86,2.86,0,0,1-3.37-2"/><path class="cls-4" d="M129.57,10.47h39a3,3,0,0,1,3,3V28.1a0,0,0,0,1,0,0h-45a0,0,0,0,1,0,0V13.47A3,3,0,0,1,129.57,10.47Z"/><g class="cls-6"><path class="cls-3" d="M135.72,19.61c0-2.83,1.71-4.83,4.66-4.83a4.62,4.62,0,0,1,3,1l-1,1.53a2.75,2.75,0,0,0-2-.73,2.51,2.51,0,0,0-2.5,2.65.62.62,0,0,0,0,.19,3.3,3.3,0,0,1,2.56-1.2c1.8,0,3.41,1.05,3.41,3,0,1.82-1.55,3.21-3.83,3.21C137,24.43,135.72,22.24,135.72,19.61Zm6,1.68c0-1-.9-1.4-1.84-1.4a2.59,2.59,0,0,0-2,.88,1.93,1.93,0,0,0,2,1.89C141.07,22.66,141.7,21.93,141.7,21.29Z"/><path class="cls-3" d="M152,24.26l-2.5-3.42-2.52,3.42H144.4L148,19.47l-3.4-4.55h2.54l2.29,3.19,2.26-3.19h2.56l-3.4,4.53,3.63,4.81Z"/><path class="cls-3" d="M154.87,22.93,156,21.6a4,4,0,0,0,2.74,1.06c1.21,0,1.89-.49,1.89-1.19s-.62-1.08-2-1.08c-.42,0-1.1,0-1.25,0V18.63h1.25c1.11,0,1.86-.31,1.86-1s-.83-1.11-1.86-1.11a3.73,3.73,0,0,0-2.55,1L155,16.26a5.09,5.09,0,0,1,3.82-1.48c2.34,0,3.77,1,3.77,2.53a2.36,2.36,0,0,1-2.18,2.13,2.43,2.43,0,0,1,2.33,2.24c0,1.61-1.54,2.75-3.94,2.75A5.2,5.2,0,0,1,154.87,22.93Z"/></g><polygon class="cls-4" points="65.15 66.11 77.22 53.62 65.15 53.08 65.15 66.11"/></svg>