<?xml version="1.0" encoding="utf-8"?>
<!-- Generator: Adobe Illustrator 26.3.1, SVG Export Plug-In . SVG Version: 6.00 Build 0)  -->
<svg width="243.725" height="95.826" version="1.1" id="Layer_1" xmlns="http://www.w3.org/2000/svg" xmlns:xlink="http://www.w3.org/1999/xlink" x="0px" y="0px"
	 viewBox="0 0 234 84" style="enable-background:new 0 0 234 84;" xml:space="preserve">
<style type="text/css">
	.st0{fill:#676D80;}
	.st1{fill:#FFFFFF;}
	.st2{fill:#EE3D64;}
	.st3{fill:#2D314E;}
	.st4{clip-path:url(#SVGID_00000088819584589585406060000014394839877736285329_);}
	.st5{font-family:'ProximaNova-Bold';}
	.st6{font-size:14.0054px;}
</style>
<path class="st0" d="M81,28.1h90.6l0,0v23.1c0,1.7-1.3,3-3,3H81l0,0V28.1L81,28.1z"/>
<path class="st1" d="M115.1,44.2l-2.4-3l-0.6,0.7v2.3h-1.7v-7.5h1.7v3.3l2.8-3.3h2.1l-3.2,3.5l3.4,4L115.1,44.2z"/>
<path class="st1" d="M123.6,44.2l-0.5-1.3h-3.4l-0.5,1.3h-1.9l3.1-7.5h2.1l3.1,7.5H123.6z M121.4,38.4l-1.2,3.2h2.5L121.4,38.4z"/>
<path class="st1" d="M126.4,41.2v-4.5h1.7v4.4c0,1,0.8,1.9,1.9,1.9c1,0,1.9-0.8,1.9-1.9v-4.4h1.7v4.5c0,1.8-1.2,3.1-3.6,3.1
	S126.4,43.1,126.4,41.2z"/>
<path class="st1" d="M140.8,44.2l-3.8-4.9v4.9h-1.7v-7.5h1.8l3.7,4.7v-4.7h1.7v7.5H140.8z"/>
<path class="st1" d="M144.1,44.2v-7.5h3.2c2.5,0,4.2,1.5,4.2,3.7s-1.7,3.7-4.2,3.7H144.1z M149.8,40.5c0-1.2-0.9-2.3-2.2-2.3
	c-0.1,0-0.2,0-0.3,0h-1.5v4.7h1.4c1.3,0.1,2.4-0.8,2.5-2.1C149.8,40.7,149.8,40.6,149.8,40.5L149.8,40.5z"/>
<path class="st1" d="M158.4,44.2l-0.5-1.3h-3.4l-0.5,1.3H152l3.1-7.5h2.1l3.1,7.5H158.4z M156.1,38.4l-1.2,3.2h2.5L156.1,38.4z"/>
<path class="st2" d="M68.2,28.1h32.7l0,0v26.1l0,0H65.2l0,0V31.1C65.2,29.5,66.5,28.1,68.2,28.1z"/>
<path class="st1" d="M71.9,40.6c0-3.5,1.7-7,5.6-7s5.6,3.5,5.6,7s-1.7,7-5.6,7S71.9,44.1,71.9,40.6z M80.2,40.6
	c0-2.5-0.7-4.4-2.7-4.4s-2.7,1.9-2.7,4.4s0.7,4.5,2.7,4.5S80.2,43.1,80.2,40.6z"/>
<path class="st1" d="M84.5,40.7c0-4.1,2.3-7,6.3-7c1.5,0,2.9,0.5,4,1.4l-1.3,2.2c-0.7-0.7-1.7-1.1-2.7-1.1c-2,0.1-3.5,1.7-3.4,3.7
	c0,0.1,0,0.1,0,0.2c0,0.1,0,0.2,0,0.3c0.8-1.1,2.1-1.7,3.5-1.7c2.4-0.2,4.5,1.6,4.6,4c0,0.1,0,0.3,0,0.4c0,2.6-2.1,4.7-5.2,4.7
	C86.2,47.7,84.5,44.5,84.5,40.7z M92.6,43.1c0-1.4-1.2-2-2.5-2c-1,0-2,0.5-2.7,1.3c0,1.5,1.2,2.7,2.7,2.7c0,0,0,0,0.1,0
	C91.4,45.2,92.5,44.4,92.6,43.1C92.6,43.1,92.6,43.1,92.6,43.1z"/>
<path class="st3" d="M62.5,71.4c-0.4-1.4,0.5-2.8,1.9-3.2c0,0,0.1,0,0.1,0c1.5-0.3,3,0.5,3.4,2c0.4,1.4-0.5,2.8-1.8,3.2
	c-0.1,0-0.1,0-0.2,0C64.4,73.8,62.9,72.9,62.5,71.4"/>
<path class="st2" d="M129.6,10.5h39c1.7,0,3,1.3,3,3v14.6l0,0h-45l0,0V13.5C126.6,11.8,127.9,10.5,129.6,10.5z"/>
<polygon class="st2" points="65.2,66.1 77.2,53.6 65.2,53.1 "/>
<g>
	<defs>
		<rect id="SVGID_1_" x="135.2" y="13.6" width="27.7" height="10.7"/>
	</defs>
	<clipPath id="SVGID_00000127006374820876436220000013170271127904541846_">
		<use xlink:href="#SVGID_1_"  style="overflow:visible;"/>
	</clipPath>
	<g style="clip-path:url(#SVGID_00000127006374820876436220000013170271127904541846_);">
		<text transform="matrix(1.0697 0 0 1 135.2101 23.8938)" class="st1 st5 st6">4X6</text>
	</g>
</g>
</svg>
