<svg id="Layer_1" data-name="Layer 1" xmlns="http://www.w3.org/2000/svg" viewBox="0 0 234 84"><defs><style>.cls-1{fill:#676d81;}.cls-2{fill:#fff;}.cls-3{fill:#ee3d64;}.cls-4{fill:#2d314e;}</style></defs><rect class="cls-1" x="77.39" y="30.76" width="92.99" height="26.11"/><path class="cls-2" d="M113.6,46.87l-2.43-3-.62.71v2.29h-1.7V39.4h1.7v3.33l2.83-3.33h2.1l-3.18,3.51,3.39,4Z"/><path class="cls-2" d="M122.09,46.87l-.5-1.26h-3.43l-.5,1.26h-1.93l3.08-7.47h2.13L124,46.87ZM119.88,41l-1.25,3.22h2.49Z"/><path class="cls-2" d="M124.86,43.88V39.4h1.73v4.44a1.88,1.88,0,0,0,3.75,0V39.4h1.74v4.48c0,1.85-1.18,3.13-3.61,3.13S124.86,45.73,124.86,43.88Z"/><path class="cls-2" d="M139.27,46.87,135.46,42v4.87h-1.71V39.4h1.75l3.71,4.7V39.4h1.7v7.47Z"/><path class="cls-2" d="M142.59,46.87V39.4h3.15c2.51,0,4.25,1.49,4.25,3.73s-1.74,3.74-4.24,3.74Zm5.66-3.74a2.26,2.26,0,0,0-2.5-2.33h-1.46v4.67h1.45A2.32,2.32,0,0,0,148.25,43.13Z"/><path class="cls-2" d="M156.82,46.87l-.51-1.26h-3.43l-.5,1.26h-1.93l3.08-7.47h2.14l3.08,7.47ZM154.6,41l-1.25,3.22h2.5Z"/><rect class="cls-3" x="61.58" y="30.76" width="35.65" height="26.11"/><path class="cls-2" d="M69.83,43.27c0-3.5,1.72-7,5.6-7s5.61,3.49,5.61,7-1.73,7-5.61,7S69.83,46.76,69.83,43.27Zm8.26,0c0-2.5-.71-4.43-2.66-4.43s-2.66,1.93-2.66,4.43.73,4.44,2.66,4.44S78.09,45.77,78.09,43.27Z"/><path class="cls-2" d="M82.13,48.1l1.53-1.93a5.26,5.26,0,0,0,3.71,1.54c1.65,0,2.56-.71,2.56-1.72s-.83-1.57-2.72-1.57c-.57,0-1.48,0-1.68,0v-2.6c.24,0,1.17,0,1.68,0,1.5,0,2.52-.45,2.52-1.45s-1.12-1.6-2.52-1.6a4.89,4.89,0,0,0-3.45,1.4l-1.44-1.81a6.65,6.65,0,0,1,5.18-2.15c3.16,0,5.11,1.42,5.11,3.68a3.32,3.32,0,0,1-3,3.08,3.41,3.41,0,0,1,3.17,3.25c0,2.34-2.09,4-5.34,4A6.82,6.82,0,0,1,82.13,48.1Z"/><path class="cls-4" d="M58.9,74.07a2.59,2.59,0,0,1,2-3.19,2.86,2.86,0,0,1,3.37,2,2.59,2.59,0,0,1-2,3.19,2.84,2.84,0,0,1-3.36-2"/><rect class="cls-3" x="129.83" y="13.1" width="40.55" height="17.66"/><path class="cls-2" d="M141.63,26.89V25h-4.78V23.38l4-5.84h2.94V23.2h1.29V25h-1.29v1.94Zm0-7.58-2.69,3.89h2.69Z"/><path class="cls-2" d="M153.05,26.89l-2.5-3.42L148,26.89H145.5l3.62-4.79-3.4-4.56h2.53l2.3,3.2,2.26-3.2h2.56L152,22.08l3.63,4.81Z"/><path class="cls-2" d="M156.18,22.24c0-2.83,1.71-4.84,4.66-4.84a4.62,4.62,0,0,1,2.95,1l-1,1.53a2.74,2.74,0,0,0-2-.73,2.5,2.5,0,0,0-2.5,2.64,1.27,1.27,0,0,0,0,.2,3.34,3.34,0,0,1,2.57-1.2c1.79,0,3.41,1.05,3.41,3,0,1.82-1.56,3.2-3.83,3.2C157.45,27.05,156.18,24.87,156.18,22.24Zm6,1.68c0-1-.9-1.4-1.84-1.4a2.61,2.61,0,0,0-2,.88,1.94,1.94,0,0,0,2,1.89C161.53,25.29,162.16,24.56,162.16,23.92Z"/><polygon class="cls-3" points="61.58 68.73 73.65 56.24 61.58 55.7 61.58 68.73"/></svg>