<svg width="243.725" height="95.826" id="Layer_1" data-name="Layer 1" xmlns="http://www.w3.org/2000/svg" viewBox="0 0 234 84"><defs><style>.cls-1{fill:#cdcd98;}.cls-2{fill:#002c46;}.cls-3{fill:#ee3d64;}.cls-4{fill:#fff;}.cls-5{fill:#2d314e;}</style></defs><path class="cls-1" d="M168.38,53.73H97.29V27.93h77.38V47.44A6.28,6.28,0,0,1,168.38,53.73Z"/><path class="cls-2" d="M115.35,43.85V38.52l-2.23,5.33h-.73l-2.23-5.33v5.33h-1.68V36.46h2.35l1.92,4.62,1.92-4.62H117v7.39Z"/><path class="cls-2" d="M124.16,43.85l-.5-1.25h-3.38l-.5,1.25h-1.91l3-7.39H123l3,7.39ZM122,38l-1.23,3.18h2.46Z"/><path class="cls-2" d="M131.36,43.85l-1.55-2.63h-1.23v2.63H126.9V36.46h3.69a2.4,2.4,0,0,1,2.67,2.38A2.16,2.16,0,0,1,131.52,41l1.78,2.82Zm.17-5a1,1,0,0,0-1.18-1h-1.77v2h1.77A1,1,0,0,0,131.53,38.83Z"/><path class="cls-2" d="M135.57,35.78h-1.06l1.59-1.59h1.39Zm-1,8.07V36.46h1.68v7.39Z"/><path class="cls-2" d="M139.77,43.85v-6h-2.31V36.46h6.3v1.38h-2.29v6Z"/><path class="cls-2" d="M144.94,43.85V36.46h1.68v7.39Z"/><path class="cls-2" d="M155.15,43.85V38.52l-2.23,5.33h-.73L150,38.52v5.33h-1.68V36.46h2.35l1.92,4.62,1.92-4.62h2.37v7.39Z"/><path class="cls-2" d="M158.12,40.16A4.14,4.14,0,1,1,162.25,44,3.85,3.85,0,0,1,158.12,40.16Zm6.53,0a2.4,2.4,0,1,0-2.4,2.42A2.31,2.31,0,0,0,164.65,40.16Z"/><path class="cls-3" d="M65.06,27.93H97.29a0,0,0,0,1,0,0v25.8a0,0,0,0,1,0,0H62.06a0,0,0,0,1,0,0V30.93A3,3,0,0,1,65.06,27.93Z"/><path class="cls-4" d="M68.37,40.28c0-3.45,1.71-6.91,5.55-6.91s5.54,3.46,5.54,6.91-1.71,6.93-5.54,6.93S68.37,43.74,68.37,40.28Zm8.18,0c0-2.47-.71-4.38-2.63-4.38s-2.63,1.91-2.63,4.38.72,4.4,2.63,4.4S76.55,42.75,76.55,40.28Z"/><path class="cls-4" d="M84.21,47V37.25L82,39.52l-1.62-1.71,4.22-4.23h2.49V47Z"/><path class="cls-3" d="M133.16,10.47h38.51a3,3,0,0,1,3,3V27.9a0,0,0,0,1,0,0H130.19a0,0,0,0,1,0,0V13.47A3,3,0,0,1,133.16,10.47Z"/><path class="cls-4" d="M138.41,24.1V17.4L136.76,19l-1.19-1.17,3.1-2.92h1.84V24.1Z"/><path class="cls-4" d="M142.3,24.1V22.55c4-2.8,5.23-3.74,5.23-4.87,0-.82-.79-1.21-1.6-1.21a3.65,3.65,0,0,0-2.65,1.07l-1.2-1.3a5.2,5.2,0,0,1,3.8-1.51c2.12,0,3.78,1.11,3.78,2.95,0,1.57-1.39,2.94-3.95,4.69h4V24.1Z"/><path class="cls-4" d="M158,24.1l-2.47-3.38-2.48,3.38h-2.51l3.59-4.74-3.36-4.49h2.5L155.55,18l2.24-3.15h2.53L157,19.35l3.58,4.75Z"/><path class="cls-4" d="M160.91,22.78,162,21.47a4,4,0,0,0,2.71,1.05c1.2,0,1.87-.48,1.87-1.18s-.61-1.06-2-1.06c-.41,0-1.08,0-1.22,0V18.53c.17,0,.86,0,1.22,0,1.1,0,1.84-.31,1.84-1s-.81-1.1-1.84-1.1a3.64,3.64,0,0,0-2.51,1l-1-1.23a5,5,0,0,1,3.77-1.47c2.31,0,3.73,1,3.73,2.5a2.33,2.33,0,0,1-2.16,2.11,2.39,2.39,0,0,1,2.31,2.21c0,1.59-1.52,2.71-3.89,2.71A5.15,5.15,0,0,1,160.91,22.78Z"/><polygon class="cls-3" points="62.06 66.2 62.06 53.73 72.86 53.73 62.06 66.2"/><path class="cls-5" d="M59.41,71.47a2.56,2.56,0,0,1,2-3.15,2.81,2.81,0,0,1,3.32,2,2.55,2.55,0,0,1-2,3.16,2.83,2.83,0,0,1-3.33-2"/></svg>