<svg width="243.725" height="95.826" id="Layer_1" data-name="Layer 1" xmlns="http://www.w3.org/2000/svg" viewBox="0 0 234 84"><defs><style>.cls-1{fill:#676d80;}.cls-2{fill:#fff;}.cls-3{fill:#ee3d64;}.cls-4{fill:#2d314e;}</style></defs><path class="cls-1" d="M86,28.37h80.59a0,0,0,0,1,0,0V51.48a3,3,0,0,1-3,3H86a0,0,0,0,1,0,0V28.37A0,0,0,0,1,86,28.37Z"/><path class="cls-2" d="M123,44.48l-3.81-4.87v4.87h-1.7V37h1.75l3.71,4.69V37h1.7v7.47Z"/><path class="cls-2" d="M131.81,44.48l-.5-1.27h-3.43l-.51,1.27h-1.93L128.52,37h2.14l3.08,7.47Zm-2.22-5.88-1.25,3.21h2.5Z"/><path class="cls-2" d="M136.82,44.48,133.74,37h1.93l2.22,5.73L140.1,37H142L139,44.48Z"/><path class="cls-2" d="M148.4,44.48l-.5-1.27h-3.43L144,44.48H142L145.11,37h2.14l3.08,7.47Zm-2.22-5.88-1.25,3.21h2.5Z"/><path class="cls-2" d="M151.09,44.48V37h1.72v6.07h3.38v1.4Z"/><path class="cls-3" d="M73.18,28.37h32.65a0,0,0,0,1,0,0V54.48a0,0,0,0,1,0,0H70.18a0,0,0,0,1,0,0V31.37A3,3,0,0,1,73.18,28.37Z"/><path class="cls-2" d="M81.86,47.64V37.81L79.61,40.1,78,38.37l4.27-4.28h2.52V47.64Z"/><path class="cls-2" d="M90.21,47.64V37.81L88,40.1l-1.65-1.73,4.27-4.28h2.51V47.64Z"/><path class="cls-4" d="M67.5,71.68a2.59,2.59,0,0,1,2-3.19,2.84,2.84,0,0,1,3.36,2,2.59,2.59,0,0,1-2,3.2,2.85,2.85,0,0,1-3.37-2"/><path class="cls-3" d="M117.64,10.71h45.95a3,3,0,0,1,3,3V28.33a0,0,0,0,1,0,0H114.67a0,0,0,0,1,0,0V13.71A3,3,0,0,1,117.64,10.71Z"/><path class="cls-2" d="M120.39,19.84c0-2.83,1.7-4.83,4.66-4.83a4.67,4.67,0,0,1,3,1l-1,1.53a2.78,2.78,0,0,0-2-.73,2.52,2.52,0,0,0-2.51,2.65.68.68,0,0,0,0,.2,3.33,3.33,0,0,1,2.56-1.21c1.8,0,3.42,1.05,3.42,3,0,1.82-1.56,3.21-3.84,3.21C121.66,24.66,120.39,22.47,120.39,19.84Zm6,1.68c0-1-.9-1.4-1.85-1.4a2.59,2.59,0,0,0-2,.88,1.93,1.93,0,0,0,2,1.89C125.74,22.89,126.37,22.17,126.37,21.52Z"/><path class="cls-2" d="M129.81,23.51A1.22,1.22,0,1,1,131,24.65,1.19,1.19,0,0,1,129.81,23.51Z"/><path class="cls-2" d="M133.81,23.26,135,21.87a3.75,3.75,0,0,0,2.66,1c1.18,0,1.85-.63,1.85-1.38s-.66-1.39-1.79-1.39a3,3,0,0,0-2.1.76l-1.49-.38V15.15H141V16.9h-4.74v2.28a3.29,3.29,0,0,1,2.21-.78,3,3,0,0,1,3.2,3c0,2-1.59,3.24-4,3.24A5.15,5.15,0,0,1,133.81,23.26Z"/><path class="cls-2" d="M149.81,24.49l-2.5-3.42-2.52,3.42h-2.53l3.63-4.79-3.4-4.55H145l2.29,3.19,2.26-3.19h2.56l-3.4,4.54,3.63,4.8Z"/><path class="cls-2" d="M152.73,23.16l1.13-1.33a4.06,4.06,0,0,0,2.74,1.06c1.21,0,1.89-.49,1.89-1.19s-.62-1.08-2-1.08c-.42,0-1.09,0-1.24,0V18.86h1.24c1.11,0,1.86-.3,1.86-1s-.83-1.11-1.86-1.11a3.77,3.77,0,0,0-2.55,1l-1.06-1.25A5.1,5.1,0,0,1,156.69,15c2.34,0,3.78,1,3.78,2.53a2.37,2.37,0,0,1-2.19,2.13,2.43,2.43,0,0,1,2.34,2.24c0,1.61-1.55,2.75-4,2.75A5.21,5.21,0,0,1,152.73,23.16Z"/><polygon class="cls-3" points="70.18 66.34 82.25 53.85 70.18 53.31 70.18 66.34"/></svg>