<?xml version="1.0" encoding="UTF-8"?>
<svg id="Layer_1" data-name="Layer 1" xmlns="http://www.w3.org/2000/svg" version="1.1" viewBox="0 0 243.7 95.8">
  <defs>
    <style>
      .cls-1 {
        fill: #fff;
        font-family: ProximaNova-Extrabld, 'Proxima Nova';
        font-size: 12px;
      }

      .cls-2 {
        fill: #000;
      }

      .cls-2, .cls-3, .cls-4, .cls-5 {
        stroke-width: 0px;
      }

      .cls-3 {
        fill: #676d81;
      }

      .cls-4 {
        fill: #2d314e;
      }

      .cls-5 {
        fill: #e2c620;
      }
    </style>
  </defs>
  <path class="cls-3" d="M98.5,36.6h65v24.1c0,1.7-1.4,3.1-3.1,3.1h-61.9v-27.2h0Z"/>
  <path class="cls-5" d="M64.5,36.6h34v27.2h-37.1v-24.1c0-1.7,1.4-3.1,3.1-3.1Z"/>
  <path class="cls-2" d="M68.8,56.7v-2.4c5.8-4.3,7.5-5.7,7.5-7.4s-1.1-1.8-2.3-1.8c-1.4,0-2.8.6-3.8,1.6l-1.7-2c1.4-1.5,3.4-2.4,5.4-2.3,3,0,5.4,1.7,5.4,4.5s-2,4.5-5.6,7.2h5.7v2.6h-10.6Z"/>
  <path class="cls-2" d="M84.8,56.7v-10.2l-2.4,2.4-1.7-1.8,4.4-4.5h2.6v14.1h-3Z"/>
  <path class="cls-5" d="M114.7,18.2h45.7c1.7,0,3.1,1.4,3.1,3.1v15.2h-52v-15.2c0-1.7,1.4-3.1,3.1-3.1Z"/>
  <path class="cls-2" d="M121.5,32.6v-2h-5v-1.6l4.2-6.1h3.1v5.9h1.3v1.8h-1.3v2h-2.2ZM121.5,24.7l-2.8,4.1h2.8v-4.1Z"/>
  <path class="cls-2" d="M127.3,34.6l-.9-.7c.6-.3,1-.8,1.2-1.4,0,0-.2,0-.3,0-.6,0-1-.5-1-1,0-.7.6-1.2,1.2-1.2.8,0,1.4.6,1.4,1.4,0,0,0,0,0,.1,0,1.1-.7,2.2-1.6,2.7Z"/>
  <path class="cls-2" d="M130.4,31.3l1.2-1.4c.8.7,1.7,1.1,2.8,1,1.2,0,1.9-.7,1.9-1.4s-.7-1.4-1.9-1.4c-.8,0-1.6.2-2.2.8l-1.6-.4v-5.6h7.2v1.8h-4.9v2.4c.6-.5,1.5-.8,2.3-.8,1.7-.1,3.2,1.2,3.3,2.9,0,0,0,.2,0,.2,0,2.1-1.7,3.4-4.2,3.4-1.5,0-2.9-.4-4-1.4Z"/>
  <path class="cls-2" d="M147.1,32.6l-2.6-3.6-2.6,3.6h-2.6l3.8-5-3.5-4.7h2.6l2.4,3.3,2.4-3.3h2.7l-3.5,4.7,3.8,5h-2.7Z"/>
  <path class="cls-2" d="M150.3,27.7c0-2.9,1.8-5,4.9-5,1.1,0,2.2.3,3.1,1l-1,1.6c-.6-.5-1.3-.8-2.1-.8-1.4,0-2.6,1.2-2.6,2.6,0,0,0,0,0,.1,0,0,0,.1,0,.2.7-.8,1.6-1.3,2.7-1.2,1.9,0,3.6,1.1,3.6,3.1s-1.6,3.3-4,3.3-4.5-2.3-4.5-5ZM156.6,29.5c0-1-.9-1.5-1.9-1.5-.8,0-1.6.3-2.1.9,0,1.1.9,2,2.1,2,0,0,0,0,0,0,1.2,0,1.9-.7,1.9-1.4h0Z"/>
  <polygon class="cls-5" points="61.4 77 61.4 63.8 72.7 63.8 61.4 77"/>
  <path class="cls-4" d="M57.4,81.1c-.4-1.4.5-2.9,1.9-3.3,0,0,0,0,.1,0,1.5-.3,3.1.6,3.5,2.1.4,1.4-.5,2.9-1.9,3.3,0,0-.1,0-.2,0-1.5.3-3.1-.6-3.5-2.1"/>
  <text class="cls-1" transform="translate(110.3 53.6)"><tspan x="0" y="0">CRISTAL</tspan></text>
</svg>