<svg width="243.725" height="95.826" id="Layer_1" data-name="Layer 1" xmlns="http://www.w3.org/2000/svg" xmlns:xlink="http://www.w3.org/1999/xlink" viewBox="0 0 234 84"><defs><style>.cls-1{fill:none;}.cls-2{fill:#2d314e;}.cls-3{opacity:0.92;}.cls-4{clip-path:url(#clip-path);}.cls-5{clip-path:url(#clip-path-2);}.cls-6{fill:#ff3762;}.cls-7{fill:#fff;}</style><clipPath id="clip-path"><rect class="cls-1" x="63.42" y="10.47" width="120.27" height="46.9"/></clipPath><clipPath id="clip-path-2"><rect class="cls-1" x="63.42" y="10.47" width="120.27" height="46.9"/></clipPath></defs><path class="cls-2" d="M183.69,67.56a6,6,0,1,1-6-6,6,6,0,0,1,6,6"/><g class="cls-3"><g class="cls-4"><g class="cls-5"><path class="cls-6" d="M183.69,33.93V57.38H86.87a23.46,23.46,0,0,1,0-46.91h73.37a23.45,23.45,0,0,1,23.45,23.46"/></g></g></g><path class="cls-7" d="M89.12,46.29h-8.2a10.47,10.47,0,0,1-2.3-.23A3.39,3.39,0,0,1,77,45.19a3.44,3.44,0,0,1-.86-1.59,9.65,9.65,0,0,1-.23-2.28V26a9.65,9.65,0,0,1,.23-2.28,3.15,3.15,0,0,1,2.47-2.45,10,10,0,0,1,2.3-.23h8.2A12.27,12.27,0,0,1,94,22a12.86,12.86,0,0,1,6.71,6.72,12.58,12.58,0,0,1,0,9.83A12.8,12.8,0,0,1,94,45.29a12.28,12.28,0,0,1-4.91,1"/><path class="cls-7" d="M110.16,26.44a4.92,4.92,0,0,1,9.84,0,4.92,4.92,0,0,1-9.84,0Zm7.78,0a2.87,2.87,0,1,0-5.72,0,2.87,2.87,0,1,0,5.72,0Z"/><path class="cls-7" d="M121.42,31.15V21.72h6.67v1.77h-4.67v2H128v1.77h-4.57v3.92Z"/><path class="cls-7" d="M129.49,31.15V21.72h6.66v1.77h-4.66v2h4.57v1.77h-4.57v3.92Z"/><path class="cls-7" d="M137.55,31.15V21.72h2v9.43Z"/><path class="cls-7" d="M141,26.44a4.78,4.78,0,0,1,5-4.87,4.27,4.27,0,0,1,3.93,2.3l-1.72.85A2.55,2.55,0,0,0,146,23.35a2.93,2.93,0,0,0-3,3.09,2.93,2.93,0,0,0,3,3.09,2.55,2.55,0,0,0,2.21-1.37l1.72.84A4.31,4.31,0,0,1,146,31.31,4.79,4.79,0,0,1,141,26.44Z"/><path class="cls-7" d="M151.13,31.15V21.72h6.67v1.77h-4.66v2h4.56v1.77h-4.56v2.15h4.66v1.77Z"/><path class="cls-7" d="M118.8,43.89v-6.8l-2.65,6.8h-.88l-2.66-6.8v6.8h-2V34.46h2.81l2.29,5.9,2.29-5.9h2.82v9.43Z"/><path class="cls-7" d="M129.2,43.89l-.59-1.6h-4l-.59,1.6H121.7l3.63-9.43h2.52l3.63,9.43Zm-2.61-7.42-1.47,4.06h2.94Z"/><path class="cls-7" d="M132.35,43.89V34.46h4.41a3,3,0,1,1,0,6.07h-2.4v3.36Zm5.53-6.39a1.28,1.28,0,0,0-1.4-1.27h-2.12v2.53h2.12A1.27,1.27,0,0,0,137.88,37.5Z"/><path class="cls-7" d="M141.19,40.12V34.46h2v5.6a2.21,2.21,0,1,0,4.42,0v-5.6h2.05v5.66c0,2.33-1.38,3.94-4.25,3.94S141.19,42.45,141.19,40.12Z"/><path class="cls-7" d="M153.73,43.89V36.23H151V34.46h7.52v1.77h-2.75v7.66Z"/><path class="cls-7" d="M159.33,39.18a4.93,4.93,0,1,1,4.93,4.88A4.73,4.73,0,0,1,159.33,39.18Zm7.79,0a2.87,2.87,0,1,0-5.73,0,2.87,2.87,0,1,0,5.73,0Z"/></svg>