<svg width="243.725" height="95.826" id="Layer_1" data-name="Layer 1" xmlns="http://www.w3.org/2000/svg" viewBox="0 0 234 84"><defs><style>.cls-1{fill:#676d80;}.cls-2{fill:#fff;}.cls-3{fill:#e2c620;}.cls-4{fill:#2d314e;}</style></defs><path class="cls-1" d="M79.92,28.13h70.74a0,0,0,0,1,0,0V51.25a3,3,0,0,1-3,3H79.92a0,0,0,0,1,0,0V28.13A0,0,0,0,1,79.92,28.13Z"/><path class="cls-2" d="M111.68,40.52a4.19,4.19,0,1,1,4.19,3.86A3.9,3.9,0,0,1,111.68,40.52Zm6.61,0A2.43,2.43,0,1,0,115.87,43,2.34,2.34,0,0,0,118.29,40.52Z"/><path class="cls-2" d="M121.33,41.26V36.78h1.73v4.43a1.88,1.88,0,0,0,3.75,0V36.78h1.74v4.48c0,1.84-1.17,3.12-3.61,3.12S121.33,43.1,121.33,41.26Z"/><path class="cls-2" d="M135.75,44.25l-.5-1.27h-3.43l-.5,1.27h-1.94l3.09-7.47h2.13l3.08,7.47Zm-2.22-5.88-1.24,3.21h2.49Z"/><path class="cls-3" d="M67.11,28.13H99.75a0,0,0,0,1,0,0V54.25a0,0,0,0,1,0,0H64.11a0,0,0,0,1,0,0V31.13A3,3,0,0,1,67.11,28.13Z"/><path d="M72.62,47.4V45.13c5.54-4.1,7.17-5.48,7.17-7.15,0-1.2-1.08-1.77-2.2-1.77A4.82,4.82,0,0,0,74,37.78l-1.65-1.91a6.92,6.92,0,0,1,5.22-2.22c2.91,0,5.18,1.63,5.18,4.33,0,2.32-1.91,4.33-5.42,6.89h5.52V47.4Z"/><path d="M90.84,47.4V44.6H84.36V42.33l5.38-8.47h4v8.2h1.75V44.6H93.72v2.8Zm0-11-3.66,5.64h3.66Z"/><path class="cls-4" d="M61.42,71.45a2.6,2.6,0,0,1,2-3.19,2.86,2.86,0,0,1,3.37,2,2.6,2.6,0,0,1-2,3.2,2.86,2.86,0,0,1-3.37-2"/><path class="cls-3" d="M108.62,10.47h39a3,3,0,0,1,3,3V28.1a0,0,0,0,1,0,0h-45a0,0,0,0,1,0,0V13.47A3,3,0,0,1,108.62,10.47Z"/><path d="M114.77,19.61c0-2.83,1.71-4.83,4.66-4.83a4.58,4.58,0,0,1,2.95,1l-.95,1.53a2.75,2.75,0,0,0-2-.73,2.51,2.51,0,0,0-2.5,2.65.71.71,0,0,0,0,.2,3.28,3.28,0,0,1,2.56-1.21c1.8,0,3.41,1.05,3.41,3,0,1.82-1.55,3.21-3.83,3.21C116.05,24.43,114.77,22.24,114.77,19.61Zm6,1.68c0-1-.9-1.4-1.84-1.4a2.58,2.58,0,0,0-2,.88,1.92,1.92,0,0,0,2,1.89C120.12,22.66,120.75,21.93,120.75,21.29Z"/><path d="M131,24.26l-2.5-3.42L126,24.26h-2.53l3.62-4.79-3.4-4.55h2.53l2.3,3.19,2.26-3.19h2.56l-3.4,4.54,3.63,4.8Z"/><path d="M133.92,22.93,135,21.6a4.09,4.09,0,0,0,2.75,1.06c1.21,0,1.88-.49,1.88-1.19s-.61-1.08-2-1.08c-.42,0-1.1,0-1.25,0V18.63h1.25c1.11,0,1.85-.31,1.85-1s-.82-1.11-1.85-1.11a3.73,3.73,0,0,0-2.55,1l-1.06-1.25a5.07,5.07,0,0,1,3.82-1.48c2.33,0,3.77,1,3.77,2.53a2.37,2.37,0,0,1-2.19,2.13,2.43,2.43,0,0,1,2.34,2.24c0,1.61-1.54,2.75-3.94,2.75A5.18,5.18,0,0,1,133.92,22.93Z"/><polygon class="cls-3" points="64.11 66.11 76.17 53.62 64.11 53.08 64.11 66.11"/></svg>