<svg width="243.725" height="95.826" id="Layer_1" data-name="Layer 1" xmlns="http://www.w3.org/2000/svg" viewBox="0 0 234 84"><defs><style>.cls-1{fill:#676d80;}.cls-2{fill:#fff;}.cls-3{fill:#e2c620;}.cls-4{fill:#2d314e;}</style></defs><path class="cls-1" d="M78.32,37.16h95.94a0,0,0,0,1,0,0V60.27a3,3,0,0,1-3,3H78.32a0,0,0,0,1,0,0V37.16A0,0,0,0,1,78.32,37.16Z"/><path class="cls-2" d="M107.75,53.27V45.8h3.74a2.42,2.42,0,1,1,0,4.81h-2v2.66Zm4.69-5.06a1.06,1.06,0,0,0-1.19-1h-1.8v2h1.8A1.06,1.06,0,0,0,112.44,48.21Z"/><path class="cls-2" d="M120.87,53.27,120.36,52h-3.43l-.5,1.26H114.5l3.08-7.47h2.13l3.09,7.47Zm-2.22-5.88-1.25,3.22h2.49Z"/><path class="cls-2" d="M129.15,53.27l-3.82-4.87v4.87h-1.7V45.8h1.75l3.71,4.69V45.8h1.7v7.47Z"/><path class="cls-2" d="M132.46,53.27V45.8h3.16c2.5,0,4.24,1.49,4.24,3.73s-1.74,3.74-4.23,3.74Zm5.66-3.74a2.26,2.26,0,0,0-2.49-2.33h-1.46v4.67h1.45A2.31,2.31,0,0,0,138.12,49.53Z"/><path class="cls-2" d="M140.78,49.54A4.19,4.19,0,1,1,145,53.41,3.9,3.9,0,0,1,140.78,49.54Zm6.61,0A2.43,2.43,0,1,0,145,52,2.33,2.33,0,0,0,147.39,49.54Z"/><path class="cls-2" d="M155,53.27l-1.57-2.65h-1.25v2.65h-1.7V45.8h3.74a2.43,2.43,0,0,1,2.7,2.41,2.2,2.2,0,0,1-1.76,2.22l1.81,2.84Zm.17-5.07c0-.62-.51-1-1.19-1h-1.8v2h1.8A1.05,1.05,0,0,0,155.12,48.2Z"/><path class="cls-2" d="M163.76,53.27l-.5-1.26h-3.43l-.5,1.26H157.4l3.08-7.47h2.13l3.09,7.47Zm-2.22-5.88-1.24,3.22h2.49Z"/><path class="cls-3" d="M65.51,37.16H98.15a0,0,0,0,1,0,0V63.27a0,0,0,0,1,0,0H62.51a0,0,0,0,1,0,0V40.16A3,3,0,0,1,65.51,37.16Z"/><path d="M69.53,56.43V54.15c5.54-4.1,7.17-5.48,7.17-7.15,0-1.19-1.08-1.76-2.2-1.76a4.84,4.84,0,0,0-3.63,1.56l-1.65-1.91a6.91,6.91,0,0,1,5.22-2.21c2.9,0,5.18,1.62,5.18,4.32,0,2.32-1.91,4.33-5.42,6.89h5.52v2.54Z"/><path d="M81.45,49.66c0-3.49,1.73-7,5.6-7s5.61,3.49,5.61,7-1.73,7-5.61,7S81.45,53.16,81.45,49.66Zm8.26,0c0-2.49-.71-4.42-2.66-4.42s-2.66,1.93-2.66,4.42.73,4.45,2.66,4.45S89.71,52.16,89.71,49.66Z"/><path class="cls-4" d="M59.83,80.47a2.59,2.59,0,0,1,2-3.19,2.86,2.86,0,0,1,3.37,2,2.59,2.59,0,0,1-2,3.2,2.86,2.86,0,0,1-3.36-2"/><path class="cls-3" d="M132.22,19.5h39a3,3,0,0,1,3,3V37.13a0,0,0,0,1,0,0h-45a0,0,0,0,1,0,0V22.5A3,3,0,0,1,132.22,19.5Z"/><path d="M138.37,28.63c0-2.82,1.71-4.83,4.66-4.83a4.62,4.62,0,0,1,2.95,1l-1,1.53a2.74,2.74,0,0,0-2-.73,2.5,2.5,0,0,0-2.5,2.64,1.34,1.34,0,0,0,0,.2,3.34,3.34,0,0,1,2.56-1.2c1.8,0,3.42,1.05,3.42,3,0,1.82-1.56,3.2-3.83,3.2C139.64,33.45,138.37,31.27,138.37,28.63Zm6,1.69c0-1-.9-1.4-1.84-1.4a2.61,2.61,0,0,0-2,.88,1.94,1.94,0,0,0,2,1.89C143.72,31.69,144.35,31,144.35,30.32Z"/><path d="M154.6,33.29l-2.51-3.42-2.51,3.42H147l3.63-4.8-3.4-4.55h2.53l2.29,3.2,2.27-3.2h2.56l-3.4,4.54,3.62,4.81Z"/><path d="M157.52,32l1.12-1.33a4,4,0,0,0,2.74,1.07c1.22,0,1.89-.49,1.89-1.19s-.61-1.08-2-1.08c-.42,0-1.09,0-1.24,0v-1.8c.18,0,.87,0,1.24,0,1.11,0,1.86-.31,1.86-1s-.82-1.1-1.86-1.1a3.72,3.72,0,0,0-2.54,1l-1.07-1.24a5.07,5.07,0,0,1,3.82-1.49c2.34,0,3.78,1,3.78,2.54a2.38,2.38,0,0,1-2.19,2.13,2.42,2.42,0,0,1,2.34,2.24c0,1.61-1.54,2.74-3.94,2.74A5.18,5.18,0,0,1,157.52,32Z"/><polygon class="cls-3" points="62.51 75.14 74.58 62.65 62.51 62.1 62.51 75.14"/></svg>