<svg width="243.725" height="95.826" id="Layer_1" data-name="Layer 1" xmlns="http://www.w3.org/2000/svg" viewBox="0 0 234 84"><defs><style>.cls-1{fill:#2d314e;}.cls-2{fill:#681d58;}.cls-3{fill:#fff;}.cls-4{fill:#ee3d64;}</style></defs><path class="cls-1" d="M42.33,39.54a2.55,2.55,0,0,1,2-3.15,2.82,2.82,0,0,1,3.33,2,2.55,2.55,0,0,1-2,3.16,2.81,2.81,0,0,1-3.33-2"/><path class="cls-2" d="M77.82,37.82H191.76a0,0,0,0,1,0,0V60.66a3,3,0,0,1-3,3H77.82a0,0,0,0,1,0,0V37.82A0,0,0,0,1,77.82,37.82Z"/><path class="cls-3" d="M113.47,53.76v-7.4h3.7a2.39,2.39,0,1,1,0,4.76h-2v2.64Zm4.64-5a1,1,0,0,0-1.18-1h-1.78v2h1.78A1,1,0,0,0,118.11,48.75Z"/><path class="cls-3" d="M121,53.76v-7.4h3.7a2.39,2.39,0,1,1,0,4.76h-2v2.64Zm4.63-5a1,1,0,0,0-1.17-1h-1.78v2h1.78A1,1,0,0,0,125.61,48.75Z"/><path class="cls-3" d="M131.25,50.07c0-2.29,1.84-3.83,4.22-3.83a3.65,3.65,0,0,1,3.3,1.81l-1.45.67a2.15,2.15,0,0,0-1.85-1.08,2.43,2.43,0,1,0,0,4.86,2.15,2.15,0,0,0,1.85-1.08l1.45.66a3.67,3.67,0,0,1-3.3,1.82A3.91,3.91,0,0,1,131.25,50.07Z"/><path class="cls-3" d="M139.87,53.76v-7.4h1.69v7.4Z"/><path class="cls-3" d="M147.69,53.76l-1.56-2.63H144.9v2.63h-1.68v-7.4h3.7a2.4,2.4,0,0,1,2.66,2.39,2.15,2.15,0,0,1-1.74,2.19l1.79,2.82Zm.16-5a1,1,0,0,0-1.17-1H144.9v2h1.78A1,1,0,0,0,147.85,48.74Z"/><path class="cls-3" d="M150.56,50.07c0-2.29,1.84-3.83,4.22-3.83a3.65,3.65,0,0,1,3.3,1.81l-1.45.67a2.15,2.15,0,0,0-1.85-1.08,2.43,2.43,0,1,0,0,4.86,2.15,2.15,0,0,0,1.85-1.08l1.45.66a3.67,3.67,0,0,1-3.3,1.82A3.91,3.91,0,0,1,150.56,50.07Z"/><path class="cls-3" d="M159.18,50.8V46.36h1.71v4.4a1.86,1.86,0,0,0,3.71,0v-4.4h1.72V50.8c0,1.83-1.16,3.1-3.57,3.1S159.18,52.63,159.18,50.8Z"/><path class="cls-3" d="M167.44,52.72l.92-1.23a3.61,3.61,0,0,0,2.52,1c.93,0,1.37-.39,1.37-.82,0-1.29-4.55-.39-4.55-3.18,0-1.23,1.14-2.25,3-2.25a4.62,4.62,0,0,1,3.08,1l-.94,1.18a3.55,3.55,0,0,0-2.3-.81c-.71,0-1.11.29-1.11.73,0,1.17,4.54.38,4.54,3.14,0,1.36-1,2.38-3.17,2.38A4.71,4.71,0,0,1,167.44,52.72Z"/><path class="cls-4" d="M62.17,37.82H97.44a0,0,0,0,1,0,0V63.66a0,0,0,0,1,0,0H64.26a2.09,2.09,0,0,1-2.09-2.09V37.82A0,0,0,0,1,62.17,37.82Z"/><path class="cls-3" d="M73.73,56.89V47.16L71.5,49.43l-1.63-1.71,4.22-4.24h2.49V56.89Z"/><path class="cls-3" d="M78.85,56.89V54.63c5.49-4.05,7.1-5.42,7.1-7.07,0-1.18-1.07-1.75-2.17-1.75a4.8,4.8,0,0,0-3.6,1.55l-1.63-1.89a6.83,6.83,0,0,1,5.17-2.19c2.87,0,5.12,1.61,5.12,4.28,0,2.29-1.89,4.28-5.36,6.81h5.46v2.52Z"/><path class="cls-4" d="M154.5,20.34h34.26a3,3,0,0,1,3,3V37.79a0,0,0,0,1,0,0H153a0,0,0,0,1,0,0V21.87A1.53,1.53,0,0,1,154.5,20.34Z"/><path class="cls-3" d="M159.28,31.59a2.72,2.72,0,0,1,2.12-2.37c-1.09-.36-2-1-2-2.18,0-1.74,2-2.44,3.81-2.44s3.81.7,3.81,2.44c0,1.15-.87,1.82-2,2.18a2.73,2.73,0,0,1,2.12,2.37c0,1.72-1.9,2.56-4,2.56S159.28,33.31,159.28,31.59Zm5.82-.28c0-.76-1.23-1.12-1.84-1.21-.62.09-1.84.45-1.84,1.21s.8,1.09,1.84,1.09S165.1,32,165.1,31.31Zm-.18-3.93c0-.66-.7-1-1.66-1s-1.68.37-1.68,1,1.07,1,1.68,1.06C163.87,28.35,164.92,28.05,164.92,27.38Z"/><path class="cls-3" d="M175.3,34l-2.48-3.38L170.33,34h-2.51l3.59-4.73-3.36-4.51h2.5l2.27,3.16,2.24-3.16h2.54l-3.37,4.49L177.82,34Z"/><path class="cls-3" d="M178.39,29.38c0-2.79,1.69-4.78,4.62-4.78a4.59,4.59,0,0,1,2.92,1l-1,1.51a2.72,2.72,0,0,0-2-.72A2.48,2.48,0,0,0,180.53,29a1.21,1.21,0,0,0,0,.19A3.32,3.32,0,0,1,183.08,28c1.78,0,3.38,1,3.38,3,0,1.8-1.54,3.17-3.79,3.17C179.65,34.15,178.39,32,178.39,29.38Zm5.92,1.67c0-1-.89-1.39-1.82-1.39a2.61,2.61,0,0,0-2,.87,1.92,1.92,0,0,0,2,1.87C183.69,32.4,184.31,31.68,184.31,31.05Z"/><polygon class="cls-4" points="49.95 37.82 62.31 49.76 62.85 37.82 49.95 37.82"/></svg>