<svg id="Layer_1" data-name="Layer 1" xmlns="http://www.w3.org/2000/svg" viewBox="0 0 234 84"><defs><style>.cls-1{fill:#676d80;}.cls-2{fill:#fff;}.cls-3{fill:#ee3d64;}.cls-4{fill:#2d314e;}</style></defs><rect class="cls-1" x="79.06" y="41.17" width="48.94" height="18.31"/><path class="cls-2" d="M82.86,52.47V47.23h2.62a1.7,1.7,0,1,1,0,3.37H84.05v1.87Zm3.28-3.55a.74.74,0,0,0-.83-.71H84.05v1.41h1.26A.74.74,0,0,0,86.14,48.92Z"/><path class="cls-2" d="M87.91,49.85a2.94,2.94,0,1,1,2.93,2.71A2.73,2.73,0,0,1,87.91,49.85Zm4.63,0a1.7,1.7,0,1,0-1.7,1.72A1.63,1.63,0,0,0,92.54,49.85Z"/><path class="cls-2" d="M94.62,52.47V47.23h1.21v4.26H98.2v1Z"/><path class="cls-2" d="M103,52.47l-.36-.89h-2.4l-.36.89H98.48l2.16-5.24h1.5l2.16,5.24Zm-1.56-4.13-.87,2.26h1.74Z"/><path class="cls-2" d="M108.75,52.47l-2.67-3.42v3.42h-1.19V47.23h1.22l2.6,3.29V47.23h1.2v5.24Z"/><path class="cls-2" d="M115,52.47l-.36-.89h-2.4l-.36.89h-1.35l2.16-5.24h1.5l2.16,5.24Zm-1.56-4.13-.87,2.26h1.74Z"/><path class="cls-2" d="M123,52.47l-.35-.89h-2.41l-.35.89h-1.36l2.16-5.24h1.5l2.16,5.24Zm-1.56-4.13-.87,2.26h1.75Z"/><rect class="cls-3" x="128" y="41.17" width="24.99" height="18.31"/><path class="cls-2" d="M132.25,49.94c0-2.44,1.21-4.89,3.93-4.89s3.93,2.45,3.93,4.89-1.21,4.92-3.93,4.92S132.25,52.39,132.25,49.94Zm5.8,0c0-1.75-.5-3.1-1.87-3.1s-1.86,1.35-1.86,3.1.51,3.12,1.86,3.12S138.05,51.69,138.05,49.94Z"/><path class="cls-2" d="M141.1,52.22a2.73,2.73,0,0,1,2-2.43,2.39,2.39,0,0,1-1.87-2.24c0-1.79,1.89-2.5,3.65-2.5s3.66.71,3.66,2.5a2.41,2.41,0,0,1-1.88,2.24,2.74,2.74,0,0,1,2,2.43c0,1.77-1.82,2.64-3.82,2.64S141.1,54,141.1,52.22Zm5.58-.28c0-.79-1.18-1.16-1.77-1.24-.59.08-1.76.45-1.76,1.24s.77,1.12,1.76,1.12S146.68,52.62,146.68,51.94Zm-.17-4c0-.67-.67-1-1.6-1s-1.6.38-1.6,1,1,1,1.6,1.1C145.5,48.89,146.51,48.59,146.51,47.89Z"/><rect class="cls-1" x="79.06" y="22.86" width="48.94" height="18.31"/><path class="cls-2" d="M82.86,34.15V28.91h2.62a1.7,1.7,0,1,1,0,3.37H84.05v1.87Zm3.28-3.55a.74.74,0,0,0-.83-.71H84.05V31.3h1.26A.74.74,0,0,0,86.14,30.6Z"/><path class="cls-2" d="M87.91,31.54a2.94,2.94,0,1,1,2.93,2.71A2.73,2.73,0,0,1,87.91,31.54Zm4.63,0a1.7,1.7,0,1,0-1.7,1.72A1.63,1.63,0,0,0,92.54,31.54Z"/><path class="cls-2" d="M94.62,34.15V28.91h1.21v4.26H98.2v1Z"/><path class="cls-2" d="M103,34.15l-.36-.88h-2.4l-.36.88H98.48l2.16-5.24h1.5l2.16,5.24ZM101.39,30l-.87,2.25h1.74Z"/><path class="cls-2" d="M108.75,34.15l-2.67-3.42v3.42h-1.19V28.91h1.22l2.6,3.29V28.91h1.2v5.24Z"/><path class="cls-2" d="M115,34.15l-.36-.88h-2.4l-.36.88h-1.35l2.16-5.24h1.5l2.16,5.24ZM113.4,30l-.87,2.25h1.74Z"/><path class="cls-2" d="M119.12,34.15V28.91h2.95c1.07,0,1.62.64,1.62,1.34a1.19,1.19,0,0,1-1,1.2,1.28,1.28,0,0,1,1.08,1.28,1.44,1.44,0,0,1-1.63,1.42Zm3.35-3.71c0-.32-.25-.55-.66-.55h-1.49V31h1.49C122.22,31,122.47,30.78,122.47,30.44Zm.11,2.13c0-.33-.25-.59-.72-.59h-1.54v1.19h1.54C122.31,33.17,122.58,33,122.58,32.57Z"/><path class="cls-3" d="M128,22.86h22a3,3,0,0,1,3,3V41.17a0,0,0,0,1,0,0H128a0,0,0,0,1,0,0V22.86A0,0,0,0,1,128,22.86Z"/><path class="cls-2" d="M132.25,31.63c0-2.45,1.21-4.9,3.93-4.9s3.93,2.45,3.93,4.9-1.21,4.91-3.93,4.91S132.25,34.08,132.25,31.63Zm5.8,0c0-1.75-.5-3.11-1.87-3.11s-1.86,1.36-1.86,3.11.51,3.12,1.86,3.12S138.05,33.38,138.05,31.63Z"/><path class="cls-2" d="M142.32,36.37l3.41-7.72h-4.79V26.87h7.14v1.41l-3.54,8.09Z"/><path class="cls-3" d="M82.06,10.47h29.32a3,3,0,0,1,3,3v9.35a0,0,0,0,1,0,0H79.09a0,0,0,0,1,0,0V13.47A3,3,0,0,1,82.06,10.47Z"/><path class="cls-2" d="M82.66,16.88a3.11,3.11,0,0,1,3.26-3.39,3.25,3.25,0,0,1,2.07.67l-.67,1.08a1.92,1.92,0,0,0-1.4-.52,1.77,1.77,0,0,0-1.75,1.86.66.66,0,0,0,0,.14,2.35,2.35,0,0,1,1.8-.85A2.17,2.17,0,0,1,88.37,18a2.41,2.41,0,0,1-2.69,2.25C83.55,20.26,82.66,18.72,82.66,16.88Zm4.19,1.18c0-.69-.63-1-1.29-1a1.84,1.84,0,0,0-1.38.62A1.36,1.36,0,0,0,85.6,19C86.41,19,86.85,18.51,86.85,18.06Z"/><path class="cls-2" d="M89.27,19.45a.85.85,0,1,1,.85.8A.84.84,0,0,1,89.27,19.45Z"/><path class="cls-2" d="M92.07,19.27l.83-1a2.62,2.62,0,0,0,1.86.72c.83,0,1.3-.44,1.3-1s-.46-1-1.26-1a2.1,2.1,0,0,0-1.47.53l-1-.26V13.58H97.1v1.23H93.78v1.6a2.36,2.36,0,0,1,1.55-.55A2.13,2.13,0,0,1,97.57,18c0,1.38-1.11,2.27-2.8,2.27A3.62,3.62,0,0,1,92.07,19.27Z"/><path class="cls-2" d="M103.29,20.14l-1.75-2.4-1.77,2.4H98l2.54-3.36-2.38-3.2h1.77l1.61,2.24,1.58-2.24h1.8l-2.39,3.19,2.54,3.37Z"/><path class="cls-2" d="M105.34,19.21l.79-.94a2.85,2.85,0,0,0,1.92.75c.85,0,1.32-.35,1.32-.84s-.43-.75-1.4-.75l-.88,0V16.19H108c.77,0,1.3-.22,1.3-.7s-.58-.78-1.3-.78a2.62,2.62,0,0,0-1.79.68l-.74-.87a3.53,3.53,0,0,1,2.67-1c1.64,0,2.65.68,2.65,1.77a1.67,1.67,0,0,1-1.53,1.5,1.7,1.7,0,0,1,1.63,1.57c0,1.13-1.08,1.93-2.76,1.93A3.68,3.68,0,0,1,105.34,19.21Z"/><polygon class="cls-3" points="153 68.33 153 59.48 145.34 59.48 153 68.33"/><path class="cls-4" d="M151.12,72.07a1.81,1.81,0,0,1,1.4-2.24,2,2,0,0,1,2.36,1.41,1.82,1.82,0,0,1-1.4,2.24,2,2,0,0,1-2.36-1.41"/><rect class="cls-2" x="79.06" y="40.49" width="73.94" height="0.75"/></svg>