<svg width="243.725" height="95.826" id="Layer_1" data-name="Layer 1" xmlns="http://www.w3.org/2000/svg" viewBox="0 0 234 84"><defs><style>.cls-1{fill:#681d58;}.cls-2{fill:#fff;}.cls-3{fill:#ee3d64;}.cls-4{fill:#2d314e;}</style></defs><path class="cls-1" d="M42.24,27.71h111a0,0,0,0,1,0,0V53.91a0,0,0,0,1,0,0H44.33a2.09,2.09,0,0,1-2.09-2.09V27.71A0,0,0,0,1,42.24,27.71Z"/><path class="cls-2" d="M48,43.87v-7.5h3.75a2.43,2.43,0,1,1,0,4.83h-2v2.67Zm4.7-5.08a1.06,1.06,0,0,0-1.19-1h-1.8v2h1.8A1.06,1.06,0,0,0,52.72,38.79Z"/><path class="cls-2" d="M55.24,40.13A4.2,4.2,0,1,1,59.44,44,3.91,3.91,0,0,1,55.24,40.13Zm6.63,0a2.44,2.44,0,1,0-2.43,2.46A2.33,2.33,0,0,0,61.87,40.13Z"/><path class="cls-2" d="M64.85,43.87v-7.5h1.72v6.1H70v1.4Z"/><path class="cls-2" d="M76.75,43.87l-.5-1.27H72.81l-.5,1.27H70.37l3.09-7.5H75.6l3.09,7.5ZM74.53,38,73.28,41.2h2.5Z"/><path class="cls-2" d="M85.06,43.87,81.24,39v4.89H79.53v-7.5h1.76L85,41.08V36.37h1.71v7.5Z"/><path class="cls-2" d="M93.94,43.87l-.51-1.27H90l-.5,1.27H87.55l3.09-7.5h2.14l3.09,7.5ZM91.71,38,90.46,41.2H93Z"/><path class="cls-2" d="M99.35,42.82l.93-1.25a3.67,3.67,0,0,0,2.55,1c1,0,1.4-.39,1.4-.83,0-1.3-4.62-.39-4.62-3.22,0-1.24,1.15-2.28,3-2.28a4.64,4.64,0,0,1,3.13,1.05l-1,1.19a3.61,3.61,0,0,0-2.33-.82c-.73,0-1.13.29-1.13.74,0,1.18,4.6.38,4.6,3.18C106,43,104.91,44,102.76,44A4.78,4.78,0,0,1,99.35,42.82Z"/><path class="cls-2" d="M106.82,40.13a4.2,4.2,0,0,1,8.38,0,3.75,3.75,0,0,1-1,2.65l.59.64-1.19.91-.65-.69A5,5,0,0,1,111,44,3.91,3.91,0,0,1,106.82,40.13Zm5,2.34-.88-1,1.19-.91.88,1a2.61,2.61,0,0,0,.41-1.43A2.44,2.44,0,1,0,111,42.59,2.73,2.73,0,0,0,111.85,42.47Z"/><path class="cls-2" d="M116.5,40.87v-4.5h1.73v4.46a1.89,1.89,0,0,0,3.77,0V36.37h1.74v4.5c0,1.86-1.18,3.14-3.62,3.14S116.5,42.73,116.5,40.87Z"/><path class="cls-2" d="M131,43.87l-.51-1.27H127l-.5,1.27h-1.94l3.09-7.5h2.14l3.09,7.5ZM128.74,38l-1.25,3.23H130Z"/><path class="cls-2" d="M138.28,43.87l-1.58-2.66h-1.25v2.66h-1.71v-7.5h3.76a2.44,2.44,0,0,1,2.7,2.42A2.2,2.2,0,0,1,138.43,41l1.82,2.85Zm.17-5.09a1.06,1.06,0,0,0-1.19-1h-1.81v2h1.81A1.06,1.06,0,0,0,138.45,38.78Z"/><path class="cls-2" d="M141.57,43.87v-7.5h5.68v1.41h-4v1.57h3.88v1.41h-3.88v1.71h4v1.4Z"/><path class="cls-3" d="M153.23,27.71h33.67A2.09,2.09,0,0,1,189,29.8v24.1a0,0,0,0,1,0,0H153.23a0,0,0,0,1,0,0V27.71A0,0,0,0,1,153.23,27.71Z"/><path class="cls-2" d="M164.94,47V37.18l-2.26,2.31L161,37.75l4.28-4.29h2.52V47Z"/><path class="cls-2" d="M169.59,45.11l1.52-1.94a5.34,5.34,0,0,0,3.73,1.55c1.65,0,2.57-.71,2.57-1.73s-.84-1.57-2.73-1.57c-.57,0-1.49,0-1.69,0V38.85c.24,0,1.18,0,1.69,0,1.51,0,2.53-.44,2.53-1.44s-1.12-1.61-2.53-1.61a4.91,4.91,0,0,0-3.46,1.4l-1.45-1.81A6.69,6.69,0,0,1,175,33.25c3.18,0,5.14,1.43,5.14,3.69a3.35,3.35,0,0,1-3,3.1,3.4,3.4,0,0,1,3.18,3.25c0,2.35-2.1,4-5.36,4A6.82,6.82,0,0,1,169.59,45.11Z"/><path class="cls-3" d="M87.36,27.71h-45s-.07,0-.07-.06V14.44A4.44,4.44,0,0,1,46.69,10H87.37a4.47,4.47,0,0,1,4.17,4.44V27.65C87.42,27.69,87.39,27.71,87.36,27.71Z"/><path class="cls-2" d="M54,23.83V17l-1.67,1.58-1.22-1.19,3.16-3h1.86v9.38Z"/><path class="cls-2" d="M57.71,19.16c0-2.84,1.72-4.85,4.68-4.85a4.63,4.63,0,0,1,3,1l-1,1.53a2.79,2.79,0,0,0-2-.73,2.52,2.52,0,0,0-2.51,2.66,1.34,1.34,0,0,0,0,.2,3.33,3.33,0,0,1,2.57-1.21c1.81,0,3.43,1.05,3.43,3.05C65.89,22.6,64.33,24,62,24,59,24,57.71,21.8,57.71,19.16Zm6,1.69c0-1-.9-1.41-1.85-1.41a2.62,2.62,0,0,0-2,.89,1.94,1.94,0,0,0,2,1.9C63.08,22.23,63.71,21.49,63.71,20.85Z"/><path class="cls-2" d="M74,23.83,71.48,20.4,69,23.83H66.42L70.05,19l-3.41-4.57h2.54l2.3,3.21,2.27-3.21h2.57L72.91,19l3.64,4.82Z"/><path class="cls-2" d="M77.36,22.59l1.18-1.39a3.76,3.76,0,0,0,2.66,1c1.19,0,1.87-.64,1.87-1.4s-.66-1.39-1.81-1.39a3,3,0,0,0-2.1.76l-1.49-.38V14.45h6.89v1.76H79.81V18.5A3.3,3.3,0,0,1,82,17.71a3,3,0,0,1,3.21,3c0,2-1.59,3.25-4,3.25A5.18,5.18,0,0,1,77.36,22.59Z"/><polygon class="cls-3" points="188.98 66.56 188.98 53.91 178.02 53.91 188.98 66.56"/><path class="cls-4" d="M186.29,71.91a2.6,2.6,0,0,1,2-3.2,2.87,2.87,0,0,1,3.37,2,2.59,2.59,0,0,1-2,3.21,2.86,2.86,0,0,1-3.38-2"/></svg>