<svg width="243.725" height="95.826" id="Layer_1" data-name="Layer 1" xmlns="http://www.w3.org/2000/svg" viewBox="0 0 234 84"><defs><style>.cls-1{fill:#676d80;}.cls-2{fill:#fff;}.cls-3{fill:#e2c620;}.cls-4{fill:#2d314e;}</style></defs><path class="cls-1" d="M59.45,30.16H171.13a0,0,0,0,1,0,0V53.27a3,3,0,0,1-3,3H59.45a0,0,0,0,1,0,0V30.16A0,0,0,0,1,59.45,30.16Z"/><path class="cls-2" d="M87,46.27V38.8h3.74a2.41,2.41,0,1,1,0,4.8h-2v2.67Zm4.68-5.06a1,1,0,0,0-1.18-1H88.7v2h1.8A1.05,1.05,0,0,0,91.68,41.21Z"/><path class="cls-2" d="M94.2,42.54a4.19,4.19,0,1,1,4.18,3.86A3.89,3.89,0,0,1,94.2,42.54Zm6.61,0A2.43,2.43,0,1,0,98.38,45,2.33,2.33,0,0,0,100.81,42.54Z"/><path class="cls-2" d="M109.37,46.27l-3.82-4.87v4.87h-1.7V38.8h1.75l3.71,4.69V38.8H111v7.47Z"/><path class="cls-2" d="M114.53,46.27V40.2h-2.34V38.8h6.38v1.4h-2.33v6.07Z"/><path class="cls-2" d="M119.37,42.54a4.19,4.19,0,1,1,4.19,3.86A3.89,3.89,0,0,1,119.37,42.54Zm6.61,0A2.43,2.43,0,1,0,123.56,45,2.33,2.33,0,0,0,126,42.54Z"/><path class="cls-2" d="M132.2,46.27V38.8h5.66v1.4h-4v1.57h3.87v1.4H133.9v3.1Z"/><path class="cls-2" d="M139.14,46.27V38.8h1.7v7.47Z"/><path class="cls-2" d="M148,46.27l-3.81-4.87v4.87h-1.7V38.8h1.75l3.7,4.69V38.8h1.71v7.47Z"/><path class="cls-2" d="M156.88,46.27l-.5-1.27H153l-.51,1.27h-1.93l3.08-7.47h2.14l3.08,7.47Zm-2.22-5.88-1.25,3.21h2.5Z"/><path class="cls-2" d="M159.57,46.27V38.8h1.72v6.07h3.38v1.4Z"/><path class="cls-3" d="M46.63,30.16H79.28a0,0,0,0,1,0,0V56.27a0,0,0,0,1,0,0H43.63a0,0,0,0,1,0,0V33.16A3,3,0,0,1,46.63,30.16Z"/><path d="M52.15,49.43V47.15c5.54-4.1,7.16-5.48,7.16-7.15,0-1.19-1.07-1.76-2.19-1.76a4.84,4.84,0,0,0-3.63,1.56l-1.65-1.91a6.91,6.91,0,0,1,5.22-2.21c2.9,0,5.18,1.62,5.18,4.32,0,2.32-1.91,4.33-5.42,6.89h5.52v2.54Z"/><path d="M64.33,49.43V47.15c5.55-4.1,7.17-5.48,7.17-7.15,0-1.19-1.07-1.76-2.19-1.76a4.88,4.88,0,0,0-3.64,1.56L64,37.89a6.91,6.91,0,0,1,5.22-2.21c2.9,0,5.18,1.62,5.18,4.32,0,2.32-1.91,4.33-5.43,6.89h5.53v2.54Z"/><path class="cls-4" d="M41,73.47a2.59,2.59,0,0,1,2-3.19,2.85,2.85,0,0,1,3.36,2,2.59,2.59,0,0,1-2,3.2,2.87,2.87,0,0,1-3.37-2"/><path class="cls-3" d="M122.67,12.5h45.47a3,3,0,0,1,3,3V30.13a0,0,0,0,1,0,0H119.7a0,0,0,0,1,0,0V15.5A3,3,0,0,1,122.67,12.5Z"/><path d="M125.17,21.64c0-2.83,1.71-4.83,4.66-4.83a4.62,4.62,0,0,1,3,1l-1,1.53a2.75,2.75,0,0,0-2-.73,2.51,2.51,0,0,0-2.5,2.65.62.62,0,0,0,0,.19,3.3,3.3,0,0,1,2.56-1.2c1.8,0,3.41,1.05,3.41,3,0,1.82-1.55,3.21-3.83,3.21C126.45,26.46,125.17,24.27,125.17,21.64Zm6,1.68c0-1-.9-1.4-1.84-1.4a2.59,2.59,0,0,0-2,.88,1.92,1.92,0,0,0,2,1.89C130.52,24.69,131.15,24,131.15,23.32Z"/><path d="M134.6,25.31a1.21,1.21,0,1,1,1.21,1.13A1.19,1.19,0,0,1,134.6,25.31Z"/><path d="M138.6,25.06l1.18-1.39a3.73,3.73,0,0,0,2.65,1c1.19,0,1.86-.63,1.86-1.39s-.66-1.38-1.8-1.38a3,3,0,0,0-2.09.75l-1.49-.37V16.94h6.87V18.7H141V21a3.29,3.29,0,0,1,2.2-.79,3,3,0,0,1,3.21,3c0,2-1.59,3.24-4,3.24A5.19,5.19,0,0,1,138.6,25.06Z"/><path d="M154.6,26.29l-2.5-3.42-2.52,3.42h-2.53l3.62-4.79-3.4-4.56h2.53l2.3,3.2,2.26-3.2h2.56l-3.4,4.54,3.63,4.81Z"/><path d="M157.52,25l1.12-1.33a4.09,4.09,0,0,0,2.75,1.06c1.21,0,1.88-.49,1.88-1.19s-.61-1.08-2-1.08c-.42,0-1.1,0-1.25,0V20.66h1.25c1.11,0,1.85-.31,1.85-1s-.82-1.11-1.85-1.11a3.73,3.73,0,0,0-2.55,1l-1.06-1.25a5.07,5.07,0,0,1,3.82-1.48c2.33,0,3.77,1,3.77,2.53a2.37,2.37,0,0,1-2.19,2.13,2.43,2.43,0,0,1,2.34,2.24c0,1.61-1.54,2.75-3.94,2.75A5.18,5.18,0,0,1,157.52,25Z"/><polygon class="cls-3" points="43.63 68.14 55.7 55.65 43.63 55.1 43.63 68.14"/></svg>