<svg width="243.725" height="95.826" id="Layer_1" data-name="Layer 1" xmlns="http://www.w3.org/2000/svg" viewBox="0 0 234 84"><defs><style>.cls-1{fill:#676d80;}.cls-2{fill:#fff;}.cls-3{fill:#e2c620;}.cls-4{fill:#2d314e;}</style></defs><path class="cls-1" d="M52.8,42.37h77.37a0,0,0,0,1,0,0V68.49a0,0,0,0,1,0,0H55.8a3,3,0,0,1-3-3V42.37A0,0,0,0,1,52.8,42.37Z"/><path class="cls-2" d="M73.8,58.48l-1.57-2.65H71v2.65h-1.7V51H73a2.43,2.43,0,0,1,2.7,2.41A2.2,2.2,0,0,1,74,55.64l1.81,2.84ZM74,53.41a1.06,1.06,0,0,0-1.19-1H71v2h1.8A1.06,1.06,0,0,0,74,53.41Z"/><path class="cls-2" d="M76.7,54.75a4.19,4.19,0,1,1,4.18,3.87A3.89,3.89,0,0,1,76.7,54.75Zm6.61,0a2.43,2.43,0,1,0-2.43,2.46A2.33,2.33,0,0,0,83.31,54.75Z"/><path class="cls-2" d="M91.86,58.48l-3.81-4.87v4.87h-1.7V51H88.1l3.7,4.7V51h1.71v7.47Z"/><path class="cls-2" d="M95.18,58.48V51h1.7v7.47Z"/><path class="cls-2" d="M98.49,58.48V51h1.71v6.07h3.38v1.4Z"/><path class="cls-3" d="M111.42,42.37h35.65a0,0,0,0,1,0,0V65.49a3,3,0,0,1-3,3H111.42a0,0,0,0,1,0,0V42.37A0,0,0,0,1,111.42,42.37Z"/><path d="M123.1,61.64V51.81l-2.25,2.3-1.65-1.73,4.27-4.28H126V61.64Z"/><path d="M128.69,60.46,130,58.25a3.59,3.59,0,0,0,2.7,1.06c2.23,0,3.39-1.89,3.39-3.82v-.31a4.46,4.46,0,0,1-3.49,1.75A4.3,4.3,0,0,1,128,52.52c0-2.64,2.09-4.65,5.18-4.65,4.12,0,5.85,3.17,5.85,7,0,4.1-2.32,7-6.32,7A5.88,5.88,0,0,1,128.69,60.46ZM136,53.17a2.71,2.71,0,0,0-2.74-2.74,2.21,2.21,0,0,0-2.42,2c0,1.42,1.24,2,2.5,2A3.37,3.37,0,0,0,136,53.17Z"/><path class="cls-3" d="M55.8,24.71h39a3,3,0,0,1,3,3V42.34a0,0,0,0,1,0,0h-45a0,0,0,0,1,0,0V27.71A3,3,0,0,1,55.8,24.71Z"/><path d="M62,33.85C62,31,63.66,29,66.61,29a4.63,4.63,0,0,1,3,1l-1,1.52a2.79,2.79,0,0,0-2-.73,2.52,2.52,0,0,0-2.5,2.65.68.68,0,0,0,0,.2,3.31,3.31,0,0,1,2.56-1.21c1.8,0,3.42,1,3.42,3,0,1.82-1.56,3.21-3.84,3.21C63.23,38.67,62,36.48,62,33.85Zm6,1.68c0-1-.9-1.4-1.84-1.4a2.59,2.59,0,0,0-2,.88,1.94,1.94,0,0,0,2,1.9C67.3,36.91,67.93,36.18,67.93,35.53Z"/><path d="M78.18,38.5l-2.5-3.42L73.16,38.5H70.63l3.62-4.79-3.4-4.55h2.54l2.29,3.19,2.26-3.19H80.5L77.1,33.7l3.63,4.8Z"/><path d="M81.1,37.17l1.13-1.33A4.05,4.05,0,0,0,85,36.91c1.21,0,1.89-.49,1.89-1.2s-.62-1.07-2-1.07l-1.25,0V32.87h1.25c1.11,0,1.86-.3,1.86-1s-.83-1.11-1.86-1.11a3.73,3.73,0,0,0-2.55,1L81.24,30.5A5.09,5.09,0,0,1,85.06,29c2.33,0,3.77,1,3.77,2.53a2.36,2.36,0,0,1-2.18,2.13A2.43,2.43,0,0,1,89,35.92c0,1.62-1.54,2.75-3.94,2.75A5.2,5.2,0,0,1,81.1,37.17Z"/><polygon class="cls-3" points="147.07 33.54 138.32 42.72 147.07 42.72 147.07 33.54"/><path class="cls-4" d="M142.29,26.19a3.73,3.73,0,0,1,2.88-4.59A4.1,4.1,0,0,1,150,24.48a3.73,3.73,0,0,1-2.87,4.61,4.12,4.12,0,0,1-4.85-2.9"/></svg>