<svg width="243.725" height="95.826" id="Layer_1" data-name="Layer 1" xmlns="http://www.w3.org/2000/svg" xmlns:xlink="http://www.w3.org/1999/xlink" viewBox="0 0 234 84"><defs><style>.cls-1{fill:none;}.cls-2{fill:#676d80;}.cls-3{fill:#fff;}.cls-4{fill:#55b9ba;}.cls-5{fill:#002c46;}.cls-6{clip-path:url(#clip-path);}.cls-7{fill:#2d314e;}</style><clipPath id="clip-path"><rect class="cls-1" x="79.77" y="12.98" width="28.35" height="10.9"/></clipPath></defs><path class="cls-2" d="M70.94,27.45h52.88a0,0,0,0,1,0,0V54.13a0,0,0,0,1,0,0H73.94a3,3,0,0,1-3-3V27.45A0,0,0,0,1,70.94,27.45Z"/><path class="cls-3" d="M78,42.84l1-1.27a3.72,3.72,0,0,0,2.6,1c1,0,1.42-.4,1.42-.85,0-1.33-4.71-.4-4.71-3.27,0-1.27,1.18-2.32,3.1-2.32a4.74,4.74,0,0,1,3.19,1.06l-1,1.21a3.66,3.66,0,0,0-2.38-.83c-.73,0-1.15.29-1.15.75,0,1.2,4.7.39,4.7,3.24,0,1.4-1.08,2.45-3.28,2.45A4.93,4.93,0,0,1,78,42.84Z"/><path class="cls-3" d="M85.58,40.1c0-2.36,1.9-4,4.36-4A3.76,3.76,0,0,1,93.35,38l-1.49.69a2.24,2.24,0,0,0-1.92-1.11,2.51,2.51,0,1,0,0,5,2.24,2.24,0,0,0,1.92-1.11l1.49.67a3.78,3.78,0,0,1-3.41,1.88C87.48,44.05,85.58,42.45,85.58,40.1Z"/><path class="cls-3" d="M100.13,43.91l-.51-1.29h-3.5l-.52,1.29h-2l3.15-7.63H99l3.15,7.63Zm-2.26-6-1.28,3.29h2.55Z"/><path class="cls-3" d="M102.89,43.91V36.28h1.75v6.2h3.45v1.43Z"/><path class="cls-3" d="M115,43.91l-.51-1.29H111l-.52,1.29h-2l3.15-7.63h2.18L117,43.91Zm-2.26-6-1.28,3.29H114Z"/><path class="cls-4" d="M123.81,27.45h33.42a3,3,0,0,1,3,3V54.13a0,0,0,0,1,0,0H123.81a0,0,0,0,1,0,0V27.45A0,0,0,0,1,123.81,27.45Z"/><path class="cls-5" d="M134.9,47.14v-10l-2.3,2.34-1.68-1.76,4.35-4.38h2.58V47.14Z"/><path class="cls-5" d="M140,43.55a4,4,0,0,1,3-3.55c-1.53-.54-2.74-1.54-2.74-3.26,0-2.61,2.76-3.65,5.34-3.65s5.33,1,5.33,3.65c0,1.72-1.22,2.72-2.74,3.26a4,4,0,0,1,3,3.55c0,2.57-2.66,3.84-5.56,3.84S140,46.12,140,43.55Zm8.13-.42c0-1.14-1.72-1.68-2.57-1.8-.88.12-2.58.66-2.58,1.8s1.12,1.64,2.58,1.64S148.08,44.13,148.08,43.13Zm-.25-5.89c0-1-1-1.53-2.32-1.53s-2.35.56-2.35,1.53,1.5,1.45,2.35,1.6C146.36,38.69,147.83,38.26,147.83,37.24Z"/><path class="cls-4" d="M73.94,9.41h40a3,3,0,0,1,3,3v15a0,0,0,0,1,0,0H71a0,0,0,0,1,0,0v-15A3,3,0,0,1,73.94,9.41Z"/><g class="cls-6"><path class="cls-5" d="M80.29,18.74c0-2.89,1.74-4.94,4.76-4.94a4.7,4.7,0,0,1,3,1l-1,1.56a2.79,2.79,0,0,0-2-.75,2.57,2.57,0,0,0-2.56,2.71,1.34,1.34,0,0,0,0,.2,3.42,3.42,0,0,1,2.62-1.23c1.84,0,3.49,1.07,3.49,3.1,0,1.87-1.59,3.28-3.92,3.28C81.59,23.66,80.29,21.43,80.29,18.74Zm6.1,1.72c0-1-.92-1.43-1.88-1.43a2.66,2.66,0,0,0-2,.9,2,2,0,0,0,2.07,1.93C85.75,21.86,86.39,21.11,86.39,20.46Z"/><path class="cls-5" d="M96.86,23.49,94.31,20l-2.57,3.49H89.15l3.7-4.89-3.47-4.66H92l2.34,3.27,2.31-3.27h2.62l-3.48,4.64,3.7,4.91Z"/><path class="cls-5" d="M99.85,22.13,101,20.77a4.12,4.12,0,0,0,2.8,1.09c1.24,0,1.93-.5,1.93-1.22s-.63-1.1-2-1.1c-.43,0-1.12,0-1.27,0V17.74h1.27c1.13,0,1.89-.31,1.89-1s-.84-1.14-1.89-1.14a3.85,3.85,0,0,0-2.61,1L100,15.32a5.19,5.19,0,0,1,3.9-1.52c2.39,0,3.86,1,3.86,2.59a2.43,2.43,0,0,1-2.24,2.18,2.49,2.49,0,0,1,2.39,2.29c0,1.64-1.58,2.8-4,2.8A5.3,5.3,0,0,1,99.85,22.13Z"/></g><polygon class="cls-4" points="160.23 67.02 160.23 54.13 149.07 54.13 160.23 67.02"/><path class="cls-7" d="M157.49,72.47a2.66,2.66,0,0,1,2-3.26A2.91,2.91,0,0,1,163,71.26a2.65,2.65,0,0,1-2,3.27,2.93,2.93,0,0,1-3.45-2.06"/></svg>