<svg width="243.725" height="95.826" id="Layer_1" data-name="Layer 1" xmlns="http://www.w3.org/2000/svg" xmlns:xlink="http://www.w3.org/1999/xlink" viewBox="0 0 234 84"><defs><style>.cls-1{fill:none;}.cls-2{fill:#55b9ba;}.cls-3{clip-path:url(#clip-path);}.cls-4{fill:#002c46;}.cls-5{fill:#cdcd98;}.cls-6{fill:#2d314e;}</style><clipPath id="clip-path"><rect class="cls-1" x="64.53" y="26.39" width="29.13" height="11.2"/></clipPath></defs><path class="cls-2" d="M58.45,22.72H99.74a3,3,0,0,1,3,3V41.23a0,0,0,0,1,0,0H55.48a0,0,0,0,1,0,0V25.72A3,3,0,0,1,58.45,22.72Z"/><g class="cls-3"><path class="cls-4" d="M65.07,34.65a2.87,2.87,0,0,1,2.25-2.52c-1.16-.38-2.08-1.09-2.08-2.31,0-1.85,2.1-2.59,4.05-2.59s4,.74,4,2.59c0,1.22-.93,1.93-2.08,2.31a2.89,2.89,0,0,1,2.25,2.52c0,1.82-2,2.72-4.21,2.72S65.07,36.47,65.07,34.65Zm6.17-.3c0-.81-1.31-1.19-1.95-1.28-.66.09-2,.47-2,1.28s.85,1.17,2,1.17S71.24,35.06,71.24,34.35Zm-.19-4.17c0-.7-.74-1.09-1.76-1.09s-1.78.39-1.78,1.09,1.13,1,1.78,1.13C69.93,31.21,71.05,30.9,71.05,30.18Z"/><path class="cls-4" d="M82.06,37.19,79.43,33.6l-2.64,3.59H74.13l3.81-5-3.57-4.78H77l2.4,3.36,2.38-3.36H84.5l-3.57,4.77,3.81,5Z"/><path class="cls-4" d="M90.23,37.19v-2h-5V33.51l4.17-6.13h3.08v5.94h1.35v1.84H92.46v2Zm0-8-2.84,4.09h2.84Z"/></g><path class="cls-5" d="M55.45,41.26h97.24a0,0,0,0,1,0,0V68.68a0,0,0,0,1,0,0H58.45a3,3,0,0,1-3-3V41.26A0,0,0,0,1,55.45,41.26Z"/><path class="cls-4" d="M64.49,58.18V51.8H62V50.33h6.69V51.8H66.29v6.38Z"/><path class="cls-4" d="M70,58.18V50.33h1.78v7.85Z"/><path class="cls-4" d="M80.83,58.18V52.52l-2.37,5.66h-.78l-2.37-5.66v5.66H73.53V50.33H76l2,4.91,2-4.91h2.52v7.85Z"/><path class="cls-4" d="M84.39,58.18V50.33h5.94V51.8H86.17v1.65h4.07v1.47H86.17v1.79h4.16v1.47Z"/><path class="cls-4" d="M94.58,57.07l1-1.3a3.84,3.84,0,0,0,2.67,1.07c1,0,1.46-.41,1.46-.87,0-1.37-4.83-.41-4.83-3.37,0-1.3,1.21-2.39,3.18-2.39a4.84,4.84,0,0,1,3.27,1.1l-1,1.25a3.75,3.75,0,0,0-2.44-.86c-.76,0-1.19.3-1.19.77,0,1.24,4.83.4,4.83,3.33,0,1.44-1.11,2.52-3.36,2.52A5,5,0,0,1,94.58,57.07Z"/><path class="cls-4" d="M102.41,54.26a4.4,4.4,0,0,1,8.77,0A4,4,0,0,1,110.09,57l.61.67-1.24.95-.68-.73a5,5,0,0,1-2,.39A4.09,4.09,0,0,1,102.41,54.26Zm5.26,2.45-.92-1,1.25-1,.92,1a2.69,2.69,0,0,0,.42-1.49,2.55,2.55,0,1,0-2.54,2.58A2.94,2.94,0,0,0,107.67,56.71Z"/><path class="cls-4" d="M112.54,55V50.33h1.81V55a2,2,0,0,0,3.94,0V50.33h1.83V55c0,1.94-1.24,3.28-3.79,3.28S112.54,57,112.54,55Z"/><path class="cls-4" d="M127.68,58.18l-.53-1.33h-3.6L123,58.18h-2l3.23-7.85h2.24l3.24,7.85ZM125.35,52,124,55.38h2.62Z"/><path class="cls-4" d="M135.33,58.18l-1.65-2.79h-1.31v2.79h-1.78V50.33h3.92a2.56,2.56,0,0,1,2.84,2.53,2.31,2.31,0,0,1-1.85,2.33l1.9,3Zm.18-5.33a1.11,1.11,0,0,0-1.25-1.05h-1.89v2.12h1.89A1.11,1.11,0,0,0,135.51,52.85Z"/><path class="cls-4" d="M138.78,58.18V50.33h5.94V51.8h-4.15v1.65h4.06v1.47h-4.06v1.79h4.15v1.47Z"/><path class="cls-2" d="M152.69,41.26h37.43a0,0,0,0,1,0,0V65.68a3,3,0,0,1-3,3H152.69a0,0,0,0,1,0,0V41.26A0,0,0,0,1,152.69,41.26Z"/><path class="cls-4" d="M165,61.5V51.17l-2.37,2.41-1.72-1.81,4.48-4.5H168V61.5Z"/><path class="cls-4" d="M170.43,59.62l1.69-2.11a5.13,5.13,0,0,0,3.77,1.55c1.69,0,2.65-1,2.65-2.11s-.94-2.11-2.56-2.11A4.11,4.11,0,0,0,173,56l-2.11-.57V47.27h9.77v2.66h-6.74v3.48a4.51,4.51,0,0,1,3.14-1.19,4.44,4.44,0,0,1,4.56,4.6c0,3-2.26,4.93-5.7,4.93A7.11,7.11,0,0,1,170.43,59.62Z"/><polygon class="cls-2" points="190.09 28.64 190.09 41.88 177.85 43.49 190.09 28.64"/><path class="cls-6" d="M187.28,23a2.71,2.71,0,0,0,2.1,3.34,3,3,0,0,0,3.53-2.1,2.72,2.72,0,0,0-2.1-3.36A3,3,0,0,0,187.28,23"/></svg>