<svg width="243.725" height="95.826" id="Layer_1" data-name="Layer 1" xmlns="http://www.w3.org/2000/svg" xmlns:xlink="http://www.w3.org/1999/xlink" viewBox="0 0 234 84"><defs><style>.cls-1{fill:none;}.cls-2{fill:#676d80;}.cls-3{fill:#fff;}.cls-4{fill:#ee3d64;}.cls-5{clip-path:url(#clip-path);}.cls-6{fill:#2d314e;}</style><clipPath id="clip-path"><rect class="cls-1" x="80.99" y="12.34" width="27.42" height="10.55"/></clipPath></defs><path class="cls-2" d="M72.45,26.34h51.14a0,0,0,0,1,0,0v25.8a0,0,0,0,1,0,0H75.45a3,3,0,0,1-3-3V26.34A0,0,0,0,1,72.45,26.34Z"/><path class="cls-3" d="M84.31,42.26l-2-2.71-2,2.71h-2l2.86-3.79-2.68-3.6h2l1.81,2.52,1.79-2.52h2l-2.69,3.59,2.87,3.8Z"/><path class="cls-3" d="M87.16,42.26V34.87h5.59v1.38H88.84V37.8h3.83v1.39H88.84v1.68h3.91v1.39Z"/><path class="cls-3" d="M99.61,42.26l-3.77-4.82v4.82H94.16V34.87h1.73l3.66,4.64V34.87h1.68v7.39Z"/><path class="cls-3" d="M102.51,38.57a4.14,4.14,0,1,1,4.14,3.82A3.85,3.85,0,0,1,102.51,38.57Zm6.53,0A2.4,2.4,0,1,0,106.65,41,2.3,2.3,0,0,0,109,38.57Z"/><path class="cls-3" d="M117.5,42.26l-3.77-4.82v4.82h-1.68V34.87h1.73l3.66,4.64V34.87h1.68v7.39Z"/><path class="cls-4" d="M123.59,26.34h32.23a3,3,0,0,1,3,3v22.8a0,0,0,0,1,0,0H123.59a0,0,0,0,1,0,0V26.34A0,0,0,0,1,123.59,26.34Z"/><path class="cls-3" d="M129,38.69c0-3.45,1.71-6.91,5.55-6.91s5.54,3.46,5.54,6.91-1.71,6.93-5.54,6.93S129,42.14,129,38.69Zm8.18,0c0-2.47-.71-4.38-2.63-4.38s-2.63,1.91-2.63,4.38.72,4.4,2.63,4.4S137.2,41.16,137.2,38.69Z"/><path class="cls-3" d="M142.13,44.21,143.4,42a3.52,3.52,0,0,0,2.67,1c2.21,0,3.35-1.87,3.35-3.78V39A4.41,4.41,0,0,1,146,40.72a4.26,4.26,0,0,1-4.56-4.36c0-2.61,2.07-4.6,5.12-4.6,4.08,0,5.78,3.14,5.78,6.91,0,4.06-2.29,6.93-6.24,6.93A5.83,5.83,0,0,1,142.13,44.21ZM149.4,37a2.68,2.68,0,0,0-2.71-2.71,2.17,2.17,0,0,0-2.39,2c0,1.41,1.23,2,2.47,2A3.35,3.35,0,0,0,149.4,37Z"/><path class="cls-4" d="M75.45,8.88H114a3,3,0,0,1,3,3V26.31a0,0,0,0,1,0,0H72.48a0,0,0,0,1,0,0V11.88A3,3,0,0,1,75.45,8.88Z"/><g class="cls-5"><path class="cls-3" d="M81.49,17.91c0-2.79,1.69-4.77,4.6-4.77a4.58,4.58,0,0,1,2.92.95l-1,1.51a2.71,2.71,0,0,0-2-.72,2.48,2.48,0,0,0-2.47,2.62.62.62,0,0,0,0,.19,3.3,3.3,0,0,1,2.53-1.19c1.77,0,3.37,1,3.37,3,0,1.8-1.54,3.17-3.79,3.17C82.75,22.67,81.49,20.51,81.49,17.91Zm5.91,1.66c0-1-.89-1.38-1.82-1.38a2.58,2.58,0,0,0-1.94.87,1.91,1.91,0,0,0,2,1.87C86.77,20.93,87.4,20.21,87.4,19.57Z"/><path class="cls-3" d="M97.52,22.51l-2.47-3.38-2.48,3.38H90.06l3.59-4.74-3.36-4.49h2.5l2.26,3.15,2.24-3.15h2.53l-3.36,4.48L100,22.51Z"/><path class="cls-3" d="M100.41,21.19l1.11-1.31a4,4,0,0,0,2.71,1.05c1.2,0,1.87-.48,1.87-1.18s-.61-1.06-2-1.06c-.41,0-1.08,0-1.23,0V16.94c.18,0,.86,0,1.23,0,1.1,0,1.84-.31,1.84-1s-.82-1.1-1.84-1.1a3.64,3.64,0,0,0-2.51,1l-1-1.23a5,5,0,0,1,3.77-1.47c2.31,0,3.73,1,3.73,2.5a2.33,2.33,0,0,1-2.16,2.11A2.39,2.39,0,0,1,108.2,20c0,1.59-1.53,2.71-3.89,2.71A5.15,5.15,0,0,1,100.41,21.19Z"/></g><polygon class="cls-4" points="158.82 64.61 158.82 52.14 148.02 52.14 158.82 64.61"/><path class="cls-6" d="M156.17,69.88a2.55,2.55,0,0,1,2-3.15,2.82,2.82,0,0,1,3.33,2,2.57,2.57,0,0,1-2,3.16,2.82,2.82,0,0,1-3.33-2"/></svg>