<svg width="243.725" height="95.826" id="Layer_1" data-name="Layer 1" xmlns="http://www.w3.org/2000/svg" xmlns:xlink="http://www.w3.org/1999/xlink" viewBox="0 0 234 84"><defs><style>.cls-1{fill:none;}.cls-2{fill:#676d80;}.cls-3{fill:#fff;}.cls-4{fill:#55b9ba;}.cls-5{fill:#002c46;}.cls-6{fill:#2d314e;}.cls-7{clip-path:url(#clip-path);}</style><clipPath id="clip-path"><rect class="cls-1" x="128.04" y="13.97" width="27.74" height="10.67"/></clipPath></defs><path class="cls-2" d="M88.15,28.13h76.27a0,0,0,0,1,0,0V51.25a3,3,0,0,1-3,3H88.15a0,0,0,0,1,0,0V28.13A0,0,0,0,1,88.15,28.13Z"/><path class="cls-3" d="M117.29,44.24V43l3.78-4.79h-3.78v-1.4h6v1.28l-3.78,4.79h3.86v1.4Z"/><path class="cls-3" d="M130.3,44.24,129.8,43h-3.43l-.51,1.26h-1.93L127,36.77h2.14l3.08,7.47Zm-2.22-5.88-1.25,3.22h2.5Z"/><path class="cls-3" d="M140,44.24V38.86l-2.25,5.38H137l-2.25-5.38v5.38h-1.7V36.77h2.38l2,4.67,1.94-4.67h2.4v7.47Z"/><path class="cls-3" d="M143.41,44.24V36.77h4.21c1.52,0,2.3.91,2.3,1.91a1.68,1.68,0,0,1-1.38,1.71,1.84,1.84,0,0,1,1.54,1.83c0,1.13-.79,2-2.33,2ZM148.18,39a.82.82,0,0,0-.93-.79h-2.14v1.57h2.14C147.82,39.74,148.18,39.44,148.18,39Zm.16,3c0-.47-.36-.85-1-.85h-2.21v1.7h2.21C148,42.84,148.34,42.53,148.34,42Z"/><path class="cls-3" d="M151.45,44.24V36.77h1.71v7.47Z"/><path class="cls-4" d="M75.34,28.13H108a0,0,0,0,1,0,0V54.25a0,0,0,0,1,0,0H72.34a0,0,0,0,1,0,0V31.13A3,3,0,0,1,75.34,28.13Z"/><path class="cls-5" d="M84,47.4V37.57l-2.25,2.3-1.65-1.73,4.27-4.28H86.9V47.4Z"/><path class="cls-5" d="M95.23,47.4V44.6H88.75V42.33l5.39-8.47h4v8.2h1.74V44.6H98.12v2.8Zm0-11-3.65,5.64h3.65Z"/><path class="cls-6" d="M69.66,71.45a2.59,2.59,0,0,1,2-3.19,2.85,2.85,0,0,1,3.36,2,2.59,2.59,0,0,1-2,3.2,2.86,2.86,0,0,1-3.37-2"/><path class="cls-4" d="M122.39,10.47h39a3,3,0,0,1,3,3V28.1a0,0,0,0,1,0,0h-45a0,0,0,0,1,0,0V13.47A3,3,0,0,1,122.39,10.47Z"/><g class="cls-7"><path class="cls-5" d="M128.54,19.61c0-2.83,1.71-4.83,4.66-4.83a4.62,4.62,0,0,1,3,1l-1,1.53a2.74,2.74,0,0,0-2-.73,2.51,2.51,0,0,0-2.5,2.65,1.21,1.21,0,0,0,0,.19,3.32,3.32,0,0,1,2.56-1.2c1.8,0,3.42,1.05,3.42,3,0,1.82-1.56,3.21-3.84,3.21C129.81,24.43,128.54,22.24,128.54,19.61Zm6,1.68c0-1-.9-1.4-1.85-1.4a2.59,2.59,0,0,0-2,.88,1.93,1.93,0,0,0,2,1.89C133.89,22.66,134.52,21.93,134.52,21.29Z"/><path class="cls-5" d="M144.76,24.26l-2.5-3.42-2.51,3.42h-2.54l3.63-4.79-3.4-4.55H140l2.29,3.19,2.26-3.19h2.57l-3.4,4.53,3.62,4.81Z"/><path class="cls-5" d="M147.69,22.93l1.12-1.33a4.06,4.06,0,0,0,2.74,1.06c1.22,0,1.89-.49,1.89-1.19s-.61-1.08-2-1.08c-.42,0-1.09,0-1.24,0V18.63h1.24c1.11,0,1.86-.31,1.86-1s-.82-1.11-1.86-1.11a3.77,3.77,0,0,0-2.55,1l-1.06-1.25a5.1,5.1,0,0,1,3.82-1.48c2.34,0,3.78,1,3.78,2.53a2.37,2.37,0,0,1-2.19,2.13,2.43,2.43,0,0,1,2.34,2.24c0,1.61-1.55,2.75-3.94,2.75A5.18,5.18,0,0,1,147.69,22.93Z"/></g><polygon class="cls-4" points="72.34 66.11 84.41 53.62 72.34 53.08 72.34 66.11"/></svg>