<svg xmlns="http://www.w3.org/2000/svg" xmlns:xlink="http://www.w3.org/1999/xlink" style="width: 5%;height: auto;" viewBox="0 0 54.44 19.2"><defs><style>.cls-1{fill:none;}.cls-2{font-size:7.07px;}.cls-2,.cls-4{font-family:ProximaNovaA-Regular, Proxima Nova Alt;}.cls-3{clip-path:url(#clip-path);}.cls-4{font-size:10.13px;}</style><clipPath id="clip-path"><rect class="cls-1" x="23.03" y="8.13" width="31" height="9"/></clipPath></defs><title>Asset 25</title><g id="Layer_2" data-name="Layer 2"><g id="Layer_3" data-name="Layer 3"><text class="cls-2" transform="translate(23.5 5.9)">Tamanho</text><path d="M.2,6.27H3.73V6.14H.2Zm3.57,0H7.3V6.14H3.76Zm3.57,0h3.54V6.14H7.33Zm3.57,0h3.54V6.14H10.9Zm3.57,0H18V6.14H14.47ZM0,6.28H.16V6.14H0Zm18,0h.14V6.21h0v0H18ZM.19,7.78h2V6.31h-2Zm2,0h2V6.31h-2Zm2,0h2V6.31h-2Zm2,0h2V6.31h-2Zm2,0h2V6.31h-2Zm2,0h2V6.31h-2Zm2,0h2V6.31h-2Zm2,0h2V6.31h-2Zm2,0h2V6.31H16ZM.19,9.26h2V7.8h-2Zm2,0h2V7.8h-2Zm2,0h2V7.8h-2Zm2,0h2V7.8h-2Zm2,0h2V7.8h-2Zm2,0h2V7.8h-2Zm2,0h2V7.8h-2Zm2,0h2V7.8h-2Zm2,0h2V7.8H16ZM0,10.74H.16V6.31H0Zm18,0h.14V6.31H18Zm-17.85,0h2V9.28h-2Zm2,0h2V9.28h-2Zm2,0h2V9.28h-2Zm2,0h2V9.28h-2Zm3,0h1V9.28h-2v1.47Zm1,0h2V9.28h-2Zm2,0h2V9.28h-2Zm2,0h2V9.28h-2Zm2,0h2V9.28H16Zm2,.37h.08l0,0v0h0v-.23H18Zm-17.93,0H.16v-.34H0V11h0l0,0h0Zm.09,0H3.73v-.35H.2Zm3.57,0H7.3v-.35H3.76Zm3.57,0h3.54v-.35H7.33Zm3.57,0h3.54v-.35H10.9Zm3.57,0H18v-.35H14.47Zm0,0-.1,2.51.1-2.51Zm-.86,0,.1,2.55-.1-2.55Zm-9.91,0,.12,3.07-.12-3.07Zm.85,0-.11,3.07.12-3.07Zm9.88,0-.15,4.32.16-4.32Zm-9.91,0-.15,4.33.16-4.33Zm-.79,0,.16,4.33-.15-4.33h0Zm9.91,0,.2,5.19-.18-5.19Zm-9.15,0-.16,5.22.18-5.22Zm9.19,0,.18,5.22-.16-5.22Zm-9.91,0L4,16.37l-.16-5.22Zm10.63,0-.16,5.22.18-5.22Zm-10.59,0L4,16.38l-.14-5.23ZM4,16.43H4l-.12-5.28h0Zm0,0H4l-.1-5.28h0Zm0,0h0L4,11.15h0Zm0,0h0L4,11.15H4Zm0,0h0l0-5.28H4Zm0,0h0V11.15h0Zm0,0h0l0-5.28h0Zm0,0h0l.05-5.28h0Zm0,0h0l.08-5.28h0Zm0,0h0l.1-5.28h0Zm0,0h0l.12-5.28h0Zm0,0h0l.15-5.28h0Zm0,0h0l.17-5.28h0Zm9.58,0h0l-.15-5.28h0Zm0,0h0l-.12-5.28h0Zm0,0h0l-.1-5.28h0Zm0,0h0l-.08-5.28h0Zm0,0h0l0-5.28h0Zm0,0h0l0-5.28h0Zm0,0h0V11.15h0Zm0,0h0l0-5.28h0Zm0,0h0l.05-5.28h0Zm0,0h0l.08-5.28h0Zm0,0h0l.1-5.28h0Zm0,0h0l.12-5.28h0Zm0,0h0l.15-5.28h0Zm0,0h0l.16-5.28h0Zm-10.46.64H4v-.6H4l-.23.38Zm.3,0h.07v-.61H4.06Zm.11,0h.07v-.62H4.17Zm.09,0h.28v-.22l-.23-.38h0Zm9.42,0h.27v-.6h0l-.23.38Zm.29,0H14v-.61H14Zm.11,0h.07v-.62h-.07Zm.09,0h.28v-.22l-.23-.38h-.05Zm.32.06h0v0h-.83v0h0v0h0v-.22h0l.23-.39h-.07l-.21-5.29h-9l-.21,5.29H4.32l.23.39h0v.22h0v0h0v0H3.73v0h0v0h0v-.22h0L4,16.45H3.91L3.7,11.15H.07v0H0v0H0v-.25H0V6.29H0V6.2H0v0H0l0,0H18.2v.08h0V11h0v0h0l0,0H14.51l-.22,5.29h-.06l.23.39h0v.22h0v0h0"/><path d="M.19,6.31c0,.47,0,4,0,4.45H18V6.31H.19"/><g class="cls-3"><text class="cls-4" transform="translate(23.5 16.99)">12x3m</text></g></g></g></svg>