<svg xmlns="http://www.w3.org/2000/svg" style="width: 5%;height: auto;" viewBox="0 0 51.06 19.2"><defs><style>.cls-1{font-size:11.13px;}.cls-1,.cls-2{font-family:ProximaNovaA-Regular, Proxima Nova Alt;}.cls-2{font-size:7.07px;}.cls-3{fill:none;}.cls-4{fill:#fff;}.cls-5{fill-rule:evenodd;}</style></defs><title>Asset 37</title><g id="Layer_2" data-name="Layer 2"><g id="Layer_3" data-name="Layer 3"><text class="cls-1" transform="translate(20.57 16.99)">17x5m</text><text class="cls-2" transform="translate(20.57 5.9)">Tamanho</text><path class="cls-3" d="M6,8.74s0,0,0,0H6l.56,0Z"/><path class="cls-3" d="M6,10.14v.3a1.67,1.67,0,0,0,0-.27Z"/><path class="cls-3" d="M6,11.09H6c0,.75,0,1.57.07,2.3h0c0-.35,0-.7,0-1S6,11.52,6,11.09Z"/><path class="cls-3" d="M6,9.42v0H6Z"/><path class="cls-3" d="M.35,8.11c0-2.1,0-4.25,0-6.36H.11c0,.72,0,1.46,0,2.2,0,.06,0,.12,0,.19,0,.32,0,.64,0,1,0,1,0,2,0,3A.26.26,0,0,0,.35,8.11Z"/><path class="cls-3" d="M6,10.09a.15.15,0,0,0,0,.05c0-.24,0-.47,0-.7A6.06,6.06,0,0,0,6,10.09Z"/><path class="cls-3" d="M9,8.2v.38c1.44,0,2.93,0,4.4,0V8.17H9.06S9,8.2,9,8.2Z"/><path class="cls-3" d="M7.53,11v-.37c0,.12,0,.25,0,.37Z"/><path class="cls-3" d="M7.56,9.86c0-.09,0-.18,0-.27,0,.2,0,.42,0,.63A2.86,2.86,0,0,0,7.56,9.86Z"/><path class="cls-3" d="M13.2,1.75s0,0,0,0c0,2.11,0,4.24,0,6.34a.48.48,0,0,0,.24,0V1.75A2.09,2.09,0,0,0,13.2,1.75Z"/><path class="cls-3" d="M4.51,1.45H.11c0,.08,0,.16,0,.24h4.4Z"/><path class="cls-3" d="M4.51,8.58a2.62,2.62,0,0,0,0-.4c-1.44,0-2.92,0-4.37,0l0,0a.73.73,0,0,0,0,.17,1,1,0,0,0,0,.23C1.57,8.59,3.07,8.59,4.51,8.58Z"/><path class="cls-3" d="M9.06,1.45v.24h4.39V1.45C12,1.46,10.51,1.43,9.06,1.45Z"/><path class="cls-3" d="M7.53,10.59c0-.09,0-.18,0-.28s0-.06,0-.1a.45.45,0,0,1,0,.09Z"/><path class="cls-3" d="M6.19,10.95c-.05,0-.11,0-.15,0a1.07,1.07,0,0,1,0-.31c0,.15,0,.29,0,.44a1.4,1.4,0,0,0,.33,0c.38,0,.77,0,1.15,0,0,0,0-.09,0-.13C7.12,10.93,6.64,10.95,6.19,10.95Z"/><path class="cls-3" d="M7.56,8.74V9.1a3.73,3.73,0,0,1,0-.4l-1.06,0Z"/><path class="cls-3" d="M9,1.69V1.45H4.57c0,.08,0,.17,0,.24Z"/><path class="cls-3" d="M6,8.77H6V8.59H.11c0-.07,0-.15,0-.23s0,0,0-.05V6.6c0-.5,0-1,0-1.51,0-.05,0-.1,0-.15,0-.26,0-.53,0-.8,0-.06,0-.12,0-.19,0-.72,0-1.45,0-2.17,0,0,0,0,0,0V1.69h0V1.48s0,0,0,0H.58l4.79,0h8.08v.24h0v.06h0c0,2.13,0,4.24,0,6.36h0v.06h0a3.7,3.7,0,0,1,0,.42H7.6v0s0,0,0,.06h0s0,0,0-.06h5.84V1.39c-4.47,0-9,0-13.42,0,0,2.21,0,4.56,0,6.8a1.38,1.38,0,0,0,0,.43c1.94,0,3.91,0,5.83,0v.13H6Z"/><path class="cls-3" d="M9,8.19c-1.43,0-2.93,0-4.37,0-.06.09,0,.28,0,.41,1.45,0,3,0,4.42,0A1.45,1.45,0,0,0,9,8.19Z"/><path class="cls-3" d="M7.48,11.94c0,.22,0,.43,0,.65a4.58,4.58,0,0,0,0-.74c0-.23,0-.52,0-.75h0v0A7.19,7.19,0,0,1,7.48,11.94Z"/><path class="cls-3" d="M7.46,13.24c0-.19,0-.39,0-.59h0C7.47,12.86,7.47,13.05,7.46,13.24Z"/><path class="cls-3" d="M7.47,12.66s0,0,0-.07,0,0,0,0S7.47,12.64,7.47,12.66Z"/><path d="M13.54,1.34H5.37l-5.3,0H0v0C0,3.09,0,4.88,0,6.6V8.3a.86.86,0,0,0,0,.34v0H5.86v.08h0V8.64C4,8.66,2,8.64.08,8.64a1.38,1.38,0,0,1,0-.43c0-2.24,0-4.59,0-6.8,4.44,0,8.95,0,13.42,0V8.64H7.64s0,0,0,.06h5.9Z"/><path class="cls-4" d="M13.45,8.59a3.7,3.7,0,0,0,0-.42h0v.42Z"/><path class="cls-4" d="M13.45,8.11c0-2.11,0-4.23,0-6.36h0V8.11Z"/><path class="cls-4" d="M.1,4.94c0,.05,0,.1,0,.15,0-.32,0-.64,0-1C.1,4.4.1,4.67.1,4.94Z"/><path class="cls-4" d="M.1,1.78c0,.73,0,1.45,0,2.17,0-.74,0-1.48,0-2.2C.1,1.75.1,1.77.1,1.78Z"/><path class="cls-4" d="M.58,1.45H.11s0,0,0,0v.21h0c0-.08,0-.16,0-.24Z"/><polygon class="cls-4" points="13.45 1.69 13.45 1.45 13.44 1.45 13.44 1.69 13.45 1.69"/><path class="cls-4" d="M.1,8.58h0a1,1,0,0,1,0-.23A1.82,1.82,0,0,1,.1,8.58Z"/><path d="M7.6,8.59h5.84c-1.46,0-3,0-4.4,0V8.2s0,0,0,0h4.38V8.11a.48.48,0,0,1-.24,0c0-2.1,0-4.23,0-6.34,0,0,0,0,0,0a2.09,2.09,0,0,1,.24,0V1.69H9.06V1.45c1.46,0,2.92,0,4.39,0H5.37l-4.79,0H4.51v.24H.11v.06H.36c0,2.11,0,4.26,0,6.36a.26.26,0,0,1-.23,0c0-1,0-2,0-3,0,.5,0,1,0,1.51V8.3s0,0,0,.05a.73.73,0,0,1,0-.17l0,0c1.45,0,2.93,0,4.37,0a2.62,2.62,0,0,1,0,.4c-1.44,0-2.94,0-4.39,0H6v.16H6s0,0,0,0h.56l1.06,0s0,0,0-.06ZM9,1.45v.24H4.58c0-.07,0-.16,0-.24ZM4.57,8.58c0-.13,0-.32,0-.41,1.44,0,2.94,0,4.37,0a1.45,1.45,0,0,1,0,.39C7.53,8.59,6,8.59,4.57,8.58Z"/><path class="cls-5" d="M.4,1.78c0,2.11,0,4.26,0,6.34,4.22,0,8.52,0,12.72,0V1.75H.41s0,0,0,0"/></g></g></svg>