<?xml version="1.0" encoding="utf-8"?>
<!-- Generator: Adobe Illustrator 25.2.3, SVG Export Plug-In . SVG Version: 6.00 Build 0)  -->
<svg version="1.1" id="Layer_1" xmlns="http://www.w3.org/2000/svg" width="243.725" height="95.826" xmlns:xlink="http://www.w3.org/1999/xlink" x="0px" y="0px"
	 viewBox="0 0 243.7 95.8" style="enable-background:new 0 0 243.7 95.8;" xml:space="preserve">
<style type="text/css">
	.st0{opacity:0.92;fill:#2D314E;enable-background:new    ;}
	.st1{fill:none;}
	.st2{fill:#681758;}
	.st3{fill:#292333;}
	.st4{fill:#FFFFFF;}
	.st5{fill:#676D81;}
</style>
<g id="_24_julho" transform="translate(-200.275 -451.873)">
	<g id="_24_julho_novo" transform="translate(200.275 451.873)">
		<path id="Path_11" class="st0" d="M126.2,92.6c-0.1,1.9-1.7,3.3-3.6,3.2c-1.9-0.1-3.3-1.7-3.2-3.6c0.1-1.8,1.6-3.2,3.4-3.2
			C124.8,89.1,126.3,90.7,126.2,92.6z"/>
	</g>
	<rect id="Rectangle_43" x="348" y="487" class="st1" width="96" height="26"/>
</g>
<g>
	<g id="Layer_1-2_1_">
		<rect x="112.6" y="20.3" class="st2" width="37.5" height="27.5"/>
		<g>
			<rect x="0.3" y="1.7" class="st2" width="54.8" height="18.6"/>
		</g>
	</g>
	<g>
		<rect x="0.3" y="20.3" class="st3" width="113.3" height="27.5"/>
		<path class="st4" d="M15,39.2v-1.7c4.2-3.1,5.4-4.1,5.4-5.4c0-0.9-0.8-1.3-1.6-1.3c-1.2,0-2,0.5-2.7,1.2l-1.2-1.4
			c1-1.1,2.5-1.7,3.9-1.7c2.2,0,3.9,1.2,3.9,3.2c0,1.7-1.4,3.2-4.1,5.2h4.1v1.9H15z"/>
		<path class="st4" d="M28.7,39.2V37h-4.9v-1.7l4-6.4h3v6.2h1.3V37h-1.3v2.1h-2.1V39.2z M28.7,30.9L26,35.1h2.7V30.9z"/>
		<path class="st4" d="M36.5,38.3l0.9-1.6c0.4,0.4,0.9,0.7,1.6,0.7c1,0,1.6-0.7,1.6-1.6V29h2.2v6.8c0,2.4-1.5,3.5-3.6,3.5
			C38.2,39.3,37.3,39,36.5,38.3z"/>
		<path class="st4" d="M44.9,35.1V29h2.2v6c0,1.4,0.8,2.4,2.4,2.4c1.6,0,2.4-1,2.4-2.4v-6H54v6.1c0,2.5-1.5,4.3-4.6,4.3
			C46.3,39.3,44.9,37.6,44.9,35.1z"/>
		<path class="st4" d="M56,39.2V29h2.2v8.3h4.3v1.9H56z"/>
		<path class="st4" d="M70.9,39.2v-4.3h-4.8v4.3h-2.2V29h2.2v4h4.8v-4H73v10.2H70.9z"/>
		<path class="st4" d="M74.5,34.1c0-3.1,2.2-5.3,5.3-5.3c3.1,0,5.3,2.2,5.3,5.3c0,3.1-2.2,5.3-5.3,5.3
			C76.8,39.3,74.5,37.1,74.5,34.1z M82.9,34.1c0-1.9-1.2-3.3-3.1-3.3c-1.9,0-3.1,1.4-3.1,3.3s1.2,3.3,3.1,3.3
			C81.7,37.4,82.9,36,82.9,34.1z"/>
		<path class="st4" d="M90.6,39.2V29H96c1.9,0,2.9,1.2,2.9,2.6c0,1.3-0.8,2.1-1.8,2.3c1.1,0.2,2,1.2,2,2.5c0,1.5-1,2.8-3,2.8H90.6z
			 M96.7,32c0-0.6-0.5-1.1-1.2-1.1h-2.7V33h2.7C96.2,33,96.7,32.6,96.7,32z M96.9,36.1c0-0.6-0.5-1.2-1.3-1.2h-2.8v2.3h2.8
			C96.4,37.2,96.9,36.8,96.9,36.1z"/>
	</g>
	<g>
		<path class="st4" d="M118.6,34.1c0-3.8,1.9-7.6,6.1-7.6c4.2,0,6.1,3.8,6.1,7.6s-1.9,7.6-6.1,7.6C120.5,41.7,118.6,37.9,118.6,34.1
			z M127.6,34.1c0-2.7-0.8-4.8-2.9-4.8c-2.1,0-2.9,2.1-2.9,4.8c0,2.7,0.8,4.8,2.9,4.8C126.8,38.9,127.6,36.8,127.6,34.1z"/>
		<path class="st4" d="M132.3,34.1c0-4.4,2.5-7.6,6.8-7.6c1.8,0,3.3,0.6,4.3,1.5l-1.4,2.4c-0.8-0.7-1.6-1.1-2.9-1.1
			c-2.2,0-3.7,1.8-3.7,4.2c0,0.1,0,0.2,0,0.3c0.7-1,2.2-1.9,3.8-1.9c2.6,0,5,1.7,5,4.8c0,2.9-2.3,5-5.6,5
			C134.1,41.7,132.3,38.2,132.3,34.1z M141,36.7c0-1.5-1.3-2.2-2.7-2.2c-1.1,0-2.2,0.5-2.9,1.4c0.1,1.4,0.9,3,3,3
			C140.1,38.9,141,37.8,141,36.7z"/>
	</g>
	<g id="Layer_1-2_3_">
		<rect x="112.6" y="48.7" class="st2" width="37.5" height="27.5"/>
	</g>
	<g>
		<rect x="0.3" y="48.8" class="st5" width="113.3" height="27.5"/>
		<path class="st4" d="M14.8,67.6v-1.7c4.2-3.1,5.4-4.1,5.4-5.4c0-0.9-0.8-1.3-1.6-1.3c-1.2,0-2,0.5-2.7,1.2L14.7,59
			c1-1.1,2.5-1.7,3.9-1.7c2.2,0,3.9,1.2,3.9,3.2c0,1.7-1.4,3.2-4.1,5.2h4.1v1.9H14.8z"/>
		<path class="st4" d="M28.5,67.6v-2.1h-4.9v-1.7l4-6.4h3v6.2H32v1.9h-1.3v2.1H28.5z M28.5,59.3l-2.7,4.2h2.7V59.3z"/>
		<path class="st4" d="M36.4,66.8l0.9-1.6c0.4,0.4,0.9,0.7,1.6,0.7c1,0,1.6-0.7,1.6-1.6v-6.8h2.2v6.8c0,2.4-1.5,3.5-3.6,3.5
			C38.1,67.8,37.1,67.5,36.4,66.8z"/>
		<path class="st4" d="M44.7,63.5v-6.1h2.2v6c0,1.4,0.8,2.4,2.4,2.4s2.4-1,2.4-2.4v-6h2.2v6.1c0,2.5-1.5,4.3-4.6,4.3
			C46.2,67.8,44.7,66,44.7,63.5z"/>
		<path class="st4" d="M55.8,67.6V57.4H58v8.3h4.3v1.9C62.3,67.6,55.8,67.6,55.8,67.6z"/>
		<path class="st4" d="M70.7,67.6v-4.3h-4.8v4.3h-2.2V57.4h2.2v4h4.8v-4h2.2v10.2H70.7z"/>
		<path class="st4" d="M74.4,62.5c0-3.1,2.2-5.3,5.3-5.3s5.3,2.2,5.3,5.3s-2.2,5.3-5.3,5.3C76.6,67.8,74.4,65.6,74.4,62.5z
			 M82.8,62.5c0-1.9-1.2-3.3-3.1-3.3c-1.9,0-3.1,1.4-3.1,3.3s1.2,3.3,3.1,3.3S82.8,64.4,82.8,62.5z"/>
		<path class="st4" d="M97.5,67.6l-0.6-1.7h-4.4l-0.6,1.7h-2.5l3.9-10.2H96l3.9,10.2H97.5z M94.7,59.6L93.1,64h3.2L94.7,59.6z"/>
	</g>
	<g>
		<path class="st4" d="M118.6,62.5c0-3.8,1.9-7.6,6.1-7.6c4.2,0,6.1,3.8,6.1,7.6s-1.9,7.6-6.1,7.6C120.5,70.1,118.6,66.3,118.6,62.5
			z M127.6,62.5c0-2.7-0.8-4.8-2.9-4.8c-2.1,0-2.9,2.1-2.9,4.8c0,2.7,0.8,4.8,2.9,4.8S127.6,65.2,127.6,62.5z"/>
		<path class="st4" d="M132.6,67.9l1.7-2.2c1,1,2.4,1.6,3.9,1.6c1.7,0,2.7-1,2.7-2.2c0-1.3-1-2.2-2.6-2.2c-1.2,0-2.2,0.4-3.1,1.2
			l-2.2-0.6v-8.4h10.1v2.8h-7v3.6c0.7-0.7,1.9-1.2,3.2-1.2c2.5,0,4.7,1.8,4.7,4.8c0,3.1-2.3,5.1-5.9,5.1
			C135.7,70.1,133.8,69.3,132.6,67.9z"/>
	</g>
	<g>
		<path class="st4" d="M13.4,11c0-3.2,1.8-5.5,5-5.5c1.3,0,2.4,0.4,3.2,1.1l-1,1.7c-0.6-0.5-1.2-0.8-2.1-0.8c-1.6,0-2.7,1.3-2.7,3
			c0,0.1,0,0.1,0,0.2c0.5-0.7,1.6-1.4,2.7-1.4c1.9,0,3.6,1.2,3.6,3.5c0,2.1-1.7,3.7-4.1,3.7C14.8,16.5,13.4,14,13.4,11z M19.8,13
			c0-1.1-1-1.6-2-1.6c-0.8,0-1.6,0.4-2.1,1c0.1,1,0.7,2.2,2.2,2.2C19.1,14.5,19.8,13.7,19.8,13z"/>
		<path class="st4" d="M30.6,16.3l-2.7-3.9l-2.7,3.9h-2.7l3.9-5.5l-3.6-5.2h2.7l2.4,3.7l2.4-3.7H33l-3.6,5.2l3.9,5.5H30.6z"/>
		<path class="st4" d="M33.6,14.8l1.2-1.5c0.7,0.8,1.9,1.2,2.9,1.2c1.3,0,2-0.6,2-1.4c0-0.8-0.7-1.2-2.1-1.2c-0.4,0-1.2,0-1.3,0v-2
			c0.2,0,0.9,0,1.3,0c1.2,0,2-0.4,2-1.1c0-0.8-0.9-1.3-2-1.3c-1,0-2,0.4-2.7,1.1l-1.1-1.4c0.9-1,2.2-1.7,4.1-1.7c2.5,0,4,1.1,4,2.9
			c0,1.3-1.2,2.2-2.3,2.4c1.1,0.1,2.5,1,2.5,2.6c0,1.8-1.6,3.1-4.2,3.1C35.8,16.5,34.4,15.8,33.6,14.8z"/>
	</g>
</g>
<polygon class="st2" points="150.1,76.2 132.6,86.6 140.3,74.3 "/>
</svg>
