<svg xmlns="http://www.w3.org/2000/svg" xmlns:xlink="http://www.w3.org/1999/xlink" width="140" height="95.826" viewBox="0 0 64.96 35.27"><defs><style>.cls-1{fill:none;}.cls-2{fill:#292333;}.cls-3,.cls-5{fill:#fff;}.cls-4{fill:#681758;}.cls-5{font-size:9.52px;font-family:ProximaNova-Bold, Proxima Nova;font-weight:700;}.cls-6{fill:#2d314e;}.cls-7{fill:#676d81;}.cls-8{clip-path:url(#clip-path);}</style><clipPath id="clip-path"><rect class="cls-1" x="4.05" y="1.64" width="13" height="5"/></clipPath></defs><g id="Layer_2" data-name="Layer 2"><g id="Layer_1-2" data-name="Layer 1"><rect class="cls-2" y="6" width="45.25" height="12.24" rx="2.47"/><path class="cls-3" d="M4.61,14.17v-.59c1.54-1.06,2-1.41,2-1.84s-.3-.46-.61-.46a1.43,1.43,0,0,0-1,.4l-.45-.49A2,2,0,0,1,6,10.62c.8,0,1.43.42,1.43,1.12s-.52,1.11-1.5,1.78H7.43v.65Z"/><path class="cls-3" d="M9.7,14.17v-.72H7.9v-.59l1.49-2.19h1.1v2.12H11v.66h-.49v.72Zm0-2.84-1,1.46h1Z"/><path class="cls-3" d="M12.68,13.89l.35-.57a.9.9,0,0,0,.6.25.54.54,0,0,0,.58-.56V10.67H15V13a1.16,1.16,0,0,1-1.32,1.22A1.5,1.5,0,0,1,12.68,13.89Z"/><path class="cls-3" d="M15.8,12.77v-2.1h.8v2.08a.79.79,0,0,0,.89.82.78.78,0,0,0,.87-.82V10.67h.82v2.1c0,.87-.55,1.47-1.69,1.47S15.8,13.64,15.8,12.77Z"/><path class="cls-3" d="M19.93,14.17v-3.5h.8v2.85h1.59v.65Z"/><path class="cls-3" d="M25.47,14.17V12.7H23.7v1.47h-.8v-3.5h.8v1.38h1.77V10.67h.8v3.5Z"/><path class="cls-3" d="M26.87,12.42a2,2,0,1,1,2,1.82A1.83,1.83,0,0,1,26.87,12.42Zm3.1,0a1.14,1.14,0,1,0-1.14,1.15A1.1,1.1,0,0,0,30,12.42Z"/><path class="cls-3" d="M32.88,14.17v-3.5h2c.71,0,1.08.43,1.08.89a.8.8,0,0,1-.65.81.85.85,0,0,1,.72.85,1,1,0,0,1-1.09.95Zm2.23-2.48c0-.21-.16-.36-.43-.36h-1v.73h1C35,12.06,35.11,11.92,35.11,11.69Zm.08,1.43c0-.22-.17-.4-.48-.4h-1v.8h1C35,13.52,35.19,13.37,35.19,13.12Z"/><rect class="cls-4" x="40.47" y="3.77" width="16.7" height="16.7" rx="4" transform="translate(5.73 38.07) rotate(-45)"/><text class="cls-5" transform="translate(43.01 15.03)">06</text><path class="cls-6" d="M61.28,25.41a1.74,1.74,0,0,1,1.35-2.15,1.93,1.93,0,0,1,2.27,1.35,1.76,1.76,0,0,1-1.35,2.16,1.92,1.92,0,0,1-2.27-1.36"/><rect class="cls-7" y="19" width="45.25" height="12.24" rx="2.47"/><path class="cls-3" d="M4.61,27.17v-.59c1.54-1.06,2-1.41,2-1.84s-.3-.46-.61-.46a1.43,1.43,0,0,0-1,.4l-.45-.49A2,2,0,0,1,6,23.62c.8,0,1.43.42,1.43,1.12s-.52,1.11-1.5,1.78H7.43v.65Z"/><path class="cls-3" d="M9.7,27.17v-.72H7.9v-.59l1.49-2.19h1.1v2.12H11v.66h-.49v.72Zm0-2.84-1,1.46h1Z"/><path class="cls-3" d="M12.68,26.89l.35-.57a.9.9,0,0,0,.6.25.54.54,0,0,0,.58-.56V23.67H15V26a1.16,1.16,0,0,1-1.32,1.22A1.5,1.5,0,0,1,12.68,26.89Z"/><path class="cls-3" d="M15.8,25.77v-2.1h.8v2.08a.79.79,0,0,0,.89.82.78.78,0,0,0,.87-.82V23.67h.82v2.1c0,.87-.55,1.47-1.69,1.47S15.8,26.64,15.8,25.77Z"/><path class="cls-3" d="M19.93,27.17v-3.5h.8v2.85h1.59v.65Z"/><path class="cls-3" d="M25.47,27.17V25.7H23.7v1.47h-.8v-3.5h.8v1.38h1.77V23.67h.8v3.5Z"/><path class="cls-3" d="M26.87,25.42a2,2,0,1,1,2,1.82A1.83,1.83,0,0,1,26.87,25.42Zm3.1,0a1.14,1.14,0,1,0-1.14,1.15A1.1,1.1,0,0,0,30,25.42Z"/><path class="cls-3" d="M35.47,27.17l-.24-.59h-1.6l-.24.59h-.9l1.44-3.5h1l1.44,3.5Zm-1-2.75-.58,1.5H35Z"/><rect class="cls-4" x="40.47" y="16.77" width="16.7" height="16.7" rx="4" transform="translate(-3.46 41.88) rotate(-45)"/><text class="cls-5" transform="translate(43.01 28.03)">05</text><rect class="cls-4" width="21.1" height="8.28" rx="0.9"/><g class="cls-8"><path class="cls-3" d="M4.29,4.28A2.08,2.08,0,0,1,6.47,2a2.12,2.12,0,0,1,1.38.45l-.45.72a1.24,1.24,0,0,0-.93-.35A1.18,1.18,0,0,0,5.3,4.08v.1a1.56,1.56,0,0,1,1.21-.57A1.45,1.45,0,0,1,8.11,5a1.61,1.61,0,0,1-1.8,1.5C4.88,6.54,4.29,5.51,4.29,4.28Zm2.8.79c0-.46-.42-.66-.87-.66a1.21,1.21,0,0,0-.92.42.91.91,0,0,0,1,.88C6.79,5.71,7.09,5.37,7.09,5.07Z"/><path class="cls-3" d="M11.89,6.46l-1.17-1.6L9.54,6.46H8.35l1.7-2.24L8.46,2.08H9.64l1.08,1.5,1.06-1.5H13L11.39,4.21l1.69,2.25Z"/><path class="cls-3" d="M13.26,5.84l.53-.63a1.85,1.85,0,0,0,1.28.5c.57,0,.89-.23.89-.56s-.29-.5-1-.5h-.58V3.82H15c.52,0,.88-.15.88-.47s-.39-.52-.88-.52a1.74,1.74,0,0,0-1.19.46l-.5-.59A2.38,2.38,0,0,1,15.11,2c1.1,0,1.77.46,1.77,1.19a1.09,1.09,0,0,1-1,1,1.15,1.15,0,0,1,1.09,1c0,.76-.72,1.29-1.84,1.29A2.44,2.44,0,0,1,13.26,5.84Z"/></g></g></g></svg>