<?xml version="1.0" encoding="utf-8"?>
<!-- Generator: Adobe Illustrator 25.2.3, SVG Export Plug-In . SVG Version: 6.00 Build 0)  -->
<svg version="1.1" id="Layer_1" xmlns="http://www.w3.org/2000/svg" width="243.725" height="95.826" xmlns:xlink="http://www.w3.org/1999/xlink" x="0px" y="0px"
	 viewBox="0 0 243.7 95.8" style="enable-background:new 0 0 243.7 95.8;" xml:space="preserve">
<style type="text/css">
	.st0{opacity:0.92;fill:#2D314E;enable-background:new    ;}
	.st1{fill:none;}
	.st2{fill:#681758;}
	.st3{fill:#292333;}
	.st4{fill:#676D81;}
	.st5{fill:#FFFFFF;stroke:#FFFFFF;stroke-width:0.5002;stroke-miterlimit:10.002;}
	.st6{fill:#FFFFFF;stroke:#FFFFFF;stroke-width:0.7002;stroke-miterlimit:10.002;}
	.st7{fill:#FFFFFF;}
</style>
<g id="_24_julho" transform="translate(-200.275 -451.873)">
	<g id="_24_julho_novo" transform="translate(200.275 451.873)">
		<path id="Path_11" class="st0" d="M126.2,92.6c-0.1,1.9-1.7,3.3-3.6,3.2c-1.9-0.1-3.3-1.7-3.2-3.6c0.1-1.8,1.6-3.2,3.4-3.2
			C124.8,89.1,126.3,90.7,126.2,92.6z"/>
	</g>
	<rect id="Rectangle_43" x="348" y="487" class="st1" width="96" height="26"/>
</g>
<g>
	<g id="Layer_1-2_1_">
		<rect x="92.8" y="31.4" class="st2" width="30.2" height="22.1"/>
		<g>
			<rect x="2.4" y="16.4" class="st2" width="44.1" height="15"/>
		</g>
	</g>
	<g>
		<rect x="2.4" y="31.4" class="st3" width="91.1" height="22.1"/>
	</g>
	<g id="Layer_1-2_3_">
		<rect x="92.8" y="54.2" class="st2" width="30.2" height="22.1"/>
	</g>
	<g>
		<rect x="2.4" y="54.3" class="st4" width="91.1" height="22.1"/>
	</g>
</g>
<polygon class="st2" points="123,73.9 123,84.4 118,72.9 "/>
<g>
	<g>
		<path class="st5" d="M20.6,46.6h-5.7v-0.8c1.7-1.4,2.9-2.3,3.6-3.1c0.7-0.7,1-1.4,1-2.1c0-0.5-0.2-0.9-0.5-1.1
			c-0.3-0.2-0.7-0.4-1.2-0.4c-1,0-1.7,0.3-2.3,1L15,39.5c0.3-0.4,0.7-0.7,1.2-1c0.5-0.2,1-0.3,1.7-0.3c0.7,0,1.4,0.2,1.9,0.6
			c0.6,0.4,0.8,1,0.8,1.8c0,0.8-0.3,1.5-1,2.3c-0.6,0.8-1.7,1.7-3.1,2.7h4.1V46.6L20.6,46.6z"/>
		<path class="st5" d="M27,46.6h-1v-2.1h-4v-0.9l3.5-5.3H27v5.3h1.2v0.9H27V46.6z M25.9,43.6v-4.3L23,43.6H25.9z"/>
		<path class="st5" d="M34,46.8c-0.9,0-1.6-0.3-2.2-1l0.6-0.8c0.4,0.6,1,0.8,1.5,0.8c0.5,0,0.9-0.2,1.2-0.5s0.5-0.7,0.5-1.3v-5.8h1
			V44c0,0.9-0.2,1.5-0.7,2C35.5,46.5,34.8,46.8,34,46.8z"/>
		<path class="st5" d="M42,46.8c-1.1,0-1.9-0.3-2.5-0.9s-0.9-1.4-0.9-2.5v-5.1h1v5.1c0,0.8,0.2,1.4,0.6,1.9c0.4,0.5,1,0.6,1.8,0.6
			c0.8,0,1.4-0.2,1.8-0.6c0.4-0.4,0.6-1,0.6-1.9v-5.1h1v5.1c0,1-0.3,1.9-0.9,2.5C44.1,46.5,43.1,46.8,42,46.8z"/>
		<path class="st5" d="M52.1,46.6h-4.9v-8.3h1v7.4h3.9V46.6z"/>
		<path class="st5" d="M60.4,46.6h-1v-3.8h-4.8v3.8h-1v-8.3h1v3.5h4.8v-3.5h1V46.6z"/>
		<path class="st5" d="M69.2,45.5c-0.8,0.8-1.8,1.2-3,1.2c-1.2,0-2.2-0.4-3-1.2c-0.8-0.8-1.1-1.9-1.1-3.1c0-1.2,0.4-2.3,1.1-3.1
			c0.8-0.8,1.8-1.2,3-1.2c1.2,0,2.2,0.4,3,1.2c0.8,0.8,1.1,1.9,1.1,3.1C70.3,43.7,69.9,44.7,69.2,45.5z M66.2,45.8
			c0.9,0,1.7-0.3,2.3-1c0.6-0.6,0.9-1.4,0.9-2.4s-0.3-1.8-0.9-2.4c-0.6-0.6-1.3-1-2.3-1c-0.9,0-1.7,0.3-2.3,1
			c-0.6,0.7-0.8,1.4-0.8,2.4s0.2,1.8,0.8,2.4C64.5,45.4,65.2,45.8,66.2,45.8z"/>
		<path class="st5" d="M78.9,46.6h-3.8v-8.3h3.7c0.7,0,1.3,0.2,1.7,0.6c0.4,0.4,0.6,0.9,0.6,1.5c0,0.5-0.2,0.9-0.4,1.3
			c-0.3,0.3-0.6,0.6-1,0.6c0.4,0.1,0.8,0.3,1.1,0.7c0.3,0.4,0.5,0.9,0.5,1.4c0,0.6-0.2,1.2-0.6,1.6C80.3,46.4,79.7,46.6,78.9,46.6z
			 M78.7,41.8c0.5,0,0.8-0.2,1-0.4c0.2-0.2,0.4-0.6,0.4-1s-0.2-0.7-0.4-1c-0.2-0.2-0.6-0.4-1-0.4h-2.5v2.7L78.7,41.8L78.7,41.8z
			 M78.8,45.7c0.5,0,0.9-0.2,1.1-0.4c0.2-0.2,0.4-0.6,0.4-1s-0.2-0.7-0.4-1c-0.2-0.2-0.6-0.4-1.1-0.4h-2.6v2.9h2.6V45.7z"/>
	</g>
	<g>
		<path class="st6" d="M104.5,46.8c-0.6,0-0.9-0.2-1.5-0.4c-0.4-0.2-0.7-0.6-0.9-0.9c-0.3-0.4-0.4-0.9-0.6-1.4
			c-0.2-0.5-0.2-0.9-0.2-1.5c0-0.5,0.1-0.9,0.2-1.5c0.2-0.5,0.3-0.9,0.6-1.4c0.3-0.4,0.6-0.7,0.9-0.9c0.4-0.2,0.9-0.4,1.5-0.4
			c0.6,0,0.9,0.2,1.5,0.4c0.4,0.2,0.7,0.6,0.9,0.9c0.3,0.3,0.4,0.9,0.6,1.4c0.2,0.5,0.2,0.9,0.2,1.5c0,0.5-0.1,0.9-0.2,1.5
			c-0.2,0.5-0.3,0.9-0.6,1.4c-0.3,0.4-0.6,0.7-0.9,0.9C105.5,46.7,104.9,46.8,104.5,46.8z M103.2,45.4c0.3,0.3,0.7,0.5,1.3,0.5
			c0.6,0,0.9-0.2,1.3-0.5c0.3-0.3,0.6-0.7,0.7-1.3c0.2-0.5,0.2-0.9,0.2-1.6c0-0.6-0.1-1.1-0.2-1.6c-0.2-0.5-0.3-0.9-0.7-1.3
			c-0.3-0.3-0.7-0.5-1.3-0.5c-0.5,0-0.9,0.2-1.3,0.5c-0.3,0.3-0.6,0.7-0.7,1.3c-0.2,0.5-0.2,0.9-0.2,1.6c0,0.6,0.1,1.1,0.2,1.6
			C102.6,44.7,102.9,45,103.2,45.4z"/>
		<path class="st6" d="M112.2,46.8c-0.6,0-1-0.2-1.5-0.3s-0.7-0.6-0.9-0.9c-0.3-0.4-0.4-0.9-0.6-1.4c-0.2-0.5-0.2-0.9-0.2-1.6
			c0-1.2,0.3-2.2,0.9-3s1.4-1.3,2.6-1.3c0.9,0,1.7,0.3,2.2,0.9l-0.5,0.8c-0.5-0.6-1-0.9-1.7-0.9s-1.4,0.3-1.7,0.9
			c-0.3,0.6-0.6,1.4-0.6,2.3v0.3c0.2-0.3,0.5-0.6,0.9-0.9c0.5-0.3,0.9-0.4,1.4-0.4c0.8,0,1.4,0.2,1.9,0.7c0.5,0.5,0.8,1.1,0.8,2
			c0,0.7-0.3,1.4-0.8,1.9C113.7,46.7,113,46.8,112.2,46.8z M112.1,45.9c0.6,0,1-0.2,1.4-0.6c0.3-0.3,0.5-0.8,0.5-1.2
			c0-0.6-0.2-0.9-0.5-1.4c-0.3-0.3-0.8-0.4-1.4-0.4c-0.4,0-0.8,0.2-1.2,0.3c-0.4,0.2-0.7,0.5-0.9,0.9c0.1,0.6,0.2,1.1,0.6,1.6
			C111,45.6,111.4,45.9,112.1,45.9z"/>
	</g>
</g>
<g>
	<g>
		<path class="st5" d="M20.4,69.5h-5.7v-0.8c1.7-1.4,2.9-2.3,3.6-3.1c0.7-0.7,1-1.4,1-2.1c0-0.5-0.2-0.9-0.5-1.1
			c-0.3-0.2-0.7-0.4-1.2-0.4c-1,0-1.7,0.3-2.3,1l-0.6-0.6c0.3-0.4,0.7-0.7,1.2-1c0.5-0.3,1-0.3,1.7-0.3s1.4,0.2,1.9,0.6
			c0.6,0.4,0.8,1,0.8,1.8c0,0.8-0.3,1.5-1,2.3c-0.7,0.8-1.7,1.7-3.1,2.7h4.1L20.4,69.5L20.4,69.5z"/>
		<path class="st5" d="M26.7,69.5h-1v-2.1h-3.9v-0.9l3.5-5.3h1.4v5.3h1.2v0.9h-1.2V69.5z M25.8,66.5v-4.3l-3,4.3H25.8z"/>
		<path class="st5" d="M33.9,69.7c-0.9,0-1.6-0.3-2.2-1l0.6-0.8c0.4,0.6,1,0.8,1.5,0.8c0.5,0,0.9-0.2,1.2-0.5s0.5-0.7,0.5-1.3v-5.8
			h1v5.8c0,0.9-0.2,1.5-0.7,2C35.2,69.4,34.6,69.7,33.9,69.7z"/>
		<path class="st5" d="M41.8,69.7c-1.1,0-1.9-0.3-2.5-0.9c-0.6-0.6-0.9-1.4-0.9-2.5v-5.1h1v5.1c0,0.8,0.2,1.4,0.6,1.9
			c0.4,0.5,1,0.6,1.8,0.6c0.8,0,1.4-0.2,1.8-0.6c0.4-0.4,0.6-1,0.6-1.9v-5.1h1v5.1c0,1-0.3,1.9-0.9,2.5S43,69.7,41.8,69.7z"/>
		<path class="st5" d="M52,69.5h-4.9v-8.3h1v7.4H52V69.5z"/>
		<path class="st5" d="M60.3,69.5h-1v-3.8h-4.8v3.8h-1v-8.3h1v3.5h4.8v-3.5h1V69.5z"/>
		<path class="st5" d="M68.9,68.5c-0.8,0.8-1.8,1.2-3,1.2c-1.2,0-2.2-0.4-3-1.2c-0.8-0.8-1.1-1.9-1.1-3.1s0.4-2.3,1.1-3.1
			c0.8-0.8,1.8-1.2,3-1.2c1.2,0,2.2,0.4,3,1.2c0.8,0.8,1.1,1.9,1.1,3.1C70.2,66.6,69.8,67.7,68.9,68.5z M66,68.7
			c0.9,0,1.7-0.3,2.3-1c0.6-0.6,0.9-1.4,0.9-2.4c0-1-0.3-1.8-0.9-2.4s-1.3-1-2.3-1c-0.9,0-1.7,0.3-2.3,1c-0.6,0.6-0.8,1.4-0.8,2.4
			c0,1,0.2,1.8,0.8,2.4C64.4,68.4,65.1,68.7,66,68.7z"/>
		<path class="st5" d="M82.1,69.5h-1.2l-0.6-1.9h-4.1l-0.7,1.9h-1.2l3.4-8.3H79L82.1,69.5z M79.9,66.8l-1.8-4.5l-1.8,4.5H79.9z"/>
	</g>
	<g>
		<path class="st6" d="M104.5,69.6c-0.6,0-1-0.2-1.5-0.4c-0.4-0.2-0.7-0.6-1-1c-0.2-0.4-0.4-0.9-0.6-1.3c-0.2-0.5-0.2-1-0.2-1.5
			c0-0.5,0.1-1,0.2-1.5c0.2-0.5,0.2-1,0.6-1.3c0.2-0.4,0.6-0.7,1-1c0.4-0.2,0.9-0.4,1.5-0.4s1,0.2,1.5,0.4c0.4,0.2,0.7,0.6,1,1
			c0.2,0.4,0.4,0.8,0.6,1.3s0.2,1,0.2,1.5c0,0.5-0.1,1-0.2,1.5c-0.2,0.5-0.2,1-0.6,1.3c-0.2,0.3-0.6,0.7-1,1
			C105.5,69.6,105,69.6,104.5,69.6z M103.3,68.2c0.3,0.3,0.7,0.5,1.2,0.5s0.9-0.2,1.2-0.5s0.6-0.7,0.7-1.2c0.2-0.5,0.2-1,0.2-1.6
			c0-0.6-0.1-1.1-0.2-1.6c-0.2-0.5-0.3-0.9-0.7-1.2c-0.3-0.3-0.7-0.5-1.2-0.5s-0.9,0.2-1.2,0.5c-0.3,0.3-0.6,0.7-0.7,1.2
			c-0.2,0.5-0.2,1-0.2,1.6c0,0.6,0.1,1.1,0.2,1.6C102.7,67.5,102.9,67.9,103.3,68.2z"/>
		<path class="st6" d="M111.9,69.6c-1.3,0-2.2-0.4-2.9-1.3l0.6-0.7c0.6,0.7,1.3,1.1,2.2,1.1c0.6,0,1-0.2,1.3-0.5s0.5-0.7,0.5-1.2
			c0-0.6-0.2-1-0.5-1.3s-0.7-0.5-1.3-0.5c-0.7,0-1.3,0.2-1.9,0.7l-0.7-0.2v-4.4h5v0.9h-4V65c0.5-0.5,1.2-0.7,1.9-0.7
			c0.6,0,1.3,0.2,1.9,0.7c0.5,0.4,0.7,1.1,0.7,1.9s-0.2,1.5-0.8,1.9C113.4,69.4,112.7,69.6,111.9,69.6z"/>
	</g>
</g>
<g>
	<path class="st7" d="M17.1,28.2c-0.6,0-1-0.1-1.4-0.3c-0.4-0.2-0.7-0.6-1-1c-0.3-0.4-0.4-0.9-0.6-1.4c-0.2-0.5-0.2-1-0.2-1.6
		c0-1.2,0.3-2.3,0.9-3.1c0.6-0.8,1.4-1.2,2.5-1.2c1,0,1.7,0.3,2.3,1L19,21.4c-0.5-0.6-1-0.9-1.8-0.9s-1.4,0.3-1.8,1
		c-0.4,0.6-0.6,1.4-0.6,2.3v0.3c0.2-0.3,0.6-0.6,1-0.9c0.4-0.3,0.9-0.4,1.4-0.4c0.8,0,1.4,0.2,1.9,0.7s0.8,1.1,0.8,1.9
		c0,0.7-0.2,1.4-0.8,1.9C18.6,28,18,28.2,17.1,28.2z M17.1,27.2c0.6,0,1-0.2,1.4-0.6c0.3-0.4,0.5-0.8,0.5-1.2c0-0.6-0.2-1-0.6-1.4
		c-0.3-0.3-0.8-0.5-1.4-0.5c-0.4,0-0.8,0.1-1.2,0.3c-0.4,0.2-0.6,0.6-0.9,0.9c0.1,0.6,0.2,1.1,0.6,1.6C15.9,27,16.4,27.2,17.1,27.2z
		"/>
	<path class="st7" d="M28.6,28h-1.3l-2.6-3.5L22,28h-1.3l3.2-4.3l-3.1-4h1.3l2.5,3.3l2.4-3.3h1.3l-3.1,4L28.6,28z"/>
	<path class="st7" d="M32,28.2c-0.6,0-1.3-0.2-1.8-0.4c-0.5-0.2-0.9-0.6-1.2-1l0.6-0.6c0.2,0.3,0.6,0.6,1,0.8
		c0.4,0.2,0.9,0.3,1.4,0.3c0.6,0,1-0.2,1.4-0.4c0.3-0.3,0.6-0.6,0.6-1.1s-0.2-0.9-0.6-1.1c-0.4-0.2-0.9-0.3-1.5-0.3
		c-0.5,0-0.8,0-0.9,0v-1c0.1,0,0.4,0,0.9,0c0.6,0,1-0.1,1.4-0.3c0.4-0.2,0.6-0.6,0.6-1c0-0.4-0.2-0.8-0.6-1
		c-0.3-0.2-0.8-0.4-1.4-0.4c-0.8,0-1.6,0.3-2.2,1l-0.6-0.6c0.7-0.9,1.7-1.3,2.8-1.3c0.8,0,1.5,0.2,2,0.6c0.6,0.4,0.8,1,0.8,1.6
		c0,0.6-0.2,1-0.6,1.3c-0.4,0.3-0.8,0.6-1.2,0.6c0.5,0.1,0.9,0.2,1.3,0.6c0.4,0.4,0.6,0.8,0.6,1.4c0,0.7-0.2,1.3-0.8,1.7
		C33.6,27.9,33,28.2,32,28.2z"/>
</g>
</svg>
