<?xml version="1.0" encoding="utf-8"?>
<!-- Generator: Adobe Illustrator 25.2.3, SVG Export Plug-In . SVG Version: 6.00 Build 0)  -->
<svg version="1.1" id="Layer_1" xmlns="http://www.w3.org/2000/svg" xmlns:xlink="http://www.w3.org/1999/xlink" width="140" height="95.826" x="0px" y="0px"
	 viewBox="0 0 140 95.8" style="enable-background:new 0 0 140 95.8;" xml:space="preserve">
<style type="text/css">
	.st0{fill:#292333;}
	.st1{fill:#FFFFFF;}
	.st2{fill:#681758;}
	.st3{enable-background:new    ;}
	.st4{fill:#2D314E;}
	.st5{fill:#676D81;}
	.st6{clip-path:url(#SVGID_2_);}
</style>
<g id="Layer_2_1_">
	<g id="Layer_1-2">
		<path class="st0" d="M5.3,22.8h86.9c2.9,0,5.3,2.4,5.3,5.3v15.7c0,2.9-2.4,5.3-5.3,5.3H5.3c-2.9,0-5.3-2.4-5.3-5.3V28.2
			C0,25.2,2.4,22.8,5.3,22.8z"/>
		<path class="st1" d="M9.9,40.4v-1.3c3.3-2.3,4.3-3,4.3-4s-0.6-1-1.3-1c-0.8,0-1.6,0.3-2.2,0.9l-1-1.1c0.8-0.8,2-1.3,3.1-1.2
			c1.7,0,3.1,0.9,3.1,2.4s-1.1,2.4-3.2,3.8H16v1.4H9.9z"/>
		<path class="st1" d="M20.9,40.4v-1.6H17v-1.3l3.2-4.7h2.4v4.6h1.1v1.4h-1.1v1.6H20.9z M20.9,34.3l-2.2,3.1h2.2V34.3z"/>
		<path class="st1" d="M27.3,39.8l0.8-1.2c0.3,0.3,0.8,0.5,1.3,0.5c0.6,0,1.2-0.4,1.2-1.1c0,0,0-0.1,0-0.1v-5h1.7v5
			c0.1,1.4-1,2.6-2.3,2.6c-0.2,0-0.3,0-0.5,0C28.7,40.6,27.9,40.3,27.3,39.8z"/>
		<path class="st1" d="M34.1,37.4v-4.5h1.7v4.5c0,0.9,0.7,1.7,1.6,1.8c0.1,0,0.2,0,0.3,0c0.9,0.1,1.8-0.6,1.9-1.5c0-0.1,0-0.2,0-0.3
			v-4.5h1.8v4.5c0,1.9-1.2,3.2-3.6,3.2C35.2,40.6,34.1,39.3,34.1,37.4z"/>
		<path class="st1" d="M43,40.4v-7.5h1.7V39h3.4v1.4H43z"/>
		<path class="st1" d="M54.9,40.4v-3.2h-3.8v3.2h-1.7v-7.5h1.7v3h3.8v-3h1.7v7.5H54.9z"/>
		<path class="st1" d="M57.9,36.7c-0.2-2.4,1.5-4.5,3.9-4.7c2.4-0.2,4.5,1.5,4.7,3.9c0.2,2.4-1.5,4.5-3.9,4.7c-0.1,0-0.2,0-0.4,0
			c-2.2,0.2-4.1-1.4-4.3-3.6C57.9,36.9,57.9,36.8,57.9,36.7z M64.6,36.7c0-1.4-1.1-2.4-2.5-2.4c-1.4,0-2.4,1.1-2.4,2.5
			c0,1.3,1.1,2.4,2.5,2.4c1.3,0.1,2.4-0.9,2.5-2.2C64.7,36.9,64.7,36.8,64.6,36.7L64.6,36.7z"/>
		<path class="st1" d="M70.9,40.4v-7.5h4.3c1.5,0,2.3,0.9,2.3,1.9c0,0.8-0.6,1.6-1.4,1.7c0.9,0.1,1.6,0.9,1.6,1.8
			c-0.1,1.2-1.1,2.1-2.3,2.1c0,0-0.1,0-0.1,0L70.9,40.4z M75.7,35.1c0-0.5-0.3-0.8-0.9-0.8h-2.2v1.6h2.2
			C75.4,35.9,75.7,35.6,75.7,35.1z M75.8,38.2c0-0.5-0.4-0.9-1-0.9h-2.2V39h2.2C75.4,39,75.8,38.7,75.8,38.2z"/>
		<path class="st2" d="M85.9,29.9l13.3-13.3c3.4-3.4,8.8-3.4,12.2,0l13.3,13.3c3.4,3.4,3.4,8.8,0,12.2l-13.3,13.3
			c-3.4,3.4-8.8,3.4-12.2,0L85.9,42.1C82.5,38.8,82.5,33.3,85.9,29.9z"/>
		<g class="st3">
			<path class="st1" d="M102.2,41.5c-0.9,0.7-1.9,1.1-3.2,1.1s-2.3-0.4-3.2-1.1c-0.9-0.7-1.5-1.6-1.9-2.6s-0.6-2.2-0.6-3.4
				c0-1.2,0.2-2.4,0.6-3.4c0.4-1,1-1.9,1.9-2.6s1.9-1,3.2-1s2.3,0.3,3.2,1s1.5,1.6,1.9,2.6c0.4,1,0.6,2.2,0.6,3.4
				c0,1.2-0.2,2.4-0.6,3.4S103.1,40.8,102.2,41.5z M97,38.7c0.4,0.8,1.1,1.2,2,1.2s1.6-0.4,2-1.2c0.4-0.8,0.6-1.9,0.6-3.3
				c0-1.4-0.2-2.5-0.6-3.3c-0.4-0.8-1.1-1.2-2-1.2s-1.6,0.4-2,1.2c-0.4,0.8-0.6,1.9-0.6,3.3C96.4,36.8,96.6,37.9,97,38.7z"/>
			<path class="st1" d="M112,42.5c-2,0-3.4-0.7-4.4-2c-1-1.3-1.5-3-1.5-5.1c0-2.1,0.6-3.8,1.7-5.1s2.7-1.9,4.7-1.9
				c1.6,0,3,0.5,4,1.4l-1.3,2.2c-0.8-0.7-1.7-1.1-2.7-1.1c-1,0-1.8,0.4-2.5,1.1c-0.6,0.7-1,1.7-1,2.8c0,0.1,0,0.2,0,0.3
				c0.3-0.5,0.8-0.9,1.5-1.3c0.6-0.3,1.3-0.5,2-0.5c1.3,0,2.4,0.4,3.3,1.2c0.9,0.8,1.4,1.9,1.4,3.3c0,1.4-0.5,2.5-1.5,3.4
				C114.8,42.1,113.6,42.5,112,42.5z M111.9,40c0.7,0,1.3-0.2,1.8-0.6c0.4-0.4,0.7-0.9,0.7-1.4c0-0.7-0.2-1.2-0.7-1.5
				c-0.5-0.3-1.1-0.5-1.8-0.5c-1.1,0-2,0.4-2.7,1.3c0.1,0.8,0.3,1.4,0.8,2C110.3,39.7,111,40,111.9,40z"/>
		</g>
		<path class="st4" d="M132.1,64.7c-0.5-2,0.7-4.1,2.7-4.6c0.1,0,0.2,0,0.2-0.1c2.1-0.5,4.3,0.8,4.9,2.9c0.5,2-0.7,4.1-2.7,4.6
			c-0.1,0-0.1,0-0.2,0C134.8,68.1,132.7,66.8,132.1,64.7"/>
		<path class="st5" d="M5.3,50.9h86.9c2.9,0,5.3,2.4,5.3,5.3v15.7c0,2.9-2.4,5.3-5.3,5.3H5.3c-2.9,0-5.3-2.4-5.3-5.3V56.2
			C0,53.2,2.4,50.9,5.3,50.9z"/>
		<path class="st1" d="M9.9,68.5v-1.3c3.3-2.3,4.3-3,4.3-4c0-0.9-0.6-1-1.3-1c-0.8,0-1.6,0.3-2.2,0.9l-1-1.1c0.8-0.8,2-1.3,3.1-1.2
			c1.7,0,3.1,0.9,3.1,2.4c0,1.5-1.1,2.4-3.2,3.8H16v1.4L9.9,68.5z"/>
		<path class="st1" d="M20.9,68.5v-1.6H17v-1.3l3.2-4.7h2.4v4.6h1.1v1.4h-1.1v1.6H20.9z M20.9,62.3l-2.2,3.1h2.2V62.3z"/>
		<path class="st1" d="M27.3,67.9l0.8-1.2c0.3,0.3,0.8,0.5,1.3,0.5c0.6,0,1.2-0.4,1.2-1.1c0,0,0-0.1,0-0.1v-5h1.7v5
			c0.1,1.4-1,2.6-2.3,2.6c-0.2,0-0.3,0-0.5,0C28.7,68.6,27.9,68.3,27.3,67.9z"/>
		<path class="st1" d="M34.1,65.4v-4.5h1.7v4.5c0,0.9,0.7,1.7,1.6,1.8c0.1,0,0.2,0,0.3,0c0.9,0.1,1.8-0.6,1.9-1.5c0-0.1,0-0.2,0-0.3
			v-4.5h1.8v4.5c0,1.9-1.2,3.2-3.6,3.2C35.2,68.6,34.1,67.3,34.1,65.4z"/>
		<path class="st1" d="M43,68.5v-7.5h1.7v6.1h3.4v1.4H43z"/>
		<path class="st1" d="M54.9,68.5v-3.2h-3.8v3.2h-1.7v-7.5h1.7v3h3.8v-3h1.7v7.5H54.9z"/>
		<path class="st1" d="M57.9,64.7c-0.2-2.4,1.5-4.5,3.9-4.7c2.4-0.2,4.5,1.5,4.7,3.9c0.2,2.4-1.5,4.5-3.9,4.7c-0.1,0-0.2,0-0.4,0
			c-2.2,0.2-4.1-1.4-4.3-3.6C57.9,64.9,57.9,64.8,57.9,64.7z M64.6,64.7c0-1.4-1.1-2.4-2.5-2.4c-1.4,0-2.4,1.1-2.4,2.5
			c0,1.3,1.1,2.4,2.5,2.4c1.3,0.1,2.4-0.9,2.5-2.2C64.7,64.9,64.7,64.8,64.6,64.7L64.6,64.7z"/>
		<path class="st1" d="M76.4,68.5l-0.5-1.3h-3.4L72,68.5H70l3.1-7.5h2.2l3.1,7.5H76.4z M74.3,62.5L73,65.8h2.4L74.3,62.5z"/>
		<path class="st2" d="M85.9,58l13.3-13.3c3.4-3.4,8.8-3.4,12.2,0L124.6,58c3.4,3.4,3.4,8.8,0,12.2l-13.3,13.3
			c-3.4,3.4-8.8,3.4-12.2,0L85.9,70.1C82.5,66.8,82.5,61.3,85.9,58z"/>
		<g class="st3">
			<path class="st1" d="M102.2,69.5c-0.9,0.7-1.9,1.1-3.2,1.1s-2.3-0.4-3.2-1.1s-1.5-1.6-1.9-2.6c-0.4-1-0.6-2.2-0.6-3.4
				s0.2-2.4,0.6-3.4c0.4-1,1-1.9,1.9-2.6s1.9-1,3.2-1s2.3,0.3,3.2,1s1.5,1.6,1.9,2.6c0.4,1,0.6,2.2,0.6,3.4s-0.2,2.4-0.6,3.4
				C103.8,67.9,103.1,68.8,102.2,69.5z M97,66.7c0.4,0.8,1.1,1.2,2,1.2s1.6-0.4,2-1.2c0.4-0.8,0.6-1.9,0.6-3.3
				c0-1.4-0.2-2.5-0.6-3.3c-0.4-0.8-1.1-1.2-2-1.2s-1.6,0.4-2,1.2c-0.4,0.8-0.6,1.9-0.6,3.3S96.6,65.9,97,66.7z"/>
			<path class="st1" d="M111.7,70.6c-2.3,0-4-0.7-5.3-2.1l1.6-2c1,1,2.2,1.5,3.6,1.5c0.8,0,1.4-0.2,1.9-0.6c0.5-0.4,0.7-0.9,0.7-1.4
				c0-0.6-0.2-1.1-0.7-1.5c-0.4-0.4-1-0.6-1.8-0.6c-1.1,0-2.1,0.4-2.9,1.1l-2-0.6v-7.8h9.4v2.6h-6.5v3.3c0.8-0.8,1.8-1.1,3-1.1
				c1.2,0,2.3,0.4,3.1,1.2c0.9,0.8,1.3,1.9,1.3,3.2c0,1.4-0.5,2.6-1.5,3.4C114.7,70.1,113.3,70.6,111.7,70.6z"/>
		</g>
		<path class="st2" d="M1.9,9.9h41.6c1.1,0,1.9,0.9,1.9,1.9v14c0,1.1-0.9,1.9-1.9,1.9H1.9c-1.1,0-1.9-0.9-1.9-1.9v-14
			C0,10.8,0.9,9.9,1.9,9.9z"/>
		<g>
			<defs>
				<rect id="SVGID_1_" x="8.7" y="13.4" width="28" height="10.8"/>
			</defs>
			<clipPath id="SVGID_2_">
				<use xlink:href="#SVGID_1_"  style="overflow:visible;"/>
			</clipPath>
			<g class="st6">
				<path class="st1" d="M9.2,19.1c-0.2-2.5,1.6-4.7,4-4.9c0.2,0,0.4,0,0.7,0c1.1,0,2.1,0.3,3,1l-1,1.6c-0.5-0.5-1.3-0.8-2-0.8
					c-1.4,0-2.5,1.2-2.5,2.6c0,0.1,0,0.1,0,0.2v0.2c0.6-0.8,1.6-1.2,2.6-1.2c1.7-0.2,3.3,1.1,3.4,2.8c0,0.1,0,0.1,0,0.2
					c-0.1,1.9-1.8,3.4-3.7,3.3c-0.1,0-0.1,0-0.2,0C10.5,24,9.2,21.8,9.2,19.1z M15.3,20.8c0-1-0.9-1.4-1.9-1.4c-0.8,0-1.5,0.3-2,0.9
					c0,1.1,0.9,1.9,2,1.9c0,0,0.1,0,0.1,0C14.6,22.2,15.3,21.5,15.3,20.8z"/>
				<path class="st1" d="M25.6,23.8l-2.5-3.4l-2.5,3.4H18l3.7-4.8l-3.4-4.6h2.5l2.3,3.2l2.3-3.2H28L24.5,19l3.6,4.8H25.6z"/>
				<path class="st1" d="M28.6,22.5l1.1-1.4c0.7,0.7,1.7,1.1,2.8,1.1c1.2,0,1.9-0.5,1.9-1.2s-0.6-1.1-2.2-1.1H31v-1.8h1.3
					c1.1,0,1.9-0.3,1.9-1S33.4,16,32.3,16c-0.9,0-1.9,0.3-2.6,1l-1.1-1.3c1-1,2.4-1.6,3.9-1.5c2.4,0,3.8,1,3.8,2.6
					c-0.1,1.2-1,2.1-2.2,2.2c1.2,0.1,2.2,1,2.3,2.2c0,1.6-1.6,2.8-4,2.8C31.1,24,29.7,23.5,28.6,22.5z"/>
			</g>
		</g>
	</g>
</g>
</svg>
