<?xml version="1.0" encoding="utf-8"?>
<!-- Generator: Adobe Illustrator 25.2.3, SVG Export Plug-In . SVG Version: 6.00 Build 0)  -->
<svg version="1.1" id="Layer_1" xmlns="http://www.w3.org/2000/svg" width="243.725" height="95.826" xmlns:xlink="http://www.w3.org/1999/xlink" x="0px" y="0px"
	 viewBox="0 0 243.7 95.8" style="enable-background:new 0 0 243.7 95.8;" xml:space="preserve">
<style type="text/css">
	.st0{opacity:0.92;fill:#2D314E;enable-background:new    ;}
	.st1{fill:none;}
	.st2{fill:#681758;}
	.st3{fill:#292333;}
	.st4{fill:#676D81;}
	.st5{fill:#FFFFFF;}
</style>
<g id="_24_julho" transform="translate(-200.275 -451.873)">
	<g id="_24_julho_novo" transform="translate(200.275 451.873)">
		<path id="Path_11" class="st0" d="M126.2,92.6c-0.1,1.9-1.7,3.3-3.6,3.2c-1.9-0.1-3.3-1.7-3.2-3.6c0.1-1.8,1.6-3.2,3.4-3.2
			C124.8,89.1,126.3,90.7,126.2,92.6z"/>
	</g>
	<rect id="Rectangle_43" x="348" y="487" class="st1" width="96" height="26"/>
</g>
<g>
	<g id="Layer_1-2_1_">
		<rect x="112.6" y="20.3" class="st2" width="37.5" height="27.5"/>
		<g>
			<rect x="0.3" y="1.7" class="st2" width="54.8" height="18.6"/>
		</g>
	</g>
	<g>
		<rect x="0.3" y="20.3" class="st3" width="113.3" height="27.5"/>
	</g>
	<g id="Layer_1-2_3_">
		<rect x="112.6" y="48.7" class="st2" width="37.5" height="27.5"/>
	</g>
	<g>
		<rect x="0.3" y="48.8" class="st4" width="113.3" height="27.5"/>
	</g>
</g>
<polygon class="st2" points="150.1,76.2 132.6,86.6 140.3,74.3 "/>
<g>
	<g>
		<path class="st5" d="M22.9,39.2h-7.1v-1c2.1-1.7,3.6-2.9,4.5-3.8c0.9-0.9,1.3-1.8,1.3-2.6c0-0.6-0.2-1.1-0.6-1.4
			c-0.4-0.3-0.9-0.5-1.5-0.5c-1.2,0-2.1,0.4-2.8,1.3l-0.8-0.8c0.4-0.5,0.9-0.9,1.5-1.2c0.6-0.3,1.3-0.4,2.1-0.4
			c0.9,0,1.8,0.3,2.4,0.8c0.7,0.5,1,1.3,1,2.2c0,1-0.4,1.9-1.2,2.9s-2.1,2.1-3.8,3.4h5.1V39.2z"/>
		<path class="st5" d="M30.8,39.2h-1.3v-2.6h-4.9v-1.1l4.4-6.6h1.8v6.6h1.5v1.1h-1.5V39.2z M29.5,35.5v-5.4l-3.6,5.4H29.5z"/>
		<path class="st5" d="M39.6,39.4c-1.1,0-2-0.4-2.7-1.2l0.7-1c0.5,0.7,1.2,1,1.9,1c0.6,0,1.1-0.2,1.5-0.6c0.4-0.4,0.6-0.9,0.6-1.6
			v-7.2h1.3v7.2c0,1.1-0.3,1.9-0.9,2.5C41.4,39.1,40.6,39.4,39.6,39.4z"/>
		<path class="st5" d="M49.5,39.4c-1.4,0-2.4-0.4-3.1-1.1s-1.1-1.8-1.1-3.1v-6.3h1.3v6.3c0,1,0.3,1.7,0.8,2.3s1.2,0.8,2.2,0.8
			s1.7-0.3,2.2-0.8c0.5-0.5,0.8-1.3,0.8-2.3v-6.3h1.3v6.3c0,1.3-0.4,2.3-1.1,3.1S50.9,39.4,49.5,39.4z"/>
		<path class="st5" d="M62.1,39.2H56V28.9h1.3v9.2h4.8V39.2z"/>
		<path class="st5" d="M72.4,39.2h-1.3v-4.7h-6v4.7h-1.3V28.9h1.3v4.4h6v-4.4h1.3V39.2z"/>
		<path class="st5" d="M83.3,37.9c-1,1-2.2,1.5-3.7,1.5s-2.7-0.5-3.7-1.5c-1-1-1.4-2.3-1.4-3.8c0-1.5,0.5-2.8,1.4-3.8
			c1-1,2.2-1.5,3.7-1.5s2.7,0.5,3.7,1.5c1,1,1.4,2.3,1.4,3.8C84.7,35.6,84.2,36.9,83.3,37.9z M79.6,38.2c1.1,0,2.1-0.4,2.8-1.2
			c0.7-0.8,1.1-1.8,1.1-3c0-1.2-0.4-2.2-1.1-3c-0.7-0.8-1.6-1.2-2.8-1.2c-1.1,0-2.1,0.4-2.8,1.2c-0.7,0.8-1,1.8-1,3
			c0,1.2,0.3,2.2,1,3C77.5,37.8,78.4,38.2,79.6,38.2z"/>
		<path class="st5" d="M95.4,39.2h-4.7V28.9h4.6c0.9,0,1.6,0.2,2.1,0.7c0.5,0.5,0.8,1.1,0.8,1.9c0,0.6-0.2,1.1-0.5,1.6
			c-0.4,0.4-0.8,0.7-1.3,0.8c0.5,0.1,1,0.4,1.4,0.9c0.4,0.5,0.6,1.1,0.6,1.7c0,0.8-0.3,1.5-0.8,2C97.1,38.9,96.4,39.2,95.4,39.2z
			 M95.1,33.3c0.6,0,1-0.2,1.3-0.5c0.3-0.3,0.5-0.7,0.5-1.2c0-0.5-0.2-0.9-0.5-1.2c-0.3-0.3-0.8-0.5-1.3-0.5H92v3.3H95.1z
			 M95.2,38.1c0.6,0,1.1-0.2,1.4-0.5c0.3-0.3,0.5-0.8,0.5-1.3c0-0.5-0.2-0.9-0.5-1.3c-0.3-0.3-0.8-0.5-1.4-0.5H92v3.6H95.2z"/>
	</g>
	<g>
		<path class="st5" d="M125.2,41.7c-1,0-1.8-0.2-2.6-0.7c-0.7-0.4-1.3-1-1.8-1.8s-0.8-1.6-1-2.4c-0.2-0.9-0.3-1.8-0.3-2.7
			s0.1-1.8,0.3-2.7c0.2-0.9,0.5-1.7,1-2.4s1-1.3,1.8-1.8c0.7-0.4,1.6-0.7,2.6-0.7c1,0,1.8,0.2,2.6,0.7c0.7,0.4,1.3,1,1.8,1.8
			s0.8,1.5,1,2.4c0.2,0.9,0.3,1.8,0.3,2.7s-0.1,1.8-0.3,2.7c-0.2,0.9-0.5,1.7-1,2.4s-1,1.3-1.8,1.8S126.1,41.7,125.2,41.7z
			 M123,39.1c0.6,0.6,1.3,0.9,2.2,0.9c0.9,0,1.6-0.3,2.2-0.9c0.6-0.6,1-1.3,1.2-2.2c0.2-0.9,0.3-1.8,0.3-2.9c0-1.1-0.1-2-0.3-2.9
			c-0.2-0.9-0.6-1.6-1.2-2.2c-0.6-0.6-1.3-0.9-2.2-0.9c-0.9,0-1.6,0.3-2.2,0.9c-0.6,0.6-1,1.3-1.2,2.2c-0.2,0.9-0.3,1.8-0.3,2.9
			c0,1.1,0.1,2,0.3,2.9C122,37.8,122.4,38.5,123,39.1z"/>
		<path class="st5" d="M138.7,41.7c-1,0-1.9-0.2-2.6-0.6c-0.7-0.4-1.3-1-1.8-1.7s-0.8-1.5-1-2.4c-0.2-0.9-0.3-1.8-0.3-2.9
			c0-2.1,0.5-3.9,1.5-5.4c1-1.5,2.5-2.2,4.5-2.2c1.7,0,3,0.6,4,1.8l-0.9,1.4c-0.9-1-1.9-1.5-3.1-1.5c-1.3,0-2.4,0.6-3.1,1.7
			c-0.7,1.1-1.1,2.5-1.1,4.1v0.6c0.4-0.6,0.9-1.1,1.7-1.6c0.8-0.5,1.6-0.7,2.5-0.7c1.4,0,2.5,0.4,3.4,1.2c0.9,0.8,1.4,2,1.4,3.5
			c0,1.3-0.5,2.5-1.4,3.4S140.2,41.7,138.7,41.7z M138.6,40c1.1,0,1.9-0.3,2.5-1c0.6-0.6,0.9-1.4,0.9-2.1c0-1-0.3-1.8-0.9-2.4
			c-0.6-0.5-1.4-0.8-2.4-0.8c-0.7,0-1.4,0.2-2.1,0.6c-0.7,0.4-1.2,0.9-1.6,1.6c0.1,1.1,0.4,2,1,2.9C136.6,39.6,137.4,40,138.6,40z"
			/>
	</g>
</g>
<g>
	<g>
		<path class="st5" d="M22.7,67.7h-7.1v-1c2.1-1.7,3.6-2.9,4.5-3.8c0.9-0.9,1.3-1.8,1.3-2.6c0-0.6-0.2-1.1-0.6-1.4
			c-0.4-0.3-0.9-0.5-1.5-0.5c-1.2,0-2.1,0.4-2.8,1.3l-0.8-0.8c0.4-0.5,0.9-0.9,1.5-1.2c0.6-0.3,1.3-0.4,2.1-0.4
			c0.9,0,1.8,0.3,2.4,0.8c0.7,0.5,1,1.3,1,2.2c0,1-0.4,1.9-1.2,2.9s-2.1,2.1-3.8,3.4h5.1V67.7z"/>
		<path class="st5" d="M30.5,67.7h-1.3v-2.6h-4.9V64l4.4-6.6h1.8V64H32v1.1h-1.5V67.7z M29.3,64v-5.4L25.6,64H29.3z"/>
		<path class="st5" d="M39.4,67.9c-1.1,0-2-0.4-2.7-1.2l0.7-1c0.5,0.7,1.2,1,1.9,1c0.6,0,1.1-0.2,1.5-0.6c0.4-0.4,0.6-0.9,0.6-1.6
			v-7.2h1.3v7.2c0,1.1-0.3,1.9-0.9,2.5C41.1,67.6,40.3,67.9,39.4,67.9z"/>
		<path class="st5" d="M49.3,67.9c-1.4,0-2.4-0.4-3.1-1.1s-1.1-1.8-1.1-3.1v-6.3h1.3v6.3c0,1,0.3,1.7,0.8,2.3s1.2,0.8,2.2,0.8
			s1.7-0.3,2.2-0.8c0.5-0.5,0.8-1.3,0.8-2.3v-6.3h1.3v6.3c0,1.3-0.4,2.3-1.1,3.1S50.7,67.9,49.3,67.9z"/>
		<path class="st5" d="M61.9,67.7h-6.1V57.4h1.3v9.2h4.8V67.7z"/>
		<path class="st5" d="M72.2,67.7h-1.3V63h-6v4.7h-1.3V57.4h1.3v4.4h6v-4.4h1.3V67.7z"/>
		<path class="st5" d="M83,66.4c-1,1-2.2,1.5-3.7,1.5s-2.7-0.5-3.7-1.5c-1-1-1.4-2.3-1.4-3.8c0-1.5,0.5-2.8,1.4-3.8
			c1-1,2.2-1.5,3.7-1.5s2.7,0.5,3.7,1.5c1,1,1.4,2.3,1.4,3.8C84.5,64.1,84,65.4,83,66.4z M79.3,66.7c1.1,0,2.1-0.4,2.8-1.2
			c0.7-0.8,1.1-1.8,1.1-3c0-1.2-0.4-2.2-1.1-3c-0.7-0.8-1.6-1.2-2.8-1.2c-1.1,0-2.1,0.4-2.8,1.2c-0.7,0.8-1,1.8-1,3
			c0,1.2,0.3,2.2,1,3C77.3,66.3,78.2,66.7,79.3,66.7z"/>
		<path class="st5" d="M99.3,67.7h-1.5L97,65.4h-5.1l-0.9,2.3h-1.5l4.2-10.3h1.6L99.3,67.7z M96.6,64.3l-2.2-5.6l-2.2,5.6H96.6z"/>
	</g>
	<g>
		<path class="st5" d="M125.2,70.2c-1,0-1.8-0.2-2.6-0.7c-0.7-0.4-1.3-1-1.8-1.8s-0.8-1.6-1-2.4c-0.2-0.9-0.3-1.8-0.3-2.7
			s0.1-1.8,0.3-2.7c0.2-0.9,0.5-1.7,1-2.4c0.4-0.7,1-1.3,1.8-1.8c0.7-0.4,1.6-0.7,2.6-0.7c1,0,1.8,0.2,2.6,0.7
			c0.7,0.4,1.3,1,1.8,1.8c0.4,0.7,0.8,1.5,1,2.4c0.2,0.9,0.3,1.8,0.3,2.7s-0.1,1.8-0.3,2.7c-0.2,0.9-0.5,1.7-1,2.4s-1,1.3-1.8,1.8
			S126.1,70.2,125.2,70.2z M123,67.6c0.6,0.6,1.3,0.9,2.2,0.9c0.9,0,1.6-0.3,2.2-0.9c0.6-0.6,1-1.3,1.2-2.2c0.2-0.9,0.3-1.8,0.3-2.9
			c0-1.1-0.1-2-0.3-2.9c-0.2-0.9-0.6-1.6-1.2-2.2c-0.6-0.6-1.3-0.9-2.2-0.9c-0.9,0-1.6,0.3-2.2,0.9c-0.6,0.6-1,1.3-1.2,2.2
			c-0.2,0.9-0.3,1.8-0.3,2.9c0,1.1,0.1,2,0.3,2.9C122,66.3,122.4,67,123,67.6z"/>
		<path class="st5" d="M138.5,70.2c-2.3,0-4-0.8-5.2-2.4l1.1-1.2c1,1.3,2.4,2,4,2c1,0,1.8-0.3,2.4-0.9c0.6-0.6,0.9-1.3,0.9-2.2
			c0-1-0.3-1.7-0.9-2.3c-0.6-0.6-1.4-0.9-2.4-0.9c-1.3,0-2.4,0.5-3.4,1.4l-1.3-0.5v-7.9h9v1.6h-7.1V62c0.9-0.9,2.1-1.3,3.4-1.3
			c1.3,0,2.4,0.4,3.3,1.3c0.9,0.8,1.4,2,1.4,3.4s-0.5,2.6-1.5,3.5C141.3,69.7,140,70.2,138.5,70.2z"/>
	</g>
</g>
<g>
	<path class="st5" d="M18.5,16.3c-0.7,0-1.3-0.1-1.8-0.4c-0.5-0.3-0.9-0.7-1.2-1.2s-0.5-1.1-0.7-1.7c-0.2-0.6-0.2-1.3-0.2-2
		c0-1.5,0.4-2.8,1.1-3.8c0.7-1,1.8-1.5,3.1-1.5c1.2,0,2.1,0.4,2.9,1.2l-0.7,1c-0.6-0.7-1.3-1.1-2.2-1.1c-0.9,0-1.7,0.4-2.2,1.2
		c-0.5,0.8-0.8,1.8-0.8,2.9v0.4c0.3-0.4,0.7-0.8,1.2-1.1c0.5-0.3,1.1-0.5,1.7-0.5c1,0,1.8,0.3,2.4,0.9c0.6,0.6,1,1.4,1,2.4
		c0,0.9-0.3,1.7-1,2.4S19.6,16.3,18.5,16.3z M18.5,15.1c0.7,0,1.3-0.2,1.7-0.7c0.4-0.5,0.6-1,0.6-1.5c0-0.7-0.2-1.3-0.7-1.7
		c-0.4-0.4-1-0.6-1.7-0.6c-0.5,0-1,0.1-1.5,0.4s-0.8,0.7-1.1,1.1c0.1,0.8,0.3,1.4,0.7,2C17,14.8,17.7,15.1,18.5,15.1z"/>
	<path class="st5" d="M32.8,16.1h-1.6L28,11.7l-3.3,4.4h-1.6l4-5.3l-3.8-5h1.6L28,9.9L31,5.8h1.6l-3.8,5L32.8,16.1z"/>
	<path class="st5" d="M37.1,16.3c-0.8,0-1.6-0.2-2.2-0.5c-0.6-0.3-1.1-0.7-1.5-1.2l0.8-0.8c0.3,0.4,0.7,0.7,1.2,1
		c0.5,0.2,1.1,0.4,1.7,0.4c0.7,0,1.3-0.2,1.8-0.5c0.4-0.4,0.7-0.8,0.7-1.4c0-0.6-0.2-1.1-0.7-1.4c-0.5-0.3-1.1-0.4-1.9-0.4
		c-0.6,0-1,0-1.1,0v-1.2c0.1,0,0.5,0,1.1,0c0.7,0,1.3-0.1,1.7-0.4c0.5-0.3,0.7-0.7,0.7-1.3c0-0.5-0.2-1-0.7-1.3
		c-0.4-0.3-1-0.5-1.7-0.5c-1,0-2,0.4-2.7,1.3l-0.7-0.8c0.9-1.1,2.1-1.6,3.5-1.6c1,0,1.9,0.2,2.5,0.7c0.7,0.5,1,1.2,1,2
		c0,0.7-0.2,1.2-0.7,1.6c-0.5,0.4-1,0.7-1.5,0.8c0.6,0.1,1.1,0.3,1.6,0.8s0.8,1,0.8,1.8c0,0.9-0.3,1.6-1,2.1
		C39.1,16,38.3,16.3,37.1,16.3z"/>
</g>
</svg>
