<?xml version="1.0" encoding="utf-8"?>
<!-- Generator: Adobe Illustrator 25.2.3, SVG Export Plug-In . SVG Version: 6.00 Build 0)  -->
<svg version="1.1" id="Layer_1" xmlns="http://www.w3.org/2000/svg" width="133" height="70.666" xmlns:xlink="http://www.w3.org/1999/xlink" x="0px" y="0px"
	 viewBox="0 0 133 70.7" style="enable-background:new 0 0 133 70.7;" xml:space="preserve">
<style type="text/css">
	.st0{opacity:0.92;fill:#2D314E;enable-background:new    ;}
	.st1{fill:#676D81;}
	.st2{fill:#55BCBD;}
	.st3{fill:#002C46;}
	.st4{fill:#FFFFFF;}
</style>
<g id="_24_julho_novo" transform="translate(200.275 451.873)">
	<path id="Path_11" class="st0" d="M-128.9-384.6c-0.1,1.9-1.7,3.3-3.6,3.2c-1.9-0.1-3.3-1.7-3.2-3.6c0.1-1.8,1.6-3.2,3.4-3.2
		C-130.3-388.1-128.8-386.5-128.9-384.6z"/>
</g>
<g>
	<g id="Layer_2_1_">
		<g id="Layer_1-2">
			<g>
				<rect x="38" y="22.9" class="st1" width="93.3" height="27.1"/>
			</g>
			<rect x="1.9" y="22.9" class="st2" width="37" height="27.1"/>
			<g>
				<rect x="84.5" y="4.5" class="st2" width="46.8" height="18.4"/>
			</g>
		</g>
	</g>
</g>
<polyline class="st2" points="1.9,50 52,63.5 24.5,48.2 1.9,49.7 "/>
<g>
	<path class="st3" d="M13.9,44c-1,0-1.8-0.2-2.6-0.7s-1.3-1-1.8-1.8c-0.4-0.7-0.8-1.6-1-2.4c-0.2-0.9-0.3-1.8-0.3-2.7
		c0-0.9,0.1-1.8,0.3-2.7c0.2-0.9,0.5-1.7,1-2.4c0.4-0.7,1-1.3,1.8-1.8c0.7-0.4,1.6-0.7,2.6-0.7c1,0,1.8,0.2,2.6,0.7
		c0.7,0.4,1.3,1,1.8,1.8c0.4,0.7,0.8,1.5,1,2.4c0.2,0.9,0.3,1.8,0.3,2.7c0,0.9-0.1,1.8-0.3,2.7c-0.2,0.9-0.5,1.7-1,2.4
		c-0.4,0.7-1,1.3-1.8,1.8S14.9,44,13.9,44z M11.7,41.5c0.6,0.6,1.3,0.9,2.2,0.9c0.9,0,1.6-0.3,2.2-0.9c0.6-0.6,1-1.3,1.2-2.2
		c0.2-0.9,0.3-1.8,0.3-2.9c0-1.1-0.1-2-0.3-2.9c-0.2-0.9-0.6-1.6-1.2-2.2s-1.3-0.9-2.2-0.9c-0.9,0-1.6,0.3-2.2,0.9s-1,1.3-1.2,2.2
		c-0.2,0.9-0.3,1.8-0.3,2.9c0,1.1,0.1,2,0.3,2.9C10.7,40.2,11.1,40.9,11.7,41.5z"/>
	<path class="st3" d="M27.4,44c-1,0-1.9-0.2-2.6-0.6c-0.7-0.4-1.3-1-1.8-1.7s-0.8-1.5-1-2.4c-0.2-0.9-0.3-1.8-0.3-2.9
		c0-2.1,0.5-3.9,1.5-5.4c1-1.5,2.5-2.2,4.5-2.2c1.7,0,3,0.6,4,1.8L30.9,32c-0.9-1-1.9-1.5-3.1-1.5c-1.3,0-2.4,0.6-3.1,1.7
		c-0.7,1.1-1.1,2.5-1.1,4.1v0.6c0.4-0.6,0.9-1.1,1.7-1.6c0.8-0.5,1.6-0.7,2.5-0.7c1.4,0,2.5,0.4,3.4,1.2c0.9,0.8,1.4,2,1.4,3.5
		c0,1.3-0.5,2.5-1.4,3.4S29,44,27.4,44z M27.4,42.4c1.1,0,1.9-0.3,2.5-1c0.6-0.6,0.9-1.4,0.9-2.1c0-1-0.3-1.8-0.9-2.4
		c-0.6-0.5-1.4-0.8-2.4-0.8c-0.7,0-1.4,0.2-2.1,0.6c-0.7,0.4-1.2,0.9-1.6,1.6c0.1,1.1,0.4,2,1,2.9C25.3,42,26.2,42.4,27.4,42.4z"/>
</g>
<g>
	<path class="st3" d="M99.2,19c-0.7,0-1.3-0.1-1.8-0.4c-0.5-0.3-0.9-0.7-1.2-1.2s-0.5-1.1-0.7-1.7c-0.2-0.6-0.2-1.3-0.2-2
		c0-1.5,0.4-2.8,1.1-3.8c0.7-1,1.8-1.5,3.1-1.5c1.2,0,2.1,0.4,2.9,1.2l-0.7,1c-0.6-0.7-1.3-1.1-2.2-1.1c-0.9,0-1.7,0.4-2.2,1.2
		c-0.5,0.8-0.8,1.8-0.8,2.9V14c0.3-0.4,0.7-0.8,1.2-1.1c0.5-0.3,1.1-0.5,1.7-0.5c1,0,1.8,0.3,2.4,0.9c0.6,0.6,1,1.4,1,2.4
		c0,0.9-0.3,1.7-1,2.4S100.3,19,99.2,19z M99.1,17.9c0.7,0,1.3-0.2,1.7-0.7c0.4-0.5,0.6-1,0.6-1.5c0-0.7-0.2-1.3-0.7-1.7
		c-0.4-0.4-1-0.6-1.7-0.6c-0.5,0-1,0.1-1.5,0.4s-0.8,0.7-1.1,1.1c0.1,0.8,0.3,1.4,0.7,2C97.7,17.6,98.3,17.9,99.1,17.9z"/>
	<path class="st3" d="M113.5,18.9h-1.6l-3.3-4.4l-3.3,4.4h-1.6l4-5.3l-3.8-5h1.6l3.1,4.1l3.1-4.1h1.6l-3.8,5L113.5,18.9z"/>
	<path class="st3" d="M117.8,19c-0.8,0-1.6-0.2-2.2-0.5c-0.6-0.3-1.1-0.7-1.5-1.2l0.8-0.8c0.3,0.4,0.7,0.7,1.2,1
		c0.5,0.2,1.1,0.4,1.7,0.4c0.7,0,1.3-0.2,1.8-0.5c0.4-0.4,0.7-0.8,0.7-1.4c0-0.6-0.2-1.1-0.7-1.4c-0.5-0.3-1.1-0.4-1.9-0.4
		c-0.6,0-1,0-1.1,0V13c0.1,0,0.5,0,1.1,0c0.7,0,1.3-0.1,1.7-0.4c0.5-0.3,0.7-0.7,0.7-1.3c0-0.5-0.2-1-0.7-1.3
		c-0.4-0.3-1-0.5-1.7-0.5c-1,0-2,0.4-2.7,1.3l-0.7-0.8c0.9-1.1,2.1-1.6,3.5-1.6c1,0,1.9,0.2,2.5,0.7c0.7,0.5,1,1.2,1,2
		c0,0.7-0.2,1.2-0.7,1.6c-0.5,0.4-1,0.7-1.5,0.8c0.6,0.1,1.1,0.3,1.6,0.8s0.8,1,0.8,1.8c0,0.9-0.3,1.6-1,2.1
		C119.8,18.8,118.9,19,117.8,19z"/>
</g>
<g>
	<path class="st4" d="M80.6,41.8c-0.8,0-1.6-0.2-2.2-0.5c-0.6-0.3-1.1-0.7-1.5-1.2l0.8-0.8c0.3,0.4,0.7,0.7,1.2,1
		c0.5,0.2,1.1,0.4,1.7,0.4c0.7,0,1.3-0.2,1.8-0.5c0.4-0.4,0.7-0.8,0.7-1.4c0-0.6-0.2-1.1-0.7-1.4s-1.1-0.4-1.9-0.4c-0.6,0-1,0-1.1,0
		v-1.2c0.1,0,0.5,0,1.1,0c0.7,0,1.3-0.1,1.7-0.4c0.5-0.3,0.7-0.7,0.7-1.3c0-0.5-0.2-1-0.7-1.3c-0.4-0.3-1-0.5-1.7-0.5
		c-1,0-2,0.4-2.7,1.3L77,32.7c0.9-1.1,2.1-1.6,3.5-1.6c1,0,1.9,0.2,2.5,0.7c0.7,0.5,1,1.2,1,2c0,0.7-0.2,1.2-0.7,1.6
		c-0.5,0.4-1,0.7-1.5,0.8c0.6,0.1,1.1,0.3,1.6,0.8s0.8,1,0.8,1.8c0,0.9-0.3,1.6-1,2.1C82.6,41.5,81.7,41.8,80.6,41.8z"/>
	<path class="st4" d="M89.2,41.8c-0.8,0-1.6-0.2-2.2-0.5c-0.6-0.3-1.1-0.7-1.5-1.2l0.8-0.8c0.3,0.4,0.7,0.7,1.2,1
		c0.5,0.2,1.1,0.4,1.7,0.4c0.7,0,1.3-0.2,1.8-0.5c0.4-0.4,0.7-0.8,0.7-1.4c0-0.6-0.2-1.1-0.7-1.4s-1.1-0.4-1.9-0.4c-0.6,0-1,0-1.1,0
		v-1.2c0.1,0,0.5,0,1.1,0c0.7,0,1.3-0.1,1.7-0.4c0.5-0.3,0.7-0.7,0.7-1.3c0-0.5-0.2-1-0.7-1.3c-0.4-0.3-1-0.5-1.7-0.5
		c-1,0-2,0.4-2.7,1.3l-0.7-0.8c0.9-1.1,2.1-1.6,3.5-1.6c1,0,1.9,0.2,2.5,0.7c0.7,0.5,1,1.2,1,2c0,0.7-0.2,1.2-0.7,1.6
		c-0.5,0.4-1,0.7-1.5,0.8c0.6,0.1,1.1,0.3,1.6,0.8s0.8,1,0.8,1.8c0,0.9-0.3,1.6-1,2.1C91.2,41.5,90.3,41.8,89.2,41.8z"/>
</g>
</svg>
