<?xml version="1.0" encoding="utf-8"?>
<!-- Generator: Adobe Illustrator 25.2.3, SVG Export Plug-In . SVG Version: 6.00 Build 0)  -->
<svg version="1.1" id="Layer_1" xmlns="http://www.w3.org/2000/svg" width="133" height="70.666" xmlns:xlink="http://www.w3.org/1999/xlink" x="0px" y="0px"
	 viewBox="0 0 133 70.7" style="enable-background:new 0 0 133 70.7;" xml:space="preserve">
<style type="text/css">
	.st0{opacity:0.92;fill:#2D314E;enable-background:new    ;}
	.st1{fill:#676D81;}
	.st2{fill:#55BCBD;}
	.st3{fill:#FFFFFF;}
	.st4{fill:#002C46;}
</style>
<g id="_24_julho_novo" transform="translate(200.275 451.873)">
	<path id="Path_11" class="st0" d="M-128.9-384.6c-0.1,1.9-1.7,3.3-3.6,3.2c-1.9-0.1-3.3-1.7-3.2-3.6c0.1-1.8,1.6-3.2,3.4-3.2
		C-130.3-388.1-128.8-386.5-128.9-384.6z"/>
</g>
<g>
	<g id="Layer_2_1_">
		<g id="Layer_1-2">
			<g>
				<rect x="38" y="22.9" class="st1" width="93.3" height="27.1"/>
			</g>
			<rect x="1.9" y="22.9" class="st2" width="37" height="27.1"/>
			<g>
				<rect x="84.3" y="4.5" class="st2" width="46.8" height="18.4"/>
			</g>
		</g>
	</g>
	<g>
		<g>
			<path class="st3" d="M76.4,40.1l1.1-1.4c0.7,0.7,1.8,1.1,2.8,1.1c1.2,0,1.9-0.5,1.9-1.3s-0.6-1.2-2-1.2c-0.4,0-1.1,0-1.3,0v-1.9
				c0.2,0,0.9,0,1.3,0c1.1,0,1.9-0.3,1.9-1.1c0-0.8-0.8-1.2-1.9-1.2c-1,0-1.9,0.4-2.6,1l-1.1-1.3c0.8-0.9,2.1-1.6,3.8-1.6
				c2.4,0,3.8,1.1,3.8,2.7c0,1.3-1.1,2.1-2.2,2.3c1,0.1,2.4,0.9,2.4,2.4c0,1.7-1.6,3-4,3C78.6,41.7,77.2,41,76.4,40.1z"/>
			<path class="st3" d="M85.3,40.1l1.1-1.4c0.7,0.7,1.8,1.1,2.8,1.1c1.2,0,1.9-0.5,1.9-1.3s-0.6-1.2-2-1.2c-0.4,0-1.1,0-1.3,0v-1.9
				c0.2,0,0.9,0,1.3,0c1.1,0,1.9-0.3,1.9-1.1c0-0.8-0.8-1.2-1.9-1.2c-1,0-1.9,0.4-2.6,1l-1.1-1.3c0.8-0.9,2.1-1.6,3.8-1.6
				c2.4,0,3.8,1.1,3.8,2.7c0,1.3-1.1,2.1-2.2,2.3c1,0.1,2.4,0.9,2.4,2.4c0,1.7-1.6,3-4,3C87.4,41.7,86,41,85.3,40.1z"/>
		</g>
		<g>
			<path class="st4" d="M93.5,13.7c0-3.2,1.8-5.5,4.9-5.5c1.3,0,2.4,0.4,3.1,1.1l-1,1.7c-0.6-0.5-1.2-0.8-2.1-0.8
				c-1.6,0-2.6,1.3-2.6,3c0,0.1,0,0.1,0,0.2c0.5-0.7,1.6-1.4,2.7-1.4c1.9,0,3.6,1.2,3.6,3.4c0,2.1-1.6,3.6-4.1,3.6
				C94.8,19.1,93.5,16.7,93.5,13.7z M99.8,15.6c0-1.1-0.9-1.6-1.9-1.6c-0.8,0-1.6,0.4-2.1,1c0.1,1,0.7,2.1,2.1,2.1
				C99.1,17.1,99.8,16.3,99.8,15.6z"/>
			<path class="st4" d="M110.5,19l-2.6-3.9l-2.7,3.9h-2.7l3.8-5.4l-3.6-5.1h2.7l2.4,3.6l2.4-3.6h2.7l-3.6,5.1l3.8,5.4H110.5z"/>
			<path class="st4" d="M113.4,17.5l1.2-1.5c0.7,0.8,1.9,1.2,2.9,1.2c1.3,0,2-0.6,2-1.3c0-0.8-0.6-1.2-2.1-1.2c-0.4,0-1.2,0-1.3,0
				v-2c0.2,0,0.9,0,1.3,0c1.2,0,2-0.3,2-1.1c0-0.8-0.9-1.2-2-1.2c-1,0-1.9,0.4-2.7,1.1l-1.1-1.4c0.9-1,2.2-1.7,4-1.7
				c2.5,0,4,1.1,4,2.9c0,1.3-1.1,2.2-2.3,2.4c1.1,0.1,2.5,0.9,2.5,2.5c0,1.8-1.6,3.1-4.2,3.1C115.7,19.1,114.2,18.4,113.4,17.5z"/>
		</g>
	</g>
</g>
<polyline class="st2" points="1.9,50 52,63.5 24.5,48.2 1.9,49.7 "/>
<g>
	<path class="st4" d="M7.8,36.4c0-3.8,1.9-7.6,6.1-7.6c4.2,0,6.1,3.8,6.1,7.6S18.1,44,13.9,44C9.7,44,7.8,40.2,7.8,36.4z M16.8,36.4
		c0-2.7-0.8-4.8-2.9-4.8c-2.1,0-2.9,2.1-2.9,4.8s0.8,4.8,2.9,4.8C16,41.2,16.8,39.1,16.8,36.4z"/>
	<path class="st4" d="M21.5,36.4c0-4.4,2.5-7.6,6.8-7.6c1.8,0,3.3,0.6,4.3,1.5l-1.4,2.4c-0.8-0.7-1.6-1.1-2.9-1.1
		c-2.2,0-3.7,1.8-3.7,4.2c0,0.1,0,0.2,0,0.3c0.7-1,2.2-1.9,3.8-1.9c2.6,0,5,1.7,5,4.8c0,2.9-2.3,5-5.6,5
		C23.3,44,21.5,40.6,21.5,36.4z M30.3,39.1c0-1.5-1.3-2.2-2.7-2.2c-1.1,0-2.2,0.5-2.9,1.4c0.1,1.4,0.9,3,3,3
		C29.3,41.2,30.3,40.1,30.3,39.1z"/>
</g>
</svg>
