<?xml version="1.0" encoding="utf-8"?>
<!-- Generator: Adobe Illustrator 25.2.3, SVG Export Plug-In . SVG Version: 6.00 Build 0)  -->
<svg version="1.1" id="Layer_1" xmlns="http://www.w3.org/2000/svg" width="133" height="70.666" xmlns:xlink="http://www.w3.org/1999/xlink" x="0px" y="0px"
	 viewBox="0 0 130 70.7" style="enable-background:new 0 0 130 70.7;" xml:space="preserve">
<style type="text/css">
	.st0{opacity:0.92;fill:#2D314E;enable-background:new    ;}
	.st1{fill:#676D81;}
	.st2{fill:#55BCBD;}
	.st3{fill:#FFFFFF;}
	.st4{fill:#002C46;}
</style>
<g id="_24_julho_novo" transform="translate(200.275 451.873)">
	<path id="Path_11" class="st0" d="M-130.4-384.6c-0.1,1.9-1.7,3.3-3.6,3.2s-3.3-1.7-3.2-3.6c0.1-1.8,1.6-3.2,3.4-3.2
		C-131.8-388.1-130.3-386.5-130.4-384.6z"/>
</g>
<g>
	<g id="Layer_2_1_">
		<g id="Layer_1-2">
			<g>
				<rect x="36.5" y="22.9" class="st1" width="93.3" height="27.1"/>
			</g>
			<rect x="0.4" y="22.9" class="st2" width="37" height="27.1"/>
			<g>
				<rect x="82.8" y="4.5" class="st2" width="46.8" height="18.4"/>
			</g>
		</g>
	</g>
	<g>
		<g>
			<path class="st3" d="M74.9,40.1l1.1-1.4c0.7,0.7,1.8,1.1,2.8,1.1c1.2,0,1.9-0.5,1.9-1.3s-0.6-1.2-2-1.2c-0.4,0-1.1,0-1.3,0v-1.9
				c0.2,0,0.9,0,1.3,0c1.1,0,1.9-0.3,1.9-1.1c0-0.8-0.8-1.2-1.9-1.2c-1,0-1.9,0.4-2.6,1L75,32.8c0.8-0.9,2.1-1.6,3.8-1.6
				c2.4,0,3.8,1.1,3.8,2.7c0,1.3-1.1,2.1-2.2,2.3c1,0.1,2.4,0.9,2.4,2.4c0,1.7-1.6,3-4,3C77.1,41.7,75.7,41,74.9,40.1z"/>
			<path class="st3" d="M83.8,40.1l1.1-1.4c0.7,0.7,1.8,1.1,2.8,1.1c1.2,0,1.9-0.5,1.9-1.3s-0.6-1.2-2-1.2c-0.4,0-1.1,0-1.3,0v-1.9
				c0.2,0,0.9,0,1.3,0c1.1,0,1.9-0.3,1.9-1.1c0-0.8-0.8-1.2-1.9-1.2c-1,0-1.9,0.4-2.6,1l-1.1-1.3c0.8-0.9,2.1-1.6,3.8-1.6
				c2.4,0,3.8,1.1,3.8,2.7c0,1.3-1.1,2.1-2.2,2.3c1,0.1,2.4,0.9,2.4,2.4c0,1.7-1.6,3-4,3C85.9,41.7,84.5,41,83.8,40.1z"/>
		</g>
		<g>
			<path class="st4" d="M12.2,43.7V33.2l-2.4,2.5L8,33.9l4.6-4.6h2.7v14.5L12.2,43.7L12.2,43.7z"/>
			<path class="st4" d="M17.5,36.5c0-4.4,2.5-7.5,6.8-7.5c1.8,0,3.2,0.6,4.3,1.5l-1.4,2.4c-0.8-0.7-1.6-1.1-2.9-1.1
				c-2.1,0-3.6,1.8-3.6,4.1c0,0.1,0,0.2,0,0.3c0.7-1,2.1-1.9,3.7-1.9c2.6,0,5,1.6,5,4.7c0,2.8-2.3,5-5.6,5
				C19.3,44,17.5,40.6,17.5,36.5z M26.2,39.1c0-1.5-1.3-2.2-2.7-2.2c-1.1,0-2.2,0.5-2.8,1.4c0.1,1.4,0.9,2.9,2.9,2.9
				C25.2,41.2,26.2,40.1,26.2,39.1z"/>
		</g>
		<g>
			<path class="st4" d="M92,13.7c0-3.2,1.8-5.5,4.9-5.5c1.3,0,2.4,0.4,3.1,1.1L99,11c-0.6-0.5-1.2-0.8-2.1-0.8c-1.6,0-2.6,1.3-2.6,3
				c0,0.1,0,0.1,0,0.2c0.5-0.7,1.6-1.4,2.7-1.4c1.9,0,3.6,1.2,3.6,3.4c0,2.1-1.6,3.6-4.1,3.6C93.3,19.1,92,16.7,92,13.7z M98.3,15.6
				c0-1.1-0.9-1.6-1.9-1.6c-0.8,0-1.6,0.4-2.1,1c0.1,1,0.7,2.1,2.1,2.1C97.6,17.1,98.3,16.3,98.3,15.6z"/>
			<path class="st4" d="M109,19l-2.6-3.9l-2.7,3.9H101l3.8-5.4l-3.6-5.1h2.7l2.4,3.6l2.4-3.6h2.7l-3.6,5.1l3.8,5.4H109z"/>
			<path class="st4" d="M111.9,17.5l1.2-1.5c0.7,0.8,1.9,1.2,2.9,1.2c1.3,0,2-0.6,2-1.3c0-0.8-0.6-1.2-2.1-1.2c-0.4,0-1.2,0-1.3,0
				v-2c0.2,0,0.9,0,1.3,0c1.2,0,2-0.3,2-1.1c0-0.8-0.9-1.2-2-1.2c-1,0-1.9,0.4-2.7,1.1l-1.1-1.4c0.9-1,2.2-1.7,4-1.7
				c2.5,0,4,1.1,4,2.9c0,1.3-1.1,2.2-2.3,2.4c1.1,0.1,2.5,0.9,2.5,2.5c0,1.8-1.6,3.1-4.2,3.1C114.2,19.1,112.7,18.4,111.9,17.5z"/>
		</g>
	</g>
</g>
<polyline class="st2" points="0.4,50 50.5,63.5 23,48.2 0.4,49.7 "/>
</svg>
