<?xml version="1.0" encoding="utf-8"?>
<!-- Generator: Adobe Illustrator 25.2.3, SVG Export Plug-In . SVG Version: 6.00 Build 0)  -->
<svg version="1.1" id="Layer_1" xmlns="http://www.w3.org/2000/svg" width="133" height="70.666" xmlns:xlink="http://www.w3.org/1999/xlink" x="0px" y="0px"
	 viewBox="0 0 133 70.7" style="enable-background:new 0 0 133 70.7;" xml:space="preserve">
<style type="text/css">
	.st0{opacity:0.92;fill:#2D314E;enable-background:new    ;}
	.st1{fill:#676D81;}
	.st2{fill:#55BCBD;}
	.st3{fill:#002C46;stroke:#002C46;stroke-width:0.7;stroke-miterlimit:10;}
	.st4{fill:#002C46;}
	.st5{fill:#FFFFFF;stroke:#FFFFFF;stroke-width:0.5;stroke-miterlimit:10;}
</style>
<g id="_24_julho_novo" transform="translate(200.275 451.873)">
	<path id="Path_11" class="st0" d="M-128.9-384.6c-0.1,1.9-1.7,3.3-3.6,3.2c-1.9-0.1-3.3-1.7-3.2-3.6c0.1-1.8,1.6-3.2,3.4-3.2
		C-130.3-388.1-128.8-386.5-128.9-384.6z"/>
</g>
<g>
	<rect x="97.2" y="27.8" class="st1" width="35.8" height="22.1"/>
</g>
<rect x="67.7" y="27.8" class="st2" width="30.2" height="22.1"/>
<g>
	<rect x="97.8" y="12.8" class="st2" width="35.2" height="15"/>
</g>
<polyline class="st2" points="67.7,50 67.7,60.3 73.2,49.3 67.7,49.7 "/>
<g>
	<path class="st3" d="M79.3,42.9c-0.5,0-1-0.1-1.4-0.4c-0.4-0.3-0.7-0.5-1-1c-0.2-0.4-0.4-0.9-0.5-1.3c-0.1-0.5-0.2-1-0.2-1.5
		s0.1-1,0.2-1.5s0.3-0.9,0.5-1.3c0.2-0.4,0.5-0.7,1-1c0.4-0.2,0.9-0.4,1.4-0.4s1,0.1,1.4,0.4c0.4,0.2,0.7,0.5,1,1
		c0.2,0.4,0.4,0.8,0.5,1.3s0.2,1,0.2,1.5s-0.1,1-0.2,1.5c-0.1,0.5-0.3,0.9-0.5,1.3c-0.2,0.4-0.5,0.7-1,1
		C80.3,42.8,79.9,42.9,79.3,42.9z M78.1,41.6c0.3,0.3,0.7,0.5,1.2,0.5s0.9-0.2,1.2-0.5c0.3-0.3,0.5-0.7,0.6-1.2
		c0.1-0.5,0.2-1,0.2-1.6c0-0.6-0.1-1.1-0.2-1.6c-0.1-0.5-0.3-0.9-0.6-1.2s-0.7-0.5-1.2-0.5s-0.9,0.2-1.2,0.5s-0.5,0.7-0.6,1.2
		s-0.2,1-0.2,1.6s0.1,1.1,0.2,1.6C77.6,40.9,77.8,41.3,78.1,41.6z"/>
	<path class="st3" d="M86.6,42.9c-0.5,0-1-0.1-1.4-0.3c-0.4-0.2-0.7-0.5-1-0.9c-0.3-0.4-0.4-0.8-0.5-1.3c-0.1-0.5-0.2-1-0.2-1.6
		c0-1.1,0.3-2.1,0.8-2.9c0.5-0.8,1.3-1.2,2.4-1.2c0.9,0,1.6,0.3,2.1,1l-0.4,0.8c-0.5-0.5-1-0.8-1.7-0.8c-0.7,0-1.3,0.3-1.7,0.9
		c-0.4,0.6-0.6,1.3-0.6,2.2v0.3c0.2-0.3,0.5-0.6,0.9-0.9c0.4-0.3,0.9-0.4,1.3-0.4c0.8,0,1.3,0.2,1.8,0.6c0.5,0.4,0.8,1.1,0.8,1.9
		c0,0.7-0.3,1.3-0.8,1.8C88.1,42.7,87.4,42.9,86.6,42.9z M86.6,42.1c0.6,0,1-0.2,1.3-0.5c0.3-0.3,0.5-0.8,0.5-1.1
		c0-0.5-0.2-1-0.5-1.3c-0.3-0.3-0.8-0.4-1.3-0.4c-0.4,0-0.8,0.1-1.1,0.3s-0.6,0.5-0.9,0.9c0.1,0.6,0.2,1.1,0.5,1.6
		C85.4,41.9,85.9,42.1,86.6,42.1z"/>
</g>
<g>
	<path class="st4" d="M108.1,24.6c-0.6,0-1.1-0.1-1.5-0.3c-0.4-0.2-0.7-0.6-1-1c-0.2-0.4-0.4-0.9-0.6-1.4s-0.2-1.1-0.2-1.6
		c0-1.2,0.3-2.3,0.9-3.1s1.5-1.2,2.5-1.2c1,0,1.7,0.3,2.4,1l-0.6,0.8c-0.5-0.6-1.1-0.9-1.8-0.9c-0.7,0-1.4,0.3-1.8,1
		c-0.4,0.7-0.7,1.5-0.7,2.4v0.3c0.2-0.3,0.6-0.7,1-0.9c0.4-0.2,0.9-0.4,1.4-0.4c0.8,0,1.5,0.2,2,0.7c0.5,0.5,0.8,1.1,0.8,2
		c0,0.7-0.2,1.4-0.8,2S109,24.6,108.1,24.6z M108,23.7c0.6,0,1.1-0.2,1.4-0.6c0.3-0.4,0.5-0.8,0.5-1.2c0-0.6-0.2-1.1-0.6-1.4
		c-0.3-0.3-0.8-0.5-1.4-0.5c-0.4,0-0.8,0.1-1.2,0.3c-0.4,0.2-0.7,0.6-0.9,0.9c0.1,0.7,0.2,1.1,0.6,1.6
		C106.9,23.5,107.4,23.7,108,23.7z"/>
	<path class="st4" d="M119.8,24.6h-1.3l-2.7-3.6l-2.7,3.6h-1.3l3.3-4.3l-3.1-4.1h1.3l2.5,3.3l2.5-3.3h1.3l-3.1,4.1L119.8,24.6z"/>
	<path class="st4" d="M123.3,24.6c-0.7,0-1.3-0.2-1.8-0.4c-0.5-0.2-0.9-0.6-1.2-1l0.7-0.7c0.2,0.3,0.6,0.6,1,0.8
		c0.4,0.2,0.9,0.3,1.4,0.3c0.6,0,1.1-0.2,1.5-0.4c0.3-0.3,0.6-0.7,0.6-1.1c0-0.5-0.2-0.9-0.6-1.1c-0.4-0.2-0.9-0.3-1.6-0.3
		c-0.5,0-0.8,0-0.9,0v-1c0.1,0,0.4,0,0.9,0c0.6,0,1.1-0.1,1.4-0.3c0.4-0.2,0.6-0.6,0.6-1.1c0-0.4-0.2-0.8-0.6-1.1
		c-0.3-0.2-0.8-0.4-1.4-0.4c-0.8,0-1.6,0.3-2.2,1.1l-0.6-0.7c0.7-0.9,1.7-1.3,2.9-1.3c0.8,0,1.6,0.2,2,0.6c0.6,0.4,0.8,1,0.8,1.6
		c0,0.6-0.2,1-0.6,1.3c-0.4,0.3-0.8,0.6-1.2,0.7c0.5,0.1,0.9,0.2,1.3,0.7c0.4,0.4,0.7,0.8,0.7,1.5c0,0.7-0.2,1.3-0.8,1.7
		C124.9,24.5,124.2,24.6,123.3,24.6z"/>
</g>
<g>
	<path class="st5" d="M111.6,43.3c-0.7,0-1.3-0.2-1.8-0.4c-0.5-0.2-0.9-0.6-1.2-1l0.7-0.7c0.2,0.3,0.6,0.6,1,0.8
		c0.4,0.2,0.9,0.3,1.4,0.3c0.6,0,1.1-0.2,1.5-0.4c0.3-0.3,0.6-0.7,0.6-1.1c0-0.5-0.2-0.9-0.6-1.1c-0.4-0.2-0.9-0.3-1.6-0.3
		c-0.5,0-0.8,0-0.9,0v-1c0.1,0,0.4,0,0.9,0c0.6,0,1.1-0.1,1.4-0.3c0.4-0.2,0.6-0.6,0.6-1.1c0-0.4-0.2-0.8-0.6-1.1
		c-0.3-0.2-0.8-0.4-1.4-0.4c-0.8,0-1.6,0.3-2.2,1.1l-0.7-0.7c0.7-0.9,1.7-1.3,2.9-1.3c0.8,0,1.6,0.2,2,0.6c0.6,0.4,0.8,1,0.8,1.6
		c0,0.6-0.2,1-0.6,1.3c-0.4,0.3-0.8,0.6-1.2,0.7c0.5,0.1,0.9,0.2,1.3,0.7c0.4,0.4,0.7,0.8,0.7,1.5c0,0.7-0.2,1.3-0.8,1.7
		C113.3,43,112.5,43.3,111.6,43.3z"/>
	<path class="st5" d="M118.7,43.3c-0.7,0-1.3-0.2-1.8-0.4c-0.5-0.2-0.9-0.6-1.2-1l0.7-0.7c0.2,0.3,0.6,0.6,1,0.8
		c0.4,0.2,0.9,0.3,1.4,0.3c0.6,0,1.1-0.2,1.5-0.4c0.3-0.3,0.6-0.7,0.6-1.1c0-0.5-0.2-0.9-0.6-1.1c-0.4-0.2-0.9-0.3-1.6-0.3
		c-0.5,0-0.8,0-0.9,0v-1c0.1,0,0.4,0,0.9,0c0.6,0,1.1-0.1,1.4-0.3c0.4-0.2,0.6-0.6,0.6-1.1c0-0.4-0.2-0.8-0.6-1.1
		c-0.3-0.2-0.8-0.4-1.4-0.4c-0.8,0-1.6,0.3-2.2,1.1l-0.6-0.7c0.7-0.9,1.7-1.3,2.9-1.3c0.8,0,1.6,0.2,2,0.6c0.6,0.4,0.8,1,0.8,1.6
		c0,0.6-0.2,1-0.6,1.3c-0.4,0.3-0.8,0.6-1.2,0.7c0.5,0.1,0.9,0.2,1.3,0.7c0.4,0.4,0.7,0.8,0.7,1.5c0,0.7-0.2,1.3-0.8,1.7
		C120.3,43,119.6,43.3,118.7,43.3z"/>
</g>
</svg>
