<svg xmlns="http://www.w3.org/2000/svg" xmlns:xlink="http://www.w3.org/1999/xlink" width="130" height="95.826" viewBox="0 0 48.15 21.74"><defs><style>.cls-1{fill:none;}.cls-2{opacity:0.92;}.cls-3{clip-path:url(#clip-path);}.cls-4{clip-path:url(#clip-path-2);}.cls-5{fill:#2d314e;}.cls-6{fill:#676d81;}.cls-7{fill:#fff;}.cls-8{fill:#55bcbd;}.cls-9{fill:#002c46;}.cls-10{clip-path:url(#clip-path-3);}</style><clipPath id="clip-path" transform="translate(0)"><rect class="cls-1" y="9.05" width="3.78" height="4"/></clipPath><clipPath id="clip-path-2" transform="translate(0)"><rect class="cls-1" y="9.05" width="3.78" height="4"/></clipPath><clipPath id="clip-path-3" transform="translate(0)"><rect class="cls-1" x="31.09" y="1.64" width="13" height="5"/></clipPath></defs><g id="Layer_2" data-name="Layer 2"><g id="Layer_1-2" data-name="Layer 1"><g class="cls-2"><g class="cls-3"><g class="cls-4"><path class="cls-5" d="M3.78,11.05a2,2,0,0,1-1.89,2,2,2,0,0,1,0-4,2,2,0,0,1,1.89,2" transform="translate(0)"/></g></g></g><rect class="cls-6" x="15.18" y="5.47" width="32.96" height="12.24" rx="2.11"/><path class="cls-7" d="M30.83,13.14l.43-.49a1.51,1.51,0,0,0,1,.39c.46,0,.71-.18.71-.44s-.23-.41-.75-.41h-.47v-.67h.47c.41,0,.69-.12.69-.38s-.3-.41-.69-.41a1.45,1.45,0,0,0-1,.36l-.4-.46a1.9,1.9,0,0,1,1.44-.56c.87,0,1.41.37,1.41.95a.89.89,0,0,1-.82.8.91.91,0,0,1,.88.84c0,.6-.58,1-1.48,1A2,2,0,0,1,30.83,13.14Z" transform="translate(0)"/><path class="cls-7" d="M34.18,13.14l.42-.49a1.51,1.51,0,0,0,1,.39c.46,0,.71-.18.71-.44s-.23-.41-.75-.41h-.47v-.67h.47c.42,0,.7-.12.7-.38s-.31-.41-.7-.41a1.45,1.45,0,0,0-1,.36l-.39-.46a1.86,1.86,0,0,1,1.43-.56c.87,0,1.41.37,1.41.95a.89.89,0,0,1-.82.8.9.9,0,0,1,.88.84c0,.6-.58,1-1.48,1A1.91,1.91,0,0,1,34.18,13.14Z" transform="translate(0)"/><rect class="cls-8" x="7.77" y="3.24" width="16.7" height="16.7" rx="4" transform="translate(-3.47 14.79) rotate(-45)"/><path class="cls-9" d="M13.25,14.5V9.89L12.19,11l-.77-.8,2-2H14.6V14.5Z" transform="translate(0)"/><path class="cls-9" d="M15.55,11.34c0-1.93,1.08-3.29,3-3.29a2.84,2.84,0,0,1,1.88.66l-.61,1a1.69,1.69,0,0,0-1.27-.5,1.66,1.66,0,0,0-1.59,1.8.53.53,0,0,0,0,.13,2.05,2.05,0,0,1,1.63-.82,2,2,0,0,1,2.17,2.07,2.24,2.24,0,0,1-2.44,2.18C16.36,14.61,15.55,13.13,15.55,11.34Zm3.8,1.14c0-.67-.57-1-1.17-1a1.57,1.57,0,0,0-1.25.6,1.27,1.27,0,0,0,1.28,1.28A1,1,0,0,0,19.35,12.48Z" transform="translate(0)"/><rect class="cls-8" x="27.04" width="21.1" height="8.28" rx="0.79"/><g class="cls-10"><path class="cls-9" d="M31.33,4.28A2.08,2.08,0,0,1,33.51,2a2.17,2.17,0,0,1,1.38.45l-.45.72a1.24,1.24,0,0,0-.93-.35,1.18,1.18,0,0,0-1.17,1.24.34.34,0,0,0,0,.1,1.52,1.52,0,0,1,1.2-.57A1.45,1.45,0,0,1,35.15,5a1.61,1.61,0,0,1-1.8,1.5C31.93,6.54,31.33,5.51,31.33,4.28Zm2.8.79c0-.46-.42-.66-.86-.66a1.18,1.18,0,0,0-.92.42.9.9,0,0,0,.94.88C33.83,5.71,34.13,5.37,34.13,5.07Z" transform="translate(0)"/><path class="cls-9" d="M38.93,6.46l-1.17-1.6-1.18,1.6H35.39l1.7-2.24L35.5,2.08h1.18l1.08,1.5,1.06-1.5H40L38.43,4.21l1.69,2.25Z" transform="translate(0)"/><path class="cls-9" d="M40.3,5.84l.53-.63a1.87,1.87,0,0,0,1.28.5c.57,0,.89-.23.89-.56s-.29-.5-.94-.5h-.59V3.82h.59c.52,0,.87-.15.87-.47s-.39-.52-.87-.52a1.75,1.75,0,0,0-1.2.46l-.5-.59A2.38,2.38,0,0,1,42.15,2c1.1,0,1.77.46,1.77,1.19a1.09,1.09,0,0,1-1,1,1.14,1.14,0,0,1,1.09,1c0,.76-.72,1.29-1.84,1.29A2.44,2.44,0,0,1,40.3,5.84Z" transform="translate(0)"/></g></g></g></svg>