<svg xmlns="http://www.w3.org/2000/svg" width="129.535" height="70.666" viewBox="0 0 129.535 70.666">
  <g id="_33_andares" data-name="33_andares" transform="translate(-5.257 1.296)">
    <g id="Group_16" data-name="Group 16" transform="translate(68.032 61.888)">
      <g id="Group_15" data-name="Group 15">
        <g id="Group_14" data-name="Group 14" opacity="0.92">
          <path id="Path_25" data-name="Path 25" d="M268.881,289.623a3.526,3.526,0,1,0-3.515,3.74,3.626,3.626,0,0,0,3.515-3.74Z" transform="translate(-261.843 -285.881)" fill="#2d314e"/>
        </g>
      </g>
    </g>
    <g id="Group_17" data-name="Group 17" transform="translate(79.028 -1.296)">
      <rect id="Rectangle_9" data-name="Rectangle 9" width="40.82" height="21.994"/>
      <path id="_6x3" data-name="6x3" d="M3.288-3.912a3.579,3.579,0,0,0-.564.048,1.662,1.662,0,0,0-.468.132q0,.048-.006.144t-.006.168A5.287,5.287,0,0,0,2.3-2.6a2.286,2.286,0,0,0,.2.672,1.149,1.149,0,0,0,.384.45,1.049,1.049,0,0,0,.6.162A.974.974,0,0,0,4-1.446a1.154,1.154,0,0,0,.348-.318,1.353,1.353,0,0,0,.2-.426,1.656,1.656,0,0,0,.066-.45,1.335,1.335,0,0,0-.306-.942A1.35,1.35,0,0,0,3.288-3.912ZM3.516-5.3a3.7,3.7,0,0,1,1.326.21,2.438,2.438,0,0,1,.894.57,2.148,2.148,0,0,1,.5.84A3.28,3.28,0,0,1,6.4-2.664a3.005,3.005,0,0,1-.174.984,2.749,2.749,0,0,1-.528.912,2.766,2.766,0,0,1-.9.672A2.935,2.935,0,0,1,3.5.168,2.782,2.782,0,0,1,1.224-.78,4,4,0,0,1,.444-3.4,5.654,5.654,0,0,1,.816-5.52,4.187,4.187,0,0,1,1.878-7.074a4.635,4.635,0,0,1,1.668-.96,7.085,7.085,0,0,1,2.2-.342Q5.772-8,5.8-7.65t.048.738A6.823,6.823,0,0,0,4.7-6.8a3.8,3.8,0,0,0-.972.318,2.66,2.66,0,0,0-.762.558,2.388,2.388,0,0,0-.5.834A2.22,2.22,0,0,1,3-5.256,3.021,3.021,0,0,1,3.516-5.3Zm6.528.912,1.248-1.92H13.14L10.98-3.276q.72.9,1.308,1.752A14.425,14.425,0,0,1,13.224,0H11.3l-.24-.45q-.144-.27-.324-.564T10.362-1.6q-.2-.294-.39-.534-.18.228-.366.5t-.354.558q-.168.282-.33.558T8.64,0H6.816a7.862,7.862,0,0,1,.4-.708q.252-.408.546-.846t.618-.876q.324-.438.636-.822-.54-.756-1.08-1.53L6.864-6.312H8.8ZM15.96.18a5.913,5.913,0,0,1-.684-.042q-.36-.042-.7-.114t-.612-.156a3.525,3.525,0,0,1-.432-.156l.348-1.488q.312.132.8.282a4.145,4.145,0,0,0,1.206.15A1.913,1.913,0,0,0,17.1-1.656a1.026,1.026,0,0,0,.384-.84,1.015,1.015,0,0,0-.138-.546,1.055,1.055,0,0,0-.378-.36,1.679,1.679,0,0,0-.57-.192,4.348,4.348,0,0,0-.7-.054H15v-1.44h.792a2.658,2.658,0,0,0,.51-.048A1.361,1.361,0,0,0,16.74-5.3a.848.848,0,0,0,.306-.312.987.987,0,0,0,.114-.5.785.785,0,0,0-.1-.4.862.862,0,0,0-.246-.276,1.072,1.072,0,0,0-.348-.162,1.521,1.521,0,0,0-.4-.054,2.824,2.824,0,0,0-.954.156,3.983,3.983,0,0,0-.8.384L13.68-7.764q.192-.12.45-.252a4.441,4.441,0,0,1,.57-.24,5.209,5.209,0,0,1,.666-.18,3.758,3.758,0,0,1,.75-.072,4.1,4.1,0,0,1,1.266.174,2.379,2.379,0,0,1,.882.492,1.983,1.983,0,0,1,.516.744,2.513,2.513,0,0,1,.168.93,1.836,1.836,0,0,1-.276.954,1.821,1.821,0,0,1-.744.7,2.156,2.156,0,0,1,1,.786,2.181,2.181,0,0,1,.354,1.254,2.865,2.865,0,0,1-.192,1.062,2.142,2.142,0,0,1-.6.84,2.879,2.879,0,0,1-1.038.552A5.007,5.007,0,0,1,15.96.18Z" transform="translate(8.921 15.525)" fill="#fff"/>
    </g>
    <path id="Path_26" data-name="Path 26" d="M310.784,276.812v14.08l14.079-14.08Z" transform="translate(-190.071 -236.291)" fill="#fff" opacity="0.8"/>
    <g id="Group_46" data-name="Group 46" transform="translate(12.957 18.741)">
      <path id="Path_62" data-name="Path 62" d="M363.8,297.633l-88.484-1.572,2.339-27.536h93.01l1.641,19.156Z" transform="translate(-262.155 -266.605)" fill="#9fa1a4" opacity="0.5"/>
      <path id="Path_63" data-name="Path 63" d="M366.828,296.924h-100.2V267.816H374.887v19.156Z" transform="translate(-266.628 -267.816)" fill="#bdd8f1"/>
      <path id="Path_64" data-name="Path 64" d="M312.8,274.89v9.951l10.056-9.951Z" transform="translate(-214.596 -255.734)" fill="#fff"/>
    </g>
    <path id="_33" data-name="33" d="M2.736.18A5.913,5.913,0,0,1,2.052.138Q1.692.1,1.356.024T.744-.132A3.525,3.525,0,0,1,.312-.288L.66-1.776q.312.132.8.282a4.145,4.145,0,0,0,1.206.15,1.913,1.913,0,0,0,1.212-.312A1.026,1.026,0,0,0,4.26-2.5a1.015,1.015,0,0,0-.138-.546,1.055,1.055,0,0,0-.378-.36,1.679,1.679,0,0,0-.57-.192,4.348,4.348,0,0,0-.7-.054h-.7v-1.44h.792a2.658,2.658,0,0,0,.51-.048A1.361,1.361,0,0,0,3.516-5.3a.848.848,0,0,0,.306-.312.987.987,0,0,0,.114-.5.785.785,0,0,0-.1-.4.862.862,0,0,0-.246-.276,1.072,1.072,0,0,0-.348-.162A1.521,1.521,0,0,0,2.844-7a2.824,2.824,0,0,0-.954.156,3.983,3.983,0,0,0-.8.384L.456-7.764q.192-.12.45-.252a4.441,4.441,0,0,1,.57-.24,5.209,5.209,0,0,1,.666-.18,3.758,3.758,0,0,1,.75-.072,4.1,4.1,0,0,1,1.266.174,2.379,2.379,0,0,1,.882.492,1.983,1.983,0,0,1,.516.744,2.513,2.513,0,0,1,.168.93,1.836,1.836,0,0,1-.276.954,1.821,1.821,0,0,1-.744.7,2.156,2.156,0,0,1,1,.786A2.181,2.181,0,0,1,6.06-2.472,2.865,2.865,0,0,1,5.868-1.41a2.142,2.142,0,0,1-.6.84A2.879,2.879,0,0,1,4.23-.018,5.007,5.007,0,0,1,2.736.18ZM9.66.18A5.913,5.913,0,0,1,8.976.138Q8.616.1,8.28.024T7.668-.132a3.525,3.525,0,0,1-.432-.156l.348-1.488q.312.132.8.282a4.145,4.145,0,0,0,1.206.15A1.913,1.913,0,0,0,10.8-1.656a1.026,1.026,0,0,0,.384-.84,1.015,1.015,0,0,0-.138-.546,1.055,1.055,0,0,0-.378-.36,1.679,1.679,0,0,0-.57-.192,4.348,4.348,0,0,0-.7-.054H8.7v-1.44h.792A2.658,2.658,0,0,0,10-5.136,1.361,1.361,0,0,0,10.44-5.3a.848.848,0,0,0,.306-.312.987.987,0,0,0,.114-.5.785.785,0,0,0-.1-.4.862.862,0,0,0-.246-.276,1.072,1.072,0,0,0-.348-.162A1.521,1.521,0,0,0,9.768-7a2.824,2.824,0,0,0-.954.156,3.983,3.983,0,0,0-.8.384L7.38-7.764q.192-.12.45-.252a4.441,4.441,0,0,1,.57-.24,5.209,5.209,0,0,1,.666-.18,3.758,3.758,0,0,1,.75-.072,4.1,4.1,0,0,1,1.266.174,2.379,2.379,0,0,1,.882.492,1.983,1.983,0,0,1,.516.744,2.513,2.513,0,0,1,.168.93,1.836,1.836,0,0,1-.276.954,1.821,1.821,0,0,1-.744.7,2.156,2.156,0,0,1,1,.786,2.181,2.181,0,0,1,.354,1.254,2.865,2.865,0,0,1-.192,1.062,2.142,2.142,0,0,1-.6.84,2.879,2.879,0,0,1-1.038.552A5.007,5.007,0,0,1,9.66.18Z" transform="translate(67.706 38.868)"/>
    <g id="Group_58" data-name="Group 58" transform="matrix(-0.035, -0.999, 0.999, -0.035, 6.135, 60.904)">
      <path id="Path_93" data-name="Path 93" d="M5.087,9.75a24.789,24.789,0,1,1,25.688,39.1C23.724,50.6,1.686,55.624,1.686,55.624S.18,32.625.007,25.365A24.676,24.676,0,0,1,5.087,9.75Z" transform="matrix(0.999, 0.035, -0.035, 0.999, 0.986, -0.848)" fill="#2d314e" opacity="0.92"/>
      <circle id="Ellipse_24" data-name="Ellipse 24" cx="22.782" cy="22.782" r="22.782" transform="translate(2.009 2.008)" fill="#ffcd70"/>
    </g>
    <path id="_04" data-name="04" d="M6.942-4.524a5.974,5.974,0,0,1-.865,3.49A2.768,2.768,0,0,1,3.692.182,2.768,2.768,0,0,1,1.307-1.033a5.974,5.974,0,0,1-.865-3.49,7.953,7.953,0,0,1,.227-2,4.408,4.408,0,0,1,.656-1.469A2.926,2.926,0,0,1,2.353-8.9a2.851,2.851,0,0,1,1.339-.312A2.768,2.768,0,0,1,6.077-8,5.948,5.948,0,0,1,6.942-4.524Zm-1.976,0A10.577,10.577,0,0,0,4.9-5.753a4.421,4.421,0,0,0-.208-.955,1.483,1.483,0,0,0-.39-.624.883.883,0,0,0-.611-.221.859.859,0,0,0-.6.221,1.573,1.573,0,0,0-.39.624,4.159,4.159,0,0,0-.214.955,10.577,10.577,0,0,0-.065,1.229,10.748,10.748,0,0,0,.065,1.235,4.167,4.167,0,0,0,.214.962,1.573,1.573,0,0,0,.39.624.859.859,0,0,0,.6.221A.883.883,0,0,0,4.3-1.7a1.483,1.483,0,0,0,.39-.624A4.428,4.428,0,0,0,4.9-3.289,10.748,10.748,0,0,0,4.966-4.524Zm6.682-2.119q-.507.663-1.079,1.443a9.909,9.909,0,0,0-.962,1.6h2.041Zm1.9-2.366V-3.6h.962v1.586h-.962V0h-1.9V-2.015H7.761V-3.432Q8.047-4,8.476-4.726t.955-1.482q.527-.761,1.112-1.489a16.252,16.252,0,0,1,1.17-1.313Z" transform="translate(21.974 38.868)" fill="#231f20"/>
  </g>
</svg>
