<svg xmlns="http://www.w3.org/2000/svg" xmlns:xlink="http://www.w3.org/1999/xlink" style="width: 5%;height: auto;" viewBox="0 0 56.04 21.67"><defs><style>.cls-1{fill:none;}.cls-2{font-size:11.13px;}.cls-2,.cls-3{font-family:ProximaNovaA-Regular, Proxima Nova Alt;}.cls-3{font-size:7.07px;}.cls-4{clip-path:url(#clip-path);}.cls-5{fill-rule:evenodd;}.cls-6{clip-path:url(#clip-path-2);}</style><clipPath id="clip-path" transform="translate(0 -2.44)"><polygon class="cls-1" points="11.39 13.26 11.37 13.54 10.58 23 15.13 22.7 13.2 14.71 13.19 13.26 11.39 13.26"/></clipPath><clipPath id="clip-path-2" transform="translate(0 -2.44)"><polygon class="cls-1" points="8.5 0 8.54 14.15 17.07 14.15 17.07 0 8.5 0"/></clipPath></defs><title>Asset 29</title><g id="Layer_2" data-name="Layer 2"><g id="Layer_3" data-name="Layer 3"><text class="cls-2" transform="translate(26.31 19.46)">4x6m</text><text class="cls-3" transform="translate(26.31 8.37)">Tamanho</text><g class="cls-4"><path class="cls-5" d="M11.63,20.8c-.06-2.35-.14-4.77-.18-7.12,0,0,0,.18,0,.18v-.34c-1.92,0-3.89,0-5.83,0a1.37,1.37,0,0,1,0-.43c0-2.24,0-4.59,0-6.8,4.44,0,8.95,0,13.42,0v7.25H13.16c-.08.55,0,1.11,0,1.68s0,1.09-.06,1.62,0,.93,0,1.39c0,.25,0,.5,0,.74,0,.62,0,1.23-.06,1.83,0,.06-.12,0-.12.07s.08,0,.12.06a2.76,2.76,0,0,0,.17.41c0,.1,0,.25,0,.36s0,.07,0,.08.07,0,0,0a1.07,1.07,0,0,1-.41,0c-.35,0-.78,0-1.09,0a.42.42,0,0,1-.16,0c-.07,0,0-.09,0-.17a2.71,2.71,0,0,1,0-.28c0-.17.14-.3.17-.45h0c.05,0,0,0,0,0s.05,0,.06,0-.07,0-.12-.08m.11,1.1h-.27c-.1,0-.08-.12-.07-.17s0,0,0-.06v-.13a.61.61,0,0,1,0-.16,1.07,1.07,0,0,1,.08-.24.46.46,0,0,0,.08-.21h0a.07.07,0,0,1,0,0h0l0,0,0,0v0c0-1.18-.06-2.39-.09-3.56S11.42,15,11.4,13.9h0v-.33H5.56v0a.86.86,0,0,1,0-.34v-1.7c0-1.72,0-3.51,0-5.19v0h.06l5.3,0H19v7.35H13.2a6.93,6.93,0,0,0,0,.89,6.92,6.92,0,0,1,0,.74c0,.26,0,.54,0,.8s0,.55,0,.82a6.72,6.72,0,0,0,0,.72c0,.22,0,.44,0,.66s0,.24,0,.36,0,.26,0,.39c0,.39,0,.78,0,1.16,0,.22,0,.45,0,.68h0v0a.13.13,0,0,1-.07,0,.09.09,0,0,1,.07,0h0A.18.18,0,0,0,13,21a2.62,2.62,0,0,0,.12.33h0a.68.68,0,0,1,0,.18,1.37,1.37,0,0,0,0,.18s0,0,0,0,0,0,0,0a.06.06,0,0,1,0,.07h0a.65.65,0,0,1-.25,0H11.74m-.12-.1h1.43v-.05a0,0,0,0,0,0,0,1,1,0,0,1,0-.2v-.15a2.73,2.73,0,0,1-.14-.33l0-.06h0a.08.08,0,0,1-.09-.09.08.08,0,0,1,.09-.1h0c0-.21,0-.43,0-.65,0-.38,0-.78.05-1.17,0-.13,0-.25,0-.38s0-.24,0-.36,0-.44,0-.66,0-.49,0-.73A7.2,7.2,0,0,0,13,16c0-.27,0-.54,0-.81s0-.5,0-.73a4.89,4.89,0,0,1,0-.95v0H19V6.32H10.88l-5.26,0c0,1.67,0,3.44,0,5.15v1.71a1.19,1.19,0,0,0,0,.28h5.84v.16h0v0c0,1.18.06,2.39.09,3.55s.07,2.36.1,3.53h0a.13.13,0,0,1,.09,0,.13.13,0,0,1,0,.09.08.08,0,0,1-.08.07l0,0h0a1.11,1.11,0,0,1-.08.19.88.88,0,0,0-.08.22v.13a.91.91,0,0,1,0,.14.39.39,0,0,1,0,.07s0,0,0,.06h.12ZM10.08,6.33c0,.08,0,.17,0,.24h4.4V6.33H10.08m4.49,0v.24H19V6.33c-1.47,0-2.94,0-4.39,0m-9,0v.21H10V6.33H5.63s0,0,0,0m0,.3c0,1.06,0,2.14,0,3.16s0,2.12,0,3.17a.26.26,0,0,0,.23,0c0-2.1,0-4.25,0-6.36H5.63s0,0,0,0m13.09,0c0,2.11,0,4.24,0,6.34A.46.46,0,0,0,19,13c0-2.11,0-4.23,0-6.36a1.84,1.84,0,0,0-.25,0s0,0,0,0M5.63,13.07c0,.11,0,.26,0,.39,1.45,0,3,0,4.41,0a2.63,2.63,0,0,0,0-.4c-1.44,0-2.92,0-4.37,0l0,0m4.45.39c1.45,0,3,0,4.42,0a1.44,1.44,0,0,0,0-.39c-1.43,0-2.93,0-4.37,0-.06.09,0,.28,0,.41m4.48-.38v.38c1.44,0,2.94,0,4.4,0a3.63,3.63,0,0,0,0-.42H14.57s0,0,0,0m-3.07.56a5.94,5.94,0,0,0,0,.67,6.5,6.5,0,0,0,0,.66s0,.05,0,.08a6.1,6.1,0,0,0,0,.8s.1,0,.15,0c.45,0,.94,0,1.34,0v-.65a1.49,1.49,0,0,0,0-.46c0-.24,0-.49,0-.75v-.36H11.49s0,0,0,0m0,2.33c0,.75,0,1.57.07,2.3.45,0,1,0,1.36,0a6.86,6.86,0,0,0,0-.79,4,4,0,0,0,0-.76c0-.23,0-.52,0-.75-.38,0-.78,0-1.17,0a1.57,1.57,0,0,1-.35,0m.08,2.43c0,.76,0,1.52.06,2.27.12,0,.33,0,.43,0s.62,0,.8,0c0-.76.06-1.49.06-2.26a12.72,12.72,0,0,0-1.35,0m.17,2.49c.11,0,.18,0,.27,0s0,.12,0,.18a3.83,3.83,0,0,0,0,.63,3.29,3.29,0,0,1,0-.5c0-.08,0-.32,0-.32s0,.09,0,.17v.66h.1c0-.27,0-.58,0-.83.13,0,.08.14.1.24s0,.27,0,.42,0,.16,0,.17c0-.24,0-.58,0-.83a.66.66,0,0,0,.26,0v-.07c-.31,0-.65,0-1,0,0,0,0,.05,0,.08m.77.84h.08a2.42,2.42,0,0,0-.08-.81c0,.25,0,.54,0,.81m-.84-.78s0,0,0,0,0,.07,0,.13-.06.07-.06.1,0,0,0,.06,0,.05,0,.08a2.61,2.61,0,0,0,0,.37h.11a2.3,2.3,0,0,0,0-.45h0s0,0,0-.06h0s0,0,0-.08.05,0,0,0,0-.12,0-.12,0-.08-.07-.05m1,0c0,.27.07.47,0,.77a4.54,4.54,0,0,0,0-.8s0,0-.05,0m-.86,0v0a2.27,2.27,0,0,0-.05.74h.08a3.73,3.73,0,0,1,0-.39,1.81,1.81,0,0,1,0,.39,1.77,1.77,0,0,0,0-.39c0-.1,0-.24,0-.38Zm.11.77H12A6.74,6.74,0,0,0,12,21h0a2.8,2.8,0,0,0-.08.77m1,0H13v-.39a1.53,1.53,0,0,1-.12-.35s0,0-.06,0a1.74,1.74,0,0,1,.13.77M11.63,21h0s0,0,0,0,0,0,0,0m.53,0c0,.1,0,0,0,0h0a0,0,0,0,0,0,0m-.56,0v0s0,0,0,0,0,0,0,0m1.16.64h.09v-.41a1.25,1.25,0,0,1-.07-.23h0Zm-1.19-.53s0-.06,0,0Zm0,.08s0,0,0,0,0,0,0,0m.22.45c0-.12,0-.28,0-.42h0a1.1,1.1,0,0,0,0,.42m.4,0a1.35,1.35,0,0,0,0-.36c0,.11,0,.28,0,.36m.95.05H13s.07,0,.07,0" transform="translate(0 -2.44)"/></g><g class="cls-6"><path class="cls-5" d="M1.11,7.4c2.4,0,4.85-.11,7.24-.15,0,0-.18,0-.18,0h.34c0-1.55,0-3.15,0-4.72a1.76,1.76,0,0,1,.44,0h6.91c0,3.6,0,7.25,0,10.88H8.52V8.63c-.56-.06-1.13,0-1.7,0s-1.11,0-1.65-.05-.95,0-1.41,0c-.26,0-.51,0-.76,0-.63,0-1.25,0-1.87,0-.06,0,0-.1-.08-.1s0,.06-.06.1a3,3,0,0,0-.42.14c-.1,0-.26,0-.37,0s-.07,0-.08,0,0,.06,0,0a.72.72,0,0,1,0-.33c0-.28,0-.63,0-.88a.28.28,0,0,1,0-.13c0-.06.1,0,.18,0s.21,0,.29,0,.3.11.46.14a0,0,0,0,1,0,0s0,0,0,0,0,0,0,0,0-.06.08-.1M0,7.49V7.35a.53.53,0,0,1,0-.08c0-.08.12-.06.17-.05H.54a1.31,1.31,0,0,1,.24.07A.59.59,0,0,0,1,7.35H1a.08.08,0,0,1,0,0v0l0,0,0,0h0c1.2,0,2.43,0,3.63-.08l3.39-.07v0h.34c0-.43,0-.9,0-1.4,0-.84,0-1.69,0-2.51,0-.26,0-.51,0-.77v0h0a1.07,1.07,0,0,1,.35,0H10.6c1.75,0,3.57,0,5.28,0h0v0c0,1.24,0,2.57,0,4.3,0,.8,0,1.6,0,2.4v4.22H8.47V8.67a8.59,8.59,0,0,0-.91,0c-.25,0-.5,0-.75,0L6,8.61l-.84,0c-.24,0-.49,0-.73,0H3c-.39,0-.79,0-1.18,0l-.69,0h0a.1.1,0,0,1,0-.06.07.07,0,0,1,0,.05H1l-.07,0-.33.1H.16a0,0,0,0,1,0,0,.08.08,0,0,1-.07,0v0H0a.44.44,0,0,1,0-.2V8.36s0,0,0-.07S0,8,0,7.83s0-.23,0-.34m.1-.1v.1c0,.11,0,.21,0,.34s0,.31,0,.46v.07a.5.5,0,0,0,0,.08.33.33,0,0,0,0,.12H.56a3.23,3.23,0,0,1,.33-.12l.07,0a0,0,0,0,0,0,0s0-.07.09-.07.1,0,.1.07v0h.66c.39,0,.79,0,1.19,0H4.42c.24,0,.49,0,.74,0s.56,0,.83,0l.82,0h.74a6.09,6.09,0,0,1,1,0h0v4.73h7.28c0-.54,0-1.11,0-1.75,0-.8,0-1.59,0-2.39s0-1.6,0-2.4c0-1.71,0-3,0-4.26h-7a1.41,1.41,0,0,0-.28,0c0,.24,0,.49,0,.74,0,.82,0,1.68,0,2.51,0,.53,0,1,0,1.44v0H8.35l-3.62.08-3.59.08h0a.1.1,0,0,1,0,.07.16.16,0,0,1-.09,0C1,7.52,1,7.48,1,7.46h0v0h0L.74,7.37A1,1,0,0,0,.51,7.3H.1a.4.4,0,0,0,0,.06ZM15.83,6.14a1.36,1.36,0,0,0-.24,0V9.72h.24c0-1.21,0-2.35,0-3.58m0,3.64h-.24v3.56h.24c0-1.19,0-2.38,0-3.56m0-7.26h-.22V6.1h.24V2.53s0,0,0,0m-.31,0c-1.08,0-2.17,0-3.21,0s-2.16,0-3.23,0a.17.17,0,0,0,0,.18c2.14,0,4.32,0,6.47,0v-.2s0,0,0,0m0,10.61c-2.15,0-4.32,0-6.45,0,0,0,0,.16,0,.2,2.15,0,4.31,0,6.47,0a1.11,1.11,0,0,0,0-.2h0M9,2.53c-.12,0-.27,0-.4,0,0,1.18,0,2.4,0,3.58a3.77,3.77,0,0,0,.4,0C9,4.92,9,3.72,9,2.55l0,0m-.4,3.61c0,1.17,0,2.41,0,3.58a1.71,1.71,0,0,0,.4,0C9,8.55,9,7.33,9,6.16a1.49,1.49,0,0,0-.42,0M9,9.77H8.58c0,1.17,0,2.38,0,3.57H9V9.78H9M8.39,7.28c-.22,0-.5,0-.68,0s-.47,0-.67,0L7,7.31a7.46,7.46,0,0,0-.82,0s0,.08,0,.12c0,.37,0,.76,0,1.09h.66a2,2,0,0,0,.47,0H8.41V7.28s0,0,0,0M6,7.32c-.76,0-1.6,0-2.34.06,0,.37,0,.8,0,1.1a7.82,7.82,0,0,0,.8,0,5,5,0,0,0,.77,0c.24,0,.53,0,.77,0,0-.31,0-.64,0-.95,0-.08,0-.17,0-.28m-2.47.06c-.78,0-1.54,0-2.31.05,0,.1,0,.26,0,.35s0,.5,0,.64c.78,0,1.52,0,2.3,0a8.36,8.36,0,0,0,0-1.09M1,7.52a2,2,0,0,0,0,.22s-.12,0-.19,0a4.86,4.86,0,0,0-.64,0,4.2,4.2,0,0,1,.51,0c.08,0,.32,0,.33,0s-.09,0-.17,0H.17V8C.44,8,.76,8,1,8c0,.11-.15.06-.24.08l-.42,0c-.06,0-.16,0-.18,0,.25,0,.59,0,.84,0a.43.43,0,0,0,0,.21h.07c0-.25,0-.53,0-.8,0,0-.05,0-.08,0m-.85.63v.07A3.14,3.14,0,0,0,1,8.15c-.25,0-.55,0-.82,0M1,7.46s0,0,0,0-.07,0-.13,0L.69,7.38H.63l-.08,0a2.82,2.82,0,0,0-.38,0v.09a2.8,2.8,0,0,0,.46,0v0s0,0,.06,0v0a.07.07,0,0,1,.08,0s0,0,0,0,.12,0,.12,0S1,7.49,1,7.46m0,.79c-.28,0-.48.06-.78,0a5.54,5.54,0,0,0,.81,0s0,0,0,0m0-.7h0a2.94,2.94,0,0,0-.76,0v.07c.13,0,.28,0,.39,0a2.4,2.4,0,0,1-.39,0,2,2,0,0,0,.39,0c.1,0,.24,0,.38,0Zm-.78.08v.09c.26,0,.56,0,.78,0h0a3.5,3.5,0,0,0-.78-.07m0,.82v0h.4a1.76,1.76,0,0,1,.36-.1s0,0,0-.05a2.13,2.13,0,0,1-.78.1M.88,7.4h0s0,0,0,0,0,0,0,0m0,.43c-.1,0,0,0,0,0v0h0m0-.46h0s0,0,0,0,0,0,0,0m-.65.94v.08H.59a1.45,1.45,0,0,1,.24-.05v0Zm.54-1s.06,0,0,0Zm-.08,0s0,0,0,0,0,0,0,0m-.46.18H.6v0a1.43,1.43,0,0,0-.43,0m0,.32a1.62,1.62,0,0,0,.37,0,1.47,1.47,0,0,0-.37,0m-.05.77s0,0,0-.05,0,.05,0,.05" transform="translate(0 -2.44)"/><path class="cls-5" d="M15.5,2.76c-2.15,0-4.34,0-6.46,0,0,3.42,0,6.91,0,10.31h6.47V2.77h0" transform="translate(0 -2.44)"/></g></g></g></svg>