<svg xmlns="http://www.w3.org/2000/svg" style="width: 5%;height: auto;" viewBox="0 0 55.8 18.32"><defs><style>.cls-1{font-size:11.13px;}.cls-1,.cls-2{font-family:ProximaNovaA-Regular, Proxima Nova Alt;}.cls-2{font-size:7.07px;}.cls-3{fill-rule:evenodd;}</style></defs><title>Asset 33</title><g id="Layer_2" data-name="Layer 2"><g id="Layer_3" data-name="Layer 3"><text class="cls-1" transform="translate(19.46 16.1)">6.5x3m</text><text class="cls-2" transform="translate(18.58 5.9)">Tamanho</text><path class="cls-3" d="M6.12,14.73C6.06,12.38,6,10,5.93,7.61c0,0,0,.18,0,.18V7.45C4,7.47,2,7.45.08,7.45A1.37,1.37,0,0,1,.06,7c0-2.24,0-4.59,0-6.8C4.51.18,9,.21,13.49.2V7.45H7.64c-.08.55,0,1.11,0,1.68s0,1.09-.06,1.62,0,.93,0,1.39c0,.25,0,.5,0,.74,0,.62,0,1.23-.06,1.83,0,.06-.12,0-.12.07s.08,0,.12.06a2.76,2.76,0,0,0,.17.41c0,.1,0,.25,0,.36s0,.07,0,.08.07,0,0,0a1.07,1.07,0,0,1-.41,0c-.35,0-.78,0-1.09,0a.42.42,0,0,1-.16,0c-.07,0,0-.09,0-.17a2.71,2.71,0,0,1,0-.28c0-.17.14-.3.17-.45h0c.05,0,0,0,0,0s.05,0,.06,0-.07,0-.12-.08m.11,1.1H6c-.1,0-.08-.12-.07-.17s0,0,0-.06v-.13a.61.61,0,0,1,0-.16A1.07,1.07,0,0,1,6,15.06a.46.46,0,0,0,.08-.21h0a.07.07,0,0,1,0,0h0l0,0,0,0v0C6,13.55,6,12.34,6,11.17s-.07-2.22-.09-3.33h0V7.51H0v0a.86.86,0,0,1,0-.34V5.41C0,3.69,0,1.9,0,.22v0H.07l5.3,0h8.17V7.51H7.69a6.93,6.93,0,0,0,0,.89,6.92,6.92,0,0,1,0,.74c0,.26,0,.54,0,.8s0,.55,0,.82a6.72,6.72,0,0,0,0,.72c0,.22,0,.44,0,.66s0,.24,0,.36,0,.26,0,.39c0,.39,0,.78,0,1.16,0,.22,0,.45,0,.68h0v0a.13.13,0,0,1-.07,0,.09.09,0,0,1,.07,0h0a.18.18,0,0,0,0,.07,2.62,2.62,0,0,0,.12.33h0a.68.68,0,0,1,0,.18,1.37,1.37,0,0,0,0,.18s0,0,0,0,0,0,0,0a.06.06,0,0,1,0,.07h0a.65.65,0,0,1-.25,0H6.23m-.12-.1H7.54v-.05a0,0,0,0,0,0,0,1,1,0,0,1,0-.2v-.15A2.73,2.73,0,0,1,7.4,15l0-.06h0a.08.08,0,0,1-.09-.09.08.08,0,0,1,.09-.1h0c0-.21,0-.43,0-.65,0-.38,0-.78.05-1.17,0-.13,0-.25,0-.38s0-.24,0-.36,0-.44,0-.66,0-.49,0-.73a7.2,7.2,0,0,0,0-.82c0-.27,0-.54,0-.81s0-.5,0-.73a4.89,4.89,0,0,1,0-.95v0h5.84V.25H5.37L.11.27c0,1.67,0,3.44,0,5.15V7.12a1.19,1.19,0,0,0,0,.28H6v.16H6v0C6,8.79,6,10,6.07,11.17s.07,2.36.1,3.53h0a.13.13,0,0,1,.09,0,.13.13,0,0,1,0,.09.08.08,0,0,1-.08.07l0,0h0a1.11,1.11,0,0,1-.08.19.88.88,0,0,0-.08.22v.13a.91.91,0,0,1,0,.14.39.39,0,0,1,0,.07s0,0,0,.06h.12ZM4.57.26c0,.08,0,.17,0,.24H9V.26H4.57m4.49,0V.5h4.39V.26c-1.47,0-2.94,0-4.39,0m-9,0V.5H4.51V.26H.11s0,0,0,0m0,.3c0,1.06,0,2.14,0,3.16s0,2.12,0,3.17a.26.26,0,0,0,.23,0c0-2.1,0-4.25,0-6.36H.11s0,0,0,0m13.09,0c0,2.11,0,4.24,0,6.34a.46.46,0,0,0,.25,0c0-2.11,0-4.23,0-6.36a1.84,1.84,0,0,0-.25,0s0,0,0,0M.11,7c0,.11,0,.26,0,.39,1.45,0,3,0,4.41,0a2.63,2.63,0,0,0,0-.4C3.07,7,1.58,7,.14,7l0,0m4.45.39c1.45,0,3,0,4.42,0A1.44,1.44,0,0,0,9,7C7.54,7,6,7,4.6,7c-.06.09,0,.28,0,.41M9,7v.38c1.44,0,2.94,0,4.4,0a3.63,3.63,0,0,0,0-.42H9.06S9,7,9,7M6,7.58a5.94,5.94,0,0,0,0,.67A6.5,6.5,0,0,0,6,8.9S6,9,6,9a6.1,6.1,0,0,0,0,.8s.1,0,.15,0c.45,0,.94,0,1.34,0V9.12a1.49,1.49,0,0,0,0-.46c0-.24,0-.49,0-.75V7.56H6s0,0,0,0M6,9.91c0,.75,0,1.57.07,2.3.45,0,1,0,1.36,0a6.86,6.86,0,0,0,0-.79,4,4,0,0,0,0-.76c0-.23,0-.52,0-.75-.38,0-.78,0-1.17,0a1.57,1.57,0,0,1-.35,0m.08,2.43c0,.76,0,1.52.06,2.27.12,0,.33,0,.43,0s.62,0,.8,0c0-.76.06-1.49.06-2.26a12.73,12.73,0,0,0-1.35,0m.17,2.49c.11,0,.18,0,.27,0s0,.12,0,.18a3.84,3.84,0,0,0,0,.63,3.29,3.29,0,0,1,0-.5c0-.08,0-.32,0-.32s0,.09,0,.17v.66h.1c0-.27,0-.58,0-.83.13,0,.08.14.1.24s0,.27,0,.42,0,.16,0,.17c0-.24,0-.58,0-.83a.66.66,0,0,0,.26,0v-.07c-.31,0-.65,0-1,0,0,0,0,.05,0,.08m.77.84h.08A2.42,2.42,0,0,0,7,14.85c0,.25,0,.54,0,.81m-.84-.78s0,0,0,0,0,.07,0,.13-.06.07-.06.1,0,0,0,.06,0,.05,0,.08a2.61,2.61,0,0,0,0,.37h.11a2.3,2.3,0,0,0,0-.45h0s0,0,0-.06h0s0,0,0-.08.05,0,0,0,0-.12,0-.12,0-.08-.07-.05m1,0c0,.27.07.47,0,.77a4.54,4.54,0,0,0,0-.8s0,0-.05,0m-.86,0v0a2.27,2.27,0,0,0-.05.74h.08a3.73,3.73,0,0,1,0-.39,1.81,1.81,0,0,1,0,.39,1.77,1.77,0,0,0,0-.39c0-.1,0-.24,0-.38Zm.11.77h.12a6.74,6.74,0,0,0,0-.77h0a2.8,2.8,0,0,0-.08.77m1,0h.06v-.39a1.53,1.53,0,0,1-.12-.35s0,0-.06,0a1.74,1.74,0,0,1,.13.77M6.12,15h0s0,0,0,0,0,0,0,0m.53,0c0,.1,0,0,0,0h0a0,0,0,0,0,0,0m-.56,0v0s0,0,0,0,0,0,0,0m1.16.64h.09v-.41A1.25,1.25,0,0,1,7.27,15h0Zm-1.19-.53s0-.06,0,0Zm0,.08s0,0,0,0,0,0,0,0m.22.45c0-.12,0-.28,0-.42h0a1.1,1.1,0,0,0,0,.42m.4,0a1.35,1.35,0,0,0,0-.36c0,.11,0,.28,0,.36m.95.05H7.51s.07,0,.07,0"/><path class="cls-3" d="M.4.59c0,2.11,0,4.26,0,6.34,4.22,0,8.52,0,12.72,0V.56H.41s0,0,0,0"/></g></g></svg>