<svg xmlns="http://www.w3.org/2000/svg" style="width: 5%;height: auto;" viewBox="0 0 50.32 21.67"><defs><style>.cls-1{font-size:11.13px;}.cls-1,.cls-2{font-family:ProximaNovaA-Regular, Proxima Nova Alt;}.cls-2{font-size:7.07px;}</style></defs><title>Asset 35</title><g id="Layer_2" data-name="Layer 2"><g id="Layer_3" data-name="Layer 3"><text class="cls-1" transform="translate(20.58 19.46)">6x6m</text><text class="cls-2" transform="translate(20.58 8.36)">Tamanho</text><path d="M7,20.51H5.84l-.35,0H5.38l-.35,0-.11,0-.35,0-.11,0H4.34l-.23,0H4l-.79-.11-.11,0L3,20.2l-.11,0-.11,0-.11,0-.11,0-1-.21-.11,0-.11,0-.11,0-.11,0-.32-.1-.11,0-.43-.13-.11,0-.1,0a0,0,0,0,1,0,0V4.52H0V4.19H0V4.13H0l0,0H0l.2-.33h0l0,0h0a0,0,0,0,1,0,0l0-.05.14-.21.14-.2L1,2.5H1L2.41,1.21h0l2-.78v0a0,0,0,0,1,0,0h.08L6.71,0a0,0,0,0,1,0,0h.06l0,0L9,.39H9a0,0,0,0,1,0,0h0v0l2,.78h0L12.49,2.5h0l.42.68h0v0l.22.3.09.14h0l0,.07.19.31h0l0,0h0v.05h0v.32h0V19.45a0,0,0,0,1,0,0h0l-.1,0-.11,0-.43.13-.11,0-.32.09-.11,0-.11,0-.11,0-.11,0-1,.22-.12,0-.11,0-.11,0-.11,0-.11,0-.11,0-.79.11H9.41l-.23,0H9.07l-.11,0-.35,0-.11,0-.35,0H8l-.35,0H7Zm-.81-.06h1.5l.34,0h.11l.35,0,.11,0,.35,0H9v-.75H8.83l-.63,0H8.14l-.34,0H7.68l-.35,0H6.65l-.87,0H5.59l-.28,0H5.08l-.39,0-.12,0H4.48v.75h.09l.35,0,.11,0,.35,0h.11l.35,0h.35Zm-6.13-1,.08,0,.11,0,.43.13.11,0,.32.1.11,0,.11,0,.11,0,.11,0,1,.21.11,0,.11,0,.11,0,.11,0h.11l.12,0,.79.11h.11l.24,0h.09v-.75H4.22l-.11,0H3.88l-.57-.08-.11,0H3.09l-.12,0-.07,0h0l-.11,0-.18,0H2.41l-.14,0h0l-.07,0-.55-.12-.11,0-.16,0h0L1.2,19l-.11,0L1,19l-.23-.06h0l-.18-.05h0l-.05,0-.4-.12Zm9,.17v.75h.09l.23,0h.11l.79-.11.11,0h.12l.11,0,.12,0,.1,0,.12,0,1-.21.11,0,.11,0,.11,0,.11,0,.32-.1.11,0,.43-.13.11,0,.08,0v-.74l-.46.14h0l-.42.13-.11,0-.33.09-.11,0-.11,0-.55.12h0l-.27.06H11l-.22,0-.15,0-.08,0-.23,0-.11,0-.56.08H9.47l-.17,0H9.09Zm-2,.06h.21V19.4H7.07v.24Zm-.32,0H7v-.24H6.79Zm-.26,0h.22v-.24H6.5v.24Zm-.23,0h.15v-.24H6.2v.24Zm-.39,0h.25V19.4H5.91Zm1.54,0H7.6v-.24H7.35v.24Zm.19,0h.24v-.24H7.65Zm-1.81,0h0v-.24H5.62v.24h.22Zm2.09-.25v.24h.24v-.23H7.93Zm-2.44.23h.09v-.24H5.33v.23Zm2.72-.25v.24l.25,0v-.24H8.21Zm-2.93.23h0v-.24H5.05v.24h.23Zm3.23-.25v.24l.2,0h.05v-.24H8.51ZM5,19.58H5v-.24H4.77v.24H5Zm-.37,0h.11v-.24H4.48v.24h.13Zm4.2-.23v.23H9V19.3H8.81Zm-4.39.21h0V19.3H4.2v.24h0l.12,0h.08Zm4.67-.24v.24h0l.21,0v-.23H9.09Zm-4.94.21v-.24H4l-.08,0h0v.24H4l.1,0h.1Zm5.22-.24v.24h0l.2,0v-.24h0l-.06,0H9.38Zm.28,0v.23l.24,0V19.2H9.81l-.07,0H9.65Zm-6,.2.24,0v-.23H3.77l-.07,0H3.62Zm6.32-.24v.23l.23,0v-.23h-.08l-.07,0H9.94Zm-6.6.2.24,0v-.23h0l-.07,0H3.33Zm6.88-.24v.23l.19,0h.05v-.24h0l-.1,0h0l-.06,0Zm-7,.23h.07v-.24h0l-.07,0h0l-.08,0v.24h0l.08,0h.07Zm3,0h.25v-.24H6.2Zm.87,0h.24v-.24H7.07Zm-.28,0H7v-.24H6.79Zm-.29,0h.25v-.24H6.5Zm-.59,0h.25v-.24H5.91Zm1.45,0H7.6V19.1H7.35Zm-1.74,0h.25V19.1H5.62Zm4.88-.23v.24l.1,0h.06l.08,0v-.24l-.11,0h0Zm-2.85.24h.24v-.24H7.65Zm-4.7,0H3V19.1H3l-.11,0h0l-.08,0v.24l.09,0h.08Zm5-.24v.24h.24v-.24H7.93Zm-2.44.23h.09v-.24H5.33v.24h.16Zm-.25,0h0v-.24H5.05v.24h.19Zm3-.23v.24h.25v-.24H8.21Zm-3.29.21H5v-.24H4.77v.24h.15Zm3.59,0h.25V19H8.51Zm2.27-.24v.23l.25,0V19h0l-.21,0Zm-8.11.23h.06v-.23h0l-.14,0H2.5v.23h.09Zm2,0h0V19H4.48v.24h.19Zm4.13,0H9V19H8.81Zm-4.39,0h0V19H4.2v.24h.22Zm-2,0h.06V19l-.2,0h0v.24H2.3Zm6.7,0h.24V19H9.09Zm2-.23v.23h0l.21,0v-.24h0Zm-6.94.2h0V19H4l-.08,0h0v.24H4l.08,0h.11ZM9.38,19v.24h.12l.07,0h.05v-.24H9.49l-.07,0Zm2,0v.24l.23-.05v-.24Zm-9.25.22.08,0v-.24l-.23-.05v.24Zm1.72,0h.05v-.24h0l-.08,0H3.62v.24H3.7l.07,0Zm5.84,0h.08l.07,0h.09V18.9H9.81l-.07,0H9.65Zm.28-.28v.24H10l.07,0h.08v-.24h-.08l-.07,0H9.94Zm-6.45.22.07,0h0v-.24h0l-.07,0h0l-.07,0h0v.24h.15Zm-1.67,0,.08,0v-.24l-.23-.05v.24Zm9.81-.22v.24l.23-.05v-.24Zm-1.41.21h.12l.1,0h0v-.24h0l-.07,0h0l-.1,0h0Zm-6.94,0h0v-.24h0l-.07,0h0l-.08,0V19l.09,0h0l.07,0Zm2.92,0h.25v-.24H6.2Zm.87,0h.24v-.24H7.07Zm-.28,0H7v-.24H6.79Zm-.29,0h.25v-.24H6.5Zm5.4-.24v.24l.23-.05v-.24Zm-10.28.23h0v-.24l-.23-.05V19Zm4.3,0h.25v-.24H5.91Zm1.45,0H7.6v-.24H7.35Zm3.14-.24V19l.08,0h0l.12,0v-.24l-.11,0h0ZM5.62,19h.25v-.24H5.62ZM2.89,19,3,19H3v-.24H3l-.11,0h0l-.08,0V19l.09,0Zm4.75,0h.24V18.8H7.65Zm.28-.25V19h.24v-.24H7.93ZM5.49,19h.09v-.24H5.33V19h.16Zm2.72-.25V19h.25v-.24H8.21ZM5.14,19h.15v-.24H5.05V19h.08Zm-.21,0H5v-.24H4.77V19h.15ZM2.59,19l.14,0h0v-.24h0l-.18,0h0V19h.09Zm8.2,0h0l.21,0h0v-.24h0l-.17,0h-.06ZM8.51,19h.25v-.24H8.51Zm3.65-.24V19h0l.12,0h.08v-.24l-.08,0,0,0ZM1.23,19l.11,0v-.24l-.11,0,0,0-.07,0v.24l.08,0Zm3.45,0h0v-.24H4.48v.24h.19Zm4.13-.24V19H9v-.24H8.81Zm-4.39.21h0v-.24H4.2v.24h.22Zm-2.16,0,.19,0v-.24l-.2,0h0v.24h0Zm8.81-.19v.24l.23,0v-.24Zm-2,.23h.24v-.24H9.09ZM.95,18.88H1l.09,0v-.24l-.12,0,0,0-.07,0v.24Zm11.49-.2v.24l.23-.06v-.24l-.07,0h0Zm-8.3.23h0v-.24H4l-.08,0h0v.24H4l.08,0h.11Zm5.24-.23v.24h.23v-.24H9.49l-.07,0Zm2,0v.24l.23-.05V18.6l-.21,0Zm-9.41.19.23.05v-.24l-.23-.05Zm1.84,0,.08,0h0v-.24h0l-.08,0H3.62v.24h.15Zm5.88,0h.08l.07,0h.09v-.24H9.74l-.06,0h0Zm3.06-.27v.24l.23-.07h0v-.24h0l0,0-.1,0,0,0Zm-12,.22.06,0v-.24h0l0,0-.13,0,0,0v.24h0Zm2.74,0,.07,0h0V18.6h0l-.07,0h0l-.07,0h0v.24h.05l.07,0Zm6.45,0H10l.07,0h.08v-.24h-.08l-.07,0H9.94Zm-8.28-.07.23.05v-.24l-.23-.05Zm10-.18v.24l.23-.05v-.24Zm-1.41.21h0l.11,0h0l.06,0h0v-.24h0l-.07,0h0l-.1,0h0Zm-6.94,0h0v-.24h0l-.07,0h0l-.08,0v.24l.09,0h0l.07,0Zm2.92,0h.25v-.24H6.2Zm.87,0h.24v-.24H7.07Zm-.28,0H7v-.24H6.79Zm-.29,0h.25v-.24H6.5Zm5.4-.24v.24l.23-.05v-.24Zm-10.51.18.23.05v-.24l-.23-.05Zm4.52,0h.25v-.24H5.91Zm1.45,0H7.6v-.24H7.35Zm-7.3-.14.45.14V14.12L.05,14Zm13-4.49v4.63l.45-.14V14ZM10.5,18.52v.24l.08,0h0l.12,0v-.24l-.08,0h0Zm-4.83.23h.19v-.24H5.62v.24h.05Zm-2.78,0,.11,0H3v-.24H3l-.11,0h0l-.08,0v.24l.09,0Zm4.75,0h.24V18.5H7.65Zm.28-.25v.24h.24v-.24H7.93Zm-2.55.23h.19V18.5H5.33v.24h0Zm2.83-.24v.24h.25v-.24H8.21Zm-3.08.23h.15v-.24H5.05v.24h.08Zm-.21,0H5v-.24H4.77v.24h.15Zm-2.37,0,.18,0h0v-.24h0l-.18,0h0v.24h0Zm6,0h.25v-.24H8.51Zm3.65-.24v.24l.11,0,0,0,.09,0V18.4l-.08,0h0Zm-1.38,0v.24h.05l.17,0h0v-.24l-.19,0Zm-9.66.18.08,0,0,0,.1,0v-.24l-.08,0,0,0-.1,0Zm3.55,0h0v-.24H4.48v.24h.19Zm4.13-.24v.24H9v-.24H8.81Zm-4.39.21h0v-.24H4.2v.24h.22Zm-2.16,0,.19,0v-.24l-.2,0h0v.24h0Zm8.81-.2v.24l.23-.05v-.24Zm-2,.24h.24v-.24H9.09ZM.85,18.56l.08,0,0,0,.11,0v-.24l-.12,0,0,0-.07,0Zm11.58-.18v.24l.11,0h0l.08,0v-.24l-.07,0h0Zm-8.3.23h0v-.24H4.1l-.07,0H3.91v.24H4l.08,0h.11Zm5.24-.23v.24h0l.07,0h.12v-.24H9.38Zm-7.44.16.23.05v-.24l-.23-.05Zm9.41,0h0l.22,0v-.24l-.21,0h0Zm-7.57,0,.08,0h0v-.24h0l-.08,0H3.62v.24h.15Zm5.88,0h0l.06,0h.16v-.24H9.74l-.06,0h0Zm-9.07-.1h0l0,0,.13,0,0,0v-.24h0l0,0-.13,0,0,0v.24Zm12.13-.17v.24h0l0,0,.11,0,.05,0v-.06h0v-.16h0l-.1,0,0,0Zm-9.22.21.07,0h0v-.24h0l-.07,0h0l-.07,0h0v.24h.05l.07,0Zm6.45,0h.23v-.24h-.08l-.07,0H9.94Zm-8.28-.07.23.06v-.24l-.23-.05Zm10-.18v.24l.23-.05v-.24Zm-1.41.21h0l.11,0h0l.06,0h0v-.24h0l-.07,0h0l-.1,0h0Zm-6.94,0h0v-.24h0l-.07,0h0l-.08,0v.24l.09,0h0l.07,0Zm2.92,0h.25v-.24H6.2Zm.87,0h.24v-.24H7.07Zm-.28,0H7v-.24H6.79Zm-.29,0h.25v-.24H6.5Zm5.4-.24v.24l.23-.05v-.24Zm-10.51.18.23.05v-.23l-.23-.06Zm4.52,0h.25v-.24H5.91Zm1.45,0H7.6v-.24H7.35Zm3.14-.24v.24l.12,0h0l.08,0v-.24l-.08,0h0Zm-4.83.23h.19v-.24H5.62v.24h.05Zm-2.78,0,.11,0H3v-.24H3l-.11,0h0l-.08,0v.24l.09,0Zm4.75,0h.24v-.24H7.65Zm.28-.25v.24h.24v-.24H7.93Zm-2.55.23h.19V18.2H5.33v.24h0Zm-.25,0h.15v-.24H5.05v.24h.08Zm3.08,0h.25v-.24H8.21ZM5,18.4H5v-.24H4.77v.24H5Zm-2.41,0,.18,0h0v-.24h0l-.14,0h0v.24h0Zm6,0h.25v-.24H8.51Zm2.27-.24v.24h.05l.19,0v-.24l-.19,0Zm1.38,0v.24l.11,0h0l.09,0v-.24l-.08,0h0Zm-11,.17.11,0,0,0h.07v-.24l-.08,0,0,0-.1,0Zm3.55,0h0v-.24H4.48v.24h.19Zm4.13-.24v.24H9v-.24H8.81Zm-4.39.21h0v-.24H4.2v.24h.22Zm-2.16,0,.19,0v-.24l-.23-.05h0v.24h0Zm8.81,0h0l.22-.05v-.24l-.23.05Zm-2,0h.24v-.24H9.09ZM.85,18.27l.08,0,0,0,.11,0v-.24l-.08,0,0,0-.1,0Zm11.58-.18v.24l.11,0,0,0,.08,0V18l-.07,0h0Zm-8.3.23h0v-.24H4.1l-.07,0H3.91v.24H4l.07,0Zm5.24-.24v.24h.23v-.24H9.38Zm-7.44.16.23.05v-.24L1.94,18Zm9.41.05h0l.22-.05V18l-.21,0h0Zm-7.57,0,.08,0h0v-.24h0l-.08,0H3.62v.24h.15Zm5.88,0h0l.06,0h.16V18H9.74l-.06,0h0Zm-9.07-.1h0l0,0,.13,0,0,0V18h0l0,0L.62,18l0,0V18h0v.16h0ZM12.71,18v.24h.07l.11,0,.05,0v-.14h0v0h0V18h0l0,0-.13,0Zm-9.22.21.07,0h0V18h0l-.07,0h0l-.07,0h0v.24h.05l.07,0Zm6.45,0h.23V18H10l-.08,0Zm-8.28-.07.23.05V18l-.23-.05Zm10-.18v.24l.23-.05v-.24Zm-1.41.21h0l.11,0h0l.06,0h0v-.24h0l-.07,0h0l-.07,0h-.05Zm-6.94,0h0V18h0l-.07,0h0l-.08,0v.24l.09,0h0l.07,0Zm2.92,0h.25v-.24H6.2Zm.87,0h.24v-.24H7.07Zm-.28,0H7v-.24H6.79Zm-.29,0h.25v-.24H6.5Zm5.4-.24v.24l.23-.05v-.24Zm-10.51.18.23.05v-.24l-.23-.05Zm4.52,0h.25v-.24H5.91Zm1.45,0H7.6v-.24H7.35Zm3.14-.24v.23l.12,0h0l.08,0v-.24l-.08,0h0Zm-4.83.23h.19v-.24H5.62v.24h.05Zm-2.78,0,.11,0H3v-.24H3l-.11,0h0l-.08,0v.24l.09,0Zm4.75,0h.24v-.24H7.65Zm-2.26,0h.19v-.24H5.33v.24h0Zm2.55,0h.24V17.9H7.93Zm-2.79,0h.15v-.24H5.05v.24h.08Zm3.08,0h.25v-.24H8.21ZM5,18.11H5v-.24H4.77v.24H5Zm3.55,0h.25v-.24H8.51Zm2.27-.24v.24h.05l.19,0v-.24l-.19,0Zm1.38,0v.24l.11,0,0,0,.09,0v-.24l-.11,0,0,0Zm-9.44.23h0v-.24h0l-.14,0h0v.24h0l.14,0ZM1.12,18l.11,0,0,0,.07,0v-.24h0l0,0-.14,0Zm3.55,0h0v-.24H4.48v.24h.19Zm4.13-.24v.24H9v-.24H8.81ZM2.22,18h0l.22,0v-.24l-.23-.05h0Zm2.14,0h.08v-.24H4.2V18h.15Zm6.72,0h0L11.3,18v-.24l-.23,0Zm-2,0h.24V17.8H9.09ZM.85,18,1,18l0,0,.07,0V17.8l-.08,0,0,0-.1,0Zm11.58-.18V18l.11,0,0,0,.08,0v-.24l-.07,0h0ZM4.14,18h0v-.24H4.1l-.07,0H3.91V18H4l.07,0Zm5.24,0h.23v-.24H9.38ZM1.94,18l.23.05v-.24l-.23-.05Zm9.41.05h0l.22-.05v-.24l-.18,0h-.05ZM3.77,18l.08,0h0v-.24h0l-.08,0h0l-.08,0h0V18h.15Zm5.88,0h0l.06,0h.16v-.24H9.74l-.06,0h0ZM.58,17.9h0l0,0,.13,0,0,0v-.24h0l0,0-.1,0,0,0h0Zm12.13-.17V18h0l0,0,.13,0,.05,0v-.24h-.07l-.1,0Zm-9.22.21.07,0h0v-.24h0l-.07,0h0l-.07,0h0v.24h.05l.07,0Zm6.45,0h0l.07,0h.15v-.24h0l-.07,0h0l-.08,0Zm-8.28-.07.23.05v-.24l-.23-.05Zm10-.18v.24l.23-.05v-.24Zm-1.41,0v.24h.15l.06,0h0v-.24l-.08,0h0l-.07,0Zm-6.94.23h0v-.24h0l-.1,0H3.06v.24l.09,0h0l.07,0Zm2.92,0h.25v-.24H6.2Zm.87,0h.24v-.24H7.07Zm-.28,0H7v-.24H6.79Zm-.29,0h.25v-.24H6.5Zm5.4-.24v.24l.23-.05v-.24Zm-10.51.18.23.05v-.24l-.23-.05Zm4.52,0h.25v-.24H5.91Zm1.45,0H7.6v-.24H7.35Zm3.14-.24v.24l.12,0h0l.08,0v-.24l-.08,0h0Zm-4.83.23h.19v-.24H5.62v.24h.05Zm-2.78,0,.11,0H3v-.24H3l-.11,0h0l-.08,0v.24l.09,0Zm4.75,0h.24v-.24H7.65Zm-2.26,0h.19v-.24H5.33v.24h0Zm2.55,0h.24v-.24H7.93Zm-2.76,0h.12V17.6H5.05v.24h.12Zm3,0h.25v-.24H8.21ZM5,17.81H5v-.24H4.77v.24H5Zm5.82-.23v.24h.05l.19,0v-.24l-.19,0Zm-2.27,0v.24h.25v-.24H8.51Zm3.65,0v.24l.08,0,0,0,.12,0v-.24l-.11,0,0,0Zm-9.44.23h0v-.24h0l-.14,0h0v.24h0l.14,0Zm-1.6-.06.15,0,0,0h0v-.24h0l0,0-.14,0Zm3.55,0h0v-.24H4.48v.24h.19Zm4.13-.24v.24H9v-.24H8.81Zm-6.59.16h0l.22,0v-.24l-.24-.05Zm2.14,0h.08v-.24H4.2v.24h.15Zm6.72,0h0l.22,0v-.24l-.23.05Zm-2,0h.24V17.5H9.09ZM.85,17.68l.11,0,0,0,.07,0v-.24l-.08,0,0,0-.1,0Zm11.58-.18v.24l.11,0h0l.08,0v-.24l-.11,0,0,0Zm-8.3.23h0V17.5H3.91v.24H4l.07,0Zm5.24,0h.23v-.24H9.38Zm-7.44-.07.23.05v-.24h0l-.22,0Zm9.41-.19v.24h0l.18,0v-.24l-.18,0Zm-7.57.22.08,0h0v-.24h0l-.08,0h0l-.08,0h0v.24h0l.08,0Zm5.88,0h0l.06,0h.16v-.24H9.74l-.06,0h0ZM.58,17.6H.63l0,0,.1,0,0,0v-.24h0l0,0-.1,0,0,0h0v.05h0Zm12.13-.17v.24h0l0,0,.1,0,0,0h.06v-.24h-.07l-.1,0Zm-9.22.21.07,0h0v-.24h0l-.07,0h0l-.07,0h0v.24h.05l.07,0Zm6.45,0h0l.07,0h0l.06,0h.05v-.24h0l-.07,0h0l-.08,0ZM1.66,17.6l.23.05v-.24l-.23-.05Zm10-.18v.24l.23-.05v-.24Zm-1.41,0v.24h0l.07,0h0l.08,0v-.24l-.08,0h0l-.07,0Zm-6.94.23h0v-.24h0l-.1,0H3.06v.24h.08l.11,0Zm2.92,0h.25v-.24H6.2Zm.87,0h.24v-.24H7.07Zm-.28,0H7v-.24H6.79Zm-.29,0h.25v-.24H6.5Zm5.4-.24v.24l.23-.05V17.3Zm-10.51.18.23.05v-.24l-.23-.05Zm4.52,0h.25v-.24H5.91Zm1.45,0H7.6v-.24H7.35Zm-1.68,0h.19v-.24H5.62v.24h.05Zm-2.78,0,.11,0H3v-.24H3l-.11,0h0l-.08,0v.24l.09,0Zm7.61,0h0l.11,0h0l.08,0V17.3l-.08,0h0l-.12,0Zm-2.85,0h.24v-.24H7.65Zm-2.26,0h.19v-.24H5.33v.24h0Zm2.55,0h.24v-.24H7.93Zm-2.76,0h.12v-.24H5.05v.24h.12Zm3,0h.25v-.24H8.21ZM5,17.52H5v-.24H4.77v.24H5Zm7.21-.24v.24l.08,0h0l.12,0v-.24l-.11,0,0,0Zm-1.38,0v.24h.05l.19,0v-.24l-.16,0h-.09Zm-2.27,0v.24h.25v-.24H8.51Zm-5.79.24h0v-.24h0l-.18,0h0v.24h0l.14,0Zm-1.6-.06.15,0,0,0h0v-.24h0l0,0-.14,0Zm3.55,0h0v-.24H4.48v.24h.19Zm4.13-.24v.24H9v-.24H8.81Zm-6.59.16.24.05v-.24l-.24-.05Zm2.14,0h.08v-.24H4.2v.24h.15Zm6.72,0h0l.22,0v-.24l-.17,0h-.05Zm-2,0h.24v-.24H9.09ZM.85,17.39l.11,0,0,0,.07,0v-.24l-.08,0,0,0-.1,0Zm11.58-.18v.24l.07,0h0l.12,0v-.24l-.11,0,0,0Zm-8.34.22h.05v-.24H3.91v.24H4.1Zm5.27,0h.23v-.24H9.38Zm-7.44-.07.23.05h0v-.24h0l-.22,0Zm9.41-.19v.24h0l.18,0v-.24l-.14,0h-.09Zm-7.57.22.08,0h0v-.24H3.74l-.08,0h0v.24h0l.08,0Zm5.88,0h0l.06,0h.16v-.24H9.65Zm-9.07-.1H.63l0,0,.1,0,0,0v-.24h0l0,0-.1,0,0,0h0v.17h0Zm12.13-.17v.24h0l0,0,.1,0h.08v-.06h0v-.18h-.07l-.1,0Zm-9.22.21.07,0h0v-.24h0l-.07,0h0l-.07,0h0v.24h.05l.07,0Zm6.45,0h.12l.06,0h.05V17.1h0l-.07,0h0l-.08,0ZM1.66,17.3l.23.05v-.24l-.23-.05Zm10-.18v.24l.23-.05v-.24Zm-1.41,0v.24h.15l.08,0V17l-.08,0h0l-.07,0Zm-6.94.23h0v-.24h0l-.11,0H3.06v.24h.08l.11,0Zm2.92,0h.25v-.24H6.2Zm.87,0h.24v-.24H7.07Zm-.28,0H7v-.24H6.79Zm-.29,0h.25v-.24H6.5Zm5.4-.24v.24l.23-.05V17Zm-10.51.18.23.05v-.24L1.39,17Zm4.52,0h.25v-.24H5.91Zm1.45,0H7.6V17H7.35Zm-1.68,0h.19V17H5.62v.24h.05Zm-2.78,0,.11,0H3V17H3l-.14,0H2.78v.24l.09,0Zm7.61,0h0l.11,0h0l.08,0V17l-.08,0h0l-.12,0Zm-2.85,0h.24V17H7.65Zm-2.26,0h.19V17H5.33v.24h0Zm2.55,0h.24V17H7.93Zm-2.76,0h.12V17H5.05v.24h.12Zm3,0h.25V17H8.21ZM5,17.23H5V17H4.77v.24H5ZM12.17,17v.24l.08,0,0,0,.12,0v-.24l-.14,0h-.08Zm-1.38,0v.24h.08l.16,0v-.24l-.16,0h-.09ZM8.51,17v.24h.25V17H8.51Zm-5.79.23h0V17h0l-.18,0h0v.24h0l.18,0Zm-1.6-.06.15,0,0,0h0V17h0l0,0-.17,0Zm3.55,0h0V17H4.48v.24h.19ZM8.81,17v.24H9v-.24H8.81Zm-6.59.16.24.05v-.24l-.24-.05Zm2.14,0h.08v-.24H4.2v.24h.15Zm4.74,0h.24v-.24H9.09Zm2-.24v.24h0l.18,0v-.24l-.17,0ZM.85,17.1l.11,0,0,0,.07,0v-.24H1l0,0-.14,0Zm11.58-.18v.24l.07,0h0l.12,0v-.24l-.11,0,0,0Zm-8.34.22h.05v-.24H3.91v.24H4.1Zm5.27,0h.23v-.24H9.38Zm-7.44-.07.23.05h0v-.24h0l-.19,0Zm9.41-.19v.24h.09l.15,0v-.24l-.14,0h-.09Zm-7.5.23h0v-.24H3.74l-.08,0h0v.24h0l.08,0h.1Zm5.8-.23v.24h.24v-.24h0l-.07,0H9.65ZM.58,17H.63l0,0,.1,0,0,0v-.24h0l0,0-.1,0,0,0h0Zm12.13-.17v.24h0l0,0,.1,0,0,0h.06v-.24h-.07l-.1,0Zm-9.22.21.07,0h0v-.24H3.46l-.07,0h0V17h.05l.07,0Zm6.45,0h0l.07,0h.15V16.8h0l-.07,0h0l-.08,0ZM1.66,17l.23.05v-.24l-.23-.05Zm10-.18v.24l.23-.05v-.24Zm-1.41,0V17h.15l.08,0v-.24l-.08,0h0l-.07,0ZM3.28,17h0v-.24h0l-.11,0H3.06V17h.08l.11,0ZM6.2,17h.25v-.24H6.2Zm.87,0h.24v-.24H7.07Zm-.28,0H7v-.24H6.79ZM6.5,17h.25v-.24H6.5Zm5.4-.24V17l.23-.05v-.24Zm-10.51.18.23.05v-.24l-.23-.05Zm4.52,0h.25v-.24H5.91Zm1.45,0H7.6v-.24H7.35ZM5.67,17h.19v-.24H5.62V17h.05ZM2.86,17,3,17H3v-.24H3l-.11,0H2.78v.24h.08Zm7.64,0h0l.11,0h0l.08,0v-.24h-.08l-.15,0ZM7.65,17h.24v-.24H7.65ZM5.38,17h.19v-.24H5.33V17h0Zm2.55,0h.24v-.24H7.93Zm-2.76,0h.12v-.24H5.05v.24h.12Zm3,0h.25V16.7H8.21ZM5,16.93H5V16.7H4.77v.24H5Zm5.82-.23v.24h.08l.16,0v-.24l-.16,0h-.09Zm-2.27,0v.24h.25v-.24H8.51Zm3.65,0v.24h.07l.16,0v-.24l-.14,0h-.08Zm-11,.18.18,0,0,0V16.7h0l0,0-.17,0Zm1.6.06h0V16.7h0l-.18,0h0v.24h0l.18,0Zm2,0h0v-.24H4.48v.24h.19Zm4.13-.24v.24H9v-.24H8.81Zm-6.59.16.24.05v-.24l-.24-.05Zm2.17,0h0v-.24H4.2v.24h.19Zm4.7,0h.24v-.24H9.09Zm2-.24v.24h0l.18,0V16.6l-.17,0ZM.85,16.8l.15,0,0,0h0v-.24H1l0,0-.14,0Zm11.58-.18v.24l.07,0h0l.12,0v-.24l-.11,0h0Zm-8.34.22h.05v-.24H3.91v.24H4.1Zm5.27,0h.23v-.24H9.38Zm2-.27v.24h.09l.15,0v-.24l-.14,0h-.09Zm-9.18.23h0v-.24h0l-.19,0v.24l.19,0Zm1.69,0h0v-.24H3.74l-.08,0h0v.24h0l.08,0h.1Zm5.8-.23v.24h.12l.07,0h.05v-.24h0l-.07,0H9.65Zm-9.07.14H.63l0,0,.1,0,0,0v-.24h0l-.14,0,0,0h0Zm12.13-.17v.24h0l0,0,.1,0h.08v-.24h-.07l-.1,0Zm-2.77.23h0l.07,0h0l.06,0h.05v-.24h0l-.07,0h0l-.08,0Zm-6.38,0h0v-.24H3.46l-.07,0h0v.24h.05l.07,0h.1Zm-1.9-.06.23.05v-.24l-.23-.05Zm10-.18v.24l.23-.05v-.24Zm-1.41,0v.24h0l.07,0h0l.08,0v-.24l-.08,0h0l-.07,0Zm-6.94.23h0V16.5H3.21l-.07,0H3.06v.24h.08l.11,0Zm2.92,0h.25v-.24H6.2Zm.87,0h.24v-.24H7.07Zm-.28,0H7v-.24H6.79Zm-.29,0h.25v-.24H6.5Zm5.4-.24v.24l.23-.05v-.24Zm-10.51.18.23.05v-.24l-.23-.05Zm4.52,0h.25v-.24H5.91Zm1.45,0H7.6v-.24H7.35Zm-1.65,0h.16v-.24H5.62v.24H5.7Zm4.8,0h0l.14,0h.09v-.24h-.08l-.15,0Zm-2.85,0h.24v-.24H7.65ZM3,16.69H3v-.24H3l-.11,0H2.78v.24h.08l.11,0Zm2.42,0h.15v-.24H5.33v.24h.09Zm2.51,0h.24v-.24H7.93Zm-2.76,0h.12v-.24H5.05v.24h.12Zm3,0h.25v-.24H8.21ZM5,16.64H5V16.4H4.77v.24H5Zm5.82-.23v.24h.08l.16,0v-.24l-.16,0h-.09Zm-2.27,0v.24h.25v-.24H8.51Zm3.65,0v.24h.07l.16,0v-.24l-.17,0h-.05Zm-11,.18.18,0,0,0V16.4h0l-.2,0Zm1.6.06h0V16.4H2.65l-.14,0h0v.24h0l.18,0Zm2,0h0v-.24H4.48v.24h.19Zm4.13-.23v.24H9v-.24H8.81Zm-6.59.16.24.05v-.24l-.24-.05Zm2.17,0h0v-.24H4.2v.24h.19Zm4.7,0h.24v-.24H9.09Zm2-.24v.24h0l.18,0V16.3l-.17,0ZM.85,16.51l.15,0,0,0h0v-.24H1l0,0-.14,0Zm11.58-.18v.24l.07,0h0l.12,0v-.24l-.11,0,0,0Zm-8.34.22h.05v-.24H3.91v.24H4.1Zm5.27,0h.23V16.3H9.38Zm2-.27v.24h.09l.15,0v-.24l-.11,0h0Zm-9.18.23h0v-.24H2.09l-.15,0v.24l.19,0Zm1.69,0h0v-.24H3.74l-.08,0h0v.24h0l.08,0h.1Zm5.8-.23v.24h.12l.07,0h.05v-.24h0l-.07,0H9.65Zm3.06,0v.24h0l0,0,.1,0,0,0h.06v-.24h0l0,0-.1,0ZM.58,16.43H.63l0,0,.14,0v-.24h0l-.14,0,0,0h0Zm9.36.06h0l.07,0h.15v-.24h0l-.07,0h0l-.08,0Zm-6.38,0h0v-.24h0l-.07,0H3.33v.24h.05l.07,0h.1Zm-1.9-.06.23.05v-.24l-.23-.05Zm10-.18v.24l.23-.05v-.24Zm-1.41,0v.24h.15l.08,0v-.24h-.08l-.1,0Zm-7,.23h0v-.24H3.21l-.07,0H3.06v.24h.08l.07,0Zm3,0h.25v-.24H6.2Zm.87,0h.24v-.24H7.07Zm-.28,0H7v-.24H6.79Zm-.29,0h.25v-.24H6.5Zm5.4-.24v.24l.23-.05v-.24Zm-10.51.18.23.05v-.24l-.23-.05Zm4.52,0h.25v-.24H5.91Zm1.45,0H7.6v-.24H7.35Zm-1.65,0h.16v-.24H5.62v.24H5.7Zm4.8,0h0l.14,0h.09v-.24h-.08l-.15,0Zm-2.85,0h.24v-.24H7.65ZM3,16.39H3v-.24H3l-.11,0H2.78v.24h.08l.11,0Zm2.42,0h.15v-.24H5.33v.24h.09Zm2.51,0h.24v-.24H7.93Zm-2.76,0h.12v-.24H5.05v.24h.12Zm3,0h.25v-.24H8.21ZM5,16.34H5v-.24H4.77v.24H5Zm5.82-.23v.24h.08l.16,0v-.24l-.12,0h0Zm-2.27,0v.24h.25v-.24H8.51Zm3.65,0v.24h0l.19,0V16l-.17,0,0,0Zm-9.48.23h0v-.24H2.65l-.15,0v.24h0l.14,0Zm-1.56-.05.22.05v-.23h0l-.2,0Zm3.58,0h0v-.24H4.48v.24h.22Zm4.1-.23v.24H9v-.24H8.81Zm-6.59.16.24.05v-.24h0l-.23,0Zm2.17,0h0v-.24H4.2v.24h.19Zm4.7,0h.24V16H9.09Zm2-.24v.24h0l.18,0V16l-.14,0h-.08ZM.85,16.21l.15,0,0,0h0V16H1l0,0L.85,16ZM12.44,16v.24l.07,0h0l.12,0V16l-.14,0h-.08Zm-8.34.22h.05V16H3.91v.24H4.1Zm5.27,0h.23V16h0l-.07,0H9.38Zm2-.27v.24l.08,0h0l.12,0V16l-.11,0h0Zm-9.22.23h0V16H2.09l-.15,0v.24l.15,0Zm1.72,0h0V16H3.74l-.08,0h0v.24h0l.08,0h.1ZM9.65,16v.24h.12l.07,0h.05V16h0l-.07,0H9.65Zm3.06,0v.24h0l.1,0,0,0h.06V15.9h-.07l-.14,0ZM.58,16.14H.63l0,0,.14,0V16h0l-.14,0,0,0h0v.24Zm9.36.06h0l.07,0h.15v-.24h0l-.07,0h0l-.08,0Zm-6.38,0h0V16h0l-.07,0h0l-.07,0h0v.24h.12l.07,0Zm-1.9-.06.23.05v-.24l-.23-.05Zm10-.18v.24l.23-.05v-.24Zm-1.41,0v.24h0l.1,0h.09v-.24h-.08l-.1,0Zm-7,.23h0v-.24H3.21l-.07,0H3.06v.24h.08l.07,0Zm3,0h.25v-.24H6.2Zm.87,0h.24v-.24H7.07Zm-.28,0H7v-.24H6.79Zm-.29,0h.25v-.24H6.5Zm5.4-.24v.24l.23-.05v-.24Zm-10.51.18.23.05v-.24l-.23-.06Zm4.52,0h.25v-.24H5.91Zm1.45,0H7.6v-.24H7.35Zm-1.65,0h.16v-.24H5.62v.24H5.7Zm4.8,0h0l.14,0h.09v-.24h-.08l-.15,0Zm-2.85,0h.24v-.24H7.65ZM3,16.1H3v-.24H3l-.11,0H2.78v.24h.08l.11,0Zm2.42,0h.15v-.24H5.33v.24h.09Zm2.51,0h.24v-.24H7.93Zm-2.76,0h.12v-.24H5.05v.24h.12Zm3,0h.25v-.24H8.21ZM5,16.05H5v-.24H4.77V16H5Zm7.21-.24v.24h0l0,0,.19,0v-.24Zm-1.38,0v.24l.08,0h0L11,16v-.24l-.12,0h0Zm-2.27,0v.24h.25V15.8H8.51ZM2.69,16h0v-.24H2.65l-.15,0V16l.16,0ZM1.12,16l.22.05v-.24l-.22-.05Zm3.58,0h0v-.24H4.48V16h.22Zm4.1-.24V16H9v-.24H8.81ZM4.39,16h0v-.24H4.2V16h.19ZM2.22,16l.23.05h0v-.24h0l-.23-.05ZM9.09,16h.24v-.24H9.09Zm2-.24V16h.08l.15,0v-.24l-.14,0h-.08ZM.85,15.92,1,16l0,0h0v-.24h0l0,0-.17,0Zm11.58-.18V16h.07l.15,0v-.24l-.14,0h-.08ZM4.1,16h.05v-.24H4l-.08,0h0v.24H4.1Zm5.27,0h.15l.08,0V15.7h0l-.07,0H9.38Zm2-.27v.24l.08,0h0l.12,0v-.24l-.07,0h0Zm-9.22.23h0V15.7l-.09,0h0l-.12,0v.24l.15,0Zm1.72,0h0V15.7H3.81l-.07,0H3.62v.24h0l.08,0h.1Zm5.8-.23v.24h.24v-.24h0l-.07,0H9.65Zm-9.07.14H.63l0,0,.14,0v-.23h0l-.1,0,0,0-.07,0v.21h0Zm12.13-.17v.23l.14,0h.08v0h0V15.6h-.07l-.14,0Zm-2.77.23h0l.07,0h0l.06,0h.05v-.24h0l-.07,0H9.94Zm-6.38,0h0v-.24h0l-.07,0h0l-.07,0h0v.24h0l.08,0h0l.07,0Zm-1.9-.06.23.05v-.24l-.23-.05Zm10-.18v.24l.23-.05V15.6Zm-1.41,0v.24h0l.1,0h.09v-.24h-.08l-.1,0Zm-7,.23h0v-.24H3.21l-.07,0H3.06v.24h.08l.07,0Zm3,0h.25v-.24H6.2Zm.87,0h.24v-.24H7.07Zm-.28,0H7v-.24H6.79Zm-.29,0h.25v-.24H6.5Zm5.4-.24v.24l.23-.05v-.24Zm-10.51.18h0l.2,0v-.24l-.23-.06Zm4.52,0h.25v-.24H5.91Zm1.45,0H7.6v-.24H7.35Zm-1.65,0h.16v-.24H5.62v.24H5.7Zm4.8,0h0l.14,0h.09v-.24h-.08l-.1,0H10.5Zm-2.85,0h.24v-.24H7.65ZM3,15.8H3v-.24H3l-.11,0H2.78v.24h.08l.11,0Zm2.42,0h.15v-.24H5.33v.24h.09Zm2.51,0h.24v-.24H7.93Zm-2.76,0h.12v-.24H5.05v.24h.12Zm3,0h.25v-.24H8.21ZM5,15.76H5v-.24H4.77v.24H5Zm5.82-.23v.24l.08,0h0l.12,0v-.24l-.12,0h0Zm-2.27,0v.24h.25V15.5H8.51Zm-5.82.23h0v-.24H2.65l-.15,0v.24l.16,0Zm9.48-.23v.24h0l.22-.05v-.24Zm-11,.18.22.05v-.24l-.22-.05Zm3.58,0h0V15.5H4.48v.24h.22Zm4.1-.24v.24H9v-.24H8.81Zm-4.42.21h0v-.24H4.2v.24h.19Zm-2.17,0,.23.05h0v-.24h0l-.23-.05Zm6.87.05h.24v-.24H9.09Zm2-.24v.24h.08l.15,0v-.24l-.14,0h-.08ZM.85,15.63l.18,0,0,0v-.24h0l0,0-.17,0Zm11.58-.18v.24h.07l.15,0v-.24l-.14,0h-.08Zm-8.34.22h.05v-.24H4l-.08,0h0v.24h0l.08,0h.1Zm5.27,0h.15l.08,0v-.24h0l-.07,0H9.38Zm2-.27v.24l.11,0h0l.08,0v-.24l-.07,0h0Zm-9.26.22.09,0v-.24l-.12,0H2l-.08,0v.24l.12,0Zm1.76,0h0V15.4H3.81l-.07,0H3.62v.24h.12l.07,0Zm5.8-.23v.24h.24v-.24h0l-.07,0H9.65Zm-9.07.14.08,0,0,0,.11,0v-.23h0l-.1,0,0,0-.07,0Zm12.13-.17v.23l.14,0,0,0h.06v-.08h0v-.15l-.08,0,0,0Zm-9.15.22h0v-.24h0l-.07,0h0l-.07,0h0v.24h0l.08,0h0l.07,0Zm6.38-.24v.24h.23v-.24h0l-.07,0H9.94Zm-8.28.18.23.05v-.24l-.23-.05Zm10-.18v.24l.23-.05V15.3Zm-1.41,0v.24h0l.1,0h.09v-.24h-.08l-.07,0h-.09Zm-7,.22h0v-.24H3.21l-.07,0H3.06v.24h.08l.07,0Zm3,0h.25V15.3H6.2Zm.87,0h.24v-.24H7.07Zm-.28,0H7V15.3H6.79Zm-.29,0h.25V15.3H6.5Zm5.4-.24v.24l.23-.05v-.24Zm-10.51.18h0l.2,0v-.24l-.18,0,0,0Zm4.52,0h.25v-.24H5.91Zm1.45,0H7.6v-.24H7.35Zm-1.65,0h.16v-.24H5.62v.24H5.7Zm1.94,0h.24v-.24H7.65ZM3,15.51H3v-.24H3l-.11,0H2.78v.24h.08l.11,0Zm7.5-.24v.24h0l.1,0h.09v-.24h-.08l-.1,0Zm-5.08.22h.15v-.24H5.33v.24h.09Zm2.51,0h.24v-.24H7.93Zm-2.76,0h.12v-.24H5.05v.24h.12Zm3,0h.25v-.24H8.21ZM5,15.46H5v-.24H4.77v.24H5Zm5.79-.23v.24l.08,0h0l.12,0v-.24l-.12,0h0Zm-2.27,0v.24h.25v-.24H8.51Zm-5.82.23h0v-.24H2.65l-.15,0v.24l.16,0Zm9.48-.24v.24h0l.22-.05v-.24Zm-11,.18.22.05v-.24l-.22-.05Zm3.58,0h0V15.2H4.48v.24h.22Zm4.1,0H9v-.24H8.81Zm-4.42,0h0v-.24H4.2v.24h.19Zm-2.17,0,.23.05h0v-.24h0l-.23,0Zm6.87.05h.24v-.24H9.09Zm2-.24v.24h.08l.15,0v-.24l-.14,0h-.08ZM.85,15.33l.18,0,0,0v-.24h0l0,0-.17,0Zm11.58-.18v.24h0l0,0,.15,0v-.24l-.14,0h-.08Zm-8.34.22h.05v-.24H4l-.08,0h0v.24h0l.08,0h.1Zm5.27,0h.15l.08,0v-.24H9.53l-.07,0H9.38Zm2-.27v.24l.11,0h0l.08,0v-.24H11.5Zm-9.29.21.12,0v-.24l-.16,0H1.94v.24l.08,0Zm1.79,0h0v-.24H3.81l-.07,0H3.62v.24h.12l.07,0Zm5.8-.23v.24h.12l.07,0h.05v-.24H9.78l-.07,0Zm-9.07.14.08,0,0,0,.11,0v-.24h0l-.1,0,0,0L.58,15Zm12.13-.17v.23l.11,0h0l.09,0V15l-.08,0,0,0Zm-9.15.22h0v-.24h0l-.07,0h0l-.07,0h0v.24h0l.08,0h0l.07,0Zm6.38-.24v.24h.12l.06,0h.05V15h-.12l-.07,0Zm-8.28.18.23.05v-.24L1.66,15Zm10-.18v.24l.23-.05V15Zm-1.41,0v.24h.08l.07,0h.09V15h-.08l-.07,0h-.09Zm-7,.23h0V15H3.21L3.1,15h0v.24h.08l.07,0Zm3,0h.25V15H6.2Zm.87,0h.24V15H7.07Zm-.28,0H7V15H6.79Zm-.29,0h.25V15H6.5Zm5.4-.24v.24l.21-.05h0v-.24h0Zm-10.51.17h0l0,0,.17,0V15l-.15,0,0,0h0Zm4.52.05h.25V15H5.91Zm1.45,0H7.6V15H7.35Zm-1.65,0h.16V15H5.62v.24H5.7Zm1.94,0h.24V15H7.65ZM3,15.22H3V15H3l-.14,0h0v.24h.08l.11,0ZM10.5,15v.24h0l.1,0h.09v-.24h0l-.14,0Zm-5.08.22h.15V15H5.33v.24h.09Zm2.51,0h.24V15H7.93Zm-2.76,0h.12V15H5.05v.24h.12Zm3,0h.25v-.24H8.21ZM5,15.17H5v-.24H4.77v.24H5Zm5.79-.23v.24l.08,0h0l.12,0v-.24l-.12,0h0Zm-2.27,0v.24h.25v-.24H8.51Zm-5.82.23h0v-.24H2.65l-.15,0v.24l.16,0Zm9.48-.24v.24l.23-.05v-.24Zm-11,.18.22.05v-.24l-.22-.05Zm3.58,0h0v-.24H4.48v.24h.22Zm4.1,0H9v-.24H8.81Zm-4.42,0h0v-.24H4.2v.24h.19Zm-2.17,0,.23.05h0v-.24h0l-.19,0Zm6.87.05h.24v-.24H9.09Zm2-.24v.24h.08l.15,0v-.24l-.11,0h0ZM.85,15l.18,0,0,0v-.24h0l0,0-.17,0Zm11.58-.18v.24h0l0,0,.15,0V14.8l-.17,0Zm-8.34.22h.05v-.24H4l-.08,0h0v.24h0l.08,0h.1Zm5.27,0h.08l.07,0h.08v-.24H9.53l-.07,0H9.38Zm2-.27v.24l.15,0h.08v-.24H11.5ZM2,15l.16,0v-.24l-.19,0h0V15H2Zm1.83,0h0v-.24H3.81l-.07,0H3.62V15h.12l.07,0Zm5.8-.24v.24h0l.07,0h.12v-.24H9.78l-.07,0ZM.58,15l.08,0,0,0,.11,0v-.24l-.12,0,0,0H.58v0h0v.17h0Zm12.13-.17V15h0l.11,0h0l.09,0v-.1h0v0h0v-.05h0v0h0v0l-.08,0,0,0ZM3.56,15h0v-.24h0l-.07,0h0l-.07,0h0V15h0l.08,0h0l.07,0Zm6.38-.24V15h0L10,15h.12v-.24h0l-.06,0h0l-.07,0ZM1.66,15l.23.05v-.24l-.23-.05Zm10-.18V15l.23-.05v-.24Zm-1.41,0V15h.08l.07,0h.09V14.7h-.08l-.07,0h-.09Zm-7,.23h0v-.24H3.21l-.11,0h0v.24h0l.11,0Zm3,0h.25V14.7H6.2Zm.59,0H7v-.24H6.79Zm-.29,0h.25v-.24H6.5Zm.58-.24v.24h.24V14.7Zm4.82,0v.24l.21,0h0v-.24h0l0,0Zm-10.51.18h.05l0,0,.14,0V14.7l-.15,0,0,0h0Zm4.52.05h.25V14.7H5.91Zm1.45,0H7.6v-.24H7.35Zm.29,0h.24v-.24H7.65Zm-1.94,0h.16v-.24H5.62v.24H5.7Zm-2.7,0H3v-.24H2.93l-.11,0h0v.24h0l.14,0Zm7.5-.24v.24h0l.14,0h.05v-.24h0l-.14,0Zm-5.08.22h.15v-.24H5.33v.24h.09Zm2.51,0h.24v-.24H7.93Zm-2.72,0h.08v-.24H5.05v.24h.16Zm3,0h.25v-.24H8.21Zm2.57-.26v.24l.08,0h0l.12,0v-.24l-.08,0h0Zm-8.1.23h0v-.24l-.08,0h0l-.12,0v.24l.16,0Zm2.2,0H5v-.24H4.77v.24h.12Zm3.63,0h.25v-.24H8.51Zm3.65-.24v.24l.23-.05v-.24Zm-11,.18.22.05v-.24l-.22-.05Zm3.58,0h0v-.24H4.48v.24h.22Zm4.1,0H9v-.24H8.81Zm-4.42,0h0v-.24H4.2v.24h.19Zm4.7,0h.24v-.24H9.09Zm-6.65,0h0v-.24h0l-.19,0v.24l.2,0Zm8.63-.23v.24l.07,0h0l.11,0v-.24l-.11,0h0ZM.85,14.74h0l.17,0,0,0v-.24h0l-.2,0Zm11.58-.17v.24h0l0,0,.18,0v-.24l-.17,0Zm-8.34.22h.05v-.24H4.07l-.08,0H3.91v.24H4.1Zm5.27,0h.08l.07,0h.08v-.24H9.53l-.07,0H9.38Zm2-.27v.24l.15,0h.08v-.24h0ZM2,14.72l.19,0v-.24l-.23,0h0v.24H2Zm1.86,0h0v-.24H3.81l-.07,0h0l-.07,0h0v.24h.12l.07,0Zm5.8-.24v.24h0l.07,0h.12v-.24H9.78l-.07,0Zm3.06,0v.23h0l.11,0,0,0,.09,0h0v-.23l-.08,0,0,0ZM.58,14.66l.08,0,0,0,.11,0v-.24l-.12,0,0,0-.07,0Zm3,.05h0v-.24h0l-.07,0h0l-.07,0h0v.24h0l.08,0h0l.07,0Zm6.38-.24v.24h0l.06,0h0l.08,0v-.24h0l-.06,0h0l-.07,0Zm-8.28.18.23.05v-.24l-.23-.05Zm10-.18v.24l.23-.05v-.24Zm-1.41,0v.24h.08l.07,0h.09V14.4h-.08l-.07,0h-.09Zm-7,.23h0v-.24H3.21l-.11,0h0v.24h0l.11,0Zm3.55,0H7v-.24H6.79Zm-.29,0h.25v-.24H6.5Zm.58-.25v.24h.24v-.24Zm4.82,0v.24l.18,0h0v-.24h0l0,0Zm-5.69.23h.25v-.24H6.2Zm-4.81-.06h.05l0,0,.14,0v-.24l-.11,0,0,0-.07,0Zm4.52.05h.25v-.24H5.91Zm1.45,0H7.6V14.4H7.35Zm.29,0h.24v-.24H7.65Zm-1.9,0h.12V14.4H5.62v.24h.12ZM3,14.62H3v-.24H2.93l-.11,0h0v.24h0l.11,0Zm7.53-.23v.24h0l.14,0h.05v-.24h0l-.14,0Zm-5.08.22h.15v-.24H5.33v.24h.09Zm2.51,0h.24v-.24H7.93Zm-2.72,0h.08v-.24H5.05v.24h.16Zm3,0h.25v-.24H8.21Zm2.57-.26v.24l.12,0h0l.09,0V14.3l-.08,0h0Zm-8.13.22.08,0v-.24l-.08,0h0l-.12,0v.24l.12,0Zm2.23,0H5v-.24H4.77v.24h.12Zm3.63,0h.25v-.24H8.51Zm3.65-.24v.24l.23-.05v-.24Zm-11,.18.22.05v-.24l-.22-.05Zm3.51,0h.09v-.24H4.48v.24h.15Zm4.17,0H9V14.3H8.81Zm-4.42,0h0V14.3H4.2v.24h.19Zm-1.95,0h0v-.24h0l-.19,0v.24l.2,0Zm6.65-.23v.24h.24v-.24H9.09Zm2,0v.24l.07,0h0l.11,0v-.24l-.11,0h0Zm1.36,0v.24h0l0,0,.18,0v-.24h0l-.17,0ZM.85,14.45h0l.21.05v-.24h0l-.2,0Zm3.25,0h.05v-.24H4.07l-.08,0H3.91v.24H4l.08,0Zm5.27,0h.23v-.24H9.45l-.08,0Zm2-.27v.24l.18,0h.05v-.24h0Zm-9.41.19h0l.22,0v-.24l-.23-.05Zm1.91,0h0v-.24H3.81l-.07,0h0l-.07,0h0v.24h0l.07,0h0l.07,0Zm5.8-.23v.24h0l.07,0h.12V14.2H9.78l-.07,0Zm3.06,0v.24l.11,0h0l.09,0V14.2h0v0h0v-.05l-.08,0,0,0ZM.58,14.37l.08,0,0,0,.11,0V14.2l-.12,0,0,0H.58Zm3,.05h0v-.24h0l-.07,0h0l-.07,0h0v.24h0l.08,0h0l.07,0Zm6.38-.24v.24h0l.06,0h0l.08,0v-.24h0l-.06,0h0l-.07,0Zm-8.28.18.23.05v-.24h0l-.22-.05Zm10-.18v.24l.23-.05v-.24Zm-1.41,0v.24h.08l.07,0h.09v-.24h-.08l-.07,0h-.09Zm-7,.23h0v-.24H3.21l-.11,0h0v.24h0l.11,0Zm3.25,0h.25v-.24H6.5Zm.29,0H7v-.24H6.79Zm5.11-.24v.24l.18,0h0v-.24h0l0,0Zm-10.51.18.08,0,0,0,.1,0v-.24l-.08,0,0,0-.11,0Zm4.52,0h.25v-.24H5.91Zm1.45,0H7.6V14.1H7.35Zm-.28,0h.24v-.24H7.07Zm-.87,0h.25v-.24H6.2Zm-.46,0h.12V14.1H5.62v.24h.12ZM3,14.33H3V14.1H2.93l-.11,0h0v.24h0l.11,0Zm7.53-.23v.24h0l.14,0h.05v-.24h0l-.14,0Zm-2.85,0v.24h.24v-.24H7.65Zm-2.19.22h.12v-.24H5.33v.24h.12Zm2.47,0h.24v-.24H7.93Zm-2.72,0h.08v-.24H5.05v.24h.16Zm3,0h.25v-.24H8.21Zm2.57-.26v.24l.12,0h0l.09,0V14l-.08,0h0Zm-8.13.22.08,0v-.24l-.08,0h0L2.5,14v.24l.12,0Zm2.23,0H5V14H4.77v.24h.12Zm3.63,0h.25V14H8.51ZM12.17,14v.24l.23-.05V14Zm-11,.18.22.05V14L1.12,14Zm3.51,0h.09V14H4.48v.24h.15Zm4.17,0H9V14H8.81Zm-4.42,0h0V14H4.2v.24h.19Zm-1.95,0h0V14h0l-.19,0v.24l.2,0ZM11.07,14v.24l.07,0h0l.11,0V14l-.11,0h0Zm-2,0v.24h.24V14H9.09Zm3.35,0v.24h0l0,0,.18,0v-.23h0ZM.85,14.15h0l.21.05V14h0l-.2,0Zm3.25,0h.05V14H4.07l-.08,0H3.91v.24H4l.08,0Zm5.27,0h0l.06,0h.16v-.24H9.38Zm2-.27v.24l.23-.05v-.24h0Zm-9.41.18.23.05v-.24l-.23-.05Zm1.91,0h0v-.24H3.81l-.07,0h0l-.07,0h0v.24h0l.07,0h0l.07,0Zm5.8-.23v.24h0l.07,0h.12V13.9H9.65Zm-9.07.14.08,0,0,0,.11,0V13.9l-.12,0,0,0H.58Zm12.13-.18v.24l.11,0h0l.09,0V14h0v0h0v0h0v-.1l-.08,0h0Zm-9.15.23h0v-.24h0l-.07,0h0l-.07,0h0v.24h0l.08,0h0l.07,0Zm6.38-.24v.24h0l.06,0h0l.08,0v-.24h0l-.06,0h0l-.07,0Zm1.69,0v.24l.23-.05v-.24Zm-10,.18.22.05h0v-.24h0l-.19,0Zm8.55-.21v.24h.24v-.24h0l-.1,0h-.09Zm-7,.22h0v-.24l-.08,0h0l-.07,0h0v.24h0l.11,0Zm3.25,0h.25v-.24H6.5Zm.29,0H7v-.24H6.79Zm5.11-.24v.24L12,14l0,0h0v-.24l-.07,0h0ZM1.39,14l.12,0,0,0,.07,0v-.24h0l0,0-.14,0ZM5.91,14h.25v-.24H5.91Zm1.45,0H7.6v-.24H7.35Zm-.28,0h.24v-.24H7.07Zm-.87,0h.25v-.24H6.2ZM.05,13.91.5,14V9.41L.05,9.28Zm13-4.5V14l.45-.14V9.28ZM5.74,14h.12v-.24H5.62V14h.12ZM3,14H3v-.24H2.93l-.11,0h0V14h0l.11,0Zm7.53-.23V14h0l.14,0h.05v-.24h0l-.14,0Zm-2.85,0V14h.24v-.24H7.65ZM5.46,14h.12v-.24H5.33V14h.12Zm2.47,0h.24v-.24H7.93ZM5.21,14h.08v-.24H5.05V14h.16Zm3,0h.25v-.24H8.21Zm2.57-.26V14l.12,0h0l.09,0v-.24l-.08,0h0ZM2.65,14l.08,0v-.24l-.08,0h0l-.12,0v.24l.12,0Zm2.23,0H5v-.24H4.77V14h.12Zm3.63,0h.25v-.24H8.51Zm3.65-.24V14l.23-.05V13.7Zm-11,.18.22.05v-.24l-.22-.05Zm3.51,0h.09v-.24H4.48v.24h.15Zm4.17,0H9v-.24H8.81Zm-4.42,0h0v-.24H4.2v.24h.19Zm-1.95,0h0V13.7H2.37l-.15,0v.24l.2,0Zm8.63-.23v.24l.07,0h0l.11,0v-.24l-.07,0h0Zm-2,0v.24h.24v-.24H9.09Zm-8.24.16h0l.21.05v-.23h0l-.2,0Zm11.58-.18v.23h0l.21,0h0v-.23h0Zm-8.34.22h.05v-.24h0l-.07,0H3.91v.24H4l.08,0Zm5.27-.23v.24h.23v-.24H9.38Zm2,0v.24l.23-.05V13.6Zm-9.41.18.23.05v-.24l-.23-.05Zm1.91,0h0v-.24H3.7l-.07,0h0v.24h0l.07,0h0l.07,0Zm5.8-.23v.24h0l.07,0h.12v-.24H9.65Zm-9.07.14.08,0,0,0,.11,0v-.24l-.08,0,0,0-.1,0Zm12.13-.18v.24l.11,0h0l.09,0v-.18h0v-.05h0l-.07,0,0,0Zm-9.15.23h0V13.6H3.42l-.07,0h0v.24h0l.08,0h0l.07,0Zm6.38-.24v.24h0l.06,0h0l.08,0v-.24h0l-.06,0h0l-.07,0Zm1.69,0v.24l.23-.05v-.24Zm-9.74.23h0v-.24l-.09,0h0l-.12,0v.24l.19,0Zm8.34-.26v.24h.08l.11,0h.05v-.24h0l-.1,0h-.09Zm-7,.22.08,0v-.24l-.08,0h0l-.07,0h0v.24h0l.07,0Zm3.29,0h.25v-.24H6.5Zm.29,0H7v-.24H6.79Zm5.11-.24v.24l.11,0,0,0,.09,0v-.24l-.11,0,0,0ZM1.39,13.7l.15,0,0,0h0v-.24h0l0,0-.18,0Zm4.52.05h.25v-.24H5.91Zm1.45,0H7.6v-.24H7.35Zm-.28,0h.24v-.24H7.07Zm-.87,0h.25v-.24H6.2Zm-.46,0h.12v-.24H5.62v.24h.12ZM3,13.74H3v-.24H2.93l-.11,0h0v.24h0l.11,0Zm7.53-.23v.24h0l.14,0h.05v-.24h0l-.14,0H10.5Zm-2.85,0v.24h.24V13.5H7.65Zm-2.19.22h.12V13.5H5.33v.24h.12Zm2.47,0h.24v-.24H7.93Zm-2.72,0h.08v-.24H5.05v.24h.16Zm3,0h.25v-.24H8.21Zm2.57-.26v.24l.12,0h0l.09,0v-.24h-.09Zm-8.13.22.08,0v-.24l-.08,0h0l-.12,0v.24l.12,0Zm2.23,0H5v-.24H4.77v.24h.12Zm3.63,0h.25v-.24H8.51Zm3.65-.24v.24l.23-.05V13.4Zm-11,.18.22.05v-.24l-.22-.05Zm3.51,0h.09v-.24H4.48v.24h.15Zm4.17,0H9v-.24H8.81Zm-4.42,0h0v-.24H4.2v.24h.19Zm-2,0h0v-.24H2.37l-.15,0v.24l.16,0Zm8.66-.23v.24l.11,0h0l.08,0v-.24l-.08,0h0Zm-2,0v.24h.24v-.24H9.09Zm-8.24.16h0l.21.05v-.24l-.18,0,0,0Zm11.58-.18v.23h0l.21,0h0v-.23h0Zm-8.37.21.07,0h0v-.24h0l-.07,0H3.91v.24h.16Zm5.3-.23v.24h.23v-.24H9.38Zm2,0v.24l.23-.05V13.3Zm-9.41.18.23.05v-.24l-.23-.05Zm7.71-.19v.24h.24v-.24h0l-.07,0H9.65Zm-5.84.23h.05v-.24H3.7l-.07,0h0v.24h0l.07,0h.11ZM.58,13.49h0l.1,0,0,0,.07,0v-.24l-.08,0,0,0-.1,0Zm12.13-.17v.24l.11,0,0,0,.09,0v-.23h0l-.11,0h0Zm-9.19.22h0v-.24H3.49l-.07,0H3.33v.24h0l.08,0h.1Zm6.41-.23v.24h.15l.08,0v-.24h0l-.06,0H9.94Zm1.69.23h0l.22,0v-.24l-.17,0h-.05Zm-9.81,0,.09,0v-.24l-.15,0h0l0,0v.25l.12,0Zm8.41-.24v.24h.08l.11,0h.05v-.24h0l-.1,0h-.09Zm-7,.22.08,0v-.24h0l-.07,0h0l-.07,0h0v.24h0l.07,0Zm3.29,0h.25v-.24H6.5Zm.29,0H7v-.24H6.79Zm5.11-.24v.24l.07,0h0l.12,0v-.24l-.14,0h-.08Zm-10.51.18.19,0,0,0v-.24l-.23-.05Zm4.52.05h.25v-.24H5.91Zm1.45,0H7.6v-.24H7.35Zm-.28,0h.24v-.24H7.07Zm-.87,0h.25v-.24H6.2Zm-.46,0h.12v-.24H5.62v.24h.12ZM3,13.44H3v-.24H2.93l-.14,0h0v.24h0l.11,0Zm7.53-.23v.24h.09l.15,0v-.24h0l-.14,0H10.5Zm-2.85,0v.24h.24v-.24H7.65Zm-2.19.22h.12v-.24H5.33v.24h.12Zm2.47,0h.24v-.24H7.93Zm-2.72,0h.08v-.24H5.05v.24h.16Zm3,0h.25v-.24H8.21Zm2.57-.26v.24l.16,0H11v-.24h-.09Zm-8.13.22.08,0v-.24l-.12,0h0l-.09,0v.24l.12,0Zm2.23,0H5v-.24H4.77v.24h.12Zm3.63,0h.25v-.24H8.51Zm3.65-.24v.24l.23-.05v-.24Zm-11,.18h0l.2,0v-.24l-.22-.05Zm3.51,0h.09v-.24H4.48v.24h.15Zm4.17,0H9v-.24H8.81Zm-4.42,0h0v-.24H4.2v.24h.19Zm-2,0h0v-.24H2.37l-.15,0v.24l.16,0Zm6.68-.23v.24h.24v-.24H9.09Zm2,0v.24l.11,0h0l.08,0v-.24l-.08,0h0ZM.85,13.27h0l0,0,.17,0v-.24L.9,13l0,0Zm11.58-.17v.23h0l.21,0h0V13h0Zm-8.37.21.07,0h0v-.24h0l-.07,0H3.91v.24h.16Zm5.3-.23v.24h.23v-.24H9.38Zm2,0v.24l.23-.05V13Zm-9.41.18.23.05v-.24L1.94,13Zm7.71-.19v.24h.16l.06,0h0V13h0l-.07,0H9.65Zm-5.84.23h.05v-.24H3.7l-.07,0h0v.24h0l.07,0h.11ZM.58,13.19h0l.1,0,0,0,.07,0V13L.72,13l0,0-.1,0ZM12.71,13v.24l.07,0h0l.11,0h0V13h0l-.11,0h0Zm-9.19.22h0V13H3.49l-.07,0H3.33v.24h.08l.07,0ZM9.94,13v.24h0l.06,0h0l.08,0V13h-.12L10,13Zm-8.23.19h0l.15,0V13l-.23-.05v.24h0Zm9.91-.2v.24h0l.18,0V13l-.14,0h-.08Zm-1.41,0v.24h.08l.11,0h.05v-.24h0l-.1,0h-.09Zm-7,.22.07,0h0V13h0l-.07,0h0l-.07,0h0v.24h0l.07,0Zm3.29,0h.25v-.24H6.5Zm.29,0H7v-.24H6.79Zm5.11-.24v.24H12l.15,0v-.24l-.17,0h-.05ZM6,13.17h.2v-.24H5.91v.24H6Zm1.4,0H7.6v-.24H7.35Zm-.28,0h.24v-.24H7.07Zm-.87,0h.25v-.24H6.2Zm-4.81-.06.23.05v-.24l-.23-.05Zm1.58,0H3v-.24H2.93l-.14,0h0v.24h0l.14,0Zm7.53-.23v.24h.09l.15,0v-.24h0l-.14,0H10.5Zm-2.85,0v.24h.24v-.24H7.65Zm-2,.23h.25v-.24H5.62Zm-.16,0h.12v-.24H5.33v.24h.12Zm2.47,0h.24V12.9H7.93Zm-2.72,0h.08v-.24H5.05v.24h.16Zm3,0h.25v-.24H8.21Zm2.57-.26v.24l.16,0H11v-.24h-.09Zm-8.17.21.12,0v-.24l-.12,0h0l-.09,0v.24l.09,0Zm2.3,0H5v-.24H4.77v.24h.15Zm3.59,0h.25v-.24H8.51Zm3.65-.24v.24l.23-.05v-.24ZM1.12,13h0l.2,0v-.24l-.22-.05Zm3.51,0h.09v-.24H4.48v.24h.15Zm4.17,0H9v-.24H8.81Zm-4.42,0h0v-.24H4.2V13h.19Zm-2,0h0v-.24l-.09,0h0l-.12,0V13l.16,0Zm6.68-.23v.24h.24v-.24H9.09Zm2,0v.24l.11,0h0l.08,0v-.24h-.08ZM.85,13h0l0,0,.17,0V12.8l-.18,0,0,0Zm11.58-.18V13h0l.21,0h0v-.24h0ZM4.07,13l.07,0h0v-.24H3.91V13h.16Zm5.3-.23V13h.23v-.24H9.38Zm2,0V13l.23-.05v-.24ZM1.94,13l.23.05v-.24l-.23-.05Zm7.71-.19V13h.16l.07,0h0v-.24h0l-.07,0H9.65ZM3.81,13h.05v-.24H3.7l-.07,0h0V13h0l.07,0h.11ZM.58,12.9h0l.1,0,0,0,.07,0v-.24l-.08,0,0,0-.1,0Zm12.13-.17V13l.07,0h0l.11,0h0v-.23h0l-.11,0h0Zm-9.19.22h0v-.24H3.49l-.07,0H3.33v.24h.08l.07,0Zm6.41-.23V13h0l.06,0h0l.08,0v-.24h0l-.06,0h0l-.07,0Zm-8.28.17.23.05V12.7l-.23-.06Zm10-.18v.24h.08l.15,0v-.24h-.08Zm-1.41,0v.24h.08l.11,0h.05v-.24h0l-.06,0h0Zm-7,.22.07,0h0v-.24h0l-.07,0h0l-.11,0h0v.24h0l.07,0Zm3.29,0h.25v-.24H6.5Zm.29,0H7v-.24H6.79Zm5.11-.25v.24h0l.19,0v-.24ZM6,12.87h.2v-.24H5.91v.24H6Zm1.4,0H7.6v-.24H7.35Zm-.28,0h.24v-.24H7.07Zm-.87,0h.25v-.24H6.2Zm-4.81-.06.23.05v-.24l-.23-.05Zm1.58,0H3v-.24H2.93l-.14,0h0v.24h0l.14,0Zm7.53-.23v.24h.09l.15,0v-.24h0l-.14,0H10.5Zm-4.88.23h.25v-.24H5.62Zm2,0h.24v-.24H7.65Zm-2.19,0h.12v-.24H5.33v.24h.12Zm2.47,0h.24V12.6H7.93Zm.28,0h.25v-.24H8.21Zm-3,0h.08V12.6H5.05v.24h.16Zm5.58-.25v.24l.16,0H11v-.24h-.09Zm-8.17.21.12,0v-.24l-.12,0h0l-.09,0v.24l.09,0Zm2.3,0H5v-.24H4.77v.24h.15Zm3.59,0h.25v-.24H8.51Zm3.65-.24v.24l.21-.05h0v-.23Zm-11,.18h0l.2,0v-.24l-.18,0,0,0Zm3.51,0h.09v-.24H4.48v.24h.15Zm4.17,0H9v-.24H8.81Zm-4.39,0h0v-.24H4.2v.24h.22Zm-2.05,0,.08,0v-.24l-.09,0h0l-.12,0v.24l.12,0Zm8.7-.22v.24l.14,0h.08v-.24h-.08Zm-2,0v.24h.24V12.5H9.09Zm-8.24.15h0l0,0,.17,0v-.24l-.18,0,0,0Zm11.58-.18v.24l.18,0,0,0h0v-.24h0Zm-8.3.23h0V12.5H3.91v.24h.23Zm5.24-.24v.24h.23v-.24H9.38Zm2,0v.24l.23-.05v-.24Zm-9.41.18.23.05v-.24l-.23-.05Zm7.71-.19v.24h.16l.07,0h0v-.24h0l-.07,0H9.65Zm-5.84.22h.05v-.24H3.7l-.07,0h0v.24h0l.07,0h.11ZM.58,12.6h0l.1,0,0,0,.07,0v-.24l-.08,0,0,0-.1,0v0h0Zm12.13-.17v.24l.07,0h0l.11,0h0v-.22h0l-.11,0h0Zm-9.19.22h0v-.24H3.49l-.07,0H3.33v.24h.08l.07,0Zm6.41-.23v.24h0l.06,0h0l.08,0v-.24h0l-.06,0H9.94Zm-8.28.17.23.05v-.24l-.23-.05Zm10-.18v.24l.14,0h.08v-.24Zm-1.41,0v.24l.08,0h.16v-.24h0l-.06,0h0Zm-7,.22.07,0h0v-.24h0l-.07,0h0l-.11,0h0v.24h0l.1,0Zm3.29,0h.25v-.25H6.5Zm.29,0H7v-.24H6.79Zm.28,0h.24v-.24H7.07Zm-.87,0h.25v-.24H6.2Zm1.15-.24v.24H7.6v-.24H7.35Zm4.54,0v.24l.23-.05v-.24ZM6,12.58h.2v-.24H5.91v.24H6Zm-4.57-.05.23.05v-.24l-.23-.05Zm1.58,0H3v-.24l-.08,0h0l-.11,0h0v.24h0l.14,0Zm7.53-.23v.24h.09l.15,0v-.24h0l-.14,0H10.5Zm-4.88.23h.25v-.24H5.62Zm2,0h.24v-.24H7.65Zm-2.19,0h.12v-.24H5.33v.24h.12Zm2.47,0h.24v-.24H7.93Zm.28,0h.25v-.24H8.21Zm-3,0h.08v-.24H5.05v.24h.16Zm5.58-.25v.24l.16,0H11v-.24h-.09Zm-8.17.21.12,0v-.24l-.12,0h0l-.09,0v.24l.09,0Zm2.3,0H5v-.24H4.77v.24h.15Zm3.59,0h.25v-.24H8.51Zm3.65-.24v.24l.21-.05h0v-.23Zm-11,.17h0l0,0,.17,0v-.24l-.18,0,0,0Zm3.51,0h.09v-.24H4.48v.24h.15Zm4.17,0H9v-.24H8.81Zm-4.39,0h0v-.24H4.2v.24h.22Zm-2.05,0,.08,0v-.24l-.09,0h0l-.12,0v.24l.12,0Zm8.7-.22v.24l.14,0h.08v-.24h-.08Zm-2,0v.24h.24v-.24H9.09Zm-8.24.15h0l0,0,.17,0v-.24l-.18,0,0,0Zm11.58-.18v.24l.18,0,0,0h0v-.24h0Zm-8.3.23h0V12.2H3.91v.24h.23Zm5.24-.23v.24h.23v-.24H9.38Zm2,0v.24l.23-.05v-.24Zm-9.41.18.23.05v-.24l-.23-.05Zm7.71-.19v.24h.16l.07,0h0v-.24h0l-.07,0H9.65Zm-5.84.23h.05v-.24H3.77l-.07,0H3.62v.24h0l.07,0h.11ZM.58,12.31h0l.1,0,0,0,.07,0v-.24l-.08,0,0,0-.1,0v.1h0v0h0Zm12.13-.17v.24l.07,0h0l.11,0h0v-.23h0l-.11,0,0,0Zm-9.19.22h0v-.24H3.49l-.07,0H3.33v.24h.08l.07,0Zm6.41-.23v.24h.15l.08,0v-.24l-.07,0H9.94Zm-8.28.17.23.05v-.24l-.23-.05Zm10-.18v.24l.23-.05v-.24Zm-1.41,0v.24l.08,0h0l.07,0h.05v-.24h0l-.06,0h0l-.06,0Zm-7,.22.07,0h0v-.24h0l-.07,0h0l-.11,0h0v.24h0l.1,0Zm3.86,0h.24v-.24H7.07Zm-.28,0H7v-.24H6.79Zm-.29,0h.25v-.24H6.5Zm-.3,0h.25v-.24H6.2Zm1.15-.24v.24H7.6V12H7.35Zm4.54,0v.24l.23-.05V12ZM6,12.29h.2v-.24H5.91v.24H6Zm-4.57-.05.23.05v-.24L1.39,12Zm1.54,0,.08,0V12l-.08,0h0l-.11,0h0v.24h0l.11,0ZM10.5,12v.24h.09l.15,0V12h0l-.14,0H10.5Zm-4.88.23h.25V12H5.62Zm2,0h.24V12H7.65Zm-2.19,0h.12V12H5.33v.24h.12Zm2.47,0h.24V12H7.93Zm-2.69,0h0V12H5.05v.24h.19Zm3-.23v.24h.25V12H8.21Zm2.57,0v.24l.16,0H11v-.24H11Zm-8.17.21.12,0V12l-.12,0h0l-.09,0v.24l.09,0Zm2.3,0H5V12H4.77v.24h.15Zm3.59,0h.25V12H8.51ZM12.17,12v.24l.21-.05h0v-.24h0l0,0Zm-11,.18h0l0,0,.17,0V12l-.18,0,0,0Zm3.51,0h.09V12H4.48v.24h.15Zm4.17,0H9v-.24H8.81Zm-4.39,0h0v-.24H4.2v.24h.22Zm-2.05,0,.08,0v-.24l-.12,0h0l-.08,0v.24l.12,0Zm8.7-.22v.24l.14,0h.08V11.9h-.08Zm-2,0v.24h.24v-.24H9.09Zm-8.24.15h0l0,0,.17,0v-.24l-.15,0,0,0h0Zm11.58-.18v.24l.18,0h.05v-.24h0Zm-8.3.23h0v-.24H3.91v.24h.23Zm5.24-.24v.24h.23v-.24H9.38Zm2,0v.24l.23-.05v-.24Zm-9.41.18.23.05v-.24l-.23-.05Zm1.87,0h.05v-.24H3.77l-.07,0H3.62v.24H3.7l.07,0Zm5.84,0h.16l.06,0h0v-.24h0l-.07,0H9.65ZM.58,12h0l.1,0,0,0,.07,0v-.24H.76l0,0-.14,0v.12h0v0h0Zm12.13-.17v.24l.07,0h0l.11,0h0v0h0v-.06h0v-.12h0v0h0l-.11,0,0,0Zm-9.19.22h0v-.24H3.49l-.07,0H3.33V12h.08l.07,0Zm6.41-.23v.24h.15l.08,0V11.8h-.08l-.07,0H9.94ZM1.66,12l.23.05v-.24l-.23-.06Zm10-.18v.24l.23-.05v-.24ZM3.21,12l.07,0h0v-.24h0l-.07,0h0l-.11,0h0V12h0l.1,0Zm7,0h0l.07,0h0l.07,0h.05v-.24h0l-.06,0h0l-.06,0h0ZM7.07,12h.24v-.24H7.07Zm-.28,0H7v-.24H6.79ZM6.5,12h.25v-.24H6.5Zm-.3,0h.25v-.24H6.2Zm1.15-.25V12H7.6v-.24H7.35Zm4.54,0V12l.23-.05v-.24ZM6,12h.2v-.24H5.91V12H6Zm-4.57-.05.23.05v-.24l-.23-.05Zm1.54,0L3,12v-.24l-.08,0h0l-.11,0h0v.24h0l.11,0Zm7.57-.22V12h.09l.15,0v-.24l-.11,0h0ZM5.62,12h.25v-.24H5.62Zm2,0h.24v-.24H7.65Zm.28,0h.24v-.24H7.93ZM5.49,12h.09v-.24H5.33V12h.16Zm-.25,0h0v-.24H5.05v.24h.19Zm3-.24V12h.25V11.7H8.21Zm2.57,0v.24l.19,0H11v-.24H11l-.17,0Zm-8.17.21.12,0V11.7l-.15,0H2.5v.24l.09,0Zm2.3,0H5V11.7H4.77v.24h.15Zm3.59,0h.25v-.24H8.51Zm3.65-.24v.24l.18,0,.05,0v-.24h0l0,0Zm-11,.18h0l0,0,.17,0v-.24l-.15,0,0,0h0Zm3.51,0h.09v-.24H4.48v.24h.15Zm4.17,0H9v-.24H8.81Zm-4.39,0h0v-.24H4.2v.24h.22Zm-2.08,0,.12,0v-.24l-.12,0h0l-.08,0v.24l.09,0Zm6.75-.21v.24h.24v-.24H9.09Zm2,0v.24l.14,0h.08V11.6h0ZM.85,11.8H.9l0,0,.14,0v-.24l-.15,0,0,0h0Zm11.58-.18v.24l.18,0,0,0h0v-.24h0Zm-8.3.23h0v-.24H3.91v.24h.23Zm5.24-.24v.24h.23v-.24H9.38Zm2,0v.24l.23-.05v-.24Zm-9.41.18.23.05v-.24l-.23-.05Zm1.87,0h.05v-.24H3.77l-.07,0H3.62v.24H3.7l.07,0Zm5.84,0h.24v-.24H9.81l-.07,0H9.65ZM.58,11.72h0l.14,0,0,0h0v-.24H.76l0,0-.14,0Zm12.13-.17v.24l.07,0,0,0,.11,0h0v-.23h0l-.11,0h0Zm-9.19.22h0v-.24H3.49l-.07,0H3.33v.24h.08l.07,0Zm6.41-.23v.24H10l.07,0h.08v-.24h-.08l-.07,0H9.94Zm-8.28.17.23.05v-.24l-.23-.05Zm10-.18v.24l.23-.05v-.24Zm-8.41.19.07,0h0V11.5h0l-.07,0h0l-.11,0h0v.24h0l.1,0Zm7,0h0l.07,0h.16v-.24h0l-.1,0h0l-.06,0h0Zm-4,0h.25v-.24H6.2Zm.87,0h.24v-.24H7.07Zm-.28,0H7v-.24H6.79Zm-.29,0h.25v-.24H6.5Zm5.4-.24v.24l.23-.05v-.24Zm-10.51.18.23.05v-.24l-.23-.05Zm4.52,0h.25v-.24H5.91Zm1.45,0H7.6v-.24H7.35Zm-4.42,0,.08,0v-.24l-.08,0h0l-.11,0h0v.24h0l.11,0Zm7.57-.22v.24l.08,0h0l.12,0v-.24l-.11,0h0Zm-4.88.23h.25v-.24H5.62Zm2,0h.24v-.24H7.65Zm.28,0h.24v-.24H7.93Zm-2.44,0h.09v-.24H5.33v.24h.16Zm-.25,0h0v-.24H5.05v.24h.19Zm3-.23v.24h.25V11.4H8.21Zm-5.63.19.15,0v-.24l-.15,0H2.5v.24h.09Zm2.33,0H5V11.4H4.77v.24h.15Zm5.86,0h0l.17,0H11v-.24H11l-.17,0h0Zm-2.27,0h.25v-.24H8.51Zm3.65-.24v.24l.18,0,.05,0v-.24h0l0,0Zm-11,.17h0l0,0,.13,0V11.4l-.15,0,0,0h0Zm3.51,0h.09v-.24H4.48v.24h.15Zm4.17,0H9v-.24H8.81Zm-4.39,0h0v-.24H4.2v.24h.22Zm-2.08,0,.12,0v-.24l-.12,0h0l-.08,0v.24l.09,0Zm6.75-.21v.24h.24v-.24H9.09Zm2,0v.24l.18,0h0v-.24h0ZM.85,11.51H.9l0,0,.14,0v-.24l-.15,0,0,0h0Zm11.58-.18v.24l.18,0h.05v-.24h0l0,0Zm-8.3.23h0v-.24H3.91v.24h.23Zm5.24-.24v.24h.23v-.24H9.38Zm2,0v.24l.23-.05v-.24Zm-9.41.18.23.05V11.3l-.23-.05Zm1.87,0h.05v-.24H3.77l-.07,0H3.62v.24H3.7l.07,0Zm5.84,0h.08l.07,0h.09v-.24H9.81l-.07,0H9.65ZM.58,11.43h0l.14,0,0,0h0v-.24H.76l0,0-.1,0,0,0Zm12.13-.17v.24l.07,0h0l.11,0h0v-.24h0l0,0-.1,0h-.08Zm-9.19.22h0v-.24H3.49l-.07,0H3.33v.24h.08l.07,0Zm6.41-.23v.24H10l.07,0h.08v-.24h-.08l-.07,0H9.94Zm-8.28.17.23.05v-.24l-.23-.05Zm10-.18v.24l.23-.05v-.24Zm-8.41.19.07,0h0v-.24h0l-.11,0h0l-.07,0h0v.24h0l.1,0Zm7,0h0l.07,0h0l.1,0h0v-.24h0l-.1,0h-.13Zm-4,0h.25v-.24H6.2Zm.87,0h.24v-.24H7.07Zm-.28,0H7v-.24H6.79Zm-.29,0h.25v-.24H6.5Zm5.4-.24v.24l.23-.05v-.24Zm-10.51.18.23.05v-.24l-.23-.05Zm4.52,0h.25v-.24H5.91Zm1.45,0H7.6v-.24H7.35Zm-4.42,0,.08,0v-.24l-.08,0h0l-.11,0v.24h0l.11,0Zm7.57-.22v.24l.08,0h0l.12,0v-.24l-.11,0h0Zm-4.88.23h.25v-.24H5.62Zm2,0h.24v-.24H7.65Zm.28-.25v.24h.24v-.24H7.93Zm-2.44.24h.09v-.24H5.33v.24h.16Zm-.25,0h0v-.24H5.05v.24h.19Zm3-.23v.24h.25v-.24H8.21Zm-5.63.19.15,0v-.24h0l-.14,0H2.5v.24h.09Zm2.33,0H5v-.24H4.77v.24h.15Zm5.86,0h0l.17,0H11v-.24h0l-.21,0h0Zm-2.27,0h.25v-.24H8.51Zm3.65-.24v.24l.18,0,.05,0V11h0l0,0Zm-11,.18h0l0,0,.13,0v-.24l-.15,0,0,0h0Zm3.55,0h0v-.24H4.48v.24h.19Zm4.13,0H9v-.24H8.81Zm-4.39,0h0v-.24H4.2v.24h.22Zm-2.08,0,.12,0v-.24L2.3,11H2.22v.24l.09,0Zm8.74-.21v.24l.18,0h0V11h0Zm-2,0v.24h.24V11H9.09Zm-8.24.15H.9l0,0,.14,0V11L.93,11l0,0h0ZM12.44,11v.24l.14,0h.08V11h0l0,0Zm-8.3.23h0V11H3.91v.24h.23ZM9.38,11v.24h.23V11h0L9.5,11H9.38Zm2,0v.24l.23-.05v-.24Zm-9.41.18.23.05V11l-.23-.05Zm1.87,0h.05V11H3.77L3.7,11H3.62v.24H3.7l.07,0Zm5.84,0h.08l.07,0h.09V11H9.81l-.07,0H9.65Zm-9.07-.1h0l0,0,.1,0,0,0h0V11H.76l0,0-.1,0,0,0h0v0h0ZM12.71,11v.24h0l0,0,.11,0,.05,0V11h0v0h0l0,0-.1,0h-.08ZM9.94,11v.24H10l.07,0h.08v-.24h-.08l-.07,0H9.94Zm-6.41.23h0V11H3.49l-.07,0H3.33v.24h.08l.07,0Zm-1.86-.06.23.05v-.24l-.23-.06Zm10-.18v.24l.23-.05v-.24Zm-8.45.19.11,0h0v-.24h0l-.11,0h0l-.07,0h0v.24h0l.07,0Zm7,0h0l.07,0h0l.1,0h0v-.24h0l-.1,0h0l-.06,0h0Zm-4,0h.25v-.24H6.2Zm.87,0h.24v-.24H7.07Zm-.28,0H7v-.24H6.79Zm-.29,0h.25v-.24H6.5Zm5.4-.24v.24l.23-.05v-.24Zm-10.51.18.23.05v-.24l-.23-.05Zm4.52,0h.25v-.24H5.91Zm1.45,0H7.6v-.24H7.35Zm-4.42,0,.08,0v-.24l-.08,0h0l-.11,0v.24l.12,0Zm7.57-.22v.24l.08,0h0l.12,0v-.24l-.11,0h0Zm-4.88.23h.25v-.24H5.62Zm2,0h.24v-.24H7.65Zm.28-.25v.24h.24v-.24H7.93Zm-2.44.23h.09v-.24H5.33v.24h.16Zm-.25,0h0v-.24H5.05v.24h.19Zm3-.24v.24h.25v-.24H8.21ZM4.92,11H5v-.24H4.77V11h.15ZM2.59,11l.14,0h0v-.24h0l-.14,0H2.5V11h.09Zm8.2,0h0L11,11h0v-.24h0l-.21,0h0Zm-2.27,0h.25v-.24H8.51Zm3.65-.24V11l.18,0,.05,0v-.23h-.07ZM1.12,11h0l0,0,.13,0v-.24l-.11,0,0,0H1.12Zm3.55,0h0v-.24H4.48V11h.19Zm4.13,0H9v-.24H8.81ZM4.42,11h0v-.24H4.2V11h.22ZM2.3,11l.15,0v-.24l-.16,0H2.22V11H2.3Zm8.77-.2V11l.18,0h0v-.24h0Zm-2,0V11h.24v-.24H9.09Zm-8.24.15H.9l0,0,.14,0v-.24l-.12,0,0,0-.07,0Zm11.58-.18V11l.14,0h.08v-.24h0l0,0ZM4.14,11h0v-.24H4l-.08,0h0v.24h.23Zm5.24-.24V11h.12l.07,0h.05V10.7h0l-.06,0H9.38Zm2,0v.24l.23-.05v-.24Zm-9.41.18.23.05v-.24l-.23-.05Zm1.87,0h.05V10.7H3.77l-.07,0H3.62v.24H3.7l.07,0Zm5.84,0h.08l.07,0h.09v-.24H9.65Zm-9.07-.1h0l0,0,.1,0,0,0h0v-.24H.76l0,0-.1,0,0,0v.2h0v0h0Zm12.13-.17v.24h.07l.11,0,.05,0v0h0v0h0V10.6h0l-.1,0h-.08Zm-2.77,0v.24H10l.07,0h.08v-.24h-.08l-.07,0H9.94Zm-6.41.23h0v-.24H3.49l-.07,0H3.33v.24h.08l.07,0Zm-1.86-.06.23.05v-.24l-.23-.05Zm10-.18v.24l.23-.05v-.24Zm-8.45.19.11,0h0v-.24h0l-.07,0h0l-.07,0h0v.24h0l.07,0Zm7,0h0l.07,0h0l.1,0h0v-.24h0l-.1,0h0l-.06,0h0Zm-4,0h.25v-.24H6.2Zm.87,0h.24v-.24H7.07Zm-.28,0H7v-.24H6.79Zm-.29,0h.25v-.24H6.5Zm5.4-.24v.24l.23-.05v-.24Zm-10.51.18.23.05v-.24l-.23-.05Zm4.52,0h.25v-.24H5.91Zm1.45,0H7.6v-.24H7.35Zm-4.42,0,.08,0v-.24l-.08,0h0l-.11,0v.24l.12,0Zm7.57-.22v.24l.08,0h0l.12,0v-.24l-.11,0h0Zm-4.88.23h.25v-.24H5.62Zm2,0h.24v-.24H7.65Zm.28-.25v.24h.24v-.24H7.93Zm-2.44.23h.09v-.24H5.33v.24h.16Zm-.25,0h0v-.24H5.05v.24h.19Zm3-.24v.24h.25v-.24H8.21Zm-3.29.21H5v-.24H4.77v.24h.15Zm-2.33,0,.14,0h0v-.24h0l-.14,0H2.5v.24h.09Zm8.2,0h0l.21,0h0v-.24h0l-.21,0h0Zm-2.27,0h.25V10.5H8.51Zm3.65-.24v.24l.14,0h.08v-.24h-.07Zm-11,.18.08,0,0,0,.1,0v-.24l-.11,0,0,0-.07,0Zm3.55,0h0V10.5H4.48v.24h.19Zm4.13,0H9v-.24H8.81Zm-4.39,0h0v-.24H4.2v.24h.22Zm-2.12,0,.15,0v-.24l-.16,0H2.22v.24H2.3Zm8.77-.2v.24l.23,0v-.24h0Zm-2,0v.24h.24v-.24H9.09Zm-8.24.15.08,0,0,0,.11,0v-.24l-.12,0,0,0-.07,0Zm11.58-.18v.24l.14,0h.08v-.24h0l0,0Zm-8.3.23h0v-.24H4l-.08,0h0v.24H4l.08,0h.11Zm5.24-.24v.24h.12l.07,0h.05v-.24H9.49l-.07,0Zm2,0v.24l.23-.05v-.24Zm-9.41.18.23.05v-.24l-.23-.05Zm1.87,0h.05V10.4H3.62v.24H3.7l.07,0Zm5.84,0h.08l.07,0h.09v-.24H9.65Zm-9.07-.1h0l0,0,.1,0,0,0h0v-.24H.76l0,0-.1,0,0,0Zm12.13-.17v.24h.07l.11,0,.05,0v0h0v-.22h0l-.1,0h-.08Zm-2.77,0v.24H10l.07,0h.08v-.24h-.08l-.07,0H9.94Zm-6.41.23h0v-.24h0l-.07,0h0l-.07,0h0v.24h.08l.07,0Zm-1.86-.06.23.05v-.24l-.23-.05Zm10-.18v.24l.23-.05V10.3Zm-1.41.21h0l.07,0h0l.1,0h0v-.24h0l-.1,0h0l-.06,0h0Zm-6.94,0h0v-.24h0l-.07,0h0l-.08,0v.24h0l.07,0h0l.07,0Zm2.92,0h.25v-.24H6.2Zm.87,0h.24v-.24H7.07Zm-.28,0H7v-.24H6.79Zm-.29,0h.25v-.24H6.5Zm5.4-.24v.24l.23-.05v-.24Zm-10.51.18.23.05v-.24l-.23-.05Zm4.52,0h.25v-.24H5.91Zm1.45,0H7.6v-.24H7.35Zm-4.42,0,.08,0v-.24H3l-.11,0h0l-.08,0v.24l.12,0Zm7.57-.22v.24l.08,0h0l.12,0v-.24l-.11,0h0Zm-4.88.23h.25v-.24H5.62Zm2,0h.24v-.24H7.65Zm.28-.25v.24h.24v-.24H7.93Zm-2.44.23h.09v-.24H5.33v.24h.16Zm2.72-.25v.24h.25v-.24H8.21Zm-3.08.23h.15v-.24H5.05v.24h.08Zm-.21,0H5v-.24H4.77v.24h.15Zm-2.33,0,.14,0h0v-.24h0l-.18,0h0v.24h.09Zm8.2,0h0l.21,0h0v-.24h0l-.17,0h-.06Zm-2.27,0h.25v-.24H8.51Zm3.65-.24v.24l.14,0h.08v-.24h0l0,0Zm-11,.18.08,0,0,0,.1,0v-.24l-.11,0,0,0-.07,0Zm3.55,0h0v-.24H4.48v.24h.19Zm4.13,0H9v-.24H8.81Zm-4.39,0h0v-.24H4.2v.24h.22Zm-2.12,0,.15,0v-.24l-.2,0h0v.24H2.3Zm8.77-.2v.24l.23,0v-.24h0Zm-2,.23h.24v-.24H9.09ZM.85,10.33l.08,0,0,0,.11,0v-.24l-.12,0,0,0-.07,0Zm11.58-.18v.24l.14,0h.08v-.24h0l0,0Zm-8.3.23h0v-.24H4l-.08,0h0v.24H4l.08,0h.11Zm5.24-.24v.24h0l.07,0h.12v-.24H9.49l-.07,0Zm2,0v.24l.23-.05v-.24Zm-9.41.18.23.05v-.23l-.23-.05Zm1.84,0,.08,0h0v-.24h0l-.08,0H3.62v.24h.15Zm5.88,0h.08l.07,0h.09v-.24H9.65Zm-9.07-.1h0l0,0,.1,0,0,0h0v-.24H.76l0,0-.1,0,0,0Zm12.13-.17v.24h.07l.11,0,.05,0V10h0l0,0-.1,0h-.08Zm-2.77,0v.24H10l.07,0h.08V10H9.94Zm-6.45.22.07,0h0v-.24H3.46l-.07,0h0v.24h.05l.07,0Zm-1.83-.05.23.05v-.24L1.66,10Zm10-.18v.24l.23-.05V10Zm-1.41.21h0l.07,0h0l.1,0h0V10h0l-.07,0h0l-.1,0h0Zm-6.94,0h0V10h0l-.07,0h0l-.08,0v.24l.09,0h0l.07,0Zm2.92,0h.25V10H6.2Zm.87,0h.24V10H7.07Zm-.28,0H7V10H6.79Zm-.29,0h.25V10H6.5Zm5.4-.24v.24l.23-.05V9.94Zm-10.51.18.23.05V10l-.23-.05Zm4.52,0h.25V10H5.91Zm1.45,0H7.6V10H7.35ZM10.5,10v.24l.08,0h0l.12,0V9.94l-.08,0h0Zm-4.88.23h.25V10H5.62Zm-2.72,0,.11,0H3V10H3l-.11,0h0l-.08,0v.24l.09,0Zm4.75,0h.24V10H7.65ZM7.93,10v.24h.24V10H7.93Zm-2.44.23h.09V10H5.33v.24h.16ZM8.21,10v.24h.25V9.94H8.21Zm-3.08.23h.15V10H5.05v.24h.08Zm-.21,0H5V9.94H4.77v.24h.15Zm-2.37,0,.18,0h0V9.94h0l-.18,0h0v.24h0Zm6,0h.25V9.91H8.51Zm2.27-.24v.24h.05l.17,0h0V9.88l-.19,0Zm1.38,0v.24l.14,0,0,0h.06V9.87l-.08,0,0,0Zm-11,.18.08,0,0,0,.1,0V9.93l-.08,0,0,0-.1,0Zm3.55,0h0V9.91H4.48v.24h.19Zm4.13-.23v.24H9V9.88H8.81Zm-4.39.21h0V9.88H4.2v.24h.22Zm-2.16,0,.19,0V9.88l-.2,0h0v.24h0Zm8.81-.2v.24l.23-.05V9.83Zm-2,.24h.24V9.86H9.09ZM.85,10l.08,0,0,0,.11,0V9.86L1,9.83l0,0-.07,0Zm11.58-.18v.24l.14,0h.08V9.8l-.07,0,0,0Zm-8.3.23h0V9.85H4L4,9.82h0v.24H4l.08,0h.11Zm5.24-.24v.24h0l.07,0h.12V9.82H9.38Zm2,0v.24l.23-.05V9.77l-.21.05ZM1.94,10l.23.05V9.83l-.23-.05Zm1.84,0,.08,0h0V9.82h0l-.08,0H3.62V10h.15Zm5.88,0h.08l.07,0h.09V9.78H9.65ZM.58,10h0l0,0,.1,0,0,0h0V9.79h0l0,0-.13,0,0,0h0v.18h0Zm12.13-.17V10h.07l.11,0,.05,0V9.9h0V9.82h0v0h0V9.72h0l0,0-.1,0h-.08ZM3.49,10l.07,0h0V9.78h0l-.07,0h0l-.07,0h0V10h.05l.07,0Zm6.45,0H10l.07,0h.08V9.74h-.08l-.07,0H9.94ZM1.66,9.95l.23.05V9.77l-.23-.05Zm10-.18V10l.23-.05V9.71ZM10.22,10h0l.11,0h.12V9.7h0l-.07,0h0l-.1,0h0ZM3.28,10h0V9.73h0l-.07,0h0l-.08,0v.24l.09,0h0l.07,0Zm2.92,0h.25V9.7H6.2Zm.87,0h.24V9.7H7.07Zm-.28,0H7V9.7H6.79Zm-.29,0h.25V9.7H6.5Zm5.4-.24v.24l.23-.05V9.65ZM1.39,9.88l.23.05V9.7l-.23-.05Zm4.52,0h.25V9.7H5.91Zm1.45,0H7.6V9.69H7.35Zm3.14-.24v.24l.12,0h0l.08,0V9.65l-.08,0h0Zm-4.83.23h.19V9.69H5.62v.24h.05Zm-2.78,0,.11,0H3V9.69H3l-.11,0h0l-.08,0v.24l.09,0Zm4.75,0h.24V9.68H7.65Zm.28-.25v.24h.24V9.66H7.93ZM5.38,9.9h.19V9.67H5.33V9.9h0Zm2.83-.25V9.9h.25V9.64H8.21Zm-3.08.23h.15V9.66H5.05v.24h.08ZM5,9.87H5V9.64H4.77v.24H5Zm-2.41,0,.18,0h0V9.64h0l-.18,0h0v.24h0Zm6,0h.25V9.62H8.51Zm2.27-.24v.24h.05l.19,0V9.59l-.19,0Zm1.38,0v.24l.11,0,0,0,.09,0V9.58l-.08,0,0,0Zm-11,.18.11,0,0,0,.07,0V9.64l-.08,0,0,0-.1,0Zm3.55,0h0V9.62H4.48v.24h.19Zm4.13-.24v.24H9V9.59H8.81Zm-4.39.21h0V9.59H4.2V9.8h.22Zm-2.16,0,.19,0V9.59l-.23,0h0v.24h0Zm8.81,0h0l.22-.05V9.54l-.23.05Zm-2,0h.24V9.56H9.09ZM.85,9.74l.08,0,0,0,.11,0V9.57L1,9.54l0,0-.07,0Zm11.58-.18V9.8l.11,0h0l.08,0V9.5l-.07,0,0,0Zm-8.3.23h0V9.56H4.1L4,9.54H3.91v.24H4l.08,0h.11Zm5.24-.24v.24h.23V9.53H9.38Zm-7.44.16.23.05V9.53l-.23-.05Zm9.41,0h0l.22,0V9.48l-.21,0h0Zm-7.57,0,.08,0h0V9.52h0l-.08,0H3.62v.24h.15Zm5.88,0h.24V9.49H9.74l-.06,0h0ZM.58,9.66h0l0,0,.13,0,0,0V9.49h0l0,0-.13,0,0,0Zm12.13-.17v.24h.07l.11,0,.05,0V9.43h0l0,0-.1,0h-.08ZM3.49,9.7l.07,0h0V9.48h0l-.07,0h0l-.07,0h0v.24h.05l.07,0Zm6.45,0H10l.07,0h.08V9.45h-.08l-.07,0H9.94ZM1.66,9.65l.23.05V9.47l-.23-.05Zm10-.18v.24l.23-.05V9.42Zm-1.41.21h0l.11,0h0l.06,0h0V9.4h0l-.07,0h0l-.1,0h0Zm-6.94,0h0V9.44h0l-.07,0h0l-.08,0v.24l.09,0h0l.07,0Zm2.92,0h.25V9.41H6.2Zm.87,0h.24V9.4H7.07Zm-.28,0H7V9.41H6.79Zm-.29,0h.25V9.41H6.5Zm5.4-.24v.24l.23-.05V9.35ZM1.39,9.59l.23.05V9.41l-.23-.05Zm4.52,0h.25V9.4H5.91Zm1.45,0H7.6V9.4H7.35ZM10.5,9.4v.24l.12,0h0l.08,0V9.35l-.08,0h0Zm-4.83.23h.19V9.4H5.62v.24h.05Zm-2.78,0,.11,0H3V9.4H3l-.11,0h0l-.08,0v.24l.09,0Zm4.75,0h.24V9.38H7.65Zm.28-.25v.24h.24V9.37H7.93Zm-2.55.23h.19V9.38H5.33v.24h0Zm-.25,0h.15V9.36H5.05v.24h.08Zm3.08,0h.25V9.35H8.21ZM5,9.58H5V9.35H4.77v.24H5Zm-2.41,0,.18,0h0V9.34h0l-.14,0h0v.24h0Zm6,0h.25V9.32H8.51Zm3.65-.24v.24l.11,0h0l.09,0V9.28l-.08,0h0Zm-1.38,0v.24h.05l.19,0V9.3l-.19,0Zm-9.66.18.11,0,0,0,.07,0V9.34l-.08,0,0,0-.1,0Zm3.55,0h0V9.32H4.48v.24h.19Zm4.13-.24v.24H9V9.3H8.81Zm-4.39.21h0V9.29H4.2v.24h.22Zm-2.21,0h0l.22.05V9.29l-.23-.05h0Zm8.86,0h0l.22-.05V9.24l-.23,0Zm-2,0h.24V9.27H9.09ZM.85,9.45l.08,0,0,0,.11,0V9.27L1,9.25l0,0-.1,0Zm11.58-.17v.23l.11,0h0l.08,0V9.21l-.07,0,0,0Zm-8.3.23h0V9.26H4.1L4,9.24H3.91v.24H4l.07,0Zm5.24-.24V9.5h.23V9.23H9.38Zm-7.44.16.23.05V9.24l-.23-.05Zm9.41,0h0l.22,0V9.19l-.21,0h0Zm-7.57,0,.08,0h0V9.23h0l-.08,0H3.62v.24h.15Zm5.88,0h0l.06,0h.16V9.19H9.74l-.06,0h0ZM.58,9.37h0l0,0,.13,0,0,0V9.2h0l0,0-.1,0,0,0h0ZM12.71,9.2v.24h0l0,0,.11,0,.05,0h0V9.16h0v0h0l0,0-.13,0Zm-9.22.21.07,0h0V9.19h0l-.07,0h0l-.07,0h0v.24h.05l.07,0Zm6.45,0H10l.07,0h.08V9.16H10l-.08,0ZM1.66,9.36l.23.05V9.18l-.23-.05Zm10-.18v.24l.23-.05V9.12Zm-1.41.21h0l.11,0h0l.06,0h0V9.11l-.08,0h-.16Zm-6.94,0h0V9.14h0l-.07,0h0l-.08,0v.24l.09,0h0l.07,0Zm2.92,0h.25V9.12H6.2Zm.87,0h.24V9.11H7.07Zm-.28,0H7V9.12H6.79Zm-.29,0h.25V9.12H6.5Zm5.4-.24v.24l.23-.05V9.06ZM1.39,9.3l.23.05V9.11l-.23-.05Zm4.52,0h.25V9.11H5.91Zm1.45,0H7.6V9.1H7.35ZM10.5,9.1v.24l.12,0h0l.08,0V9.06l-.08,0h0Zm-4.83.23h.19V9.1H5.62v.24h.05ZM.05,9.2l.45.14V4.71L.05,4.57ZM13,4.71V9.34l.45-.14V4.57ZM2.89,9.32l.11,0H3V9.1H3l-.11,0h0l-.08,0V9.3l.09,0Zm4.75,0h.24V9.09H7.65Zm-2.26,0h.19V9.09H5.33v.24h0Zm2.55,0h.24V9.08H7.93Zm-2.79,0h.15V9.07H5.05v.24h.08Zm3.08,0h.25V9.06H8.21ZM5,9.28H5V9.05H4.77v.24H5Zm7.21-.23v.24l.11,0h0l.09,0V9l-.11,0h0ZM10.78,9v.24h.05l.19,0V9l-.19,0ZM8.51,9v.24h.25V9H8.51Zm-5.79.24h0V9h0L2.55,9h0v.24h0l.14,0Zm-1.6-.06.11,0,0,0,.07,0V9h0l0,0L1.12,9Zm3.55,0h0V9H4.48v.24h.19ZM8.81,9v.24H9V9H8.81Zm-6.59.16h0l.22,0V9L2.23,9h0Zm2.14,0h.08V9H4.2v.24h.15Zm6.72,0h0l.22-.05V8.95l-.23,0Zm-2,0h.24V9H9.09ZM.85,9.15l.11,0,0,0,.07,0V9L1,9l0,0-.1,0ZM12.44,9v.24l.11,0h0l.08,0V8.92l-.07,0h0Zm-8.3.23h0V9H4.1L4,9H3.91v.24H4l.07,0Zm5.24,0h.23V8.94H9.38ZM1.94,9.13l.23.05V8.95l-.23-.05Zm9.41.05h0l.22-.05V8.89l-.18,0h-.05Zm-7.57,0,.08,0h0V8.93h0l-.08,0h0l-.08,0h0v.24h.15Zm5.88,0h0l.06,0h.16V8.9H9.74l-.06,0h0ZM.58,9.07H.63l0,0,.1,0,0,0V8.91h0l0,0-.1,0,0,0h0Zm12.13-.17v.24h0l0,0,.13,0,.05,0V8.84h-.07l-.1,0Zm-9.22.21.07,0h0V8.9h0l-.07,0h0l-.07,0h0V9.1h.05l.07,0Zm6.45,0h0l.07,0h.15V8.86h0l-.07,0H9.94ZM1.66,9.06l.23.06V8.88l-.23-.05Zm10-.18v.24l.23-.05V8.83Zm-1.41,0v.24h0l.07,0h0l.08,0V8.81l-.08,0h0l-.07,0Zm-6.94.23h0V8.85h0l-.11,0H3.06v.24l.09,0h0l.07,0Zm2.92,0h.25V8.82H6.2Zm.87,0h.24V8.81H7.07Zm-.28,0H7V8.82H6.79Zm-.29,0h.25V8.82H6.5Zm5.4-.24v.24L12.12,9V8.77ZM1.39,9l.23.05V8.82l-.23-.05ZM5.91,9h.25V8.81H5.91Zm1.45,0H7.6V8.81H7.35ZM5.67,9h.19V8.81H5.62V9h.05ZM2.89,9,3,9H3V8.81H3l-.11,0h0l-.08,0V9l.09,0ZM10.5,9h0l.11,0h0l.08,0V8.77l-.08,0h0l-.12,0ZM7.65,9h.24V8.8H7.65ZM5.38,9h.19V8.79H5.33V9h0ZM7.93,9h.24V8.78H7.93ZM5.17,9h.12V8.78H5.05V9h.12Zm3,0h.25V8.76H8.21ZM5,9H5V8.76H4.77V9H5Zm5.82-.23V9h.05l.19,0V8.71l-.16,0h-.09Zm-2.27,0V9h.25V8.74H8.51Zm3.65,0V9l.08,0h0l.12,0V8.7l-.11,0,0,0ZM2.72,9h0V8.75h0l-.18,0h0V9h0l.14,0Zm-1.6-.06.15,0,0,0h0V8.75h0l0,0-.14,0ZM4.68,9h0V8.73H4.48v.24h.19Zm4.13-.23V9H9V8.71H8.81Zm-6.59.16h0l.22.05V8.71l-.24-.05Zm2.14,0h.08V8.7H4.2v.24h.15Zm6.72,0h0l.22-.05V8.65l-.23,0Zm-2,0h.24V8.68H9.09ZM.85,8.86l.11,0,0,0,.07,0V8.68L1,8.66l0,0-.1,0Zm11.58-.18v.24l.11,0,0,0,.08,0V8.62l-.11,0h0Zm-8.3.23h0V8.68H3.91v.24H4l.07,0Zm5.24,0h.23V8.65H9.38ZM1.94,8.84l.23.05V8.65h0L1.94,8.6Zm9.41-.19v.24h0l.18,0V8.6l-.18,0Zm-7.57.22.08,0h0V8.64H3.74l-.08,0h0v.24h0l.08,0Zm5.88,0h0l.06,0h.16V8.61H9.74l-.06,0h0ZM.58,8.78H.63l0,0,.1,0,0,0V8.61h0l0,0-.1,0,0,0h0Zm12.13-.17v.24h0l0,0,.1,0h.08v0h0v-.2h0l0,0-.1,0Zm-9.22.21.07,0h0V8.6h0l-.07,0h0l-.07,0h0V8.8h.05l.07,0Zm6.45,0h0l.07,0h0l.06,0h.05V8.57h0l-.07,0h0l-.08,0ZM1.66,8.77l.23.05V8.59l-.23-.05Zm10-.18v.24l.23-.05V8.54Zm-1.41,0v.24h0l.07,0h0l.08,0V8.52l-.08,0h0l-.07,0Zm-6.94.23h0V8.56h0l-.1,0H3.06v.24h.08l.11,0Zm2.92,0h.25V8.53H6.2Zm.87,0h.24V8.52H7.07Zm-.28,0H7V8.53H6.79Zm-.29,0h.25V8.53H6.5Zm5.4-.24v.24l.23-.05V8.47ZM1.39,8.71l.23.05V8.53l-.23-.05Zm4.52,0h.25V8.52H5.91Zm1.45,0H7.6V8.51H7.35Zm-1.68,0h.19V8.51H5.62v.24h.05Zm-2.78,0,.11,0H3V8.51H3l-.11,0h0l-.08,0v.24l.09,0Zm7.61,0h0l.11,0h0l.08,0V8.47l-.08,0h0l-.12,0Zm-2.85,0h.24V8.5H7.65Zm-2.26,0h.19V8.5H5.33v.24h0Zm2.55,0h.24V8.49H7.93Zm-2.76,0h.12V8.48H5.05V8.7h.12Zm3,0h.25V8.47H8.21ZM5,8.7H5V8.46H4.77v.24H5Zm5.82-.23V8.7h.08l.16,0V8.42l-.16,0h-.09Zm-2.27,0V8.7h.25V8.44H8.51Zm3.65,0V8.7l.08,0,0,0,.12,0V8.4l-.14,0h-.08ZM2.72,8.7h0V8.46h0l-.18,0h0v.24h0l.18,0Zm-1.6-.06.15,0,0,0h0V8.46h0l0,0-.17,0Zm3.55,0h0V8.44H4.48v.24h.19Zm4.13-.23v.24H9V8.42H8.81ZM2.22,8.6l.24.05V8.41l-.24-.05Zm2.14,0h.08V8.41H4.2v.24h.15Zm6.72,0h0l.22-.05V8.36l-.17,0h-.05Zm-2,0h.24V8.38H9.09ZM.85,8.57l.11,0,0,0,.07,0V8.39L1,8.37l0,0-.1,0Zm11.58-.18v.23l.07,0,0,0,.12,0V8.33l-.11,0h0ZM4.1,8.61h.05V8.38H3.91v.24H4.1Zm5.27,0h.23V8.35H9.38ZM1.94,8.54l.23.05h0V8.36h0l-.22-.05Zm9.41-.19v.24h0l.18,0V8.31l-.14,0h-.09Zm-1.69.23h0l.06,0h.16V8.31H9.65Zm-5.8,0h0V8.34H3.62v.24h0l.08,0h.1ZM.58,8.49H.63l0,0,.1,0,0,0V8.32h0l0,0-.1,0,0,0h0Zm12.13-.17v.24h0l.1,0,0,0h.06V8.25h-.07l-.1,0Zm-9.22.21.07,0h0V8.31h0l-.07,0h0l-.07,0h0v.24h.05l.07,0Zm6.45,0h0l.07,0h0l.06,0h.05V8.27h0l-.07,0h0l-.08,0ZM1.66,8.48l.23.05V8.29l-.23-.05Zm10-.18v.24l.23-.05V8.24Zm-1.41,0V8.5h0l.07,0h0l.08,0V8.23l-.08,0h0l-.07,0ZM3.28,8.5h0V8.26h0l-.1,0H3.06v.24h.08l.11,0Zm2.92,0h.25V8.24H6.2Zm.87,0h.24V8.23H7.07Zm-.28,0H7V8.24H6.79Zm-.29,0h.25V8.24H6.5Zm5.4-.24v.24l.23-.05V8.18ZM1.39,8.41l.23.05V8.23l-.23-.05Zm4.52,0h.25V8.23H5.91Zm1.45,0H7.6V8.22H7.35Zm-1.68,0h.19V8.22H5.62v.24h.05Zm-2.78,0,.11,0H3V8.22H3l-.14,0H2.78v.24l.09,0Zm7.61,0h0l.11,0h0l.08,0V8.18l-.08,0h0l-.12,0Zm-2.85,0h.24V8.21H7.65Zm-2.26,0h.19V8.21H5.33v.24h0Zm2.55,0h.24V8.19H7.93Zm-2.76,0h.12V8.19H5.05v.24h.12Zm3,0h.25V8.17H8.21ZM5,8.4H5V8.17H4.77v.24H5Zm5.82-.23V8.4h.08l.16,0V8.12l-.16,0h-.09Zm-2.27,0V8.4h.25V8.15H8.51Zm3.65,0V8.4h0l0,0,.16,0V8.11l-.14,0h-.08Zm-11,.18.18,0,0,0V8.17h0l0,0-.17,0Zm1.6.06h0V8.17h0l-.18,0h0v.24h0l.18,0Zm2,0h0V8.14H4.48v.24h.19Zm4.13-.23v.24H9V8.12H8.81ZM2.22,8.3l.24.05V8.12l-.24-.05Zm2.17,0h0V8.12H4.2v.24h.19Zm4.7,0h.24V8.09H9.09Zm2-.24v.24h0l.18,0V8.07l-.17,0ZM.85,8.27,1,8.3l0,0,.07,0V8.1H1l0,0L.85,8ZM12.44,8.1v.24l.07,0h0l.12,0V8l-.11,0h0ZM4.1,8.31h.05V8.09H3.91V8.3H4.1Zm5.27,0h.23V8.06H9.38ZM1.94,8.25l.23.05h0V8.06h0L1.94,8Zm9.41-.19v.24h.09l.15,0V8l-.14,0h-.09Zm-7.5.23h0V8H3.74L3.66,8h0v.24h0l.08,0h.1ZM9.65,8v.24h.24V8h0L9.78,8H9.65ZM.58,8.19H.63l0,0,.1,0,0,0V8h0L.65,8l0,0h0ZM12.71,8v.24h0l0,0,.1,0h.08V8h-.07l-.1,0Zm-9.22.21.07,0h0V8H3.46L3.38,8h0v.24h.05l.07,0Zm6.45,0h0l.07,0h0l.06,0h.05V8h0l-.07,0h0L9.94,8ZM1.66,8.18l.23.05V8l-.23-.05Zm10-.18v.24l.23-.05V7.95ZM10.22,8v.24h0l.07,0h0l.08,0V7.93l-.08,0h0l-.07,0ZM3.28,8.2h0V8h0l-.1,0H3.06v.24h.08l.11,0Zm2.92,0h.25V7.94H6.2Zm.87,0h.24V7.93H7.07Zm-.28,0H7V7.94H6.79Zm-.29,0h.25V7.94H6.5Zm5.4-.24v.24l.23-.05V7.88ZM1.39,8.12l.23.05V7.94l-.23-.05Zm4.52,0h.25V7.93H5.91Zm1.45,0H7.6V7.93H7.35Zm-1.68,0h.19V7.93H5.62v.24h.05Zm-2.81,0,.14,0H3V7.92H3l-.11,0H2.78v.24h.08Zm7.64,0h0l.11,0h0l.08,0V7.88h-.08l-.15,0Zm-2.85,0h.24V7.92H7.65Zm-2.26,0h.19V7.91H5.33v.24h0Zm2.55,0h.24V7.9H7.93Zm-2.76,0h.12V7.89H5.05v.24h.12Zm3,0h.25V7.88H8.21ZM5,8.11H5V7.87H4.77v.24H5Zm7.21-.23v.24h0l0,0,.16,0V7.81l-.14,0h-.08Zm-1.38,0v.24h.08l.16,0V7.83l-.16,0h-.09Zm-2.27,0v.24h.25V7.86H8.51ZM1.12,8l.18,0,0,0V7.87h0l0,0-.17,0Zm1.6.06h0V7.87h0l-.18,0h0v.24h0l.18,0Zm2,0h0V7.85H4.48v.24h.19Zm4.13-.23v.24H9V7.83H8.81ZM2.22,8l.24.05V7.83l-.24-.05Zm2.17,0h0V7.82H4.2V8h.19Zm4.7,0h.24V7.8H9.09Zm2-.24v.24h0l.18,0V7.77l-.17,0ZM.85,8,1,8,1,8h0V7.8H1l0,0-.14,0ZM12.44,7.8V8l.07,0,0,0,.12,0V7.74l-.11,0h0ZM4.1,8h.05V7.79H3.91V8H4.1ZM9.38,8h.23V7.77H9.38Zm2-.27V8h.09l.15,0V7.72l-.14,0h-.09ZM2.16,8h0V7.76h0l-.19,0V8l.19,0ZM3.85,8h0V7.76H3.74l-.08,0h0V8h0l.08,0h.1Zm5.8-.23V8h.12l.07,0h.05V7.73h0l-.07,0H9.65Zm3.06,0V8h0l.1,0h.08V7.66h-.07l-.1,0ZM.58,7.9H.63l0,0L.81,8V7.73h0l-.14,0,0,0h0v0h0ZM9.94,8h0l.07,0h0l.06,0h.05V7.69h0l-.07,0h0l-.08,0ZM3.56,8h0V7.71H3.46l-.07,0h0v.24h.05l.07,0h.1Zm-1.9-.06.23.06V7.71l-.23-.05Zm10-.18v.24l.23-.05V7.65Zm-1.41,0v.24h0l.07,0h0l.08,0V7.64l-.08,0h0l-.07,0Zm-6.94.23h0V7.67H3.21l-.07,0H3.06v.24h.08l.11,0Zm2.92,0h.25V7.65H6.2Zm.87,0h.24V7.64H7.07Zm-.28,0H7V7.65H6.79Zm-.29,0h.25V7.65H6.5Zm5.4-.24v.24l.23-.05V7.59ZM1.39,7.83l.23.05V7.64l-.23-.05Zm4.52,0h.25V7.64H5.91Zm1.45,0H7.6V7.63H7.35Zm-1.65,0h.16V7.63H5.62v.24H5.7Zm4.8,0h0l.14,0h.09V7.59h-.08l-.15,0Zm-2.85,0h.24V7.62H7.65ZM3,7.86H3V7.63H3l-.11,0H2.78v.24h.08l.11,0Zm2.42,0h.15V7.62H5.33v.24h.09Zm2.51,0h.24V7.61H7.93Zm-2.76,0h.12V7.6H5.05v.24h.12Zm3,0h.25V7.58H8.21ZM5,7.81H5V7.58H4.77V7.8H5Zm7.21-.24v.24h0l0,0,.16,0V7.52l-.17,0h-.05Zm-1.38,0v.24h.08l.16,0V7.53l-.16,0h-.09Zm-2.27,0v.24h.25V7.56H8.51Zm-7.39.18.18,0,0,0V7.58h0l-.2,0Zm1.6.06h0V7.58H2.65l-.14,0h0v.24h0l.18,0Zm2,0h0V7.56H4.48v.24h.22Zm4.1-.24v.24H9V7.53H8.81Zm-6.59.16.24.05V7.53l-.24-.05Zm2.17,0h0V7.53H4.2v.24h.19Zm4.7,0h.24V7.5H9.09Zm2-.24v.24h0l.18,0V7.48l-.17,0ZM.85,7.68l.15,0,0,0h0V7.51H1l0,0-.14,0Zm11.58-.18v.24l.07,0,0,0,.12,0V7.45l-.14,0h-.08ZM4.1,7.73h.05V7.5H3.91v.24H4.1Zm5.27,0h.23V7.47H9.38Zm2-.27v.24h.09l.15,0V7.42l-.11,0h0ZM2.16,7.7h0V7.47H2.09l-.15,0v.24l.19,0Zm1.69,0h0V7.46H3.74l-.08,0h0v.24h0l.08,0h.1Zm5.8-.23V7.7h.12l.07,0h.05V7.43h0l-.07,0H9.65Zm3.06,0v.24h0l.1,0h.08V7.53h0V7.37h-.07l-.14,0ZM.58,7.6H.63l0,0,.14,0V7.43h0l-.14,0,0,0h0v.15h0Zm9.36.06h0l.07,0h0l.06,0h.05V7.39h0l-.07,0h0l-.08,0Zm-6.38,0h0V7.42h0l-.07,0h0l-.07,0h0v.24h.05l.07,0h.1ZM1.66,7.6l.23.05V7.41l-.23-.05Zm10-.18v.24l.23-.05V7.36Zm-1.41,0v.24h0l.07,0h0l.08,0V7.34h-.08l-.1,0Zm-7,.23h0V7.38H3.21l-.07,0H3.06v.24h.08l.07,0Zm3,0h.25V7.35H6.2Zm.87,0h.24V7.35H7.07Zm-.28,0H7V7.35H6.79Zm-.29,0h.25V7.35H6.5Zm5.4-.24v.24l.23-.05V7.3ZM1.39,7.53l.23.05V7.35L1.39,7.3Zm4.52,0h.25V7.35H5.91Zm1.45,0H7.6V7.34H7.35Zm-1.65,0h.16V7.34H5.62v.24H5.7Zm4.8,0h0l.14,0h.09V7.3h-.08l-.15,0Zm-2.85,0h.24V7.32H7.65ZM3,7.57H3V7.33H3l-.11,0H2.78v.24h.08l.11,0Zm2.42,0h.15V7.32H5.33v.24h.09Zm2.51,0h.24V7.31H7.93Zm-2.76,0h.12V7.31H5.05v.24h.12Zm3,0h.25V7.29H8.21ZM5,7.52H5V7.29H4.77V7.5H5Zm5.82-.23v.24h.08l.16,0V7.24l-.12,0h0Zm-2.27,0v.24h.25V7.27H8.51Zm3.65,0v.24h0l0,0,.19,0V7.23l-.17,0,0,0Zm-9.48.23h0V7.29H2.65l-.15,0v.24h0l.14,0ZM1.12,7.46l.22.05V7.28h0l-.2,0Zm3.58,0h0V7.26H4.48v.24h.22Zm4.1-.24V7.5H9V7.24H8.81Zm-6.59.16.24.05V7.23h0l-.23,0Zm2.17,0h0V7.23H4.2v.24h.19Zm4.7,0h.24V7.21H9.09Zm2-.24v.24h0l.18,0V7.19l-.14,0h-.08ZM.85,7.39l.15,0,0,0h0V7.21H1l0,0-.14,0Zm11.58-.18v.24h.07l.15,0V7.15l-.14,0,0,0ZM4.1,7.43h.05V7.2H4l-.08,0h0v.24H4.1Zm5.27,0h.23V7.17h0l-.07,0H9.38Zm2-.27v.24l.08,0h0l.12,0V7.13l-.11,0h0ZM2.12,7.4h0V7.17l-.09,0h0l-.12,0v.24l.15,0Zm1.72,0h0V7.17H3.74l-.08,0h0v.24h0l.08,0h.1Zm5.8-.24V7.4h.12l.07,0h.05V7.14H9.65ZM.58,7.31H.63l0,0,.14,0V7.14h0l-.1,0,0,0-.07,0Zm12.13-.17v.23h0l.14,0h.08V7.07h0l0,0-.14,0Zm-2.77.23h0l.07,0h0l.06,0h.05V7.1h0l-.07,0h0l-.08,0Zm-6.38,0h0V7.13h0l-.07,0h0l-.07,0h0v.24h0l.08,0h0l.07,0ZM1.66,7.3l.23.05V7.12l-.23-.05Zm10-.18v.24l.23-.05V7.07Zm-1.41,0v.24h0l.1,0h.09V7.05h-.08l-.1,0Zm-7,.23h0V7.09H3.21l-.07,0H3.06v.24h.08l.07,0Zm3,0h.25V7.06H6.2Zm.87,0h.24V7.05H7.07Zm-.28,0H7V7.06H6.79Zm-.29,0h.25V7.06H6.5Zm5.4-.24v.24l.23-.05V7ZM1.39,7.24l.23.05V7.06L1.39,7Zm4.52,0h.25V7.05H5.91Zm1.45,0H7.6V7H7.35Zm-1.65,0h.16V7H5.62v.24H5.7Zm4.8,0h0l.14,0h.09V7h-.08l-.1,0H10.5Zm-2.85,0h.24V7H7.65ZM3,7.27H3V7H3L2.86,7H2.78v.24h.08l.11,0Zm2.42,0h.15V7H5.33v.24h.09Zm2.51,0h.24V7H7.93Zm-2.76,0h.12V7H5.05v.24h.12Zm3,0h.25V7H8.21ZM5,7.23H5V7H4.77v.24H5ZM10.78,7v.24l.08,0h0l.12,0V6.95l-.12,0h0ZM8.51,7v.24h.25V7H8.51Zm3.65,0v.24h0l.19,0V6.93Zm-9.48.23h0V7H2.65l-.15,0v.24l.16,0ZM1.12,7.17l.22.05V7l-.22-.05Zm3.58,0h0V7H4.48v.24h.22ZM8.81,7v.24H9V6.95H8.81Zm-4.42.2h0V6.94H4.2v.24h.19Zm-2.17,0,.23.05h0V6.94h0l-.23-.05Zm6.87.05h.24V6.92H9.09Zm2-.24v.24h.08l.15,0V6.89l-.14,0h-.08ZM.85,7.1l.15,0,0,0h0V6.92h0l0,0-.17,0Zm11.58-.18v.24h.07l.15,0V6.86l-.14,0,0,0ZM4.1,7.14h.05V6.91H4l-.08,0h0v.24h0l.08,0h.1Zm5.27,0h.15l.08,0V6.88h0l-.07,0H9.38Zm2-.27v.24l.08,0h0l.12,0V6.84l-.07,0h0ZM2.09,7.1l.09,0V6.88l-.09,0h0l-.12,0v.24l.12,0Zm1.76,0h0V6.87H3.81l-.07,0H3.62v.24h0l.08,0h.1Zm5.8-.23v.24h.12l.07,0h.05V6.84H9.65ZM.58,7,.66,7l0,0,.11,0V6.84h0l-.1,0,0,0-.07,0Zm12.13-.17v.23l.14,0h.08V6.78l-.08,0,0,0Zm-2.77.23h0l.07,0h0l.06,0h.05V6.81h0l-.07,0H9.94Zm-6.38,0h0V6.83h0l-.07,0h0l-.07,0h0V7h0l.08,0h0l.07,0ZM1.66,7l.23.05V6.83l-.23-.05Zm10-.18v.24L11.85,7V6.77Zm-1.41,0V7h0l.1,0h.09V6.76h-.08l-.1,0ZM3.24,7h0V6.79H3.21l-.07,0H3.06V7h.08l.07,0Zm3,0h.25V6.77H6.2Zm.87,0h.24V6.76H7.07ZM6.79,7H7V6.77H6.79ZM6.5,7h.25V6.77H6.5Zm5.4-.24V7l.23-.05V6.71ZM1.39,6.94h0l.2,0V6.76l-.23-.05ZM5.91,7h.25V6.76H5.91ZM7.35,7H7.6V6.75H7.35ZM5.7,7h.16V6.75H5.62V7H5.7ZM7.65,7h.24V6.73H7.65ZM3,7H3V6.74H3l-.11,0H2.78v.24h.08L3,7Zm7.5-.23V7h0l.1,0h.09V6.71h-.08l-.1,0ZM5.42,7h.15V6.73H5.33V7h.09ZM7.93,7h.24V6.72H7.93Zm-2.76,0h.12V6.72H5.05v.24h.12Zm3,0h.25V6.7H8.21ZM5,6.93H5V6.7H4.77v.24H5Zm5.82-.23v.24l.08,0h0l.12,0V6.65l-.12,0h0Zm-2.27,0v.24h.25V6.68H8.51Zm-5.82.23h0V6.7H2.65l-.15,0v.24l.16,0Zm9.48-.23v.24h0l.22-.05V6.64Zm-11,.18.22.05V6.69l-.22-.05Zm3.58,0h0V6.68H4.48v.24h.22Zm4.1-.24v.24H9V6.65H8.81Zm-4.42.21h0V6.65H4.2v.24h.19Zm-2.17,0,.23.05h0V6.65h0L2.22,6.6Zm6.87.05h.24V6.62H9.09Zm2-.24v.24h.08l.15,0V6.6l-.14,0h-.08ZM.85,6.8l.18,0,0,0V6.63h0l0,0-.17,0Zm11.58-.18v.24h.07l.15,0V6.56l-.14,0,0,0ZM4.1,6.84h.05V6.62H4l-.08,0h0v.24h0l.08,0h.1Zm5.27,0h.15l.08,0V6.58h0l-.07,0H9.38Zm2-.27v.24l.11,0h0l.08,0V6.54l-.07,0h0Zm-9.26.22.09,0V6.59l-.12,0H2l-.08,0v.24l.12,0Zm1.76,0h0V6.58H3.81l-.07,0H3.62v.24h.12l.07,0Zm5.8-.24v.24h.12l.07,0h.05V6.55h0l-.07,0H9.65ZM.58,6.72l.08,0,0,0,.11,0V6.55h0l-.1,0,0,0-.07,0Zm12.13-.17v.23h0l.11,0,0,0,.09,0V6.49l-.08,0,0,0Zm-9.15.22h0V6.54h0l-.07,0h0l-.07,0h0v.24h0l.08,0h0l.07,0Zm6.38-.24v.24h.12l.06,0h.05V6.51h0l-.07,0H9.94Zm-8.28.18.23.05V6.53l-.23-.05Zm10-.18v.24l.23-.05V6.48Zm-1.41,0v.24h0l.1,0h.09V6.46h-.24Zm-7,.23h0V6.5H3.21l-.07,0H3.06V6.7h.08l.07,0Zm3,0h.25V6.47H6.2Zm.87,0h.24V6.47H7.07Zm-.28,0H7V6.47H6.79Zm-.29,0h.25V6.47H6.5Zm5.4-.24v.24l.23-.05V6.42ZM1.39,6.65h0l.2,0V6.47l-.18,0,0,0Zm4.52,0h.25V6.47H5.91Zm1.45,0H7.6V6.46H7.35Zm-1.65,0h.16V6.46H5.62v.24H5.7Zm1.94,0h.24V6.44H7.65ZM3,6.69H3V6.45H3l-.11,0H2.78v.24h.08l.11,0Zm7.5-.23v.24h0l.1,0h.09V6.42h0l-.14,0Zm-5.08.22h.15V6.44H5.33v.24h.09Zm2.51,0h.24V6.42H7.93Zm-2.76,0h.12V6.42H5.05v.24h.12Zm3,0h.25V6.41H8.21ZM5,6.64H5V6.4H4.77v.24H5Zm5.79-.23v.24l.08,0h0l.12,0V6.36l-.12,0h0Zm-2.27,0v.24h.25V6.38H8.51Zm-5.82.23h0V6.4H2.65l-.15,0V6.6l.16,0Zm9.48-.23v.24h0l.22-.05V6.34Zm-11,.18.22.05V6.4l-.22-.05Zm3.58,0h0V6.38H4.48V6.6h.22Zm4.1,0H9V6.35H8.81Zm-4.42,0h0V6.35H4.2v.24h.19Zm-2.17,0,.23.05h0V6.35h0L2.22,6.3Zm6.87.05h.24V6.33H9.09Zm2-.24v.24h.08l.15,0V6.3l-.14,0h-.08ZM.85,6.51l.18,0,0,0V6.33h0l0,0-.17,0Zm11.58-.18v.24h.07l.15,0V6.27l-.17,0ZM4.1,6.55h.05V6.32H4l-.08,0h0v.24h0l.08,0h.1Zm5.27,0h.15l.08,0V6.29H9.38Zm2-.27v.24l.11,0h0l.08,0V6.25H11.5ZM2.05,6.5l.12,0V6.29L2,6.26H1.94v.24L2,6.5Zm1.79,0h0V6.29H3.81l-.07,0H3.62v.24h.12l.07,0Zm5.8-.24v.24h.12l.07,0h.05V6.26H9.78l-.07,0ZM.58,6.43l.08,0,0,0,.11,0V6.25l-.12,0,0,0-.07,0v.12h0Zm12.13-.17v.23h0l.11,0,0,0,.09,0v-.1h0V6.19l-.08,0,0,0Zm-9.15.22h0V6.25h0l-.07,0h0l-.07,0h0v.24h0l.08,0h0l.07,0Zm6.38-.24v.24h.12l.06,0h.05V6.21h0l-.06,0h0l-.07,0Zm-8.28.17.23.05V6.24l-.23-.05Zm10-.18v.24l.23-.05V6.19Zm-1.41,0v.24h.08l.07,0h.09V6.17h-.08l-.07,0h-.09Zm-7,.23h0V6.21H3.21l-.11,0h0V6.4h.08l.07,0Zm3,0h.25V6.17H6.2Zm.87,0h.24V6.17H7.07Zm-.28,0H7V6.18H6.79Zm-.29,0h.25V6.18H6.5Zm5.4-.24v.24l.21-.05h0V6.12h0ZM1.39,6.35h0l0,0,.17,0V6.17l-.15,0,0,0h0Zm4.52.05h.25V6.17H5.91Zm1.45,0H7.6V6.16H7.35Zm-1.65,0h.16V6.16H5.62v.24H5.7Zm1.94,0h.24V6.15H7.65ZM3,6.39H3V6.16H3l-.14,0h0v.24h.08l.11,0Zm7.5-.24v.24h0l.14,0h.05V6.12h0l-.14,0Zm-5.08.22h.15V6.15H5.33v.24h.09Zm2.51,0h.24V6.13H7.93Zm-2.76,0h.12V6.13H5.05v.24h.12Zm3,0h.25V6.11H8.21ZM5,6.35H5V6.11H4.77v.24H5Zm5.79-.23v.24l.08,0h0l.12,0V6.07l-.12,0h0Zm-2.27,0v.24h.25V6.09H8.51Zm-5.82.23h0V6.11l-.08,0h0l-.12,0V6.3l.16,0Zm9.48-.23v.24l.23-.05V6.05Zm-11,.18.22.05V6.1l-.22-.05Zm3.58,0h0V6.09H4.48V6.3h.22Zm4.1,0H9V6.06H8.81Zm-4.42,0h0V6.06H4.2v.24h.19Zm-2.17,0,.23.05h0V6.06h0L2.22,6Zm6.87.05h.24V6H9.09Zm2-.24v.24h.08l.15,0V6l-.11,0h0ZM.85,6.21h0l.17,0,0,0V6h0L1,6,.85,6ZM12.44,6v.24h0l0,0,.18,0V6l-.17,0ZM4.1,6.26h.05V6H4L3.91,6h0v.24h0l.08,0h.1Zm5.27,0h.08l.07,0h.08V6H9.53L9.46,6H9.38Zm2-.27v.24l.15,0h.08V6h0ZM2,6.2l.16,0V6L2,6h0v.24H2Zm1.83,0h0V6H3.81L3.74,6H3.62V6.2h.12l.07,0ZM9.65,6v.24h0l.07,0h.12V6H9.78L9.71,6Zm3.06,0V6.2l.11,0,0,0,.09,0V6h0V5.94h0v0l-.08,0h0ZM.58,6.14l.08,0,0,0,.11,0V6l-.12,0,0,0-.07,0v0h0V6h0Zm3,0h0V6H3.42l-.07,0h0v.24h0l.08,0h0l.07,0ZM9.94,6v.24h0l.06,0h0l.08,0V5.92h0l-.06,0H9.94Zm-8.28.18.23.05V5.94l-.23-.05Zm10-.18v.24l.23-.05V5.89Zm-1.41,0v.24h.24V5.88h-.08l-.07,0h-.09Zm-7,.23h0V5.91H3.21l-.11,0h0v.24h0l.11,0Zm3.55,0H7V5.88H6.79Zm-.29,0h.25V5.88H6.5Zm.58-.24v.24h.24V5.88Zm4.82,0v.24l.21,0h0V5.82h0ZM6.2,6.12h.25V5.88H6.2ZM1.39,6.06h.05l0,0,.14,0V5.88l-.15,0,0,0h0Zm4.52.05h.25V5.88H5.91Zm1.45,0H7.6V5.87H7.35Zm.29,0h.24V5.85H7.65Zm-1.9,0h.12V5.86H5.62v.24h.12ZM3,6.1H3V5.86H2.93l-.11,0h0v.24h0L3,6.1Zm7.5-.24V6.1h0l.14,0h.05V5.83h0l-.14,0Zm-5.08.22h.15V5.85H5.33v.24h.09Zm2.51,0h.24V5.84H7.93Zm-2.72,0h.08V5.84H5.05v.24h.16Zm3,0h.25V5.82H8.21Zm2.57-.26v.24l.08,0h0L11,6V5.77l-.08,0h0ZM2.65,6l.08,0V5.82l-.08,0h0l-.12,0V6l.12,0ZM4.88,6H5V5.81H4.77V6h.12Zm3.63,0h.25V5.79H8.51Zm3.65-.24V6L12.39,6V5.76ZM1.12,6,1.34,6V5.81l-.22-.05ZM4.71,6h0V5.79H4.48V6h.22Zm4.1,0H9V5.77H8.81ZM4.39,6h0V5.77H4.2V6h.19Zm4.7,0h.24V5.74H9.09ZM2.45,6h0V5.76h0l-.19,0V6l.2,0Zm8.63-.24V6l.07,0h0l.11,0V5.72l-.11,0h0ZM.85,5.92h0L1,6l0,0V5.74h0l-.2,0Zm11.58-.17V6h0l0,0,.18,0V5.68l-.17,0ZM4.1,6h.05V5.73H4.07L4,5.71H3.91v.24h0L4,6h.1ZM9.38,6h.08l.07,0h.08V5.7H9.45l-.08,0Zm2-.27v.24l.18,0h.05V5.66h0ZM2,5.9l.19,0V5.71l-.23-.05V5.9H2Zm1.86,0h0V5.7H3.81l-.07,0h0l-.07,0h0v.24h.12l.07,0Zm5.8-.24v.24h0l.07,0h.12V5.67H9.78l-.07,0Zm3.06,0V5.9h0l.11,0,0,0,.09,0V5.71h0v-.1l-.08,0,0,0ZM.58,5.84l.08,0,0,0,.11,0V5.67l-.12,0,0,0-.07,0Zm3,.05h0V5.66h0l-.07,0h0l-.07,0h0v.24h0l.08,0h0l.07,0Zm6.38-.24v.24h0l.06,0h0l.08,0V5.62h-.12l-.07,0Zm-8.28.18.23.05V5.65h0L1.66,5.6Zm10-.18v.24l.23-.05V5.6Zm-1.41,0v.24h.08l.07,0h.09V5.58h-.08l-.07,0h-.09Zm-7,.23h0V5.62H3.21l-.11,0h0v.24h0l.11,0Zm3.55,0H7V5.59H6.79Zm-.29,0h.25V5.59H6.5Zm.58-.25v.24h.24V5.58Zm4.82,0v.24l.18,0,0,0h0V5.53h0l0,0ZM6.2,5.82h.25V5.58H6.2ZM1.39,5.76h.05l0,0,.14,0V5.59l-.11,0,0,0-.07,0Zm4.52.05h.25V5.58H5.91Zm1.45,0H7.6V5.58H7.35Zm.29,0h.24V5.56H7.65Zm-1.9,0h.12V5.57H5.62V5.8h.12ZM3,5.8H3V5.57H2.93l-.11,0h0v.24h0l.11,0Zm7.53-.23v.24h0l.14,0h.05V5.53h0l-.14,0Zm-5.08.22h.15V5.56H5.33v.24h.09Zm2.51,0h.24V5.54H7.93Zm-2.72,0h.08V5.54H5.05v.24h.16Zm3,0h.25V5.52H8.21Zm2.57-.26v.24l.12,0h0l.09,0V5.48l-.08,0h0Zm-8.13.22.08,0V5.52l-.08,0h0l-.12,0v.24l.12,0Zm2.23,0H5V5.52H4.77v.24h.12Zm3.63,0h.25V5.5H8.51Zm3.65-.24v.24l.23-.05V5.46Zm-11,.18.22.05V5.52l-.22-.05Zm3.51,0h.09V5.49H4.48v.24h.15Zm4.17,0H9V5.47H8.81Zm-4.42,0h0V5.47H4.2v.24h.19Zm-1.95,0h0V5.47h0l-.19,0v.24l.2,0Zm8.63-.24V5.7l.07,0h0l.11,0V5.42l-.11,0h0Zm-2,0V5.7h.24V5.45H9.09Zm3.35,0v.24h0l.18,0V5.39h0l-.17,0ZM.85,5.62h0l.21.05V5.45h0l-.2,0Zm3.25,0h.05V5.44H4.07L4,5.42H3.91v.24H4l.08,0Zm5.27,0h.23V5.41H9.45l-.08,0Zm2-.26v.24l.18,0h.05V5.36h0ZM1.94,5.6l.23.05V5.41l-.23-.05Zm1.91,0h0V5.4H3.81l-.07,0h0l-.07,0h0v.24h0l.07,0h0l.07,0Zm5.8-.23v.24h0l.07,0h.12V5.37H9.78l-.07,0Zm3.06,0v.24l.11,0h0l.09,0v0h0V5.31l-.08,0,0,0ZM.58,5.55l.08,0,0,0,.11,0V5.37l-.12,0,0,0-.07,0Zm3,.05h0V5.36h0l-.07,0h0l-.07,0h0v.24h0l.08,0h0l.07,0Zm6.38-.24V5.6h0l.06,0h0l.08,0V5.33h0l-.06,0h0l-.07,0Zm1.69,0v.24l.23-.05V5.3Zm-10,.18.22.05h0V5.35h0l-.22,0Zm8.55-.21v.24h.08l.07,0h.09V5.29h-.08l-.07,0h-.09Zm-7,.23h0V5.32H3.21l-.11,0h0v.24h0l.11,0Zm8.65-.26v.24l.14,0h.08V5.23h0l0,0ZM1.39,5.47l.08,0,0,0,.1,0V5.29l-.08,0,0,0-.11,0Zm4.8,0H7.91l.57,0,.23,0,.11,0H9V5.14H8.95l-.11,0-.35,0-.11,0H8.14l-.34,0H5.72l-.34,0H5.14L5,5.19l-.34,0-.12,0H4.48v.27h.21l.12,0,.8.05h.58ZM3,5.5H3V5.28H2.93l-.11,0h0v.24h0l.11,0Zm7.53-.23v.24h0l.14,0h.05V5.24h0l-.14,0Zm.28,0v.24l.12,0h0l.09,0V5.18l-.08,0h0Zm-8.13.22.08,0V5.23l-.08,0h0l-.12,0v.24l.12,0Zm9.51-.23v.24l.23-.05V5.17Zm-11,.18.22.05V5.22l-.22-.05Zm1.32,0h0V5.17H2.37l-.15,0v.24l.2,0Zm8.63-.23v.24l.07,0h0l.11,0V5.13l-.11,0h0Zm-2,0V5.4l.21,0h.11l1-.14.11,0,.11,0,.1,0h0l.11,0,.23,0,.11,0,.44-.1.11,0,.33-.07.11,0,.11,0,.21-.06.11,0,.31-.09h0l.4-.12.08,0V4.23l-.18.05-.11,0-.32.1-.11,0-.21.06-.11,0-.22.06-.21,0-.11,0L11,4.86l-.12,0-.1,0-.11,0-.11,0-.23,0L10.2,5l-.68.09H9.41l-.11,0H9.09Zm-5.19.2.21,0h.11l.21,0V5.14H4.22l-.11,0H4L3.31,5,3.2,5,3,4.94l-.11,0-.11,0-.11,0-.11,0-.89-.19-.11,0-.21,0-.22-.06L1,4.5.77,4.44l-.11,0-.32-.1-.11,0L.05,4.23v.26l.08,0,.4.12h0l.31.09.11,0,.22.06.11,0,.11,0L1.76,5l.11,0,.33.07h0l.1,0,.11,0,.23,0,.11,0,.12,0H3l.11,0,.79.11Zm8.54-.18v.24h0l.18,0V5.09h0ZM.85,5.33h0l.21.05V5.15h0L.85,5.1Zm10.49-.21v.24l.23-.05V5.07ZM1.94,5.3l.23.05V5.12l-.23-.05Zm-1.36,0,.08,0,0,0,.11,0V5.08l-.08,0,0,0L.58,5v.24Zm12.13-.18v.24l.11,0,0,0,.09,0h0V5.14h0v0h0V5h0l-.08,0h0Zm-1.09,0V5.3l.23-.05V5Zm-10,.19.22.05h0V5.06H1.81L1.66,5ZM11.89,5v.24l.14,0,0,0h0V4.94L12,5l0,0ZM1.39,5.17l.12,0,0,0h.07V5h0l0,0-.14,0Zm4.91,0H7.8l1-.07.12,0h.11l.11,0h.11l.23,0h.12l.57-.08.11,0,.23,0,.11,0,.11,0,.23,0h.11l.77-.17.11,0,.11,0,.11,0,.11,0,.11,0,.11,0,.93-.28,0,0h0v0l0-.1,0-.09-.08-.15h0v0l0,0-.07-.11-.28-.37h0l0,0,0-.05h0l-.09-.1,0,0-.18-.19h0l-.08-.08h0l0,0h0l-.1-.09-.35-.29-.09-.07L11.51,2l-.08-.05h0l0,0-.06,0h0L11,1.67l-.31-.16-.12-.05-.06,0-.17-.08-.45-.17-.06,0-.27-.09L9.2,1l-.14,0h0L8.95.9l-.13,0-.08,0L8.31.78,7.82.71H7.63l-.47,0H6.5L5.86.7l-.13,0H5.61L5.16.79H5L4.55.9l-.09,0h0L4.12,1l-.31.09-.34.12,0,0-.13,0h0l-.13.06-.1,0-.15.07-.47.24-.26.15h0l-.06,0,0,0h0l-.32.21-.16.13-.19.16-.2.17,0,0h0l-.08.08h0L.86,3,.8,3h0l0,0h0l0,0,0,0h0l0,0-.14.2-.14.21,0,.06v0l0,0h0l0,0h0l-.05.08L.16,4l-.08.17h0l0,0L1,4.45l.11,0,.11,0,.11,0,.11,0,.11,0,.11,0,.77.17h.11l.23,0,.11,0,.11,0,.23,0,.11,0L3.89,5H4l.23,0h.11l.11,0h.11l.12,0,1,.07H6.3Zm5.87-.27v.24l.23-.05V4.87Zm-11,.18.22.05V4.93l-.22-.05ZM.85,5h0l.21.05V4.86L.85,4.8Zm11.58-.18v.23h0l.21,0h0V4.8h0ZM.58,5,.7,5l0,0L.81,5V4.78l-.08,0,0,0-.1,0Zm12.13-.18V5l.11,0,0,0,.09,0V4.72h0l-.07,0h0Zm-.1-2h0l0-.09ZM.95,2.75l0,.08h0ZM11.18,1.39l1.24,1.16h0L11.18,1.39ZM1.09,2.55h0L2.34,1.39Zm.12,0h0l.35-.31.22-.17L1.87,2l.07-.05.14-.09.11-.09h0l.09-.22Zm11-.09h0l-1-.93.09.22h0l.13.11h0l.18.12.21.15.1.08.06,0,0,0,0,0,.05,0Zm-1-.73h0l-.16-.39h0Zm-.41-.2.17.09v-.2l-.12,0ZM2.51,1.39v.2l.17-.09-.06-.08Zm8.31,0,0,.05,0-.06h0m-.57-.17.25.12.32-.07L9.1.61l0,.23h0l1,.31h.08ZM2.7,1.27,3,1.33l.26-.12h.08l1-.31h0l0-.23ZM8.95.49,9,.82H9L9,.49ZM9,.48l.06.33h0L9,.48ZM4.43.81h0L4.5.48h0Zm4.32,0h0l.13,0V.56H8.73l-.25.2h.09l.17,0h0M4.56.49,4.5.8h0L4.57.49Zm.07.06V.79L5,.74,4.78.56Zm3.3.12.34,0,.2-.16H7.93ZM5,.56l.2.16h0l.31,0V.56ZM7.88.66h0V.49h0Zm-.24,0H7.7l.12,0V.56H7.27l.09.06ZM5.7.56v.1h.1l.29,0h.08L6.25.56ZM5.65.49V.64l0-.14ZM6.81.57l.25,0L7,.56H6.81Zm-.29,0,0,0,.22,0ZM6.76.1V.55h0V.1Zm.06.28H8L6.81.19ZM5.53.39H6.71V.19Z"/><path d="M.58,4.72A24.72,24.72,0,0,0,7,5.59a54.88,54.88,0,0,0,5.91-.87c.08,0,.08,14,.08,14a15.61,15.61,0,0,1-6.56.89A20.78,20.78,0,0,1,.5,18.76Z"/></g></g></svg>