<svg xmlns="http://www.w3.org/2000/svg" xmlns:xlink="http://www.w3.org/1999/xlink" width="130" height="95.826" viewBox="0 0 62.57 25.85"><defs><style>.cls-1{fill:none;}.cls-2{fill:#676d81;}.cls-3{fill:#fff;}.cls-4{fill:#dcc020;}.cls-5{fill:#002c46;}.cls-6{fill:#e84d46;}.cls-7{clip-path:url(#clip-path);}.cls-8{fill:#2d314e;}</style><clipPath id="clip-path"><rect class="cls-1" x="4.05" y="1.64" width="13" height="5"/></clipPath></defs><g id="Layer_2" data-name="Layer 2"><g id="Layer_1-2" data-name="Layer 1"><rect class="cls-2" y="4.55" width="48.23" height="12.24" rx="2.55"/><path class="cls-3" d="M3.75,13.8V10.29h2c.72,0,1.08.43,1.08.9a.79.79,0,0,1-.65.8.86.86,0,0,1,.72.86,1,1,0,0,1-1.09,1ZM6,11.32c0-.22-.17-.37-.44-.37h-1v.74h1C5.82,11.69,6,11.54,6,11.32Zm.07,1.42c0-.22-.17-.4-.48-.4h-1v.8h1C5.88,13.14,6.06,13,6.06,12.74Z"/><path class="cls-3" d="M9.64,13.8,8.9,12.55H8.32V13.8h-.8V10.29H9.27a1.14,1.14,0,0,1,1.27,1.13,1,1,0,0,1-.83,1l.85,1.34Zm.08-2.38A.5.5,0,0,0,9.16,11H8.32v1h.84A.5.5,0,0,0,9.72,11.42Z"/><path class="cls-3" d="M11.18,13.8V10.29h2.65V11H12v.74h1.82v.65H12v.8h1.86v.66Z"/><path class="cls-3" d="M15.55,13.8,14.1,10.29H15l1,2.69,1-2.69H18L16.55,13.8Z"/><path class="cls-3" d="M18.38,13.8V10.29H21V11H19.18v.74H21v.65H19.18v.8H21v.66Z"/><path class="cls-3" d="M25,13.8V11.27L23.9,13.8h-.35L22.5,11.27V13.8h-.8V10.29h1.12l.91,2.19.91-2.19h1.12V13.8Z"/><path class="cls-3" d="M26.55,13.8V10.29H29.2V11H27.35v.74h1.81v.65H27.35v.8H29.2v.66Z"/><path class="cls-3" d="M32.45,13.8l-1.78-2.29V13.8h-.8V10.29h.82l1.73,2.2v-2.2h.8V13.8Z"/><path class="cls-3" d="M34.87,13.8V11H33.78v-.66h3V11H35.68V13.8Z"/><path class="cls-3" d="M37.32,13.8V10.29H40V11H38.12v.74h1.81v.65H38.12v.8H40v.66Z"/><rect class="cls-4" x="18.23" width="35" height="8.28" rx="1.78"/><path class="cls-5" d="M26.3,6.57,24.16,3.64V6.57h-1V2.08h1L26.26,4.9V2.08h1V6.57Z"/><path class="cls-5" d="M27.84,4.32a2.35,2.35,0,0,1,4.69,0,2.35,2.35,0,0,1-4.69,0Zm3.71,0a1.37,1.37,0,1,0-2.73,0,1.37,1.37,0,1,0,2.73,0Z"/><path class="cls-5" d="M34.41,6.57,32.68,2.08h1.08L35,5.52l1.24-3.44h1.08L35.6,6.57Z"/><path class="cls-5" d="M37.48,4.32a2.35,2.35,0,0,1,4.69,0,2.35,2.35,0,0,1-4.69,0Zm3.71,0a1.37,1.37,0,1,0-2.73,0,1.37,1.37,0,1,0,2.73,0Z"/><rect class="cls-6" width="21.1" height="8.28" rx="1.39"/><g class="cls-7"><path class="cls-3" d="M4.29,4.28A2.08,2.08,0,0,1,6.47,2a2.17,2.17,0,0,1,1.38.45l-.45.72a1.26,1.26,0,0,0-.93-.35A1.18,1.18,0,0,0,5.3,4.08a.34.34,0,0,0,0,.1,1.52,1.52,0,0,1,1.2-.57A1.45,1.45,0,0,1,8.11,5a1.61,1.61,0,0,1-1.8,1.5C4.88,6.54,4.29,5.51,4.29,4.28Zm2.8.79c0-.46-.42-.66-.87-.66a1.17,1.17,0,0,0-.91.42.9.9,0,0,0,.94.88C6.79,5.71,7.09,5.37,7.09,5.07Z"/><path class="cls-3" d="M11.89,6.46l-1.17-1.6L9.54,6.46H8.35l1.7-2.24L8.46,2.08H9.64l1.08,1.5,1.06-1.5H13l-1.6,2.13,1.7,2.25Z"/><path class="cls-3" d="M13.26,5.84l.53-.63a1.85,1.85,0,0,0,1.28.5c.57,0,.89-.23.89-.56s-.29-.5-1-.5h-.58V3.82H15c.52,0,.88-.15.88-.47s-.39-.52-.88-.52a1.74,1.74,0,0,0-1.19.46l-.5-.59A2.38,2.38,0,0,1,15.11,2c1.1,0,1.77.46,1.77,1.19a1.09,1.09,0,0,1-1,1,1.15,1.15,0,0,1,1.09,1c0,.76-.72,1.29-1.84,1.29A2.44,2.44,0,0,1,13.26,5.84Z"/></g><rect class="cls-6" x="44.07" y="1.8" width="16.7" height="16.7" rx="4" transform="translate(8.18 40.04) rotate(-45)"/><path class="cls-3" d="M49.54,13.06V8.45l-1,1.08-.77-.81,2-2H50.9v6.35Z"/><path class="cls-3" d="M51.71,12.15l.72-.9a2.47,2.47,0,0,0,1.74.72c.77,0,1.2-.33,1.2-.81s-.39-.73-1.28-.73l-.79,0V9.23h.79c.71,0,1.18-.21,1.18-.68s-.52-.75-1.18-.75a2.27,2.27,0,0,0-1.61.66l-.68-.85a3.12,3.12,0,0,1,2.43-1c1.48,0,2.4.67,2.4,1.73a1.55,1.55,0,0,1-1.39,1.44,1.6,1.6,0,0,1,1.48,1.53c0,1.09-1,1.86-2.5,1.86A3.18,3.18,0,0,1,51.71,12.15Z"/><path class="cls-8" d="M50.88,24.44a1.75,1.75,0,0,1,1.35-2.15,1.93,1.93,0,0,1,2.27,1.35,1.75,1.75,0,0,1-1.35,2.16,1.93,1.93,0,0,1-2.27-1.36"/></g></g></svg>