<?xml version="1.0" encoding="utf-8"?>
<!-- Generator: Adobe Illustrator 25.2.3, SVG Export Plug-In . SVG Version: 6.00 Build 0)  -->
<svg version="1.1" id="Layer_1" xmlns="http://www.w3.org/2000/svg" width="243.725" height="95.826" xmlns:xlink="http://www.w3.org/1999/xlink" x="0px" y="0px"
	 viewBox="0 0 243.7 95.8" style="enable-background:new 0 0 243.7 95.8;" xml:space="preserve">
<style type="text/css">
	.st0{opacity:0.92;fill:#2D314E;enable-background:new    ;}
	.st1{fill:none;}
	.st2{fill:#FFFFFF;}
	.st3{fill:#E84D46;}
	.st4{fill:#DCC020;}
	.st5{fill:#002C46;}
	.st6{fill:#676D81;}
</style>
<g id="xenon_1" transform="translate(-200.275 -451.873)">
	<g id="_24_julho_novo" transform="translate(200.275 451.873)">
		<path id="Path_11" class="st0" d="M126.2,92.6c-0.1,1.9-1.7,3.3-3.6,3.2c-1.9-0.1-3.3-1.7-3.2-3.6c0.1-1.8,1.6-3.2,3.4-3.2
			C124.8,89.1,126.3,90.7,126.2,92.6z"/>
	</g>
	<rect id="Rectangle_43" x="348" y="487" class="st1" width="96" height="26"/>
</g>
<g>
	<path class="st2" d="M125.8,61.6V50.9l-2.4,2.5l-1.8-1.9l4.6-4.6h2.7v14.7C128.9,61.6,125.8,61.6,125.8,61.6z"/>
	<path class="st2" d="M131.4,61.6v-2.5c6-4.4,7.8-5.9,7.8-7.7c0-1.3-1.2-1.9-2.4-1.9c-1.7,0-2.9,0.7-3.9,1.7l-1.8-2.1
		c1.4-1.7,3.6-2.4,5.7-2.4c3.1,0,5.6,1.8,5.6,4.7c0,2.5-2.1,4.7-5.9,7.5h6v2.8h-11.1L131.4,61.6L131.4,61.6z"/>
</g>
<g>
	<rect x="112.9" y="43.6" class="st3" width="37.5" height="27.5"/>
	<g>
		<rect x="0.6" y="25.2" class="st3" width="54.8" height="18.6"/>
	</g>
	<g>
		<path class="st2" d="M13.6,34.5c0-3.2,1.8-5.5,5-5.5c1.3,0,2.4,0.4,3.2,1.1l-1,1.7c-0.6-0.5-1.2-0.8-2.1-0.8c-1.6,0-2.7,1.3-2.7,3
			c0,0.1,0,0.1,0,0.2c0.5-0.7,1.6-1.4,2.7-1.4c1.9,0,3.6,1.2,3.6,3.5c0,2.1-1.7,3.7-4.1,3.7C15,40,13.6,37.5,13.6,34.5z M20,36.4
			c0-1.1-1-1.6-2-1.6c-0.8,0-1.6,0.4-2.1,1c0.1,1,0.7,2.2,2.2,2.2C19.4,38,20,37.1,20,36.4z"/>
		<path class="st2" d="M30.8,39.8l-2.7-3.9l-2.7,3.9h-2.7l3.9-5.5L23,29.1h2.7l2.4,3.7l2.4-3.7h2.7l-3.6,5.2l3.9,5.5H30.8z"/>
		<path class="st2" d="M33.8,38.3l1.2-1.5c0.7,0.8,1.9,1.2,2.9,1.2c1.3,0,2-0.6,2-1.4c0-0.8-0.7-1.2-2.1-1.2c-0.4,0-1.2,0-1.3,0v-2
			c0.2,0,0.9,0,1.3,0c1.2,0,2-0.4,2-1.1c0-0.8-0.9-1.3-2-1.3c-1,0-2,0.4-2.7,1.1L34,30.6c0.9-1,2.2-1.7,4.1-1.7c2.5,0,4,1.1,4,2.9
			c0,1.3-1.2,2.2-2.3,2.4c1.1,0.1,2.5,1,2.5,2.6c0,1.8-1.6,3.1-4.2,3.1C36.1,40,34.6,39.2,33.8,38.3z"/>
	</g>
	<g>
		<g>
			<rect x="55" y="25.2" class="st4" width="58.9" height="18.6"/>
		</g>
		<g>
			<path class="st5" d="M69.4,39.8l-5.1-7v7H62V29.1h2.4l5,6.7v-6.7h2.3v10.7H69.4z"/>
			<path class="st5" d="M73.3,34.5c0-3.2,2.4-5.5,5.6-5.5c3.2,0,5.6,2.3,5.6,5.5S82.1,40,78.9,40C75.6,40,73.3,37.7,73.3,34.5z
				 M82.1,34.5c0-2-1.3-3.5-3.3-3.5s-3.3,1.5-3.3,3.5s1.3,3.5,3.3,3.5C80.9,38,82.1,36.4,82.1,34.5z"/>
			<path class="st5" d="M88.8,39.8l-4.1-10.7h2.6l3,8.2l3-8.2h2.6l-4.1,10.7H88.8z"/>
			<path class="st5" d="M95.9,34.5c0-3.2,2.4-5.5,5.6-5.5c3.2,0,5.6,2.3,5.6,5.5s-2.4,5.5-5.6,5.5C98.3,40,95.9,37.7,95.9,34.5z
				 M104.8,34.5c0-2-1.3-3.5-3.3-3.5c-2,0-3.3,1.5-3.3,3.5s1.3,3.5,3.3,3.5C103.5,38,104.8,36.4,104.8,34.5z"/>
		</g>
	</g>
	<g>
		<rect x="0.6" y="43.6" class="st6" width="113.3" height="27.5"/>
		<path class="st2" d="M8.8,62.4V52.3h5.4c1.9,0,2.9,1.2,2.9,2.6c0,1.3-0.8,2.1-1.8,2.3c1.1,0.2,2,1.2,2,2.5c0,1.5-1,2.8-3,2.8H8.8
			V62.4z M14.9,55.2c0-0.6-0.5-1.1-1.2-1.1H11v2.1h2.7C14.4,56.3,14.9,55.9,14.9,55.2z M15.1,59.4c0-0.6-0.5-1.2-1.3-1.2H11v2.3h2.8
			C14.6,60.5,15.1,60.1,15.1,59.4z"/>
		<path class="st2" d="M24.7,62.4l-2-3.6h-1.6v3.6h-2.2V52.3h4.8c2.1,0,3.4,1.4,3.4,3.3c0,1.8-1.1,2.8-2.2,3l2.3,3.9h-2.5
			C24.7,62.5,24.7,62.4,24.7,62.4z M24.9,55.5c0-0.8-0.7-1.4-1.5-1.4h-2.3v2.7h2.3C24.2,56.9,24.9,56.4,24.9,55.5z"/>
		<path class="st2" d="M28.7,62.4V52.3h7.2v1.9h-5v2.1h4.9v1.9h-4.9v2.3h5v1.9H28.7z"/>
		<path class="st2" d="M40.4,62.4l-3.9-10.2H39l2.8,7.8l2.8-7.8h2.5l-3.9,10.2H40.4z"/>
		<path class="st2" d="M48,62.4V52.3h7.2v1.9h-5v2.1h4.9v1.9h-4.9v2.3h5v1.9H48z"/>
		<path class="st2" d="M65.7,62.4v-7.3l-2.9,7.3h-0.9L59,55.1v7.3h-2.2V52.3h3l2.5,6.4l2.5-6.4h3v10.2h-2.1
			C65.7,62.5,65.7,62.4,65.7,62.4z"/>
		<path class="st2" d="M69.9,62.4V52.3h7.2v1.9h-5v2.1H77v1.9h-4.9v2.3h5v1.9H69.9z"/>
		<path class="st2" d="M85.8,62.4L81,55.8v6.6h-2.2V52.3H81l4.7,6.4v-6.4h2.2v10.2h-2.1C85.8,62.5,85.8,62.4,85.8,62.4z"/>
		<path class="st2" d="M92.3,62.4v-8.3h-3v-1.9h8.1v1.9h-3v8.3H92.3z"/>
		<path class="st2" d="M98.8,62.4V52.3h7.2v1.9h-5v2.1h4.9v1.9H101v2.3h5v1.9H98.8z"/>
	</g>
</g>
<polygon class="st3" points="150.4,71.1 132.3,84.3 141.6,68.7 "/>
<g>
	<path class="st2" d="M119.6,57.4c0-3.8,1.9-7.6,6.1-7.6c4.2,0,6.1,3.8,6.1,7.6s-1.9,7.6-6.1,7.6C121.4,65,119.6,61.2,119.6,57.4z
		 M128.5,57.4c0-2.7-0.8-4.8-2.9-4.8c-2.1,0-2.9,2.1-2.9,4.8s0.8,4.8,2.9,4.8C127.7,62.2,128.5,60.1,128.5,57.4z"/>
	<path class="st2" d="M133.9,63.5l1.4-2.4c0.8,0.7,1.6,1.1,2.9,1.1c2.4,0,3.7-2,3.7-4.1c0-0.1,0-0.2,0-0.3c-0.7,1-2.2,1.9-3.8,1.9
		c-2.6,0-5-1.7-5-4.8c0-2.9,2.3-5,5.6-5c4.5,0,6.3,3.4,6.3,7.6c0,4.4-2.5,7.6-6.8,7.6C136.4,65,135,64.4,133.9,63.5z M141.9,55.6
		c-0.1-1.4-0.9-3-3-3c-1.7,0-2.6,1.1-2.6,2.2c0,1.5,1.3,2.2,2.7,2.2C140.1,57,141.2,56.4,141.9,55.6z"/>
</g>
</svg>
