<?xml version="1.0" encoding="utf-8"?>
<!-- Generator: Adobe Illustrator 25.2.3, SVG Export Plug-In . SVG Version: 6.00 Build 0)  -->
<svg version="1.1" id="Layer_1" xmlns="http://www.w3.org/2000/svg" width="243.725" height="95.826" xmlns:xlink="http://www.w3.org/1999/xlink" x="0px" y="0px"
	 viewBox="0 0 243.7 95.8" style="enable-background:new 0 0 243.7 95.8;" xml:space="preserve">
<style type="text/css">
	.st0{opacity:0.92;fill:#2D314E;enable-background:new    ;}
	.st1{fill:none;}
	.st2{fill:#FFFFFF;}
	.st3{fill:#E84D46;}
	.st4{fill:#DCC020;}
	.st5{fill:#676D81;}
	.st6{fill:#002C46;}
</style>
<g id="xenon_1" transform="translate(-200.275 -451.873)">
	<g id="_24_julho_novo" transform="translate(200.275 451.873)">
		<path id="Path_11" class="st0" d="M126.2,92.6c-0.1,1.9-1.7,3.3-3.6,3.2c-1.9-0.1-3.3-1.7-3.2-3.6c0.1-1.8,1.6-3.2,3.4-3.2
			C124.8,89.1,126.3,90.7,126.2,92.6z"/>
	</g>
	<rect id="Rectangle_43" x="348" y="487" class="st1" width="96" height="26"/>
</g>
<g>
	<path class="st2" d="M125.8,61.6V50.9l-2.4,2.5l-1.8-1.9l4.6-4.6h2.7v14.7C128.9,61.6,125.8,61.6,125.8,61.6z"/>
	<path class="st2" d="M131.4,61.6v-2.5c6-4.4,7.8-5.9,7.8-7.7c0-1.3-1.2-1.9-2.4-1.9c-1.7,0-2.9,0.7-3.9,1.7l-1.8-2.1
		c1.4-1.7,3.6-2.4,5.7-2.4c3.1,0,5.6,1.8,5.6,4.7c0,2.5-2.1,4.7-5.9,7.5h6v2.8h-11.1L131.4,61.6L131.4,61.6z"/>
</g>
<g>
	<rect x="112.9" y="43.6" class="st3" width="37.5" height="27.5"/>
	<g>
		<rect x="0.6" y="25.2" class="st3" width="54.8" height="18.6"/>
	</g>
	<g>
		<g>
			<rect x="55" y="25.2" class="st4" width="58.9" height="18.6"/>
		</g>
	</g>
	<g>
		<rect x="0.6" y="43.6" class="st5" width="113.3" height="27.5"/>
	</g>
</g>
<polygon class="st3" points="150.4,71.1 132.3,84.3 141.6,68.7 "/>
<g>
	<path class="st2" d="M125.7,65c-1,0-1.8-0.2-2.6-0.7c-0.7-0.4-1.3-1-1.8-1.8s-0.8-1.6-1-2.4c-0.2-0.9-0.3-1.8-0.3-2.7
		c0-0.9,0.1-1.8,0.3-2.7c0.2-0.9,0.5-1.7,1-2.4c0.4-0.7,1-1.3,1.8-1.8c0.7-0.4,1.6-0.7,2.6-0.7c1,0,1.8,0.2,2.6,0.7s1.3,1,1.8,1.8
		c0.4,0.7,0.8,1.5,1,2.4c0.2,0.9,0.3,1.8,0.3,2.7c0,0.9-0.1,1.8-0.3,2.7c-0.2,0.9-0.5,1.7-1,2.4s-1,1.3-1.8,1.8S126.6,65,125.7,65z
		 M123.5,62.4c0.6,0.6,1.3,0.9,2.2,0.9c0.9,0,1.6-0.3,2.2-0.9c0.6-0.6,1-1.3,1.2-2.2c0.2-0.9,0.3-1.8,0.3-2.9c0-1.1-0.1-2-0.3-2.9
		c-0.2-0.9-0.6-1.6-1.2-2.2c-0.6-0.6-1.3-0.9-2.2-0.9c-0.9,0-1.6,0.3-2.2,0.9c-0.6,0.6-1,1.3-1.2,2.2c-0.2,0.9-0.3,1.8-0.3,2.9
		c0,1.1,0.1,2,0.3,2.9C122.5,61.1,122.9,61.8,123.5,62.4z"/>
	<path class="st2" d="M138.3,64.9c-1.7,0-3-0.6-4.1-1.8l0.9-1.4c0.8,1,1.9,1.5,3.1,1.5c0.9,0,1.7-0.3,2.4-0.9
		c0.6-0.6,1.1-1.3,1.4-2.1c0.3-0.8,0.4-1.8,0.4-2.8c0-0.2,0-0.4,0-0.6c-0.4,0.6-0.9,1.1-1.7,1.6s-1.6,0.7-2.4,0.7
		c-1.4,0-2.5-0.4-3.5-1.2c-0.9-0.8-1.4-2-1.4-3.5c0-1.3,0.5-2.4,1.4-3.4c0.9-0.9,2.2-1.4,3.7-1.4c1,0,1.8,0.2,2.6,0.6
		c0.7,0.4,1.3,1,1.8,1.7c0.4,0.7,0.8,1.5,1,2.4s0.3,1.8,0.3,2.9c0,1.4-0.2,2.6-0.6,3.7c-0.4,1.1-1.1,2-2,2.8
		C140.8,64.6,139.6,64.9,138.3,64.9z M138.7,57.7c0.7,0,1.4-0.2,2.1-0.6c0.7-0.4,1.2-0.9,1.6-1.6c0-0.5-0.1-1-0.3-1.4
		c-0.2-0.5-0.4-0.9-0.6-1.3c-0.3-0.4-0.7-0.7-1.1-1c-0.5-0.2-1-0.4-1.6-0.4c-1,0-1.9,0.3-2.5,1c-0.6,0.6-0.9,1.4-0.9,2.1
		c0,1,0.3,1.8,0.9,2.4C136.9,57.4,137.7,57.7,138.7,57.7z"/>
</g>
<g>
	<path class="st2" d="M18.4,39.8c-0.7,0-1.3-0.1-1.8-0.4c-0.5-0.3-0.9-0.7-1.2-1.2s-0.5-1.1-0.7-1.7c-0.2-0.6-0.2-1.3-0.2-2
		c0-1.5,0.4-2.8,1.1-3.8s1.8-1.5,3.1-1.5c1.2,0,2.1,0.4,2.9,1.2l-0.7,1c-0.6-0.7-1.3-1.1-2.2-1.1c-0.9,0-1.7,0.4-2.2,1.2
		s-0.8,1.8-0.8,2.9v0.4c0.3-0.4,0.7-0.8,1.2-1.1c0.5-0.3,1.1-0.5,1.7-0.5c1,0,1.8,0.3,2.4,0.9c0.6,0.6,1,1.4,1,2.4
		c0,0.9-0.3,1.7-1,2.4C20.4,39.4,19.5,39.8,18.4,39.8z M18.4,38.6c0.7,0,1.3-0.2,1.7-0.7c0.4-0.5,0.6-1,0.6-1.5
		c0-0.7-0.2-1.3-0.7-1.7c-0.4-0.4-1-0.6-1.7-0.6c-0.5,0-1,0.1-1.5,0.4s-0.8,0.7-1.1,1.1c0.1,0.8,0.3,1.4,0.7,2
		C16.9,38.3,17.6,38.6,18.4,38.6z"/>
	<path class="st2" d="M32.7,39.6h-1.6l-3.3-4.4l-3.3,4.4H23l4-5.3l-3.8-5h1.6l3.1,4.1l3.1-4.1h1.6l-3.8,5L32.7,39.6z"/>
	<path class="st2" d="M37,39.8c-0.8,0-1.6-0.2-2.2-0.5c-0.6-0.3-1.1-0.7-1.5-1.2l0.8-0.8c0.3,0.4,0.7,0.7,1.2,1
		c0.5,0.2,1.1,0.4,1.7,0.4c0.7,0,1.3-0.2,1.8-0.5c0.4-0.4,0.7-0.8,0.7-1.4c0-0.6-0.2-1.1-0.7-1.4c-0.5-0.3-1.1-0.4-1.9-0.4
		c-0.6,0-1,0-1.1,0v-1.2c0.1,0,0.5,0,1.1,0c0.7,0,1.3-0.1,1.7-0.4c0.5-0.3,0.7-0.7,0.7-1.3c0-0.5-0.2-1-0.7-1.3
		c-0.4-0.3-1-0.5-1.7-0.5c-1,0-2,0.4-2.7,1.3l-0.7-0.8c0.9-1.1,2.1-1.6,3.5-1.6c1,0,1.9,0.2,2.5,0.7c0.7,0.5,1,1.2,1,2
		c0,0.7-0.2,1.2-0.7,1.6c-0.5,0.4-1,0.7-1.5,0.8c0.6,0.1,1.1,0.3,1.6,0.8s0.8,1,0.8,1.8c0,0.9-0.3,1.6-1,2.1
		C39.1,39.5,38.2,39.8,37,39.8z"/>
</g>
<g>
	<path class="st6" d="M72.1,39.6h-1.2l-6-8.2v8.2h-1.3V29.2h1.3l6,8.1v-8.1h1.3V39.6z"/>
	<path class="st6" d="M82.9,38.2c-1,1-2.2,1.5-3.7,1.5s-2.7-0.5-3.7-1.5c-1-1-1.4-2.3-1.4-3.8c0-1.5,0.5-2.8,1.4-3.8
		c1-1,2.2-1.5,3.7-1.5s2.7,0.5,3.7,1.5c1,1,1.4,2.3,1.4,3.8C84.4,36,83.9,37.2,82.9,38.2z M79.2,38.6c1.1,0,2.1-0.4,2.8-1.2
		c0.7-0.8,1.1-1.8,1.1-3c0-1.2-0.4-2.2-1.1-3c-0.7-0.8-1.6-1.2-2.8-1.2c-1.1,0-2.1,0.4-2.8,1.2c-0.7,0.8-1,1.8-1,3
		c0,1.2,0.3,2.2,1,3C77.2,38.2,78.1,38.6,79.2,38.6z"/>
	<path class="st6" d="M90.8,39.6h-1.6L85,29.2h1.5l3.5,8.9l3.5-8.9h1.5L90.8,39.6z"/>
	<path class="st6" d="M104.4,38.2c-1,1-2.2,1.5-3.7,1.5s-2.7-0.5-3.7-1.5c-1-1-1.4-2.3-1.4-3.8c0-1.5,0.5-2.8,1.4-3.8
		c1-1,2.2-1.5,3.7-1.5s2.7,0.5,3.7,1.5c1,1,1.4,2.3,1.4,3.8C105.8,36,105.3,37.2,104.4,38.2z M100.7,38.6c1.1,0,2.1-0.4,2.8-1.2
		c0.7-0.8,1.1-1.8,1.1-3c0-1.2-0.4-2.2-1.1-3c-0.7-0.8-1.6-1.2-2.8-1.2c-1.1,0-2.1,0.4-2.8,1.2c-0.7,0.8-1,1.8-1,3
		c0,1.2,0.3,2.2,1,3C98.6,38.2,99.5,38.6,100.7,38.6z"/>
</g>
<g>
	<path class="st2" d="M14.7,62.5H10V52.2h4.6c0.9,0,1.6,0.2,2.1,0.7c0.5,0.5,0.8,1.1,0.8,1.9c0,0.6-0.2,1.1-0.5,1.6
		c-0.4,0.4-0.8,0.7-1.3,0.8c0.5,0.1,1,0.4,1.4,0.9c0.4,0.5,0.6,1.1,0.6,1.7c0,0.8-0.3,1.5-0.8,2C16.3,62.3,15.6,62.5,14.7,62.5z
		 M14.3,56.7c0.6,0,1-0.2,1.3-0.5s0.5-0.7,0.5-1.2s-0.2-0.9-0.5-1.2c-0.3-0.3-0.8-0.5-1.3-0.5h-3.1v3.3H14.3z M14.4,61.4
		c0.6,0,1.1-0.2,1.4-0.5c0.3-0.3,0.5-0.8,0.5-1.3c0-0.5-0.2-0.9-0.5-1.3c-0.3-0.3-0.8-0.5-1.4-0.5h-3.2v3.6H14.4z"/>
	<path class="st2" d="M27.2,62.5h-1.5l-2.6-4.1H21v4.1h-1.3V52.2h4.2c1,0,1.7,0.3,2.3,0.9s0.9,1.3,0.9,2.3c0,0.9-0.3,1.6-0.8,2.1
		c-0.5,0.5-1.2,0.8-1.9,0.9L27.2,62.5z M23.7,57.3c0.6,0,1.1-0.2,1.5-0.6c0.4-0.4,0.6-0.8,0.6-1.4c0-0.6-0.2-1.1-0.6-1.4
		c-0.4-0.4-0.9-0.5-1.5-0.5H21v4H23.7z"/>
	<path class="st2" d="M35.9,62.5h-6.8V52.2h6.8v1.1h-5.5v3.3h5.4v1.1h-5.4v3.6h5.5V62.5z"/>
	<path class="st2" d="M42.7,62.5h-1.6l-4.2-10.3h1.5l3.5,8.9l3.5-8.9h1.5L42.7,62.5z"/>
	<path class="st2" d="M54.9,62.5h-6.8V52.2h6.8v1.1h-5.5v3.3h5.4v1.1h-5.4v3.6h5.5V62.5z"/>
	<path class="st2" d="M67.1,62.5h-1.3v-8.7l-3.5,8.7h-0.5l-3.5-8.7v8.7H57V52.2h1.8l3.2,8l3.2-8h1.8V62.5z"/>
	<path class="st2" d="M76.3,62.5h-6.8V52.2h6.8v1.1h-5.5v3.3h5.4v1.1h-5.4v3.6h5.5V62.5z"/>
	<path class="st2" d="M86.9,62.5h-1.2l-6-8.2v8.2h-1.3V52.2h1.3l6,8.1v-8.1h1.3V62.5z"/>
	<path class="st2" d="M93.2,62.5h-1.3v-9.2h-3.3v-1.1h7.8v1.1h-3.3V62.5z"/>
	<path class="st2" d="M104.9,62.5h-6.8V52.2h6.8v1.1h-5.5v3.3h5.4v1.1h-5.4v3.6h5.5V62.5z"/>
</g>
</svg>
