<?xml version="1.0" encoding="utf-8"?>
<!-- Generator: Adobe Illustrator 25.2.3, SVG Export Plug-In . SVG Version: 6.00 Build 0)  -->
<svg version="1.1" id="Layer_1" xmlns="http://www.w3.org/2000/svg" width="240.109" height="95" xmlns:xlink="http://www.w3.org/1999/xlink" x="0px" y="0px"
	 viewBox="0 0 240.1 95" style="enable-background:new 0 0 240.1 95;" xml:space="preserve">
<style type="text/css">
	.st0{fill:#676D81;}
	.st1{fill:#55BCBD;}
	.st2{fill:#FFFFFF;}
	.st3{fill:#002C46;}
	.st4{opacity:0.92;fill:#2D314E;enable-background:new    ;}
</style>
<g>
	<g id="Layer_2_1_">
		<g id="Layer_1-2">
			<g>
				<rect x="153.8" y="31.1" class="st0" width="86.9" height="25.3"/>
			</g>
			<rect x="120.2" y="31.1" class="st1" width="34.4" height="25.3"/>
			<g>
				<rect x="197.1" y="13.9" class="st1" width="43.5" height="17.1"/>
			</g>
		</g>
	</g>
	<g>
		<g>
			<path class="st2" d="M164.1,43.8c0-2.9,2.2-4.8,5-4.8c2.1,0,3.3,1.1,3.9,2.3l-1.7,0.9c-0.3-0.7-1.2-1.3-2.2-1.3
				c-1.7,0-2.9,1.3-2.9,3c0,1.7,1.2,3,2.9,3c1,0,1.8-0.6,2.2-1.3l1.7,0.9c-0.6,1.2-1.8,2.3-3.9,2.3
				C166.3,48.6,164.1,46.5,164.1,43.8z"/>
			<path class="st2" d="M180.5,48.4l-0.6-1.6h-4l-0.6,1.6H173l3.6-9.3h2.6l3.6,9.3H180.5z M178,41.1l-1.5,4h2.9L178,41.1z"/>
			<path class="st2" d="M188.9,48.4l-1.8-3.3h-1.5v3.3h-1.9V39h4.4c1.9,0,3.2,1.2,3.2,3c0,1.6-1.1,2.6-2.1,2.8l2.1,3.5H188.9z
				 M189.1,42c0-0.7-0.6-1.2-1.3-1.2h-2.1v2.6h2.1C188.5,43.3,189.1,42.7,189.1,42z"/>
			<path class="st2" d="M192.7,48.4V39h3.6c2.9,0,5,1.8,5,4.6s-2.1,4.8-5,4.8H192.7z M199.3,43.8c0-1.6-1-2.9-2.9-2.9h-1.7v5.8h1.7
				C198.1,46.6,199.3,45.3,199.3,43.8z"/>
			<path class="st2" d="M202.3,43.8c0-2.8,2.1-4.8,4.8-4.8c2.8,0,4.8,2.1,4.8,4.8c0,2.8-2.1,4.8-4.8,4.8
				C204.4,48.6,202.3,46.5,202.3,43.8z M210.1,43.8c0-1.7-1.1-3-2.8-3s-2.8,1.3-2.8,3s1.1,3,2.8,3C208.9,46.8,210.1,45.4,210.1,43.8
				z"/>
			<path class="st2" d="M212.9,47.1l1.1-1.6c0.6,0.7,1.7,1.2,2.9,1.2c1.1,0,1.6-0.5,1.6-1.1c0-1.6-5.4-0.5-5.4-4
				c0-1.6,1.3-2.8,3.5-2.8c1.5,0,2.7,0.5,3.6,1.3l-1.1,1.5c-0.7-0.7-1.8-1-2.7-1c-0.9,0-1.3,0.3-1.3,1c0,1.5,5.4,0.5,5.4,4
				c0,1.7-1.2,3-3.8,3C214.9,48.6,213.7,48,212.9,47.1z"/>
			<path class="st2" d="M221.4,43.8c0-2.8,2.1-4.8,4.8-4.8c2.8,0,4.8,2.1,4.8,4.8c0,2.8-2.1,4.8-4.8,4.8
				C223.5,48.6,221.4,46.5,221.4,43.8z M229.2,43.8c0-1.7-1.1-3-2.8-3c-1.6,0-2.8,1.3-2.8,3s1.1,3,2.8,3
				C228.1,46.8,229.2,45.4,229.2,43.8z"/>
		</g>
		<g>
			<path class="st3" d="M205,27.4v-7.2l-1.6,1.7l-1.2-1.2l3-3.2h1.8v9.9H205z"/>
			<path class="st3" d="M208.8,27.4v-1.7c4-2.9,5.2-4,5.2-5.2c0-0.9-0.7-1.3-1.6-1.3c-1.1,0-1.9,0.5-2.7,1.1l-1.2-1.3
				c1-1.1,2.4-1.6,3.8-1.6c2.1,0,3.8,1.2,3.8,3.2c0,1.7-1.3,3.2-3.9,5h4v1.6L208.8,27.4L208.8,27.4L208.8,27.4z"/>
			<path class="st3" d="M224.2,27.4l-2.4-3.6l-2.4,3.6h-2.4l3.5-5l-3.3-4.7h2.4l2.3,3.4l2.2-3.4h2.6l-3.3,4.8l3.5,5.1h-2.7
				L224.2,27.4L224.2,27.4z"/>
			<path class="st3" d="M227.1,22.5c0-2.9,1.7-5.1,4.6-5.1c1.2,0,2.2,0.3,2.9,1l-1,1.6c-0.5-0.5-1.1-0.7-1.9-0.7
				c-1.5,0-2.4,1.2-2.4,2.8c0,0.1,0,0.1,0,0.3c0.5-0.6,1.5-1.2,2.6-1.2c1.8,0,3.4,1.1,3.4,3.2c0,1.9-1.6,3.4-3.8,3.4
				C228.4,27.6,227.1,25.3,227.1,22.5z M233.1,24.3c0-1-0.9-1.5-1.8-1.5c-0.7,0-1.5,0.3-1.9,1c0.1,1,0.6,1.9,1.9,1.9
				C232.5,25.8,233.1,25,233.1,24.3z"/>
		</g>
	</g>
</g>
<g id="_24_julho_novo" transform="translate(200.275 451.873)">
	<path id="Path_11" class="st4" d="M-78.5-376.5c-0.1,1.6-1.5,2.9-3.1,2.8s-2.9-1.5-2.8-3.1c0.1-1.6,1.4-2.8,2.9-2.8
		C-79.7-379.6-78.4-378.2-78.5-376.5z"/>
</g>
<polygon class="st1" points="120.2,54.4 120.2,67.9 129,54.4 "/>
<g>
	<path class="st3" d="M124.7,43.9c0-3.8,1.9-7.6,6.1-7.6c4.2,0,6.1,3.8,6.1,7.6s-1.9,7.6-6.1,7.6C126.5,51.4,124.7,47.6,124.7,43.9z
		 M133.6,43.9c0-2.7-0.8-4.8-2.9-4.8c-2.1,0-2.9,2.1-2.9,4.8s0.8,4.8,2.9,4.8C132.8,48.7,133.6,46.6,133.6,43.9z"/>
	<path class="st3" d="M138.6,49.2l1.7-2.2c1,1,2.4,1.6,3.9,1.6c1.7,0,2.7-1,2.7-2.2c0-1.3-1-2.2-2.6-2.2c-1.2,0-2.2,0.4-3.1,1.2
		l-2.2-0.6v-8.4h10.1v2.8h-7v3.6c0.7-0.7,1.9-1.2,3.2-1.2c2.5,0,4.7,1.8,4.7,4.8c0,3.1-2.3,5.1-5.9,5.1
		C141.7,51.4,139.9,50.6,138.6,49.2z"/>
</g>
</svg>
