<?xml version="1.0" encoding="utf-8"?>
<!-- Generator: Adobe Illustrator 25.2.3, SVG Export Plug-In . SVG Version: 6.00 Build 0)  -->
<svg version="1.1" id="Layer_1" xmlns="http://www.w3.org/2000/svg" width="240.109" height="95" xmlns:xlink="http://www.w3.org/1999/xlink" x="0px" y="0px"
	 viewBox="0 0 277.5 88.6" style="enable-background:new 0 0 277.5 88.6;" xml:space="preserve">
<style type="text/css">
	.st0{fill:#676D81;}
	.st1{fill:#55BCBD;}
	.st2{fill:#FFFFFF;}
	.st3{fill:#002C46;}
	.st4{opacity:0.92;fill:#2D314E;enable-background:new    ;}
</style>
<g>
	<g id="Layer_2_1_">
		<g id="Layer_1-2">
			<g>
				<rect x="177.7" y="25.4" class="st0" width="100.4" height="29.2"/>
			</g>
			<rect x="138.9" y="25.4" class="st1" width="39.8" height="29.2"/>
			<g>
				<rect x="227.8" y="5.5" class="st1" width="50.3" height="19.8"/>
			</g>
		</g>
	</g>
	<g>
		<g>
			<path class="st2" d="M189.7,40c0-3.4,2.5-5.6,5.8-5.6c2.4,0,3.8,1.3,4.5,2.7l-2,1c-0.4-0.8-1.4-1.5-2.5-1.5c-2,0-3.4,1.5-3.4,3.5
				c0,2,1.4,3.5,3.4,3.5c1.1,0,2.1-0.7,2.5-1.5l2,1c-0.7,1.4-2.1,2.7-4.5,2.7C192.2,45.6,189.7,43.2,189.7,40z"/>
			<path class="st2" d="M208.6,45.3l-0.7-1.8h-4.6l-0.7,1.8h-2.7l4.2-10.8h3l4.2,10.8H208.6z M205.7,36.9l-1.7,4.6h3.4L205.7,36.9z"
				/>
			<path class="st2" d="M218.3,45.3l-2.1-3.8h-1.7v3.8h-2.2V34.5h5.1c2.2,0,3.7,1.4,3.7,3.5c0,1.8-1.3,3-2.4,3.2l2.4,4.1H218.3z
				 M218.6,38c0-0.8-0.7-1.4-1.5-1.4h-2.4v3h2.4C217.9,39.4,218.6,38.8,218.6,38z"/>
			<path class="st2" d="M222.7,45.3V34.5h4.2c3.4,0,5.8,2.1,5.8,5.3s-2.4,5.5-5.8,5.5H222.7z M230.3,40c0-1.8-1.1-3.4-3.4-3.4h-2
				v6.7h2C229,43.3,230.3,41.8,230.3,40z"/>
			<path class="st2" d="M233.8,40c0-3.2,2.4-5.6,5.6-5.6s5.6,2.4,5.6,5.6c0,3.2-2.4,5.6-5.6,5.6S233.8,43.2,233.8,40z M242.8,40
				c0-2-1.3-3.5-3.2-3.5s-3.2,1.5-3.2,3.5c0,2,1.3,3.5,3.2,3.5C241.4,43.5,242.8,41.9,242.8,40z"/>
			<path class="st2" d="M246,43.8l1.3-1.8c0.7,0.8,2,1.4,3.4,1.4c1.3,0,1.8-0.6,1.8-1.3c0-1.8-6.2-0.6-6.2-4.6
				c0-1.8,1.5-3.2,4.1-3.2c1.7,0,3.1,0.6,4.2,1.5l-1.3,1.7c-0.8-0.8-2.1-1.1-3.1-1.1s-1.5,0.4-1.5,1.1c0,1.7,6.2,0.6,6.2,4.6
				c0,2-1.4,3.5-4.4,3.5C248.4,45.6,247,44.9,246,43.8z"/>
			<path class="st2" d="M255.9,40c0-3.2,2.4-5.6,5.6-5.6c3.2,0,5.6,2.4,5.6,5.6c0,3.2-2.4,5.6-5.6,5.6
				C258.3,45.6,255.9,43.2,255.9,40z M264.9,40c0-2-1.3-3.5-3.2-3.5s-3.2,1.5-3.2,3.5c0,2,1.3,3.5,3.2,3.5S264.9,41.9,264.9,40z"/>
		</g>
		<g>
			<path class="st3" d="M145.3,40c0-4.1,2-8,6.5-8s6.5,4.1,6.5,8s-2,8-6.5,8C147.2,48,145.3,43.9,145.3,40z M154.8,40
				c0-2.8-0.8-5.1-3.1-5.1s-3.1,2.2-3.1,5.1s0.8,5.1,3.1,5.1S154.8,42.8,154.8,40z"/>
			<path class="st3" d="M159.9,43.6c0-1.8,1.4-3.4,3.4-3.9c-1.7-0.6-3.1-1.7-3.1-3.7c0-3,3.1-4.1,6-4.1c2.8,0,6,1.1,6,4.1
				c0,2-1.4,3.1-3.1,3.7c1.8,0.7,3.4,2.1,3.4,3.9c0,3-3,4.4-6.3,4.4S159.9,46.6,159.9,43.6z M169,43.2c0-1.3-2-1.8-3-2
				c-1,0.1-3,0.7-3,2c0,1.1,1.3,1.8,3,1.8C167.6,45,169,44.3,169,43.2z M168.7,36.6c0-1.1-1.1-1.7-2.7-1.7c-1.5,0-2.7,0.6-2.7,1.7
				c0,1.1,1.7,1.7,2.7,1.8C167,38.1,168.7,37.7,168.7,36.6z"/>
		</g>
		<g>
			<path class="st3" d="M236.9,21.1v-8.3l-1.8,2l-1.4-1.4l3.5-3.7h2.1v11.4H236.9z"/>
			<path class="st3" d="M241.3,21.1v-2c4.6-3.4,6-4.6,6-6c0-1-0.8-1.5-1.8-1.5c-1.3,0-2.2,0.6-3.1,1.3l-1.4-1.5
				c1.1-1.3,2.8-1.8,4.4-1.8c2.4,0,4.4,1.4,4.4,3.7c0,2-1.5,3.7-4.5,5.8h4.6V21h-8.6V21.1z"/>
			<path class="st3" d="M259.1,21.1l-2.8-4.2l-2.8,4.2h-2.8l4.1-5.8L251,9.9h2.8l2.7,3.9l2.5-3.9h3l-3.8,5.5l4.1,5.9h-3.1V21.1z"/>
			<path class="st3" d="M262.5,15.4c0-3.4,2-5.9,5.3-5.9c1.4,0,2.5,0.4,3.4,1.1l-1.1,1.8c-0.6-0.6-1.3-0.8-2.2-0.8
				c-1.7,0-2.8,1.4-2.8,3.2c0,0.1,0,0.1,0,0.3c0.6-0.7,1.7-1.4,3-1.4c2.1,0,3.9,1.3,3.9,3.7c0,2.2-1.8,3.9-4.4,3.9
				C264,21.3,262.5,18.6,262.5,15.4z M269.4,17.5c0-1.1-1-1.7-2.1-1.7c-0.8,0-1.7,0.4-2.2,1.1c0.1,1.1,0.7,2.2,2.2,2.2
				C268.7,19.2,269.4,18.3,269.4,17.5z"/>
		</g>
	</g>
</g>
<g id="_24_julho_novo" transform="translate(200.275 451.873)">
	<path id="Path_11" class="st4" d="M-59.5-375.4c-0.1,1.9-1.7,3.3-3.6,3.2c-1.9-0.1-3.3-1.7-3.2-3.6c0.1-1.8,1.6-3.2,3.4-3.2
		C-60.9-378.9-59.4-377.3-59.5-375.4z"/>
</g>
<polygon class="st1" points="138.9,52.3 138.9,67.9 149.1,52.3 "/>
</svg>
