<svg xmlns="http://www.w3.org/2000/svg" width="120" height="95.826" viewBox="0 0 54.21 27.1"><defs><style>.cls-1{fill:#676d81;}.cls-2{fill:#fff;}.cls-3{fill:#55bcbd;}.cls-4{fill:#002c46;}.cls-5{fill:#2d314e;}</style></defs><g id="Layer_2" data-name="Layer 2"><g id="Layer_1-2" data-name="Layer 1"><rect class="cls-1" x="10.42" y="5.28" width="43.79" height="12.24" rx="2.43"/><path class="cls-2" d="M23.87,11.71a1.85,1.85,0,0,1,2-1.82,1.72,1.72,0,0,1,1.56.86l-.69.31a1,1,0,0,0-.87-.5,1.15,1.15,0,1,0,0,2.29,1,1,0,0,0,.87-.5l.69.31a1.74,1.74,0,0,1-1.56.86A1.85,1.85,0,0,1,23.87,11.71Z"/><path class="cls-2" d="M30.54,13.45l-.23-.59H28.7l-.24.59h-.9L29,10h1l1.45,3.5Zm-1-2.75-.58,1.5h1.17Z"/><path class="cls-2" d="M34,13.45l-.74-1.24h-.58v1.24h-.8V10h1.75a1.14,1.14,0,0,1,1.26,1.13,1,1,0,0,1-.82,1l.85,1.33ZM34,11.08a.5.5,0,0,0-.56-.47h-.84v.94h.84A.5.5,0,0,0,34,11.08Z"/><path class="cls-2" d="M35.5,13.45V10H37a1.76,1.76,0,1,1,0,3.5Zm2.65-1.75A1.06,1.06,0,0,0,37,10.61h-.69V12.8H37A1.09,1.09,0,0,0,38.15,11.7Z"/><path class="cls-2" d="M39.39,11.71a2,2,0,1,1,2,1.81A1.83,1.83,0,0,1,39.39,11.71Zm3.1,0a1.14,1.14,0,1,0-1.14,1.14A1.09,1.09,0,0,0,42.49,11.71Z"/><path class="cls-2" d="M43.66,13l.43-.58a1.76,1.76,0,0,0,1.2.47c.44,0,.65-.18.65-.38,0-.61-2.16-.19-2.16-1.5,0-.59.54-1.07,1.42-1.07a2.16,2.16,0,0,1,1.46.49l-.44.55a1.7,1.7,0,0,0-1.09-.38c-.34,0-.53.14-.53.35,0,.55,2.15.18,2.15,1.48,0,.64-.49,1.13-1.5,1.13A2.24,2.24,0,0,1,43.66,13Z"/><path class="cls-2" d="M47.15,11.71a2,2,0,1,1,2,1.81A1.83,1.83,0,0,1,47.15,11.71Zm3.09,0a1.14,1.14,0,1,0-2.27,0,1.14,1.14,0,1,0,2.27,0Z"/><rect class="cls-3" x="1.8" y="3.05" width="16.7" height="16.7" rx="4" transform="translate(-5.09 10.52) rotate(-45)"/><path class="cls-4" d="M4.39,11.14C4.39,9.5,5.2,7.86,7,7.86S9.64,9.5,9.64,11.14,8.83,14.42,7,14.42,4.39,12.78,4.39,11.14Zm3.87,0C8.26,10,7.93,9.06,7,9.06S5.77,10,5.77,11.14,6.11,13.22,7,13.22,8.26,12.31,8.26,11.14Z"/><path class="cls-4" d="M10.3,12.66A1.83,1.83,0,0,1,11.66,11,1.58,1.58,0,0,1,10.4,9.54c0-1.2,1.27-1.68,2.45-1.68s2.45.48,2.45,1.68A1.6,1.6,0,0,1,14,11a1.84,1.84,0,0,1,1.36,1.63c0,1.18-1.22,1.76-2.55,1.76S10.3,13.84,10.3,12.66ZM14,12.47c0-.52-.79-.77-1.18-.83s-1.18.31-1.18.83.51.75,1.18.75S14,12.93,14,12.47Zm-.11-2.7c0-.45-.45-.71-1.07-.71s-1.08.26-1.08.71.69.66,1.08.73S13.92,10.23,13.92,9.77Z"/><path class="cls-5" d="M8.61,25.69A1.74,1.74,0,0,1,10,23.54a1.93,1.93,0,0,1,2.27,1.35,1.75,1.75,0,0,1-1.35,2.16,1.91,1.91,0,0,1-2.27-1.36"/><rect class="cls-3" x="31.59" width="22.62" height="8.28" rx="0.93"/><path class="cls-4" d="M34.73,6.46V3.28L34,4l-.57-.56,1.48-1.39h.87V6.46Z"/><path class="cls-4" d="M36.58,6.46V5.73C38.49,4.4,39.05,4,39.05,3.42s-.37-.58-.75-.58A1.71,1.71,0,0,0,37,3.35l-.57-.62A2.47,2.47,0,0,1,38.27,2c1,0,1.79.52,1.79,1.4s-.66,1.39-1.87,2.22H40.1v.82Z"/><path class="cls-4" d="M44,6.46l-1.17-1.6-1.18,1.6H40.49l1.7-2.24L40.6,2.08h1.18l1.08,1.5,1.06-1.5h1.2L43.53,4.21l1.69,2.25Z"/><path class="cls-4" d="M46.69,6.46V3.28L45.91,4l-.57-.56,1.47-1.39h.87V6.46Z"/><path class="cls-4" d="M48.44,4.28A2.08,2.08,0,0,1,50.62,2,2.22,2.22,0,0,1,52,2.47l-.45.72a1.28,1.28,0,0,0-.94-.35,1.18,1.18,0,0,0-1.17,1.25.31.31,0,0,0,0,.09,1.55,1.55,0,0,1,1.2-.57A1.45,1.45,0,0,1,52.26,5a1.61,1.61,0,0,1-1.8,1.5C49,6.54,48.44,5.51,48.44,4.28Zm2.8.79c0-.46-.42-.66-.86-.66a1.19,1.19,0,0,0-.92.42.9.9,0,0,0,.95.88C51,5.71,51.24,5.37,51.24,5.07Z"/></g></g></svg>