<?xml version="1.0" encoding="utf-8"?>
<!-- Generator: Adobe Illustrator 25.2.3, SVG Export Plug-In . SVG Version: 6.00 Build 0)  -->
<svg version="1.1" id="Layer_1" xmlns="http://www.w3.org/2000/svg" width="240.109" height="95" xmlns:xlink="http://www.w3.org/1999/xlink" x="0px" y="0px"
	 viewBox="0 0 240.1 95" style="enable-background:new 0 0 240.1 95;" xml:space="preserve">
<style type="text/css">
	.st0{fill:#55BCBD;}
	.st1{fill:#676D81;}
	.st2{opacity:0.92;fill:#2D314E;enable-background:new    ;}
	.st3{fill:#002C46;stroke:#002C46;stroke-width:0.7;stroke-miterlimit:10;}
	.st4{fill:#002C46;}
	.st5{fill:#FFFFFF;stroke:#FFFFFF;stroke-width:0.5;stroke-miterlimit:10;}
</style>
<g>
	<g id="Layer_2_1_">
		<g id="Layer_1-2">
			<g>
				<rect x="186.2" y="19.5" class="st0" width="38" height="16"/>
			</g>
			<g>
				<rect x="148.3" y="34.5" class="st1" width="76" height="22.1"/>
			</g>
			<rect x="118.9" y="34.5" class="st0" width="30.1" height="22.1"/>
		</g>
	</g>
</g>
<g id="_24_julho_novo" transform="translate(200.275 451.873)">
	<path id="Path_11" class="st2" d="M-78.5-376.5c-0.1,1.6-1.5,2.9-3.1,2.8s-2.9-1.5-2.8-3.1s1.4-2.8,2.9-2.8
		C-79.7-379.6-78.4-378.2-78.5-376.5z"/>
</g>
<polygon class="st0" points="118.9,54.9 118.9,66.7 124.7,54.9 "/>
<g>
	<path class="st3" d="M130.1,50.1c-0.5,0-1-0.1-1.6-0.4c-0.4-0.3-0.7-0.5-1-1c-0.3-0.5-0.5-0.9-0.5-1.4c-0.1-0.5-0.2-1-0.2-1.6
		c0-0.5,0.1-1,0.2-1.6c0.1-0.5,0.3-1,0.5-1.4c0.3-0.4,0.5-0.7,1-1c0.4-0.3,0.9-0.4,1.6-0.4s1,0.1,1.6,0.4c0.4,0.3,0.7,0.5,1,1
		c0.3,0.5,0.5,0.9,0.5,1.4c0.1,0.5,0.2,1,0.2,1.6c0,0.5-0.1,1-0.2,1.6c-0.1,0.5-0.3,1-0.5,1.4s-0.5,0.7-1,1
		C131.2,49.9,130.7,50.1,130.1,50.1z M128.9,48.5c0.4,0.4,0.7,0.5,1.3,0.5s0.9-0.2,1.3-0.5c0.4-0.4,0.5-0.7,0.7-1.3
		c0.2-0.5,0.2-1,0.2-1.6c0-0.6-0.1-1.2-0.2-1.6c-0.1-0.5-0.4-0.9-0.7-1.3c-0.4-0.4-0.7-0.5-1.3-0.5s-0.9,0.2-1.3,0.5
		s-0.5,0.7-0.7,1.3c-0.1,0.5-0.2,1-0.2,1.6c0,0.6,0.1,1.2,0.2,1.6C128.2,47.7,128.5,48.2,128.9,48.5z"/>
	<path class="st3" d="M137.9,50.1c-1.4,0-2.3-0.5-3-1.4l0.6-0.7c0.5,0.7,1.4,1.2,2.3,1.2c0.5,0,1-0.2,1.4-0.5
		c0.4-0.4,0.5-0.8,0.5-1.3c0-0.5-0.2-1-0.5-1.4c-0.4-0.4-0.8-0.5-1.4-0.5c-0.7,0-1.4,0.3-2,0.8l-0.7-0.3v-4.6h5.2v0.9h-4.1v2.9
		c0.5-0.5,1.2-0.7,2-0.7c0.7,0,1.4,0.3,1.9,0.7c0.5,0.5,0.8,1.2,0.8,2c0,0.9-0.3,1.6-0.9,2C139.5,49.8,138.8,50.1,137.9,50.1z"/>
</g>
<g>
	<path class="st4" d="M194,31.6h-1.1V24l-1.5,1.6l-0.7-0.7l2.3-2.4h1V31.6L194,31.6z"/>
	<path class="st4" d="M202,31.6h-6.2v-0.9c1.8-1.5,3.1-2.5,3.9-3.3s1.1-1.6,1.1-2.3c0-0.5-0.2-1-0.5-1.2c-0.3-0.3-0.8-0.4-1.3-0.4
		c-1,0-1.8,0.3-2.4,1.1l-0.7-0.7c0.3-0.4,0.8-0.8,1.3-1s1.1-0.3,1.8-0.3c0.8,0,1.6,0.3,2.1,0.7c0.6,0.4,0.9,1.1,0.9,1.9
		c0,0.9-0.3,1.7-1,2.5c-0.7,0.8-1.8,1.8-3.3,3h4.5L202,31.6L202,31.6z"/>
	<path class="st4" d="M211.7,31.6h-1.4l-2.9-3.8l-2.9,3.8h-1.4l3.5-4.6l-3.3-4.4h1.4l2.7,3.6l2.7-3.6h1.4l-3.3,4.4L211.7,31.6z"/>
	<path class="st4" d="M216.1,31.7c-0.6,0-1.1-0.1-1.6-0.3c-0.4-0.3-0.8-0.6-1-1c-0.3-0.4-0.4-1-0.6-1.5c-0.2-0.5-0.2-1.1-0.2-1.7
		c0-1.3,0.3-2.4,1-3.3c0.6-0.9,1.6-1.3,2.7-1.3c1,0,1.8,0.3,2.5,1l-0.6,0.9c-0.5-0.6-1.1-1-1.9-1s-1.5,0.3-1.9,1s-0.7,1.6-0.7,2.5
		v0.3c0.3-0.3,0.6-0.7,1-1s1-0.4,1.5-0.4c0.9,0,1.6,0.3,2.1,0.8s0.9,1.2,0.9,2.1c0,0.8-0.3,1.5-0.9,2.1
		C217.8,31.5,217,31.7,216.1,31.7z M216,30.7c0.6,0,1.1-0.2,1.5-0.6c0.3-0.4,0.5-0.9,0.5-1.3c0-0.6-0.2-1.1-0.6-1.5
		c-0.3-0.3-0.9-0.5-1.5-0.5c-0.4,0-0.9,0.1-1.3,0.3c-0.4,0.3-0.7,0.6-1,1c0.1,0.7,0.3,1.2,0.6,1.7C214.8,30.4,215.3,30.7,216,30.7z"
		/>
</g>
<g>
	<path class="st5" d="M159.7,50.3c-1.3,0-2.4-0.4-3.3-1.3c-0.9-0.9-1.3-2-1.3-3.4s0.4-2.5,1.3-3.4s2-1.3,3.3-1.3
		c1.5,0,2.6,0.6,3.4,1.7l-1,0.5c-0.3-0.4-0.6-0.7-1-1s-1-0.3-1.4-0.3c-1,0-1.8,0.3-2.5,1c-0.7,0.7-1,1.6-1,2.6s0.3,1.9,1,2.6
		c0.7,0.7,1.5,1,2.4,1c0.5,0,1-0.1,1.4-0.3c0.4-0.3,0.8-0.5,1-1l1,0.5C162.3,49.7,161.1,50.3,159.7,50.3z"/>
	<path class="st5" d="M172.3,50.1H171l-0.8-2h-4.5l-0.8,2h-1.3l3.7-9h1.4L172.3,50.1z M170,47.1l-1.9-4.9l-1.9,4.9H170z"/>
	<path class="st5" d="M180.1,50.1h-1.3l-2.3-3.6h-1.8v3.6h-1.1v-9h3.7c0.9,0,1.5,0.3,2,0.8s0.8,1.1,0.8,2c0,0.8-0.3,1.4-0.7,1.8
		c-0.4,0.4-1,0.7-1.7,0.8L180.1,50.1z M177.1,45.6c0.5,0,1-0.2,1.3-0.5c0.3-0.3,0.5-0.7,0.5-1.2s-0.2-1-0.5-1.2
		c-0.3-0.3-0.8-0.4-1.3-0.4h-2.4v3.5L177.1,45.6L177.1,45.6z"/>
	<path class="st5" d="M184.8,50.1h-3.1v-9h3.1c1.4,0,2.5,0.4,3.3,1.3c0.9,0.9,1.3,1.9,1.3,3.2s-0.4,2.4-1.3,3.2
		C187.4,49.7,186.2,50.1,184.8,50.1z M184.8,49.1c1,0,1.9-0.3,2.5-1s1-1.5,1-2.5s-0.3-1.8-1-2.5c-0.6-0.7-1.5-1-2.5-1h-1.9v7H184.8z
		"/>
	<path class="st5" d="M198.7,49c-0.9,0.9-1.9,1.3-3.2,1.3c-1.3,0-2.4-0.4-3.2-1.3c-0.9-0.9-1.2-2-1.2-3.3s0.4-2.4,1.2-3.3
		c0.9-0.9,1.9-1.3,3.2-1.3c1.3,0,2.4,0.4,3.2,1.3c0.9,0.9,1.2,2,1.2,3.3S199.4,48.1,198.7,49z M195.4,49.3c1,0,1.8-0.3,2.4-1
		c0.6-0.7,1-1.6,1-2.6s-0.3-1.9-1-2.6c-0.6-0.7-1.4-1-2.4-1s-1.8,0.3-2.4,1s-0.9,1.6-0.9,2.6s0.3,1.9,0.9,2.6
		C193.6,49,194.4,49.3,195.4,49.3z"/>
	<path class="st5" d="M204.6,50.3c-1.5,0-2.6-0.4-3.5-1.4l0.7-0.9c0.8,0.9,1.7,1.3,2.8,1.3c0.7,0,1.3-0.2,1.6-0.4
		c0.3-0.3,0.5-0.7,0.5-1.1c0-0.3-0.2-0.7-0.4-0.9c-0.3-0.3-0.6-0.4-1-0.5c-0.3-0.1-0.8-0.3-1.3-0.3c-0.4-0.2-0.9-0.3-1.3-0.4
		c-0.3-0.2-0.7-0.4-1-0.8c-0.3-0.3-0.4-0.8-0.4-1.3c0-0.7,0.3-1.3,0.9-1.8c0.6-0.4,1.3-0.7,2.3-0.7c1.3,0,2.4,0.4,3.2,1.3L207,43
		c-0.6-0.7-1.5-1-2.6-1c-0.5,0-1,0.2-1.3,0.4c-0.3,0.3-0.5,0.6-0.5,1c0,0.3,0.2,0.6,0.4,0.8c0.3,0.2,0.6,0.3,1,0.4
		c0.4,0.1,0.8,0.3,1.3,0.3c0.4,0.2,0.9,0.3,1.3,0.4c0.4,0.1,0.7,0.4,1,0.8c0.3,0.3,0.4,0.8,0.4,1.3c0,0.7-0.3,1.4-0.8,1.8
		C206.5,50,205.7,50.3,204.6,50.3z"/>
	<path class="st5" d="M216.9,49c-0.9,0.9-1.9,1.3-3.2,1.3c-1.3,0-2.4-0.4-3.2-1.3c-0.9-0.9-1.2-2-1.2-3.3s0.4-2.4,1.2-3.3
		c0.9-0.9,1.9-1.3,3.2-1.3c1.3,0,2.4,0.4,3.2,1.3c0.9,0.9,1.2,2,1.2,3.3S217.8,48.1,216.9,49z M213.7,49.3c1,0,1.8-0.3,2.4-1
		s1-1.6,1-2.6s-0.3-1.9-1-2.6c-0.6-0.7-1.4-1-2.4-1s-1.8,0.3-2.4,1c-0.6,0.7-0.9,1.6-0.9,2.6s0.3,1.9,0.9,2.6
		C211.9,49,212.7,49.3,213.7,49.3z"/>
</g>
</svg>
