<?xml version="1.0" encoding="utf-8"?>
<!-- Generator: Adobe Illustrator 25.2.3, SVG Export Plug-In . SVG Version: 6.00 Build 0)  -->
<svg version="1.1" id="Layer_1" xmlns="http://www.w3.org/2000/svg" width="240.109" height="95" xmlns:xlink="http://www.w3.org/1999/xlink" x="0px" y="0px"
	 viewBox="0 0 240.1 95" style="enable-background:new 0 0 240.1 95;" xml:space="preserve">
<style type="text/css">
	.st0{fill:#55BCBD;}
	.st1{fill:#676D81;}
	.st2{opacity:0.92;fill:#2D314E;enable-background:new    ;}
	.st3{fill:#002C46;}
	.st4{fill:#FFFFFF;}
</style>
<g>
	<g id="Layer_2_1_">
		<g id="Layer_1-2">
			<g>
				<rect x="197.1" y="13.9" class="st0" width="43.5" height="18.3"/>
			</g>
			<g>
				<rect x="153.8" y="31.1" class="st1" width="86.9" height="25.3"/>
			</g>
			<rect x="120.2" y="31.1" class="st0" width="34.4" height="25.3"/>
		</g>
	</g>
</g>
<g id="_24_julho_novo" transform="translate(200.275 451.873)">
	<path id="Path_11" class="st2" d="M-78.5-376.5c-0.1,1.6-1.5,2.9-3.1,2.8s-2.9-1.5-2.8-3.1s1.4-2.8,2.9-2.8
		C-79.7-379.6-78.4-378.2-78.5-376.5z"/>
</g>
<polygon class="st0" points="120.2,54.4 120.2,67.9 129,54.4 "/>
<g>
	<path class="st3" d="M130.9,51.4c-1,0-1.8-0.2-2.6-0.7c-0.7-0.4-1.3-1-1.8-1.8s-0.8-1.6-1-2.4c-0.2-0.9-0.3-1.8-0.3-2.7
		c0-0.9,0.1-1.8,0.3-2.7c0.2-0.9,0.5-1.7,1-2.4s1-1.3,1.8-1.8c0.7-0.4,1.6-0.7,2.6-0.7c1,0,1.8,0.2,2.6,0.7c0.7,0.4,1.3,1,1.8,1.8
		s0.8,1.5,1,2.4c0.2,0.9,0.3,1.8,0.3,2.7c0,0.9-0.1,1.8-0.3,2.7c-0.2,0.9-0.5,1.7-1,2.4s-1,1.3-1.8,1.8S131.9,51.4,130.9,51.4z
		 M128.7,48.8c0.6,0.6,1.3,0.9,2.2,0.9c0.9,0,1.6-0.3,2.2-0.9c0.6-0.6,1-1.3,1.2-2.2c0.2-0.9,0.3-1.8,0.3-2.9c0-1.1-0.1-2-0.3-2.9
		c-0.2-0.9-0.6-1.6-1.2-2.2c-0.6-0.6-1.3-0.9-2.2-0.9c-0.9,0-1.6,0.3-2.2,0.9c-0.6,0.6-1,1.3-1.2,2.2c-0.2,0.9-0.3,1.8-0.3,2.9
		c0,1.1,0.1,2,0.3,2.9C127.7,47.5,128.1,48.2,128.7,48.8z"/>
	<path class="st3" d="M144.3,51.4c-2.3,0-4-0.8-5.2-2.4l1.1-1.2c1,1.3,2.4,2,4,2c1,0,1.8-0.3,2.4-0.9c0.6-0.6,0.9-1.4,0.9-2.2
		c0-1-0.3-1.7-0.9-2.3c-0.6-0.6-1.4-0.9-2.4-0.9c-1.3,0-2.4,0.5-3.4,1.4l-1.3-0.5v-7.9h9V38h-7.1v5.1c0.9-0.9,2.1-1.3,3.4-1.3
		c1.3,0,2.4,0.4,3.3,1.3c0.9,0.8,1.4,2,1.4,3.4c0,1.5-0.5,2.6-1.5,3.5C147,50.9,145.8,51.4,144.3,51.4z"/>
</g>
<g>
	<path class="st3" d="M206.1,27.7h-1.3V19l-1.7,1.8l-0.8-0.8l2.6-2.7h1.1V27.7z"/>
	<path class="st3" d="M215.2,27.7h-7.1v-1c2.1-1.7,3.6-2.9,4.5-3.8c0.9-0.9,1.3-1.8,1.3-2.6c0-0.6-0.2-1.1-0.6-1.4
		c-0.4-0.3-0.9-0.5-1.5-0.5c-1.2,0-2.1,0.4-2.8,1.3l-0.8-0.8c0.4-0.5,0.9-0.9,1.5-1.2c0.6-0.3,1.3-0.4,2.1-0.4
		c0.9,0,1.8,0.3,2.4,0.8c0.7,0.5,1,1.3,1,2.2c0,1-0.4,1.9-1.2,2.9s-2.1,2.1-3.8,3.4h5.1V27.7z"/>
	<path class="st3" d="M226.3,27.7h-1.6l-3.3-4.4l-3.3,4.4h-1.6l4-5.3l-3.8-5h1.6l3.1,4.1l3.1-4.1h1.6l-3.8,5L226.3,27.7z"/>
	<path class="st3" d="M231.3,27.9c-0.7,0-1.3-0.1-1.8-0.4c-0.5-0.3-0.9-0.7-1.2-1.2s-0.5-1.1-0.7-1.7c-0.2-0.6-0.2-1.3-0.2-2
		c0-1.5,0.4-2.8,1.1-3.8c0.7-1,1.8-1.5,3.1-1.5c1.2,0,2.1,0.4,2.9,1.2l-0.7,1c-0.6-0.7-1.3-1.1-2.2-1.1c-0.9,0-1.7,0.4-2.2,1.2
		c-0.5,0.8-0.8,1.8-0.8,2.9v0.4c0.3-0.4,0.7-0.8,1.2-1.1c0.5-0.3,1.1-0.5,1.7-0.5c1,0,1.8,0.3,2.4,0.9c0.6,0.6,1,1.4,1,2.4
		c0,0.9-0.3,1.7-1,2.4S232.4,27.9,231.3,27.9z M231.2,26.7c0.7,0,1.3-0.2,1.7-0.7c0.4-0.5,0.6-1,0.6-1.5c0-0.7-0.2-1.3-0.7-1.7
		c-0.4-0.4-1-0.6-1.7-0.6c-0.5,0-1,0.1-1.5,0.4s-0.8,0.7-1.1,1.1c0.1,0.8,0.3,1.4,0.7,2C229.8,26.4,230.4,26.7,231.2,26.7z"/>
</g>
<g>
	<path class="st4" d="M166.9,49.1c-1.5,0-2.8-0.5-3.8-1.5c-1-1-1.5-2.3-1.5-3.9c0-1.6,0.5-2.9,1.5-3.9s2.3-1.5,3.8-1.5
		c1.7,0,3,0.7,3.9,2l-1.1,0.6c-0.3-0.5-0.7-0.8-1.2-1.1c-0.5-0.3-1.1-0.4-1.6-0.4c-1.1,0-2.1,0.4-2.9,1.2c-0.8,0.8-1.1,1.8-1.1,3
		c0,1.2,0.4,2.2,1.1,3c0.8,0.8,1.7,1.2,2.8,1.2c0.6,0,1.1-0.1,1.6-0.4c0.5-0.3,0.9-0.6,1.2-1.1l1.1,0.6
		C169.8,48.4,168.5,49.1,166.9,49.1z"/>
	<path class="st4" d="M181.3,48.9h-1.5l-0.9-2.3h-5.1l-0.9,2.3h-1.5l4.2-10.3h1.6L181.3,48.9z M178.6,45.5l-2.2-5.6l-2.2,5.6H178.6z
		"/>
	<path class="st4" d="M190.2,48.9h-1.5l-2.6-4.1h-2.1v4.1h-1.3V38.6h4.2c1,0,1.7,0.3,2.3,0.9s0.9,1.3,0.9,2.3c0,0.9-0.3,1.6-0.8,2.1
		c-0.5,0.5-1.2,0.8-1.9,0.9L190.2,48.9z M186.7,43.7c0.6,0,1.1-0.2,1.5-0.6c0.4-0.4,0.6-0.8,0.6-1.4c0-0.6-0.2-1.1-0.6-1.4
		c-0.4-0.4-0.9-0.5-1.5-0.5h-2.7v4H186.7z"/>
	<path class="st4" d="M195.6,48.9h-3.5V38.6h3.5c1.6,0,2.9,0.5,3.8,1.5c1,1,1.5,2.2,1.5,3.7c0,1.5-0.5,2.7-1.5,3.7
		C198.5,48.4,197.2,48.9,195.6,48.9z M195.6,47.8c1.2,0,2.2-0.4,2.9-1.1s1.1-1.7,1.1-2.9c0-1.2-0.4-2.1-1.1-2.9
		c-0.7-0.8-1.7-1.1-2.9-1.1h-2.2v8H195.6z"/>
	<path class="st4" d="M211.4,47.6c-1,1-2.2,1.5-3.7,1.5s-2.7-0.5-3.7-1.5c-1-1-1.4-2.3-1.4-3.8s0.5-2.8,1.4-3.8c1-1,2.2-1.5,3.7-1.5
		s2.7,0.5,3.7,1.5c1,1,1.4,2.3,1.4,3.8S212.3,46.6,211.4,47.6z M207.7,48c1.1,0,2.1-0.4,2.8-1.2c0.7-0.8,1.1-1.8,1.1-3
		s-0.4-2.2-1.1-3c-0.7-0.8-1.6-1.2-2.8-1.2c-1.1,0-2.1,0.4-2.8,1.2c-0.7,0.8-1,1.8-1,3c0,1.2,0.3,2.2,1,3
		C205.6,47.6,206.5,48,207.7,48z"/>
	<path class="st4" d="M218.2,49.1c-1.7,0-3-0.5-4-1.6l0.8-1c0.9,1,1.9,1.5,3.2,1.5c0.8,0,1.5-0.2,1.8-0.5c0.4-0.4,0.6-0.8,0.6-1.3
		c0-0.4-0.2-0.8-0.5-1c-0.3-0.3-0.7-0.5-1.1-0.6s-0.9-0.3-1.5-0.4c-0.5-0.2-1-0.3-1.5-0.5c-0.4-0.2-0.8-0.5-1.1-0.9
		c-0.3-0.4-0.5-0.9-0.5-1.5c0-0.8,0.3-1.5,1-2.1c0.7-0.5,1.5-0.8,2.6-0.8c1.5,0,2.7,0.5,3.7,1.5l-0.8,0.9c-0.7-0.8-1.7-1.2-3-1.2
		c-0.6,0-1.1,0.2-1.5,0.5c-0.4,0.3-0.6,0.7-0.6,1.2c0,0.4,0.2,0.7,0.5,0.9c0.3,0.2,0.7,0.4,1.1,0.5c0.5,0.1,0.9,0.3,1.5,0.4
		c0.5,0.2,1,0.4,1.5,0.5s0.8,0.5,1.1,0.9c0.3,0.4,0.5,0.9,0.5,1.5c0,0.8-0.3,1.6-0.9,2.1C220.4,48.8,219.4,49.1,218.2,49.1z"/>
	<path class="st4" d="M232.3,47.6c-1,1-2.2,1.5-3.7,1.5s-2.7-0.5-3.7-1.5c-1-1-1.4-2.3-1.4-3.8s0.5-2.8,1.4-3.8c1-1,2.2-1.5,3.7-1.5
		s2.7,0.5,3.7,1.5c1,1,1.4,2.3,1.4,3.8S233.3,46.6,232.3,47.6z M228.6,48c1.1,0,2.1-0.4,2.8-1.2c0.7-0.8,1.1-1.8,1.1-3
		s-0.4-2.2-1.1-3c-0.7-0.8-1.6-1.2-2.8-1.2c-1.1,0-2.1,0.4-2.8,1.2c-0.7,0.8-1,1.8-1,3c0,1.2,0.3,2.2,1,3
		C226.5,47.6,227.5,48,228.6,48z"/>
</g>
</svg>
