<?xml version="1.0" encoding="utf-8"?>
<!-- Generator: Adobe Illustrator 25.2.3, SVG Export Plug-In . SVG Version: 6.00 Build 0)  -->
<svg version="1.1" id="Layer_1" xmlns="http://www.w3.org/2000/svg" width="200" height="95" xmlns:xlink="http://www.w3.org/1999/xlink" x="0px" y="0px"
	 viewBox="0 0 169.4 80.1" style="enable-background:new 0 0 169.4 80.1;" xml:space="preserve">
<style type="text/css">
	.st0{opacity:0.92;fill:#2D314E;enable-background:new    ;}
	.st1{fill:none;}
	.st2{fill:#E84D46;}
	.st3{fill:#DCC020;}
	.st4{fill:#676D81;}
	.st5{enable-background:new    ;}
	.st6{fill:#FFFFFF;}
	.st7{fill:#002C46;}
</style>
<g id="_24_julho_novo" transform="translate(200.275 451.873)">
	<path id="Path_11" class="st0" d="M-129-380.9c-0.1,1.9-1.7,3.3-3.6,3.2c-1.9-0.1-3.3-1.7-3.2-3.6c0.1-1.8,1.6-3.2,3.4-3.2
		C-130.4-384.4-128.9-382.8-129-380.9z"/>
</g>
<g id="casino" transform="translate(-470.926 -104.601)">
	<g id="Group_66" transform="translate(-445.705 -152.518)">
		<rect id="Rectangle_41" x="916.7" y="271.6" class="st1" width="48" height="44.3"/>
	</g>
</g>
<g>
	<rect x="126.1" y="0.5" class="st2" width="43.3" height="14.7"/>
</g>
<g>
	<rect x="61.7" y="0.5" class="st3" width="64.3" height="14.7"/>
</g>
<rect x="91.2" y="15.2" class="st4" width="78.5" height="21.7"/>
<g class="st5">
	<path class="st6" d="M102.6,26c0-2.5,1.9-4.2,4.3-4.2c1.8,0,2.8,1,3.3,2l-1.5,0.7c-0.3-0.6-1.1-1.2-1.9-1.2c-1.5,0-2.5,1.1-2.5,2.6
		s1.1,2.6,2.5,2.6c0.8,0,1.5-0.5,1.9-1.2l1.5,0.7c-0.6,1-1.6,2-3.3,2C104.5,30.2,102.6,28.5,102.6,26z"/>
	<path class="st6" d="M116.7,30l-0.5-1.4h-3.4l-0.5,1.4h-1.9l3.1-8h2.1l3.1,8H116.7z M114.5,23.7l-1.3,3.5h2.5L114.5,23.7z"/>
	<path class="st6" d="M118.8,28.9l0.9-1.3c0.6,0.6,1.4,1.1,2.6,1.1c1,0,1.4-0.4,1.4-0.9c0-1.4-4.6-0.4-4.6-3.4c0-1.3,1.2-2.4,3-2.4
		c1.3,0,2.3,0.4,3.1,1.1l-1,1.3c-0.7-0.6-1.5-0.9-2.3-0.9c-0.7,0-1.1,0.3-1.1,0.8c0,1.3,4.6,0.4,4.6,3.4c0,1.5-1.1,2.6-3.2,2.6
		C120.6,30.2,119.5,29.7,118.8,28.9z"/>
	<path class="st6" d="M126.5,30v-8h1.7v8H126.5z"/>
	<path class="st6" d="M135.4,30l-3.8-5.2V30h-1.7v-8h1.8l3.7,5v-5h1.7v8H135.4z"/>
	<path class="st6" d="M138.2,26c0-2.4,1.8-4.2,4.2-4.2c2.4,0,4.2,1.7,4.2,4.2c0,2.4-1.8,4.2-4.2,4.2C140,30.2,138.2,28.5,138.2,26z
		 M144.9,26c0-1.5-1-2.6-2.4-2.6c-1.5,0-2.4,1.1-2.4,2.6c0,1.5,1,2.6,2.4,2.6C143.9,28.7,144.9,27.5,144.9,26z"/>
	<path class="st6" d="M156.5,30l-0.5-1.4h-3.4l-0.5,1.4h-1.9l3.1-8h2.1l3.1,8H156.5z M154.3,23.7l-1.3,3.5h2.5L154.3,23.7z"/>
</g>
<rect x="50.3" y="15.2" class="st1" width="29.6" height="21.7"/>
<g>
	<rect x="61.7" y="15.2" class="st2" width="29.6" height="21.7"/>
	<g class="st5">
		<path class="st6" d="M66.5,26c0-3,1.5-6,4.8-6s4.8,3,4.8,6s-1.5,6-4.8,6S66.5,29,66.5,26z M73.6,26c0-2.1-0.6-3.8-2.3-3.8
			c-1.7,0-2.3,1.7-2.3,3.8s0.6,3.8,2.3,3.8C73,29.8,73.6,28.2,73.6,26z"/>
		<path class="st6" d="M77.5,31.8v-1.9c4.7-3.5,6.1-4.7,6.1-6.1c0-1-0.9-1.5-1.9-1.5c-1.3,0-2.3,0.5-3.1,1.3L77.2,22
			c1.1-1.3,2.9-1.9,4.5-1.9c2.5,0,4.4,1.4,4.4,3.7c0,2-1.6,3.7-4.6,5.9h4.7v2.2L77.5,31.8L77.5,31.8z"/>
	</g>
</g>
<rect x="126.1" y="0.5" class="st1" width="43.3" height="14.7"/>
<g class="st5">
	<path class="st6" d="M136.4,7.8c0-2.6,1.4-4.4,3.9-4.4c1,0,1.9,0.3,2.5,0.9L142,5.7c-0.5-0.4-0.9-0.7-1.7-0.7c-1.2,0-2.1,1-2.1,2.4
		c0,0.1,0,0.1,0,0.2c0.4-0.6,1.2-1.1,2.2-1.1c1.5,0,2.9,0.9,2.9,2.7c0,1.6-1.3,2.9-3.2,2.9C137.5,12.2,136.4,10.2,136.4,7.8z
		 M141.5,9.3c0-0.9-0.8-1.3-1.6-1.3c-0.6,0-1.3,0.3-1.7,0.8c0.1,0.8,0.5,1.7,1.7,1.7C140.9,10.6,141.5,9.9,141.5,9.3z"/>
	<path class="st6" d="M150,12l-2.1-3.1l-2.1,3.1h-2.1l3.1-4.3l-2.9-4.1h2.1l1.9,2.9l1.9-2.9h2.2l-2.9,4.1l3.1,4.3H150z"/>
	<path class="st6" d="M152.4,10.8l0.9-1.2c0.6,0.6,1.5,1,2.3,1c1,0,1.6-0.4,1.6-1.1c0-0.7-0.5-1-1.7-1c-0.4,0-0.9,0-1,0V6.9
		c0.2,0,0.7,0,1,0c0.9,0,1.6-0.3,1.6-0.9c0-0.7-0.7-1-1.6-1c-0.8,0-1.6,0.3-2.2,0.9l-0.9-1.1c0.7-0.8,1.7-1.3,3.2-1.3
		c2,0,3.2,0.9,3.2,2.3c0,1.1-0.9,1.8-1.8,1.9c0.9,0.1,2,0.8,2,2c0,1.5-1.3,2.5-3.3,2.5C154.1,12.2,153,11.6,152.4,10.8z"/>
</g>
<g class="st5">
	<path class="st7" d="M83.6,12l-4-5.5V12h-1.8V3.6h1.8l3.9,5.3V3.6h1.8V12H83.6z"/>
	<path class="st7" d="M86.6,7.8c0-2.5,1.9-4.4,4.4-4.4c2.5,0,4.4,1.8,4.4,4.4s-1.9,4.4-4.4,4.4C88.5,12.2,86.6,10.4,86.6,7.8z
		 M93.6,7.8c0-1.6-1-2.8-2.6-2.8c-1.6,0-2.6,1.2-2.6,2.8s1,2.8,2.6,2.8C92.6,10.6,93.6,9.4,93.6,7.8z"/>
	<path class="st7" d="M98.8,12l-3.3-8.4h2l2.3,6.5l2.3-6.5h2l-3.3,8.4H98.8z"/>
	<path class="st7" d="M104.4,7.8c0-2.5,1.9-4.4,4.4-4.4s4.4,1.8,4.4,4.4s-1.9,4.4-4.4,4.4C106.3,12.2,104.4,10.4,104.4,7.8z
		 M111.4,7.8c0-1.6-1-2.8-2.6-2.8c-1.6,0-2.6,1.2-2.6,2.8s1,2.8,2.6,2.8C110.4,10.6,111.4,9.4,111.4,7.8z"/>
</g>
<g>
	<rect x="91.3" y="38.1" class="st4" width="78.1" height="21.7"/>
</g>
<rect x="79.9" y="38.1" class="st1" width="89.5" height="21.7"/>
<g class="st5">
	<path class="st6" d="M102.9,49c0-2.5,1.9-4.2,4.3-4.2c1.8,0,2.8,1,3.3,2l-1.5,0.7c-0.3-0.7-1.1-1.2-1.9-1.2c-1.5,0-2.5,1.1-2.5,2.6
		c0,1.5,1.1,2.6,2.5,2.6c0.8,0,1.5-0.5,1.9-1.2l1.5,0.7c-0.6,1-1.6,2-3.3,2C104.8,53.1,102.9,51.4,102.9,49z"/>
	<path class="st6" d="M117,53l-0.5-1.4h-3.4l-0.5,1.4h-1.9l3.1-8h2.1l3.1,8H117z M114.8,46.6l-1.3,3.5h2.5L114.8,46.6z"/>
	<path class="st6" d="M119.1,51.8l0.9-1.3c0.6,0.6,1.4,1.1,2.6,1.1c1,0,1.4-0.4,1.4-0.9c0-1.4-4.6-0.4-4.6-3.4c0-1.3,1.2-2.4,3-2.4
		c1.3,0,2.3,0.4,3.1,1.1l-1,1.3c-0.7-0.6-1.5-0.9-2.3-0.9c-0.7,0-1.1,0.3-1.1,0.8c0,1.3,4.6,0.4,4.6,3.4c0,1.5-1.1,2.6-3.2,2.6
		C121,53.1,119.9,52.6,119.1,51.8z"/>
	<path class="st6" d="M126.9,53v-8h1.7v8H126.9z"/>
	<path class="st6" d="M135.7,53l-3.8-5.2V53h-1.7v-8h1.8l3.7,5v-5h1.7v8H135.7z"/>
	<path class="st6" d="M138.6,49c0-2.4,1.8-4.2,4.2-4.2c2.4,0,4.2,1.7,4.2,4.2c0,2.5-1.8,4.2-4.2,4.2C140.3,53.1,138.6,51.4,138.6,49
		z M145.2,49c0-1.5-1-2.6-2.4-2.6c-1.5,0-2.4,1.1-2.4,2.6s1,2.6,2.4,2.6S145.2,50.4,145.2,49z"/>
	<path class="st6" d="M151.3,53v-8h4.2c1.5,0,2.3,1,2.3,2c0,1-0.6,1.7-1.4,1.8c0.9,0.1,1.5,1,1.5,2c0,1.2-0.8,2.2-2.3,2.2H151.3z
		 M156.1,47.3c0-0.5-0.4-0.8-0.9-0.8h-2.1v1.7h2.1C155.7,48.1,156.1,47.8,156.1,47.3z M156.2,50.5c0-0.5-0.4-0.9-1-0.9H153v1.9h2.2
		C155.8,51.5,156.2,51.1,156.2,50.5z"/>
</g>
<rect x="50.3" y="38.1" class="st1" width="29.6" height="21.7"/>
<g>
	<rect x="61.7" y="38.1" class="st2" width="29.6" height="21.7"/>
	<g class="st5">
		<path class="st6" d="M66.6,49c0-3,1.5-6,4.8-6s4.8,3,4.8,6c0,3-1.5,6-4.8,6S66.6,51.9,66.6,49z M73.7,49c0-2.1-0.6-3.8-2.3-3.8
			c-1.7,0-2.3,1.7-2.3,3.8s0.6,3.8,2.3,3.8C73.1,52.8,73.7,51.1,73.7,49z"/>
		<path class="st6" d="M77.1,53.1l1.3-1.7c0.8,0.8,2.1,1.3,3.2,1.3c1.4,0,2.2-0.6,2.2-1.5s-0.7-1.3-2.3-1.3c-0.5,0-1.3,0-1.4,0v-2.2
			c0.2,0,1,0,1.4,0c1.3,0,2.2-0.4,2.2-1.2c0-0.9-1-1.4-2.2-1.4c-1.1,0-2.1,0.4-3,1.2l-1.2-1.5c0.9-1.1,2.4-1.8,4.4-1.8
			c2.7,0,4.4,1.2,4.4,3.1c0,1.5-1.3,2.4-2.5,2.6c1.2,0.1,2.7,1,2.7,2.8c0,2-1.8,3.4-4.6,3.4C79.6,54.9,78,54.1,77.1,53.1z"/>
	</g>
</g>
<polygon class="st2" points="61.7,59.8 65.9,66.6 66.6,57.3 "/>
</svg>
