<svg xmlns="http://www.w3.org/2000/svg" xmlns:xlink="http://www.w3.org/1999/xlink" width="140" height="95.826" viewBox="0 0 66.65 34.3"><defs><style>.cls-1{fill:none;}.cls-2{opacity:0.92;}.cls-3{clip-path:url(#clip-path);}.cls-4{clip-path:url(#clip-path-2);}.cls-5{fill:#2d314e;}.cls-6{fill:#676d81;}.cls-7{fill:#fff;}.cls-8{fill:#dcc020;}.cls-9{fill:#002c46;}.cls-10{fill:#e84d46;}.cls-11{clip-path:url(#clip-path-3);}</style><clipPath id="clip-path"><rect class="cls-1" x="63.24" y="22.14" width="3.41" height="3.62"/></clipPath><clipPath id="clip-path-2"><rect class="cls-1" x="63.24" y="22.14" width="3.41" height="3.61"/></clipPath><clipPath id="clip-path-3"><rect class="cls-1" x="4.05" y="1.64" width="13" height="5"/></clipPath></defs><g id="Layer_2" data-name="Layer 2"><g id="Layer_1-2" data-name="Layer 1"><g class="cls-2"><g class="cls-3"><g class="cls-4"><path class="cls-5" d="M66.65,24A1.71,1.71,0,1,1,65,22.14,1.75,1.75,0,0,1,66.65,24"/></g></g></g><rect class="cls-6" y="4.55" width="47.15" height="12.24" rx="2.52"/><rect class="cls-6" y="18.02" width="50.07" height="9.77" rx="2.32"/><path class="cls-7" d="M7.77,12.05a1.85,1.85,0,0,1,2-1.81,1.72,1.72,0,0,1,1.56.85l-.69.32a1,1,0,0,0-.87-.51,1.15,1.15,0,1,0,0,2.3,1,1,0,0,0,.87-.51l.69.31a1.75,1.75,0,0,1-1.56.86A1.85,1.85,0,0,1,7.77,12.05Z"/><path class="cls-7" d="M14.44,13.8l-.24-.6H12.6l-.24.6h-.9l1.44-3.51h1l1.44,3.51ZM13.4,11l-.58,1.51H14Z"/><path class="cls-7" d="M15.48,13.3l.44-.58a1.67,1.67,0,0,0,1.19.48c.44,0,.65-.19.65-.39,0-.61-2.16-.19-2.16-1.5,0-.58.54-1.07,1.42-1.07a2.16,2.16,0,0,1,1.46.49l-.44.56A1.64,1.64,0,0,0,17,10.9c-.34,0-.53.14-.53.35,0,.55,2.15.18,2.15,1.49,0,.64-.49,1.12-1.5,1.12A2.24,2.24,0,0,1,15.48,13.3Z"/><path class="cls-7" d="M19.15,13.8V10.29H20V13.8Z"/><path class="cls-7" d="M23.32,13.8l-1.79-2.29V13.8h-.79V10.29h.82l1.73,2.2v-2.2h.8V13.8Z"/><path class="cls-7" d="M24.7,12.05a1.82,1.82,0,0,1,2-1.81,1.82,1.82,0,1,1-2,1.81Zm3.09,0a1.14,1.14,0,1,0-2.27,0,1.14,1.14,0,1,0,2.27,0Z"/><path class="cls-7" d="M33.3,13.8l-.24-.6H31.45l-.23.6h-.91l1.45-3.51h1L34.2,13.8Zm-1-2.76-.59,1.51h1.17Z"/><path class="cls-7" d="M7.77,22.59a1.84,1.84,0,0,1,2-1.81,1.72,1.72,0,0,1,1.56.85l-.69.32a1,1,0,0,0-.87-.51,1.15,1.15,0,1,0,0,2.3,1,1,0,0,0,.87-.51l.69.31a1.75,1.75,0,0,1-1.56.86A1.85,1.85,0,0,1,7.77,22.59Z"/><path class="cls-7" d="M14.44,24.33l-.24-.59H12.6l-.24.59h-.9l1.44-3.5h1l1.44,3.5Zm-1-2.75-.58,1.5H14Z"/><path class="cls-7" d="M15.48,23.84l.44-.58a1.67,1.67,0,0,0,1.19.48c.44,0,.65-.19.65-.39,0-.61-2.16-.19-2.16-1.5,0-.59.54-1.07,1.42-1.07a2.16,2.16,0,0,1,1.46.49l-.44.55A1.68,1.68,0,0,0,17,21.44c-.34,0-.53.14-.53.35,0,.55,2.15.18,2.15,1.48,0,.64-.49,1.13-1.5,1.13A2.24,2.24,0,0,1,15.48,23.84Z"/><path class="cls-7" d="M19.15,24.33v-3.5H20v3.5Z"/><path class="cls-7" d="M23.32,24.33l-1.79-2.28v2.28h-.79v-3.5h.82L23.29,23v-2.2h.8v3.5Z"/><path class="cls-7" d="M24.7,22.59a1.82,1.82,0,0,1,2-1.81,1.82,1.82,0,1,1-2,1.81Zm3.09,0a1.14,1.14,0,1,0-1.13,1.15A1.09,1.09,0,0,0,27.79,22.59Z"/><path class="cls-7" d="M30.71,24.33v-3.5h2a1,1,0,0,1,1.08.9.8.8,0,0,1-.65.8.86.86,0,0,1,.72.85,1,1,0,0,1-1.09.95Zm2.23-2.47c0-.22-.17-.37-.44-.37h-1v.73h1C32.77,22.22,32.94,22.08,32.94,21.86ZM33,23.28c0-.22-.16-.4-.47-.4h-1v.8h1C32.83,23.68,33,23.53,33,23.28Z"/><rect class="cls-8" x="18.23" width="35" height="8.28" rx="1.78"/><path class="cls-9" d="M26.3,6.57,24.16,3.64V6.57h-1V2.08h1L26.26,4.9V2.08h1V6.57Z"/><path class="cls-9" d="M27.84,4.32a2.35,2.35,0,0,1,4.69,0,2.35,2.35,0,0,1-4.69,0Zm3.71,0a1.37,1.37,0,1,0-2.73,0,1.37,1.37,0,1,0,2.73,0Z"/><path class="cls-9" d="M34.41,6.57,32.68,2.08h1.08L35,5.52l1.24-3.44h1.08L35.6,6.57Z"/><path class="cls-9" d="M37.48,4.32a2.35,2.35,0,0,1,4.69,0,2.35,2.35,0,0,1-4.69,0Zm3.71,0a1.37,1.37,0,1,0-2.73,0,1.37,1.37,0,1,0,2.73,0Z"/><rect class="cls-10" width="21.1" height="8.28" rx="1.39"/><g class="cls-11"><path class="cls-7" d="M4.29,4.28A2.08,2.08,0,0,1,6.47,2a2.17,2.17,0,0,1,1.38.45l-.45.72a1.26,1.26,0,0,0-.93-.35A1.18,1.18,0,0,0,5.3,4.08a.34.34,0,0,0,0,.1,1.52,1.52,0,0,1,1.2-.57A1.45,1.45,0,0,1,8.11,5a1.61,1.61,0,0,1-1.8,1.5C4.88,6.54,4.29,5.51,4.29,4.28Zm2.8.79c0-.46-.42-.66-.87-.66a1.17,1.17,0,0,0-.91.42.9.9,0,0,0,.94.88C6.79,5.71,7.09,5.37,7.09,5.07Z"/><path class="cls-7" d="M11.89,6.46l-1.17-1.6L9.54,6.46H8.35l1.7-2.24L8.46,2.08H9.64l1.08,1.5,1.06-1.5H13l-1.6,2.13,1.7,2.25Z"/><path class="cls-7" d="M13.26,5.84l.53-.63a1.85,1.85,0,0,0,1.28.5c.57,0,.88-.23.88-.56s-.28-.5-.94-.5h-.58V3.82H15c.52,0,.88-.15.88-.47s-.39-.52-.88-.52a1.74,1.74,0,0,0-1.19.46l-.5-.59A2.38,2.38,0,0,1,15.11,2c1.1,0,1.77.46,1.77,1.19a1.09,1.09,0,0,1-1,1,1.15,1.15,0,0,1,1.09,1c0,.76-.72,1.29-1.84,1.29A2.44,2.44,0,0,1,13.26,5.84Z"/></g><rect class="cls-10" x="42.07" y="1.8" width="16.7" height="16.7" rx="4" transform="translate(7.59 38.63) rotate(-45)"/><path class="cls-7" d="M44.94,9.89c0-1.64.81-3.28,2.63-3.28S50.2,8.25,50.2,9.89s-.81,3.28-2.63,3.28S44.94,11.53,44.94,9.89Zm3.87,0c0-1.17-.33-2.08-1.24-2.08s-1.25.91-1.25,2.08S46.66,12,47.57,12,48.81,11.06,48.81,9.89Z"/><path class="cls-7" d="M51,13.06V12c2.59-1.92,3.36-2.57,3.36-3.35,0-.56-.51-.83-1-.83a2.3,2.3,0,0,0-1.71.73l-.77-.89a3.25,3.25,0,0,1,2.45-1,2.15,2.15,0,0,1,2.43,2c0,1.09-.9,2-2.55,3.23h2.59v1.19Z"/><path class="cls-5" d="M48.88,24.44a1.75,1.75,0,0,1,1.35-2.15,1.93,1.93,0,0,1,2.27,1.35,1.75,1.75,0,0,1-1.35,2.16,1.93,1.93,0,0,1-2.27-1.36"/><rect class="cls-10" x="42.07" y="15.8" width="16.7" height="16.7" rx="4" transform="translate(-2.31 42.73) rotate(-45)"/><path class="cls-7" d="M45,23.89c0-1.64.81-3.28,2.63-3.28s2.63,1.64,2.63,3.28-.81,3.28-2.63,3.28S45,25.53,45,23.89Zm3.88,0c0-1.17-.34-2.08-1.25-2.08s-1.25.91-1.25,2.08S46.72,26,47.63,26,48.88,25.06,48.88,23.89Z"/><path class="cls-7" d="M50.77,26.15l.71-.9a2.49,2.49,0,0,0,1.75.72c.77,0,1.2-.33,1.2-.81s-.4-.73-1.28-.73l-.79,0V23.23h.79c.7,0,1.18-.21,1.18-.68s-.52-.75-1.18-.75a2.29,2.29,0,0,0-1.62.66l-.68-.85a3.15,3.15,0,0,1,2.43-1c1.49,0,2.4.67,2.4,1.73a1.54,1.54,0,0,1-1.39,1.44,1.6,1.6,0,0,1,1.49,1.53c0,1.09-1,1.86-2.51,1.86A3.14,3.14,0,0,1,50.77,26.15Z"/></g></g></svg>