<?xml version="1.0" encoding="utf-8"?>
<!-- Generator: Adobe Illustrator 25.2.3, SVG Export Plug-In . SVG Version: 6.00 Build 0)  -->
<svg version="1.1" id="Layer_1" xmlns="http://www.w3.org/2000/svg" width="200" height="95" xmlns:xlink="http://www.w3.org/1999/xlink" x="0px" y="0px"
	 viewBox="0 0 200 95" style="enable-background:new 0 0 200 95;" xml:space="preserve">
<style type="text/css">
	.st0{opacity:0.92;fill:#2D314E;enable-background:new    ;}
	.st1{fill:none;}
	.st2{fill:#E84D46;}
	.st3{fill:#DCC020;}
	.st4{fill:#676D81;}
	.st5{enable-background:new    ;}
	.st6{fill:#FFFFFF;}
	.st7{fill:#002C46;}
</style>
<g id="_24_julho_novo" transform="translate(200.275 451.873)">
	<path id="Path_11" class="st0" d="M-116.1-367.9c-0.1,2.2-2,3.9-4.3,3.8c-2.2-0.1-3.9-2-3.8-4.3c0.1-2.1,1.9-3.8,4-3.8
		C-117.8-372-116-370.1-116.1-367.9z"/>
</g>
<g id="casino" transform="translate(-470.926 -104.601)">
	<g id="Group_66" transform="translate(-445.705 -152.518)">
		<rect id="Rectangle_41" x="916.7" y="274.4" class="st1" width="56.7" height="52.3"/>
	</g>
</g>
<g>
	<rect x="148.9" y="0.8" class="st2" width="51.1" height="17.4"/>
</g>
<g>
	<rect x="72.8" y="0.8" class="st3" width="75.9" height="17.4"/>
</g>
<rect x="107.7" y="18.2" class="st4" width="92.7" height="25.6"/>
<g class="st5">
	<path class="st6" d="M121.1,30.9c0-3,2.2-5,5.1-5c2.1,0,3.3,1.2,3.9,2.4l-1.8,0.8c-0.4-0.7-1.3-1.4-2.2-1.4c-1.8,0-3,1.3-3,3.1
		c0,1.8,1.3,3.1,3,3.1c0.9,0,1.8-0.6,2.2-1.4l1.8,0.8c-0.7,1.2-1.9,2.4-3.9,2.4C123.4,35.9,121.1,33.9,121.1,30.9z"/>
	<path class="st6" d="M137.8,35.6l-0.6-1.7h-4l-0.6,1.7h-2.2l3.7-9.4h2.5l3.7,9.4H137.8z M135.2,28.2l-1.5,4.1h3L135.2,28.2z"/>
	<path class="st6" d="M140.3,34.3l1.1-1.5c0.7,0.7,1.7,1.3,3.1,1.3c1.2,0,1.7-0.5,1.7-1.1c0-1.7-5.4-0.5-5.4-4
		c0-1.5,1.4-2.8,3.5-2.8c1.5,0,2.7,0.5,3.7,1.3l-1.2,1.5c-0.8-0.7-1.8-1.1-2.7-1.1c-0.8,0-1.3,0.4-1.3,0.9c0,1.5,5.4,0.5,5.4,4
		c0,1.8-1.3,3.1-3.8,3.1C142.4,35.9,141.1,35.3,140.3,34.3z"/>
	<path class="st6" d="M149.4,35.6v-9.4h2v9.4H149.4z"/>
	<path class="st6" d="M159.9,35.6l-4.5-6.1v6.1h-2v-9.4h2.1l4.4,5.9v-5.9h2v9.4H159.9z"/>
	<path class="st6" d="M163.2,30.9c0-2.8,2.1-5,5-5s5,2,5,5c0,2.8-2.1,5-5,5S163.2,33.9,163.2,30.9z M171.1,30.9
		c0-1.8-1.2-3.1-2.8-3.1c-1.8,0-2.8,1.3-2.8,3.1s1.2,3.1,2.8,3.1C169.9,34.1,171.1,32.7,171.1,30.9z"/>
	<path class="st6" d="M184.8,35.6l-0.6-1.7h-4l-0.6,1.7h-2.2l3.7-9.4h2.5l3.7,9.4H184.8z M182.2,28.2l-1.5,4.1h3L182.2,28.2z"/>
</g>
<rect x="59.4" y="18.2" class="st1" width="34.9" height="25.6"/>
<g>
	<rect x="72.8" y="18.2" class="st2" width="34.9" height="25.6"/>
</g>
<rect x="148.9" y="0.8" class="st1" width="51.1" height="17.4"/>
<g class="st5">
	<path class="st6" d="M161,9.4c0-3.1,1.7-5.2,4.6-5.2c1.2,0,2.2,0.4,3,1.1l-0.9,1.7c-0.6-0.5-1.1-0.8-2-0.8c-1.4,0-2.5,1.2-2.5,2.8
		c0,0.1,0,0.1,0,0.2c0.5-0.7,1.4-1.3,2.6-1.3c1.8,0,3.4,1.1,3.4,3.2c0,1.9-1.5,3.4-3.8,3.4C162.3,14.6,161,12.3,161,9.4z
		 M167.1,11.2c0-1.1-0.9-1.5-1.9-1.5c-0.7,0-1.5,0.4-2,0.9c0.1,0.9,0.6,2,2,2C166.4,12.7,167.1,11.9,167.1,11.2z"/>
	<path class="st6" d="M177.1,14.4l-2.5-3.7l-2.5,3.7h-2.5l3.7-5.1l-3.4-4.8h2.5l2.2,3.4l2.2-3.4h2.6L176,9.3l3.7,5.1H177.1z"/>
	<path class="st6" d="M179.9,13l1.1-1.4c0.7,0.7,1.8,1.2,2.7,1.2c1.2,0,1.9-0.5,1.9-1.3c0-0.8-0.6-1.2-2-1.2c-0.5,0-1.1,0-1.2,0V8.4
		c0.2,0,0.8,0,1.2,0c1.1,0,1.9-0.4,1.9-1.1c0-0.8-0.8-1.2-1.9-1.2c-0.9,0-1.9,0.4-2.6,1.1l-1.1-1.3c0.8-0.9,2-1.5,3.8-1.5
		c2.4,0,3.8,1.1,3.8,2.7c0,1.3-1.1,2.1-2.1,2.2c1.1,0.1,2.4,0.9,2.4,2.4c0,1.8-1.5,3-3.9,3C181.9,14.6,180.6,13.9,179.9,13z"/>
</g>
<g class="st5">
	<path class="st7" d="M98.7,14.4L94,7.9v6.5h-2.1V4.5H94l4.6,6.3V4.5h2.1v9.9H98.7z"/>
	<path class="st7" d="M102.2,9.4c0-3,2.2-5.2,5.2-5.2c3,0,5.2,2.1,5.2,5.2s-2.2,5.2-5.2,5.2C104.5,14.6,102.2,12.5,102.2,9.4z
		 M110.5,9.4c0-1.9-1.2-3.3-3.1-3.3c-1.9,0-3.1,1.4-3.1,3.3s1.2,3.3,3.1,3.3C109.3,12.7,110.5,11.3,110.5,9.4z"/>
	<path class="st7" d="M116.6,14.4l-3.9-9.9h2.4l2.7,7.7l2.7-7.7h2.4l-3.9,9.9H116.6z"/>
	<path class="st7" d="M123.3,9.4c0-3,2.2-5.2,5.2-5.2c3,0,5.2,2.1,5.2,5.2s-2.2,5.2-5.2,5.2C125.5,14.6,123.3,12.5,123.3,9.4z
		 M131.5,9.4c0-1.9-1.2-3.3-3.1-3.3c-1.9,0-3.1,1.4-3.1,3.3s1.2,3.3,3.1,3.3C130.3,12.7,131.5,11.3,131.5,9.4z"/>
</g>
<g>
	<rect x="107.8" y="45.2" class="st4" width="92.2" height="25.6"/>
</g>
<rect x="94.3" y="45.2" class="st1" width="105.7" height="25.6"/>
<g class="st5">
	<path class="st6" d="M121.5,58.1c0-3,2.2-5,5.1-5c2.1,0,3.3,1.2,3.9,2.4l-1.8,0.8c-0.4-0.8-1.3-1.4-2.2-1.4c-1.8,0-3,1.3-3,3.1
		c0,1.8,1.3,3.1,3,3.1c0.9,0,1.8-0.6,2.2-1.4l1.8,0.8c-0.7,1.2-1.9,2.4-3.9,2.4C123.7,62.9,121.5,60.9,121.5,58.1z"/>
	<path class="st6" d="M138.1,62.8l-0.6-1.7h-4l-0.6,1.7h-2.2l3.7-9.4h2.5l3.7,9.4H138.1z M135.5,55.2l-1.5,4.1h3L135.5,55.2z"/>
	<path class="st6" d="M140.6,61.4l1.1-1.5c0.7,0.7,1.7,1.3,3.1,1.3c1.2,0,1.7-0.5,1.7-1.1c0-1.7-5.4-0.5-5.4-4
		c0-1.5,1.4-2.8,3.5-2.8c1.5,0,2.7,0.5,3.7,1.3l-1.2,1.5c-0.8-0.7-1.8-1.1-2.7-1.1c-0.8,0-1.3,0.4-1.3,0.9c0,1.5,5.4,0.5,5.4,4
		c0,1.8-1.3,3.1-3.8,3.1C142.9,62.9,141.6,62.3,140.6,61.4z"/>
	<path class="st6" d="M149.8,62.8v-9.4h2v9.4H149.8z"/>
	<path class="st6" d="M160.2,62.8l-4.5-6.1v6.1h-2v-9.4h2.1l4.4,5.9v-5.9h2v9.4H160.2z"/>
	<path class="st6" d="M163.6,58.1c0-2.8,2.1-5,5-5c2.8,0,5,2,5,5s-2.1,5-5,5C165.6,62.9,163.6,60.9,163.6,58.1z M171.4,58.1
		c0-1.8-1.2-3.1-2.8-3.1c-1.8,0-2.8,1.3-2.8,3.1s1.2,3.1,2.8,3.1C170.2,61.1,171.4,59.7,171.4,58.1z"/>
	<path class="st6" d="M178.6,62.8v-9.4h5c1.8,0,2.7,1.2,2.7,2.4s-0.7,2-1.7,2.1c1.1,0.1,1.8,1.2,1.8,2.4c0,1.4-0.9,2.6-2.7,2.6
		H178.6z M184.3,56.1c0-0.6-0.5-0.9-1.1-0.9h-2.5v2h2.5C183.8,57,184.3,56.6,184.3,56.1z M184.4,59.8c0-0.6-0.5-1.1-1.2-1.1h-2.6V61
		h2.6C183.9,61,184.4,60.5,184.4,59.8z"/>
</g>
<rect x="59.4" y="45.2" class="st1" width="34.9" height="25.6"/>
<g>
	<rect x="72.8" y="45.2" class="st2" width="34.9" height="25.6"/>
</g>
<polygon class="st2" points="72.8,70.8 77.8,78.8 78.6,67.9 "/>
<g>
	<path class="st6" d="M82.4,38.4V27.8L80,30.2l-1.8-1.9l4.6-4.6h2.7v14.7H82.4z"/>
	<path class="st6" d="M87.7,31.1c0-4.4,2.5-7.6,6.8-7.6c1.8,0,3.3,0.6,4.3,1.5l-1.4,2.4c-0.8-0.7-1.6-1.1-2.9-1.1
		c-2.2,0-3.7,1.8-3.7,4.2c0,0.1,0,0.2,0,0.3c0.7-1,2.2-1.9,3.8-1.9c2.6,0,5,1.7,5,4.8c0,2.9-2.3,5-5.6,5
		C89.6,38.7,87.7,35.2,87.7,31.1z M96.5,33.7c0-1.5-1.3-2.2-2.7-2.2c-1.1,0-2.2,0.5-2.9,1.4c0.1,1.4,0.9,3,3,3
		C95.6,35.9,96.5,34.8,96.5,33.7z"/>
</g>
<g>
	<path class="st6" d="M83.2,65.1V54.5l-2.4,2.5l-1.8-1.9l4.6-4.6h2.7v14.7H83.2z"/>
	<path class="st6" d="M90.4,65.1l5.3-11.9h-7.4v-2.8h11v2.2l-5.5,12.5H90.4z"/>
</g>
</svg>
