<svg xmlns="http://www.w3.org/2000/svg" width="169.418" height="80.059" viewBox="0 0 169.418 80.059">
  <g id="casino" transform="translate(-470.926 -104.601)">
    <g id="Group_20" data-name="Group 20" transform="translate(553.75 178.334)" opacity="0.92">
      <g id="Group_19" data-name="Group 19">
        <path id="Path_27" data-name="Path 27" d="M374.811,48.227a2.985,2.985,0,1,0-2.982,3.16,3.075,3.075,0,0,0,2.982-3.16Z" transform="translate(-368.851 -45.061)" fill="#2d314e" opacity="0.8"/>
      </g>
    </g>
    <g id="Group_42" data-name="Group 42" transform="translate(559.915 126.595)">
      <path id="Path_55" data-name="Path 55" d="M446.657,46.869l-66.843-1.4,1.767-24.527h70.263L453.083,38Z" transform="translate(-372.654 -19.022)" fill="#bdd8f1" opacity="0.5"/>
      <path id="Path_56" data-name="Path 56" d="M444.285,46.16H371.128V20.233H450.17V37.3Z" transform="translate(-371.128 -20.233)" fill="#bdd8f1"/>
      <path id="Path_57" data-name="Path 57" d="M417.3,27.307v9.951l7.382-9.951Z" transform="translate(-345.639 -11.331)" fill="#bdd8f1"/>
    </g>
    <g id="Group_44" data-name="Group 44" transform="translate(597.555 104.601)">
      <g id="Group_43" data-name="Group 43">
        <rect id="Rectangle_26" data-name="Rectangle 26" width="41.91" height="21.994"/>
        <path id="_6x3" data-name="6x3" d="M3.288-3.912a3.579,3.579,0,0,0-.564.048,1.662,1.662,0,0,0-.468.132q0,.048-.006.144t-.006.168A5.287,5.287,0,0,0,2.3-2.6a2.286,2.286,0,0,0,.2.672,1.149,1.149,0,0,0,.384.45,1.049,1.049,0,0,0,.6.162A.974.974,0,0,0,4-1.446a1.154,1.154,0,0,0,.348-.318,1.353,1.353,0,0,0,.2-.426,1.656,1.656,0,0,0,.066-.45,1.335,1.335,0,0,0-.306-.942A1.35,1.35,0,0,0,3.288-3.912ZM3.516-5.3a3.7,3.7,0,0,1,1.326.21,2.438,2.438,0,0,1,.894.57,2.148,2.148,0,0,1,.5.84A3.28,3.28,0,0,1,6.4-2.664a3.005,3.005,0,0,1-.174.984,2.749,2.749,0,0,1-.528.912,2.766,2.766,0,0,1-.9.672A2.935,2.935,0,0,1,3.5.168,2.782,2.782,0,0,1,1.224-.78,4,4,0,0,1,.444-3.4,5.654,5.654,0,0,1,.816-5.52,4.187,4.187,0,0,1,1.878-7.074a4.635,4.635,0,0,1,1.668-.96,7.085,7.085,0,0,1,2.2-.342Q5.772-8,5.8-7.65t.048.738A6.823,6.823,0,0,0,4.7-6.8a3.8,3.8,0,0,0-.972.318,2.66,2.66,0,0,0-.762.558,2.388,2.388,0,0,0-.5.834A2.22,2.22,0,0,1,3-5.256,3.021,3.021,0,0,1,3.516-5.3Zm6.528.912,1.248-1.92H13.14L10.98-3.276q.72.9,1.308,1.752A14.425,14.425,0,0,1,13.224,0H11.3l-.24-.45q-.144-.27-.324-.564T10.362-1.6q-.2-.294-.39-.534-.18.228-.366.5t-.354.558q-.168.282-.33.558T8.64,0H6.816a7.862,7.862,0,0,1,.4-.708q.252-.408.546-.846t.618-.876q.324-.438.636-.822-.54-.756-1.08-1.53L6.864-6.312H8.8ZM15.96.18a5.913,5.913,0,0,1-.684-.042q-.36-.042-.7-.114t-.612-.156a3.525,3.525,0,0,1-.432-.156l.348-1.488q.312.132.8.282a4.145,4.145,0,0,0,1.206.15A1.913,1.913,0,0,0,17.1-1.656a1.026,1.026,0,0,0,.384-.84,1.015,1.015,0,0,0-.138-.546,1.055,1.055,0,0,0-.378-.36,1.679,1.679,0,0,0-.57-.192,4.348,4.348,0,0,0-.7-.054H15v-1.44h.792a2.658,2.658,0,0,0,.51-.048A1.361,1.361,0,0,0,16.74-5.3a.848.848,0,0,0,.306-.312.987.987,0,0,0,.114-.5.785.785,0,0,0-.1-.4.862.862,0,0,0-.246-.276,1.072,1.072,0,0,0-.348-.162,1.521,1.521,0,0,0-.4-.054,2.824,2.824,0,0,0-.954.156,3.983,3.983,0,0,0-.8.384L13.68-7.764q.192-.12.45-.252a4.441,4.441,0,0,1,.57-.24,5.209,5.209,0,0,1,.666-.18,3.758,3.758,0,0,1,.75-.072,4.1,4.1,0,0,1,1.266.174,2.379,2.379,0,0,1,.882.492,1.983,1.983,0,0,1,.516.744,2.513,2.513,0,0,1,.168.93,1.836,1.836,0,0,1-.276.954,1.821,1.821,0,0,1-.744.7,2.156,2.156,0,0,1,1,.786,2.181,2.181,0,0,1,.354,1.254,2.865,2.865,0,0,1-.192,1.062,2.142,2.142,0,0,1-.6.84,2.879,2.879,0,0,1-1.038.552A5.007,5.007,0,0,1,15.96.18Z" transform="translate(10.955 15.497)" fill="#fff"/>
      </g>
    </g>
    <ellipse id="Ellipse_10" data-name="Ellipse 10" cx="23.022" cy="22.782" rx="23.022" ry="22.782" transform="translate(533.708 113.488)" fill="#eee9de"/>
    <path id="Path_58" data-name="Path 58" d="M410.8,45.163a25.051,25.051,0,1,0-50.1,0,24.513,24.513,0,0,0,5.5,15.492c4.59,5.668,19.211,23.037,19.211,23.037s15.308-17.369,19.9-23.037A24.53,24.53,0,0,0,410.8,45.163Z" transform="translate(170.979 91.108)" fill="#2d314e" opacity="0.92"/>
    <path id="CASINO-2" data-name="CASINO" d="M4.356.154A3.7,3.7,0,0,1,1.524-.88,4.121,4.121,0,0,1,.55-3.817a4.516,4.516,0,0,1,.3-1.689A3.638,3.638,0,0,1,1.661-6.76a3.4,3.4,0,0,1,1.232-.775A4.444,4.444,0,0,1,4.444-7.8a4.971,4.971,0,0,1,.88.071,5.706,5.706,0,0,1,.693.165,3.42,3.42,0,0,1,.5.192q.2.1.286.154L6.3-5.83a4.152,4.152,0,0,0-.819-.319,3.911,3.911,0,0,0-1.062-.132,2.345,2.345,0,0,0-.776.132,1.754,1.754,0,0,0-.671.424,2.11,2.11,0,0,0-.468.753A3.161,3.161,0,0,0,2.332-3.85a4,4,0,0,0,.115.984,2.088,2.088,0,0,0,.374.787,1.8,1.8,0,0,0,.676.523,2.408,2.408,0,0,0,1.012.192,4.611,4.611,0,0,0,.671-.044,4.982,4.982,0,0,0,.528-.1,2.772,2.772,0,0,0,.407-.138q.176-.077.319-.143L6.908-.418a4.02,4.02,0,0,1-1.023.4A5.962,5.962,0,0,1,4.356.154ZM13.519,0Q13.4-.4,13.25-.814t-.292-.836H9.988q-.143.418-.292.836T9.427,0H7.645q.429-1.232.814-2.277t.753-1.969Q9.581-5.17,9.938-6t.743-1.623H12.32q.374.792.737,1.623t.732,1.754q.368.924.753,1.969T15.356,0ZM11.462-5.9q-.055.165-.165.451l-.253.66q-.143.374-.314.825t-.346.946h2.167q-.176-.5-.341-.946T11.9-4.785q-.148-.374-.258-.66T11.462-5.9Zm7.271,4.587a2.475,2.475,0,0,0,.6-.061,1.105,1.105,0,0,0,.379-.165.552.552,0,0,0,.2-.247.882.882,0,0,0,.055-.319.737.737,0,0,0-.352-.622,5.03,5.03,0,0,0-1.21-.533q-.374-.132-.748-.3a2.757,2.757,0,0,1-.671-.429,2.052,2.052,0,0,1-.484-.627,1.964,1.964,0,0,1-.187-.9,2.22,2.22,0,0,1,.2-.951,2.031,2.031,0,0,1,.561-.721,2.567,2.567,0,0,1,.88-.457A3.95,3.95,0,0,1,19.118-7.8a4.748,4.748,0,0,1,1.331.165,4.756,4.756,0,0,1,.924.363l-.5,1.353a4.688,4.688,0,0,0-.709-.292,3.072,3.072,0,0,0-.941-.126,1.725,1.725,0,0,0-.885.17.575.575,0,0,0-.27.523.6.6,0,0,0,.1.352.962.962,0,0,0,.28.258,2.468,2.468,0,0,0,.418.209q.237.093.522.192.594.22,1.034.435a2.761,2.761,0,0,1,.732.5,1.813,1.813,0,0,1,.434.671,2.7,2.7,0,0,1,.143.935,1.986,1.986,0,0,1-.748,1.655,3.61,3.61,0,0,1-2.255.589,6.248,6.248,0,0,1-.913-.06,5.892,5.892,0,0,1-.72-.149,4.132,4.132,0,0,1-.539-.187,4.093,4.093,0,0,1-.38-.187l.484-1.364a4.315,4.315,0,0,0,.841.336A4.365,4.365,0,0,0,18.733-1.309Zm4.422-6.314h1.716V0H23.155ZM31.845,0q-.737-1.309-1.6-2.585a26.271,26.271,0,0,0-1.826-2.409V0H26.73V-7.623h1.4q.363.363.8.891t.9,1.127q.457.6.908,1.243t.847,1.237v-4.5h1.7V0Zm4.741-3.817A3.465,3.465,0,0,0,36.723-2.8a2.312,2.312,0,0,0,.4.775,1.753,1.753,0,0,0,.632.5,1.993,1.993,0,0,0,.858.176,2,2,0,0,0,.852-.176,1.741,1.741,0,0,0,.638-.5,2.312,2.312,0,0,0,.4-.775,3.465,3.465,0,0,0,.138-1.012A3.521,3.521,0,0,0,40.5-4.834a2.305,2.305,0,0,0-.4-.781,1.741,1.741,0,0,0-.638-.5,2,2,0,0,0-.852-.176,1.942,1.942,0,0,0-.858.182,1.808,1.808,0,0,0-.632.506,2.305,2.305,0,0,0-.4.781A3.48,3.48,0,0,0,36.586-3.817Zm5.819,0A4.691,4.691,0,0,1,42.113-2.1a3.54,3.54,0,0,1-.8,1.243,3.274,3.274,0,0,1-1.2.754,4.376,4.376,0,0,1-1.5.253A4.264,4.264,0,0,1,37.136-.1a3.389,3.389,0,0,1-1.21-.754A3.523,3.523,0,0,1,35.112-2.1a4.613,4.613,0,0,1-.3-1.721,4.466,4.466,0,0,1,.308-1.721,3.668,3.668,0,0,1,.83-1.248,3.415,3.415,0,0,1,1.21-.759A4.155,4.155,0,0,1,38.61-7.8a4.264,4.264,0,0,1,1.474.253,3.352,3.352,0,0,1,1.21.759,3.58,3.58,0,0,1,.814,1.248A4.613,4.613,0,0,1,42.4-3.817Z" transform="translate(588.221 144.091)"/>
    <path id="Path_106" data-name="Path 106" d="M23.022,0A22.9,22.9,0,0,1,46.044,22.782,22.9,22.9,0,0,1,23.022,45.565,22.9,22.9,0,0,1,0,22.782,22.9,22.9,0,0,1,23.022,0Z" transform="translate(533.708 113.488)" fill="#98c390"/>
    <path id="_14" data-name="14" d="M.91-7.137q.377-.156.787-.358t.8-.442q.39-.241.747-.507a5.131,5.131,0,0,0,.643-.565H5.239V0H3.3V-6.487a5.9,5.9,0,0,1-.871.474Q1.95-5.8,1.5-5.642Zm10.738.494q-.507.663-1.079,1.443a9.909,9.909,0,0,0-.962,1.6h2.041Zm1.9-2.366V-3.6h.962v1.586h-.962V0h-1.9V-2.015H7.761V-3.432Q8.047-4,8.476-4.726t.955-1.482q.527-.761,1.112-1.489a16.252,16.252,0,0,1,1.17-1.313Z" transform="translate(549.23 141.271)" fill="#231f20"/>
    <g id="Group_66" data-name="Group 66" transform="translate(-445.705 -152.518)">
      <rect id="Rectangle_41" data-name="Rectangle 41" width="60.753" height="56" transform="translate(916.631 263)" fill="none"/>
    </g>
  </g>
</svg>
