<?xml version="1.0" encoding="utf-8"?>
<!-- Generator: Adobe Illustrator 25.2.3, SVG Export Plug-In . SVG Version: 6.00 Build 0)  -->
<svg version="1.1" id="Layer_1" xmlns="http://www.w3.org/2000/svg" width="200" height="95" xmlns:xlink="http://www.w3.org/1999/xlink" x="0px" y="0px"
	 viewBox="0 0 200 95" style="enable-background:new 0 0 200 95;" xml:space="preserve">
<style type="text/css">
	.st0{opacity:0.92;fill:#2D314E;enable-background:new    ;}
	.st1{fill:none;}
	.st2{fill:#E84D46;}
	.st3{fill:#DCC020;}
	.st4{fill:#676D81;}
	.st5{fill:#FFFFFF;}
	.st6{fill:#002C46;}
</style>
<g id="_24_julho_novo" transform="translate(200.275 451.873)">
	<path id="Path_11" class="st0" d="M-116.1-367.9c-0.1,2.2-2,3.9-4.3,3.8c-2.2-0.1-3.9-2-3.8-4.3c0.1-2.1,1.9-3.8,4-3.8
		C-117.8-372-116-370.1-116.1-367.9z"/>
</g>
<g id="casino" transform="translate(-470.926 -104.601)">
	<g id="Group_66" transform="translate(-445.705 -152.518)">
		<rect id="Rectangle_41" x="916.7" y="274.4" class="st1" width="56.7" height="52.3"/>
	</g>
</g>
<g>
	<rect x="148.9" y="0.8" class="st2" width="51.1" height="17.4"/>
</g>
<g>
	<rect x="72.8" y="0.8" class="st3" width="75.9" height="17.4"/>
</g>
<rect x="107.7" y="18.2" class="st4" width="92.7" height="25.6"/>
<rect x="59.4" y="18.2" class="st1" width="34.9" height="25.6"/>
<g>
	<rect x="72.8" y="18.2" class="st2" width="34.9" height="25.6"/>
</g>
<rect x="148.9" y="0.8" class="st1" width="51.1" height="17.4"/>
<g>
	<rect x="107.8" y="45.2" class="st4" width="92.2" height="25.6"/>
</g>
<rect x="94.3" y="45.2" class="st1" width="105.7" height="25.6"/>
<rect x="59.4" y="45.2" class="st1" width="34.9" height="25.6"/>
<g>
	<rect x="72.8" y="45.2" class="st2" width="34.9" height="25.6"/>
</g>
<polygon class="st2" points="72.8,70.8 77.8,78.8 78.6,67.9 "/>
<g>
	<path class="st5" d="M85.8,38.3H84V26.1l-2.4,2.5l-1.1-1.1l3.7-3.8h1.6V38.3z"/>
	<path class="st5" d="M94.3,38.6c-1,0-1.9-0.2-2.6-0.6c-0.7-0.4-1.3-1-1.8-1.7s-0.8-1.5-1-2.4c-0.2-0.9-0.3-1.8-0.3-2.9
		c0-2.1,0.5-3.9,1.5-5.4c1-1.5,2.5-2.2,4.5-2.2c1.7,0,3,0.6,4,1.8l-0.9,1.4c-0.9-1-1.9-1.5-3.1-1.5c-1.3,0-2.4,0.6-3.1,1.7
		c-0.7,1.1-1.1,2.5-1.1,4.1v0.6c0.4-0.6,0.9-1.1,1.7-1.6c0.8-0.5,1.6-0.7,2.5-0.7c1.4,0,2.5,0.4,3.4,1.2c0.9,0.8,1.4,2,1.4,3.5
		c0,1.3-0.5,2.5-1.4,3.4S95.9,38.6,94.3,38.6z M94.2,37c1.1,0,1.9-0.3,2.5-1c0.6-0.6,0.9-1.4,0.9-2.1c0-1-0.3-1.8-0.9-2.4
		s-1.4-0.8-2.4-0.8c-0.7,0-1.4,0.2-2.1,0.6c-0.7,0.4-1.2,0.9-1.6,1.6c0.1,1.1,0.4,2,1,2.9C92.2,36.6,93.1,37,94.2,37z"/>
</g>
<g>
	<path class="st5" d="M161.9,14.7h-1.3V6L159,7.8L158.2,7l2.6-2.7h1.1V14.7z"/>
	<path class="st5" d="M171.1,14.7H164v-1c2.1-1.7,3.6-2.9,4.5-3.8c0.9-0.9,1.3-1.8,1.3-2.6c0-0.6-0.2-1.1-0.6-1.4
		c-0.4-0.3-0.9-0.5-1.5-0.5c-1.2,0-2.1,0.4-2.8,1.3L164,5.8c0.4-0.5,0.9-0.9,1.5-1.2c0.6-0.3,1.3-0.4,2.1-0.4c0.9,0,1.8,0.3,2.4,0.8
		c0.7,0.5,1,1.3,1,2.2c0,1-0.4,1.9-1.2,2.9s-2.1,2.1-3.8,3.4h5.1V14.7z"/>
	<path class="st5" d="M182.2,14.7h-1.6l-3.3-4.4l-3.3,4.4h-1.6l4-5.3l-3.8-5h1.6l3.1,4.1l3.1-4.1h1.6l-3.8,5L182.2,14.7z"/>
	<path class="st5" d="M186.5,14.9c-0.8,0-1.6-0.2-2.2-0.5c-0.6-0.3-1.1-0.7-1.5-1.2l0.8-0.8c0.3,0.4,0.7,0.7,1.2,1
		c0.5,0.2,1.1,0.4,1.7,0.4c0.7,0,1.3-0.2,1.8-0.5c0.4-0.4,0.7-0.8,0.7-1.4c0-0.6-0.2-1.1-0.7-1.4c-0.5-0.3-1.1-0.4-1.9-0.4
		c-0.6,0-1,0-1.1,0V8.8c0.1,0,0.5,0,1.1,0c0.7,0,1.3-0.1,1.7-0.4c0.5-0.3,0.7-0.7,0.7-1.3c0-0.5-0.2-1-0.7-1.3
		c-0.4-0.3-1-0.5-1.7-0.5c-1,0-2,0.4-2.7,1.3L183,5.8c0.9-1.1,2.1-1.6,3.5-1.6c1,0,1.9,0.2,2.5,0.7c0.7,0.5,1,1.2,1,2
		c0,0.7-0.2,1.2-0.7,1.6c-0.5,0.4-1,0.7-1.5,0.8c0.6,0.1,1.1,0.3,1.6,0.8s0.8,1,0.8,1.8c0,0.9-0.3,1.6-1,2.1
		C188.5,14.6,187.6,14.9,186.5,14.9z"/>
</g>
<g>
	<path class="st6" d="M98.5,14.7h-1.2l-6-8.2v8.2h-1.3V4.3h1.3l6,8.1V4.3h1.3V14.7z"/>
	<path class="st6" d="M109.3,13.3c-1,1-2.2,1.5-3.7,1.5s-2.7-0.5-3.7-1.5c-1-1-1.4-2.3-1.4-3.8c0-1.5,0.5-2.8,1.4-3.8
		c1-1,2.2-1.5,3.7-1.5s2.7,0.5,3.7,1.5c1,1,1.4,2.3,1.4,3.8C110.8,11,110.3,12.3,109.3,13.3z M105.6,13.7c1.1,0,2.1-0.4,2.8-1.2
		c0.7-0.8,1.1-1.8,1.1-3c0-1.2-0.4-2.2-1.1-3c-0.7-0.8-1.6-1.2-2.8-1.2c-1.1,0-2.1,0.4-2.8,1.2c-0.7,0.8-1,1.8-1,3
		c0,1.2,0.3,2.2,1,3C103.5,13.3,104.5,13.7,105.6,13.7z"/>
	<path class="st6" d="M117.1,14.7h-1.6l-4.2-10.3h1.5l3.5,8.9l3.5-8.9h1.5L117.1,14.7z"/>
	<path class="st6" d="M130.8,13.3c-1,1-2.2,1.5-3.7,1.5s-2.7-0.5-3.7-1.5c-1-1-1.4-2.3-1.4-3.8c0-1.5,0.5-2.8,1.4-3.8
		c1-1,2.2-1.5,3.7-1.5s2.7,0.5,3.7,1.5c1,1,1.4,2.3,1.4,3.8C132.2,11,131.7,12.3,130.8,13.3z M127,13.7c1.1,0,2.1-0.4,2.8-1.2
		c0.7-0.8,1.1-1.8,1.1-3c0-1.2-0.4-2.2-1.1-3c-0.7-0.8-1.6-1.2-2.8-1.2c-1.1,0-2.1,0.4-2.8,1.2c-0.7,0.8-1,1.8-1,3
		c0,1.2,0.3,2.2,1,3C125,13.3,125.9,13.7,127,13.7z"/>
</g>
<g>
	<path class="st5" d="M124.9,36.4c-1.5,0-2.8-0.5-3.8-1.5s-1.5-2.3-1.5-3.9c0-1.6,0.5-2.9,1.5-3.9s2.3-1.5,3.8-1.5
		c1.7,0,3,0.7,3.9,2l-1.1,0.6c-0.3-0.5-0.7-0.8-1.2-1.1c-0.5-0.3-1.1-0.4-1.6-0.4c-1.1,0-2.1,0.4-2.9,1.2c-0.8,0.8-1.1,1.8-1.1,3
		c0,1.2,0.4,2.2,1.1,3c0.8,0.8,1.7,1.2,2.8,1.2c0.6,0,1.1-0.1,1.6-0.4c0.5-0.3,0.9-0.6,1.2-1.1l1.1,0.6
		C127.8,35.7,126.5,36.4,124.9,36.4z"/>
	<path class="st5" d="M139.3,36.2h-1.5l-0.9-2.3h-5.1l-0.9,2.3h-1.5l4.2-10.3h1.6L139.3,36.2z M136.5,32.7l-2.2-5.6l-2.2,5.6H136.5z
		"/>
	<path class="st5" d="M143.8,36.4c-1.7,0-3-0.5-4-1.6l0.8-1c0.9,1,1.9,1.5,3.2,1.5c0.8,0,1.5-0.2,1.8-0.5c0.4-0.4,0.6-0.8,0.6-1.3
		c0-0.4-0.2-0.8-0.5-1c-0.3-0.3-0.7-0.5-1.1-0.6s-0.9-0.3-1.5-0.4c-0.5-0.2-1-0.3-1.5-0.5c-0.4-0.2-0.8-0.5-1.1-0.9
		c-0.3-0.4-0.5-0.9-0.5-1.5c0-0.8,0.3-1.5,1-2.1c0.7-0.5,1.5-0.8,2.6-0.8c1.5,0,2.7,0.5,3.7,1.5l-0.8,0.9c-0.7-0.8-1.7-1.2-3-1.2
		c-0.6,0-1.1,0.2-1.5,0.5c-0.4,0.3-0.6,0.7-0.6,1.2c0,0.4,0.2,0.7,0.5,0.9c0.3,0.2,0.7,0.4,1.1,0.5c0.5,0.1,0.9,0.3,1.5,0.4
		c0.5,0.2,1,0.4,1.5,0.5s0.8,0.5,1.1,0.9c0.3,0.4,0.5,0.9,0.5,1.5c0,0.8-0.3,1.6-0.9,2.1C146,36.1,145.1,36.4,143.8,36.4z"/>
	<path class="st5" d="M150.8,36.2h-1.3V25.8h1.3V36.2z"/>
	<path class="st5" d="M161.8,36.2h-1.2l-6-8.2v8.2h-1.3V25.8h1.3l6,8.1v-8.1h1.3V36.2z"/>
	<path class="st5" d="M172.6,34.8c-1,1-2.2,1.5-3.7,1.5s-2.7-0.5-3.7-1.5c-1-1-1.4-2.3-1.4-3.8s0.5-2.8,1.4-3.8c1-1,2.2-1.5,3.7-1.5
		s2.7,0.5,3.7,1.5c1,1,1.4,2.3,1.4,3.8S173.6,33.8,172.6,34.8z M168.9,35.2c1.1,0,2.1-0.4,2.8-1.2c0.7-0.8,1.1-1.8,1.1-3
		c0-1.2-0.4-2.2-1.1-3c-0.7-0.8-1.6-1.2-2.8-1.2c-1.1,0-2.1,0.4-2.8,1.2c-0.7,0.8-1,1.8-1,3c0,1.2,0.3,2.2,1,3
		C166.8,34.8,167.8,35.2,168.9,35.2z"/>
	<path class="st5" d="M188.9,36.2h-1.5l-0.9-2.3h-5.1l-0.9,2.3H179l4.2-10.3h1.6L188.9,36.2z M186.2,32.7l-2.2-5.6l-2.2,5.6H186.2z"
		/>
</g>
<g>
	<path class="st5" d="M86.6,65.3h-1.8V53.1l-2.4,2.5l-1.1-1.1l3.7-3.8h1.6V65.3z"/>
	<path class="st5" d="M93,65.3h-2l5.9-13H89v-1.6h10v1.3L93,65.3z"/>
</g>
<g>
	<path class="st5" d="M125.1,63.4c-1.5,0-2.8-0.5-3.8-1.5c-1-1-1.5-2.3-1.5-3.9c0-1.6,0.5-2.9,1.5-3.9c1-1,2.3-1.5,3.8-1.5
		c1.7,0,3,0.7,3.9,2l-1.1,0.6c-0.3-0.5-0.7-0.8-1.2-1.1c-0.5-0.3-1.1-0.4-1.6-0.4c-1.1,0-2.1,0.4-2.9,1.2c-0.8,0.8-1.1,1.8-1.1,3
		c0,1.2,0.4,2.2,1.1,3c0.8,0.8,1.7,1.2,2.8,1.2c0.6,0,1.1-0.1,1.6-0.4c0.5-0.3,0.9-0.6,1.2-1.1l1.1,0.6
		C128,62.7,126.7,63.4,125.1,63.4z"/>
	<path class="st5" d="M139.5,63.2H138l-0.9-2.3H132l-0.9,2.3h-1.5l4.2-10.3h1.6L139.5,63.2z M136.8,59.7l-2.2-5.6l-2.2,5.6H136.8z"
		/>
	<path class="st5" d="M144,63.4c-1.7,0-3-0.5-4-1.6l0.8-1c0.9,1,1.9,1.5,3.2,1.5c0.8,0,1.5-0.2,1.8-0.5c0.4-0.4,0.6-0.8,0.6-1.3
		c0-0.4-0.2-0.8-0.5-1c-0.3-0.3-0.7-0.5-1.1-0.6s-0.9-0.3-1.5-0.4c-0.5-0.2-1-0.3-1.5-0.5c-0.4-0.2-0.8-0.5-1.1-0.9
		c-0.3-0.4-0.5-0.9-0.5-1.5c0-0.8,0.3-1.5,1-2.1s1.5-0.8,2.6-0.8c1.5,0,2.7,0.5,3.7,1.5l-0.8,0.9c-0.7-0.8-1.7-1.2-3-1.2
		c-0.6,0-1.1,0.2-1.5,0.5c-0.4,0.3-0.6,0.7-0.6,1.2c0,0.4,0.2,0.7,0.5,0.9c0.3,0.2,0.7,0.4,1.1,0.5c0.5,0.1,0.9,0.3,1.5,0.4
		s1,0.4,1.5,0.5s0.8,0.5,1.1,0.9c0.3,0.4,0.5,0.9,0.5,1.5c0,0.8-0.3,1.6-0.9,2.1C146.3,63.1,145.3,63.4,144,63.4z"/>
	<path class="st5" d="M151,63.2h-1.3V52.8h1.3V63.2z"/>
	<path class="st5" d="M162,63.2h-1.2l-6-8.2v8.2h-1.3V52.8h1.3l6,8.1v-8.1h1.3V63.2z"/>
	<path class="st5" d="M172.8,61.8c-1,1-2.2,1.5-3.7,1.5s-2.7-0.5-3.7-1.5c-1-1-1.4-2.3-1.4-3.8c0-1.5,0.5-2.8,1.4-3.8
		c1-1,2.2-1.5,3.7-1.5s2.7,0.5,3.7,1.5c1,1,1.4,2.3,1.4,3.8C174.3,59.5,173.8,60.8,172.8,61.8z M169.1,62.2c1.1,0,2.1-0.4,2.8-1.2
		c0.7-0.8,1.1-1.8,1.1-3c0-1.2-0.4-2.2-1.1-3c-0.7-0.8-1.6-1.2-2.8-1.2c-1.1,0-2.1,0.4-2.8,1.2c-0.7,0.8-1,1.8-1,3
		c0,1.2,0.3,2.2,1,3C167.1,61.8,168,62.2,169.1,62.2z"/>
	<path class="st5" d="M185,63.2h-4.7V52.8h4.6c0.9,0,1.6,0.2,2.1,0.7c0.5,0.5,0.8,1.1,0.8,1.9c0,0.6-0.2,1.1-0.5,1.6
		c-0.4,0.4-0.8,0.7-1.3,0.8c0.5,0.1,1,0.4,1.4,0.9c0.4,0.5,0.6,1.1,0.6,1.7c0,0.8-0.3,1.5-0.8,2C186.7,62.9,185.9,63.2,185,63.2z
		 M184.7,57.3c0.6,0,1-0.2,1.3-0.5c0.3-0.3,0.5-0.7,0.5-1.2s-0.2-0.9-0.5-1.2s-0.8-0.5-1.3-0.5h-3.1v3.3H184.7z M184.8,62
		c0.6,0,1.1-0.2,1.4-0.5c0.3-0.3,0.5-0.8,0.5-1.3c0-0.5-0.2-0.9-0.5-1.3c-0.3-0.3-0.8-0.5-1.4-0.5h-3.2V62H184.8z"/>
</g>
</svg>
