<?xml version="1.0" encoding="utf-8"?>
<!-- Generator: Adobe Illustrator 25.2.3, SVG Export Plug-In . SVG Version: 6.00 Build 0)  -->
<svg version="1.1" id="Layer_1" xmlns="http://www.w3.org/2000/svg" width="90" height="95.826" xmlns:xlink="http://www.w3.org/1999/xlink" x="0px" y="0px"
	 viewBox="0 0 90 95.8" style="enable-background:new 0 0 90 95.8;" xml:space="preserve">
<style type="text/css">
	.st0{fill:#2D314E;}
	.st1{opacity:0.92;}
	.st2{clip-path:url(#SVGID_2_);}
	.st3{clip-path:url(#SVGID_4_);}
	.st4{fill:#FF3762;}
	.st5{fill:#FFFFFF;}
</style>
<g id="Layer_2_1_">
	<g id="Layer_1-2">
		<path class="st0" d="M90,67.1c0,2.5-2,4.4-4.5,4.4c-2.5,0-4.4-2-4.4-4.5c0-2.5,2-4.4,4.5-4.4C88,62.6,90,64.6,90,67.1
			C90,67.1,90,67.1,90,67.1"/>
		<g class="st1">
			<g>
				<defs>
					<rect id="SVGID_1_" y="24.3" width="90" height="35.1"/>
				</defs>
				<clipPath id="SVGID_2_">
					<use xlink:href="#SVGID_1_"  style="overflow:visible;"/>
				</clipPath>
				<g class="st2">
					<g>
						<defs>
							<rect id="SVGID_3_" y="24.3" width="90" height="35.1"/>
						</defs>
						<clipPath id="SVGID_4_">
							<use xlink:href="#SVGID_3_"  style="overflow:visible;"/>
						</clipPath>
						<g class="st3">
							<path class="st4" d="M90,41.9v17.5H17.6C7.9,59.7-0.3,52.2-0.6,42.5s7.2-17.8,16.9-18.2c0.4,0,0.8,0,1.2,0h54.9
								C82.1,24.3,90,32.2,90,41.9C90,41.9,90,41.9,90,41.9"/>
						</g>
					</g>
				</g>
			</g>
		</g>
		<path class="st5" d="M42.5,36.2c0,0.6-0.1,1.1-0.3,1.6c-0.2,0.4-0.4,0.9-0.8,1.2c-0.3,0.3-0.7,0.6-1.2,0.7c-0.5,0.2-1,0.2-1.5,0.2
			c-0.5,0-1-0.1-1.4-0.2c-0.4-0.2-0.8-0.4-1-0.7c-0.3-0.3-0.6-0.7-0.8-1.2c-0.2-0.5-0.3-1.1-0.3-1.6c0-0.6,0.1-1.1,0.3-1.7
			c0.2-0.4,0.4-0.9,0.8-1.2c0.3-0.3,0.7-0.6,1.2-0.7c0.4-0.2,0.9-0.3,1.4-0.3c0.5,0,1,0.1,1.4,0.3c0.4,0.2,0.8,0.4,1.2,0.7
			c0.3,0.3,0.6,0.7,0.8,1.2C42.4,35.1,42.5,35.7,42.5,36.2z M36.9,36.2c0,0.3,0,0.7,0.1,1c0.1,0.3,0.2,0.5,0.4,0.7
			c0.2,0.2,0.4,0.4,0.6,0.5c0.3,0.1,0.5,0.2,0.8,0.2c0.3,0,0.6,0,0.8-0.2c0.2-0.1,0.4-0.3,0.6-0.5c0.2-0.2,0.3-0.5,0.4-0.8
			c0.1-0.3,0.1-0.6,0.1-1c0-0.3,0-0.6-0.1-0.9c-0.1-0.3-0.2-0.5-0.4-0.7c-0.2-0.2-0.4-0.4-0.6-0.5c-0.3-0.1-0.5-0.2-0.8-0.2
			c-0.6,0-1.1,0.2-1.4,0.7c-0.2,0.2-0.3,0.5-0.4,0.7C36.9,35.6,36.9,35.9,36.9,36.2z"/>
		<path class="st5" d="M43.9,39.9v-7.3h4.9V34h-3.3v1.5h2.9v1.4h-2.9v3H43.9z"/>
		<path class="st5" d="M50.1,39.9v-7.3H55V34h-3.3v1.5h2.9v1.4h-2.9v3H50.1z"/>
		<path class="st5" d="M56.2,32.6h1.6v7.3h-1.6V32.6z"/>
		<path class="st5" d="M63,40.1c-1,0.1-2-0.3-2.7-1c-0.7-0.8-1-1.8-0.9-2.8c0-0.6,0.1-1.1,0.3-1.6c0.2-0.5,0.4-0.9,0.8-1.2
			c0.3-0.3,0.8-0.6,1.2-0.7c0.5-0.2,1-0.3,1.5-0.3c0.3,0,0.6,0,0.9,0l0.7,0.1l0.5,0.2l0.3,0.1l-0.5,1.3c-0.2-0.1-0.5-0.2-0.7-0.2
			c-0.3-0.1-0.7-0.1-1-0.1c-0.3,0-0.5,0-0.7,0.1c-0.2,0.1-0.5,0.2-0.6,0.4c-0.2,0.2-0.3,0.5-0.4,0.7c-0.1,0.3-0.2,0.7-0.2,1.1
			c0,0.3,0,0.6,0.1,0.9c0.1,0.3,0.2,0.5,0.3,0.8c0.2,0.2,0.4,0.4,0.7,0.5c0.3,0.1,0.6,0.2,1,0.2h0.6h0.5l0.4-0.1l0.3-0.1l0.4,1.3
			c-0.3,0.2-0.6,0.3-1,0.4C64,40.1,63.5,40.1,63,40.1z"/>
		<path class="st5" d="M66.6,39.9v-7.3h5V34h-3.3v1.4h2.9v1.4h-2.9v1.8h3.5v1.4H66.6z"/>
		<path class="st5" d="M37.4,43.2c0,0.2,0.3,0.5,0.4,0.9s0.3,0.7,0.5,1.1c0.2,0.4,0.4,0.8,0.5,1.2c0.2,0.4,0.3,0.8,0.5,1.2l0.5-1.2
			l0.5-1.2c0.2-0.4,0.4-0.8,0.5-1.1l0.4-0.9h1.5c0,0.5,0.1,1,0.2,1.6c0,0.6,0.1,1.2,0.2,1.9l0.1,2c0,0.7,0,1.3,0,1.9h-1.6
			c0-0.7,0-1.5,0-2.3c0-0.8,0-1.7-0.1-2.5l-0.4,1c-0.1,0.4-0.3,0.7-0.5,1.1l-0.4,1c-0.1,0.3-0.3,0.6-0.4,0.8h-1.2
			c0-0.2-0.2-0.5-0.4-0.8l-0.4-1l-0.5-1.1l-0.4-1c0,0.9-0.1,1.7-0.1,2.5c0,0.8,0,1.6,0,2.3h-1.7c0-0.6,0-1.2,0-1.9l0.1-2
			c0-0.6,0-1.3,0.2-1.9c0.2-0.6,0.1-1.1,0.2-1.6L37.4,43.2z"/>
		<path class="st5" d="M50,50.5c-0.1-0.3-0.2-0.5-0.3-0.8l-0.3-0.8h-2.9c0,0.3-0.2,0.5-0.3,0.8L46,50.5h-1.7
			c0.3-0.8,0.5-1.5,0.8-2.1s0.5-1.3,0.7-1.9l0.7-1.7c0.2-0.5,0.5-1,0.7-1.6h1.6l0.7,1.6c0.2,0.5,0.5,1.1,0.7,1.7
			c0.2,0.6,0.5,1.2,0.7,1.9s0.5,1.4,0.8,2.1H50z M48,44.8l-0.2,0.4c0,0.2-0.1,0.4-0.2,0.6l-0.3,0.8c-0.1,0.3-0.2,0.6-0.3,0.9h2.1
			c-0.1-0.3-0.2-0.6-0.3-0.9l-0.3-0.8l-0.3-0.6C48.1,45.1,48,44.9,48,44.8z"/>
		<path class="st5" d="M55,43.1c0.9-0.1,1.7,0.1,2.5,0.5c0.6,0.4,0.9,1.1,0.9,1.9c0.1,0.8-0.3,1.5-0.9,1.9c-0.8,0.4-1.7,0.6-2.5,0.6
			h-0.5v2.5h-1.6v-7.1c0.4-0.1,0.8-0.1,1.1-0.1L55,43.1z M55.1,44.5h-0.6v2.1H55c0.4,0,0.9,0,1.3-0.2c0.3-0.2,0.5-0.5,0.4-0.9
			c0-0.2,0-0.4-0.1-0.5c-0.1-0.1-0.2-0.2-0.3-0.3c-0.2-0.1-0.3-0.1-0.5-0.2L55.1,44.5z"/>
		<path class="st5" d="M62.6,50.6c-0.5,0-0.9-0.1-1.3-0.2c-0.3-0.1-0.7-0.3-0.9-0.6c-0.2-0.3-0.4-0.6-0.5-0.9
			c-0.1-0.4-0.2-0.8-0.2-1.2v-4.6h1.6v4.4c0,0.2,0,0.5,0,0.7c0.1,0.2,0.2,0.4,0.3,0.5c0.1,0.1,0.3,0.2,0.4,0.3c0.2,0,0.4,0,0.6,0
			c0.4,0,0.7-0.1,1-0.4c0.3-0.4,0.4-0.8,0.4-1.3v-4.3h1.6v4.6c0,0.4-0.1,0.8-0.2,1.2c-0.1,0.3-0.3,0.7-0.6,0.9
			c-0.3,0.3-0.6,0.5-0.9,0.6C63.4,50.6,63,50.6,62.6,50.6z"/>
		<path class="st5" d="M72.7,43.2v1.4h-2.1v5.9h-1.6v-5.9h-2.1v-1.4H72.7z"/>
		<path class="st5" d="M80.8,46.8c0,0.6-0.1,1.1-0.3,1.7c-0.2,0.4-0.4,0.8-0.8,1.2c-0.3,0.3-0.7,0.6-1.2,0.7c-0.9,0.3-1.9,0.3-2.9,0
			c-0.4-0.2-0.8-0.4-1.2-0.7c-0.3-0.3-0.6-0.7-0.8-1.2c-0.2-0.5-0.3-1.1-0.3-1.7c0-0.6,0.1-1.1,0.3-1.6c0.2-0.5,0.4-0.9,0.8-1.2
			c0.3-0.3,0.7-0.6,1.2-0.7c0.4-0.2,0.9-0.2,1.4-0.2c0.5,0,1,0.1,1.4,0.2c0.4,0.2,0.8,0.4,1.2,0.7c0.4,0.3,0.6,0.7,0.8,1.2
			C80.7,45.7,80.8,46.3,80.8,46.8z M75.2,46.8c0,0.3,0,0.7,0.1,1c0.1,0.3,0.2,0.5,0.4,0.7c0.2,0.2,0.4,0.4,0.6,0.5
			c0.3,0.1,0.5,0.2,0.8,0.2c0.3,0,0.6-0.1,0.8-0.2c0.2-0.1,0.4-0.3,0.6-0.5c0.2-0.2,0.3-0.5,0.4-0.7c0.2-0.6,0.2-1.3,0-2
			c-0.1-0.3-0.2-0.5-0.4-0.7c-0.2-0.2-0.4-0.4-0.6-0.5c-0.3-0.1-0.5-0.2-0.8-0.2c-0.3,0-0.6,0.1-0.8,0.2c-0.2,0.1-0.4,0.3-0.6,0.5
			c-0.2,0.2-0.3,0.5-0.4,0.7C75.3,46.2,75.2,46.5,75.2,46.8z"/>
		<path class="st5" d="M29.2,38.1c-0.5-1.1-1.2-2.2-2.2-3c-0.9-0.9-1.9-1.6-3-2c-1.2-0.5-2.4-0.8-3.7-0.8h-5.7
			c-0.6,0-1.2,0.1-1.8,0.2c-1.1,0.3-1.9,1.2-2.1,2.3c-0.1,0.6-0.2,1.2-0.2,1.7v10.7c0,0.6,0.1,1.2,0.2,1.8c0.1,0.5,0.4,1,0.8,1.4
			c0.4,0.4,0.8,0.6,1.3,0.8c0.6,0.1,1.2,0.2,1.7,0.2h5.7c0,0,0.1,0,0.1,0c1.3,0,2.5-0.3,3.7-0.8c1.1-0.5,2.1-1.2,3-2
			c0.9-0.9,1.5-1.9,2-3C30.2,43.2,30.2,40.5,29.2,38.1z M14.5,34.2C14.5,34.2,14.5,34.2,14.5,34.2h5.8c1,0,2,0.2,3,0.6
			c0.9,0.4,1.7,0.9,2.4,1.6c0.7,0.7,1.3,1.5,1.7,2.4c0.8,1.9,0.8,4,0,5.9c-0.4,0.9-1,1.7-1.7,2.4c-1.4,1.4-3.4,2.2-5.4,2.2h-5.7
			c-0.4,0-0.9,0-1.3-0.1c-0.2,0-0.4-0.1-0.5-0.3c-0.1-0.1-0.2-0.3-0.3-0.5c-0.1-0.4-0.1-0.9-0.1-1.3V36.5c0-0.4,0-0.9,0.1-1.3
			c0.1-0.4,0.4-0.7,0.8-0.8C13.7,34.3,14.1,34.2,14.5,34.2z"/>
	</g>
</g>
</svg>
