<?xml version="1.0" encoding="utf-8"?>
<!-- Generator: Adobe Illustrator 25.2.3, SVG Export Plug-In . SVG Version: 6.00 Build 0)  -->
<svg version="1.1" id="Layer_1" xmlns="http://www.w3.org/2000/svg" xmlns:xlink="http://www.w3.org/1999/xlink" x="0px" y="0px"
	 viewBox="0 0 87.5 22.8" style="enable-background:new 0 0 87.5 22.8;" xml:space="preserve">
<style type="text/css">
	.st0{fill:none;}
	.st1{fill:#2D314E;}
	.st2{opacity:0.92;}
	.st3{clip-path:url(#SVGID_2_);}
	.st4{clip-path:url(#SVGID_4_);}
	.st5{fill:#FF3762;}
	.st6{fill:#FFFFFF;}
	.st7{fill:#FFFFFF;stroke:#FFFDFD;stroke-width:0.3;stroke-miterlimit:10;}
</style>
<g id="dalima_office_novo" transform="translate(12.003 2.003)">
	<g id="Group_69" transform="translate(-12.003 -2.003)">
		<rect id="Rectangle_46" x="44.3" y="3" class="st0" width="43.3" height="11.5"/>
	</g>
</g>
<g>
	<g id="Layer_2_2_">
		<g id="Layer_1-2_1_">
			<path class="st1" d="M43.4,20.6c0,1.2-1,2.1-2.2,2.1s-2.1-1-2.1-2.2s1-2.1,2.2-2.1C42.4,18.5,43.4,19.4,43.4,20.6L43.4,20.6"/>
			<g class="st2">
				<g>
					<g>
						<g>
							<defs>
								<rect id="SVGID_1_" width="43.4" height="16.9"/>
							</defs>
							<clipPath id="SVGID_2_">
								<use xlink:href="#SVGID_1_"  style="overflow:visible;"/>
							</clipPath>
							<g class="st3">
								<g>
									<g>
										<g>
											<defs>
												<rect id="SVGID_3_" width="43.4" height="16.9"/>
											</defs>
											<clipPath id="SVGID_4_">
												<use xlink:href="#SVGID_3_"  style="overflow:visible;"/>
											</clipPath>
											<g class="st4">
												<path class="st5" d="M43.4,8.5v8.4H8.5C3.8,17-0.1,13.4-0.3,8.8S3.2,0.2,7.9,0C8,0,8.2,0,8.4,0h26.5
													C39.6,0,43.4,3.8,43.4,8.5L43.4,8.5"/>
											</g>
										</g>
									</g>
								</g>
							</g>
						</g>
					</g>
				</g>
			</g>
			<path class="st6" d="M13.2,6.7c-0.2-0.5-0.5-1-1-1.4c-0.4-0.4-0.8-0.7-1.3-0.9C10.4,4.2,9.9,4,9.3,4H6.8C6.5,4,6.3,4,6,4.1
				c-0.5,0.1-0.8,0.5-0.9,1C5.1,5.4,5,5.6,5,5.9v4.9c0,0.3,0,0.5,0.1,0.8c0,0.2,0.2,0.5,0.3,0.6c0.2,0.2,0.3,0.3,0.6,0.4
				c0.3,0,0.5,0.1,0.7,0.1h2.5l0,0c0.6,0,1.1-0.1,1.6-0.4c0.5-0.2,0.9-0.5,1.3-0.9c0.4-0.4,0.6-0.9,0.9-1.4
				C13.6,9,13.6,7.8,13.2,6.7z M6.8,4.9L6.8,4.9h2.5c0.4,0,0.9,0.1,1.3,0.3c0.4,0.2,0.7,0.4,1,0.7c0.3,0.3,0.6,0.7,0.7,1.1
				c0.3,0.9,0.3,1.8,0,2.7c-0.2,0.4-0.4,0.8-0.7,1.1c-0.6,0.6-1.5,1-2.3,1H6.8c-0.2,0-0.4,0-0.6,0c-0.1,0-0.2,0-0.2-0.1
				c0,0-0.1-0.1-0.1-0.2c0-0.2,0-0.4,0-0.6v-5c0-0.2,0-0.4,0-0.6C6,5.2,6.1,5,6.3,5C6.4,4.9,6.6,4.9,6.8,4.9z"/>
		</g>
	</g>
	<g>
		<path class="st7" d="M19.8,7.1c-0.3,0.3-0.8,0.5-1.3,0.5s-0.9-0.2-1.3-0.5c-0.3-0.3-0.5-0.8-0.5-1.3s0.2-1,0.5-1.3
			C17.6,4.1,18.1,4,18.6,4s0.9,0.2,1.3,0.5c0.3,0.3,0.5,0.8,0.5,1.3S20.2,6.7,19.8,7.1z M18.6,7.2c0.4,0,0.7-0.1,0.9-0.4
			c0.2-0.3,0.4-0.6,0.4-1s-0.1-0.8-0.4-1c-0.2-0.3-0.6-0.4-0.9-0.4c-0.4,0-0.7,0.1-0.9,0.4c-0.2,0.3-0.4,0.6-0.4,1s0.1,0.8,0.4,1
			C17.9,7.1,18.2,7.2,18.6,7.2z"/>
		<path class="st7" d="M21.5,7.6H21V4h2.3v0.4h-1.9v1.1h1.8v0.4h-1.8v1.7H21.5z"/>
		<path class="st7" d="M24.4,7.6H24V4h2.3v0.4h-1.9v1.1h1.8v0.4h-1.8V7.6z"/>
		<path class="st7" d="M27.3,7.6h-0.4V4h0.4V7.6z"/>
		<path class="st7" d="M29.8,7.6c-0.5,0-0.9-0.2-1.3-0.5C28.2,6.8,28,6.3,28,5.8s0.2-1,0.5-1.3C28.9,4.1,29.3,4,29.8,4
			c0.6,0,1,0.2,1.3,0.7l-0.4,0.2c-0.1-0.2-0.2-0.3-0.4-0.4c-0.2-0.1-0.4-0.1-0.6-0.1c-0.4,0-0.7,0.1-1,0.4s-0.4,0.6-0.4,1
			s0.1,0.8,0.4,1c0.3,0.3,0.6,0.4,1,0.4c0.2,0,0.4,0,0.6-0.1s0.3-0.2,0.4-0.4l0.4,0.2C30.8,7.4,30.4,7.6,29.8,7.6z"/>
		<path class="st7" d="M34,7.6h-2.3V4H34v0.4h-1.9v1.1H34v0.4h-1.8v1.2H34V7.6z"/>
	</g>
	<g>
		<path class="st7" d="M20.5,12.7H20v-3l-1.2,3h-0.2l-1.2-3v3H17V9.1h0.6l1.1,2.8l1.1-2.8h0.6L20.5,12.7L20.5,12.7z"/>
		<path class="st7" d="M24.4,12.7h-0.5l-0.3-0.8h-1.8l-0.3,0.8H21l1.5-3.6H23L24.4,12.7z M23.5,11.5l-0.8-1.9l-0.8,1.9H23.5z"/>
		<path class="st7" d="M25.3,12.7h-0.4V9.1h1.4c0.3,0,0.6,0.1,0.8,0.3s0.3,0.5,0.3,0.8s-0.1,0.6-0.3,0.8c-0.2,0.2-0.5,0.3-0.8,0.3
			h-1V12.7z M26.3,10.9c0.2,0,0.4-0.1,0.5-0.2c0.1-0.1,0.2-0.3,0.2-0.5s-0.1-0.4-0.2-0.5s-0.3-0.2-0.5-0.2h-0.9v1.4H26.3z"/>
		<path class="st7" d="M29.5,12.8c-0.5,0-0.8-0.1-1.1-0.4S28,11.8,28,11.3V9.1h0.5v2.2c0,0.3,0.1,0.6,0.3,0.8
			c0.2,0.2,0.4,0.3,0.8,0.3s0.6-0.1,0.8-0.3c0.2-0.2,0.3-0.5,0.3-0.8V9.1H31v2.2c0,0.5-0.1,0.8-0.4,1.1C30.4,12.7,30,12.8,29.5,12.8
			z"/>
		<path class="st7" d="M33.2,12.7h-0.4V9.5h-1.1V9.1h2.7v0.4h-1.1L33.2,12.7L33.2,12.7z"/>
		<path class="st7" d="M37.7,12.3c-0.3,0.4-0.8,0.5-1.3,0.5s-1-0.2-1.3-0.5c-0.3-0.4-0.5-0.8-0.5-1.3s0.2-1,0.5-1.3
			c0.3-0.4,0.8-0.5,1.3-0.5s1,0.2,1.3,0.5c0.3,0.4,0.5,0.8,0.5,1.3S38.1,11.9,37.7,12.3z M36.4,12.4c0.4,0,0.7-0.1,1-0.4
			c0.2-0.3,0.4-0.6,0.4-1.1c0-0.4-0.1-0.8-0.4-1.1c-0.2-0.3-0.6-0.4-1-0.4s-0.7,0.1-1,0.4c-0.2,0.3-0.4,0.6-0.4,1.1
			c0,0.4,0.1,0.8,0.4,1.1C35.7,12.3,36,12.4,36.4,12.4z"/>
	</g>
</g>
</svg>
