<?xml version="1.0" encoding="utf-8"?>
<!-- Generator: Adobe Illustrator 25.2.3, SVG Export Plug-In . SVG Version: 6.00 Build 0)  -->
<svg version="1.1" id="Layer_1" xmlns="http://www.w3.org/2000/svg" xmlns:xlink="http://www.w3.org/1999/xlink" x="0px" y="0px"
	 viewBox="0 0 87.5 22.8" style="enable-background:new 0 0 87.5 22.8;" xml:space="preserve">
<style type="text/css">
	.st0{opacity:0.92;}
	.st1{clip-path:url(#SVGID_1_);}
	.st2{clip-path:url(#SVGID_2_);}
	.st3{fill:#FF3762;}
	.st4{fill:#FFFFFF;}
	.st5{fill:#2D314E;}
	.st6{fill:none;}
</style>
<g id="dalima_office_novo" transform="translate(12.003 2.003)">
	<g id="Group_69" transform="translate(-12.003 -2.003)">
		<g id="Group_26" transform="translate(0 0)">
			<g id="Layer_2_1_">
				<g id="Layer_1-2">
					<g class="st0">
						<g>
							<defs>
								<rect id="SVGID_5_" x="0" width="43.5" height="17"/>
							</defs>
							<clipPath id="SVGID_1_">
								<use xlink:href="#SVGID_5_"  style="overflow:visible;"/>
							</clipPath>
							<g class="st1">
								<g>
									<defs>
										<rect id="SVGID_7_" x="0" width="43.5" height="17"/>
									</defs>
									<clipPath id="SVGID_2_">
										<use xlink:href="#SVGID_7_"  style="overflow:visible;"/>
									</clipPath>
									<g class="st2">
										<path class="st3" d="M43.5,8.5V17h-35c-4.7,0.2-8.6-3.5-8.8-8.2S3.2,0.2,7.9,0c0.2,0,0.4,0,0.6,0H35
											C39.7,0,43.5,3.8,43.5,8.5C43.5,8.5,43.5,8.5,43.5,8.5"/>
									</g>
								</g>
							</g>
						</g>
					</g>
					<path class="st4" d="M20.5,5.8c0,0.3,0,0.5-0.1,0.8C20.3,6.8,20.2,7,20,7.1c-0.2,0.2-0.3,0.3-0.6,0.4c-0.2,0.1-0.5,0.1-0.7,0.1
						c-0.2,0-0.5,0-0.7-0.1c-0.2-0.1-0.4-0.2-0.5-0.4c-0.2-0.2-0.3-0.4-0.4-0.6C17.1,6.3,17,6,17,5.8c0-0.3,0-0.6,0.1-0.8
						c0.1-0.2,0.2-0.4,0.4-0.6c0.2-0.2,0.3-0.3,0.6-0.4c0.2-0.1,0.4-0.1,0.7-0.1c0.2,0,0.5,0,0.7,0.1c0.2,0.1,0.4,0.2,0.6,0.4
						c0.2,0.2,0.3,0.4,0.4,0.6C20.5,5.2,20.5,5.5,20.5,5.8z M17.8,5.8c0,0.2,0,0.3,0.1,0.5c0,0.1,0.1,0.3,0.2,0.4
						c0.1,0.1,0.2,0.2,0.3,0.2c0.1,0.1,0.3,0.1,0.4,0.1c0.1,0,0.3,0,0.4-0.1c0.1,0,0.2-0.1,0.3-0.2c0.1-0.1,0.2-0.2,0.2-0.4
						c0-0.2,0.1-0.3,0.1-0.5c0-0.2,0-0.3-0.1-0.4c0-0.1-0.1-0.3-0.2-0.4c-0.1-0.1-0.2-0.2-0.3-0.2c-0.1-0.1-0.3-0.1-0.4-0.1
						c-0.3,0-0.5,0.1-0.7,0.3C18,5,17.9,5.2,17.9,5.3C17.8,5.4,17.8,5.6,17.8,5.8z"/>
					<path class="st4" d="M21.2,7.5V4h2.4v0.7H22v0.7h1.4v0.7H22v1.5H21.2z"/>
					<path class="st4" d="M24.2,7.5V4h2.4v0.7H25v0.7h1.4v0.7H25v1.5H24.2z"/>
					<path class="st4" d="M27.1,4h0.8v3.5h-0.8V4z"/>
					<path class="st4" d="M30.4,7.6c-0.5,0-1-0.1-1.3-0.5c-0.3-0.4-0.5-0.9-0.5-1.4c0-0.3,0-0.5,0.1-0.8c0.1-0.2,0.2-0.4,0.4-0.6
						c0.2-0.2,0.4-0.3,0.6-0.4c0.2-0.1,0.5-0.1,0.7-0.1c0.1,0,0.3,0,0.4,0L31.2,4l0.2,0.1l0.1,0.1l-0.2,0.6c-0.1,0-0.2-0.1-0.4-0.1
						c-0.2,0-0.3-0.1-0.5-0.1c-0.1,0-0.2,0-0.4,0.1c-0.1,0-0.2,0.1-0.3,0.2c-0.1,0.1-0.2,0.2-0.2,0.4c-0.1,0.2-0.1,0.3-0.1,0.5
						c0,0.2,0,0.3,0.1,0.5c0,0.1,0.1,0.3,0.2,0.4c0.1,0.1,0.2,0.2,0.3,0.2c0.1,0.1,0.3,0.1,0.5,0.1h0.3h0.2l0.2-0.1l0.2-0.1l0.2,0.6
						c-0.1,0.1-0.3,0.1-0.5,0.2C30.9,7.6,30.7,7.6,30.4,7.6z"/>
					<path class="st4" d="M32.1,7.5V4h2.4v0.7H33v0.7h1.4V6H33v0.8h1.7v0.7H32.1z"/>
					<path class="st4" d="M18.1,9.1c0,0.1,0.1,0.2,0.2,0.4c0.1,0.2,0.2,0.4,0.2,0.5c0.1,0.2,0.2,0.4,0.3,0.6
						c0.1,0.2,0.2,0.4,0.2,0.6l0.2-0.6l0.3-0.6c0.1-0.2,0.2-0.4,0.2-0.5L20,9.1h0.7c0,0.2,0.1,0.5,0.1,0.8c0,0.3,0.1,0.6,0.1,0.9
						l0.1,1c0,0.3,0,0.6,0,0.9h-0.8c0-0.4,0-0.7,0-1.1s0-0.8-0.1-1.2l-0.2,0.5c-0.1,0.2-0.1,0.4-0.2,0.5l-0.2,0.5
						c-0.1,0.2-0.1,0.3-0.2,0.4h-0.6c0-0.1-0.1-0.2-0.2-0.4l-0.2-0.5l-0.2-0.5l-0.2-0.5c0,0.4-0.1,0.8-0.1,1.2s0,0.8,0,1.1H17
						c0-0.3,0-0.6,0-0.9l0.1-1c0-0.3,0-0.6,0.1-0.9s0.1-0.5,0.1-0.8L18.1,9.1z"/>
					<path class="st4" d="M24.1,12.6c0-0.1-0.1-0.3-0.1-0.4l-0.1-0.4h-1.4c0,0.1-0.1,0.3-0.1,0.4l-0.1,0.4h-0.8
						c0.1-0.4,0.3-0.7,0.4-1c0.1-0.3,0.2-0.6,0.4-0.9l0.3-0.8c0.1-0.3,0.2-0.5,0.4-0.8h0.8l0.3,0.8c0.1,0.3,0.2,0.5,0.3,0.8
						c0.1,0.3,0.2,0.6,0.4,0.9c0.1,0.3,0.2,0.7,0.4,1H24.1z M23.2,9.9l-0.1,0.2c0,0.1-0.1,0.2-0.1,0.3l-0.1,0.4
						c-0.1,0.1-0.1,0.3-0.2,0.4h1c-0.1-0.2-0.1-0.3-0.2-0.4l-0.1-0.4l-0.1-0.3C23.2,10,23.2,10,23.2,9.9z"/>
					<path class="st4" d="M26.5,9.1c0.4,0,0.8,0,1.2,0.2c0.3,0.2,0.4,0.6,0.4,0.9c0,0.4-0.1,0.7-0.4,0.9c-0.4,0.2-0.8,0.3-1.2,0.3
						h-0.2v1.2h-0.8V9.2c0.2,0,0.4-0.1,0.5-0.1L26.5,9.1z M26.6,9.7h-0.3v1h0.2c0.2,0,0.4,0,0.6-0.1c0.2-0.1,0.2-0.2,0.2-0.4
						c0-0.1,0-0.2-0.1-0.2c0-0.1-0.1-0.1-0.1-0.2c-0.1,0-0.2-0.1-0.2-0.1L26.6,9.7z"/>
					<path class="st4" d="M30.2,12.7c-0.2,0-0.4,0-0.7-0.1c-0.2-0.1-0.3-0.2-0.4-0.3c-0.1-0.1-0.2-0.3-0.3-0.4
						c-0.1-0.2-0.1-0.4-0.1-0.6V9.1h0.8v2.1c0,0.1,0,0.2,0,0.4c0,0.1,0.1,0.2,0.1,0.2c0.1,0.1,0.1,0.1,0.2,0.1c0.1,0,0.2,0,0.3,0
						c0.2,0,0.3-0.1,0.5-0.2c0.1-0.2,0.2-0.4,0.2-0.6V9.1h0.8v2.2c0,0.2,0,0.4-0.1,0.6c-0.1,0.2-0.2,0.3-0.3,0.4
						c-0.1,0.1-0.3,0.2-0.5,0.3C30.6,12.7,30.4,12.7,30.2,12.7z"/>
					<path class="st4" d="M35.1,9.1v0.7h-1v2.9h-0.8V9.8h-1V9.1H35.1z"/>
					<path class="st4" d="M39,10.9c0,0.3,0,0.5-0.1,0.8c-0.1,0.2-0.2,0.4-0.4,0.6c-0.2,0.2-0.3,0.3-0.6,0.4c-0.4,0.2-0.9,0.2-1.4,0
						c-0.2-0.1-0.4-0.2-0.6-0.4c-0.2-0.2-0.3-0.4-0.4-0.6c-0.1-0.3-0.1-0.5-0.1-0.8c0-0.3,0-0.5,0.1-0.8c0.1-0.2,0.2-0.4,0.4-0.6
						c0.2-0.2,0.4-0.3,0.6-0.4C36.8,9.1,37,9,37.3,9c0.2,0,0.5,0,0.7,0.1c0.2,0.1,0.4,0.2,0.6,0.4c0.2,0.2,0.3,0.4,0.4,0.6
						C39,10.3,39,10.6,39,10.9z M36.3,10.9c0,0.2,0,0.3,0.1,0.5c0,0.1,0.1,0.3,0.2,0.4c0.1,0.1,0.2,0.2,0.3,0.2
						C37,12,37.1,12,37.3,12c0.1,0,0.3,0,0.4-0.1c0.1-0.1,0.2-0.1,0.3-0.2c0.1-0.1,0.1-0.2,0.2-0.4c0.1-0.3,0.1-0.6,0-1
						c0-0.1-0.1-0.3-0.2-0.4c-0.1-0.1-0.2-0.2-0.3-0.2c-0.1-0.1-0.3-0.1-0.4-0.1c-0.1,0-0.3,0-0.4,0.1c-0.1,0.1-0.2,0.1-0.3,0.2
						c-0.1,0.1-0.2,0.2-0.2,0.4C36.4,10.6,36.3,10.7,36.3,10.9z"/>
					<path class="st4" d="M9.3,12.9H6.5c-0.3,0-0.5,0-0.8-0.1c-0.2-0.1-0.4-0.2-0.6-0.3c-0.2-0.2-0.3-0.4-0.3-0.6
						c-0.1-0.3-0.1-0.5-0.1-0.8V5.9c0-0.3,0-0.5,0.1-0.8c0.1-0.5,0.4-0.9,0.9-1C6,4.1,6.2,4,6.5,4h2.8c0.6,0,1.2,0.1,1.7,0.4
						c0.5,0.2,1,0.5,1.4,1c0.4,0.4,0.8,0.9,1,1.4c0.5,1.1,0.5,2.3,0,3.5c-0.2,0.5-0.6,1-1,1.4c-0.4,0.4-0.9,0.7-1.4,1
						C10.5,12.8,9.9,12.9,9.3,12.9z M6.5,4.3c-0.2,0-0.5,0-0.7,0.1c-0.2,0-0.4,0.1-0.5,0.3C5.1,4.8,5.1,5,5,5.2
						C5,5.4,4.9,5.7,4.9,5.9v5.2c0,0.3,0,0.5,0.1,0.8c0,0.2,0.1,0.3,0.3,0.5c0.1,0.1,0.3,0.2,0.5,0.3c0.2,0.1,0.5,0.1,0.7,0.1h2.8
						c0.6,0,1.1-0.1,1.6-0.3c1-0.4,1.8-1.2,2.2-2.2c0.2-0.5,0.3-1.1,0.3-1.6c0-0.6-0.1-1.1-0.3-1.6c-0.2-0.5-0.5-0.9-0.9-1.3
						c-0.4-0.4-0.8-0.7-1.3-0.9c-0.5-0.2-1.1-0.3-1.7-0.3H6.5z M9.3,12.6H6.5c-0.2,0-0.5,0-0.7-0.1c-0.2,0-0.3-0.1-0.5-0.2
						c-0.1-0.1-0.2-0.3-0.2-0.5C5,11.6,5,11.3,5,11.1V5.9c0-0.2,0-0.5,0.1-0.7c0-0.2,0.1-0.3,0.2-0.5c0.1-0.1,0.3-0.2,0.5-0.2
						C6,4.4,6.3,4.4,6.5,4.4h2.8c0.6,0,1.1,0.1,1.6,0.3c0.5,0.2,0.9,0.5,1.3,0.9c0.4,0.4,0.7,0.8,0.9,1.3c0.2,0.5,0.3,1,0.3,1.6
						c0,0.6-0.1,1.1-0.3,1.6c-0.4,1-1.2,1.8-2.2,2.2C10.4,12.5,9.8,12.6,9.3,12.6L9.3,12.6z M6.5,4.6c-0.2,0-0.5,0-0.7,0.1
						c-0.3,0-0.5,0.2-0.5,0.5c0,0.2-0.1,0.4-0.1,0.7v5.2c0,0.2,0,0.5,0.1,0.7c0,0.1,0.1,0.2,0.2,0.3c0.1,0.1,0.2,0.2,0.4,0.2
						c0.2,0,0.4,0.1,0.7,0.1h2.8c1,0,2-0.4,2.7-1.1c0.4-0.4,0.6-0.8,0.8-1.2c0.4-1,0.4-2,0-3c-0.2-0.5-0.5-0.9-0.8-1.2
						c-0.4-0.4-0.8-0.6-1.2-0.8c-0.5-0.2-1-0.3-1.5-0.3H6.5z"/>
				</g>
			</g>
			<circle id="Ellipse_1" class="st5" cx="41.3" cy="20.6" r="2.2"/>
		</g>
		<rect id="Rectangle_46" x="44.3" y="3" class="st6" width="43.3" height="11.5"/>
	</g>
</g>
</svg>
