<svg xmlns="http://www.w3.org/2000/svg" xmlns:xlink="http://www.w3.org/1999/xlink" width="90" height="95.826" viewBox="0 0 42.09 22.07"><defs><style>.cls-1{fill:none;}.cls-2{fill:#2d314e;}.cls-3{opacity:0.92;}.cls-4{clip-path:url(#clip-path);}.cls-5{clip-path:url(#clip-path-2);}.cls-6{fill:#ff3762;}.cls-7{fill:#fff;}</style><clipPath id="clip-path" transform="translate(0)"><rect class="cls-1" width="42.09" height="16.41"/></clipPath><clipPath id="clip-path-2" transform="translate(0)"><rect class="cls-1" width="42.09" height="16.41"/></clipPath></defs><g id="Layer_2" data-name="Layer 2"><g id="Layer_1-2" data-name="Layer 1"><path class="cls-2" d="M42.09,20A2.09,2.09,0,1,1,40,17.89,2.09,2.09,0,0,1,42.09,20" transform="translate(0)"/><g class="cls-3"><g class="cls-4"><g class="cls-5"><path class="cls-6" d="M42.09,8.21v8.2H8.21A8.21,8.21,0,1,1,8.21,0H33.89a8.2,8.2,0,0,1,8.2,8.21" transform="translate(0)"/></g></g></g><path class="cls-7" d="M19.86,5.58a2,2,0,0,1-.13.77,1.69,1.69,0,0,1-.36.56,1.5,1.5,0,0,1-.54.34,2.15,2.15,0,0,1-.68.11,2.08,2.08,0,0,1-.66-.11A1.5,1.5,0,0,1,17,6.91a1.57,1.57,0,0,1-.37-.56,2,2,0,0,1-.13-.77,1.87,1.87,0,0,1,.14-.78A1.57,1.57,0,0,1,17,4.24a1.54,1.54,0,0,1,.54-.34,1.82,1.82,0,0,1,.65-.12,1.85,1.85,0,0,1,.67.12,1.46,1.46,0,0,1,.54.34,1.71,1.71,0,0,1,.37.56A2.27,2.27,0,0,1,19.86,5.58Zm-2.62,0a1.33,1.33,0,0,0,.07.45,1.14,1.14,0,0,0,.17.35.77.77,0,0,0,.29.22.79.79,0,0,0,.38.08.85.85,0,0,0,.39-.08.67.67,0,0,0,.28-.22A1,1,0,0,0,19,6a1.63,1.63,0,0,0,.06-.45A1.6,1.6,0,0,0,19,5.12a.89.89,0,0,0-.18-.35.7.7,0,0,0-.28-.23,1,1,0,0,0-.39-.08.83.83,0,0,0-.67.31,1.27,1.27,0,0,0-.17.35A1.35,1.35,0,0,0,17.24,5.58Z" transform="translate(0)"/><path class="cls-7" d="M20.54,7.29V3.86h2.3v.65H21.31v.72h1.36v.65H21.31V7.29Z" transform="translate(0)"/><path class="cls-7" d="M23.42,7.29V3.86h2.29v.65H24.19v.72h1.36v.65H24.19V7.29Z" transform="translate(0)"/><path class="cls-7" d="M26.3,3.86h.77V7.29H26.3Z" transform="translate(0)"/><path class="cls-7" d="M29.46,7.36a1.66,1.66,0,0,1-1.27-.46,1.86,1.86,0,0,1-.44-1.32,2,2,0,0,1,.14-.76,1.59,1.59,0,0,1,.36-.57,1.61,1.61,0,0,1,.56-.35,1.92,1.92,0,0,1,.69-.12,2.35,2.35,0,0,1,.4,0l.31.07.22.09.13.07-.22.62A1.78,1.78,0,0,0,30,4.53a1.75,1.75,0,0,0-.48-.06,1.07,1.07,0,0,0-.35.06.8.8,0,0,0-.3.19,1.1,1.1,0,0,0-.21.34,1.41,1.41,0,0,0-.08.5,1.51,1.51,0,0,0,.06.44,1,1,0,0,0,.16.36.81.81,0,0,0,.31.23,1,1,0,0,0,.45.09l.3,0,.24,0,.18-.06.15-.06.21.61a1.57,1.57,0,0,1-.46.18A2.84,2.84,0,0,1,29.46,7.36Z" transform="translate(0)"/><path class="cls-7" d="M31.14,7.29V3.86h2.32v.65H31.92v.67h1.37v.64H31.92v.82h1.65v.65Z" transform="translate(0)"/><path class="cls-7" d="M17.51,8.81c0,.11.12.24.2.4s.16.34.24.52.17.38.25.57.16.38.24.55l.23-.55.25-.57c.09-.18.17-.36.24-.52l.21-.4h.7c0,.23.07.48.09.76s.06.58.08.88l.06.92c0,.31,0,.6,0,.87h-.75c0-.34,0-.7,0-1.09s0-.79-.07-1.19l-.2.46c-.07.17-.14.34-.22.51l-.2.48c-.07.15-.12.28-.17.39h-.54c0-.11-.1-.24-.17-.39l-.2-.48-.22-.51-.2-.46c0,.4-.06.8-.07,1.19s0,.75,0,1.09H16.5c0-.27,0-.56,0-.87l.06-.92c0-.3,0-.59.08-.88s.06-.53.09-.76Z" transform="translate(0)"/><path class="cls-7" d="M23.37,12.24a3.16,3.16,0,0,0-.12-.37l-.13-.37H21.78c0,.12-.08.25-.13.37l-.12.37h-.8c.13-.37.25-.71.37-1s.23-.6.34-.88l.32-.79c.11-.25.22-.49.34-.73h.73l.33.73c.11.25.22.51.33.79s.23.57.34.88.24.66.37,1Zm-.92-2.65-.08.2c0,.09-.07.18-.11.3l-.14.37a4.09,4.09,0,0,0-.16.42h1c-.05-.15-.11-.29-.15-.42l-.14-.37-.12-.3C22.5,9.7,22.47,9.64,22.45,9.59Z" transform="translate(0)"/><path class="cls-7" d="M25.71,8.77A2.12,2.12,0,0,1,26.89,9a1,1,0,0,1,.41.88,1,1,0,0,1-.41.9,2.21,2.21,0,0,1-1.19.27h-.24v1.15h-.77V8.86a4,4,0,0,1,.53-.07Zm.05.66h-.3v1h.24a1.19,1.19,0,0,0,.6-.11.4.4,0,0,0,.21-.4.43.43,0,0,0-.06-.24.4.4,0,0,0-.14-.15.85.85,0,0,0-.24-.08Z" transform="translate(0)"/><path class="cls-7" d="M29.26,12.31a2,2,0,0,1-.63-.1,1.21,1.21,0,0,1-.43-.29,1.09,1.09,0,0,1-.25-.43,1.59,1.59,0,0,1-.08-.55V8.81h.77v2.07a1.2,1.2,0,0,0,0,.35.89.89,0,0,0,.13.24.53.53,0,0,0,.2.13.71.71,0,0,0,.26,0,.63.63,0,0,0,.45-.17.82.82,0,0,0,.18-.59V8.81h.77v2.13a2,2,0,0,1-.08.56,1.34,1.34,0,0,1-.26.43,1.23,1.23,0,0,1-.44.28A2,2,0,0,1,29.26,12.31Z" transform="translate(0)"/><path class="cls-7" d="M34,8.81v.66H33v2.77h-.77V9.47h-1V8.81Z" transform="translate(0)"/><path class="cls-7" d="M37.8,10.52a2.13,2.13,0,0,1-.13.78,1.64,1.64,0,0,1-.36.55,1.38,1.38,0,0,1-.54.34,1.93,1.93,0,0,1-1.34,0,1.46,1.46,0,0,1-.54-.34,1.53,1.53,0,0,1-.37-.55,2.13,2.13,0,0,1-.13-.78,2,2,0,0,1,.14-.77,1.48,1.48,0,0,1,.37-.56,1.52,1.52,0,0,1,.55-.35,2,2,0,0,1,.65-.11,2.08,2.08,0,0,1,.66.11,1.4,1.4,0,0,1,.54.35,1.48,1.48,0,0,1,.37.56A2,2,0,0,1,37.8,10.52Zm-2.61,0a1.65,1.65,0,0,0,.06.46,1.06,1.06,0,0,0,.18.35.76.76,0,0,0,.28.22.93.93,0,0,0,.39.08.92.92,0,0,0,.38-.08.89.89,0,0,0,.29-.22,1.27,1.27,0,0,0,.17-.35,1.55,1.55,0,0,0,0-.92,1.27,1.27,0,0,0-.17-.35.89.89,0,0,0-.29-.22.79.79,0,0,0-.38-.08.93.93,0,0,0-.39.08.79.79,0,0,0-.28.23.89.89,0,0,0-.18.35A1.63,1.63,0,0,0,35.19,10.52Z" transform="translate(0)"/><path class="cls-7" d="M9,12.51H6.32a3.4,3.4,0,0,1-.78-.08A1.21,1.21,0,0,1,5,12.11a1.27,1.27,0,0,1-.32-.58,3.43,3.43,0,0,1-.08-.79v-5a3.4,3.4,0,0,1,.08-.78A1.19,1.19,0,0,1,5.54,4a3.4,3.4,0,0,1,.78-.08H9a4.09,4.09,0,0,1,1.67.34,4.36,4.36,0,0,1,1.36.92A4.47,4.47,0,0,1,13,6.55a4.27,4.27,0,0,1,0,3.34,4.6,4.6,0,0,1-.92,1.36,4.73,4.73,0,0,1-1.36.92A4.26,4.26,0,0,1,9,12.51ZM6.32,4.18a2.92,2.92,0,0,0-.72.07,1.1,1.1,0,0,0-.48.25A1.11,1.11,0,0,0,4.87,5a2.92,2.92,0,0,0-.07.72v5.05a3,3,0,0,0,.07.73,1,1,0,0,0,.25.46,1,1,0,0,0,.48.25,2.86,2.86,0,0,0,.72.08H9a4,4,0,0,0,1.57-.32,4.13,4.13,0,0,0,2.15-2.15,4,4,0,0,0,.32-1.57,3.9,3.9,0,0,0-.32-1.57,4.25,4.25,0,0,0-.87-1.29A4.18,4.18,0,0,0,10.6,4.5,4,4,0,0,0,9,4.18Zm2.71,8H6.32a2.83,2.83,0,0,1-.71-.07.92.92,0,0,1-.45-.24.83.83,0,0,1-.24-.44,2.86,2.86,0,0,1-.08-.72v-5A2.72,2.72,0,0,1,4.92,5a.9.9,0,0,1,.24-.45.88.88,0,0,1,.45-.23,2.84,2.84,0,0,1,.71-.08H9a3.84,3.84,0,0,1,1.55.32,4.13,4.13,0,0,1,1.27.86,4.09,4.09,0,0,1,.86,1.26A3.88,3.88,0,0,1,13,8.22a3.83,3.83,0,0,1-.31,1.55,4.06,4.06,0,0,1-2.13,2.13A3.83,3.83,0,0,1,9,12.21ZM6.32,4.47a2.87,2.87,0,0,0-.65.07.6.6,0,0,0-.51.5,2.87,2.87,0,0,0-.07.65v5.05a2.73,2.73,0,0,0,.07.65.65.65,0,0,0,.17.33.73.73,0,0,0,.34.18,2.93,2.93,0,0,0,.65.06H9a3.67,3.67,0,0,0,2.64-1.1,3.92,3.92,0,0,0,.81-1.19,3.8,3.8,0,0,0,0-2.91,3.92,3.92,0,0,0-.81-1.19,3.83,3.83,0,0,0-1.19-.8A3.55,3.55,0,0,0,9,4.47Z" transform="translate(0)"/></g></g></svg>