<?xml version="1.0" encoding="utf-8"?>
<!-- Generator: Adobe Illustrator 25.2.3, SVG Export Plug-In . SVG Version: 6.00 Build 0)  -->
<svg version="1.1" id="Layer_1" xmlns="http://www.w3.org/2000/svg" width="90" height="95.826" xmlns:xlink="http://www.w3.org/1999/xlink" x="0px" y="0px"
	 viewBox="0 0 90 95.8" style="enable-background:new 0 0 90 95.8;" xml:space="preserve">
<style type="text/css">
	.st0{fill:#2D314E;}
	.st1{opacity:0.92;}
	.st2{clip-path:url(#SVGID_2_);}
	.st3{clip-path:url(#SVGID_4_);}
	.st4{fill:#FF3762;}
	.st5{fill:#FFFFFF;}
</style>
<g id="Layer_2_1_">
	<g id="Layer_1-2">
		<path class="st0" d="M90,67.1c0,2.5-2,4.4-4.5,4.4s-4.4-2-4.4-4.5s2-4.4,4.5-4.4C88,62.6,90,64.6,90,67.1L90,67.1"/>
		<g class="st1">
			<g>
				<g>
					<defs>
						<rect id="SVGID_1_" y="24.3" width="90" height="35.1"/>
					</defs>
					<clipPath id="SVGID_2_">
						<use xlink:href="#SVGID_1_"  style="overflow:visible;"/>
					</clipPath>
					<g class="st2">
						<g>
							<g>
								<defs>
									<rect id="SVGID_3_" y="24.3" width="90" height="35.1"/>
								</defs>
								<clipPath id="SVGID_4_">
									<use xlink:href="#SVGID_3_"  style="overflow:visible;"/>
								</clipPath>
								<g class="st3">
									<path class="st4" d="M90,41.9v17.5H17.6C7.9,59.7-0.3,52.2-0.6,42.5s7.2-17.8,16.9-18.2c0.4,0,0.8,0,1.2,0h54.9
										C82.1,24.3,90,32.2,90,41.9L90,41.9"/>
								</g>
							</g>
						</g>
					</g>
				</g>
			</g>
		</g>
		<path class="st5" d="M27.3,38.1c-0.4-1-1.1-2.1-2-2.8c-0.8-0.9-1.7-1.5-2.7-1.9c-1.1-0.5-2.2-0.8-3.3-0.8h-5.1
			c-0.5,0-1.1,0.1-1.6,0.2c-1,0.3-1.7,1.1-1.9,2.2c-0.1,0.6-0.2,1.1-0.2,1.6v10.1c0,0.6,0.1,1.1,0.2,1.7c0.1,0.5,0.4,0.9,0.7,1.3
			c0.4,0.4,0.7,0.6,1.2,0.8c0.5,0.1,1.1,0.2,1.5,0.2h5.1h0.1c1.2,0,2.2-0.3,3.3-0.8c1-0.5,1.9-1.1,2.7-1.9c0.8-0.9,1.3-1.8,1.8-2.8
			C28.2,42.9,28.2,40.4,27.3,38.1z M14.1,34.4L14.1,34.4h5.2c0.9,0,1.8,0.2,2.7,0.6c0.8,0.4,1.5,0.9,2.2,1.5s1.2,1.4,1.5,2.3
			c0.7,1.8,0.7,3.8,0,5.6c-0.4,0.9-0.9,1.6-1.5,2.3c-1.3,1.3-3.1,2.1-4.9,2.1h-5.1c-0.4,0-0.8,0-1.2-0.1c-0.2,0-0.4-0.1-0.4-0.3
			c-0.1-0.1-0.2-0.3-0.3-0.5c-0.1-0.4-0.1-0.9-0.1-1.2v-10c0-0.4,0-0.9,0.1-1.2c0.1-0.4,0.4-0.7,0.7-0.8S13.7,34.4,14.1,34.4z"/>
	</g>
</g>
<g>
	<path class="st5" d="M41.2,39c-0.7,0.7-1.6,1.1-2.6,1.1s-1.9-0.4-2.6-1.1c-0.7-0.7-1-1.6-1-2.7s0.3-2,1-2.7
		c0.7-0.7,1.6-1.1,2.6-1.1s2,0.4,2.6,1.1c0.7,0.7,1,1.6,1,2.7S41.9,38.3,41.2,39z M38.5,39.3c0.8,0,1.5-0.3,2-0.8
		c0.5-0.6,0.7-1.3,0.7-2.1s-0.2-1.6-0.7-2.1c-0.5-0.6-1.2-0.8-2-0.8c-0.8,0-1.5,0.3-2,0.8c-0.5,0.6-0.7,1.3-0.7,2.1
		c0,0.9,0.2,1.6,0.7,2.1C37.1,39,37.7,39.3,38.5,39.3z"/>
	<path class="st5" d="M44.5,39.9h-0.9v-7.3h4.8v0.8h-3.9v2.4h3.8v0.8h-3.8V39.9z"/>
	<path class="st5" d="M50.6,39.9h-0.9v-7.3h4.8v0.8h-3.9v2.4h3.8v0.8h-3.8V39.9z"/>
	<path class="st5" d="M56.7,39.9h-0.9v-7.3h0.9V39.9z"/>
	<path class="st5" d="M61.9,40.1c-1.1,0-2-0.4-2.7-1.1c-0.7-0.7-1.1-1.6-1.1-2.7c0-1.1,0.4-2,1.1-2.7c0.7-0.7,1.6-1.1,2.7-1.1
		c1.2,0,2.1,0.5,2.8,1.5l-0.8,0.4c-0.2-0.3-0.5-0.6-0.9-0.8c-0.4-0.2-0.8-0.3-1.2-0.3c-0.8,0-1.5,0.3-2,0.8
		c-0.5,0.6-0.8,1.3-0.8,2.1c0,0.9,0.3,1.6,0.8,2.1c0.5,0.6,1.2,0.8,2,0.8c0.4,0,0.8-0.1,1.2-0.3c0.4-0.2,0.7-0.5,0.9-0.8l0.8,0.4
		C64,39.6,63,40.1,61.9,40.1z"/>
	<path class="st5" d="M70.6,39.9h-4.8v-7.3h4.8v0.8h-3.9v2.4h3.8v0.8h-3.8v2.5h3.9V39.9z"/>
</g>
<g>
	<path class="st5" d="M42.5,50.7h-0.9v-6.3l-2.5,6.3h-0.4l-2.5-6.3v6.3h-0.9v-7.5h1.3l2.3,5.8l2.3-5.8h1.3V50.7z"/>
	<path class="st5" d="M50.7,50.7h-1.1L49,49h-3.7l-0.7,1.7h-1.1l3-7.5h1.2L50.7,50.7z M48.7,48.2l-1.6-4l-1.6,4H48.7z"/>
	<path class="st5" d="M52.6,50.7h-0.9v-7.5h3c0.7,0,1.3,0.2,1.7,0.7c0.4,0.4,0.6,1,0.6,1.6c0,0.6-0.2,1.2-0.6,1.6
		c-0.4,0.4-1,0.7-1.7,0.7h-2.1V50.7z M54.6,46.9c0.4,0,0.8-0.1,1.1-0.4c0.3-0.3,0.4-0.6,0.4-1c0-0.4-0.1-0.8-0.4-1
		c-0.3-0.3-0.6-0.4-1.1-0.4h-2v2.9H54.6z"/>
	<path class="st5" d="M61.3,50.8c-1,0-1.7-0.3-2.3-0.8c-0.5-0.5-0.8-1.3-0.8-2.2v-4.6h0.9v4.6c0,0.7,0.2,1.2,0.5,1.6
		c0.4,0.4,0.9,0.6,1.6,0.6s1.2-0.2,1.6-0.6c0.4-0.4,0.6-0.9,0.6-1.6v-4.6h0.9v4.6c0,1-0.3,1.7-0.8,2.2
		C63.1,50.6,62.3,50.8,61.3,50.8z"/>
	<path class="st5" d="M68.9,50.7H68v-6.7h-2.4v-0.8h5.7v0.8h-2.4V50.7z"/>
	<path class="st5" d="M78.3,49.7c-0.7,0.7-1.6,1.1-2.7,1.1s-2-0.4-2.7-1.1c-0.7-0.7-1-1.7-1-2.8c0-1.1,0.3-2,1-2.8
		c0.7-0.7,1.6-1.1,2.7-1.1s2,0.4,2.7,1.1c0.7,0.7,1,1.7,1,2.8C79.4,48.1,79,49,78.3,49.7z M75.6,50c0.8,0,1.5-0.3,2-0.9
		c0.5-0.6,0.8-1.3,0.8-2.2c0-0.9-0.3-1.6-0.8-2.2c-0.5-0.6-1.2-0.9-2-0.9c-0.8,0-1.5,0.3-2,0.9c-0.5,0.6-0.8,1.3-0.8,2.2
		c0,0.9,0.3,1.6,0.8,2.2C74.1,49.7,74.8,50,75.6,50z"/>
</g>
</svg>
