<?xml version="1.0" encoding="utf-8"?>
<!-- Generator: Adobe Illustrator 25.2.3, SVG Export Plug-In . SVG Version: 6.00 Build 0)  -->
<svg version="1.1" id="Layer_1" xmlns="http://www.w3.org/2000/svg" width="234.552" height="89.546" xmlns:xlink="http://www.w3.org/1999/xlink" x="0px" y="0px"
	 viewBox="0 0 234.6 89.5" style="enable-background:new 0 0 234.6 89.5;" xml:space="preserve">
<style type="text/css">
	.st0{fill:#681758;}
	.st1{fill:#292333;}
	.st2{fill:#676D81;}
	.st3{fill:#FFFFFF;}
	.st4{opacity:0.92;fill:#2D314E;enable-background:new    ;}
	.st5{fill:none;}
</style>
<rect x="118.3" y="19" class="st0" width="37.5" height="27.5"/>
<g>
	<rect x="179.7" y="0.4" class="st0" width="54.8" height="18.6"/>
</g>
<rect x="155.8" y="19" class="st1" width="78.8" height="27.5"/>
<g>
	<rect x="155.8" y="48" class="st2" width="78.7" height="27.5"/>
</g>
<g>
	<rect x="118.3" y="48" class="st0" width="37.5" height="27.5"/>
</g>
<g>
	<g>
		<path class="st3" d="M171.8,37.9h-1.3V27.6h6.8v1.1h-5.5v3.3h5.4v1.1h-5.4V37.9z"/>
		<path class="st3" d="M180.4,37.9h-1.3V27.6h4.2c1,0,1.8,0.3,2.4,0.9c0.6,0.6,0.9,1.3,0.9,2.2c0,0.9-0.3,1.6-0.9,2.2
			c-0.6,0.6-1.4,0.9-2.4,0.9h-2.9V37.9z M183.1,32.7c0.6,0,1.1-0.2,1.5-0.6c0.4-0.4,0.6-0.8,0.6-1.4c0-0.6-0.2-1.1-0.6-1.4
			c-0.4-0.4-0.9-0.6-1.5-0.6h-2.7v3.9H183.1z"/>
		<path class="st3" d="M194.1,37.9H188V27.6h1.3v9.2h4.8V37.9z"/>
		<path class="st3" d="M205.9,37.9h-1.3v-8.7l-3.5,8.7h-0.5l-3.5-8.7v8.7h-1.3V27.6h1.8l3.2,8l3.2-8h1.8V37.9z"/>
		<path class="st3" d="M217.1,37.9h-4.7V27.6h4.6c0.9,0,1.6,0.2,2.1,0.7c0.5,0.5,0.8,1.1,0.8,1.9c0,0.6-0.2,1.1-0.5,1.6
			c-0.4,0.4-0.8,0.7-1.3,0.8c0.5,0.1,1,0.4,1.4,0.9c0.4,0.5,0.6,1.1,0.6,1.7c0,0.8-0.3,1.5-0.8,2C218.7,37.7,218,37.9,217.1,37.9z
			 M216.7,32.1c0.6,0,1-0.2,1.3-0.5c0.3-0.3,0.5-0.7,0.5-1.2c0-0.5-0.2-0.9-0.5-1.2c-0.3-0.3-0.8-0.5-1.3-0.5h-3.1v3.3H216.7z
			 M216.8,36.8c0.6,0,1.1-0.2,1.4-0.5c0.3-0.3,0.5-0.8,0.5-1.3c0-0.5-0.2-0.9-0.5-1.3c-0.3-0.3-0.8-0.5-1.4-0.5h-3.2v3.6H216.8z"/>
	</g>
	<g>
		<path class="st3" d="M130.5,40.4c-1,0-1.8-0.2-2.6-0.7c-0.7-0.4-1.3-1-1.8-1.8s-0.8-1.6-1-2.4c-0.2-0.9-0.3-1.8-0.3-2.7
			s0.1-1.8,0.3-2.7c0.2-0.9,0.5-1.7,1-2.4s1-1.3,1.8-1.8c0.7-0.4,1.6-0.7,2.6-0.7c1,0,1.8,0.2,2.6,0.7c0.7,0.4,1.3,1,1.8,1.8
			s0.8,1.5,1,2.4c0.2,0.9,0.3,1.8,0.3,2.7s-0.1,1.8-0.3,2.7c-0.2,0.9-0.5,1.7-1,2.4s-1,1.3-1.8,1.8S131.5,40.4,130.5,40.4z
			 M128.3,37.8c0.6,0.6,1.3,0.9,2.2,0.9c0.9,0,1.6-0.3,2.2-0.9c0.6-0.6,1-1.3,1.2-2.2c0.2-0.9,0.3-1.8,0.3-2.9c0-1.1-0.1-2-0.3-2.9
			c-0.2-0.9-0.6-1.6-1.2-2.2c-0.6-0.6-1.3-0.9-2.2-0.9c-0.9,0-1.6,0.3-2.2,0.9c-0.6,0.6-1,1.3-1.2,2.2c-0.2,0.9-0.3,1.8-0.3,2.9
			c0,1.1,0.1,2,0.3,2.9C127.3,36.5,127.7,37.2,128.3,37.8z"/>
		<path class="st3" d="M143.2,40.4c-1.7,0-3-0.6-4.1-1.8l0.9-1.4c0.8,1,1.9,1.5,3.1,1.5c0.9,0,1.7-0.3,2.4-0.9
			c0.6-0.6,1.1-1.3,1.4-2.1c0.3-0.8,0.4-1.8,0.4-2.7c0-0.2,0-0.4,0-0.6c-0.4,0.6-0.9,1.1-1.7,1.6s-1.6,0.7-2.4,0.7
			c-1.4,0-2.5-0.4-3.5-1.2c-0.9-0.8-1.4-2-1.4-3.5c0-1.3,0.5-2.4,1.4-3.4c0.9-0.9,2.2-1.4,3.7-1.4c1,0,1.8,0.2,2.6,0.6
			s1.3,1,1.8,1.7c0.4,0.7,0.8,1.5,1,2.4s0.3,1.8,0.3,2.9c0,1.4-0.2,2.6-0.6,3.7c-0.4,1.1-1.1,2-2,2.8
			C145.6,40,144.5,40.4,143.2,40.4z M143.6,33.1c0.7,0,1.4-0.2,2.1-0.6c0.7-0.4,1.2-0.9,1.6-1.6c0-0.5-0.1-1-0.3-1.4
			c-0.2-0.5-0.4-0.9-0.6-1.3s-0.7-0.7-1.1-1c-0.5-0.2-1-0.4-1.6-0.4c-1,0-1.9,0.3-2.5,1s-0.9,1.4-0.9,2.1c0,1,0.3,1.8,0.9,2.4
			C141.8,32.8,142.6,33.1,143.6,33.1z"/>
	</g>
	<g>
		<path class="st3" d="M171.6,66.9h-1.3V56.6h6.8v1.1h-5.5v3.3h5.4v1.1h-5.4V66.9z"/>
		<path class="st3" d="M180.1,66.9h-1.3V56.6h4.2c1,0,1.8,0.3,2.4,0.9c0.6,0.6,0.9,1.3,0.9,2.2c0,0.9-0.3,1.6-0.9,2.2
			c-0.6,0.6-1.4,0.9-2.4,0.9h-2.9V66.9z M182.8,61.7c0.6,0,1.1-0.2,1.5-0.6c0.4-0.4,0.6-0.8,0.6-1.4c0-0.6-0.2-1.1-0.6-1.4
			c-0.4-0.4-0.9-0.5-1.5-0.5h-2.7v3.9H182.8z"/>
		<path class="st3" d="M193.9,66.9h-6.1V56.6h1.3v9.2h4.8V66.9z"/>
		<path class="st3" d="M205.7,66.9h-1.3v-8.7l-3.5,8.7h-0.5l-3.5-8.7v8.7h-1.3V56.6h1.8l3.2,8l3.2-8h1.8V66.9z"/>
		<path class="st3" d="M221,66.9h-1.5l-0.9-2.3h-5.1l-0.9,2.3h-1.5l4.2-10.3h1.6L221,66.9z M218.2,63.5l-2.2-5.6l-2.2,5.6H218.2z"/>
	</g>
	<g>
		<path class="st3" d="M130.6,69.4c-1,0-1.8-0.2-2.6-0.7c-0.7-0.4-1.3-1-1.8-1.8s-0.8-1.6-1-2.4c-0.2-0.9-0.3-1.8-0.3-2.7
			s0.1-1.8,0.3-2.7c0.2-0.9,0.5-1.7,1-2.4c0.4-0.7,1-1.3,1.8-1.8c0.7-0.4,1.6-0.7,2.6-0.7c1,0,1.8,0.2,2.6,0.7s1.3,1,1.8,1.8
			c0.4,0.7,0.8,1.5,1,2.4c0.2,0.9,0.3,1.8,0.3,2.7s-0.1,1.8-0.3,2.7c-0.2,0.9-0.5,1.7-1,2.4s-1,1.3-1.8,1.8S131.6,69.4,130.6,69.4z
			 M128.4,66.8c0.6,0.6,1.3,0.9,2.2,0.9c0.9,0,1.6-0.3,2.2-0.9c0.6-0.6,1-1.3,1.2-2.2c0.2-0.9,0.3-1.8,0.3-2.9c0-1.1-0.1-2-0.3-2.9
			c-0.2-0.9-0.6-1.6-1.2-2.2c-0.6-0.6-1.3-0.9-2.2-0.9c-0.9,0-1.6,0.3-2.2,0.9c-0.6,0.6-1,1.3-1.2,2.2c-0.2,0.9-0.3,1.8-0.3,2.9
			c0,1.1,0.1,2,0.3,2.9C127.4,65.5,127.8,66.2,128.4,66.8z"/>
		<path class="st3" d="M147.5,68.3c-1,0.7-2.3,1.1-3.8,1.1S141,69,140,68.3c-1-0.7-1.5-1.7-1.5-2.9c0-0.9,0.3-1.7,1-2.4
			c0.7-0.7,1.5-1.2,2.5-1.5c-0.9-0.3-1.7-0.7-2.3-1.3c-0.6-0.6-0.9-1.3-0.9-2.2c0-1.2,0.5-2.2,1.5-2.8c1-0.7,2.2-1,3.5-1
			c1.3,0,2.5,0.3,3.5,1c1,0.7,1.5,1.6,1.5,2.8c0,0.9-0.3,1.6-0.9,2.2c-0.6,0.6-1.4,1-2.3,1.3c1,0.3,1.8,0.8,2.5,1.5
			c0.7,0.7,1,1.5,1,2.4C149,66.6,148.5,67.6,147.5,68.3z M143.8,67.7c0.9,0,1.7-0.2,2.4-0.7c0.7-0.5,1-1.1,1-1.8
			c0-0.6-0.2-1.1-0.7-1.6s-0.9-0.8-1.4-0.9s-0.9-0.3-1.3-0.3c-0.4,0-0.8,0.2-1.3,0.3s-0.9,0.5-1.4,0.9c-0.5,0.4-0.7,1-0.7,1.6
			c0,0.8,0.3,1.4,1,1.8C142,67.5,142.8,67.7,143.8,67.7z M143.8,60.8c0.3,0,0.6-0.1,0.9-0.2c0.3-0.1,0.6-0.2,1-0.4
			c0.4-0.2,0.7-0.4,0.9-0.8c0.2-0.3,0.4-0.7,0.4-1.1c0-0.7-0.3-1.3-0.9-1.8c-0.6-0.4-1.4-0.7-2.3-0.7c-0.9,0-1.7,0.2-2.3,0.6
			c-0.6,0.4-0.9,1-0.9,1.8c0,0.4,0.1,0.8,0.4,1.1s0.5,0.6,0.9,0.8c0.4,0.2,0.7,0.3,1,0.4C143.2,60.7,143.5,60.7,143.8,60.8z"/>
	</g>
	<g>
		<path class="st3" d="M199.8,14.9h-1.3v-2.6h-4.9v-1.1l4.4-6.6h1.8v6.6h1.5v1.1h-1.5V14.9z M198.5,11.1V5.7l-3.6,5.4H198.5z"/>
		<path class="st3" d="M211.7,14.9h-1.6l-3.3-4.4l-3.3,4.4h-1.6l4-5.3l-3.8-5h1.6l3.1,4.1l3.1-4.1h1.6l-3.8,5L211.7,14.9z"/>
		<path class="st3" d="M216.6,15.1c-0.7,0-1.3-0.1-1.8-0.4c-0.5-0.3-0.9-0.7-1.2-1.2s-0.5-1.1-0.7-1.7c-0.2-0.6-0.2-1.3-0.2-2
			c0-1.5,0.4-2.8,1.1-3.8c0.7-1,1.8-1.5,3.1-1.5c1.2,0,2.1,0.4,2.9,1.2l-0.7,1c-0.6-0.7-1.3-1.1-2.2-1.1c-0.9,0-1.7,0.4-2.2,1.2
			c-0.5,0.8-0.8,1.8-0.8,2.9V10c0.3-0.4,0.7-0.8,1.2-1.1c0.5-0.3,1.1-0.5,1.7-0.5c1,0,1.8,0.3,2.4,0.9c0.6,0.6,1,1.4,1,2.4
			c0,0.9-0.3,1.7-1,2.4S217.7,15.1,216.6,15.1z M216.6,13.9c0.7,0,1.3-0.2,1.7-0.7c0.4-0.5,0.6-1,0.6-1.5c0-0.7-0.2-1.3-0.7-1.7
			c-0.4-0.4-1-0.6-1.7-0.6c-0.5,0-1,0.1-1.5,0.4s-0.8,0.7-1.1,1.1c0.1,0.8,0.3,1.4,0.7,2C215.1,13.6,215.8,13.9,216.6,13.9z"/>
	</g>
</g>
<g id="_24_julho_novo" transform="translate(200.275 451.873)">
	<path id="Path_11" class="st4" d="M-66.1-365.5c-0.1,1.9-1.7,3.3-3.6,3.2c-1.9-0.1-3.3-1.7-3.2-3.6c0.1-1.8,1.6-3.2,3.4-3.2
		C-67.5-369-66-367.4-66.1-365.5z"/>
</g>
<g id="fplm_novo" transform="translate(-946 -246.114)">
	<g id="Group_66" transform="translate(29.369)">
		<rect id="Rectangle_41" x="916.6" y="263" class="st5" width="106" height="56"/>
	</g>
</g>
<polygon class="st0" points="118.3,75.5 127.4,81.1 126.3,72.9 "/>
</svg>
