<svg xmlns="http://www.w3.org/2000/svg" xmlns:xlink="http://www.w3.org/1999/xlink" width="100" height="95.826" viewBox="0 0 46.57 40.37"><defs><style>.cls-1{fill:none;}.cls-2{fill:#292333;}.cls-3{fill:#fff;}.cls-4{fill:#676d81;}.cls-5{fill:#681758;}.cls-6{fill:#2d314e;}.cls-7{clip-path:url(#clip-path);}</style><clipPath id="clip-path"><rect class="cls-1" x="4.05" y="1.64" width="13" height="5"/></clipPath></defs><g id="Layer_2" data-name="Layer 2"><g id="Layer_1-2" data-name="Layer 1"><rect class="cls-2" y="4.55" width="32.23" height="12.24" rx="2.08"/><path class="cls-3" d="M3.75,13.8V10.29H6.4V11H4.55v.74H6.36v.65H4.55V13.8Z"/><path class="cls-3" d="M7,13.8V10.29H8.76a1.14,1.14,0,1,1,0,2.26h-1V13.8Zm2.2-2.38A.5.5,0,0,0,8.64,11H7.8v.94h.84A.5.5,0,0,0,9.2,11.42Z"/><path class="cls-3" d="M10.53,13.8V10.29h.8v2.85h1.58v.66Z"/><path class="cls-3" d="M16.75,13.8V11.27L15.7,13.8h-.35l-1.06-2.53V13.8H13.5V10.29h1.11l.91,2.19.91-2.19h1.13V13.8Z"/><path class="cls-3" d="M19.83,13.8V10.29h2c.72,0,1.08.43,1.08.9a.79.79,0,0,1-.64.8.86.86,0,0,1,.71.86,1,1,0,0,1-1.09,1Zm2.24-2.48c0-.22-.17-.37-.44-.37h-1v.74h1C21.9,11.69,22.07,11.54,22.07,11.32Zm.07,1.42c0-.22-.17-.4-.48-.4h-1v.8h1C22,13.14,22.14,13,22.14,12.74Z"/><rect class="cls-4" y="18.55" width="32.23" height="12.24" rx="2.08"/><path class="cls-3" d="M3.75,27.8V24.29H6.4V25H4.55v.74H6.36v.65H4.55V27.8Z"/><path class="cls-3" d="M7,27.8V24.29H8.76a1.14,1.14,0,1,1,0,2.26h-1V27.8Zm2.2-2.38A.5.5,0,0,0,8.64,25H7.8v.94h.84A.5.5,0,0,0,9.2,25.42Z"/><path class="cls-3" d="M10.53,27.8V24.29h.8v2.85h1.58v.66Z"/><path class="cls-3" d="M16.75,27.8V25.27L15.7,27.8h-.35l-1.06-2.53V27.8H13.5V24.29h1.11l.91,2.19.91-2.19h1.13V27.8Z"/><path class="cls-3" d="M22.42,27.8l-.24-.6h-1.6l-.24.6h-.9l1.44-3.51h1l1.44,3.51Zm-1-2.76-.58,1.51H22Z"/><rect class="cls-5" x="28.07" y="2.32" width="16.7" height="16.7" rx="4" transform="translate(3.12 28.88) rotate(-45)"/><path class="cls-3" d="M31.05,10.41c0-1.64.81-3.28,2.63-3.28s2.62,1.64,2.62,3.28-.81,3.28-2.62,3.28S31.05,12.05,31.05,10.41Zm3.87,0c0-1.17-.33-2.08-1.24-2.08s-1.25.91-1.25,2.08.34,2.08,1.25,2.08S34.92,11.58,34.92,10.41Z"/><path class="cls-3" d="M37.26,13l.6-1a1.72,1.72,0,0,0,1.27.5,1.64,1.64,0,0,0,1.59-1.79v-.15a2.09,2.09,0,0,1-1.64.82,2,2,0,0,1-2.16-2.06,2.23,2.23,0,0,1,2.43-2.18c1.93,0,2.74,1.48,2.74,3.27s-1.08,3.29-3,3.29A2.79,2.79,0,0,1,37.26,13Zm3.45-3.42a1.28,1.28,0,0,0-1.28-1.29,1,1,0,0,0-1.14.94c0,.66.58,1,1.17,1A1.59,1.59,0,0,0,40.71,9.61Z"/><path class="cls-6" d="M34.88,25a1.75,1.75,0,0,1,1.35-2.15,1.92,1.92,0,0,1,2.27,1.35,1.75,1.75,0,0,1-1.35,2.16A1.93,1.93,0,0,1,34.88,25"/><rect class="cls-5" x="28.07" y="16.32" width="16.7" height="16.7" rx="4" transform="translate(-6.78 32.98) rotate(-45)"/><path class="cls-3" d="M31.05,24.41c0-1.64.81-3.28,2.63-3.28s2.62,1.64,2.62,3.28-.81,3.28-2.62,3.28S31.05,26.05,31.05,24.41Zm3.87,0c0-1.17-.33-2.08-1.24-2.08s-1.25.91-1.25,2.08.34,2.08,1.25,2.08S34.92,25.58,34.92,24.41Z"/><path class="cls-3" d="M37,25.93a1.81,1.81,0,0,1,1.36-1.62,1.61,1.61,0,0,1-1.26-1.5c0-1.2,1.27-1.68,2.45-1.68S42,21.61,42,22.81a1.61,1.61,0,0,1-1.26,1.5,1.82,1.82,0,0,1,1.36,1.62c0,1.18-1.22,1.76-2.55,1.76S37,27.11,37,25.93Zm3.73-.19c0-.52-.79-.77-1.18-.83s-1.18.31-1.18.83.51.75,1.18.75S40.69,26.2,40.69,25.74ZM40.58,23c0-.45-.45-.71-1.07-.71s-1.07.26-1.07.71.68.67,1.07.73S40.58,23.51,40.58,23Z"/><path class="cls-6" d="M34.88,39a1.75,1.75,0,0,1,1.35-2.15,1.92,1.92,0,0,1,2.27,1.35,1.75,1.75,0,0,1-1.35,2.16A1.93,1.93,0,0,1,34.88,39"/><rect class="cls-5" width="21.1" height="8.28" rx="1.39"/><g class="cls-7"><path class="cls-3" d="M6.46,6.46V5.55H4.22V4.82L6.08,2.08H7.46V4.73h.6v.82h-.6v.91Zm0-3.55L5.2,4.73H6.46Z"/><path class="cls-3" d="M11.81,6.46l-1.17-1.6L9.46,6.46H8.28L10,4.22,8.38,2.08H9.57l1.07,1.5,1.06-1.5h1.2L11.31,4.21,13,6.46Z"/><path class="cls-3" d="M13.28,4.28A2.08,2.08,0,0,1,15.46,2a2.16,2.16,0,0,1,1.39.45l-.45.72a1.28,1.28,0,0,0-.94-.35,1.18,1.18,0,0,0-1.17,1.24.34.34,0,0,0,0,.1,1.55,1.55,0,0,1,1.2-.57A1.45,1.45,0,0,1,17.1,5a1.61,1.61,0,0,1-1.8,1.5C13.88,6.54,13.28,5.51,13.28,4.28Zm2.8.79c0-.46-.42-.66-.86-.66a1.19,1.19,0,0,0-.92.42.9.9,0,0,0,.95.88C15.79,5.71,16.08,5.37,16.08,5.07Z"/></g></g></g></svg>