<svg xmlns="http://www.w3.org/2000/svg" width="234.552" height="89.546" viewBox="0 0 234.552 89.546">
  <g id="fplm_novo" transform="translate(-946 -246.114)">
    <g id="xiquelene_novo" transform="translate(1051.764 240.114)">
      <g id="Group_20" data-name="Group 20" transform="translate(22.07 89.22)" opacity="0.92">
        <g id="Group_19" data-name="Group 19">
          <path id="Path_27" data-name="Path 27" d="M374.811,48.227a2.985,2.985,0,1,0-2.982,3.16,3.075,3.075,0,0,0,2.982-3.16Z" transform="translate(-368.851 -45.061)" fill="#2d314e" opacity="0.8"/>
        </g>
      </g>
      <g id="Group_42" data-name="Group 42" transform="translate(28.236 27.985)">
        <path id="Path_55" data-name="Path 55" d="M455.792,46.869l-75.979-1.4,2.008-24.527h79.866L463.1,38Z" transform="translate(-362.548 -19.022)" fill="#f4bdc7" opacity="0.5"/>
        <path id="Path_56" data-name="Path 56" d="M462.908,46.16h-91.78V20.233H470.29V37.3Z" transform="translate(-371.128 -20.233)" fill="#f4bdc7"/>
        <path id="Path_57" data-name="Path 57" d="M417.3,27.307v9.951l7.382-9.951Z" transform="translate(-325.519 -11.331)" fill="#f4bdc7"/>
      </g>
      <g id="Group_44" data-name="Group 44" transform="translate(86.875 6)">
        <g id="Group_43" data-name="Group 43">
          <rect id="Rectangle_26" data-name="Rectangle 26" width="41.91" height="21.994"/>
          <path id="_4x6" data-name="4x6" d="M3.828-6.132q-.468.612-1,1.332a9.147,9.147,0,0,0-.888,1.476H3.828ZM5.58-8.316v4.992h.888V-1.86H5.58V0H3.828V-1.86H.24V-3.168Q.5-3.7.9-4.362T1.782-5.73q.486-.7,1.026-1.374a15,15,0,0,1,1.08-1.212Zm4.464,3.924,1.248-1.92H13.14L10.98-3.276q.72.9,1.308,1.752A14.425,14.425,0,0,1,13.224,0H11.3l-.24-.45q-.144-.27-.324-.564T10.362-1.6q-.2-.294-.39-.534-.18.228-.366.5t-.354.558q-.168.282-.33.558T8.64,0H6.816a7.862,7.862,0,0,1,.4-.708q.252-.408.546-.846t.618-.876q.324-.438.636-.822-.54-.756-1.08-1.53L6.864-6.312H8.8Zm6.468.48a3.579,3.579,0,0,0-.564.048,1.662,1.662,0,0,0-.468.132q0,.048-.006.144t-.006.168a5.287,5.287,0,0,0,.06.816,2.286,2.286,0,0,0,.2.672,1.149,1.149,0,0,0,.384.45,1.049,1.049,0,0,0,.6.162.974.974,0,0,0,.51-.126,1.154,1.154,0,0,0,.348-.318,1.353,1.353,0,0,0,.2-.426,1.656,1.656,0,0,0,.066-.45,1.335,1.335,0,0,0-.306-.942A1.35,1.35,0,0,0,16.512-3.912ZM16.74-5.3a3.7,3.7,0,0,1,1.326.21,2.438,2.438,0,0,1,.894.57,2.148,2.148,0,0,1,.5.84,3.28,3.28,0,0,1,.156,1.02,3.005,3.005,0,0,1-.174.984,2.749,2.749,0,0,1-.528.912,2.766,2.766,0,0,1-.9.672,2.935,2.935,0,0,1-1.29.264,2.782,2.782,0,0,1-2.28-.948,4,4,0,0,1-.78-2.616A5.654,5.654,0,0,1,14.04-5.52,4.187,4.187,0,0,1,15.1-7.074a4.635,4.635,0,0,1,1.668-.96,7.085,7.085,0,0,1,2.2-.342Q19-8,19.02-7.65t.048.738a6.823,6.823,0,0,0-1.146.114,3.8,3.8,0,0,0-.972.318,2.66,2.66,0,0,0-.762.558,2.388,2.388,0,0,0-.5.834,2.22,2.22,0,0,1,.54-.168A3.021,3.021,0,0,1,16.74-5.3Z" transform="translate(10.955 15.497)" fill="#fff"/>
        </g>
      </g>
      <rect id="Rectangle_27" data-name="Rectangle 27" width="103.383" height="27.196" transform="translate(25.402 53.833)" fill="#bdd8f1"/>
      <ellipse id="Ellipse_10" data-name="Ellipse 10" cx="23.022" cy="22.782" rx="23.022" ry="22.782" transform="translate(2.028 24.374)" fill="#eee9de"/>
      <path id="Path_58" data-name="Path 58" d="M410.8,45.163a25.051,25.051,0,1,0-50.1,0,24.513,24.513,0,0,0,5.5,15.492c4.59,5.668,19.211,23.037,19.211,23.037s15.308-17.369,19.9-23.037A24.53,24.53,0,0,0,410.8,45.163Z" transform="translate(-360.701 1.994)" fill="#2d314e" opacity="0.92"/>
      <path id="FPLM_B" data-name="FPLM B" d="M.88,0V-7.623h5.1v1.441H2.6v1.595H5.61v1.441H2.6V0Zm8.7-7.711a4.769,4.769,0,0,1,2.618.6,2.173,2.173,0,0,1,.913,1.964,2.2,2.2,0,0,1-.924,1.985,4.782,4.782,0,0,1-2.64.61H9.009V0H7.293V-7.513a9.708,9.708,0,0,1,1.188-.154Q9.108-7.711,9.581-7.711Zm.11,1.463q-.187,0-.368.011t-.314.022v2.2h.539a2.921,2.921,0,0,0,1.342-.242.93.93,0,0,0,.451-.9,1.082,1.082,0,0,0-.115-.528.878.878,0,0,0-.33-.335,1.486,1.486,0,0,0-.523-.176A4.315,4.315,0,0,0,9.691-6.248Zm9.878,4.774V0H14.476V-7.623h1.716v6.149ZM22.9-7.623q.2.363.457.9T23.9-5.571q.281.622.556,1.27L24.97-3.08,25.487-4.3q.275-.649.556-1.27t.539-1.155q.259-.533.456-.9H28.6q.11.759.2,1.7t.165,1.958q.071,1.018.132,2.041T29.2,0H27.533q-.033-1.111-.088-2.42T27.28-5.06q-.2.462-.44,1.023t-.479,1.122q-.237.561-.457,1.072t-.374.875h-1.2q-.154-.363-.374-.875T23.5-2.915q-.237-.561-.479-1.122t-.44-1.023q-.11,1.331-.165,2.64T22.33,0H20.658q.044-.9.1-1.925t.132-2.041q.071-1.018.165-1.958t.2-1.7ZM36.124.1Q35.5.1,34.875.06a8.824,8.824,0,0,1-1.292-.181V-7.513a10.977,10.977,0,0,1,1.155-.148q.627-.049,1.166-.049a7.941,7.941,0,0,1,1.336.1,3.165,3.165,0,0,1,1.051.358,1.873,1.873,0,0,1,.688.665,1.946,1.946,0,0,1,.247,1.017,1.615,1.615,0,0,1-.88,1.441,1.8,1.8,0,0,1,.99.748A2.152,2.152,0,0,1,39.6-2.31a2.049,2.049,0,0,1-.875,1.8A4.583,4.583,0,0,1,36.124.1Zm-.869-3.421v1.969q.187.022.407.033t.484.011a2.973,2.973,0,0,0,1.243-.22.816.816,0,0,0,.473-.814.8.8,0,0,0-.4-.754,2.32,2.32,0,0,0-1.133-.225Zm0-1.309h.836a2.329,2.329,0,0,0,1.133-.2.7.7,0,0,0,.341-.655.672.672,0,0,0-.352-.649,2.262,2.262,0,0,0-1.034-.187q-.22,0-.473.005t-.451.028Z" transform="translate(54.971 45.481)"/>
      <path id="FPLM_A" data-name="FPLM A" d="M.88,0V-7.623h5.1v1.441H2.6v1.595H5.61v1.441H2.6V0Zm8.7-7.711a4.769,4.769,0,0,1,2.618.6,2.173,2.173,0,0,1,.913,1.964,2.2,2.2,0,0,1-.924,1.985,4.782,4.782,0,0,1-2.64.61H9.009V0H7.293V-7.513a9.708,9.708,0,0,1,1.188-.154Q9.108-7.711,9.581-7.711Zm.11,1.463q-.187,0-.368.011t-.314.022v2.2h.539a2.921,2.921,0,0,0,1.342-.242.93.93,0,0,0,.451-.9,1.082,1.082,0,0,0-.115-.528.878.878,0,0,0-.33-.335,1.486,1.486,0,0,0-.523-.176A4.315,4.315,0,0,0,9.691-6.248Zm9.878,4.774V0H14.476V-7.623h1.716v6.149ZM22.9-7.623q.2.363.457.9T23.9-5.571q.281.622.556,1.27L24.97-3.08,25.487-4.3q.275-.649.556-1.27t.539-1.155q.259-.533.456-.9H28.6q.11.759.2,1.7t.165,1.958q.071,1.018.132,2.041T29.2,0H27.533q-.033-1.111-.088-2.42T27.28-5.06q-.2.462-.44,1.023t-.479,1.122q-.237.561-.457,1.072t-.374.875h-1.2q-.154-.363-.374-.875T23.5-2.915q-.237-.561-.479-1.122t-.44-1.023q-.11,1.331-.165,2.64T22.33,0H20.658q.044-.9.1-1.925t.132-2.041q.071-1.018.165-1.958t.2-1.7ZM38.687,0q-.121-.4-.27-.814t-.292-.836h-2.97q-.143.418-.292.836T34.595,0H32.813q.429-1.232.814-2.277t.754-1.969q.368-.924.726-1.754t.743-1.623h1.639q.374.792.737,1.623t.731,1.754q.368.924.754,1.969T40.524,0ZM36.63-5.9q-.055.165-.165.451l-.253.66q-.143.374-.313.825t-.347.946h2.167q-.176-.5-.341-.946t-.313-.825q-.148-.374-.258-.66T36.63-5.9Z" transform="translate(54.702 70.939)"/>
      <ellipse id="Ellipse_11" data-name="Ellipse 11" cx="23.022" cy="22.782" rx="23.022" ry="22.782" transform="translate(2.028 24.374)" fill="#ff8879"/>
      <path id="_09" data-name="09" d="M6.942-4.524a5.974,5.974,0,0,1-.865,3.49A2.768,2.768,0,0,1,3.692.182,2.768,2.768,0,0,1,1.307-1.033a5.974,5.974,0,0,1-.865-3.49,7.953,7.953,0,0,1,.227-2,4.408,4.408,0,0,1,.656-1.469A2.926,2.926,0,0,1,2.353-8.9a2.851,2.851,0,0,1,1.339-.312A2.768,2.768,0,0,1,6.077-8,5.948,5.948,0,0,1,6.942-4.524Zm-1.976,0A10.577,10.577,0,0,0,4.9-5.753a4.421,4.421,0,0,0-.208-.955,1.483,1.483,0,0,0-.39-.624.883.883,0,0,0-.611-.221.859.859,0,0,0-.6.221,1.573,1.573,0,0,0-.39.624,4.159,4.159,0,0,0-.214.955,10.577,10.577,0,0,0-.065,1.229,10.748,10.748,0,0,0,.065,1.235,4.167,4.167,0,0,0,.214.962,1.573,1.573,0,0,0,.39.624.859.859,0,0,0,.6.221A.883.883,0,0,0,4.3-1.7a1.483,1.483,0,0,0,.39-.624A4.428,4.428,0,0,0,4.9-3.289,10.748,10.748,0,0,0,4.966-4.524Zm6.292-.312a3.523,3.523,0,0,0,.624-.059,1.311,1.311,0,0,0,.481-.162v-.117a.838.838,0,0,1,.007-.1.746.746,0,0,0,.006-.091,6.812,6.812,0,0,0-.078-.878,2.389,2.389,0,0,0-.221-.715,1.235,1.235,0,0,0-.422-.481A1.168,1.168,0,0,0,11-7.618a1.106,1.106,0,0,0-.546.13,1.093,1.093,0,0,0-.377.338,1.566,1.566,0,0,0-.214.455,1.726,1.726,0,0,0-.072.481,1.4,1.4,0,0,0,.345,1.04A1.565,1.565,0,0,0,11.258-4.836Zm.949,1.261a2.349,2.349,0,0,1-.6.188,3.334,3.334,0,0,1-.565.059,4.546,4.546,0,0,1-1.443-.2A2.567,2.567,0,0,1,8.613-4.1a2.255,2.255,0,0,1-.566-.891,3.443,3.443,0,0,1-.182-1.144A3.473,3.473,0,0,1,8.04-7.2,2.923,2.923,0,0,1,8.593-8.2a2.991,2.991,0,0,1,.955-.741,3.068,3.068,0,0,1,1.4-.292A3.086,3.086,0,0,1,13.475-8.2a4.562,4.562,0,0,1,.851,2.97,6.98,6.98,0,0,1-.332,2.249,4,4,0,0,1-1.027,1.638A4.515,4.515,0,0,1,11.193-.331,8.713,8.713,0,0,1,8.632.026Q8.619-.39,8.593-.78t-.052-.806A9.392,9.392,0,0,0,9.88-1.7a3.663,3.663,0,0,0,1.053-.325,2.412,2.412,0,0,0,.774-.6A2.738,2.738,0,0,0,12.207-3.575Z" transform="translate(17.55 42.481)" fill="#231f20"/>
      <path id="_08" data-name="08" d="M6.942-4.524a5.974,5.974,0,0,1-.865,3.49A2.768,2.768,0,0,1,3.692.182,2.768,2.768,0,0,1,1.307-1.033a5.974,5.974,0,0,1-.865-3.49,7.953,7.953,0,0,1,.227-2,4.408,4.408,0,0,1,.656-1.469A2.926,2.926,0,0,1,2.353-8.9a2.851,2.851,0,0,1,1.339-.312A2.768,2.768,0,0,1,6.077-8,5.948,5.948,0,0,1,6.942-4.524Zm-1.976,0A10.577,10.577,0,0,0,4.9-5.753a4.421,4.421,0,0,0-.208-.955,1.483,1.483,0,0,0-.39-.624.883.883,0,0,0-.611-.221.859.859,0,0,0-.6.221,1.573,1.573,0,0,0-.39.624,4.159,4.159,0,0,0-.214.955,10.577,10.577,0,0,0-.065,1.229,10.748,10.748,0,0,0,.065,1.235,4.167,4.167,0,0,0,.214.962,1.573,1.573,0,0,0,.39.624.859.859,0,0,0,.6.221A.883.883,0,0,0,4.3-1.7a1.483,1.483,0,0,0,.39-.624A4.428,4.428,0,0,0,4.9-3.289,10.748,10.748,0,0,0,4.966-4.524Zm9.425,2.015a2.781,2.781,0,0,1-.2,1.073,2.342,2.342,0,0,1-.6.851,2.8,2.8,0,0,1-1.008.566,4.419,4.419,0,0,1-1.4.2A3.934,3.934,0,0,1,9.665-.072,2.941,2.941,0,0,1,8.691-.7a2.211,2.211,0,0,1-.527-.826,2.529,2.529,0,0,1-.156-.825,2.336,2.336,0,0,1,.1-.715A2.267,2.267,0,0,1,8.4-3.66a3.17,3.17,0,0,1,.41-.488A5.029,5.029,0,0,1,9.3-4.563a3.6,3.6,0,0,1-.826-.9A2.163,2.163,0,0,1,8.2-6.591a2.432,2.432,0,0,1,.214-1,2.517,2.517,0,0,1,.6-.839A2.966,2.966,0,0,1,9.965-9a3.369,3.369,0,0,1,1.228-.215,3.638,3.638,0,0,1,1.359.227,2.856,2.856,0,0,1,.929.578,2.114,2.114,0,0,1,.526.787,2.46,2.46,0,0,1,.163.865A2.183,2.183,0,0,1,13.839-5.6a2.59,2.59,0,0,1-.825.852,3.31,3.31,0,0,1,1.059,1.007A2.327,2.327,0,0,1,14.391-2.509Zm-4.5.078a.98.98,0,0,0,.072.344.974.974,0,0,0,.227.345,1.245,1.245,0,0,0,.4.26,1.539,1.539,0,0,0,.6.1,1.317,1.317,0,0,0,.988-.325,1.027,1.027,0,0,0,.312-.728,1.038,1.038,0,0,0-.137-.533,1.38,1.38,0,0,0-.37-.409,2.67,2.67,0,0,0-.552-.312q-.319-.137-.683-.254a2.66,2.66,0,0,0-.611.637A1.514,1.514,0,0,0,9.893-2.431ZM12.3-6.708a.9.9,0,0,0-.059-.306.87.87,0,0,0-.195-.306,1.136,1.136,0,0,0-.344-.24,1.189,1.189,0,0,0-.507-.1,1.226,1.226,0,0,0-.494.091,1,1,0,0,0-.345.24,1.011,1.011,0,0,0-.2.319.9.9,0,0,0-.065.325,1.193,1.193,0,0,0,.306.78,2.376,2.376,0,0,0,1.047.624,2.024,2.024,0,0,0,.637-.6A1.488,1.488,0,0,0,12.3-6.708Z" transform="translate(17.55 61.832)" fill="#231f20"/>
    </g>
    <g id="Group_66" data-name="Group 66" transform="translate(29.369)">
      <rect id="Rectangle_41" data-name="Rectangle 41" width="106" height="56" transform="translate(916.631 263)" fill="none"/>
    </g>
  </g>
</svg>
