<?xml version="1.0" encoding="utf-8"?>
<!-- Generator: Adobe Illustrator 25.2.3, SVG Export Plug-In . SVG Version: 6.00 Build 0)  -->
<svg version="1.1" id="Layer_1" xmlns="http://www.w3.org/2000/svg" width="234.552" height="89.546" xmlns:xlink="http://www.w3.org/1999/xlink" x="0px" y="0px"
	 viewBox="0 0 234.6 89.5" style="enable-background:new 0 0 234.6 89.5;" xml:space="preserve">
<style type="text/css">
	.st0{fill:#681758;}
	.st1{fill:#292333;}
	.st2{fill:#676D81;}
	.st3{fill:#FFFFFF;stroke:#FFFFFF;stroke-width:0.4999;stroke-miterlimit:9.998;}
	.st4{fill:#FFFFFF;stroke:#FFFFFF;stroke-width:0.6999;stroke-miterlimit:9.998;}
	.st5{fill:#FFFFFF;}
	.st6{opacity:0.92;fill:#2D314E;enable-background:new    ;}
	.st7{fill:none;}
</style>
<rect x="131.5" y="21.3" class="st0" width="30.2" height="22.2"/>
<g>
	<rect x="181" y="6.3" class="st0" width="44.2" height="15"/>
</g>
<rect x="161.7" y="21.3" class="st1" width="63.5" height="22.2"/>
<g>
	<rect x="161.7" y="44.7" class="st2" width="63.4" height="22.2"/>
</g>
<g>
	<rect x="131.5" y="44.7" class="st0" width="30.2" height="22.2"/>
</g>
<g>
	<g>
		<path class="st3" d="M174.6,36.5h-1v-8.3h5.5v0.9h-4.4v2.7h4.4v0.9h-4.4L174.6,36.5L174.6,36.5z"/>
		<path class="st3" d="M181.6,36.5h-1v-8.3h3.4c0.8,0,1.5,0.2,1.9,0.7c0.4,0.5,0.7,1,0.7,1.8c0,0.8-0.2,1.3-0.7,1.8
			c-0.5,0.5-1.1,0.7-1.9,0.7h-2.3L181.6,36.5L181.6,36.5z M183.7,32.3c0.5,0,0.9-0.2,1.2-0.5c0.3-0.3,0.5-0.6,0.5-1.1
			c0-0.5-0.2-0.9-0.5-1.1c-0.3-0.3-0.7-0.5-1.2-0.5h-2.2v3.1L183.7,32.3L183.7,32.3z"/>
		<path class="st3" d="M192.6,36.5h-4.9v-8.3h1v7.4h3.9V36.5z"/>
		<path class="st3" d="M202.1,36.5h-1v-7l-2.8,7h-0.4l-2.8-7v7h-1v-8.3h1.5l2.6,6.4l2.6-6.4h1.5L202.1,36.5L202.1,36.5z"/>
		<path class="st3" d="M211.1,36.5h-3.8v-8.3h3.7c0.7,0,1.3,0.2,1.7,0.6c0.4,0.4,0.6,0.9,0.6,1.5c0,0.5-0.2,0.9-0.4,1.3
			c-0.3,0.3-0.6,0.6-1,0.6c0.4,0.1,0.8,0.3,1.1,0.7c0.3,0.4,0.5,0.9,0.5,1.4c0,0.6-0.2,1.2-0.6,1.6
			C212.4,36.4,211.9,36.5,211.1,36.5z M210.8,31.9c0.5,0,0.8-0.2,1-0.4c0.2-0.2,0.4-0.6,0.4-1s-0.2-0.7-0.4-1
			c-0.2-0.2-0.6-0.4-1-0.4h-2.5v2.7L210.8,31.9L210.8,31.9z M210.9,35.6c0.5,0,0.9-0.2,1.1-0.4c0.2-0.2,0.4-0.6,0.4-1
			c0-0.4-0.2-0.7-0.4-1c-0.2-0.2-0.6-0.4-1.1-0.4h-2.6v2.9L210.9,35.6L210.9,35.6z"/>
	</g>
	<g>
		<path class="st4" d="M142.9,36.7c-0.6,0-1-0.1-1.5-0.4c-0.4-0.2-0.7-0.6-1-1c-0.2-0.5-0.5-0.9-0.6-1.4c-0.1-0.5-0.2-1-0.2-1.5
			c0-0.5,0.1-1,0.2-1.5c0.1-0.5,0.2-1,0.6-1.4c0.2-0.4,0.6-0.7,1-1c0.4-0.2,0.9-0.4,1.5-0.4s1,0.1,1.5,0.4c0.4,0.2,0.7,0.6,1,1
			c0.2,0.5,0.5,0.8,0.6,1.4c0.1,0.5,0.2,1,0.2,1.5c0,0.5-0.1,1-0.2,1.5c-0.1,0.5-0.2,1-0.6,1.4c-0.2,0.4-0.6,0.7-1,1
			S143.5,36.7,142.9,36.7z M141.7,35.2c0.3,0.3,0.7,0.5,1.2,0.5c0.5,0,0.9-0.2,1.2-0.5s0.6-0.7,0.6-1.2s0.2-1,0.2-1.6
			c0-0.6-0.1-1.1-0.2-1.6c-0.1-0.5-0.3-0.9-0.6-1.2c-0.3-0.3-0.7-0.5-1.2-0.5c-0.5,0-0.9,0.2-1.2,0.5c-0.3,0.3-0.6,0.7-0.6,1.2
			c-0.1,0.5-0.2,1-0.2,1.6c0,0.6,0.1,1.1,0.2,1.6C141.2,34.5,141.4,34.9,141.7,35.2z"/>
		<path class="st4" d="M150,36.7c-1,0-1.7-0.3-2.3-1l0.5-0.8c0.5,0.6,1,0.8,1.7,0.8c0.5,0,1-0.2,1.4-0.5c0.3-0.3,0.6-0.7,0.8-1.1
			c0.2-0.5,0.2-1,0.2-1.5c0-0.1,0-0.2,0-0.3c-0.2,0.3-0.5,0.6-1,0.9c-0.5,0.2-0.9,0.4-1.4,0.4c-0.8,0-1.4-0.2-1.9-0.6
			c-0.5-0.5-0.8-1.1-0.8-1.9c0-0.7,0.2-1.4,0.8-1.9c0.5-0.5,1.2-0.8,2.1-0.8c0.6,0,1,0.1,1.5,0.3c0.5,0.2,0.7,0.6,1,1
			c0.2,0.4,0.5,0.8,0.6,1.4c0.1,0.5,0.2,1,0.2,1.6c0,0.8-0.1,1.5-0.3,2.1c-0.2,0.6-0.6,1.1-1.1,1.5C151.3,36.5,150.8,36.7,150,36.7z
			 M150.2,32.6c0.4,0,0.8-0.1,1.1-0.3c0.4-0.2,0.6-0.5,0.9-0.9c0-0.2-0.1-0.6-0.2-0.8s-0.2-0.5-0.3-0.7s-0.4-0.4-0.6-0.6
			c-0.2-0.1-0.6-0.2-0.9-0.2c-0.6,0-1,0.2-1.4,0.6c-0.3,0.4-0.5,0.8-0.5,1.1c0,0.6,0.2,1,0.5,1.4C149.2,32.4,149.6,32.6,150.2,32.6z
			"/>
	</g>
	<g>
		<path class="st3" d="M174.5,59.9h-1v-8.3h5.5v0.9h-4.4v2.7h4.4V56h-4.4L174.5,59.9L174.5,59.9z"/>
		<path class="st3" d="M181.3,59.9h-1v-8.3h3.4c0.8,0,1.5,0.2,1.9,0.7c0.5,0.5,0.7,1,0.7,1.8c0,0.7-0.2,1.3-0.7,1.8
			c-0.5,0.5-1.1,0.7-1.9,0.7h-2.3L181.3,59.9L181.3,59.9z M183.5,55.7c0.5,0,0.9-0.2,1.2-0.5s0.5-0.6,0.5-1.1s-0.2-0.9-0.5-1.1
			c-0.3-0.3-0.7-0.4-1.2-0.4h-2.2v3.1H183.5z"/>
		<path class="st3" d="M192.4,59.9h-4.9v-8.3h1V59h3.9V59.9z"/>
		<path class="st3" d="M201.9,59.9h-1v-7l-2.8,7h-0.4l-2.8-7v7h-1v-8.3h1.5L198,58l2.6-6.4h1.5L201.9,59.9L201.9,59.9z"/>
		<path class="st3" d="M214.3,59.9h-1.2l-0.7-1.9h-4.1l-0.7,1.9h-1.2l3.4-8.3h1.3L214.3,59.9z M212,57.2l-1.8-4.5l-1.8,4.5H212z"/>
	</g>
	<g>
		<path class="st4" d="M143.1,59.9c-0.5,0-0.9-0.1-1.4-0.4c-0.4-0.2-0.7-0.5-0.9-0.9c-0.2-0.5-0.5-0.9-0.5-1.3
			c-0.1-0.5-0.2-0.9-0.2-1.5s0.1-0.9,0.2-1.5c0.1-0.5,0.2-0.9,0.5-1.3c0.2-0.4,0.5-0.7,0.9-0.9c0.4-0.2,0.9-0.4,1.4-0.4
			c0.5,0,0.9,0.1,1.4,0.4c0.5,0.2,0.7,0.5,0.9,0.9c0.2,0.4,0.5,0.8,0.5,1.3c0.1,0.5,0.2,0.9,0.2,1.5s-0.1,0.9-0.2,1.5
			c-0.1,0.5-0.2,0.9-0.5,1.3c-0.2,0.4-0.5,0.7-0.9,0.9C144.1,59.8,143.7,59.9,143.1,59.9z M142,58.5c0.3,0.3,0.7,0.5,1.2,0.5
			s0.9-0.2,1.2-0.5c0.3-0.3,0.5-0.7,0.6-1.2c0.1-0.5,0.2-0.9,0.2-1.6c0-0.6-0.1-1.1-0.2-1.6c-0.1-0.5-0.3-0.9-0.6-1.2
			c-0.3-0.3-0.7-0.5-1.2-0.5s-0.9,0.2-1.2,0.5c-0.3,0.3-0.5,0.7-0.6,1.2c-0.1,0.5-0.2,0.9-0.2,1.6c0,0.6,0.1,1.1,0.2,1.6
			C141.4,57.8,141.6,58.2,142,58.5z"/>
		<path class="st4" d="M152.2,59.3c-0.5,0.4-1.3,0.6-2,0.6s-1.5-0.2-2-0.6c-0.5-0.4-0.8-0.9-0.8-1.6c0-0.5,0.2-0.9,0.5-1.3
			c0.4-0.4,0.8-0.6,1.3-0.8c-0.5-0.2-0.9-0.4-1.3-0.7c-0.3-0.3-0.5-0.7-0.5-1.2c0-0.6,0.2-1.2,0.8-1.5c0.5-0.4,1.2-0.5,1.9-0.5
			c0.7,0,1.3,0.2,1.9,0.5s0.8,0.9,0.8,1.5c0,0.5-0.2,0.9-0.5,1.2c-0.3,0.3-0.8,0.5-1.3,0.7c0.5,0.2,0.9,0.5,1.3,0.8
			c0.4,0.4,0.5,0.8,0.5,1.3C153.1,58.4,152.8,58.9,152.2,59.3z M150.2,59c0.5,0,0.9-0.1,1.3-0.4c0.4-0.2,0.5-0.6,0.5-0.9
			c0-0.3-0.1-0.6-0.4-0.9c-0.2-0.2-0.5-0.5-0.8-0.5c-0.2-0.1-0.5-0.2-0.7-0.2c-0.2,0-0.5,0.1-0.7,0.2c-0.2,0.1-0.5,0.2-0.8,0.5
			c-0.2,0.2-0.4,0.5-0.4,0.9c0,0.5,0.2,0.8,0.5,0.9C149.2,58.9,149.7,59,150.2,59z M150.2,55.3c0.2,0,0.3-0.1,0.5-0.1
			c0.2-0.1,0.3-0.1,0.5-0.2c0.2-0.2,0.4-0.2,0.5-0.5c0.1-0.2,0.2-0.4,0.2-0.6c0-0.4-0.2-0.7-0.5-0.9c-0.3-0.2-0.8-0.4-1.3-0.4
			s-0.9,0.1-1.3,0.3s-0.5,0.5-0.5,0.9c0,0.2,0.1,0.5,0.2,0.6s0.2,0.3,0.5,0.5c0.2,0.1,0.4,0.2,0.5,0.2
			C149.9,55.2,150.1,55.2,150.2,55.3z"/>
	</g>
	<g>
		<path class="st5" d="M197.2,18h-1v-2.1h-3.9V15l3.5-5.3h1.5V15h1.2v0.9h-1.2L197.2,18L197.2,18z M196.1,14.9v-4.4l-2.9,4.4H196.1z
			"/>
		<path class="st5" d="M206.8,18h-1.3l-2.7-3.5l-2.7,3.5h-1.3l3.2-4.3l-3.1-4h1.3l2.5,3.3l2.5-3.3h1.3l-3.1,4L206.8,18z"/>
		<path class="st5" d="M210.7,18.2c-0.6,0-1-0.1-1.5-0.3c-0.5-0.2-0.7-0.6-1-1c-0.2-0.4-0.4-0.9-0.6-1.4c-0.2-0.5-0.2-1-0.2-1.6
			c0-1.2,0.3-2.3,0.9-3.1c0.6-0.8,1.5-1.2,2.5-1.2c1,0,1.7,0.3,2.3,1l-0.6,0.8c-0.5-0.6-1-0.9-1.8-0.9c-0.8,0-1.4,0.3-1.8,1
			c-0.4,0.7-0.6,1.5-0.6,2.3V14c0.2-0.3,0.6-0.6,1-0.9c0.4-0.2,0.9-0.4,1.4-0.4c0.8,0,1.5,0.2,1.9,0.7c0.5,0.5,0.8,1.1,0.8,1.9
			c0,0.7-0.2,1.4-0.8,1.9C212.3,17.9,211.6,18.2,210.7,18.2z M210.7,17.2c0.6,0,1-0.2,1.4-0.6c0.3-0.4,0.5-0.8,0.5-1.2
			c0-0.6-0.2-1-0.6-1.4c-0.3-0.3-0.8-0.5-1.4-0.5c-0.4,0-0.8,0.1-1.2,0.3s-0.6,0.6-0.9,0.9c0.1,0.6,0.2,1.1,0.6,1.6
			C209.5,17,210.1,17.2,210.7,17.2z"/>
	</g>
</g>
<g id="_24_julho_novo" transform="translate(200.275 451.873)">
	<path id="Path_11" class="st6" d="M-66.1-365.5c-0.1,1.9-1.7,3.3-3.6,3.2c-1.9-0.1-3.3-1.7-3.2-3.6c0.1-1.8,1.6-3.2,3.4-3.2
		C-67.5-369-66-367.4-66.1-365.5z"/>
</g>
<g id="fplm_novo" transform="translate(-946 -246.114)">
	<g id="Group_66" transform="translate(29.369)">
		<rect id="Rectangle_41" x="916.6" y="263" class="st7" width="106" height="56"/>
	</g>
</g>
<polygon class="st0" points="131.5,66.8 131.5,76.9 138,64.7 "/>
</svg>
