<?xml version="1.0" encoding="utf-8"?>
<!-- Generator: Adobe Illustrator 25.2.3, SVG Export Plug-In . SVG Version: 6.00 Build 0)  -->
<svg version="1.1" id="Layer_1" xmlns="http://www.w3.org/2000/svg" width="234.552" height="89.546" xmlns:xlink="http://www.w3.org/1999/xlink" x="0px" y="0px"
	 viewBox="0 0 234.6 89.5" style="enable-background:new 0 0 234.6 89.5;" xml:space="preserve">
<style type="text/css">
	.st0{opacity:0.92;fill:#2D314E;enable-background:new    ;}
	.st1{fill:none;}
	.st2{fill:#681758;}
	.st3{fill:#292333;}
	.st4{fill:#FFFFFF;}
	.st5{fill:#676D81;}
</style>
<g id="_24_julho_novo" transform="translate(200.275 451.873)">
	<path id="Path_11" class="st0" d="M-66.1-365.5c-0.1,1.9-1.7,3.3-3.6,3.2c-1.9-0.1-3.3-1.7-3.2-3.6c0.1-1.8,1.6-3.2,3.4-3.2
		C-67.5-369-66-367.4-66.1-365.5z"/>
</g>
<g id="fplm_novo" transform="translate(-946 -246.114)">
	<g id="Group_66" transform="translate(29.369)">
		<rect id="Rectangle_41" x="916.6" y="263" class="st1" width="106" height="56"/>
	</g>
</g>
<rect x="118.3" y="19" class="st2" width="37.5" height="27.5"/>
<g>
	<rect x="179.7" y="0.4" class="st2" width="54.8" height="18.6"/>
</g>
<rect x="155.8" y="19" class="st3" width="78.8" height="27.5"/>
<g>
	<path class="st4" d="M170.8,37.8V27.7h7.2v1.9h-5v2.1h4.9v1.9H173v4.2C173,37.8,170.8,37.8,170.8,37.8z"/>
	<path class="st4" d="M179.5,37.8V27.7h4.8c2.2,0,3.4,1.5,3.4,3.3c0,1.8-1.2,3.3-3.4,3.3h-2.6v3.6L179.5,37.8L179.5,37.8z M185.4,31
		c0-0.9-0.7-1.4-1.5-1.4h-2.3v2.7h2.3C184.8,32.3,185.4,31.8,185.4,31z"/>
	<path class="st4" d="M188.9,37.8V27.7h2.2V36h4.3v1.9L188.9,37.8L188.9,37.8z"/>
	<path class="st4" d="M205.7,37.8v-7.3l-2.9,7.3h-0.9l-2.9-7.3v7.3h-2.2V27.7h3l2.5,6.4l2.5-6.4h3v10.2L205.7,37.8L205.7,37.8z"/>
	<path class="st4" d="M213.8,37.8V27.7h5.3c1.9,0,2.9,1.2,2.9,2.6c0,1.3-0.8,2.1-1.8,2.3c1.1,0.2,2,1.2,2,2.5c0,1.5-1,2.8-3,2.8
		L213.8,37.8L213.8,37.8z M219.8,30.7c0-0.6-0.5-1.1-1.2-1.1h-2.7v2.1h2.7C219.4,31.7,219.8,31.3,219.8,30.7z M220,34.8
		c0-0.6-0.5-1.2-1.3-1.2h-2.8v2.3h2.8C219.5,35.9,220,35.5,220,34.8z"/>
</g>
<g>
	<path class="st4" d="M124.3,32.8c0-3.8,1.9-7.6,6.1-7.6c4.2,0,6.1,3.8,6.1,7.6c0,3.8-1.9,7.6-6.1,7.6
		C126.2,40.4,124.3,36.6,124.3,32.8z M133.2,32.8c0-2.7-0.8-4.8-2.9-4.8c-2.1,0-2.9,2.1-2.9,4.8s0.8,4.8,2.9,4.8
		C132.4,37.6,133.2,35.5,133.2,32.8z"/>
	<path class="st4" d="M138.6,38.8l1.4-2.4c0.8,0.7,1.6,1.1,2.9,1.1c2.4,0,3.7-2,3.7-4.1c0-0.1,0-0.2,0-0.3c-0.7,1-2.2,1.9-3.8,1.9
		c-2.6,0-5-1.7-5-4.8c0-2.9,2.3-5,5.6-5c4.5,0,6.3,3.4,6.3,7.6c0,4.4-2.5,7.6-6.8,7.6C141.2,40.3,139.7,39.7,138.6,38.8z
		 M146.6,30.9c-0.1-1.4-0.9-3-3-3c-1.7,0-2.6,1.1-2.6,2.2c0,1.5,1.3,2.2,2.7,2.2C144.8,32.3,145.9,31.8,146.6,30.9z"/>
</g>
<g>
	<path class="st4" d="M197.6,15v-2.2h-5.1V11l4.2-6.7h3.1v6.5h1.4v2h-1.4V15H197.6z M197.6,6.4l-2.9,4.4h2.9V6.4z"/>
	<path class="st4" d="M209.7,15l-2.7-3.9l-2.7,3.9h-2.7l3.9-5.5l-3.6-5.2h2.7L207,8l2.4-3.6h2.7l-3.6,5.2l3.9,5.5L209.7,15L209.7,15
		z"/>
	<path class="st4" d="M212.9,9.7c0-3.2,1.8-5.5,5-5.5c1.3,0,2.4,0.4,3.2,1.1l-1,1.7c-0.6-0.5-1.2-0.8-2.1-0.8c-1.6,0-2.7,1.3-2.7,3
		c0,0.1,0,0.1,0,0.2c0.5-0.7,1.6-1.4,2.7-1.4c1.9,0,3.6,1.2,3.6,3.5c0,2.1-1.7,3.7-4.1,3.7C214.3,15.2,212.9,12.7,212.9,9.7z
		 M219.3,11.6c0-1.1-1-1.6-2-1.6c-0.8,0-1.6,0.4-2.1,1c0.1,1,0.7,2.2,2.2,2.2C218.6,13.2,219.3,12.4,219.3,11.6z"/>
</g>
<g>
	<rect x="155.8" y="48" class="st5" width="78.7" height="27.5"/>
</g>
<g>
	<path class="st4" d="M170.3,66.8V56.7h7.2v1.9h-5v2.1h4.9v1.9h-4.9v4.2H170.3z"/>
	<path class="st4" d="M179,66.8V56.7h4.8c2.2,0,3.4,1.5,3.4,3.3c0,1.8-1.2,3.3-3.4,3.3h-2.6v3.6L179,66.8L179,66.8z M185,59.9
		c0-0.9-0.7-1.4-1.5-1.4h-2.3v2.7h2.3C184.3,61.3,185,60.8,185,59.9z"/>
	<path class="st4" d="M188.4,66.8V56.7h2.2V65h4.3v1.9L188.4,66.8L188.4,66.8z"/>
	<path class="st4" d="M205.2,66.8v-7.3l-2.9,7.3h-0.9l-2.9-7.3v7.3h-2.2V56.7h3l2.5,6.4l2.5-6.4h3v10.2L205.2,66.8L205.2,66.8z"/>
	<path class="st4" d="M220.3,66.8l-0.6-1.7h-4.4l-0.6,1.7h-2.5l3.9-10.2h2.7l3.9,10.2H220.3z M217.5,58.8l-1.6,4.4h3.2L217.5,58.8z"
		/>
</g>
<g>
	<rect x="118.3" y="48" class="st2" width="37.5" height="27.5"/>
	<g>
		<path class="st4" d="M124.3,61.8c0-3.8,1.9-7.6,6.1-7.6c4.2,0,6.1,3.8,6.1,7.6s-1.9,7.6-6.1,7.6S124.3,65.5,124.3,61.8z
			 M133.3,61.8c0-2.7-0.8-4.8-2.9-4.8c-2.1,0-2.9,2.1-2.9,4.8c0,2.7,0.8,4.8,2.9,4.8C132.5,66.6,133.3,64.5,133.3,61.8z"/>
		<path class="st4" d="M138,65.3c0-1.8,1.4-3.1,3.1-3.8c-1.6-0.6-2.9-1.6-2.9-3.5c0-2.8,2.9-3.9,5.7-3.9c2.7,0,5.7,1.1,5.7,3.9
			c0,1.8-1.3,2.9-2.9,3.5c1.7,0.6,3.1,2,3.1,3.8c0,2.7-2.8,4.1-5.9,4.1S138,68,138,65.3z M146.6,64.8c0-1.2-1.8-1.8-2.7-1.9
			c-0.9,0.1-2.7,0.7-2.7,1.9c0,1.1,1.2,1.7,2.7,1.7C145.4,66.6,146.6,65.9,146.6,64.8z M146.3,58.6c0-1-1-1.6-2.5-1.6
			s-2.5,0.6-2.5,1.6c0,1.1,1.6,1.5,2.5,1.7C144.8,60.1,146.3,59.7,146.3,58.6z"/>
	</g>
</g>
<polygon class="st2" points="118.3,75.5 127.4,81.1 126.3,72.9 "/>
</svg>
