<?xml version="1.0" encoding="utf-8"?>
<!-- Generator: Adobe Illustrator 25.2.3, SVG Export Plug-In . SVG Version: 6.00 Build 0)  -->
<svg version="1.1" id="Layer_1" xmlns="http://www.w3.org/2000/svg" width="213.457" height="97.451" xmlns:xlink="http://www.w3.org/1999/xlink" x="0px" y="0px"
	 viewBox="0 0 213.5 97.5" style="enable-background:new 0 0 213.5 97.5;" xml:space="preserve">
<style type="text/css">
	.st0{opacity:0.92;fill:#2D314E;enable-background:new    ;}
	.st1{fill:none;}
	.st2{fill:#E84D46;}
	.st3{fill:#676D81;}
	.st4{fill:#FFFFFF;}
</style>
<g id="_24_julho_novo" transform="translate(200.275 451.873)">
	<path id="Path_11" class="st0" d="M-91-357.7c-0.1,1.9-1.7,3.3-3.6,3.2c-1.9-0.1-3.3-1.7-3.2-3.6c0.1-1.8,1.6-3.2,3.4-3.2
		C-92.4-361.2-90.9-359.6-91-357.7z"/>
</g>
<g id="Group_68" transform="translate(-119 -582.025)">
	<rect id="Rectangle_44" x="119" y="623" class="st1" width="81" height="15"/>
</g>
<rect x="86" y="19.9" class="st2" width="37.5" height="27.5"/>
<g>
	<rect x="158" y="1.3" class="st2" width="54.8" height="18.6"/>
</g>
<rect x="123.5" y="19.9" class="st3" width="89.3" height="27.5"/>
<g>
	<rect x="123.5" y="48.9" class="st3" width="89.3" height="27.5"/>
</g>
<rect x="86" y="48.9" class="st2" width="37.5" height="27.5"/>
<polyline class="st2" points="86,76.4 101.4,87.4 96.8,73.1 86.7,76.4 "/>
<g>
	<path class="st4" d="M100.3,40.9h-1.8V28.7l-2.4,2.5L95,30.1l3.7-3.8h1.6V40.9z"/>
	<path class="st4" d="M113.3,40.9h-10.1v-1.5c3-2.3,5.1-4.2,6.3-5.4c1.2-1.3,1.8-2.5,1.8-3.7c0-0.9-0.3-1.5-0.9-2
		c-0.6-0.5-1.3-0.7-2.2-0.7c-1.7,0-3,0.6-4,1.8l-1.1-1.2c0.6-0.7,1.3-1.3,2.2-1.7c0.9-0.4,1.9-0.6,2.9-0.6c1.3,0,2.5,0.4,3.5,1.1
		c1,0.7,1.5,1.8,1.5,3.2c0,1.4-0.6,2.7-1.8,4.1c-1.2,1.4-3,3-5.4,4.9h7.2V40.9z"/>
</g>
<g>
	<path class="st4" d="M176.2,15.9c-0.7,0-1.3-0.1-1.8-0.4c-0.5-0.3-0.9-0.7-1.2-1.2s-0.5-1.1-0.7-1.7c-0.2-0.6-0.2-1.3-0.2-2
		c0-1.5,0.4-2.8,1.1-3.8c0.7-1,1.8-1.5,3.1-1.5c1.2,0,2.1,0.4,2.9,1.2l-0.7,1c-0.6-0.7-1.3-1.1-2.2-1.1c-0.9,0-1.7,0.4-2.2,1.2
		c-0.5,0.8-0.8,1.8-0.8,2.9v0.4c0.3-0.4,0.7-0.8,1.2-1.1c0.5-0.3,1.1-0.5,1.7-0.5c1,0,1.8,0.3,2.4,0.9c0.6,0.6,1,1.4,1,2.4
		c0,0.9-0.3,1.7-1,2.4S177.3,15.9,176.2,15.9z M176.1,14.8c0.7,0,1.3-0.2,1.7-0.7c0.4-0.5,0.6-1,0.6-1.5c0-0.7-0.2-1.3-0.7-1.7
		c-0.4-0.4-1-0.6-1.7-0.6c-0.5,0-1,0.1-1.5,0.4s-0.8,0.7-1.1,1.1c0.1,0.8,0.3,1.4,0.7,2C174.7,14.5,175.3,14.8,176.1,14.8z"/>
	<path class="st4" d="M190.5,15.7h-1.6l-3.3-4.4l-3.3,4.4h-1.6l4-5.3l-3.8-5h1.6l3.1,4.1l3.1-4.1h1.6l-3.8,5L190.5,15.7z"/>
	<path class="st4" d="M194.8,15.9c-0.8,0-1.6-0.2-2.2-0.5c-0.6-0.3-1.1-0.7-1.5-1.2l0.8-0.8c0.3,0.4,0.7,0.7,1.2,1
		c0.5,0.2,1.1,0.4,1.7,0.4c0.7,0,1.3-0.2,1.8-0.5c0.4-0.4,0.7-0.8,0.7-1.4c0-0.6-0.2-1.1-0.7-1.4c-0.5-0.3-1.1-0.4-1.9-0.4
		c-0.6,0-1,0-1.1,0V9.8c0.1,0,0.5,0,1.1,0c0.7,0,1.3-0.1,1.7-0.4c0.5-0.3,0.7-0.7,0.7-1.3c0-0.5-0.2-1-0.7-1.3
		c-0.4-0.3-1-0.5-1.7-0.5c-1,0-2,0.4-2.7,1.3l-0.7-0.8c0.9-1.1,2.1-1.6,3.5-1.6c1,0,1.9,0.2,2.5,0.7c0.7,0.5,1,1.2,1,2
		c0,0.7-0.2,1.2-0.7,1.6c-0.5,0.4-1,0.7-1.5,0.8c0.6,0.1,1.1,0.3,1.6,0.8s0.8,1,0.8,1.8c0,0.9-0.3,1.6-1,2.1
		C196.8,15.6,195.9,15.9,194.8,15.9z"/>
</g>
<g>
	<path class="st4" d="M139.3,39c-1.1,0-2-0.4-2.7-1.2l0.7-1c0.5,0.7,1.2,1,1.9,1c0.6,0,1.1-0.2,1.5-0.6s0.6-0.9,0.6-1.6v-7.2h1.3
		v7.2c0,1.1-0.3,1.9-0.9,2.5C141.1,38.7,140.3,39,139.3,39z"/>
	<path class="st4" d="M149.2,39c-1.4,0-2.4-0.4-3.1-1.1c-0.7-0.7-1.1-1.8-1.1-3.1v-6.3h1.3v6.3c0,1,0.2,1.7,0.8,2.3
		c0.5,0.5,1.2,0.8,2.2,0.8s1.7-0.3,2.2-0.8c0.5-0.5,0.8-1.3,0.8-2.3v-6.3h1.3v6.3c0,1.3-0.4,2.3-1.1,3.1
		C151.7,38.6,150.6,39,149.2,39z"/>
	<path class="st4" d="M161.8,38.8h-6.1V28.4h1.3v9.2h4.8V38.8z"/>
	<path class="st4" d="M164.8,38.8h-1.3V28.4h1.3V38.8z"/>
	<path class="st4" d="M171.5,39c-1.4,0-2.4-0.4-3.1-1.1s-1.1-1.8-1.1-3.1v-6.3h1.3v6.3c0,1,0.3,1.7,0.8,2.3s1.2,0.8,2.2,0.8
		s1.7-0.3,2.2-0.8c0.5-0.5,0.8-1.3,0.8-2.3v-6.3h1.3v6.3c0,1.3-0.4,2.3-1.1,3.1S172.8,39,171.5,39z"/>
	<path class="st4" d="M181.5,39c-1.7,0-3-0.5-4-1.6l0.8-1c0.9,1,1.9,1.5,3.2,1.5c0.8,0,1.5-0.2,1.8-0.5c0.4-0.4,0.6-0.8,0.6-1.3
		c0-0.4-0.2-0.8-0.5-1c-0.3-0.3-0.7-0.5-1.1-0.6s-0.9-0.3-1.5-0.4c-0.5-0.2-1-0.3-1.5-0.5c-0.4-0.2-0.8-0.5-1.1-0.9
		c-0.3-0.4-0.5-0.9-0.5-1.5c0-0.8,0.3-1.5,1-2.1c0.7-0.5,1.5-0.8,2.6-0.8c1.5,0,2.7,0.5,3.7,1.5l-0.8,0.9c-0.7-0.8-1.7-1.2-3-1.2
		c-0.6,0-1.1,0.2-1.5,0.5c-0.4,0.3-0.6,0.7-0.6,1.2c0,0.4,0.2,0.7,0.5,0.9c0.3,0.2,0.7,0.4,1.1,0.5c0.5,0.1,0.9,0.3,1.5,0.4
		c0.5,0.2,1,0.4,1.5,0.5s0.8,0.5,1.1,0.9c0.3,0.4,0.5,0.9,0.5,1.5c0,0.8-0.3,1.6-0.9,2.1C183.7,38.7,182.7,39,181.5,39z"/>
	<path class="st4" d="M195.9,38.8h-4.7V28.4h4.6c0.9,0,1.6,0.2,2.1,0.7c0.5,0.5,0.8,1.1,0.8,1.9c0,0.6-0.2,1.1-0.5,1.6
		c-0.4,0.4-0.8,0.7-1.3,0.8c0.5,0.1,1,0.4,1.4,0.9c0.4,0.5,0.6,1.1,0.6,1.7c0,0.8-0.3,1.5-0.8,2C197.6,38.5,196.8,38.8,195.9,38.8z
		 M195.6,32.9c0.6,0,1-0.2,1.3-0.5c0.3-0.3,0.5-0.7,0.5-1.2c0-0.5-0.2-0.9-0.5-1.2c-0.3-0.3-0.8-0.5-1.3-0.5h-3.1v3.3H195.6z
		 M195.7,37.6c0.6,0,1.1-0.2,1.4-0.5c0.3-0.3,0.5-0.8,0.5-1.3c0-0.5-0.2-0.9-0.5-1.3c-0.3-0.3-0.8-0.5-1.4-0.5h-3.2v3.6H195.7z"/>
</g>
<g>
	<path class="st4" d="M100.6,69.9h-1.8V57.7l-2.4,2.5l-1.1-1.1l3.7-3.8h1.6V69.9z"/>
	<path class="st4" d="M108.2,70.2c-1.2,0-2.2-0.2-3.1-0.7c-0.9-0.5-1.6-1-2.1-1.7l1.1-1.1c0.4,0.6,1,1.1,1.7,1.4
		c0.7,0.4,1.5,0.5,2.4,0.5c1.1,0,1.9-0.2,2.5-0.7c0.6-0.5,0.9-1.2,0.9-2c0-0.9-0.3-1.5-1-2c-0.7-0.4-1.5-0.6-2.7-0.6
		c-0.9,0-1.4,0-1.5,0v-1.7c0.2,0,0.7,0,1.5,0c1,0,1.8-0.2,2.5-0.6s1-1,1-1.8c0-0.8-0.3-1.4-0.9-1.8c-0.6-0.4-1.4-0.7-2.3-0.7
		c-1.5,0-2.8,0.6-3.9,1.8l-1-1.1c1.2-1.5,2.9-2.3,5-2.3c1.5,0,2.6,0.3,3.6,1c0.9,0.7,1.4,1.6,1.4,2.8c0,1-0.3,1.7-1,2.3
		c-0.6,0.6-1.4,0.9-2.2,1.1c0.8,0.1,1.6,0.4,2.3,1.1c0.7,0.6,1.1,1.5,1.1,2.6c0,1.2-0.5,2.3-1.4,3C111,69.8,109.8,70.2,108.2,70.2z"
		/>
</g>
<g>
	<path class="st4" d="M139.1,68c-1.1,0-2-0.4-2.7-1.2l0.7-1c0.5,0.7,1.2,1,1.9,1c0.6,0,1.1-0.2,1.5-0.6s0.6-0.9,0.6-1.6v-7.2h1.3
		v7.2c0,1.1-0.3,1.9-0.9,2.5C140.9,67.7,140.1,68,139.1,68z"/>
	<path class="st4" d="M149,68c-1.4,0-2.4-0.4-3.1-1.1c-0.7-0.7-1.1-1.8-1.1-3.1v-6.3h1.3v6.3c0,1,0.2,1.7,0.8,2.3
		c0.5,0.5,1.2,0.8,2.2,0.8s1.7-0.3,2.2-0.8c0.5-0.5,0.8-1.3,0.8-2.3v-6.3h1.3v6.3c0,1.3-0.4,2.3-1.1,3.1S150.4,68,149,68z"/>
	<path class="st4" d="M161.6,67.8h-6.1V57.4h1.3v9.2h4.8V67.8z"/>
	<path class="st4" d="M164.6,67.8h-1.3V57.4h1.3V67.8z"/>
	<path class="st4" d="M171.2,68c-1.4,0-2.4-0.4-3.1-1.1s-1.1-1.8-1.1-3.1v-6.3h1.3v6.3c0,1,0.3,1.7,0.8,2.3s1.2,0.8,2.2,0.8
		s1.7-0.3,2.2-0.8c0.5-0.5,0.8-1.3,0.8-2.3v-6.3h1.3v6.3c0,1.3-0.4,2.3-1.1,3.1S172.6,68,171.2,68z"/>
	<path class="st4" d="M181.2,68c-1.7,0-3-0.5-4-1.6l0.8-1c0.9,1,1.9,1.5,3.2,1.5c0.8,0,1.5-0.2,1.8-0.5c0.4-0.4,0.6-0.8,0.6-1.3
		c0-0.4-0.2-0.8-0.5-1c-0.3-0.3-0.7-0.5-1.1-0.6s-0.9-0.3-1.5-0.4s-1-0.3-1.5-0.5c-0.4-0.2-0.8-0.5-1.1-0.9
		c-0.3-0.4-0.5-0.9-0.5-1.5c0-0.8,0.3-1.5,1-2.1c0.7-0.5,1.5-0.8,2.6-0.8c1.5,0,2.7,0.5,3.7,1.5l-0.8,0.9c-0.7-0.8-1.7-1.2-3-1.2
		c-0.6,0-1.1,0.2-1.5,0.5c-0.4,0.3-0.6,0.7-0.6,1.2c0,0.4,0.2,0.7,0.5,0.9c0.3,0.2,0.7,0.4,1.1,0.5c0.5,0.1,0.9,0.3,1.5,0.4
		c0.5,0.2,1,0.4,1.5,0.5s0.8,0.5,1.1,0.9c0.3,0.4,0.5,0.9,0.5,1.5c0,0.8-0.3,1.6-0.9,2.1C183.5,67.7,182.5,68,181.2,68z"/>
	<path class="st4" d="M199.8,67.8h-1.5l-0.9-2.3h-5.1l-0.9,2.3h-1.5l4.2-10.3h1.6L199.8,67.8z M197.1,64.3l-2.2-5.6l-2.2,5.6H197.1z
		"/>
</g>
</svg>
