<?xml version="1.0" encoding="utf-8"?>
<!-- Generator: Adobe Illustrator 25.2.3, SVG Export Plug-In . SVG Version: 6.00 Build 0)  -->
<svg version="1.1" id="Layer_1" xmlns="http://www.w3.org/2000/svg" width="213.457" height="97.451" xmlns:xlink="http://www.w3.org/1999/xlink" x="0px" y="0px"
	 viewBox="0 0 213.5 97.5" style="enable-background:new 0 0 213.5 97.5;" xml:space="preserve">
<style type="text/css">
	.st0{opacity:0.92;fill:#2D314E;enable-background:new    ;}
	.st1{fill:none;}
	.st2{fill:#E84D46;}
	.st3{fill:#676D81;}
	.st4{fill:#FFFFFF;}
</style>
<g id="_24_julho_novo" transform="translate(200.275 451.873)">
	<path id="Path_11" class="st0" d="M-91-357.7c-0.1,1.9-1.7,3.3-3.6,3.2s-3.3-1.7-3.2-3.6c0.1-1.8,1.6-3.2,3.4-3.2
		C-92.4-361.2-90.9-359.6-91-357.7z"/>
</g>
<g id="Group_68" transform="translate(-119 -582.025)">
	<rect id="Rectangle_44" x="119" y="623" class="st1" width="81" height="15"/>
</g>
<rect x="86" y="19.9" class="st2" width="37.5" height="27.5"/>
<g>
	<rect x="158" y="1.3" class="st2" width="54.8" height="18.6"/>
</g>
<rect x="123.5" y="19.9" class="st3" width="89.3" height="27.5"/>
<g>
	<path class="st4" d="M134.7,37.9l0.9-1.6c0.4,0.4,0.9,0.7,1.6,0.7c1,0,1.6-0.7,1.6-1.6v-6.8h2.2v6.8c0,2.4-1.5,3.5-3.6,3.5
		C136.4,38.9,135.4,38.7,134.7,37.9z"/>
	<path class="st4" d="M143,34.7v-6.1h2.2v6c0,1.4,0.8,2.4,2.4,2.4c1.6,0,2.4-1,2.4-2.4v-6h2.2v6.1c0,2.5-1.5,4.3-4.6,4.3
		C144.5,38.9,143,37.2,143,34.7z"/>
	<path class="st4" d="M154.1,38.8V28.6h2.2v8.3h4.3v1.9C160.6,38.8,154.1,38.8,154.1,38.8z"/>
	<path class="st4" d="M162.1,38.8V28.6h2.2v10.2H162.1z"/>
	<path class="st4" d="M166.1,34.7v-6.1h2.2v6c0,1.4,0.8,2.4,2.4,2.4c1.6,0,2.4-1,2.4-2.4v-6h2.2v6.1c0,2.5-1.5,4.3-4.6,4.3
		C167.6,38.9,166.1,37.2,166.1,34.7z"/>
	<path class="st4" d="M176.6,37.3l1.2-1.7c0.7,0.7,1.8,1.4,3.2,1.4c1.2,0,1.8-0.5,1.8-1.1c0-1.8-5.9-0.5-5.9-4.4
		c0-1.7,1.5-3.1,3.9-3.1c1.6,0,3,0.5,4,1.4l-1.2,1.6c-0.8-0.8-1.9-1.1-3-1.1c-0.9,0-1.4,0.4-1.4,1c0,1.6,5.8,0.5,5.8,4.3
		c0,1.9-1.3,3.3-4.1,3.3C179,38.9,177.6,38.3,176.6,37.3z"/>
	<path class="st4" d="M190.4,38.8V28.6h5.4c1.9,0,2.9,1.2,2.9,2.6c0,1.3-0.8,2.1-1.8,2.3c1.1,0.2,2,1.2,2,2.5c0,1.5-1,2.8-3,2.8
		H190.4z M196.5,31.6c0-0.6-0.5-1.1-1.2-1.1h-2.7v2.1h2.7C196,32.6,196.5,32.2,196.5,31.6z M196.7,35.7c0-0.6-0.5-1.2-1.3-1.2h-2.8
		v2.3h2.8C196.2,36.9,196.7,36.4,196.7,35.7z"/>
</g>
<g>
	<path class="st4" d="M92.1,33.7c0-3.8,1.9-7.6,6.1-7.6c4.2,0,6.1,3.8,6.1,7.6c0,3.8-1.9,7.6-6.1,7.6C94,41.3,92.1,37.5,92.1,33.7z
		 M101,33.7c0-2.7-0.8-4.8-2.9-4.8s-2.9,2.1-2.9,4.8s0.8,4.8,2.9,4.8C100.2,38.5,101,36.4,101,33.7z"/>
	<path class="st4" d="M112.5,41v-3h-7v-2.5l5.8-9.2h4.3v8.9h1.9V38h-1.9v3H112.5z M112.5,29.1l-4,6.1h4V29.1z"/>
</g>
<g>
	<path class="st4" d="M171,10.6c0-3.2,1.8-5.5,5-5.5c1.3,0,2.4,0.4,3.2,1.1l-1,1.7c-0.6-0.5-1.2-0.8-2.1-0.8c-1.6,0-2.7,1.3-2.7,3
		c0,0.1,0,0.1,0,0.2c0.5-0.7,1.6-1.4,2.7-1.4c1.9,0,3.6,1.2,3.6,3.5c0,2.1-1.7,3.7-4.1,3.7C172.3,16.1,171,13.6,171,10.6z
		 M177.3,12.6c0-1.1-1-1.6-2-1.6c-0.8,0-1.6,0.4-2.1,1c0.1,1,0.7,2.2,2.2,2.2C176.7,14.1,177.3,13.3,177.3,12.6z"/>
	<path class="st4" d="M188.2,16l-2.7-3.9l-2.7,3.9h-2.7l3.9-5.5l-3.6-5.2h2.7l2.4,3.7l2.4-3.7h2.7l-3.6,5.2l3.9,5.5H188.2z"/>
	<path class="st4" d="M191.2,14.4l1.2-1.5c0.7,0.8,1.9,1.2,2.9,1.2c1.3,0,2-0.6,2-1.4s-0.7-1.2-2.1-1.2c-0.4,0-1.2,0-1.3,0v-2
		c0.2,0,0.9,0,1.3,0c1.2,0,2-0.4,2-1.1c0-0.8-0.9-1.3-2-1.3c-1,0-2,0.4-2.7,1.1l-1.1-1.4c0.9-1,2.2-1.7,4.1-1.7c2.5,0,4,1.1,4,2.9
		c0,1.3-1.2,2.2-2.3,2.4c1.1,0.1,2.5,1,2.5,2.6c0,1.8-1.6,3.1-4.2,3.1C193.4,16.1,191.9,15.4,191.2,14.4z"/>
</g>
<g>
	<rect x="123.5" y="48.9" class="st3" width="89.3" height="27.5"/>
</g>
<rect x="86" y="48.9" class="st2" width="37.5" height="27.5"/>
<g>
	<path class="st4" d="M134.5,66.9l0.9-1.6c0.4,0.4,0.9,0.7,1.6,0.7c1,0,1.6-0.7,1.6-1.6v-6.8h2.2v6.8c0,2.4-1.5,3.5-3.6,3.5
		C136.3,67.9,135.3,67.6,134.5,66.9z"/>
	<path class="st4" d="M142.9,63.7v-6.1h2.2v6c0,1.4,0.8,2.4,2.4,2.4s2.4-1,2.4-2.4v-6h2.2v6.1c0,2.5-1.5,4.3-4.6,4.3
		C144.4,67.9,142.9,66.2,142.9,63.7z"/>
	<path class="st4" d="M154,67.8V57.6h2.2v8.3h4.3v1.9H154z"/>
	<path class="st4" d="M161.9,67.8V57.6h2.2v10.2C164,67.8,161.9,67.8,161.9,67.8z"/>
	<path class="st4" d="M166,63.7v-6.1h2.2v6c0,1.4,0.8,2.4,2.4,2.4s2.4-1,2.4-2.4v-6h2.2v6.1c0,2.5-1.5,4.3-4.6,4.3
		C167.5,67.9,166,66.2,166,63.7z"/>
	<path class="st4" d="M176.5,66.3l1.2-1.7c0.7,0.7,1.8,1.4,3.2,1.4c1.2,0,1.8-0.5,1.8-1.1c0-1.8-5.9-0.5-5.9-4.4
		c0-1.7,1.5-3.1,3.9-3.1c1.6,0,3,0.5,4,1.4l-1.2,1.6c-0.8-0.8-1.9-1.1-3-1.1c-0.9,0-1.4,0.4-1.4,1c0,1.6,5.8,0.5,5.8,4.3
		c0,1.9-1.3,3.3-4.1,3.3C178.8,67.9,177.4,67.3,176.5,66.3z"/>
	<path class="st4" d="M197.3,67.8l-0.6-1.7h-4.4l-0.6,1.7h-2.5l3.9-10.2h2.7l3.9,10.2H197.3z M194.4,59.7l-1.6,4.4h3.2L194.4,59.7z"
		/>
</g>
<g>
	<path class="st4" d="M92,62.7c0-3.8,1.9-7.6,6.1-7.6s6.1,3.8,6.1,7.6s-1.9,7.6-6.1,7.6C93.8,70.3,92,66.5,92,62.7z M100.9,62.7
		c0-2.7-0.8-4.8-2.9-4.8c-2.1,0-2.9,2.1-2.9,4.8c0,2.7,0.8,4.8,2.9,4.8C100.1,67.5,100.9,65.4,100.9,62.7z"/>
	<path class="st4" d="M105.9,68.1l1.7-2.2c1,1,2.4,1.6,3.9,1.6c1.7,0,2.7-1,2.7-2.2c0-1.3-1-2.2-2.6-2.2c-1.2,0-2.2,0.4-3.1,1.2
		l-2.2-0.6v-8.4h10.1v2.8h-7v3.6c0.7-0.7,1.9-1.2,3.2-1.2c2.5,0,4.7,1.8,4.7,4.8c0,3.1-2.3,5.1-5.9,5.1
		C109,70.3,107.2,69.4,105.9,68.1z"/>
</g>
<polyline class="st2" points="86,76.4 101.4,87.4 96.8,73.1 86.7,76.4 "/>
</svg>
