<?xml version="1.0" encoding="utf-8"?>
<!-- Generator: Adobe Illustrator 25.2.3, SVG Export Plug-In . SVG Version: 6.00 Build 0)  -->
<svg version="1.1" id="Layer_1" xmlns="http://www.w3.org/2000/svg" width="213.457" height="97.451" xmlns:xlink="http://www.w3.org/1999/xlink" x="0px" y="0px"
	 viewBox="0 0 213.5 97.5" style="enable-background:new 0 0 213.5 97.5;" xml:space="preserve">
<style type="text/css">
	.st0{opacity:0.92;fill:#2D314E;enable-background:new    ;}
	.st1{fill:none;}
	.st2{fill:#E84D46;}
	.st3{fill:#676D81;}
	.st4{fill:#FFFFFF;stroke:#FFFFFF;stroke-width:0.7;stroke-miterlimit:10;}
	.st5{fill:#FFFFFF;}
	.st6{fill:#FFFFFF;stroke:#FFFFFF;stroke-width:0.5;stroke-miterlimit:10;}
</style>
<g id="_24_julho_novo" transform="translate(200.275 451.873)">
	<path id="Path_11" class="st0" d="M-91-357.7c-0.1,1.9-1.7,3.3-3.6,3.2c-1.9-0.1-3.3-1.7-3.2-3.6c0.1-1.8,1.6-3.2,3.4-3.2
		C-92.4-361.2-90.9-359.6-91-357.7z"/>
</g>
<g id="Group_68" transform="translate(-119 -582.025)">
	<rect id="Rectangle_44" x="119" y="623" class="st1" width="81" height="15"/>
</g>
<rect x="105.9" y="31.1" class="st2" width="30.2" height="22.2"/>
<g>
	<rect x="164" y="16.1" class="st2" width="44.2" height="15"/>
</g>
<rect x="136.1" y="31.1" class="st3" width="72" height="22.2"/>
<g>
	<rect x="136.1" y="54.5" class="st3" width="72" height="22.2"/>
</g>
<rect x="105.9" y="54.5" class="st2" width="30.2" height="22.2"/>
<polyline class="st2" points="105.9,76.7 105.9,85.6 111.1,74 106.4,76.7 "/>
<g>
	<path class="st4" d="M118.1,46.7H117v-7.6l-1.5,1.6l-0.7-0.7l2.3-2.4h1C118.1,37.6,118.1,46.7,118.1,46.7z"/>
	<path class="st4" d="M126.2,46.7h-6.3v-0.9c1.9-1.4,3.2-2.6,3.9-3.4c0.7-0.8,1.1-1.6,1.1-2.3c0-0.6-0.2-0.9-0.6-1.2
		c-0.4-0.3-0.8-0.4-1.4-0.4c-1.1,0-1.9,0.4-2.5,1.1l-0.7-0.7c0.4-0.4,0.8-0.8,1.4-1.1c0.6-0.2,1.2-0.4,1.8-0.4
		c0.8,0,1.6,0.2,2.2,0.7s0.9,1.1,0.9,2s-0.4,1.7-1.1,2.6s-1.9,1.9-3.4,3.1h4.5L126.2,46.7L126.2,46.7z"/>
</g>
<g>
	<path class="st5" d="M178.6,27.9c-0.6,0-1-0.1-1.5-0.3c-0.4-0.2-0.7-0.6-1-1s-0.4-0.9-0.6-1.4c-0.2-0.5-0.2-1-0.2-1.6
		c0-1.2,0.3-2.3,0.9-3.1c0.6-0.8,1.5-1.2,2.5-1.2c1,0,1.7,0.3,2.3,1l-0.6,0.8c-0.5-0.6-1-0.9-1.8-0.9c-0.7,0-1.4,0.3-1.8,1
		c-0.4,0.6-0.6,1.5-0.6,2.3v0.3c0.2-0.3,0.6-0.6,1-0.9c0.4-0.2,0.9-0.4,1.4-0.4c0.8,0,1.5,0.2,1.9,0.7c0.5,0.5,0.8,1.1,0.8,1.9
		c0,0.7-0.2,1.4-0.8,1.9S179.5,27.9,178.6,27.9z M178.5,27c0.6,0,1-0.2,1.4-0.6s0.5-0.8,0.5-1.2c0-0.6-0.2-1-0.6-1.4
		c-0.3-0.3-0.8-0.5-1.4-0.5c-0.4,0-0.8,0.1-1.2,0.3s-0.6,0.6-0.9,0.9c0.1,0.6,0.2,1.1,0.6,1.6C177.4,26.8,177.9,27,178.5,27z"/>
	<path class="st5" d="M190.2,27.7h-1.3l-2.7-3.5l-2.7,3.5h-1.3l3.2-4.3l-3.1-4h1.3l2.5,3.3l2.5-3.3h1.3l-3.1,4L190.2,27.7z"/>
	<path class="st5" d="M193.6,27.9c-0.6,0-1.3-0.2-1.8-0.4c-0.5-0.2-0.9-0.6-1.2-1l0.6-0.6c0.2,0.3,0.6,0.6,1,0.8
		c0.4,0.2,0.9,0.3,1.4,0.3c0.6,0,1-0.2,1.5-0.4c0.3-0.3,0.6-0.6,0.6-1.1c0-0.5-0.2-0.9-0.6-1.1c-0.4-0.2-0.9-0.3-1.5-0.3
		c-0.5,0-0.8,0-0.9,0v-1c0.1,0,0.4,0,0.9,0c0.6,0,1-0.1,1.4-0.3c0.4-0.2,0.6-0.6,0.6-1c0-0.4-0.2-0.8-0.6-1
		c-0.3-0.2-0.8-0.4-1.4-0.4c-0.8,0-1.6,0.3-2.2,1l-0.6-0.6c0.7-0.9,1.7-1.3,2.8-1.3c0.8,0,1.5,0.2,2,0.6c0.6,0.4,0.8,1,0.8,1.6
		c0,0.6-0.2,1-0.6,1.3c-0.4,0.3-0.8,0.6-1.2,0.6c0.5,0.1,0.9,0.2,1.3,0.6s0.6,0.8,0.6,1.5c0,0.7-0.2,1.3-0.8,1.7
		C195.2,27.7,194.5,27.9,193.6,27.9z"/>
</g>
<g>
	<path class="st6" d="M148.9,46.5c-0.9,0-1.6-0.3-2.2-1l0.6-0.8c0.4,0.6,1,0.8,1.5,0.8c0.5,0,0.9-0.2,1.2-0.5
		c0.3-0.3,0.5-0.7,0.5-1.3V38h1v5.8c0,0.9-0.2,1.5-0.7,2S149.7,46.5,148.9,46.5z"/>
	<path class="st6" d="M156.9,46.5c-1.1,0-1.9-0.3-2.5-0.9c-0.6-0.6-0.9-1.5-0.9-2.5v-5.1h1v5.1c0,0.8,0.2,1.4,0.6,1.9
		c0.4,0.4,1,0.6,1.8,0.6s1.4-0.2,1.8-0.6c0.4-0.4,0.6-1,0.6-1.9v-5.1h1v5.1c0,1-0.3,1.9-0.9,2.5C158.9,46.2,158,46.5,156.9,46.5z"/>
	<path class="st6" d="M167,46.4h-4.9V38h1v7.4h3.9V46.4z"/>
	<path class="st6" d="M169.4,46.4h-1V38h1V46.4z"/>
	<path class="st6" d="M174.8,46.5c-1.1,0-1.9-0.3-2.5-0.9c-0.6-0.6-0.9-1.5-0.9-2.5v-5.1h1v5.1c0,0.8,0.2,1.4,0.6,1.9s1,0.6,1.8,0.6
		s1.4-0.2,1.8-0.6c0.4-0.4,0.6-1,0.6-1.9v-5.1h1v5.1c0,1-0.3,1.9-0.9,2.5C176.9,46.3,175.9,46.5,174.8,46.5z"/>
	<path class="st6" d="M182.9,46.5c-1.4,0-2.4-0.4-3.2-1.3l0.6-0.8c0.7,0.8,1.5,1.2,2.6,1.2c0.6,0,1.2-0.2,1.5-0.4
		c0.3-0.3,0.5-0.6,0.5-1c0-0.3-0.2-0.6-0.4-0.8c-0.2-0.2-0.6-0.4-0.9-0.5c-0.3-0.1-0.7-0.2-1.2-0.3c-0.4-0.2-0.8-0.2-1.2-0.4
		c-0.3-0.2-0.6-0.4-0.9-0.7c-0.2-0.3-0.4-0.7-0.4-1.2c0-0.6,0.2-1.2,0.8-1.7c0.6-0.4,1.2-0.6,2.1-0.6c1.2,0,2.2,0.4,3,1.2l-0.6,0.7
		c-0.6-0.6-1.4-1-2.4-1c-0.5,0-0.9,0.2-1.2,0.4c-0.3,0.2-0.5,0.6-0.5,1c0,0.3,0.2,0.6,0.4,0.7c0.2,0.2,0.6,0.3,0.9,0.4
		c0.4,0.1,0.7,0.2,1.2,0.3c0.4,0.2,0.8,0.3,1.2,0.4s0.6,0.4,0.9,0.7s0.4,0.7,0.4,1.2c0,0.6-0.2,1.3-0.7,1.7
		C184.7,46.3,183.9,46.5,182.9,46.5z"/>
	<path class="st6" d="M194.5,46.4h-3.8V38h3.7c0.7,0,1.3,0.2,1.7,0.6c0.4,0.4,0.6,0.9,0.6,1.5c0,0.5-0.2,0.9-0.4,1.3
		c-0.3,0.3-0.6,0.6-1,0.6c0.4,0.1,0.8,0.3,1.1,0.7c0.3,0.4,0.5,0.9,0.5,1.4c0,0.6-0.2,1.2-0.6,1.6C195.9,46.1,195.2,46.4,194.5,46.4
		z M194.3,41.6c0.5,0,0.8-0.2,1-0.4s0.4-0.6,0.4-1c0-0.4-0.2-0.7-0.4-1s-0.6-0.4-1-0.4h-2.5v2.7L194.3,41.6L194.3,41.6z M194.4,45.4
		c0.5,0,0.9-0.2,1.1-0.4c0.2-0.2,0.4-0.6,0.4-1s-0.2-0.7-0.4-1c-0.2-0.2-0.6-0.4-1.1-0.4h-2.6v2.9H194.4z"/>
</g>
<g>
	<path class="st4" d="M118.6,69.6h-1v-6.7l-1.3,1.4l-0.6-0.6l2-2.1h0.9C118.6,61.6,118.6,69.6,118.6,69.6z"/>
	<path class="st4" d="M122.8,69.8c-0.7,0-1.2-0.1-1.7-0.4c-0.5-0.3-0.9-0.6-1.2-0.9l0.6-0.6c0.2,0.3,0.6,0.6,0.9,0.8
		c0.4,0.2,0.8,0.3,1.3,0.3c0.6,0,1-0.1,1.4-0.4s0.5-0.7,0.5-1.1c0-0.5-0.2-0.8-0.6-1.1c-0.4-0.2-0.8-0.3-1.5-0.3c-0.5,0-0.8,0-0.8,0
		V65c0.1,0,0.4,0,0.8,0c0.6,0,1-0.1,1.4-0.3c0.4-0.2,0.6-0.6,0.6-1c0-0.4-0.2-0.8-0.5-1c-0.3-0.2-0.8-0.4-1.3-0.4
		c-0.8,0-1.5,0.3-2.1,1l-0.6-0.6c0.7-0.8,1.6-1.3,2.8-1.3c0.8,0,1.4,0.2,2,0.6c0.5,0.4,0.8,0.9,0.8,1.5c0,0.6-0.2,0.9-0.6,1.3
		c-0.3,0.3-0.8,0.5-1.2,0.6c0.4,0.1,0.9,0.2,1.3,0.6c0.4,0.3,0.6,0.8,0.6,1.4c0,0.7-0.3,1.3-0.8,1.7
		C124.3,69.5,123.7,69.8,122.8,69.8z"/>
</g>
<g>
	<path class="st6" d="M148.7,69.9c-0.9,0-1.6-0.3-2.2-1l0.6-0.8c0.4,0.6,1,0.8,1.5,0.8c0.5,0,0.9-0.2,1.2-0.5
		c0.3-0.3,0.5-0.7,0.5-1.3v-5.8h1v5.8c0,0.9-0.2,1.5-0.7,2C150.2,69.7,149.5,69.9,148.7,69.9z"/>
	<path class="st6" d="M156.7,69.9c-1.1,0-1.9-0.3-2.5-0.9c-0.6-0.6-0.9-1.5-0.9-2.5v-5.1h1v5.1c0,0.8,0.2,1.4,0.6,1.9
		c0.4,0.4,1,0.6,1.8,0.6s1.4-0.2,1.8-0.6c0.4-0.4,0.6-1,0.6-1.9v-5.1h1v5.1c0,1-0.3,1.9-0.9,2.5C158.8,69.7,157.8,69.9,156.7,69.9z"
		/>
	<path class="st6" d="M166.9,69.8h-4.9v-8.4h1v7.4h3.9V69.8z"/>
	<path class="st6" d="M169.3,69.8h-1v-8.4h1V69.8z"/>
	<path class="st6" d="M174.6,69.9c-1.1,0-1.9-0.3-2.5-0.9s-0.9-1.5-0.9-2.5v-5.1h1v5.1c0,0.8,0.2,1.4,0.6,1.9c0.4,0.5,1,0.6,1.8,0.6
		s1.4-0.2,1.8-0.6c0.4-0.4,0.6-1,0.6-1.9v-5.1h1v5.1c0,1-0.3,1.9-0.9,2.5C176.7,69.7,175.7,69.9,174.6,69.9z"/>
	<path class="st6" d="M182.7,69.9c-1.4,0-2.4-0.4-3.2-1.3l0.6-0.8c0.7,0.8,1.5,1.2,2.6,1.2c0.6,0,1.2-0.2,1.5-0.4
		c0.3-0.3,0.5-0.6,0.5-1c0-0.3-0.2-0.6-0.4-0.8c-0.2-0.2-0.6-0.4-0.9-0.5c-0.3-0.1-0.7-0.2-1.2-0.3c-0.5-0.1-0.8-0.2-1.2-0.4
		c-0.3-0.2-0.6-0.4-0.9-0.7c-0.2-0.3-0.4-0.7-0.4-1.2c0-0.6,0.2-1.2,0.8-1.7c0.6-0.4,1.2-0.6,2.1-0.6c1.2,0,2.2,0.4,3,1.2l-0.6,0.7
		c-0.6-0.6-1.4-1-2.4-1c-0.5,0-0.9,0.2-1.2,0.4s-0.5,0.6-0.5,1c0,0.3,0.2,0.6,0.4,0.7c0.2,0.2,0.6,0.3,0.9,0.4
		c0.4,0.1,0.7,0.2,1.2,0.3c0.4,0.2,0.8,0.3,1.2,0.4s0.6,0.4,0.9,0.7c0.2,0.3,0.4,0.7,0.4,1.2c0,0.6-0.2,1.3-0.7,1.7
		C184.5,69.7,183.7,69.9,182.7,69.9z"/>
	<path class="st6" d="M197.7,69.8h-1.2l-0.7-1.9h-4.1l-0.7,1.9h-1.2l3.4-8.3h1.3L197.7,69.8z M195.5,66.9l-1.8-4.5l-1.8,4.5H195.5z"
		/>
</g>
</svg>
