<?xml version="1.0" encoding="utf-8"?>
<!-- Generator: Adobe Illustrator 25.2.3, SVG Export Plug-In . SVG Version: 6.00 Build 0)  -->
<svg version="1.1" id="Layer_1" xmlns="http://www.w3.org/2000/svg" width="213.457" height="97.451" xmlns:xlink="http://www.w3.org/1999/xlink" x="0px" y="0px"
	 viewBox="0 0 213.5 97.5" style="enable-background:new 0 0 213.5 97.5;" xml:space="preserve">
<style type="text/css">
	.st0{opacity:0.92;fill:#2D314E;enable-background:new    ;}
	.st1{fill:none;}
	.st2{fill:#E84D46;}
	.st3{fill:#676D81;}
	.st4{fill:#FFFFFF;}
</style>
<g id="_24_julho_novo" transform="translate(200.275 451.873)">
	<path id="Path_11" class="st0" d="M-91-357.7c-0.1,1.9-1.7,3.3-3.6,3.2c-1.9-0.1-3.3-1.7-3.2-3.6c0.1-1.8,1.6-3.2,3.4-3.2
		C-92.4-361.2-90.9-359.6-91-357.7z"/>
</g>
<g id="Group_68" transform="translate(-119 -582.025)">
	<rect id="Rectangle_44" x="119" y="623" class="st1" width="81" height="15"/>
</g>
<rect x="86" y="19.9" class="st2" width="37.5" height="27.5"/>
<g>
	<rect x="158" y="1.3" class="st2" width="54.8" height="18.6"/>
</g>
<rect x="123.5" y="19.9" class="st3" width="89.3" height="27.5"/>
<g>
	<path class="st4" d="M134.7,37.9l0.9-1.6c0.4,0.4,0.9,0.7,1.6,0.7c1,0,1.6-0.7,1.6-1.6v-6.8h2.2v6.8c0,2.4-1.5,3.5-3.6,3.5
		C136.4,38.9,135.4,38.7,134.7,37.9z"/>
	<path class="st4" d="M143,34.7v-6.1h2.2v6c0,1.4,0.8,2.4,2.4,2.4c1.6,0,2.4-1,2.4-2.4v-6h2.2v6.1c0,2.5-1.5,4.3-4.6,4.3
		C144.5,38.9,143,37.2,143,34.7z"/>
	<path class="st4" d="M154.1,38.8V28.6h2.2v8.3h4.3v1.9C160.6,38.8,154.1,38.8,154.1,38.8z"/>
	<path class="st4" d="M162.1,38.8V28.6h2.2v10.2H162.1z"/>
	<path class="st4" d="M166,34.7v-6.1h2.2v6c0,1.4,0.8,2.4,2.4,2.4s2.4-1,2.4-2.4v-6h2.2v6.1c0,2.5-1.5,4.3-4.6,4.3
		C167.5,38.9,166,37.2,166,34.7z"/>
	<path class="st4" d="M176.5,37.3l1.2-1.7c0.7,0.7,1.8,1.4,3.2,1.4c1.2,0,1.8-0.5,1.8-1.1c0-1.8-5.9-0.5-5.9-4.4
		c0-1.7,1.5-3.1,3.9-3.1c1.6,0,3,0.5,4,1.4l-1.2,1.6c-0.8-0.8-1.9-1.1-3-1.1c-0.9,0-1.4,0.4-1.4,1c0,1.6,5.8,0.5,5.8,4.3
		c0,1.9-1.3,3.3-4.1,3.3C178.9,38.9,177.5,38.3,176.5,37.3z"/>
	<path class="st4" d="M190.3,38.8V28.6h5.4c1.9,0,2.9,1.2,2.9,2.6c0,1.3-0.8,2.1-1.8,2.3c1.1,0.2,2,1.2,2,2.5c0,1.5-1,2.8-3,2.8
		H190.3z M196.4,31.6c0-0.6-0.5-1.1-1.2-1.1h-2.7v2.1h2.7C195.9,32.6,196.4,32.2,196.4,31.6z M196.6,35.7c0-0.6-0.5-1.2-1.3-1.2
		h-2.8v2.3h2.8C196.1,36.9,196.6,36.4,196.6,35.7z"/>
</g>
<g>
	<path class="st4" d="M170.9,10.6c0-3.2,1.8-5.5,5-5.5c1.3,0,2.4,0.4,3.2,1.1l-1,1.7c-0.6-0.5-1.2-0.8-2.1-0.8c-1.6,0-2.7,1.3-2.7,3
		c0,0.1,0,0.1,0,0.2c0.5-0.7,1.6-1.4,2.7-1.4c1.9,0,3.6,1.2,3.6,3.5c0,2.1-1.7,3.7-4.1,3.7C172.2,16.1,170.9,13.6,170.9,10.6z
		 M177.2,12.6c0-1.1-1-1.6-2-1.6c-0.8,0-1.6,0.4-2.1,1c0.1,1,0.7,2.2,2.2,2.2C176.6,14.1,177.2,13.3,177.2,12.6z"/>
	<path class="st4" d="M188.1,16l-2.7-3.9l-2.7,3.9H180l3.9-5.5l-3.6-5.2h2.7l2.4,3.7l2.4-3.7h2.7l-3.6,5.2l3.9,5.5H188.1z"/>
	<path class="st4" d="M191.1,14.4l1.2-1.5c0.7,0.8,1.9,1.2,2.9,1.2c1.3,0,2-0.6,2-1.4c0-0.8-0.7-1.2-2.1-1.2c-0.4,0-1.2,0-1.3,0v-2
		c0.2,0,0.9,0,1.3,0c1.2,0,2-0.4,2-1.1c0-0.8-0.9-1.3-2-1.3c-1,0-2,0.4-2.7,1.1l-1.1-1.4c0.9-1,2.2-1.7,4.1-1.7c2.5,0,4,1.1,4,2.9
		c0,1.3-1.2,2.2-2.3,2.4c1.1,0.1,2.5,1,2.5,2.6c0,1.8-1.6,3.1-4.2,3.1C193.3,16.1,191.8,15.4,191.1,14.4z"/>
</g>
<g>
	<rect x="123.5" y="48.9" class="st3" width="89.3" height="27.5"/>
</g>
<rect x="86" y="48.9" class="st2" width="37.5" height="27.5"/>
<g>
	<path class="st4" d="M134.5,66.9l0.9-1.6c0.4,0.4,0.9,0.7,1.6,0.7c1,0,1.6-0.7,1.6-1.6v-6.8h2.2v6.8c0,2.4-1.5,3.5-3.6,3.5
		C136.3,67.9,135.3,67.6,134.5,66.9z"/>
	<path class="st4" d="M142.9,63.7v-6.1h2.2v6c0,1.4,0.8,2.4,2.4,2.4c1.6,0,2.4-1,2.4-2.4v-6h2.2v6.1c0,2.5-1.5,4.3-4.6,4.3
		C144.4,67.9,142.9,66.2,142.9,63.7z"/>
	<path class="st4" d="M154,67.8V57.6h2.2v8.3h4.3v1.9H154z"/>
	<path class="st4" d="M161.9,67.8V57.6h2.2v10.2C163.9,67.8,161.9,67.8,161.9,67.8z"/>
	<path class="st4" d="M165.9,63.7v-6.1h2.2v6c0,1.4,0.8,2.4,2.4,2.4s2.4-1,2.4-2.4v-6h2.2v6.1c0,2.5-1.5,4.3-4.6,4.3
		C167.4,67.9,165.9,66.2,165.9,63.7z"/>
	<path class="st4" d="M176.4,66.3l1.2-1.7c0.7,0.7,1.8,1.4,3.2,1.4c1.2,0,1.8-0.5,1.8-1.1c0-1.8-5.9-0.5-5.9-4.4
		c0-1.7,1.5-3.1,3.9-3.1c1.6,0,3,0.5,4,1.4l-1.2,1.6c-0.8-0.8-1.9-1.1-3-1.1c-0.9,0-1.4,0.4-1.4,1c0,1.6,5.8,0.5,5.8,4.3
		c0,1.9-1.3,3.3-4.1,3.3C178.7,67.9,177.3,67.3,176.4,66.3z"/>
	<path class="st4" d="M197.2,67.8l-0.6-1.7h-4.4l-0.6,1.7h-2.5l3.9-10.2h2.7l3.9,10.2H197.2z M194.3,59.7l-1.6,4.4h3.2L194.3,59.7z"
		/>
</g>
<polyline class="st2" points="86,76.4 101.4,87.4 96.8,73.1 86.7,76.4 "/>
<g>
	<path class="st4" d="M98.6,41.1V30.4l-2.4,2.5L94.4,31l4.6-4.6h2.7v14.7H98.6z"/>
	<path class="st4" d="M104.3,41.1v-2.5c6-4.4,7.8-5.9,7.8-7.7c0-1.3-1.2-1.9-2.4-1.9c-1.7,0-2.9,0.7-3.9,1.7l-1.8-2.1
		c1.4-1.7,3.6-2.4,5.7-2.4c3.1,0,5.6,1.8,5.6,4.7c0,2.5-2.1,4.7-5.9,7.5h6v2.8H104.3z"/>
</g>
<g>
	<path class="st4" d="M98.7,69.4V58.7l-2.4,2.5l-1.8-1.9l4.6-4.6h2.7v14.7H98.7z"/>
	<path class="st4" d="M103.7,67.3l1.6-2.1c1,1.1,2.6,1.7,4,1.7c1.8,0,2.8-0.8,2.8-1.9c0-1.2-0.9-1.7-2.9-1.7c-0.6,0-1.6,0-1.8,0
		v-2.8c0.3,0,1.3,0,1.8,0c1.6,0,2.7-0.5,2.7-1.6c0-1.2-1.2-1.7-2.7-1.7c-1.4,0-2.7,0.5-3.7,1.5l-1.6-2c1.2-1.3,3-2.3,5.6-2.3
		c3.4,0,5.5,1.5,5.5,4c0,1.8-1.6,3.1-3.2,3.3c1.5,0.2,3.4,1.3,3.4,3.5c0,2.5-2.3,4.3-5.8,4.3C106.8,69.6,104.8,68.6,103.7,67.3z"/>
</g>
</svg>
