<svg xmlns="http://www.w3.org/2000/svg" width="120" height="95.826" viewBox="0 0 54.97 40.31"><defs><style>.cls-1{fill:#676d81;}.cls-2{fill:#fff;}.cls-3{fill:#e84d46;}.cls-4{fill:#2d314e;}</style></defs><g id="Layer_2" data-name="Layer 2"><g id="Layer_1-2" data-name="Layer 1"><rect class="cls-1" y="19.49" width="43" height="12.24" rx="2.41"/><path class="cls-2" d="M6,27.38l.35-.57a.9.9,0,0,0,.6.25.54.54,0,0,0,.58-.56V24.16h.8v2.35A1.16,1.16,0,0,1,7,27.72,1.49,1.49,0,0,1,6,27.38Z"/><path class="cls-2" d="M9.07,26.26v-2.1h.8v2.08a.79.79,0,0,0,.88.82.78.78,0,0,0,.88-.82V24.16h.81v2.1c0,.86-.54,1.46-1.69,1.46S9.07,27.12,9.07,26.26Z"/><path class="cls-2" d="M13.2,27.66v-3.5H14V27h1.58v.66Z"/><path class="cls-2" d="M16.17,27.66v-3.5H17v3.5Z"/><path class="cls-2" d="M17.75,26.26v-2.1h.81v2.08a.88.88,0,0,0,1.76,0V24.16h.81v2.1c0,.86-.55,1.46-1.69,1.46S17.75,27.12,17.75,26.26Z"/><path class="cls-2" d="M21.66,27.17l.44-.59a1.67,1.67,0,0,0,1.19.48c.44,0,.65-.18.65-.39,0-.61-2.15-.18-2.15-1.5,0-.58.53-1.06,1.42-1.06a2.18,2.18,0,0,1,1.46.48l-.45.56a1.67,1.67,0,0,0-1.09-.38c-.33,0-.52.13-.52.34,0,.55,2.15.18,2.15,1.49,0,.64-.5,1.12-1.5,1.12A2.26,2.26,0,0,1,21.66,27.17Z"/><path class="cls-2" d="M29.41,27.66l-.23-.59H27.57l-.24.59h-.9l1.44-3.5h1l1.45,3.5Zm-1-2.76-.58,1.51H29Z"/><rect class="cls-1" y="5.49" width="43" height="12.24" rx="2.41"/><path class="cls-2" d="M6.4,13.38l.34-.57a.9.9,0,0,0,.6.25.54.54,0,0,0,.58-.56V10.16h.81v2.35a1.17,1.17,0,0,1-1.32,1.21A1.49,1.49,0,0,1,6.4,13.38Z"/><path class="cls-2" d="M9.51,12.26v-2.1h.81v2.08a.78.78,0,0,0,.88.82.78.78,0,0,0,.87-.82V10.16h.82v2.1c0,.86-.55,1.46-1.69,1.46S9.51,13.12,9.51,12.26Z"/><path class="cls-2" d="M13.64,13.66v-3.5h.8V13H16v.66Z"/><path class="cls-2" d="M16.61,13.66v-3.5h.8v3.5Z"/><path class="cls-2" d="M18.2,12.26v-2.1H19v2.08a.78.78,0,0,0,.88.82.78.78,0,0,0,.87-.82V10.16h.82v2.1c0,.86-.55,1.46-1.69,1.46S18.2,13.12,18.2,12.26Z"/><path class="cls-2" d="M22.11,13.17l.43-.59a1.71,1.71,0,0,0,1.19.48c.45,0,.66-.18.66-.39,0-.61-2.16-.18-2.16-1.5,0-.58.54-1.06,1.42-1.06a2.16,2.16,0,0,1,1.46.48l-.44.56a1.7,1.7,0,0,0-1.09-.38c-.34,0-.53.13-.53.34,0,.55,2.15.18,2.15,1.49,0,.64-.49,1.12-1.5,1.12A2.24,2.24,0,0,1,22.11,13.17Z"/><path class="cls-2" d="M27.27,13.66v-3.5h2c.71,0,1.08.42,1.08.89a.79.79,0,0,1-.65.8.86.86,0,0,1,.72.86,1,1,0,0,1-1.09.95Zm2.23-2.48a.39.39,0,0,0-.44-.37h-1v.74h1C29.33,11.55,29.5,11.41,29.5,11.18Zm.07,1.42c0-.22-.16-.4-.47-.4h-1V13h1C29.4,13,29.57,12.86,29.57,12.6Z"/><rect class="cls-3" x="36.47" y="3.25" width="16.7" height="16.7" rx="4" transform="translate(4.92 35.09) rotate(-45)"/><path class="cls-2" d="M39.6,11.34c0-1.63.81-3.27,2.63-3.27s2.63,1.64,2.63,3.27-.81,3.29-2.63,3.29S39.6,13,39.6,11.34Zm3.88,0c0-1.17-.34-2.07-1.25-2.07S41,10.17,41,11.34s.34,2.09,1.25,2.09S43.48,12.52,43.48,11.34Z"/><path class="cls-2" d="M48.45,14.51V13.2h-3V12.13l2.52-4h1.87V12h.81V13.2h-.81v1.31Zm0-5.15L46.74,12h1.71Z"/><path class="cls-4" d="M43.28,38.9a1.74,1.74,0,0,1,1.35-2.15A1.92,1.92,0,0,1,46.9,38.1a1.75,1.75,0,0,1-1.35,2.16,1.93,1.93,0,0,1-2.27-1.36"/><rect class="cls-3" x="0.01" width="21" height="8.28" rx="0.9"/><path class="cls-2" d="M4.13,4.28A2.08,2.08,0,0,1,6.31,2a2.17,2.17,0,0,1,1.38.45l-.45.72a1.24,1.24,0,0,0-.93-.35A1.18,1.18,0,0,0,5.14,4.08a.34.34,0,0,0,0,.1,1.52,1.52,0,0,1,1.2-.57A1.45,1.45,0,0,1,8,5a1.61,1.61,0,0,1-1.8,1.5C4.73,6.54,4.13,5.51,4.13,4.28Zm2.8.79c0-.46-.42-.66-.86-.66a1.19,1.19,0,0,0-.92.42.9.9,0,0,0,.94.88C6.63,5.71,6.93,5.37,6.93,5.07Z"/><path class="cls-2" d="M11.73,6.46l-1.17-1.6L9.38,6.46H8.19l1.7-2.24L8.3,2.08H9.48l1.08,1.5,1.06-1.5h1.2L11.23,4.21l1.69,2.25Z"/><path class="cls-2" d="M13.1,5.84l.53-.63a1.87,1.87,0,0,0,1.28.5c.57,0,.89-.23.89-.56s-.29-.5-.94-.5h-.59V3.82h.59c.52,0,.87-.15.87-.47s-.39-.52-.87-.52a1.75,1.75,0,0,0-1.2.46l-.5-.59A2.38,2.38,0,0,1,15,2c1.1,0,1.77.46,1.77,1.19a1.09,1.09,0,0,1-1,1,1.14,1.14,0,0,1,1.09,1c0,.76-.72,1.29-1.84,1.29A2.44,2.44,0,0,1,13.1,5.84Z"/><rect class="cls-3" x="36.47" y="16.25" width="16.7" height="16.7" rx="4" transform="translate(-4.27 38.9) rotate(-45)"/><path class="cls-2" d="M39.31,24.34c0-1.63.81-3.27,2.63-3.27s2.63,1.64,2.63,3.27-.81,3.29-2.63,3.29S39.31,26,39.31,24.34Zm3.88,0c0-1.17-.34-2.07-1.25-2.07s-1.25.9-1.25,2.07.34,2.09,1.25,2.09S43.19,25.52,43.19,24.34Z"/><path class="cls-2" d="M45.35,26.68l.76-.95a2.27,2.27,0,0,0,1.68.7c.75,0,1.18-.43,1.18-.94s-.42-.95-1.14-.95a1.83,1.83,0,0,0-1.33.52l-1-.26V21.16h4.36v1.19h-3v1.56a2,2,0,0,1,3.43,1.52,2.24,2.24,0,0,1-2.54,2.2A3.19,3.19,0,0,1,45.35,26.68Z"/></g></g></svg>