<?xml version="1.0" encoding="utf-8"?>
<!-- Generator: Adobe Illustrator 25.2.3, SVG Export Plug-In . SVG Version: 6.00 Build 0)  -->
<svg version="1.1" id="Layer_1" xmlns="http://www.w3.org/2000/svg" width="220.109" height="82.554" xmlns:xlink="http://www.w3.org/1999/xlink" x="0px" y="0px"
	 viewBox="0 0 220.1 82.6" style="enable-background:new 0 0 220.1 82.6;" xml:space="preserve">
<style type="text/css">
	.st0{opacity:0.92;fill:#2D314E;enable-background:new    ;}
	.st1{fill:#55BCBD;}
	.st2{fill:#676D81;}
	.st3{fill:#002C46;stroke:#002C46;stroke-width:0.7;stroke-miterlimit:10;}
	.st4{fill:#002C46;}
	.st5{fill:#FFFFFF;stroke:#FFFFFF;stroke-width:0.5;stroke-miterlimit:10;}
</style>
<g id="_24_julho_novo" transform="translate(200.275 451.873)">
	<path id="Path_11" class="st0" d="M-92.8-373.1c-0.1,1.8-1.6,3.1-3.4,3c-1.8-0.1-3.1-1.6-3-3.4c0.1-1.7,1.5-3,3.2-3
		C-94.1-376.3-92.7-374.8-92.8-373.1z"/>
</g>
<g>
	<g id="Layer_2_1_">
		<g id="Layer_1-2">
			<g>
				<rect x="171.3" y="17.6" class="st1" width="38.1" height="15.1"/>
			</g>
			<g>
				<rect x="133.6" y="32.6" class="st2" width="75.8" height="22.1"/>
			</g>
			<rect x="104.3" y="32.6" class="st1" width="30.2" height="22.1"/>
		</g>
	</g>
</g>
<polygon class="st1" points="104.3,54.7 104.3,66.1 111.1,51.8 "/>
<g>
	<path class="st3" d="M116.3,47.9c-0.6,0-1-0.1-1.5-0.4c-0.4-0.2-0.7-0.6-1-1c-0.3-0.4-0.4-0.9-0.6-1.3c-0.1-0.5-0.2-1-0.2-1.5
		c0-0.5,0.1-1,0.2-1.5s0.3-1,0.6-1.3c0.3-0.4,0.6-0.7,1-1c0.4-0.2,0.9-0.4,1.5-0.4s1,0.1,1.5,0.4c0.4,0.2,0.7,0.6,1,1
		c0.3,0.4,0.4,0.8,0.6,1.3c0.1,0.5,0.2,1,0.2,1.5c0,0.5-0.1,1-0.2,1.5c-0.1,0.5-0.3,1-0.6,1.3c-0.3,0.4-0.6,0.7-1,1
		C117.3,47.8,116.8,47.9,116.3,47.9z M115.1,46.5c0.3,0.3,0.7,0.5,1.2,0.5c0.5,0,0.9-0.2,1.2-0.5c0.3-0.3,0.6-0.7,0.7-1.2
		c0.1-0.5,0.2-1,0.2-1.6s-0.1-1.1-0.2-1.6s-0.3-0.9-0.7-1.2c-0.3-0.3-0.7-0.5-1.2-0.5c-0.5,0-0.9,0.2-1.2,0.5
		c-0.3,0.3-0.6,0.7-0.7,1.2c-0.1,0.5-0.2,1-0.2,1.6s0.1,1.1,0.2,1.6C114.5,45.7,114.7,46.1,115.1,46.5z"/>
	<path class="st3" d="M122.7,47.8h-1.1l3.3-7.3h-4.4v-1h5.6v0.7L122.7,47.8z"/>
</g>
<g>
	<path class="st4" d="M182.9,29.3c-0.6,0-1-0.1-1.4-0.3c-0.4-0.2-0.7-0.6-1-1c-0.2-0.4-0.4-0.9-0.6-1.4c-0.2-0.5-0.2-1-0.2-1.6
		c0-1.2,0.3-2.3,0.9-3.1c0.6-0.8,1.4-1.2,2.5-1.2c1,0,1.7,0.3,2.3,1l-0.6,0.8c-0.5-0.6-1-0.9-1.8-0.9s-1.4,0.3-1.8,1
		c-0.4,0.6-0.6,1.4-0.6,2.3v0.3c0.2-0.3,0.6-0.6,1-0.9c0.4-0.2,0.9-0.4,1.4-0.4c0.8,0,1.4,0.2,1.9,0.7c0.5,0.5,0.8,1.1,0.8,1.9
		c0,0.7-0.2,1.4-0.8,1.9C184.5,29.2,183.8,29.3,182.9,29.3z M182.9,28.5c0.6,0,1-0.2,1.4-0.6c0.3-0.4,0.5-0.8,0.5-1.2
		c0-0.6-0.2-1-0.6-1.4c-0.3-0.3-0.8-0.5-1.4-0.5c-0.4,0-0.8,0.1-1.2,0.3c-0.4,0.2-0.6,0.6-0.9,0.9c0.1,0.6,0.2,1.1,0.6,1.6
		C181.7,28.2,182.3,28.5,182.9,28.5z"/>
	<path class="st4" d="M194.4,29.3h-1.3l-2.7-3.5l-2.7,3.5h-1.3l3.2-4.3l-3.1-4h1.3l2.5,3.3L193,21h1.3l-3.1,4L194.4,29.3z"/>
	<path class="st4" d="M197.9,29.3c-0.6,0-1.3-0.2-1.8-0.4c-0.5-0.2-0.9-0.6-1.2-1l0.6-0.6c0.2,0.3,0.6,0.6,1,0.8
		c0.4,0.2,0.9,0.3,1.4,0.3c0.6,0,1-0.2,1.4-0.4c0.3-0.3,0.6-0.6,0.6-1.1c0-0.5-0.2-0.9-0.6-1.1c-0.4-0.2-0.9-0.3-1.5-0.3
		c-0.5,0-0.8,0-0.9,0v-1c0.1,0,0.4,0,0.9,0c0.6,0,1-0.1,1.4-0.3c0.4-0.2,0.6-0.6,0.6-1c0-0.4-0.2-0.8-0.6-1
		c-0.3-0.2-0.8-0.4-1.4-0.4c-0.8,0-1.6,0.3-2.2,1l-0.6-0.6c0.7-0.9,1.7-1.3,2.8-1.3c0.8,0,1.5,0.2,2,0.6c0.6,0.4,0.8,1,0.8,1.6
		c0,0.6-0.2,1-0.6,1.3c-0.4,0.3-0.8,0.6-1.2,0.6c0.5,0.1,0.9,0.2,1.3,0.6c0.4,0.4,0.6,0.8,0.6,1.4c0,0.7-0.2,1.3-0.8,1.7
		C199.6,29.2,198.9,29.3,197.9,29.3z"/>
</g>
<g>
	<path class="st5" d="M144.3,47.8h-1v-8.4h1V47.8z"/>
	<path class="st5" d="M154.4,47.8h-1v-7l-2.8,7h-0.4l-2.8-7v7h-1v-8.4h1.4l2.6,6.4l2.6-6.4h1.4L154.4,47.8L154.4,47.8z"/>
	<path class="st5" d="M157.4,47.8h-1v-8.4h3.4c0.8,0,1.4,0.2,1.9,0.7c0.5,0.5,0.7,1,0.7,1.8s-0.2,1.3-0.7,1.8
		c-0.5,0.5-1.1,0.7-1.9,0.7h-2.3V47.8z M159.6,43.5c0.5,0,0.9-0.2,1.2-0.5c0.3-0.3,0.5-0.6,0.5-1.1s-0.2-0.9-0.5-1.1
		c-0.3-0.3-0.7-0.5-1.2-0.5h-2.2v3.1L159.6,43.5L159.6,43.5z"/>
	<path class="st5" d="M169.7,47.8h-1.2l-2.1-3.3h-1.7v3.3h-1v-8.4h3.4c0.8,0,1.4,0.2,1.9,0.7c0.5,0.5,0.7,1,0.7,1.9
		c0,0.7-0.2,1.3-0.6,1.7c-0.4,0.4-1,0.6-1.5,0.7L169.7,47.8z M166.9,43.5c0.5,0,0.9-0.2,1.2-0.5c0.3-0.3,0.5-0.6,0.5-1.1
		s-0.2-0.9-0.5-1.1c-0.3-0.3-0.7-0.4-1.2-0.4h-2.2v3.2L166.9,43.5L166.9,43.5z"/>
	<path class="st5" d="M176.7,47.8h-5.5v-8.4h5.5v0.9h-4.4V43h4.3v0.9h-4.3v2.9h4.4V47.8z"/>
	<path class="st5" d="M185.3,47.8h-1l-4.8-6.6v6.6h-1v-8.4h1l4.8,6.5v-6.5h1L185.3,47.8L185.3,47.8z"/>
	<path class="st5" d="M189.9,47.9c-1.4,0-2.4-0.4-3.2-1.3l0.6-0.8c0.7,0.8,1.5,1.2,2.6,1.2c0.6,0,1.2-0.2,1.4-0.4
		c0.3-0.3,0.5-0.6,0.5-1c0-0.3-0.2-0.6-0.4-0.8c-0.2-0.2-0.6-0.4-0.9-0.5c-0.3-0.1-0.7-0.2-1.2-0.3c-0.4-0.2-0.8-0.2-1.2-0.4
		c-0.3-0.2-0.6-0.4-0.9-0.7c-0.2-0.3-0.4-0.7-0.4-1.2c0-0.6,0.2-1.2,0.8-1.7c0.6-0.4,1.2-0.6,2.1-0.6c1.2,0,2.2,0.4,3,1.2l-0.6,0.7
		c-0.6-0.6-1.4-1-2.4-1c-0.5,0-0.9,0.2-1.2,0.4s-0.5,0.6-0.5,1c0,0.3,0.2,0.6,0.4,0.7c0.2,0.2,0.6,0.3,0.9,0.4
		c0.4,0.1,0.7,0.2,1.2,0.3c0.4,0.2,0.8,0.3,1.2,0.4c0.4,0.1,0.6,0.4,0.9,0.7s0.4,0.7,0.4,1.2c0,0.6-0.2,1.3-0.7,1.7
		C191.7,47.6,190.9,47.9,189.9,47.9z"/>
	<path class="st5" d="M201.5,47.8h-1.2l-0.7-1.9h-4.1l-0.7,1.9h-1.2l3.4-8.3h1.3L201.5,47.8z M199.3,45l-1.8-4.5l-1.8,4.5H199.3z"/>
</g>
</svg>
