<?xml version="1.0" encoding="utf-8"?>
<!-- Generator: Adobe Illustrator 25.2.3, SVG Export Plug-In . SVG Version: 6.00 Build 0)  -->
<svg version="1.1" id="Layer_1" xmlns="http://www.w3.org/2000/svg" width="220.109" height="82.554" xmlns:xlink="http://www.w3.org/1999/xlink" x="0px" y="0px"
	 viewBox="0 0 233.1 88.6" style="enable-background:new 0 0 233.1 88.6;" xml:space="preserve">
<style type="text/css">
	.st0{fill:none;}
	.st1{opacity:0.92;fill:#2D314E;enable-background:new    ;}
	.st2{fill:#676D81;}
	.st3{fill:#55BCBD;}
	.st4{fill:#FFFFFF;}
	.st5{fill:#002C46;}
</style>
<g>
	<g id="_24_julho_novo" transform="translate(200.275 451.873)">
		<path id="Path_11" class="st1" d="M-86.5-367.3c-0.1,1.9-1.7,3.3-3.6,3.2s-3.3-1.7-3.2-3.6c0.1-1.8,1.6-3.2,3.4-3.2
			C-87.9-370.8-86.4-369.2-86.5-367.3z"/>
	</g>
	<g>
		<g id="Layer_2_1_">
			<g id="Layer_1-2">
				<g>
					<rect x="132.6" y="21" class="st2" width="101.1" height="29.5"/>
				</g>
				<rect x="93.6" y="21" class="st3" width="40.2" height="29.5"/>
				<g>
					<rect x="183" y="1.1" class="st3" width="50.8" height="19.9"/>
				</g>
			</g>
		</g>
		<g>
			<g>
				<path class="st4" d="M144.1,41.2V30.3h2.3v10.9H144.1z"/>
				<path class="st4" d="M158,41.2v-7.8l-3.1,7.9h-1l-3.1-7.9v7.9h-2.3v-11h3.3l2.6,6.8l2.6-6.8h3.3v10.9
					C160.3,41.2,158,41.2,158,41.2z"/>
				<path class="st4" d="M162.5,41.2V30.3h5.1c2.4,0,3.7,1.6,3.7,3.5c0,1.9-1.3,3.5-3.7,3.5h-2.8v3.9
					C164.8,41.2,162.5,41.2,162.5,41.2z M168.9,33.8c0-0.9-0.7-1.5-1.6-1.5h-2.5v2.9h2.5C168.2,35.3,168.9,34.7,168.9,33.8z"/>
				<path class="st4" d="M178.9,41.2l-2.1-3.9h-1.7v3.9h-2.3V30.3h5.1c2.3,0,3.7,1.5,3.7,3.5c0,1.9-1.2,3-2.4,3.2l2.5,4.2
					C181.7,41.2,178.9,41.2,178.9,41.2z M179.1,33.8c0-0.9-0.7-1.5-1.6-1.5H175v2.9h2.5C178.4,35.3,179.1,34.8,179.1,33.8z"/>
				<path class="st4" d="M183.3,41.2V30.3h7.7v2h-5.4v2.3h5.3v2h-5.3v2.5h5.4v2L183.3,41.2L183.3,41.2z"/>
				<path class="st4" d="M200.3,41.2l-5.2-7.1v7.1h-2.3V30.3h2.4l5.1,6.9v-6.9h2.3v10.9H200.3z"/>
				<path class="st4" d="M204,39.7l1.3-1.8c0.8,0.8,2,1.5,3.5,1.5c1.3,0,1.9-0.6,1.9-1.2c0-1.9-6.3-0.6-6.3-4.7
					c0-1.8,1.6-3.3,4.1-3.3c1.7,0,3.2,0.5,4.3,1.5l-1.3,1.7c-0.9-0.8-2.1-1.2-3.2-1.2c-1,0-1.5,0.4-1.5,1.1c0,1.7,6.3,0.6,6.3,4.6
					c0,2-1.4,3.5-4.4,3.5C206.5,41.4,205,40.7,204,39.7z"/>
				<path class="st4" d="M221.9,41.2l-0.7-1.8h-4.7l-0.7,1.8h-2.6l4.2-10.9h2.9l4.2,10.9H221.9z M218.9,32.7l-1.7,4.7h3.4
					L218.9,32.7z"/>
			</g>
			<g>
				<path class="st5" d="M107.1,43.7V32.2l-2.6,2.7l-1.9-2l5-5h2.9v15.7L107.1,43.7L107.1,43.7z"/>
				<path class="st5" d="M114.9,43.7l5.6-12.8h-7.9V28h11.8v2.3l-5.9,13.4H114.9z"/>
			</g>
			<g>
				<path class="st5" d="M193,11.1c0-3.5,2-5.9,5.3-5.9c1.4,0,2.6,0.5,3.4,1.2l-1.1,1.9c-0.6-0.6-1.3-0.9-2.3-0.9
					c-1.7,0-2.9,1.4-2.9,3.2c0,0.1,0,0.2,0,0.2c0.5-0.8,1.7-1.5,2.9-1.5c2.1,0,3.9,1.3,3.9,3.7c0,2.2-1.8,3.9-4.4,3.9
					C194.4,17,193,14.3,193,11.1z M199.8,13.1c0-1.2-1-1.7-2.1-1.7c-0.9,0-1.7,0.4-2.2,1.1c0.1,1.1,0.7,2.3,2.3,2.3
					C199.1,14.8,199.8,13.9,199.8,13.1z"/>
				<path class="st5" d="M211.4,16.8l-2.9-4.2l-2.9,4.2h-2.9l4.2-5.9L203,5.3h2.9l2.6,3.9l2.6-3.9h2.9l-3.9,5.6l4.2,5.9H211.4z"/>
				<path class="st5" d="M214.6,15.1l1.3-1.6c0.8,0.8,2,1.3,3.1,1.3c1.4,0,2.2-0.6,2.2-1.5s-0.7-1.3-2.3-1.3c-0.5,0-1.3,0-1.4,0V9.8
					c0.2,0,1,0,1.4,0c1.3,0,2.1-0.4,2.1-1.2c0-0.9-0.9-1.4-2.1-1.4c-1.1,0-2.1,0.4-2.9,1.2l-1.2-1.5c0.9-1,2.4-1.8,4.4-1.8
					c2.7,0,4.3,1.2,4.3,3.1c0,1.4-1.2,2.4-2.5,2.6c1.2,0.1,2.7,1,2.7,2.7c0,2-1.8,3.4-4.5,3.4C217,17,215.5,16.2,214.6,15.1z"/>
			</g>
		</g>
	</g>
	<polygon class="st3" points="93.6,50.5 106.8,72.2 103.9,46.1 	"/>
</g>
</svg>
