<svg xmlns="http://www.w3.org/2000/svg" width="233.109" height="88.554" viewBox="0 0 233.109 88.554">
  <g id="imprensa_1" transform="translate(-86 -1055.296)">
    <g id="imprensa" transform="translate(-99 -68.119)">
      <g id="imprensa-2" data-name="imprensa" transform="translate(273.857 1123.415)">
        <text id="_01" data-name="01" transform="translate(15.9 39.789)" fill="#231f20" font-size="13" font-family="Ubuntu-Bold, Ubuntu" font-weight="700" letter-spacing="0.009em"><tspan x="0" y="0">01</tspan></text>
        <g id="Group_52" data-name="Group 52" transform="translate(7.275)">
          <g id="Group_50" data-name="Group 50" transform="translate(101.27)">
            <rect id="Rectangle_31" data-name="Rectangle 31" width="33.504" height="21.994"/>
            <path id="_6x3" data-name="6x3" d="M3.288-3.912a3.579,3.579,0,0,0-.564.048,1.662,1.662,0,0,0-.468.132q0,.048-.006.144t-.006.168A5.287,5.287,0,0,0,2.3-2.6a2.286,2.286,0,0,0,.2.672,1.149,1.149,0,0,0,.384.45,1.049,1.049,0,0,0,.6.162A.974.974,0,0,0,4-1.446a1.154,1.154,0,0,0,.348-.318,1.353,1.353,0,0,0,.2-.426,1.656,1.656,0,0,0,.066-.45,1.335,1.335,0,0,0-.306-.942A1.35,1.35,0,0,0,3.288-3.912ZM3.516-5.3a3.7,3.7,0,0,1,1.326.21,2.438,2.438,0,0,1,.894.57,2.148,2.148,0,0,1,.5.84A3.28,3.28,0,0,1,6.4-2.664a3.005,3.005,0,0,1-.174.984,2.749,2.749,0,0,1-.528.912,2.766,2.766,0,0,1-.9.672A2.935,2.935,0,0,1,3.5.168,2.782,2.782,0,0,1,1.224-.78,4,4,0,0,1,.444-3.4,5.654,5.654,0,0,1,.816-5.52,4.187,4.187,0,0,1,1.878-7.074a4.635,4.635,0,0,1,1.668-.96,7.085,7.085,0,0,1,2.2-.342Q5.772-8,5.8-7.65t.048.738A6.823,6.823,0,0,0,4.7-6.8a3.8,3.8,0,0,0-.972.318,2.66,2.66,0,0,0-.762.558,2.388,2.388,0,0,0-.5.834A2.22,2.22,0,0,1,3-5.256,3.021,3.021,0,0,1,3.516-5.3Zm6.528.912,1.248-1.92H13.14L10.98-3.276q.72.9,1.308,1.752A14.425,14.425,0,0,1,13.224,0H11.3l-.24-.45q-.144-.27-.324-.564T10.362-1.6q-.2-.294-.39-.534-.18.228-.366.5t-.354.558q-.168.282-.33.558T8.64,0H6.816a7.862,7.862,0,0,1,.4-.708q.252-.408.546-.846t.618-.876q.324-.438.636-.822-.54-.756-1.08-1.53L6.864-6.312H8.8ZM15.96.18a5.913,5.913,0,0,1-.684-.042q-.36-.042-.7-.114t-.612-.156a3.525,3.525,0,0,1-.432-.156l.348-1.488q.312.132.8.282a4.145,4.145,0,0,0,1.206.15A1.913,1.913,0,0,0,17.1-1.656a1.026,1.026,0,0,0,.384-.84,1.015,1.015,0,0,0-.138-.546,1.055,1.055,0,0,0-.378-.36,1.679,1.679,0,0,0-.57-.192,4.348,4.348,0,0,0-.7-.054H15v-1.44h.792a2.658,2.658,0,0,0,.51-.048A1.361,1.361,0,0,0,16.74-5.3a.848.848,0,0,0,.306-.312.987.987,0,0,0,.114-.5.785.785,0,0,0-.1-.4.862.862,0,0,0-.246-.276,1.072,1.072,0,0,0-.348-.162,1.521,1.521,0,0,0-.4-.054,2.824,2.824,0,0,0-.954.156,3.983,3.983,0,0,0-.8.384L13.68-7.764q.192-.12.45-.252a4.441,4.441,0,0,1,.57-.24,5.209,5.209,0,0,1,.666-.18,3.758,3.758,0,0,1,.75-.072,4.1,4.1,0,0,1,1.266.174,2.379,2.379,0,0,1,.882.492,1.983,1.983,0,0,1,.516.744,2.513,2.513,0,0,1,.168.93,1.836,1.836,0,0,1-.276.954,1.821,1.821,0,0,1-.744.7,2.156,2.156,0,0,1,1,.786,2.181,2.181,0,0,1,.354,1.254,2.865,2.865,0,0,1-.192,1.062,2.142,2.142,0,0,1-.6.84,2.879,2.879,0,0,1-1.038.552A5.007,5.007,0,0,1,15.96.18Z" transform="translate(6.752 15.497)" fill="#fff"/>
          </g>
          <g id="Group_51" data-name="Group 51" transform="translate(0 21.975)">
            <path id="Path_69" data-name="Path 69" d="M309.069,393.383l-103.506-1.572,2.736-27.536H317.1l1.92,19.157Z" transform="translate(-182.043 -362.355)" fill="#9fa1a4" opacity="0.5"/>
            <path id="Path_70" data-name="Path 70" d="M321.909,392.674H196.878V363.566H331.965v19.156Z" transform="translate(-196.878 -363.566)" fill="#bdd8f1"/>
            <path id="Path_71" data-name="Path 71" d="M243.049,370.64v9.951L253.1,370.64Z" transform="translate(-118.017 -351.483)" fill="#fff"/>
          </g>
          <path id="IMPRENSA-3" data-name="IMPRENSA" d="M.88-7.623H2.6V0H.88Zm5.6,0q.2.363.457.9t.539,1.155q.281.622.556,1.27L8.547-3.08,9.064-4.3q.275-.649.556-1.27t.539-1.155q.259-.533.457-.9h1.562q.11.759.2,1.7t.165,1.958q.071,1.018.132,2.041T12.782,0H11.11q-.033-1.111-.088-2.42t-.165-2.64q-.2.462-.44,1.023T9.938-2.915q-.236.561-.456,1.072t-.374.875h-1.2q-.154-.363-.374-.875T7.079-2.915Q6.842-3.476,6.6-4.037T6.16-5.06q-.11,1.331-.165,2.64T5.907,0H4.235q.044-.9.1-1.925t.132-2.041q.072-1.018.165-1.958t.2-1.7Zm10.23-.088a4.769,4.769,0,0,1,2.618.6,2.173,2.173,0,0,1,.913,1.964,2.2,2.2,0,0,1-.924,1.985,4.782,4.782,0,0,1-2.64.61h-.539V0H14.421V-7.513a9.708,9.708,0,0,1,1.188-.154Q16.236-7.711,16.709-7.711Zm.11,1.463q-.187,0-.368.011t-.313.022v2.2h.539a2.921,2.921,0,0,0,1.342-.242.93.93,0,0,0,.451-.9,1.082,1.082,0,0,0-.115-.528.878.878,0,0,0-.33-.335A1.486,1.486,0,0,0,17.5-6.2,4.315,4.315,0,0,0,16.819-6.248Zm7.018-1.463a4.725,4.725,0,0,1,2.629.61,2.122,2.122,0,0,1,.913,1.9,2.145,2.145,0,0,1-.368,1.3,2.427,2.427,0,0,1-1.062.786q.231.286.484.655t.5.77q.248.4.479.836T27.841,0H25.916l-.424-.759q-.214-.385-.44-.748t-.446-.687q-.22-.325-.44-.589H23.32V0H21.6V-7.513a9.728,9.728,0,0,1,1.161-.154Q23.364-7.711,23.837-7.711Zm.1,1.463q-.187,0-.335.011l-.281.022v2.068H23.8a2.923,2.923,0,0,0,1.386-.242.875.875,0,0,0,.418-.825.839.839,0,0,0-.424-.8A2.619,2.619,0,0,0,23.936-6.248ZM29.04,0V-7.623h5.148v1.441H30.756v1.5H33.8v1.408H30.756v1.837h3.685V0ZM40.92,0q-.737-1.309-1.595-2.585A26.271,26.271,0,0,0,37.5-4.994V0H35.805V-7.623h1.4q.363.363.8.891T38.9-5.6q.456.6.907,1.243t.847,1.237v-4.5h1.705V0ZM46.3-1.309a2.475,2.475,0,0,0,.6-.061,1.105,1.105,0,0,0,.38-.165.552.552,0,0,0,.2-.247.882.882,0,0,0,.055-.319.737.737,0,0,0-.352-.622,5.03,5.03,0,0,0-1.21-.533q-.374-.132-.748-.3a2.757,2.757,0,0,1-.671-.429,2.052,2.052,0,0,1-.484-.627,1.964,1.964,0,0,1-.187-.9,2.22,2.22,0,0,1,.2-.951,2.031,2.031,0,0,1,.561-.721,2.567,2.567,0,0,1,.88-.457A3.95,3.95,0,0,1,46.684-7.8a4.748,4.748,0,0,1,1.331.165,4.756,4.756,0,0,1,.924.363l-.495,1.353a4.688,4.688,0,0,0-.709-.292,3.072,3.072,0,0,0-.941-.126,1.725,1.725,0,0,0-.885.17.575.575,0,0,0-.27.523.6.6,0,0,0,.1.352.962.962,0,0,0,.281.258,2.468,2.468,0,0,0,.418.209q.236.093.522.192.594.22,1.034.435a2.761,2.761,0,0,1,.731.5,1.813,1.813,0,0,1,.435.671,2.7,2.7,0,0,1,.143.935,1.986,1.986,0,0,1-.748,1.655A3.61,3.61,0,0,1,46.3.154a6.248,6.248,0,0,1-.913-.06,5.892,5.892,0,0,1-.721-.149,4.133,4.133,0,0,1-.539-.187,4.092,4.092,0,0,1-.379-.187l.484-1.364a4.315,4.315,0,0,0,.841.336A4.365,4.365,0,0,0,46.3-1.309ZM55.825,0q-.121-.4-.27-.814t-.292-.836h-2.97q-.143.418-.292.836T51.733,0H49.951q.429-1.232.814-2.277t.754-1.969q.368-.924.726-1.754t.743-1.623h1.639Q55-6.831,55.363-6t.731,1.754q.368.924.754,1.969T57.662,0ZM53.768-5.9q-.055.165-.165.451l-.253.66q-.143.374-.313.825t-.347.946h2.167q-.176-.5-.341-.946T54.2-4.785q-.148-.374-.258-.66T53.768-5.9Z" transform="translate(47.631 39.028)"/>
        </g>
        <g id="Group_59" data-name="Group 59" transform="translate(-6.308 18.919) rotate(-13)">
          <path id="Path_96" data-name="Path 96" d="M242.812,391.719a24.788,24.788,0,1,0-46.7,2.713c2.8,6.7,11.918,27.389,11.918,27.389s19.354-12.514,25.285-16.708a24.684,24.684,0,0,0,9.5-13.394Z" transform="translate(-194.191 -360.086)" fill="#2d314e" opacity="0.92"/>
          <circle id="Ellipse_28" data-name="Ellipse 28" cx="22.782" cy="22.782" r="22.782" transform="translate(2.012 2.013)" fill="#ffcd70"/>
        </g>
        <path id="_05" data-name="05" d="M6.942-4.524a5.974,5.974,0,0,1-.865,3.49A2.768,2.768,0,0,1,3.692.182,2.768,2.768,0,0,1,1.307-1.033a5.974,5.974,0,0,1-.865-3.49,7.953,7.953,0,0,1,.227-2,4.408,4.408,0,0,1,.656-1.469A2.926,2.926,0,0,1,2.353-8.9a2.851,2.851,0,0,1,1.339-.312A2.768,2.768,0,0,1,6.077-8,5.948,5.948,0,0,1,6.942-4.524Zm-1.976,0A10.577,10.577,0,0,0,4.9-5.753a4.421,4.421,0,0,0-.208-.955,1.483,1.483,0,0,0-.39-.624.883.883,0,0,0-.611-.221.859.859,0,0,0-.6.221,1.573,1.573,0,0,0-.39.624,4.159,4.159,0,0,0-.214.955,10.577,10.577,0,0,0-.065,1.229,10.748,10.748,0,0,0,.065,1.235,4.167,4.167,0,0,0,.214.962,1.573,1.573,0,0,0,.39.624.859.859,0,0,0,.6.221A.883.883,0,0,0,4.3-1.7a1.483,1.483,0,0,0,.39-.624A4.428,4.428,0,0,0,4.9-3.289,10.748,10.748,0,0,0,4.966-4.524Zm7.215,1.872a1.314,1.314,0,0,0-.169-.669,1.265,1.265,0,0,0-.585-.488,4.11,4.11,0,0,0-1.118-.3,12.416,12.416,0,0,0-1.768-.1q.143-1.209.234-2.457t.143-2.34h4.875v1.625h-3.25q-.026.468-.059.9t-.071.76a4.827,4.827,0,0,1,2.8.891,2.611,2.611,0,0,1,.9,2.112A2.991,2.991,0,0,1,13.9-1.56a2.489,2.489,0,0,1-.663.923,3.147,3.147,0,0,1-1.112.611,5.006,5.006,0,0,1-1.566.221A6.241,6.241,0,0,1,9.821.149Q9.438.1,9.08.032T8.437-.117a2.5,2.5,0,0,1-.442-.156l.351-1.6a5.708,5.708,0,0,0,.858.28,5.19,5.19,0,0,0,1.274.136,1.934,1.934,0,0,0,1.3-.357A1.089,1.089,0,0,0,12.181-2.652Z" transform="translate(16.189 39.332)" fill="#231f20"/>
      </g>
      <rect id="Rectangle_48" data-name="Rectangle 48" width="89" transform="translate(185 1162.951)" fill="none"/>
    </g>
    <g id="Group_70" data-name="Group 70" transform="translate(193.09 1134.368)">
      <g id="Group_15" data-name="Group 15" transform="translate(-1 2)">
        <g id="Group_14" data-name="Group 14" opacity="0.92">
          <path id="Path_25" data-name="Path 25" d="M268.881,289.623a3.526,3.526,0,1,0-3.515,3.74,3.626,3.626,0,0,0,3.515-3.74Z" transform="translate(-261.843 -285.881)" fill="#2d314e"/>
        </g>
      </g>
    </g>
  </g>
</svg>
