<?xml version="1.0" encoding="utf-8"?>
<!-- Generator: Adobe Illustrator 25.2.3, SVG Export Plug-In . SVG Version: 6.00 Build 0)  -->
<svg version="1.1" id="Layer_1" xmlns="http://www.w3.org/2000/svg" width="220.109" height="82.554" xmlns:xlink="http://www.w3.org/1999/xlink" x="0px" y="0px"
	 viewBox="0 0 220.1 82.6" style="enable-background:new 0 0 220.1 82.6;" xml:space="preserve">
<style type="text/css">
	.st0{opacity:0.92;fill:#2D314E;enable-background:new    ;}
	.st1{fill:#55BCBD;}
	.st2{fill:#676D81;}
	.st3{fill:#002C46;}
	.st4{fill:#FFFFFF;}
</style>
<g>
	<g id="_24_julho_novo" transform="translate(200.275 451.873)">
		<path id="Path_11" class="st0" d="M-92.8-373.1c-0.1,1.8-1.6,3.1-3.4,3c-1.8-0.1-3.1-1.6-3-3.4c0.1-1.7,1.5-3,3.2-3
			C-94.1-376.3-92.7-374.8-92.8-373.1z"/>
	</g>
	<g>
		<g id="Layer_2_1_">
			<g id="Layer_1-2">
				<g>
					<rect x="171.9" y="1" class="st1" width="47.3" height="18.8"/>
				</g>
				<g>
					<rect x="125" y="19.6" class="st2" width="94.1" height="27.5"/>
				</g>
				<rect x="88.7" y="19.6" class="st1" width="37.5" height="27.5"/>
			</g>
		</g>
	</g>
	<polygon class="st1" points="88.7,47.1 101,67.3 98.3,43 	"/>
</g>
<g>
	<path class="st3" d="M101.8,40.9c-1,0-1.8-0.2-2.6-0.7c-0.7-0.4-1.3-1-1.8-1.8s-0.8-1.6-1-2.4c-0.2-0.9-0.3-1.8-0.3-2.7
		c0-0.9,0.1-1.8,0.3-2.7c0.2-0.9,0.5-1.7,1-2.4s1-1.3,1.8-1.8c0.7-0.4,1.6-0.7,2.6-0.7c1,0,1.8,0.2,2.6,0.7c0.7,0.4,1.3,1,1.8,1.8
		s0.8,1.5,1,2.4c0.2,0.9,0.3,1.8,0.3,2.7c0,0.9-0.1,1.8-0.3,2.7c-0.2,0.9-0.5,1.7-1,2.4s-1,1.3-1.8,1.8S102.7,40.9,101.8,40.9z
		 M99.6,38.4c0.6,0.6,1.3,0.9,2.2,0.9c0.9,0,1.6-0.3,2.2-0.9c0.6-0.6,1-1.3,1.2-2.2c0.2-0.9,0.3-1.8,0.3-2.9c0-1.1-0.1-2-0.3-2.9
		c-0.2-0.9-0.6-1.6-1.2-2.2c-0.6-0.6-1.3-0.9-2.2-0.9c-0.9,0-1.6,0.3-2.2,0.9c-0.6,0.6-1,1.3-1.2,2.2c-0.2,0.9-0.3,1.8-0.3,2.9
		c0,1.1,0.1,2,0.3,2.9C98.6,37.1,99,37.8,99.6,38.4z"/>
	<path class="st3" d="M113.2,40.7h-2l5.9-13h-7.9V26h10v1.3L113.2,40.7z"/>
</g>
<g>
	<path class="st3" d="M186.3,15.6c-0.7,0-1.3-0.1-1.8-0.4c-0.5-0.3-0.9-0.7-1.2-1.2s-0.5-1.1-0.7-1.7c-0.2-0.6-0.2-1.3-0.2-2
		c0-1.5,0.4-2.8,1.1-3.8c0.7-1,1.8-1.5,3.1-1.5c1.2,0,2.1,0.4,2.9,1.2l-0.7,1c-0.6-0.7-1.3-1.1-2.2-1.1c-0.9,0-1.7,0.4-2.2,1.2
		c-0.5,0.8-0.8,1.8-0.8,2.9v0.4c0.3-0.4,0.7-0.8,1.2-1.1c0.5-0.3,1.1-0.5,1.7-0.5c1,0,1.8,0.3,2.4,0.9c0.6,0.6,1,1.4,1,2.4
		c0,0.9-0.3,1.7-1,2.4S187.4,15.6,186.3,15.6z M186.3,14.5c0.7,0,1.3-0.2,1.7-0.7c0.4-0.5,0.6-1,0.6-1.5c0-0.7-0.2-1.3-0.7-1.7
		c-0.4-0.4-1-0.6-1.7-0.6c-0.5,0-1,0.1-1.5,0.4s-0.8,0.7-1.1,1.1c0.1,0.8,0.3,1.4,0.7,2C184.8,14.2,185.5,14.5,186.3,14.5z"/>
	<path class="st3" d="M200.6,15.5h-1.6l-3.3-4.4l-3.3,4.4h-1.6l4-5.3l-3.8-5h1.6l3.1,4.1l3.1-4.1h1.6l-3.8,5L200.6,15.5z"/>
	<path class="st3" d="M204.9,15.6c-0.8,0-1.6-0.2-2.2-0.5c-0.6-0.3-1.1-0.7-1.5-1.2l0.8-0.8c0.3,0.4,0.7,0.7,1.2,1
		c0.5,0.2,1.1,0.4,1.7,0.4c0.7,0,1.3-0.2,1.8-0.5c0.4-0.4,0.7-0.8,0.7-1.4c0-0.6-0.2-1.1-0.7-1.4c-0.5-0.3-1.1-0.4-1.9-0.4
		c-0.6,0-1,0-1.1,0V9.6c0.1,0,0.5,0,1.1,0c0.7,0,1.3-0.1,1.7-0.4c0.5-0.3,0.7-0.7,0.7-1.3c0-0.5-0.2-1-0.7-1.3
		c-0.4-0.3-1-0.5-1.7-0.5c-1,0-2,0.4-2.7,1.3l-0.7-0.8c0.9-1.1,2.1-1.6,3.5-1.6c1,0,1.9,0.2,2.5,0.7c0.7,0.5,1,1.2,1,2
		c0,0.7-0.2,1.2-0.7,1.6c-0.5,0.4-1,0.7-1.5,0.8c0.6,0.1,1.1,0.3,1.6,0.8s0.8,1,0.8,1.8c0,0.9-0.3,1.6-1,2.1
		C207,15.4,206.1,15.6,204.9,15.6z"/>
</g>
<g>
	<path class="st4" d="M138.3,38.5H137V28.1h1.3V38.5z"/>
	<path class="st4" d="M150.9,38.5h-1.3v-8.7l-3.5,8.7h-0.5l-3.5-8.7v8.7h-1.3V28.1h1.8l3.2,8l3.2-8h1.8V38.5z"/>
	<path class="st4" d="M154.6,38.5h-1.3V28.1h4.2c1,0,1.8,0.3,2.4,0.9c0.6,0.6,0.9,1.3,0.9,2.2c0,0.9-0.3,1.6-0.9,2.2
		s-1.4,0.9-2.4,0.9h-2.9V38.5z M157.3,33.2c0.6,0,1.1-0.2,1.5-0.6c0.4-0.4,0.6-0.8,0.6-1.4c0-0.6-0.2-1.1-0.6-1.4
		c-0.4-0.4-0.9-0.6-1.5-0.6h-2.7v3.9H157.3z"/>
	<path class="st4" d="M169.9,38.5h-1.5l-2.6-4.1h-2.1v4.1h-1.3V28.1h4.2c1,0,1.7,0.3,2.3,0.9s0.9,1.3,0.9,2.3c0,0.9-0.3,1.6-0.8,2.1
		c-0.5,0.5-1.2,0.8-1.9,0.9L169.9,38.5z M166.4,33.2c0.6,0,1.1-0.2,1.5-0.6c0.4-0.4,0.6-0.8,0.6-1.4c0-0.6-0.2-1.1-0.6-1.4
		c-0.4-0.4-0.9-0.5-1.5-0.5h-2.7v4H166.4z"/>
	<path class="st4" d="M178.6,38.5h-6.8V28.1h6.8v1.1h-5.5v3.3h5.4v1.1h-5.4v3.6h5.5V38.5z"/>
	<path class="st4" d="M189.2,38.5h-1.2l-6-8.2v8.2h-1.3V28.1h1.3l6,8.1v-8.1h1.3V38.5z"/>
	<path class="st4" d="M195,38.6c-1.7,0-3-0.5-4-1.6l0.8-1c0.9,1,1.9,1.5,3.2,1.5c0.8,0,1.5-0.2,1.8-0.5c0.4-0.4,0.6-0.8,0.6-1.3
		c0-0.4-0.2-0.8-0.5-1c-0.3-0.3-0.7-0.5-1.1-0.6s-0.9-0.3-1.5-0.4c-0.5-0.2-1-0.3-1.5-0.5c-0.4-0.2-0.8-0.5-1.1-0.9
		c-0.3-0.4-0.5-0.9-0.5-1.5c0-0.8,0.3-1.5,1-2.1c0.7-0.5,1.5-0.8,2.6-0.8c1.5,0,2.7,0.5,3.7,1.5l-0.8,0.9c-0.7-0.8-1.7-1.2-3-1.2
		c-0.6,0-1.1,0.2-1.5,0.5c-0.4,0.3-0.6,0.7-0.6,1.2c0,0.4,0.2,0.7,0.5,0.9c0.3,0.2,0.7,0.4,1.1,0.5c0.5,0.1,0.9,0.3,1.5,0.4
		c0.5,0.2,1,0.4,1.5,0.5s0.8,0.5,1.1,0.9c0.3,0.4,0.5,0.9,0.5,1.5c0,0.8-0.3,1.6-0.9,2.1C197.2,38.3,196.2,38.6,195,38.6z"/>
	<path class="st4" d="M209.4,38.5h-1.5l-0.9-2.3h-5.1l-0.9,2.3h-1.5l4.2-10.3h1.6L209.4,38.5z M206.6,35l-2.2-5.6l-2.2,5.6H206.6z"
		/>
</g>
</svg>
