<?xml version="1.0" encoding="utf-8"?>
<!-- Generator: Adobe Illustrator 25.2.3, SVG Export Plug-In . SVG Version: 6.00 Build 0)  -->
<svg version="1.1" id="Layer_1" xmlns="http://www.w3.org/2000/svg" width="220.109" height="82.554" xmlns:xlink="http://www.w3.org/1999/xlink" x="0px" y="0px"
	 viewBox="0 0 220.1 82.6" style="enable-background:new 0 0 220.1 82.6;" xml:space="preserve">
<style type="text/css">
	.st0{opacity:0.92;fill:#2D314E;enable-background:new    ;}
	.st1{fill:#676D81;}
	.st2{fill:#55BCBD;}
	.st3{fill:#FFFFFF;}
	.st4{fill:#002C46;}
</style>
<g>
	<g id="_24_julho_novo" transform="translate(200.275 451.873)">
		<path id="Path_11" class="st0" d="M-92.8-373.1c-0.1,1.8-1.6,3.1-3.4,3c-1.8-0.1-3.1-1.6-3-3.4c0.1-1.7,1.5-3,3.2-3
			C-94.1-376.3-92.7-374.8-92.8-373.1z"/>
	</g>
	<g>
		<g id="Layer_2_1_">
			<g id="Layer_1-2">
				<g>
					<rect x="125" y="19.6" class="st1" width="94.2" height="27.5"/>
				</g>
				<rect x="88.7" y="19.6" class="st2" width="37.5" height="27.5"/>
				<g>
					<rect x="172" y="1" class="st2" width="47.3" height="18.5"/>
				</g>
			</g>
		</g>
		<g>
			<g>
				<path class="st3" d="M135.7,38.4V28.2h2.1v10.2C137.9,38.4,135.7,38.4,135.7,38.4z"/>
				<path class="st3" d="M148.7,38.4v-7.3l-2.9,7.4h-0.9l-2.9-7.4v7.4h-2.1V28.2h3.1l2.4,6.3l2.4-6.3h3.1v10.2
					C150.8,38.4,148.7,38.4,148.7,38.4z"/>
				<path class="st3" d="M152.9,38.4V28.2h4.8c2.2,0,3.4,1.5,3.4,3.3c0,1.8-1.2,3.3-3.4,3.3H155v3.6H152.9z M158.8,31.5
					c0-0.8-0.7-1.4-1.5-1.4H155v2.7h2.3C158.2,32.9,158.8,32.3,158.8,31.5z"/>
				<path class="st3" d="M168.1,38.4l-2-3.6h-1.6v3.6h-2.1V28.2h4.8c2.1,0,3.4,1.4,3.4,3.3c0,1.8-1.1,2.8-2.2,3l2.3,3.9H168.1z
					 M168.3,31.5c0-0.8-0.7-1.4-1.5-1.4h-2.3v2.7h2.3C167.7,32.9,168.3,32.4,168.3,31.5z"/>
				<path class="st3" d="M172.2,38.4V28.2h7.2v1.9h-5v2.1h4.9v1.9h-4.9v2.3h5v1.9L172.2,38.4L172.2,38.4z"/>
				<path class="st3" d="M188.1,38.4l-4.8-6.6v6.6h-2.1V28.2h2.2l4.8,6.4v-6.4h2.1v10.2H188.1z"/>
				<path class="st3" d="M191.5,37l1.2-1.7c0.7,0.7,1.9,1.4,3.3,1.4c1.2,0,1.8-0.6,1.8-1.1c0-1.8-5.9-0.6-5.9-4.4
					c0-1.7,1.5-3.1,3.8-3.1c1.6,0,3,0.5,4,1.4l-1.2,1.6c-0.8-0.7-2-1.1-3-1.1c-0.9,0-1.4,0.4-1.4,1c0,1.6,5.9,0.6,5.9,4.3
					c0,1.9-1.3,3.3-4.1,3.3C193.9,38.6,192.5,37.9,191.5,37z"/>
				<path class="st3" d="M208.2,38.4l-0.7-1.7h-4.4l-0.7,1.7h-2.4l3.9-10.2h2.7l3.9,10.2H208.2z M205.4,30.5l-1.6,4.4h3.2
					L205.4,30.5z"/>
			</g>
			<g>
				<path class="st4" d="M181.3,10.3c0-3.3,1.9-5.5,4.9-5.5c1.3,0,2.4,0.5,3.2,1.1l-1,1.8c-0.6-0.6-1.2-0.8-2.1-0.8
					c-1.6,0-2.7,1.3-2.7,3c0,0.1,0,0.2,0,0.2c0.5-0.7,1.6-1.4,2.7-1.4c2,0,3.6,1.2,3.6,3.4c0,2-1.7,3.6-4.1,3.6
					C182.6,15.8,181.3,13.3,181.3,10.3z M187.6,12.2c0-1.1-0.9-1.6-2-1.6c-0.8,0-1.6,0.4-2,1c0.1,1,0.7,2.1,2.1,2.1
					C187,13.8,187.6,13,187.6,12.2z"/>
				<path class="st4" d="M198.4,15.7l-2.7-3.9l-2.7,3.9h-2.7l3.9-5.5l-3.6-5.2h2.7l2.4,3.6l2.4-3.6h2.7l-3.6,5.2l3.9,5.5
					C201.1,15.7,198.4,15.7,198.4,15.7z"/>
				<path class="st4" d="M201.4,14.1l1.2-1.5c0.7,0.7,1.9,1.2,2.9,1.2c1.3,0,2-0.6,2-1.4s-0.7-1.2-2.1-1.2c-0.5,0-1.2,0-1.3,0v-2
					c0.2,0,0.9,0,1.3,0c1.2,0,2-0.4,2-1.1c0-0.8-0.8-1.3-2-1.3c-1,0-2,0.4-2.7,1.1l-1.1-1.4c0.8-0.9,2.2-1.7,4.1-1.7
					c2.5,0,4,1.1,4,2.9c0,1.3-1.1,2.2-2.3,2.4c1.1,0.1,2.5,0.9,2.5,2.5c0,1.9-1.7,3.2-4.2,3.2C203.6,15.8,202.3,15.1,201.4,14.1z"/>
			</g>
		</g>
	</g>
	<polygon class="st2" points="88.7,47.1 101,67.3 98.3,43 	"/>
</g>
<g>
	<path class="st4" d="M95.2,32.8c0-3.8,1.9-7.6,6.1-7.6c4.2,0,6.1,3.8,6.1,7.6s-1.9,7.6-6.1,7.6C97,40.4,95.2,36.6,95.2,32.8z
		 M104.1,32.8c0-2.7-0.8-4.8-2.9-4.8c-2.1,0-2.9,2.1-2.9,4.8s0.8,4.8,2.9,4.8C103.3,37.6,104.1,35.5,104.1,32.8z"/>
	<path class="st4" d="M110.7,40.1l5.3-11.9h-7.4v-2.8h11v2.2l-5.5,12.5H110.7z"/>
</g>
</svg>
