<svg xmlns="http://www.w3.org/2000/svg" xmlns:xlink="http://www.w3.org/1999/xlink" width="120" height="95.826" viewBox="0 0 58.58 27.82"><defs><style>.cls-1{fill:none;}.cls-2{fill:#676d81;}.cls-3{fill:#fff;}.cls-4{fill:#55bcbd;}.cls-5{fill:#002c46;}.cls-6{fill:#2d314e;}.cls-7{clip-path:url(#clip-path);}</style><clipPath id="clip-path"><rect class="cls-1" x="41.53" y="1.64" width="13" height="5"/></clipPath></defs><g id="Layer_2" data-name="Layer 2"><g id="Layer_1-2" data-name="Layer 1"><rect class="cls-2" x="9.21" y="6" width="49.37" height="12.24" rx="2.58"/><path class="cls-3" d="M24.05,14.17v-3.5h.8v3.5Z"/><path class="cls-3" d="M28.89,14.17V11.65l-1.06,2.52h-.34l-1.06-2.52v2.52h-.8v-3.5h1.12l.91,2.19.91-2.19h1.12v3.5Z"/><path class="cls-3" d="M30.48,14.17v-3.5h1.75a1.13,1.13,0,1,1,0,2.25h-.95v1.25Zm2.2-2.37c0-.3-.25-.47-.56-.47h-.84v.94h.84A.5.5,0,0,0,32.68,11.8Z"/><path class="cls-3" d="M36.15,14.17l-.73-1.24h-.59v1.24H34v-3.5h1.75a1.14,1.14,0,0,1,1.26,1.13,1,1,0,0,1-.82,1l.84,1.33Zm.08-2.38c0-.29-.24-.46-.55-.46h-.85v.94h.85A.49.49,0,0,0,36.23,11.79Z"/><path class="cls-3" d="M37.69,14.17v-3.5h2.65v.66H38.49v.73H40.3v.66H38.49v.8h1.85v.65Z"/><path class="cls-3" d="M43.59,14.17l-1.78-2.28v2.28H41v-3.5h.82l1.74,2.2v-2.2h.79v3.5Z"/><path class="cls-3" d="M44.89,13.68l.44-.58a1.71,1.71,0,0,0,1.19.47c.44,0,.65-.18.65-.39,0-.6-2.15-.18-2.15-1.5,0-.58.53-1.06,1.42-1.06a2.18,2.18,0,0,1,1.46.49l-.45.55a1.67,1.67,0,0,0-1.09-.38c-.33,0-.52.14-.52.35,0,.55,2.15.17,2.15,1.48,0,.64-.5,1.13-1.5,1.13A2.27,2.27,0,0,1,44.89,13.68Z"/><path class="cls-3" d="M51.15,14.17l-.23-.59H49.31l-.23.59h-.91l1.45-3.5h1l1.45,3.5Zm-1-2.75-.58,1.5H50.7Z"/><rect class="cls-4" x="1.8" y="3.77" width="16.7" height="16.7" rx="4" transform="translate(-5.6 10.73) rotate(-45)"/><path class="cls-5" d="M7.27,15V10.42l-1,1.07-.78-.8,2-2H8.62V15Z"/><path class="cls-5" d="M10.4,15l2.28-5.16H9.48V8.68h4.77v.94L11.89,15Z"/><path class="cls-6" d="M8.61,26.41A1.74,1.74,0,0,1,10,24.26a1.93,1.93,0,0,1,2.27,1.35,1.76,1.76,0,0,1-1.35,2.16,1.92,1.92,0,0,1-2.27-1.36"/><rect class="cls-4" x="37.48" width="21.1" height="8.28" rx="0.9"/><g class="cls-7"><path class="cls-5" d="M41.76,4.28A2.09,2.09,0,0,1,44,2a2.19,2.19,0,0,1,1.38.45l-.45.72A1.26,1.26,0,0,0,44,2.84a1.18,1.18,0,0,0-1.17,1.24v.1A1.55,1.55,0,0,1,44,3.61,1.45,1.45,0,0,1,45.58,5a1.61,1.61,0,0,1-1.79,1.5A2,2,0,0,1,41.76,4.28Zm2.81.79c0-.46-.43-.66-.87-.66a1.21,1.21,0,0,0-.92.42.9.9,0,0,0,.95.88C44.27,5.71,44.57,5.37,44.57,5.07Z"/><path class="cls-5" d="M49.37,6.46,48.2,4.86,47,6.46H45.83l1.7-2.24L45.94,2.08h1.18l1.08,1.5,1.06-1.5h1.2l-1.6,2.13,1.7,2.25Z"/><path class="cls-5" d="M50.74,5.84l.52-.63a1.89,1.89,0,0,0,1.29.5c.57,0,.88-.23.88-.56s-.29-.5-.94-.5h-.58V3.82h.58c.52,0,.87-.15.87-.47s-.38-.52-.87-.52a1.74,1.74,0,0,0-1.19.46l-.5-.59A2.38,2.38,0,0,1,52.59,2c1.1,0,1.77.46,1.77,1.19a1.1,1.1,0,0,1-1,1,1.15,1.15,0,0,1,1.1,1c0,.76-.72,1.29-1.85,1.29A2.43,2.43,0,0,1,50.74,5.84Z"/></g></g></g></svg>