<svg xmlns="http://www.w3.org/2000/svg" width="145.528" height="70.532" viewBox="0 0 145.528 70.532">
  <g id="janete_novo" transform="translate(-4.405)">
    <g id="Group_16" data-name="Group 16" transform="translate(70.473 63.05)">
      <g id="Group_15" data-name="Group 15">
        <g id="Group_14" data-name="Group 14" opacity="0.92">
          <path id="Path_25" data-name="Path 25" d="M268.881,289.623a3.526,3.526,0,1,0-3.515,3.74,3.626,3.626,0,0,0,3.515-3.74Z" transform="translate(-261.843 -285.881)" fill="#2d314e"/>
        </g>
      </g>
    </g>
    <g id="Group_17" data-name="Group 17" transform="translate(107.084)">
      <rect id="Rectangle_9" data-name="Rectangle 9" width="40.82" height="21.994"/>
      <path id="_4x6" data-name="4x6" d="M3.828-6.132q-.468.612-1,1.332a9.147,9.147,0,0,0-.888,1.476H3.828ZM5.58-8.316v4.992h.888V-1.86H5.58V0H3.828V-1.86H.24V-3.168Q.5-3.7.9-4.362T1.782-5.73q.486-.7,1.026-1.374a15,15,0,0,1,1.08-1.212Zm4.464,3.924,1.248-1.92H13.14L10.98-3.276q.72.9,1.308,1.752A14.425,14.425,0,0,1,13.224,0H11.3l-.24-.45q-.144-.27-.324-.564T10.362-1.6q-.2-.294-.39-.534-.18.228-.366.5t-.354.558q-.168.282-.33.558T8.64,0H6.816a7.862,7.862,0,0,1,.4-.708q.252-.408.546-.846t.618-.876q.324-.438.636-.822-.54-.756-1.08-1.53L6.864-6.312H8.8Zm6.468.48a3.579,3.579,0,0,0-.564.048,1.662,1.662,0,0,0-.468.132q0,.048-.006.144t-.006.168a5.287,5.287,0,0,0,.06.816,2.286,2.286,0,0,0,.2.672,1.149,1.149,0,0,0,.384.45,1.049,1.049,0,0,0,.6.162.974.974,0,0,0,.51-.126,1.154,1.154,0,0,0,.348-.318,1.353,1.353,0,0,0,.2-.426,1.656,1.656,0,0,0,.066-.45,1.335,1.335,0,0,0-.306-.942A1.35,1.35,0,0,0,16.512-3.912ZM16.74-5.3a3.7,3.7,0,0,1,1.326.21,2.438,2.438,0,0,1,.894.57,2.148,2.148,0,0,1,.5.84,3.28,3.28,0,0,1,.156,1.02,3.005,3.005,0,0,1-.174.984,2.749,2.749,0,0,1-.528.912,2.766,2.766,0,0,1-.9.672,2.935,2.935,0,0,1-1.29.264,2.782,2.782,0,0,1-2.28-.948,4,4,0,0,1-.78-2.616A5.654,5.654,0,0,1,14.04-5.52,4.187,4.187,0,0,1,15.1-7.074a4.635,4.635,0,0,1,1.668-.96,7.085,7.085,0,0,1,2.2-.342Q19-8,19.02-7.65t.048.738a6.823,6.823,0,0,0-1.146.114,3.8,3.8,0,0,0-.972.318,2.66,2.66,0,0,0-.762.558,2.388,2.388,0,0,0-.5.834,2.22,2.22,0,0,1,.54-.168A3.021,3.021,0,0,1,16.74-5.3Z" transform="translate(6.921 12.525)" fill="#fff"/>
    </g>
    <path id="Path_26" data-name="Path 26" d="M310.784,276.812v14.08l14.079-14.08Z" transform="translate(-178.251 -230.404)" fill="#fff" opacity="0.8"/>
    <g id="Group_46" data-name="Group 46" transform="translate(12.957 22.046)">
      <path id="Path_62" data-name="Path 62" d="M378.819,297.633l-103.506-1.572,2.736-27.536h108.8l1.92,19.156Z" transform="translate(-251.793 -266.605)" fill="#9fa1a4" opacity="0.5"/>
      <path id="Path_63" data-name="Path 63" d="M391.659,296.924H266.628V267.816H401.715v19.156Z" transform="translate(-266.628 -267.816)" fill="#f4bdc7"/>
      <path id="Path_64" data-name="Path 64" d="M312.8,274.89v9.951l10.056-9.951Z" transform="translate(-187.767 -255.734)" fill="#fff"/>
    </g>
    <path id="JANET" d="M5.508-2.8A4.639,4.639,0,0,1,5.37-1.644,2.317,2.317,0,0,1,4.89-.7a2.322,2.322,0,0,1-.924.636A3.972,3.972,0,0,1,2.5.168a4.418,4.418,0,0,1-1.4-.2A3.933,3.933,0,0,1,.12-.492L.744-1.944a5.335,5.335,0,0,0,.744.36,2.337,2.337,0,0,0,.864.156,1.261,1.261,0,0,0,.984-.336,1.686,1.686,0,0,0,.3-1.128V-8.316H5.508ZM12.756,0q-.132-.432-.294-.888T12.144-1.8H8.9q-.156.456-.318.912T8.292,0H6.348q.468-1.344.888-2.484t.822-2.148q.4-1.008.792-1.914t.81-1.77h1.788q.408.864.8,1.77t.8,1.914q.4,1.008.822,2.148T14.76,0ZM10.512-6.432q-.06.18-.18.492l-.276.72q-.156.408-.342.9T9.336-3.288H11.7q-.192-.54-.372-1.032t-.342-.9q-.162-.408-.282-.72T10.512-6.432ZM21.528,0q-.8-1.428-1.74-2.82A28.659,28.659,0,0,0,17.8-5.448V0H15.948V-8.316h1.524q.4.4.876.972t.978,1.23q.5.654.99,1.356t.924,1.35V-8.316H23.1V0Zm3.6,0V-8.316h5.616v1.572H27v1.632h3.324v1.536H27v2h4.02V0ZM38.676-8.316v1.6H36.168V0H34.3V-6.72H31.788v-1.6Z" transform="translate(68.534 41.967)"/>
    <g id="Group_58" data-name="Group 58" transform="matrix(-0.035, -0.999, 0.999, -0.035, 6.135, 66.791)">
      <path id="Path_93" data-name="Path 93" d="M269.986,274.312a24.789,24.789,0,1,1,25.688,39.1c-7.052,1.747-29.089,6.775-29.089,6.775s-1.506-23-1.679-30.259A24.676,24.676,0,0,1,269.986,274.312Z" transform="translate(-264.898 -264.561)" fill="#2d314e" opacity="0.92"/>
      <circle id="Ellipse_24" data-name="Ellipse 24" cx="22.782" cy="22.782" r="22.782" transform="translate(2.009 2.008)" fill="#ff8879"/>
    </g>
    <path id="_03" data-name="03" d="M6.942-4.524a5.974,5.974,0,0,1-.865,3.49A2.768,2.768,0,0,1,3.692.182,2.768,2.768,0,0,1,1.307-1.033a5.974,5.974,0,0,1-.865-3.49,7.953,7.953,0,0,1,.227-2,4.408,4.408,0,0,1,.656-1.469A2.926,2.926,0,0,1,2.353-8.9a2.851,2.851,0,0,1,1.339-.312A2.768,2.768,0,0,1,6.077-8,5.948,5.948,0,0,1,6.942-4.524Zm-1.976,0A10.577,10.577,0,0,0,4.9-5.753a4.421,4.421,0,0,0-.208-.955,1.483,1.483,0,0,0-.39-.624.883.883,0,0,0-.611-.221.859.859,0,0,0-.6.221,1.573,1.573,0,0,0-.39.624,4.159,4.159,0,0,0-.214.955,10.577,10.577,0,0,0-.065,1.229,10.748,10.748,0,0,0,.065,1.235,4.167,4.167,0,0,0,.214.962,1.573,1.573,0,0,0,.39.624.859.859,0,0,0,.6.221A.883.883,0,0,0,4.3-1.7a1.483,1.483,0,0,0,.39-.624A4.428,4.428,0,0,0,4.9-3.289,10.748,10.748,0,0,0,4.966-4.524Zm5.5,4.719A6.405,6.405,0,0,1,9.724.149Q9.334.1,8.97.026T8.307-.143a3.819,3.819,0,0,1-.468-.169l.377-1.612q.338.143.865.306a4.491,4.491,0,0,0,1.307.162A2.072,2.072,0,0,0,11.7-1.794a1.112,1.112,0,0,0,.416-.91,1.1,1.1,0,0,0-.149-.592,1.143,1.143,0,0,0-.409-.39,1.819,1.819,0,0,0-.618-.208,4.71,4.71,0,0,0-.76-.059H9.425v-1.56h.858a2.879,2.879,0,0,0,.552-.052,1.475,1.475,0,0,0,.475-.175.919.919,0,0,0,.332-.338,1.069,1.069,0,0,0,.123-.54.85.85,0,0,0-.1-.429.934.934,0,0,0-.266-.3,1.162,1.162,0,0,0-.377-.175,1.648,1.648,0,0,0-.436-.059,3.06,3.06,0,0,0-1.033.169,4.315,4.315,0,0,0-.865.416L7.995-8.411q.208-.13.488-.273a4.811,4.811,0,0,1,.618-.26,5.643,5.643,0,0,1,.721-.195,4.071,4.071,0,0,1,.813-.078,4.444,4.444,0,0,1,1.372.188,2.578,2.578,0,0,1,.956.533,2.148,2.148,0,0,1,.559.806A2.722,2.722,0,0,1,13.7-6.682a1.99,1.99,0,0,1-.3,1.034,1.972,1.972,0,0,1-.806.76,2.335,2.335,0,0,1,1.085.852,2.362,2.362,0,0,1,.384,1.359,3.1,3.1,0,0,1-.208,1.15,2.32,2.32,0,0,1-.65.91,3.119,3.119,0,0,1-1.125.6A5.425,5.425,0,0,1,10.465.195Z" transform="translate(20.974 46.045)" fill="#231f20"/>
  </g>
</svg>
