<svg xmlns="http://www.w3.org/2000/svg" width="100" height="95.826" viewBox="0 0 46.03 27.82"><defs><style>.cls-1{fill:#676d81;}.cls-2{fill:#fff;}.cls-3{fill:#681758;}.cls-4{fill:#2d314e;}</style></defs><g id="Layer_2" data-name="Layer 2"><g id="Layer_1-2" data-name="Layer 1"><rect class="cls-1" x="12.33" y="6" width="33.7" height="12.24" rx="2.13"/><path class="cls-2" d="M22.71,13.89l.35-.57a.9.9,0,0,0,.6.25.54.54,0,0,0,.58-.56V10.67H25V13a1.16,1.16,0,0,1-1.32,1.22A1.5,1.5,0,0,1,22.71,13.89Z"/><path class="cls-2" d="M28.41,14.17l-.23-.59H26.57l-.23.59h-.91l1.44-3.5h1l1.45,3.5Zm-1-2.75-.58,1.5H28Z"/><path class="cls-2" d="M32.29,14.17l-1.78-2.28v2.28h-.8v-3.5h.82l1.74,2.2v-2.2h.79v3.5Z"/><path class="cls-2" d="M33.85,14.17v-3.5H36.5v.66H34.65v.73h1.81v.66H34.65v.8H36.5v.65Z"/><path class="cls-2" d="M38,14.17V11.33H36.94v-.66h3v.66H38.84v2.84Z"/><rect class="cls-3" x="1.8" y="3.77" width="16.7" height="16.7" rx="4" transform="translate(-5.6 10.73) rotate(-45)"/><path class="cls-2" d="M4.67,11.86c0-1.64.81-3.28,2.63-3.28s2.62,1.64,2.62,3.28-.81,3.28-2.62,3.28S4.67,13.49,4.67,11.86Zm3.87,0c0-1.17-.33-2.08-1.24-2.08s-1.25.91-1.25,2.08.34,2.08,1.25,2.08S8.54,13,8.54,11.86Z"/><path class="cls-2" d="M10.88,14.48l.6-1a1.72,1.72,0,0,0,1.27.49,1.64,1.64,0,0,0,1.59-1.79V12a2.1,2.1,0,0,1-1.64.82,2,2,0,0,1-2.16-2.07A2.23,2.23,0,0,1,13,8.57c1.93,0,2.74,1.49,2.74,3.28s-1.08,3.28-3,3.28A2.79,2.79,0,0,1,10.88,14.48Zm3.45-3.42A1.28,1.28,0,0,0,13,9.77a1,1,0,0,0-1.13.93c0,.67.58,1,1.17,1A1.6,1.6,0,0,0,14.33,11.06Z"/><path class="cls-4" d="M8.61,26.41A1.74,1.74,0,0,1,10,24.26a1.93,1.93,0,0,1,2.27,1.35,1.76,1.76,0,0,1-1.35,2.16,1.92,1.92,0,0,1-2.27-1.36"/><rect class="cls-3" x="24.03" width="22" height="8.28" rx="0.92"/><path class="cls-2" d="M30.82,6.46V5.55H28.58V4.82l1.86-2.74h1.38V4.73h.6v.82h-.6v.91Zm0-3.55L29.56,4.73h1.26Z"/><path class="cls-2" d="M36.17,6.46,35,4.86l-1.18,1.6H32.63l1.7-2.24L32.74,2.08h1.18L35,3.58l1.06-1.5h1.2l-1.6,2.13,1.7,2.25Z"/><path class="cls-2" d="M37.64,4.28A2.08,2.08,0,0,1,39.82,2a2.17,2.17,0,0,1,1.38.45l-.45.72a1.26,1.26,0,0,0-.93-.35,1.18,1.18,0,0,0-1.17,1.25.31.31,0,0,0,0,.09,1.52,1.52,0,0,1,1.2-.57A1.45,1.45,0,0,1,41.46,5a1.61,1.61,0,0,1-1.8,1.5C38.23,6.54,37.64,5.51,37.64,4.28Zm2.8.79c0-.46-.42-.66-.87-.66a1.17,1.17,0,0,0-.91.42.9.9,0,0,0,.94.88C40.14,5.71,40.44,5.37,40.44,5.07Z"/></g></g></svg>