<?xml version="1.0" encoding="utf-8"?>
<!-- Generator: Adobe Illustrator 25.2.3, SVG Export Plug-In . SVG Version: 6.00 Build 0)  -->
<svg version="1.1" id="Layer_1" xmlns="http://www.w3.org/2000/svg" width="145.528" height="70.532" xmlns:xlink="http://www.w3.org/1999/xlink" x="0px" y="0px"
	 viewBox="0 0 145.5 70.5" style="enable-background:new 0 0 145.5 70.5;" xml:space="preserve">
<style type="text/css">
	.st0{opacity:0.92;fill:#2D314E;enable-background:new    ;}
	.st1{fill:#676D81;}
	.st2{fill:#681758;}
	.st3{fill:none;}
	.st4{enable-background:new    ;}
	.st5{fill:#FFFFFF;}
</style>
<g id="_24_julho_novo" transform="translate(200.275 451.873)">
	<path id="Path_11" class="st0" d="M-127.3-384.5c-0.1,1.9-1.7,3.3-3.6,3.2c-1.9-0.1-3.3-1.7-3.2-3.6c0.1-1.8,1.6-3.2,3.4-3.2
		C-128.7-388-127.2-386.4-127.3-384.5z"/>
</g>
<g>
	<rect x="60.7" y="25" class="st1" width="79.5" height="27.5"/>
</g>
<rect x="23.2" y="25" class="st2" width="37.5" height="27.5"/>
<g>
	<rect x="92.8" y="6.4" class="st2" width="47.3" height="18.6"/>
</g>
<rect x="46.7" y="25" class="st3" width="93.5" height="27.5"/>
<g class="st4">
	<path class="st5" d="M77.5,42.9l0.9-1.6c0.4,0.4,0.9,0.7,1.6,0.7c1,0,1.6-0.7,1.6-1.6v-6.8h2.2v6.8c0,2.4-1.5,3.5-3.6,3.5
		C79.2,43.9,78.2,43.6,77.5,42.9z"/>
	<path class="st5" d="M92.4,43.7L91.8,42h-4.4l-0.6,1.7h-2.5l3.9-10.2h2.7l3.9,10.2H92.4z M89.6,35.7L88,40.1h3.2L89.6,35.7z"/>
	<path class="st5" d="M102.8,43.7L98,37.1v6.6h-2.2V33.5H98l4.7,6.4v-6.4h2.2v10.2H102.8z"/>
	<path class="st5" d="M106.9,43.7V33.5h7.2v1.9h-5v2.1h4.9v1.9h-4.9v2.4h5v1.9C114.1,43.7,106.9,43.7,106.9,43.7z"/>
	<path class="st5" d="M118.2,43.7v-8.3h-3v-1.9h8.1v1.9h-3v8.3H118.2z"/>
</g>
<rect x="9.2" y="25" class="st3" width="37.5" height="27.5"/>
<g>
	<path class="st5" d="M29.8,39.1c0-3.8,1.9-7.6,6.1-7.6c4.2,0,6.1,3.8,6.1,7.6s-1.9,7.6-6.1,7.6C31.6,46.7,29.8,42.9,29.8,39.1z
		 M38.7,39.1c0-2.7-0.8-4.8-2.9-4.8c-2.1,0-2.9,2.1-2.9,4.8s0.8,4.8,2.9,4.8C37.9,43.9,38.7,41.8,38.7,39.1z"/>
	<path class="st5" d="M43.1,44.3l1.6-2.1c1,1.1,2.6,1.7,4,1.7c1.8,0,2.8-0.8,2.8-1.9c0-1.2-0.9-1.7-2.9-1.7c-0.6,0-1.6,0-1.8,0v-2.8
		c0.3,0,1.3,0,1.8,0c1.6,0,2.7-0.5,2.7-1.6c0-1.2-1.2-1.7-2.7-1.7c-1.4,0-2.7,0.5-3.7,1.5l-1.6-2c1.2-1.3,3-2.3,5.6-2.3
		c3.4,0,5.5,1.5,5.5,4c0,1.8-1.6,3.1-3.2,3.3c1.5,0.2,3.4,1.3,3.4,3.5c0,2.5-2.3,4.3-5.8,4.3C46.2,46.7,44.2,45.7,43.1,44.3z"/>
</g>
<rect x="92.7" y="6.4" class="st3" width="47.3" height="18.6"/>
<g class="st4">
	<path class="st5" d="M106.9,21.1v-2.2h-5.1v-1.8l4.2-6.7h3.1v6.5h1.4v2h-1.4v2.2C109.1,21.1,106.9,21.1,106.9,21.1z M106.9,12.4
		l-2.9,4.5h2.9V12.4z"/>
	<path class="st5" d="M119,21.1l-2.7-3.9l-2.7,3.9h-2.7l3.9-5.5l-3.6-5.2h2.7l2.4,3.6l2.4-3.6h2.7l-3.6,5.2l3.9,5.5
		C121.7,21.1,119,21.1,119,21.1z"/>
	<path class="st5" d="M122.2,15.8c0-3.2,1.8-5.5,5-5.5c1.3,0,2.4,0.4,3.2,1.1l-1,1.7c-0.6-0.5-1.2-0.8-2.1-0.8c-1.6,0-2.7,1.3-2.7,3
		c0,0.1,0,0.1,0,0.2c0.5-0.7,1.6-1.4,2.7-1.4c1.9,0,3.6,1.2,3.6,3.5c0,2.1-1.7,3.7-4.1,3.7C123.6,21.3,122.2,18.8,122.2,15.8z
		 M128.6,17.7c0-1.1-1-1.6-2-1.6c-0.8,0-1.6,0.4-2.1,1c0.1,1,0.7,2.2,2.2,2.2C127.9,19.2,128.6,18.4,128.6,17.7z"/>
</g>
<polygon class="st2" points="23.2,52.5 58.3,61.4 39.6,49.8 "/>
</svg>
