<?xml version="1.0" encoding="utf-8"?>
<!-- Generator: Adobe Illustrator 25.2.3, SVG Export Plug-In . SVG Version: 6.00 Build 0)  -->
<svg version="1.1" id="Layer_1" xmlns="http://www.w3.org/2000/svg" width="145.528" height="70.532" xmlns:xlink="http://www.w3.org/1999/xlink" x="0px" y="0px"
	 viewBox="0 0 145.5 70.5" style="enable-background:new 0 0 145.5 70.5;" xml:space="preserve">
<style type="text/css">
	.st0{fill:#292332;}
	.st1{fill:#681758;}
	.st2{fill:#FFFFFF;stroke:#FFFFFF;stroke-width:0.5001;stroke-miterlimit:10.0019;}
	.st3{fill:#FFFFFF;stroke:#FFFFFF;stroke-width:0.7001;stroke-miterlimit:10.0019;}
	.st4{fill:#FFFFFF;}
	.st5{opacity:0.92;fill:#2D314E;enable-background:new    ;}
	.st6{fill:none;}
</style>
<g>
	<rect x="100.3" y="30.3" class="st0" width="45.6" height="22.2"/>
</g>
<rect x="70" y="30.3" class="st1" width="30.3" height="22.2"/>
<rect x="107.7" y="15.2" class="st1" width="38.2" height="15"/>
<g>
	<path class="st2" d="M106.5,45.7c-0.9,0-1.6-0.3-2.2-1l0.6-0.8c0.4,0.6,1,0.8,1.5,0.8c0.5,0,0.9-0.2,1.2-0.5s0.5-0.7,0.5-1.3v-5.8
		h1.1v5.8c0,0.9-0.2,1.5-0.7,2C107.9,45.4,107.3,45.7,106.5,45.7z"/>
	<path class="st2" d="M118,45.5h-1.2l-0.7-1.9h-4.2l-0.7,1.9H110l3.4-8.3h1.3L118,45.5z M115.7,42.8l-1.8-4.5l-1.8,4.5H115.7z"/>
	<path class="st2" d="M126,45.5h-1l-4.8-6.6v6.6h-1.1v-8.3h1.1l4.8,6.5v-6.5h1.1L126,45.5L126,45.5z"/>
	<path class="st2" d="M133.4,45.5h-5.5v-8.3h5.5v0.9H129v2.7h4.4v0.9H129v2.9h4.4V45.5z"/>
	<path class="st2" d="M138.2,45.5h-1.1v-7.4h-2.7v-0.9h6.3v0.9H138L138.2,45.5L138.2,45.5z"/>
</g>
<g>
	<path class="st3" d="M81.6,45.7c-0.6,0-1-0.1-1.5-0.4c-0.4-0.2-0.7-0.6-1-1c-0.2-0.4-0.4-0.9-0.6-1.3c-0.1-0.5-0.2-1-0.2-1.5
		c0-0.5,0.1-1,0.2-1.5c0.1-0.5,0.2-1,0.6-1.3c0.2-0.4,0.6-0.7,1-1s0.9-0.4,1.5-0.4c0.6,0,1,0.1,1.5,0.4c0.4,0.2,0.7,0.6,1,1
		c0.2,0.4,0.4,0.8,0.6,1.3c0.2,0.5,0.2,1,0.2,1.5c0,0.5-0.1,1-0.2,1.5c-0.1,0.5-0.2,1-0.6,1.3c-0.2,0.4-0.6,0.7-1,1
		S82.2,45.7,81.6,45.7z M80.4,44.3c0.3,0.3,0.7,0.5,1.2,0.5c0.5,0,0.9-0.2,1.2-0.5c0.3-0.3,0.6-0.7,0.7-1.2c0.1-0.5,0.2-1,0.2-1.7
		c0-0.7-0.1-1.2-0.2-1.7c-0.1-0.5-0.3-0.9-0.7-1.2S82.1,38,81.6,38s-0.9,0.2-1.2,0.5c-0.3,0.3-0.6,0.7-0.7,1.2
		c-0.1,0.5-0.2,1-0.2,1.7c0,0.6,0.1,1.2,0.2,1.7C79.9,43.5,80.1,44,80.4,44.3z"/>
	<path class="st3" d="M88.7,45.7c-0.7,0-1.2-0.1-1.7-0.4c-0.5-0.2-0.9-0.6-1.2-1l0.6-0.6c0.2,0.3,0.6,0.6,1,0.8
		c0.4,0.2,0.8,0.2,1.3,0.2c0.6,0,1.1-0.1,1.4-0.4c0.3-0.2,0.5-0.7,0.5-1.2s-0.2-0.8-0.6-1.2c-0.4-0.2-0.8-0.3-1.5-0.3
		c-0.5,0-0.8,0-0.8,0v-1c0.1,0,0.4,0,0.8,0c0.6,0,1-0.1,1.4-0.3c0.4-0.2,0.6-0.6,0.6-1c0-0.4-0.2-0.8-0.5-1
		c-0.3-0.2-0.8-0.4-1.3-0.4c-0.8,0-1.6,0.3-2.2,1l-0.6-0.6c0.7-0.8,1.7-1.3,2.8-1.3c0.8,0,1.5,0.2,2,0.6c0.5,0.4,0.8,0.9,0.8,1.6
		c0,0.6-0.2,1-0.6,1.3c-0.3,0.3-0.8,0.5-1.2,0.6c0.4,0.1,0.9,0.2,1.3,0.6c0.4,0.3,0.6,0.8,0.6,1.5s-0.2,1.3-0.8,1.7
		C90.4,45.5,89.6,45.7,88.7,45.7z"/>
</g>
<g>
	<path class="st4" d="M121,26.9h-1.1v-2.1h-4V24l3.6-5.3h1.5V24h1.2v0.9H121C121,24.8,121,26.9,121,26.9z M119.9,23.9v-4.4l-2.9,4.4
		H119.9z"/>
	<path class="st4" d="M130.6,26.9h-1.3l-2.7-3.6l-2.7,3.6h-1.3l3.2-4.3l-3.1-4h1.3l2.5,3.3l2.5-3.3h1.3l-3.1,4L130.6,26.9z"/>
	<path class="st4" d="M134.6,27.1c-0.6,0-1.1-0.1-1.5-0.3s-0.7-0.6-1-1c-0.2-0.4-0.4-0.9-0.6-1.4c-0.2-0.5-0.2-1.1-0.2-1.6
		c0-1.2,0.3-2.3,0.9-3.1c0.6-0.8,1.5-1.2,2.5-1.2c1,0,1.7,0.3,2.3,1l-0.6,0.8c-0.5-0.6-1.1-0.9-1.8-0.9c-0.7,0-1.4,0.3-1.8,1
		c-0.4,0.7-0.6,1.5-0.6,2.3V23c0.2-0.3,0.6-0.6,1-0.9c0.4-0.2,0.9-0.4,1.4-0.4c0.8,0,1.5,0.2,1.9,0.7c0.5,0.5,0.8,1.1,0.8,1.9
		c0,0.7-0.2,1.4-0.8,1.9C136.1,26.9,135.4,27.1,134.6,27.1z M134.5,26.1c0.6,0,1.1-0.2,1.4-0.6c0.3-0.4,0.5-0.8,0.5-1.2
		c0-0.6-0.2-1.1-0.6-1.4c-0.3-0.3-0.8-0.5-1.4-0.5c-0.4,0-0.8,0.1-1.2,0.3c-0.4,0.2-0.6,0.6-0.9,0.9c0.1,0.6,0.2,1.1,0.6,1.6
		C133.4,25.9,133.9,26.1,134.5,26.1z"/>
</g>
<g id="_24_julho_novo" transform="translate(200.275 451.873)">
	<path id="Path_11" class="st5" d="M-127.3-384.5c-0.1,1.9-1.7,3.3-3.6,3.2c-1.9-0.1-3.3-1.7-3.2-3.6c0.1-1.8,1.6-3.2,3.4-3.2
		C-128.7-388-127.2-386.4-127.3-384.5z"/>
</g>
<rect x="89" y="30.3" class="st6" width="75.5" height="22.2"/>
<rect x="9.2" y="25" class="st6" width="37.5" height="27.5"/>
<rect x="107.6" y="15.2" class="st6" width="38.2" height="15"/>
<polygon class="st1" points="70,52.5 70,60.9 75.1,51.2 "/>
</svg>