<?xml version="1.0" encoding="utf-8"?>
<!-- Generator: Adobe Illustrator 25.2.3, SVG Export Plug-In . SVG Version: 6.00 Build 0)  -->
<svg version="1.1" id="Layer_1" xmlns="http://www.w3.org/2000/svg" width="145.528" height="70.532" xmlns:xlink="http://www.w3.org/1999/xlink" x="0px" y="0px"
	 viewBox="0 0 145.5 70.5" style="enable-background:new 0 0 145.5 70.5;" xml:space="preserve">
<style type="text/css">
	.st0{fill:#676D81;}
	.st1{fill:#681758;}
	.st2{fill:#FFFFFF;}
	.st3{opacity:0.92;fill:#2D314E;enable-background:new    ;}
	.st4{fill:none;}
</style>
<g>
	<rect x="60.7" y="25" class="st0" width="79.5" height="27.5"/>
</g>
<rect x="23.2" y="25" class="st1" width="37.5" height="27.5"/>
<g>
	<rect x="92.8" y="6.4" class="st1" width="47.3" height="18.6"/>
</g>
<g>
	<g>
		<path class="st2" d="M80.4,44.1c-1.1,0-2-0.4-2.7-1.2l0.7-1c0.5,0.7,1.2,1,1.9,1c0.6,0,1.1-0.2,1.5-0.6c0.4-0.4,0.6-0.9,0.6-1.6
			v-7.2h1.3v7.2c0,1.1-0.3,1.9-0.9,2.5C82.2,43.8,81.4,44.1,80.4,44.1z"/>
		<path class="st2" d="M94.6,43.9h-1.5l-0.9-2.3H87l-0.9,2.3h-1.5l4.2-10.3h1.6L94.6,43.9z M91.8,40.5l-2.2-5.6l-2.2,5.6H91.8z"/>
		<path class="st2" d="M104.5,43.9h-1.2l-6-8.2v8.2h-1.3V33.6h1.3l6,8.1v-8.1h1.3V43.9z"/>
		<path class="st2" d="M113.7,43.9h-6.8V33.6h6.8v1.1h-5.5v3.3h5.4v1.1h-5.4v3.6h5.5V43.9z"/>
		<path class="st2" d="M119.6,43.9h-1.3v-9.2H115v-1.1h7.8v1.1h-3.3V43.9z"/>
	</g>
	<g>
		<path class="st2" d="M35.8,46.4c-1,0-1.8-0.2-2.6-0.7c-0.7-0.4-1.3-1-1.8-1.8s-0.8-1.6-1-2.4c-0.2-0.9-0.3-1.8-0.3-2.7
			s0.1-1.8,0.3-2.7c0.2-0.9,0.5-1.7,1-2.4s1-1.3,1.8-1.8c0.7-0.4,1.6-0.7,2.6-0.7c1,0,1.8,0.2,2.6,0.7c0.7,0.4,1.3,1,1.8,1.8
			s0.8,1.5,1,2.4c0.2,0.9,0.3,1.8,0.3,2.7s-0.1,1.8-0.3,2.7c-0.2,0.9-0.5,1.7-1,2.4s-1,1.3-1.8,1.8S36.8,46.4,35.8,46.4z M33.6,43.9
			c0.6,0.6,1.3,0.9,2.2,0.9c0.9,0,1.6-0.3,2.2-0.9c0.6-0.6,1-1.3,1.2-2.2c0.2-0.9,0.3-1.8,0.3-2.9c0-1.1-0.1-2-0.3-2.9
			c-0.2-0.9-0.6-1.6-1.2-2.2c-0.6-0.6-1.3-0.9-2.2-0.9c-0.9,0-1.6,0.3-2.2,0.9c-0.6,0.6-1,1.3-1.2,2.2c-0.2,0.9-0.3,1.8-0.3,2.9
			c0,1.1,0.1,2,0.3,2.9C32.6,42.5,33,43.3,33.6,43.9z"/>
		<path class="st2" d="M48.4,46.4c-1.2,0-2.2-0.2-3.1-0.7c-0.9-0.5-1.6-1-2.1-1.7l1.1-1.1c0.4,0.6,1,1.1,1.7,1.4
			c0.7,0.4,1.5,0.5,2.4,0.5c1.1,0,1.9-0.2,2.5-0.7c0.6-0.5,0.9-1.2,0.9-2c0-0.9-0.3-1.5-1-2c-0.7-0.4-1.5-0.6-2.7-0.6
			c-0.9,0-1.4,0-1.5,0v-1.7c0.2,0,0.7,0,1.5,0c1,0,1.8-0.2,2.5-0.6s1-1,1-1.8c0-0.8-0.3-1.4-0.9-1.8c-0.6-0.4-1.4-0.7-2.3-0.7
			c-1.5,0-2.8,0.6-3.9,1.8l-1-1.1c1.2-1.5,2.9-2.3,5-2.3c1.5,0,2.6,0.3,3.6,1c0.9,0.7,1.4,1.6,1.4,2.8c0,1-0.3,1.7-1,2.3
			c-0.6,0.6-1.4,0.9-2.2,1.1c0.8,0.1,1.6,0.4,2.3,1.1c0.7,0.6,1.1,1.5,1.1,2.6c0,1.2-0.5,2.3-1.4,3C51.3,46,50,46.4,48.4,46.4z"/>
	</g>
	<g>
		<path class="st2" d="M109.2,20.9h-1.3v-2.6H103v-1.1l4.4-6.6h1.8v6.6h1.5v1.1h-1.5V20.9z M107.9,17.1v-5.4l-3.6,5.4H107.9z"/>
		<path class="st2" d="M121.1,20.9h-1.6l-3.3-4.4l-3.3,4.4h-1.6l4-5.3l-3.8-5h1.6l3.1,4.1l3.1-4.1h1.6l-3.8,5L121.1,20.9z"/>
		<path class="st2" d="M126.1,21.1c-0.7,0-1.3-0.1-1.8-0.4c-0.5-0.3-0.9-0.7-1.2-1.2s-0.5-1.1-0.7-1.7c-0.2-0.6-0.2-1.3-0.2-2
			c0-1.5,0.4-2.8,1.1-3.8c0.7-1,1.8-1.5,3.1-1.5c1.2,0,2.1,0.4,2.9,1.2l-0.7,1c-0.6-0.7-1.3-1.1-2.2-1.1c-0.9,0-1.7,0.4-2.2,1.2
			c-0.5,0.8-0.8,1.8-0.8,2.9V16c0.3-0.4,0.7-0.8,1.2-1.1c0.5-0.3,1.1-0.5,1.7-0.5c1,0,1.8,0.3,2.4,0.9c0.6,0.6,1,1.4,1,2.4
			c0,0.9-0.3,1.7-1,2.4S127.1,21.1,126.1,21.1z M126,19.9c0.7,0,1.3-0.2,1.7-0.7c0.4-0.5,0.6-1,0.6-1.5c0-0.7-0.2-1.3-0.7-1.7
			c-0.4-0.4-1-0.6-1.7-0.6c-0.5,0-1,0.1-1.5,0.4s-0.8,0.7-1.1,1.1c0.1,0.8,0.3,1.4,0.7,2C124.6,19.6,125.2,19.9,126,19.9z"/>
	</g>
</g>
<g id="_24_julho_novo" transform="translate(200.275 451.873)">
	<path id="Path_11" class="st3" d="M-127.3-384.5c-0.1,1.9-1.7,3.3-3.6,3.2c-1.9-0.1-3.3-1.7-3.2-3.6c0.1-1.8,1.6-3.2,3.4-3.2
		C-128.7-388-127.2-386.4-127.3-384.5z"/>
</g>
<rect x="46.7" y="25" class="st4" width="93.5" height="27.5"/>
<rect x="9.2" y="25" class="st4" width="37.5" height="27.5"/>
<rect x="92.7" y="6.4" class="st4" width="47.3" height="18.6"/>
<polygon class="st1" points="23.2,52.5 58.3,61.4 39.6,49.8 "/>
</svg>
