<?xml version="1.0" encoding="utf-8"?>
<!-- Generator: Adobe Illustrator 25.2.3, SVG Export Plug-In . SVG Version: 6.00 Build 0)  -->
<svg version="1.1" id="Layer_1" xmlns="http://www.w3.org/2000/svg" width="215.612" height="95.442" xmlns:xlink="http://www.w3.org/1999/xlink" x="0px" y="0px"
	 viewBox="0 0 215.6 95.4" style="enable-background:new 0 0 215.6 95.4;" xml:space="preserve">
<style type="text/css">
	.st0{opacity:0.92;fill:#2D314E;enable-background:new    ;}
	.st1{fill:none;}
	.st2{fill:#E84D46;}
	.st3{fill:#676D81;}
	.st4{fill:#292333;}
	.st5{fill:#FFFFFF;stroke:#FFFFFF;stroke-width:0.7;stroke-miterlimit:10;}
	.st6{fill:#FFFFFF;}
	.st7{fill:#FFFFFF;stroke:#FFFFFF;stroke-width:0.5;stroke-miterlimit:10;}
</style>
<g id="_24_julho_novo" transform="translate(200.275 451.873)">
	<path id="Path_11" class="st0" d="M-92.7-359.6c-0.1,1.9-1.7,3.3-3.6,3.2c-1.9-0.1-3.3-1.7-3.2-3.6c0.1-1.8,1.6-3.2,3.4-3.2
		C-94.1-363.2-92.6-361.5-92.7-359.6z"/>
</g>
<g id="kaunda" transform="translate(-446 -323.073)">
	<rect id="Rectangle_51" x="446" y="352" class="st1" width="81" height="39"/>
</g>
<rect x="105.2" y="29.9" class="st2" width="30.3" height="22.2"/>
<g>
	<rect x="169.7" y="14.8" class="st2" width="44.3" height="15"/>
</g>
<rect x="135.5" y="29.9" class="st3" width="78.6" height="22.2"/>
<g>
	<rect x="135.5" y="53.3" class="st4" width="78.5" height="22.2"/>
</g>
<rect x="105.2" y="53.3" class="st2" width="30.3" height="22.2"/>
<polygon class="st2" points="105.2,75.6 105.2,83.1 109.9,74.1 "/>
<g>
	<path class="st5" d="M118,45.2h-1v-7l-1.4,1.4L115,39l2.1-2.2h0.9L118,45.2L118,45.2z"/>
	<path class="st5" d="M124.4,45.2h-1v-2.1h-4v-0.8l3.6-5.3h1.4v5.3h1.2v0.9h-1.2V45.2z M123.3,42.1v-4.4l-2.9,4.4H123.3z"/>
</g>
<g>
	<path class="st6" d="M186,26.6h-1.1v-2.1h-4v-0.9l3.6-5.3h1.5v5.3h1.2v0.9H186V26.6z M185,23.5v-4.4l-2.9,4.4H185z"/>
	<path class="st6" d="M195.6,26.6h-1.3l-2.7-3.6l-2.7,3.6h-1.3l3.2-4.3l-3.1-4h1.3l2.5,3.3l2.5-3.3h1.3l-3.1,4L195.6,26.6z"/>
	<path class="st6" d="M199.6,26.7c-0.6,0-1.1-0.1-1.5-0.3c-0.4-0.2-0.7-0.6-1-1c-0.2-0.4-0.4-0.9-0.6-1.4s-0.2-1.1-0.2-1.6
		c0-1.2,0.3-2.3,0.9-3.1c0.6-0.8,1.5-1.2,2.5-1.2c1,0,1.7,0.3,2.3,1l-0.6,0.8c-0.5-0.6-1.1-0.9-1.8-0.9c-0.7,0-1.4,0.3-1.8,1
		c-0.4,0.6-0.6,1.5-0.6,2.3v0.3c0.2-0.3,0.6-0.6,1-0.9c0.4-0.2,0.9-0.4,1.4-0.4c0.8,0,1.5,0.2,1.9,0.7s0.8,1.1,0.8,1.9
		c0,0.7-0.2,1.4-0.8,1.9S200.5,26.7,199.6,26.7z M199.5,25.7c0.6,0,1.1-0.2,1.4-0.6c0.3-0.4,0.5-0.8,0.5-1.2c0-0.6-0.2-1.1-0.6-1.4
		c-0.3-0.3-0.8-0.5-1.4-0.5c-0.4,0-0.8,0.1-1.2,0.3s-0.6,0.6-0.9,0.9c0.1,0.6,0.2,1.1,0.6,1.6C198.4,25.5,198.9,25.7,199.5,25.7z"/>
</g>
<g>
	<path class="st7" d="M151.5,45.2h-1.3l-3.2-3.7l-0.8,1v2.8h-1.1v-8.4h1.1v4.3l3.7-4.3h1.3l-3.5,4L151.5,45.2z"/>
	<path class="st7" d="M159.8,45.2h-1.2l-0.7-1.9h-4.1l-0.7,1.9h-1.2l3.4-8.3h1.3L159.8,45.2z M157.7,42.4l-1.8-4.5l-1.8,4.5H157.7z"
		/>
	<path class="st7" d="M164,45.3c-1.1,0-1.9-0.3-2.5-0.9s-0.9-1.5-0.9-2.5v-5.1h1.1v5.1c0,0.8,0.2,1.4,0.6,1.9c0.4,0.4,1,0.6,1.8,0.6
		c0.7,0,1.4-0.2,1.8-0.6s0.6-1.1,0.6-1.9v-5.1h1.1v5.1c0,1.1-0.3,1.9-0.9,2.5C166,45.1,165.2,45.3,164,45.3z"/>
	<path class="st7" d="M176.3,45.2h-1l-4.9-6.6v6.6h-1.1v-8.3h1.1l4.9,6.5v-6.5h1.1V45.2z"/>
	<path class="st7" d="M181.1,45.2h-2.8v-8.3h2.8c1.3,0,2.3,0.4,3.1,1.2c0.8,0.8,1.2,1.8,1.2,3c0,1.2-0.4,2.2-1.2,3
		C183.4,44.8,182.4,45.2,181.1,45.2z M181.1,44.3c1,0,1.8-0.3,2.3-0.9c0.6-0.6,0.9-1.4,0.9-2.3s-0.3-1.7-0.9-2.3s-1.4-0.9-2.3-0.9
		h-1.8v6.5H181.1z"/>
	<path class="st7" d="M193.7,45.2h-1.2l-0.7-1.9h-4.1l-0.7,1.9h-1.2l3.4-8.3h1.3L193.7,45.2z M191.5,42.4l-1.8-4.5l-1.8,4.5H191.5z"
		/>
	<path class="st7" d="M205.2,45.2H204l-0.7-1.9h-4.1l-0.7,1.9h-1.2l3.4-8.3h1.3L205.2,45.2z M203,42.4l-1.8-4.5l-1.8,4.5H203z"/>
</g>
<g>
	<path class="st5" d="M117.8,68.6h-1v-6.9l-1.3,1.4l-0.6-0.6l2.1-2.1h0.9C117.8,60.4,117.8,68.6,117.8,68.6z"/>
	<path class="st5" d="M122.4,68.8c-1.3,0-2.2-0.4-2.9-1.3l0.6-0.7c0.6,0.7,1.3,1.1,2.2,1.1c0.6,0,1-0.2,1.3-0.5
		c0.3-0.3,0.5-0.7,0.5-1.2c0-0.6-0.2-1-0.5-1.3s-0.8-0.5-1.3-0.5c-0.7,0-1.3,0.3-1.9,0.8l-0.7-0.3v-4.4h5v0.9h-4v2.9
		c0.5-0.5,1.2-0.7,1.9-0.7c0.7,0,1.3,0.2,1.8,0.7c0.5,0.4,0.8,1.1,0.8,1.9c0,0.8-0.3,1.5-0.8,2C124,68.5,123.3,68.8,122.4,68.8z"/>
</g>
<g>
	<path class="st7" d="M151.7,68.6h-1.3l-3.2-3.7l-0.8,1v2.8h-1.1v-8.4h1.1v4.3l3.7-4.3h1.3l-3.5,4L151.7,68.6z"/>
	<path class="st7" d="M160,68.6h-1.1l-0.7-1.9H154l-0.7,1.9h-1.2l3.4-8.3h1.3L160,68.6z M157.8,65.8l-1.8-4.5l-1.8,4.5H157.8z"/>
	<path class="st7" d="M164.2,68.8c-1.1,0-1.9-0.3-2.5-0.9s-0.9-1.5-0.9-2.5v-5.1h1.1v5.1c0,0.8,0.2,1.4,0.6,1.9
		c0.4,0.4,1,0.6,1.8,0.6c0.7,0,1.4-0.2,1.8-0.6c0.4-0.4,0.6-1.1,0.6-1.9v-5.1h1.1v5.1c0,1.1-0.3,1.9-0.9,2.5
		C166.1,68.5,165.3,68.8,164.2,68.8z"/>
	<path class="st7" d="M176.5,68.6h-1l-4.9-6.6v6.6h-1.1v-8.3h1.1l4.9,6.5v-6.5h1.1L176.5,68.6L176.5,68.6z"/>
	<path class="st7" d="M181.3,68.6h-2.8v-8.3h2.8c1.3,0,2.3,0.4,3.1,1.2c0.8,0.8,1.2,1.8,1.2,3c0,1.2-0.4,2.2-1.2,3
		C183.6,68.3,182.6,68.6,181.3,68.6z M181.3,67.7c1,0,1.8-0.3,2.3-0.9s0.9-1.4,0.9-2.3c0-1-0.3-1.7-0.9-2.3
		c-0.6-0.6-1.4-0.9-2.3-0.9h-1.8v6.5H181.3z"/>
	<path class="st7" d="M194,68.6h-1.2l-0.7-1.9h-4.1l-0.7,1.9H186l3.4-8.3h1.3L194,68.6z M191.7,65.8l-1.8-4.5l-1.8,4.5H191.7z"/>
	<path class="st7" d="M202,68.6h-3.8v-8.3h3.7c0.7,0,1.3,0.2,1.7,0.6s0.6,0.9,0.6,1.5c0,0.5-0.2,0.9-0.4,1.3
		c-0.3,0.3-0.6,0.6-1.1,0.6c0.4,0.1,0.8,0.3,1.1,0.7c0.3,0.4,0.5,0.9,0.5,1.4c0,0.6-0.2,1.2-0.6,1.6C203.4,68.4,202.8,68.6,202,68.6
		z M201.8,63.9c0.5,0,0.8-0.2,1.1-0.4c0.2-0.2,0.4-0.6,0.4-1s-0.2-0.7-0.4-1c-0.2-0.2-0.6-0.4-1.1-0.4h-2.5v2.7L201.8,63.9
		L201.8,63.9z M201.9,67.7c0.5,0,0.9-0.2,1.1-0.4c0.2-0.2,0.4-0.6,0.4-1.1c0-0.4-0.2-0.7-0.4-1.1c-0.2-0.2-0.6-0.4-1.1-0.4h-2.6v2.9
		H201.9z"/>
</g>
</svg>
