<svg xmlns="http://www.w3.org/2000/svg" width="120" height="95.826" viewBox="0 0 54.33 40.82"><defs><style>.cls-1{fill:#292333;}.cls-2{fill:#fff;}.cls-3{fill:#e84d46;}.cls-4{fill:#2d314e;}.cls-5{fill:#676d81;}</style></defs><g id="Layer_2" data-name="Layer 2"><g id="Layer_1-2" data-name="Layer 1"><rect class="cls-1" x="12.33" y="19" width="42" height="12.24" rx="2.38"/><path class="cls-2" d="M25.27,27.17l-1.13-1.41-.29.34v1.07h-.8v-3.5h.8v1.56l1.32-1.56h1l-1.48,1.64,1.59,1.86Z"/><path class="cls-2" d="M29.26,27.17,29,26.58H27.41l-.23.59h-.91l1.45-3.5h1l1.44,3.5Zm-1-2.75-.59,1.5H28.8Z"/><path class="cls-2" d="M30.55,25.77v-2.1h.81v2.08a.88.88,0,0,0,1.76,0V23.67h.81v2.1c0,.87-.55,1.47-1.69,1.47S30.55,26.64,30.55,25.77Z"/><path class="cls-2" d="M37.3,27.17l-1.78-2.28v2.28h-.8v-3.5h.82l1.74,2.2v-2.2h.79v3.5Z"/><path class="cls-2" d="M38.86,27.17v-3.5h1.48a1.76,1.76,0,1,1,0,3.5Zm2.65-1.75a1.05,1.05,0,0,0-1.17-1.09h-.68v2.19h.68A1.09,1.09,0,0,0,41.51,25.42Z"/><path class="cls-2" d="M45.53,27.17l-.24-.59H43.68l-.23.59h-.91L44,23.67h1l1.44,3.5Zm-1-2.75-.59,1.5h1.17Z"/><path class="cls-2" d="M48.31,27.17v-3.5h2c.72,0,1.08.43,1.08.89a.8.8,0,0,1-.64.81.85.85,0,0,1,.71.85,1,1,0,0,1-1.08,1Zm2.24-2.48c0-.21-.17-.36-.44-.36h-1v.73h1C50.38,25.06,50.55,24.92,50.55,24.69Zm.07,1.43c0-.22-.17-.4-.48-.4h-1v.8h1C50.44,26.52,50.62,26.37,50.62,26.12Z"/><rect class="cls-3" x="1.8" y="16.77" width="16.7" height="16.7" rx="4" transform="translate(-14.79 14.53) rotate(-45)"/><path class="cls-2" d="M6.28,28V23.42L5.22,24.49l-.77-.8,2-2H7.63V28Z"/><path class="cls-2" d="M8.72,27.19l.76-.94a2.28,2.28,0,0,0,1.68.69c.75,0,1.18-.43,1.18-.94s-.42-.94-1.14-.94a1.85,1.85,0,0,0-1.34.51l-.94-.26V21.68h4.36v1.19h-3v1.55a2.06,2.06,0,0,1,3.44,1.52,2.24,2.24,0,0,1-2.54,2.2A3.18,3.18,0,0,1,8.72,27.19Z"/><path class="cls-4" d="M8.61,39.41A1.74,1.74,0,0,1,10,37.26a1.93,1.93,0,0,1,2.27,1.35,1.76,1.76,0,0,1-1.35,2.16,1.92,1.92,0,0,1-2.27-1.36"/><rect class="cls-5" x="12.33" y="5" width="42" height="12.24" rx="2.38"/><path class="cls-2" d="M25.27,13.17l-1.13-1.41-.29.34v1.07h-.8V9.67h.8v1.56l1.32-1.56h1l-1.48,1.64,1.59,1.86Z"/><path class="cls-2" d="M29.26,13.17,29,12.58H27.41l-.23.59h-.91l1.45-3.5h1l1.44,3.5Zm-1-2.75-.59,1.5H28.8Z"/><path class="cls-2" d="M30.55,11.77V9.67h.81v2.08a.88.88,0,0,0,1.76,0V9.67h.81v2.1c0,.87-.55,1.47-1.69,1.47S30.55,12.64,30.55,11.77Z"/><path class="cls-2" d="M37.3,13.17l-1.78-2.28v2.28h-.8V9.67h.82l1.74,2.2V9.67h.79v3.5Z"/><path class="cls-2" d="M38.86,13.17V9.67h1.48a1.76,1.76,0,1,1,0,3.5Zm2.65-1.75a1.05,1.05,0,0,0-1.17-1.09h-.68v2.19h.68A1.09,1.09,0,0,0,41.51,11.42Z"/><path class="cls-2" d="M45.53,13.17l-.24-.59H43.68l-.23.59h-.91L44,9.67h1l1.44,3.5Zm-1-2.75-.59,1.5h1.17Z"/><path class="cls-2" d="M50.9,13.17l-.23-.59H49.06l-.24.59h-.9l1.44-3.5h1l1.45,3.5Zm-1-2.75-.58,1.5h1.17Z"/><rect class="cls-3" x="1.8" y="2.77" width="16.7" height="16.7" rx="4" transform="translate(-4.89 10.43) rotate(-45)"/><path class="cls-2" d="M6.28,14V9.42L5.22,10.49l-.77-.8,2-2H7.63V14Z"/><path class="cls-2" d="M11.53,14V12.71h-3V11.65l2.53-4h1.86v3.84h.82v1.19h-.82V14Zm0-5.15L9.82,11.52h1.71Z"/><rect class="cls-3" x="32.33" width="22" height="8.28" rx="0.92"/><path class="cls-2" d="M39.12,6.46V5.55H36.88V4.82l1.86-2.74h1.38V4.73h.6v.82h-.6v.91Zm0-3.55L37.86,4.73h1.26Z"/><path class="cls-2" d="M44.47,6.46,43.3,4.86l-1.18,1.6H40.93l1.7-2.24L41,2.08h1.18l1.08,1.5,1.06-1.5h1.2L44,4.21l1.69,2.25Z"/><path class="cls-2" d="M45.94,4.28A2.08,2.08,0,0,1,48.12,2a2.12,2.12,0,0,1,1.38.45l-.45.72a1.24,1.24,0,0,0-.93-.35A1.18,1.18,0,0,0,47,4.08a.34.34,0,0,0,0,.1,1.52,1.52,0,0,1,1.2-.57A1.45,1.45,0,0,1,49.76,5,1.61,1.61,0,0,1,48,6.54C46.53,6.54,45.94,5.51,45.94,4.28Zm2.8.79c0-.46-.42-.66-.86-.66a1.18,1.18,0,0,0-.92.42.9.9,0,0,0,.94.88C48.44,5.71,48.74,5.37,48.74,5.07Z"/></g></g></svg>