<?xml version="1.0" encoding="utf-8"?>
<!-- Generator: Adobe Illustrator 25.2.3, SVG Export Plug-In . SVG Version: 6.00 Build 0)  -->
<svg version="1.1" id="Layer_1" xmlns="http://www.w3.org/2000/svg" width="215.612" height="95.442" xmlns:xlink="http://www.w3.org/1999/xlink" x="0px" y="0px"
	 viewBox="0 0 215.6 95.4" style="enable-background:new 0 0 215.6 95.4;" xml:space="preserve">
<style type="text/css">
	.st0{opacity:0.92;fill:#2D314E;enable-background:new    ;}
	.st1{fill:none;}
	.st2{fill:#E84D46;}
	.st3{fill:#676D81;}
	.st4{fill:#FFFFFF;}
	.st5{fill:#292333;}
</style>
<g id="_24_julho_novo" transform="translate(200.275 451.873)">
	<path id="Path_11" class="st0" d="M-92.7-359.6c-0.1,1.9-1.7,3.3-3.6,3.2c-1.9-0.1-3.3-1.7-3.2-3.6c0.1-1.8,1.6-3.2,3.4-3.2
		C-94.1-363.2-92.6-361.5-92.7-359.6z"/>
</g>
<g id="kaunda" transform="translate(-446 -323.073)">
	<rect id="Rectangle_51" x="446" y="352" class="st1" width="81" height="39"/>
</g>
<rect x="80.6" y="27.2" class="st2" width="37.5" height="27.5"/>
<g>
	<rect x="160.4" y="8.6" class="st2" width="54.8" height="18.6"/>
</g>
<rect x="118.1" y="27.2" class="st3" width="97.2" height="27.5"/>
<g>
	<path class="st4" d="M135.7,46l-3.1-4.1l-0.8,1V46h-2.2V35.9h2.2v4.5l3.6-4.5h2.7l-4,4.8l4.3,5.4h-2.7V46z"/>
	<path class="st4" d="M146.4,46l-0.6-1.7h-4.4l-0.6,1.7h-2.5l3.9-10.2h2.7l3.9,10.2H146.4z M143.6,38l-1.6,4.4h3.2L143.6,38z"/>
	<path class="st4" d="M149.3,42v-6.1h2.2v6c0,1.4,0.8,2.4,2.4,2.4c1.6,0,2.4-1,2.4-2.4v-6h2.2V42c0,2.5-1.5,4.3-4.6,4.3
		C150.8,46.2,149.3,44.5,149.3,42z"/>
	<path class="st4" d="M167.5,46l-4.8-6.6V46h-2.2V35.9h2.2l4.7,6.4v-6.4h2.2V46H167.5z"/>
	<path class="st4" d="M171.6,46V35.9h4c3.2,0,5.4,2,5.4,5.1c0,3.1-2.2,5.1-5.4,5.1h-4V46z M178.8,40.9c0-1.8-1.1-3.2-3.2-3.2h-1.9
		v6.4h1.8C177.6,44.1,178.8,42.7,178.8,40.9z"/>
	<path class="st4" d="M189.1,46l-0.6-1.7h-4.4l-0.6,1.7H181l3.9-10.2h2.7l3.9,10.2H189.1z M186.2,38l-1.6,4.4h3.2L186.2,38z"/>
	<path class="st4" d="M203.4,46l-0.6-1.7h-4.4l-0.6,1.7h-2.5l3.9-10.2h2.7l3.9,10.2H203.4z M200.6,38l-1.6,4.4h3.2L200.6,38z"/>
</g>
<g>
	<path class="st4" d="M92.7,48.3V37.6l-2.4,2.5l-1.8-1.9l4.6-4.6h2.7v14.7H92.7z"/>
	<path class="st4" d="M104.9,48.3v-3h-7v-2.5l5.8-9.2h4.3v8.9h1.9v2.8H108v3H104.9z M104.9,36.4l-4,6.1h4V36.4z"/>
</g>
<g>
	<path class="st4" d="M178.4,23.2V21h-5.1v-1.8l4.2-6.7h3.1V19h1.4v2h-1.4v2.2H178.4z M178.4,14.6l-2.9,4.4h2.9V14.6z"/>
	<path class="st4" d="M190.4,23.2l-2.7-3.9l-2.7,3.9h-2.7l3.9-5.5l-3.6-5.2h2.7l2.4,3.7l2.4-3.7h2.7l-3.6,5.2l3.9,5.5H190.4z"/>
	<path class="st4" d="M193.7,17.9c0-3.2,1.8-5.5,5-5.5c1.3,0,2.4,0.4,3.2,1.1l-1,1.7c-0.6-0.5-1.2-0.8-2.1-0.8c-1.6,0-2.7,1.3-2.7,3
		c0,0.1,0,0.1,0,0.2c0.5-0.7,1.6-1.4,2.7-1.4c1.9,0,3.6,1.2,3.6,3.5c0,2.1-1.7,3.7-4.1,3.7C195,23.4,193.7,20.9,193.7,17.9z
		 M200,19.8c0-1.1-1-1.6-2-1.6c-0.8,0-1.6,0.4-2.1,1c0.1,1,0.7,2.2,2.2,2.2C199.4,21.4,200,20.6,200,19.8z"/>
</g>
<g>
	<rect x="118.1" y="56.2" class="st5" width="97.1" height="27.5"/>
</g>
<rect x="80.6" y="56.2" class="st2" width="37.5" height="27.5"/>
<g>
	<path class="st4" d="M135.9,75l-3.1-4.1l-0.8,1V75h-2.2V64.8h2.2v4.5l3.6-4.5h2.7l-4,4.8l4.3,5.4H135.9z"/>
	<path class="st4" d="M146.6,75l-0.6-1.7h-4.4L141,75h-2.5l3.9-10.2h2.7L149,75H146.6z M143.7,67l-1.6,4.4h3.2L143.7,67z"/>
	<path class="st4" d="M149.5,70.9v-6.1h2.2v6c0,1.4,0.8,2.4,2.4,2.4c1.6,0,2.4-1,2.4-2.4v-6h2.2v6.1c0,2.5-1.5,4.3-4.6,4.3
		C151,75.2,149.5,73.5,149.5,70.9z"/>
	<path class="st4" d="M167.7,75l-4.8-6.6V75h-2.2V64.8h2.2l4.7,6.4v-6.4h2.2V75H167.7z"/>
	<path class="st4" d="M171.8,75V64.8h4c3.2,0,5.4,2,5.4,5.1c0,3.1-2.2,5.1-5.4,5.1H171.8z M179,69.9c0-1.8-1.1-3.2-3.2-3.2h-1.9v6.4
		h1.8C177.8,73.1,179,71.7,179,69.9z"/>
	<path class="st4" d="M189.2,75l-0.6-1.7h-4.4l-0.6,1.7h-2.5l3.9-10.2h2.7l3.9,10.2H189.2z M186.4,67l-1.6,4.4h3.2L186.4,67z"/>
	<path class="st4" d="M196.5,75V64.8h5.4c1.9,0,2.9,1.2,2.9,2.6c0,1.3-0.8,2.1-1.8,2.3c1.1,0.2,2,1.2,2,2.5c0,1.5-1,2.8-3,2.8
		C202,75,196.5,75,196.5,75z M202.6,67.8c0-0.6-0.5-1.1-1.2-1.1h-2.7v2.1h2.7C202.1,68.9,202.6,68.5,202.6,67.8z M202.8,72
		c0-0.6-0.5-1.2-1.3-1.2h-2.8v2.3h2.8C202.3,73.1,202.8,72.7,202.8,72z"/>
</g>
<g>
	<path class="st4" d="M92.6,77.3V66.6l-2.4,2.5l-1.8-1.9l4.6-4.6h2.7v14.7C95.7,77.3,92.6,77.3,92.6,77.3z"/>
	<path class="st4" d="M98.3,75.3l1.7-2.2c1,1,2.4,1.6,3.9,1.6c1.7,0,2.7-1,2.7-2.2c0-1.3-1-2.2-2.6-2.2c-1.2,0-2.2,0.4-3.1,1.2
		L98.7,71v-8.4h10.1v2.8h-7V69c0.7-0.7,1.9-1.2,3.2-1.2c2.5,0,4.7,1.8,4.7,4.8c0,3.1-2.3,5.1-5.9,5.1
		C101.4,77.5,99.5,76.7,98.3,75.3z"/>
</g>
<polygon class="st2" points="80.6,83.7 99.1,89 88.5,81.9 "/>
</svg>
