<?xml version="1.0" encoding="utf-8"?>
<!-- Generator: Adobe Illustrator 25.2.3, SVG Export Plug-In . SVG Version: 6.00 Build 0)  -->
<svg version="1.1" id="Layer_1" xmlns="http://www.w3.org/2000/svg" width="215.612" height="95.442" xmlns:xlink="http://www.w3.org/1999/xlink" x="0px" y="0px"
	 viewBox="0 0 215.6 95.4" style="enable-background:new 0 0 215.6 95.4;" xml:space="preserve">
<style type="text/css">
	.st0{opacity:0.92;fill:#2D314E;enable-background:new    ;}
	.st1{fill:none;}
	.st2{fill:#E84D46;}
	.st3{fill:#676D81;}
	.st4{fill:#292333;}
	.st5{fill:#FFFFFF;}
</style>
<g id="_24_julho_novo" transform="translate(200.275 451.873)">
	<path id="Path_11" class="st0" d="M-92.7-359.6c-0.1,1.9-1.7,3.3-3.6,3.2c-1.9-0.1-3.3-1.7-3.2-3.6c0.1-1.8,1.6-3.2,3.4-3.2
		C-94.1-363.2-92.6-361.5-92.7-359.6z"/>
</g>
<g id="kaunda" transform="translate(-446 -323.073)">
	<rect id="Rectangle_51" x="446" y="352" class="st1" width="81" height="39"/>
</g>
<rect x="80.6" y="27.2" class="st2" width="37.5" height="27.5"/>
<g>
	<rect x="160.4" y="8.6" class="st2" width="54.8" height="18.6"/>
</g>
<rect x="118.1" y="27.2" class="st3" width="97.2" height="27.5"/>
<g>
	<rect x="118.1" y="56.2" class="st4" width="97.1" height="27.5"/>
</g>
<rect x="80.6" y="56.2" class="st2" width="37.5" height="27.5"/>
<polygon class="st2" points="80.6,83.7 99.1,89 88.5,81.9 "/>
<g>
	<path class="st5" d="M95.2,48.3h-1.8V36L91,38.5L90,37.4l3.7-3.8h1.6V48.3z"/>
	<path class="st5" d="M106.5,48.3h-1.8v-3.7h-7v-1.5l6.3-9.4h2.5V43h2.1v1.6h-2.1V48.3z M104.6,43v-7.7L99.5,43H104.6z"/>
</g>
<g>
	<path class="st5" d="M180.5,23.1h-1.3v-2.6h-4.9v-1.1l4.4-6.6h1.8v6.6h1.5v1.1h-1.5V23.1z M179.3,19.3v-5.4l-3.6,5.4H179.3z"/>
	<path class="st5" d="M192.4,23.1h-1.6l-3.3-4.4l-3.3,4.4h-1.6l4-5.3l-3.8-5h1.6l3.1,4.1l3.1-4.1h1.6l-3.8,5L192.4,23.1z"/>
	<path class="st5" d="M197.4,23.3c-0.7,0-1.3-0.1-1.8-0.4c-0.5-0.3-0.9-0.7-1.2-1.2s-0.5-1.1-0.7-1.7c-0.2-0.6-0.2-1.3-0.2-2
		c0-1.5,0.4-2.8,1.1-3.8c0.7-1,1.8-1.5,3.1-1.5c1.2,0,2.1,0.4,2.9,1.2l-0.7,1c-0.6-0.7-1.3-1.1-2.2-1.1c-0.9,0-1.7,0.4-2.2,1.2
		c-0.5,0.8-0.8,1.8-0.8,2.9v0.4c0.3-0.4,0.7-0.8,1.2-1.1c0.5-0.3,1.1-0.5,1.7-0.5c1,0,1.8,0.3,2.4,0.9c0.6,0.6,1,1.4,1,2.4
		c0,0.9-0.3,1.7-1,2.4S198.5,23.3,197.4,23.3z M197.3,22.1c0.7,0,1.3-0.2,1.7-0.7c0.4-0.5,0.6-1,0.6-1.5c0-0.7-0.2-1.3-0.7-1.7
		c-0.4-0.4-1-0.6-1.7-0.6c-0.5,0-1,0.1-1.5,0.4s-0.8,0.7-1.1,1.1c0.1,0.8,0.3,1.4,0.7,2C195.9,21.8,196.5,22.1,197.3,22.1z"/>
</g>
<g>
	<path class="st5" d="M137.9,46.1h-1.6l-3.9-4.6l-1,1.2v3.5H130V35.8h1.3v5.3l4.6-5.3h1.6l-4.3,4.9L137.9,46.1z"/>
	<path class="st5" d="M148.2,46.1h-1.5l-0.9-2.3h-5.1l-0.9,2.3h-1.5l4.2-10.3h1.6L148.2,46.1z M145.5,42.7l-2.2-5.6l-2.2,5.6H145.5z
		"/>
	<path class="st5" d="M153.4,46.3c-1.4,0-2.4-0.4-3.1-1.1c-0.7-0.7-1.1-1.8-1.1-3.1v-6.3h1.3v6.3c0,1,0.2,1.7,0.8,2.3
		c0.5,0.5,1.2,0.8,2.2,0.8c0.9,0,1.7-0.3,2.2-0.8c0.5-0.5,0.8-1.3,0.8-2.3v-6.3h1.3v6.3c0,1.3-0.4,2.3-1.1,3.1
		C155.8,46,154.8,46.3,153.4,46.3z"/>
	<path class="st5" d="M168.6,46.1h-1.2l-6-8.2v8.2H160V35.8h1.3l6,8.1v-8.1h1.3V46.1z"/>
	<path class="st5" d="M174.5,46.1H171V35.8h3.5c1.6,0,2.9,0.5,3.8,1.5c1,1,1.5,2.2,1.5,3.7c0,1.5-0.5,2.7-1.5,3.7
		C177.4,45.7,176.1,46.1,174.5,46.1z M174.5,45c1.2,0,2.2-0.4,2.9-1.1s1.1-1.7,1.1-2.9c0-1.2-0.4-2.1-1.1-2.9
		c-0.7-0.8-1.7-1.1-2.9-1.1h-2.2v8H174.5z"/>
	<path class="st5" d="M190.1,46.1h-1.5l-0.9-2.3h-5.1l-0.9,2.3h-1.5l4.2-10.3h1.6L190.1,46.1z M187.4,42.7l-2.2-5.6l-2.2,5.6H187.4z
		"/>
	<path class="st5" d="M204.3,46.1h-1.5l-0.9-2.3h-5.1l-0.9,2.3h-1.5l4.2-10.3h1.6L204.3,46.1z M201.6,42.7l-2.2-5.6l-2.2,5.6H201.6z
		"/>
</g>
<g>
	<path class="st5" d="M94.9,77.3h-1.8V65l-2.4,2.5l-1.1-1.1l3.7-3.8h1.6V77.3z"/>
	<path class="st5" d="M103.2,77.6c-2.3,0-4-0.8-5.2-2.4l1.1-1.2c1,1.3,2.4,2,4,2c1,0,1.8-0.3,2.4-0.9c0.6-0.6,0.9-1.3,0.9-2.2
		c0-1-0.3-1.7-0.9-2.3c-0.6-0.6-1.4-0.9-2.4-0.9c-1.3,0-2.4,0.5-3.4,1.4l-1.3-0.5v-7.9h9v1.6h-7.1v5.1c0.9-0.9,2.1-1.3,3.4-1.3
		c1.3,0,2.4,0.4,3.3,1.3c0.9,0.8,1.4,2,1.4,3.4s-0.5,2.6-1.5,3.5C106,77.1,104.7,77.6,103.2,77.6z"/>
</g>
<g>
	<path class="st5" d="M138.1,75.1h-1.6l-3.9-4.6l-1,1.2v3.5h-1.3V64.8h1.3v5.3l4.6-5.3h1.6l-4.3,4.9L138.1,75.1z"/>
	<path class="st5" d="M148.4,75.1H147l-0.9-2.3h-5.1l-0.9,2.3h-1.5l4.2-10.3h1.6L148.4,75.1z M145.7,71.7l-2.2-5.6l-2.2,5.6H145.7z"
		/>
	<path class="st5" d="M153.6,75.3c-1.4,0-2.4-0.4-3.1-1.1c-0.7-0.7-1.1-1.8-1.1-3.1v-6.3h1.3v6.3c0,1,0.2,1.7,0.8,2.3
		c0.5,0.5,1.2,0.8,2.2,0.8c0.9,0,1.7-0.3,2.2-0.8s0.8-1.3,0.8-2.3v-6.3h1.3v6.3c0,1.3-0.4,2.3-1.1,3.1C156,75,155,75.3,153.6,75.3z"
		/>
	<path class="st5" d="M168.8,75.1h-1.2l-6-8.2v8.2h-1.3V64.8h1.3l6,8.1v-8.1h1.3V75.1z"/>
	<path class="st5" d="M174.8,75.1h-3.5V64.8h3.5c1.6,0,2.9,0.5,3.8,1.5c1,1,1.5,2.2,1.5,3.7c0,1.5-0.5,2.7-1.5,3.7
		C177.6,74.7,176.3,75.1,174.8,75.1z M174.8,74c1.2,0,2.2-0.4,2.9-1.1s1.1-1.7,1.1-2.9c0-1.2-0.4-2.1-1.1-2.9
		c-0.7-0.8-1.7-1.1-2.9-1.1h-2.2v8H174.8z"/>
	<path class="st5" d="M190.4,75.1h-1.5l-0.9-2.3h-5.1l-0.9,2.3h-1.5l4.2-10.3h1.6L190.4,75.1z M187.6,71.7l-2.2-5.6l-2.2,5.6H187.6z
		"/>
	<path class="st5" d="M200.4,75.1h-4.7V64.8h4.6c0.9,0,1.6,0.2,2.1,0.7c0.5,0.5,0.8,1.1,0.8,1.9c0,0.6-0.2,1.1-0.5,1.6
		c-0.4,0.4-0.8,0.7-1.3,0.8c0.5,0.1,1,0.4,1.4,0.9c0.4,0.5,0.6,1.1,0.6,1.7c0,0.8-0.3,1.5-0.8,2C202.1,74.9,201.4,75.1,200.4,75.1z
		 M200.1,69.3c0.6,0,1-0.2,1.3-0.5c0.3-0.3,0.5-0.7,0.5-1.2c0-0.5-0.2-0.9-0.5-1.2c-0.3-0.3-0.8-0.5-1.3-0.5H197v3.3H200.1z
		 M200.2,74c0.6,0,1.1-0.2,1.4-0.5c0.3-0.3,0.5-0.8,0.5-1.3c0-0.5-0.2-0.9-0.5-1.3c-0.3-0.3-0.8-0.5-1.4-0.5H197V74H200.2z"/>
</g>
</svg>
