<?xml version="1.0" encoding="utf-8"?>
<!-- Generator: Adobe Illustrator 25.2.3, SVG Export Plug-In . SVG Version: 6.00 Build 0)  -->
<svg version="1.1" id="Layer_1" xmlns="http://www.w3.org/2000/svg" xmlns:xlink="http://www.w3.org/1999/xlink" x="0px" y="0px"
	 viewBox="0 0 841.9 324.1" style="enable-background:new 0 0 841.9 324.1;" xml:space="preserve">
<style type="text/css">
	.st0{fill:#EF3D64;}
</style>
<g>
	<path class="st0" d="M688,50c-3.6,0-6.5,0.3-8.9,0.9c-2.4,0.6-4.3,1.6-5.7,3c-1.4,1.4-2.4,3.3-3,5.6c-0.6,2.3-0.9,5.3-0.9,8.8v62
		c0,3.6,0.3,6.5,0.9,8.8c0.6,2.3,1.6,4.2,3,5.6c1.4,1.4,3.3,2.4,5.7,3c2.4,0.6,5.3,0.9,8.9,0.9h33.2c6.8,0,13.2-1.3,19.2-3.9
		c6-2.6,11.2-6.1,15.6-10.6c4.5-4.5,8-9.7,10.6-15.6c2.6-6,3.9-12.4,3.9-19.2c0-6.8-1.3-13.2-3.9-19.2c-2.6-6-6.1-11.2-10.6-15.6
		c-4.5-4.5-9.7-8-15.6-10.6c-6-2.6-12.4-3.9-19.2-3.9H688L688,50z"/>
	<path d="M145.2,248.8c-5.7,3.5-12.9,4.3-18.4,4.3c-15.1,0-28.3-12.2-28.3-30.8c0-19.4,10.2-33,26.3-33c7.5,0,15.9,2.9,20.4,7.7
		V248.8L145.2,248.8z M145.2,173.8c-6.3-4.1-14.1-5.9-21.2-5.9c-30.8,0-52.6,22.4-52.6,54.3c0,33.9,27.1,51.8,55.3,51.8
		c14.3,0,30-3.5,44.1-12.2V110.3h-25.7V173.8L145.2,173.8z M254.1,251c-4.5,2.6-11.2,4.1-19,4.1c-12.6,0-20.4-6.7-20.4-17.1
		c0-8.8,8.8-13.7,18.6-13.7c8.2,0,16.7,3.7,20.8,7.3V251L254.1,251z M278.6,208.6c0-24.7-8.8-40.6-42.2-40.6
		c-16.1,0-28.5,4.1-37.5,8.4l7.5,18c3.9-1.8,14.9-5.9,27.9-5.9c13.7,0,19.8,5.7,19.8,13.9v10.2c-5.7-4.3-18.2-6.7-25.1-6.7
		c-18.8,0-40.8,8.6-40.8,31.6c0,19.4,14.1,36.5,44.9,36.5c23.2,0,37.9-6.3,45.5-12.4V208.6L278.6,208.6z M327.5,271.2V110.3h-25.7
		v160.9H327.5L327.5,271.2z M378.7,271.2V170.9H353v100.3H378.7L378.7,271.2z M365.7,154.2c9.4,0,16.1-6.5,16.1-16.1
		c0-9.4-6.3-16.1-16.1-16.1c-9.2,0-16.1,6.5-16.1,16.1C349.6,147.8,356.5,154.2,365.7,154.2L365.7,154.2z M553.1,271.2v-67.5
		c0-24.5-11.4-35.7-32-35.7c-15.1,0-27.7,9-35.7,15.1c-2.6-5.3-8.2-15.1-24.3-15.1c-15.3,0-26.9,9.2-31.2,13.3v-10.4h-25.7v100.3
		h25.7v-69.8c3.1-3.9,12.2-10.8,20.6-10.8c9.6,0,15.3,4.9,15.3,16.5v64.2h25.7v-70c4.1-4.5,12.6-10.6,22-10.6
		c9.4,0,13.9,5.9,13.9,17.5v63.2H553.1L553.1,271.2z M635.9,251c-4.5,2.6-11.2,4.1-19,4.1c-12.6,0-20.4-6.7-20.4-17.1
		c0-8.8,8.8-13.7,18.6-13.7c8.2,0,16.7,3.7,20.8,7.3V251L635.9,251z M660.4,208.6c0-24.7-8.8-40.6-42.2-40.6
		c-16.1,0-28.5,4.1-37.5,8.4l7.5,18c3.9-1.8,14.9-5.9,27.9-5.9c13.7,0,19.8,5.7,19.8,13.9v10.2c-5.7-4.3-18.2-6.7-25.1-6.7
		c-18.8,0-40.8,8.6-40.8,31.6c0,19.4,14.1,36.5,44.9,36.5c23.2,0,37.9-6.3,45.5-12.4V208.6L660.4,208.6z"/>
</g>
</svg>
