<svg xmlns="http://www.w3.org/2000/svg" width="234.814" height="84.965" viewBox="0 0 234.814 84.965">
  <g id="maritimo" transform="translate(-104 -349.572)">
    <g id="ponto_final_novo" transform="translate(200.275 349.663)">
      <path id="Path_10" data-name="Path 10" d="M195.427,293.825a3.123,3.123,0,1,1-3.117-3.312,3.209,3.209,0,0,1,3.117,3.312Z" transform="translate(-167.277 -211.885)" fill="#2d314e" opacity="0.92"/>
      <g id="Group_18" data-name="Group 18" transform="translate(85.32 -0.091)">
        <rect id="Rectangle_10" data-name="Rectangle 10" width="51.75" height="21.994"/>
        <path id="_12x3" data-name="12x3" d="M.91-7.137q.377-.156.787-.358t.8-.442q.39-.241.747-.507a5.131,5.131,0,0,0,.643-.565H5.239V0H3.3V-6.487a5.9,5.9,0,0,1-.871.474Q1.95-5.8,1.5-5.642ZM13.7-6.643a2.385,2.385,0,0,1-.195.949A4.382,4.382,0,0,1,13-4.817,7.191,7.191,0,0,1,12.3-4q-.39.39-.767.741-.2.182-.422.409t-.436.462q-.208.234-.371.435a1.081,1.081,0,0,0-.2.332h3.874V0H7.969a2.1,2.1,0,0,1-.026-.364V-.676a3.141,3.141,0,0,1,.2-1.144,4.277,4.277,0,0,1,.527-.968,6.1,6.1,0,0,1,.734-.839q.409-.39.812-.78.312-.3.585-.566a6.447,6.447,0,0,0,.481-.52A2.373,2.373,0,0,0,11.609-6a1.215,1.215,0,0,0,.117-.514.927.927,0,0,0-.325-.806,1.343,1.343,0,0,0-.806-.234,1.916,1.916,0,0,0-.656.11,3.322,3.322,0,0,0-.559.26,3.442,3.442,0,0,0-.436.3q-.182.149-.273.241L7.709-7.995a4.906,4.906,0,0,1,1.332-.878,3.907,3.907,0,0,1,1.632-.344,4.527,4.527,0,0,1,1.365.182,2.552,2.552,0,0,1,.943.514,1.991,1.991,0,0,1,.546.806A3.076,3.076,0,0,1,13.7-6.643Zm4.433,1.885,1.352-2.08h2l-2.34,3.289q.78.975,1.417,1.9A15.627,15.627,0,0,1,21.58,0H19.5l-.26-.488q-.156-.292-.351-.611t-.41-.637q-.214-.319-.422-.579-.2.247-.4.546t-.383.6q-.182.306-.358.6T16.614,0H14.638a8.517,8.517,0,0,1,.429-.767q.273-.442.592-.917t.67-.949q.351-.474.689-.891-.585-.819-1.17-1.658L14.69-6.838h2.093ZM24.544.195A6.405,6.405,0,0,1,23.8.149Q23.413.1,23.049.026t-.663-.169a3.819,3.819,0,0,1-.468-.169L22.3-1.924q.338.143.865.306a4.491,4.491,0,0,0,1.306.162,2.072,2.072,0,0,0,1.313-.338,1.112,1.112,0,0,0,.416-.91,1.1,1.1,0,0,0-.149-.592,1.143,1.143,0,0,0-.41-.39,1.819,1.819,0,0,0-.618-.208,4.71,4.71,0,0,0-.76-.059H23.5v-1.56h.858a2.879,2.879,0,0,0,.552-.052,1.475,1.475,0,0,0,.475-.175.919.919,0,0,0,.332-.338,1.069,1.069,0,0,0,.123-.54.85.85,0,0,0-.1-.429.934.934,0,0,0-.267-.3A1.162,1.162,0,0,0,25.1-7.52a1.648,1.648,0,0,0-.436-.059,3.06,3.06,0,0,0-1.033.169,4.315,4.315,0,0,0-.865.416l-.689-1.417q.208-.13.488-.273a4.811,4.811,0,0,1,.618-.26,5.643,5.643,0,0,1,.721-.195,4.071,4.071,0,0,1,.813-.078,4.444,4.444,0,0,1,1.372.188,2.578,2.578,0,0,1,.956.533,2.148,2.148,0,0,1,.559.806,2.722,2.722,0,0,1,.182,1.007,1.99,1.99,0,0,1-.3,1.034,1.972,1.972,0,0,1-.806.76,2.335,2.335,0,0,1,1.086.852,2.362,2.362,0,0,1,.384,1.359,3.1,3.1,0,0,1-.208,1.15,2.32,2.32,0,0,1-.65.91,3.119,3.119,0,0,1-1.125.6A5.425,5.425,0,0,1,24.544.195Z" transform="translate(10.921 15.525)" fill="#fff"/>
      </g>
      <g id="Group_45" data-name="Group 45" transform="translate(28.509 21.904)">
        <path id="Path_59" data-name="Path 59" d="M289.651,299.383l-89.337-1.572,2.361-27.536h93.908l1.657,19.156Z" transform="translate(-188.21 -268.355)" fill="#9fa1a4" opacity="0.5"/>
        <path id="Path_60" data-name="Path 60" d="M291.718,298.674H191.628V269.566h108.14v19.156Z" transform="translate(-191.628 -269.566)" fill="#c0966b"/>
        <path id="Path_61" data-name="Path 61" d="M237.8,276.64v9.951l10.056-9.951Z" transform="translate(-139.715 -257.483)" fill="#fff"/>
      </g>
      <path id="MARÃTIMO" d="M2.9-7.623q.2.363.457.9T3.9-5.571q.28.622.556,1.27L4.972-3.08,5.489-4.3q.275-.649.555-1.27t.539-1.155q.258-.533.457-.9H8.6q.11.759.2,1.7T8.97-3.966q.071,1.018.132,2.041T9.207,0H7.535Q7.5-1.111,7.447-2.42T7.282-5.06q-.2.462-.44,1.023T6.363-2.915q-.237.561-.456,1.072t-.374.875h-1.2q-.154-.363-.374-.875T3.5-2.915q-.237-.561-.479-1.122T2.585-5.06q-.11,1.331-.165,2.64T2.332,0H.66Q.7-.9.765-1.925T.9-3.966q.072-1.018.165-1.958t.2-1.7ZM15.95,0q-.121-.4-.269-.814t-.292-.836h-2.97q-.143.418-.292.836T11.858,0H10.076q.429-1.232.814-2.277t.753-1.969q.368-.924.726-1.754t.743-1.623h1.639q.374.792.737,1.623t.732,1.754q.368.924.753,1.969T17.787,0ZM13.893-5.9q-.055.165-.165.451l-.253.66q-.143.374-.314.825t-.346.946h2.167q-.176-.5-.341-.946t-.314-.825q-.148-.374-.258-.66T13.893-5.9Zm7.216-1.815a4.725,4.725,0,0,1,2.629.61,2.122,2.122,0,0,1,.913,1.9,2.145,2.145,0,0,1-.368,1.3,2.427,2.427,0,0,1-1.062.786q.231.286.484.655t.5.77q.248.4.479.836T25.113,0H23.188l-.424-.759q-.214-.385-.44-.748t-.446-.687q-.22-.325-.44-.589h-.847V0H18.876V-7.513a9.728,9.728,0,0,1,1.161-.154Q20.636-7.711,21.109-7.711Zm.1,1.463q-.187,0-.335.011l-.281.022v2.068h.484a2.923,2.923,0,0,0,1.386-.242.875.875,0,0,0,.418-.825.839.839,0,0,0-.424-.8A2.619,2.619,0,0,0,21.208-6.248Zm5.1-1.375h1.716V0H26.312Zm2.233-2L26.73-8.1l-.748-.671,1.562-1.782Zm7,2V-6.16h-2.3V0H31.526V-6.16h-2.3V-7.623Zm1.2,0h1.716V0H36.74Zm5.6,0q.2.363.457.9t.539,1.155q.281.622.555,1.27l.517,1.221L44.924-4.3q.275-.649.555-1.27t.539-1.155q.258-.533.457-.9h1.562q.11.759.2,1.7t.165,1.958q.071,1.018.132,2.041T48.642,0H46.97q-.033-1.111-.088-2.42t-.165-2.64q-.2.462-.44,1.023T45.8-2.915q-.236.561-.456,1.072t-.374.875h-1.2q-.154-.363-.374-.875t-.456-1.072q-.237-.561-.479-1.122T42.02-5.06q-.11,1.331-.165,2.64T41.767,0H40.1q.044-.9.1-1.925t.132-2.041q.071-1.018.165-1.958t.2-1.7Zm9.383,3.806A3.465,3.465,0,0,0,51.86-2.8a2.312,2.312,0,0,0,.4.775,1.753,1.753,0,0,0,.632.5,1.993,1.993,0,0,0,.858.176,2,2,0,0,0,.852-.176,1.741,1.741,0,0,0,.638-.5,2.312,2.312,0,0,0,.4-.775,3.465,3.465,0,0,0,.138-1.012,3.521,3.521,0,0,0-.138-1.017,2.305,2.305,0,0,0-.4-.781,1.741,1.741,0,0,0-.638-.5,2,2,0,0,0-.852-.176,1.942,1.942,0,0,0-.858.182,1.808,1.808,0,0,0-.632.506,2.305,2.305,0,0,0-.4.781A3.48,3.48,0,0,0,51.722-3.817Zm5.819,0A4.691,4.691,0,0,1,57.25-2.1a3.54,3.54,0,0,1-.8,1.243,3.274,3.274,0,0,1-1.2.754,4.376,4.376,0,0,1-1.5.253A4.264,4.264,0,0,1,52.272-.1a3.389,3.389,0,0,1-1.21-.754A3.523,3.523,0,0,1,50.248-2.1a4.613,4.613,0,0,1-.3-1.721,4.466,4.466,0,0,1,.308-1.721,3.668,3.668,0,0,1,.83-1.248,3.415,3.415,0,0,1,1.21-.759A4.155,4.155,0,0,1,53.746-7.8a4.264,4.264,0,0,1,1.474.253,3.352,3.352,0,0,1,1.21.759,3.58,3.58,0,0,1,.814,1.248A4.613,4.613,0,0,1,57.541-3.817Z" transform="translate(57.966 41.372)"/>
      <circle id="Ellipse_22" data-name="Ellipse 22" cx="22.782" cy="22.782" r="22.782" transform="translate(2.007 14.09)" fill="#eee9de"/>
      <path id="Path_92" data-name="Path 92" d="M181.1,290.728a24.789,24.789,0,1,1,44.143,15.492c-4.544,5.668-19.013,23.037-19.013,23.037s-15.148-17.369-19.693-23.034A24.694,24.694,0,0,1,181.1,290.728Z" transform="translate(-181.1 -253.857)" fill="#2d314e" opacity="0.92"/>
      <circle id="Ellipse_23" data-name="Ellipse 23" cx="22.782" cy="22.782" r="22.782" transform="translate(2.007 14.09)" fill="#98c390"/>
      <path id="_15" data-name="15" d="M.91-7.137q.377-.156.787-.358t.8-.442q.39-.241.747-.507a5.131,5.131,0,0,0,.643-.565H5.239V0H3.3V-6.487a5.9,5.9,0,0,1-.871.474Q1.95-5.8,1.5-5.642ZM12.181-2.652a1.314,1.314,0,0,0-.169-.669,1.265,1.265,0,0,0-.585-.488,4.11,4.11,0,0,0-1.118-.3,12.416,12.416,0,0,0-1.768-.1q.143-1.209.234-2.457t.143-2.34h4.875v1.625h-3.25q-.026.468-.059.9t-.071.76a4.827,4.827,0,0,1,2.8.891,2.611,2.611,0,0,1,.9,2.112A2.991,2.991,0,0,1,13.9-1.56a2.489,2.489,0,0,1-.663.923,3.147,3.147,0,0,1-1.112.611,5.006,5.006,0,0,1-1.566.221A6.241,6.241,0,0,1,9.821.149Q9.438.1,9.08.032T8.437-.117a2.5,2.5,0,0,1-.442-.156l.351-1.6a5.708,5.708,0,0,0,.858.28,5.19,5.19,0,0,0,1.274.136,1.934,1.934,0,0,0,1.3-.357A1.089,1.089,0,0,0,12.181-2.652Z" transform="translate(17.533 43.368)" fill="#231f20"/>
    </g>
    <rect id="Rectangle_42" data-name="Rectangle 42" width="96" height="24" transform="translate(104 378)" fill="none"/>
  </g>
</svg>
