<svg xmlns="http://www.w3.org/2000/svg" width="140" height="95.826" viewBox="0 0 62.78 22.27"><defs><style>.cls-1{fill:#d0d09b;}.cls-2{fill:#002c46;}.cls-3{fill:#e84d46;}.cls-4{fill:#fff;}.cls-5{fill:#2d314e;}</style></defs><g id="Layer_2" data-name="Layer 2"><g id="Layer_1-2" data-name="Layer 1"><rect class="cls-1" x="17.78" y="6" width="45" height="12.24" rx="2.46"/><path class="cls-2" d="M34.76,14.17V11.65L33.7,14.17h-.35L32.3,11.65v2.52h-.8v-3.5h1.12l.91,2.19.91-2.19h1.12v3.5Z"/><path class="cls-2" d="M38.94,14.17l-.24-.59H37.09l-.23.59H36l1.45-3.5h1l1.44,3.5Zm-1-2.75-.59,1.5h1.17Z"/><path class="cls-2" d="M42.35,14.17l-.74-1.24H41v1.24h-.8v-3.5H42a1.14,1.14,0,0,1,1.27,1.13,1,1,0,0,1-.83,1l.85,1.33Zm.08-2.38c0-.29-.24-.46-.56-.46H41v.94h.84A.5.5,0,0,0,42.43,11.79Z"/><path class="cls-2" d="M44.34,10.35h-.5l.76-.76h.65Zm-.45,3.82v-3.5h.8v3.5Z"/><path class="cls-2" d="M46.34,14.17V11.33h-1.1v-.66h3v.66H47.14v2.84Z"/><path class="cls-2" d="M52,14.17V11.65l-1,2.52h-.35l-1.06-2.52v2.52h-.79v-3.5H49.9l.91,2.19.91-2.19h1.13v3.5Z"/><path class="cls-2" d="M53.45,12.42a2,2,0,1,1,2,1.82A1.83,1.83,0,0,1,53.45,12.42Zm3.1,0a1.14,1.14,0,1,0-1.14,1.15A1.1,1.1,0,0,0,56.55,12.42Z"/><rect class="cls-3" x="7.25" y="3.77" width="16.7" height="16.7" rx="4" transform="translate(-4 14.58) rotate(-45)"/><path class="cls-4" d="M10.12,11.86c0-1.64.81-3.28,2.63-3.28s2.62,1.64,2.62,3.28-.81,3.28-2.62,3.28S10.12,13.49,10.12,11.86Zm3.87,0c0-1.17-.33-2.08-1.24-2.08s-1.25.91-1.25,2.08.34,2.08,1.25,2.08S14,13,14,11.86Z"/><path class="cls-4" d="M17.63,15V10.42l-1.06,1.07-.77-.8,2-2H19V15Z"/><path class="cls-5" d="M.06,12.41a1.74,1.74,0,0,1,1.35-2.15,1.93,1.93,0,0,1,2.27,1.35,1.76,1.76,0,0,1-1.35,2.16A1.92,1.92,0,0,1,.06,12.41"/><rect class="cls-3" x="40.78" width="22" height="8.28" rx="0.92"/><path class="cls-4" d="M45.14,6.46V3.28L44.36,4l-.57-.56,1.47-1.39h.87V6.46Z"/><path class="cls-4" d="M47,6.46V5.73C48.9,4.4,49.46,4,49.46,3.41c0-.38-.37-.57-.76-.57a1.71,1.71,0,0,0-1.25.51l-.57-.62A2.46,2.46,0,0,1,48.68,2c1,0,1.79.52,1.79,1.39s-.66,1.4-1.87,2.23h1.91v.82Z"/><path class="cls-4" d="M54.44,6.46l-1.17-1.6-1.18,1.6H50.9l1.7-2.24L51,2.08h1.18l1.08,1.5,1.06-1.5h1.2l-1.6,2.13,1.7,2.25Z"/><path class="cls-4" d="M55.81,5.84l.53-.63a1.85,1.85,0,0,0,1.28.5c.57,0,.88-.23.88-.56s-.28-.5-.94-.5H57V3.82h.58c.52,0,.87-.15.87-.47s-.38-.52-.87-.52a1.74,1.74,0,0,0-1.19.46l-.5-.59A2.38,2.38,0,0,1,57.66,2c1.1,0,1.77.46,1.77,1.19a1.09,1.09,0,0,1-1,1,1.15,1.15,0,0,1,1.09,1c0,.76-.72,1.29-1.84,1.29A2.44,2.44,0,0,1,55.81,5.84Z"/></g></g></svg>