<?xml version="1.0" encoding="utf-8"?>
<!-- Generator: Adobe Illustrator 25.2.3, SVG Export Plug-In . SVG Version: 6.00 Build 0)  -->
<svg version="1.1" id="Layer_1" xmlns="http://www.w3.org/2000/svg" width="234.814" height="84.965" xmlns:xlink="http://www.w3.org/1999/xlink" x="0px" y="0px"
	 viewBox="0 0 234.8 85" style="enable-background:new 0 0 234.8 85;" xml:space="preserve">
<style type="text/css">
	.st0{opacity:0.92;fill:#2D314E;enable-background:new    ;}
	.st1{fill:none;}
	.st2{fill:#D0D09B;}
	.st3{fill:#002C46;}
	.st4{fill:#E84D46;}
	.st5{fill:#FFFFFF;}
</style>
<g id="_24_julho_novo" transform="translate(200.275 451.873)">
	<path id="Path_11" class="st0" d="M-75.5-370.2c-0.1,1.9-1.7,3.3-3.6,3.2c-1.9-0.1-3.3-1.7-3.2-3.6c0.1-1.8,1.6-3.2,3.4-3.2
		C-76.9-373.7-75.4-372.1-75.5-370.2z"/>
</g>
<g id="maritimo" transform="translate(-104 -349.572)">
	<rect id="Rectangle_42" x="104.1" y="378" class="st1" width="96" height="24"/>
</g>
<g>
	<g>
		<rect x="144.6" y="25.8" class="st2" width="89.3" height="27.5"/>
	</g>
	<g>
		<path class="st3" d="M162.6,44.6v-7.3l-2.9,7.3h-0.9l-2.9-7.3v7.3h-2.2V34.4h3l2.5,6.4l2.5-6.4h3v10.2
			C164.7,44.6,162.6,44.6,162.6,44.6z"/>
		<path class="st3" d="M173.8,44.6l-0.6-1.7h-4.4l-0.6,1.7h-2.5l3.9-10.2h2.7l3.9,10.2H173.8z M171,36.6l-1.6,4.4h3.2L171,36.6z"/>
		<path class="st3" d="M182.9,44.6l-2-3.6h-1.6v3.6h-2.1V34.4h4.8c2.1,0,3.4,1.4,3.4,3.3c0,1.8-1.1,2.8-2.2,3l2.3,3.9
			C185.5,44.6,182.9,44.6,182.9,44.6z M183.1,37.7c0-0.8-0.7-1.4-1.5-1.4h-2.3V39h2.3C182.5,39.1,183.1,38.6,183.1,37.7z"/>
		<path class="st3" d="M188.2,33.5h-1.4l2-2.2h1.8L188.2,33.5z M187,44.6V34.4h2.2v10.2C189.2,44.6,187,44.6,187,44.6z"/>
		<path class="st3" d="M193.5,44.6v-8.3h-3v-1.9h8.1v1.9h-3v8.3H193.5z"/>
		<path class="st3" d="M200,44.6V34.4h2.2v10.2C202.2,44.6,200,44.6,200,44.6z"/>
		<path class="st3" d="M213,44.6v-7.3l-2.9,7.3h-0.9l-2.9-7.3v7.3h-2.1V34.4h3l2.5,6.4l2.5-6.4h3v10.2C215.1,44.6,213,44.6,213,44.6
			z"/>
		<path class="st3" d="M216.6,39.5c0-3.1,2.2-5.3,5.3-5.3c3.1,0,5.3,2.2,5.3,5.3s-2.2,5.3-5.3,5.3C218.9,44.8,216.6,42.6,216.6,39.5
			z M225,39.5c0-1.9-1.2-3.3-3.1-3.3c-1.9,0-3.1,1.4-3.1,3.3c0,1.9,1.2,3.3,3.1,3.3C223.8,42.9,225,41.4,225,39.5z"/>
	</g>
</g>
<g>
	<rect x="107.1" y="25.8" class="st4" width="37.5" height="27.5"/>
	<g>
		<path class="st5" d="M115.2,39.5c0-3.8,1.9-7.6,6.1-7.6c4.2,0,6.1,3.8,6.1,7.6s-1.9,7.6-6.1,7.6C117.1,47.1,115.2,43.3,115.2,39.5
			z M124.2,39.5c0-2.7-0.8-4.8-2.9-4.8c-2.1,0-2.9,2.1-2.9,4.8c0,2.7,0.8,4.8,2.9,4.8S124.2,42.2,124.2,39.5z"/>
		<path class="st5" d="M132.6,46.9V36.2l-2.4,2.5l-1.8-1.9l4.6-4.6h2.7v14.7H132.6z"/>
	</g>
</g>
<g>
	<g>
		<rect x="179.2" y="7.2" class="st4" width="54.8" height="18.6"/>
	</g>
	<g>
		<path class="st5" d="M191.6,21.8V14l-1.8,1.8l-1.3-1.4l3.4-3.4h2v10.7L191.6,21.8L191.6,21.8z"/>
		<path class="st5" d="M195.7,21.8V20c4.4-3.2,5.7-4.3,5.7-5.6c0-0.9-0.8-1.4-1.7-1.4c-1.2,0-2.1,0.5-2.9,1.2l-1.3-1.5
			c1-1.2,2.6-1.7,4.1-1.7c2.3,0,4.1,1.3,4.1,3.4c0,1.8-1.5,3.4-4.3,5.4h4.4v2H195.7z"/>
		<path class="st5" d="M212.6,21.8l-2.7-3.9l-2.7,3.9h-2.7l3.9-5.5l-3.6-5.2h2.7l2.4,3.7l2.4-3.7h2.7l-3.6,5.2l3.9,5.5H212.6z"/>
		<path class="st5" d="M215.6,20.3l1.2-1.5c0.7,0.8,1.9,1.2,2.9,1.2c1.3,0,2-0.6,2-1.4s-0.7-1.2-2.1-1.2c-0.4,0-1.2,0-1.3,0v-2
			c0.2,0,0.9,0,1.3,0c1.2,0,2-0.4,2-1.1c0-0.8-0.9-1.3-2-1.3c-1,0-2,0.4-2.7,1.1l-1.1-1.4c0.9-1,2.2-1.7,4.1-1.7c2.5,0,4,1.1,4,2.9
			c0,1.3-1.2,2.2-2.3,2.4c1.1,0.1,2.5,1,2.5,2.6c0,1.8-1.6,3.1-4.2,3.1C217.8,22,216.4,21.2,215.6,20.3z"/>
	</g>
</g>
<polygon class="st4" points="107.1,53.3 117.5,70.9 116.8,51.3 "/>
</svg>
