<?xml version="1.0" encoding="utf-8"?>
<!-- Generator: Adobe Illustrator 25.2.3, SVG Export Plug-In . SVG Version: 6.00 Build 0)  -->
<svg version="1.1" id="Layer_1" xmlns="http://www.w3.org/2000/svg" width="234.814" height="84.965" xmlns:xlink="http://www.w3.org/1999/xlink" x="0px" y="0px"
	 viewBox="0 0 234.8 85" style="enable-background:new 0 0 234.8 85;" xml:space="preserve">
<style type="text/css">
	.st0{opacity:0.92;fill:#2D314E;enable-background:new    ;}
	.st1{fill:none;}
	.st2{fill:#D0D09B;}
	.st3{fill:#E84D46;}
	.st4{fill:#FFFFFF;}
	.st5{fill:#002C46;}
</style>
<g id="_24_julho_novo" transform="translate(200.275 451.873)">
	<path id="Path_11" class="st0" d="M-75.5-370.2c-0.1,1.9-1.7,3.3-3.6,3.2c-1.9-0.1-3.3-1.7-3.2-3.6c0.1-1.8,1.6-3.2,3.4-3.2
		C-76.9-373.7-75.4-372.1-75.5-370.2z"/>
</g>
<g id="maritimo" transform="translate(-104 -349.572)">
	<rect id="Rectangle_42" x="104.3" y="378" class="st1" width="96" height="24"/>
</g>
<g>
	<g>
		<rect x="144.6" y="25.8" class="st2" width="89.3" height="27.5"/>
	</g>
</g>
<g>
	<rect x="107.1" y="25.8" class="st3" width="37.5" height="27.5"/>
</g>
<g>
	<g>
		<rect x="179" y="7.2" class="st3" width="54.8" height="18.6"/>
	</g>
</g>
<polygon class="st3" points="107.1,53.3 117.5,70.9 116.8,51.3 "/>
<g>
	<path class="st4" d="M121.5,46.9h-1.8V34.6l-2.4,2.5l-1.1-1.1l3.7-3.8h1.6V46.9z"/>
	<path class="st4" d="M133.3,46c-1,0.7-2.3,1.1-3.8,1.1s-2.7-0.4-3.8-1.1c-1-0.7-1.5-1.7-1.5-2.9c0-0.9,0.3-1.7,1-2.4
		c0.7-0.7,1.5-1.2,2.5-1.5c-0.9-0.3-1.7-0.7-2.3-1.3c-0.6-0.6-0.9-1.3-0.9-2.2c0-1.2,0.5-2.2,1.5-2.8c1-0.7,2.2-1,3.5-1
		c1.3,0,2.5,0.3,3.5,1c1,0.7,1.5,1.6,1.5,2.8c0,0.9-0.3,1.6-0.9,2.2c-0.6,0.6-1.4,1-2.3,1.3c1,0.3,1.8,0.8,2.5,1.5
		c0.7,0.7,1,1.5,1,2.4C134.8,44.4,134.3,45.3,133.3,46z M129.6,45.5c0.9,0,1.7-0.2,2.4-0.7c0.7-0.5,1-1.1,1-1.8
		c0-0.6-0.2-1.1-0.7-1.6s-0.9-0.8-1.4-0.9c-0.5-0.2-0.9-0.3-1.3-0.3c-0.4,0-0.8,0.2-1.3,0.3c-0.5,0.2-0.9,0.5-1.4,0.9
		c-0.5,0.4-0.7,1-0.7,1.6c0,0.8,0.3,1.4,1,1.8C127.8,45.3,128.6,45.5,129.6,45.5z M129.6,38.6c0.3,0,0.6-0.1,0.9-0.2
		c0.3-0.1,0.6-0.2,1-0.4c0.4-0.2,0.7-0.4,0.9-0.8c0.2-0.3,0.4-0.7,0.4-1.1c0-0.7-0.3-1.3-0.9-1.8s-1.4-0.7-2.3-0.7
		c-0.9,0-1.7,0.2-2.3,0.6c-0.6,0.4-0.9,1-0.9,1.8c0,0.4,0.1,0.8,0.4,1.1s0.5,0.6,0.9,0.8c0.4,0.2,0.7,0.3,1,0.4
		C129,38.4,129.3,38.5,129.6,38.6z"/>
</g>
<g>
	<path class="st4" d="M193.9,21.7h-1.3V13l-1.7,1.8l-0.8-0.8l2.6-2.7h1.1V21.7z"/>
	<path class="st4" d="M203.1,21.7H196v-1c2.1-1.7,3.6-2.9,4.5-3.8c0.9-0.9,1.3-1.8,1.3-2.6c0-0.6-0.2-1.1-0.6-1.4
		c-0.4-0.3-0.9-0.5-1.5-0.5c-1.2,0-2.1,0.4-2.8,1.3l-0.8-0.8c0.4-0.5,0.9-0.9,1.5-1.2c0.6-0.3,1.3-0.4,2.1-0.4
		c0.9,0,1.8,0.3,2.4,0.8c0.7,0.5,1,1.3,1,2.2c0,1-0.4,1.9-1.2,2.9s-2.1,2.1-3.8,3.4h5.1V21.7z"/>
	<path class="st4" d="M214.2,21.7h-1.6l-3.3-4.4l-3.3,4.4h-1.6l4-5.3l-3.8-5h1.6l3.1,4.1l3.1-4.1h1.6l-3.8,5L214.2,21.7z"/>
	<path class="st4" d="M218.5,21.9c-0.8,0-1.6-0.2-2.2-0.5c-0.6-0.3-1.1-0.7-1.5-1.2l0.8-0.8c0.3,0.4,0.7,0.7,1.2,1
		c0.5,0.2,1.1,0.4,1.7,0.4c0.7,0,1.3-0.2,1.8-0.5c0.4-0.4,0.7-0.8,0.7-1.4c0-0.6-0.2-1.1-0.7-1.4c-0.5-0.3-1.1-0.4-1.9-0.4
		c-0.6,0-1,0-1.1,0v-1.2c0.1,0,0.5,0,1.1,0c0.7,0,1.3-0.1,1.7-0.4c0.5-0.3,0.7-0.7,0.7-1.3c0-0.5-0.2-1-0.7-1.3
		c-0.4-0.3-1-0.5-1.7-0.5c-1,0-2,0.4-2.7,1.3l-0.7-0.8c0.9-1.1,2.1-1.6,3.5-1.6c1,0,1.9,0.2,2.5,0.7c0.7,0.5,1,1.2,1,2
		c0,0.7-0.2,1.2-0.7,1.6c-0.5,0.4-1,0.7-1.5,0.8c0.6,0.1,1.1,0.3,1.6,0.8s0.8,1,0.8,1.8c0,0.9-0.3,1.6-1,2.1
		C220.5,21.6,219.6,21.9,218.5,21.9z"/>
</g>
<g>
	<path class="st5" d="M164.1,44.7h-1.3V36l-3.5,8.7h-0.5l-3.5-8.7v8.7H154V34.3h1.8l3.2,8l3.2-8h1.8V44.7z"/>
	<path class="st5" d="M175.4,44.7h-1.5l-0.9-2.3h-5.1l-0.9,2.3h-1.5l4.2-10.3h1.6L175.4,44.7z M172.7,41.2l-2.2-5.6l-2.2,5.6H172.7z
		"/>
	<path class="st5" d="M184.3,44.7h-1.5l-2.6-4.1h-2.1v4.1h-1.3V34.3h4.2c1,0,1.7,0.3,2.3,0.9s0.9,1.3,0.9,2.3c0,0.9-0.3,1.6-0.8,2.1
		c-0.5,0.5-1.2,0.8-1.9,0.9L184.3,44.7z M180.8,39.4c0.6,0,1.1-0.2,1.5-0.6c0.4-0.4,0.6-0.8,0.6-1.4c0-0.6-0.2-1.1-0.6-1.4
		c-0.4-0.4-0.9-0.5-1.5-0.5h-2.7v4H180.8z"/>
	<path class="st5" d="M189.4,31.1l-2.6,2.2h-0.9l2.3-2.2H189.4z M187.5,44.7h-1.3V34.3h1.3V44.7z"/>
	<path class="st5" d="M193.8,44.7h-1.3v-9.2h-3.3v-1.1h7.8v1.1h-3.3V44.7z"/>
	<path class="st5" d="M200,44.7h-1.3V34.3h1.3V44.7z"/>
	<path class="st5" d="M212.6,44.7h-1.3V36l-3.5,8.7h-0.5l-3.5-8.7v8.7h-1.3V34.3h1.8l3.2,8l3.2-8h1.8V44.7z"/>
	<path class="st5" d="M223.4,43.3c-1,1-2.2,1.5-3.7,1.5s-2.7-0.5-3.7-1.5c-1-1-1.4-2.3-1.4-3.8s0.5-2.8,1.4-3.8c1-1,2.2-1.5,3.7-1.5
		s2.7,0.5,3.7,1.5c1,1,1.4,2.3,1.4,3.8S224.4,42.3,223.4,43.3z M219.7,43.7c1.1,0,2.1-0.4,2.8-1.2c0.7-0.8,1.1-1.8,1.1-3
		c0-1.2-0.4-2.2-1.1-3c-0.7-0.8-1.6-1.2-2.8-1.2c-1.1,0-2.1,0.4-2.8,1.2c-0.7,0.8-1,1.8-1,3c0,1.2,0.3,2.2,1,3
		C217.6,43.3,218.6,43.7,219.7,43.7z"/>
</g>
</svg>
