<?xml version="1.0" encoding="utf-8"?>
<!-- Generator: Adobe Illustrator 24.2.3, SVG Export Plug-In . SVG Version: 6.00 Build 0)  -->
<svg version="1.1" id="Layer_1" xmlns="http://www.w3.org/2000/svg" width="66" height="26" xmlns:xlink="http://www.w3.org/1999/xlink" x="0px" y="0px"
	 viewBox="0 0 66 26" style="enable-background:new 0 0 66 26;" xml:space="preserve">
<style type="text/css">
	.st0{fill:#FE3A63;}
	.st1{fill:#FFFFFF;}
	.st2{fill:#000000;}
</style>
<path class="st0" d="M0,9.7l4.3,16.1h61V9.6L0,9.7z"/>
<g>
	<path class="st1" d="M15.4,21.7v-5.3l-2,5.3h-0.9l-2-5.3v5.3H8.4v-8h2.9l1.7,4.4l1.7-4.4h2.9v8H15.4z"/>
	<path class="st1" d="M24.4,21.7L24,20.5h-3.2l-0.4,1.2h-2.3l3-8h2.6l3,8H24.4z M22.4,15.7l-1,3h2L22.4,15.7z"/>
	<path class="st1" d="M27.3,21.7v-8h4c1.8,0,2.8,1.2,2.8,2.7c0,1.4-1,2.7-2.8,2.7h-1.9v2.7H27.3z M32,16.3c0-0.6-0.4-0.9-1-0.9h-1.6
		v1.7H31C31.5,17.2,32,16.9,32,16.3z"/>
	<path class="st1" d="M35,18.4v-4.8h2.1v4.7c0,0.9,0.6,1.6,1.7,1.6c1.1,0,1.7-0.7,1.7-1.6v-4.7h2.1v4.7c0,2-1.2,3.4-3.8,3.4
		S35,20.4,35,18.4z"/>
	<path class="st1" d="M45.8,21.7v-6.2h-2.2v-1.8h6.5v1.8h-2.2v6.2H45.8z"/>
	<path class="st1" d="M50.4,17.7c0-2.4,1.8-4.1,4.3-4.1c2.4,0,4.3,1.7,4.3,4.1s-1.8,4.1-4.3,4.1C52.2,21.8,50.4,20.1,50.4,17.7z
		 M56.9,17.7c0-1.3-0.9-2.3-2.2-2.3s-2.2,1-2.2,2.3c0,1.3,0.9,2.3,2.2,2.3S56.9,19,56.9,17.7z"/>
</g>
<path class="st2" d="M37.2,5.5l0.5-0.7c0.3,0.3,0.7,0.4,1.1,0.4c0.4,0,0.7-0.2,0.7-0.4c0-0.2-0.2-0.3-0.7-0.3c-0.2,0-0.5,0-0.5,0
	V3.6c0.1,0,0.4,0,0.5,0c0.4,0,0.6-0.1,0.6-0.3c0-0.2-0.3-0.4-0.7-0.4c-0.4,0-0.7,0.1-1,0.4l-0.5-0.6C37.6,2.3,38.2,2,38.9,2
	c1,0,1.6,0.4,1.6,1.1c0,0.5-0.4,0.8-0.9,0.9c0.4,0,0.9,0.4,0.9,0.9c0,0.7-0.6,1.2-1.6,1.2C38.1,6.1,37.6,5.8,37.2,5.5z"/>
<path class="st2" d="M41.4,6l1.3-3h-1.9V2.1h3.1v0.7L42.5,6H41.4z"/>
<path class="st2" d="M45.9,6V2.1h2c0.9,0,1.4,0.6,1.4,1.3c0,0.7-0.5,1.3-1.4,1.3h-1V6H45.9z M48.2,3.4C48.2,3.1,48,3,47.7,3h-0.8
	v0.8h0.8C48,3.8,48.2,3.6,48.2,3.4z"/>
<path class="st2" d="M51.2,6V5.7c-0.2,0.2-0.5,0.4-0.9,0.4c-0.4,0-1-0.3-1-0.9c0-0.7,0.5-0.9,1-0.9c0.4,0,0.7,0.1,0.9,0.3V4.3
	c0-0.2-0.2-0.4-0.6-0.4c-0.3,0-0.6,0.1-0.8,0.3l-0.3-0.6c0.4-0.3,0.9-0.4,1.3-0.4c0.7,0,1.3,0.3,1.3,1.1V6H51.2z M51.2,5.3V5
	c-0.1-0.1-0.3-0.2-0.5-0.2c-0.2,0-0.5,0.1-0.5,0.3s0.2,0.3,0.5,0.3C50.9,5.5,51.1,5.4,51.2,5.3z"/>
<path class="st2" d="M52.7,2.4c0-0.3,0.2-0.5,0.5-0.5c0.3,0,0.5,0.2,0.5,0.5c0,0.3-0.2,0.5-0.5,0.5C52.9,2.9,52.7,2.7,52.7,2.4z
	 M52.8,6V3.2h0.9V6H52.8z"/>
<path class="st2" d="M56.3,6V4.4c0-0.3-0.2-0.5-0.5-0.5c-0.3,0-0.4,0.1-0.6,0.3V6h-0.9V3.2h0.9v0.3c0.2-0.2,0.5-0.4,1-0.4
	c0.6,0,0.9,0.4,0.9,0.9v2H56.3z"/>
<path class="st2" d="M57.7,4.6c0-0.8,0.6-1.5,1.5-1.5c0.8,0,1.5,0.6,1.5,1.6v0.2h-2c0.1,0.3,0.3,0.5,0.7,0.5c0.2,0,0.5-0.1,0.7-0.2
	l0.4,0.6c-0.3,0.3-0.8,0.4-1.2,0.4C58.3,6.1,57.7,5.5,57.7,4.6z M59.2,3.8c-0.4,0-0.5,0.2-0.6,0.4h1.2C59.7,4.1,59.6,3.8,59.2,3.8z
	 M59.3,2.7h-0.6l0.7-0.8h0.8L59.3,2.7z"/>
<path class="st2" d="M61,2.4c0-0.3,0.2-0.5,0.5-0.5c0.3,0,0.5,0.2,0.5,0.5c0,0.3-0.2,0.5-0.5,0.5C61.2,2.9,61,2.7,61,2.4z M61.1,6
	V3.2H62V6H61.1z"/>
<path class="st2" d="M62.4,5.6L62.8,5c0.2,0.2,0.7,0.4,1,0.4c0.3,0,0.4-0.1,0.4-0.2c0-0.4-1.7,0-1.7-1.1c0-0.5,0.4-0.9,1.2-0.9
	c0.5,0,0.9,0.2,1.2,0.4l-0.3,0.6c-0.2-0.2-0.5-0.3-0.8-0.3c-0.2,0-0.4,0.1-0.4,0.2c0,0.3,1.6,0,1.6,1.2c0,0.5-0.5,0.9-1.3,0.9
	C63.2,6.1,62.7,5.9,62.4,5.6z"/>
</svg>
