<svg width="66" height="26" viewBox="0 0 66 26" fill="none" xmlns="http://www.w3.org/2000/svg">
<path d="M0 9.69399L4.3 25.794H65.3V9.59399L0 9.69399Z" fill="#fe3a63"/>
<path d="M13 12.994C13.1464 13.3371 13.3134 13.671 13.5 13.994L14.1 15.194C14.3 15.594 14.5 16.094 14.7 16.594C14.9 17.094 15.1 17.494 15.3 17.894C15.5 17.494 15.7 17.094 15.9 16.594C16.1 16.094 16.3 15.694 16.5 15.194C16.6591 14.7748 16.8602 14.3727 17.1 13.994C17.2465 13.6509 17.4135 13.317 17.6 12.994H19C19.1273 13.5857 19.1943 14.1887 19.2 14.794C19.2171 15.4978 19.2839 16.1996 19.4 16.894C19.4832 17.6242 19.5167 18.3592 19.5 19.094C19.5 19.794 19.6 20.494 19.6 21.194H17.8C17.8 20.394 17.7 19.494 17.7 18.594C17.6832 17.6577 17.6164 16.7231 17.5 15.794C17.3563 16.1706 17.1893 16.538 17 16.894C16.8 17.294 16.7 17.694 16.5 18.094C16.3524 18.469 16.1855 18.8361 16 19.194C15.8 19.594 15.7 19.894 15.6 20.094H14.3C14.2092 19.7768 14.0745 19.4739 13.9 19.194C13.7 18.794 13.6 18.494 13.4 18.094C13.2 17.694 13.1 17.294 12.9 16.894C12.7524 16.5189 12.5855 16.1518 12.4 15.794C12.3 16.694 12.3 17.694 12.2 18.594C12.2 19.494 12.1 20.394 12.1 21.194H10.3C10.3 20.594 10.4 19.894 10.4 19.094C10.4 18.294 10.5 17.594 10.5 16.894C10.5171 16.1901 10.5839 15.4884 10.7 14.794C10.8 14.094 10.8 13.494 10.9 12.994H13Z" fill="white"/>
<path d="M26.3 21.094L26 20.194L25.7 19.294H22.5L22.2 20.194L21.9 21.094H20C20.3 20.194 20.6 19.394 20.9 18.694C21.2 17.994 21.4 17.294 21.7 16.594C22 15.894 22.2 15.294 22.5 14.694C22.8 14.094 23 13.494 23.3 12.994H25C25.3 13.594 25.5 14.094 25.8 14.694C26.1 15.294 26.3 15.894 26.6 16.594C26.9 17.294 27.1 17.994 27.4 18.694C27.7 19.394 28 20.294 28.3 21.094H26.3ZM24.1 14.794C24.0605 14.9702 23.993 15.1391 23.9 15.294C23.7819 15.5191 23.6816 15.7532 23.6 15.994L23.3 16.894C23.2 17.194 23 17.594 22.9 17.894H25.2C25.1281 17.5392 24.9926 17.2004 24.8 16.894C24.6555 16.6107 24.5544 16.3073 24.5 15.994C24.4184 15.7532 24.3181 15.5191 24.2 15.294C24.2156 15.1211 24.1808 14.9475 24.1 14.794Z" fill="white"/>
<path d="M31.3001 12.894C32.2699 12.8454 33.2354 13.0523 34.1001 13.494C34.4319 13.7298 34.698 14.0465 34.873 14.4141C35.048 14.7816 35.1262 15.1877 35.1001 15.594C35.1484 16.0027 35.0801 16.4167 34.9031 16.7882C34.7262 17.1598 34.4478 17.4738 34.1001 17.694C33.2459 18.1727 32.2792 18.4143 31.3001 18.394H30.7001V21.094H28.9001V13.094C29.3001 12.994 29.7001 12.994 30.2001 12.894H31.3001ZM31.5001 14.494H30.8001V16.894H31.4001C31.8855 16.9244 32.3699 16.8206 32.8001 16.594C32.9653 16.4872 33.0987 16.3381 33.1867 16.1622C33.2746 15.9864 33.3138 15.7901 33.3001 15.594C33.316 15.3888 33.2817 15.1829 33.2001 14.994C33.1001 14.894 33.0001 14.694 32.8001 14.594C32.6248 14.4685 32.4157 14.3988 32.2001 14.394C31.9764 14.476 31.7379 14.5101 31.5001 14.494V14.494Z" fill="white"/>
<path d="M39.2001 21.294C38.6937 21.2903 38.1898 21.2231 37.7001 21.094C37.3151 20.945 36.9719 20.7047 36.7001 20.394C36.4087 20.1248 36.2004 19.7778 36.1001 19.394C35.9773 18.9712 35.91 18.5341 35.9001 18.094V12.994H37.7001V17.894C37.6774 18.1647 37.7114 18.4372 37.8001 18.694L38.1001 19.294C38.2527 19.4158 38.4208 19.5167 38.6001 19.594C38.7891 19.6755 38.995 19.7098 39.2001 19.694C39.4009 19.7044 39.6018 19.6744 39.7908 19.6057C39.9797 19.537 40.153 19.431 40.3001 19.294C40.4602 19.101 40.5784 18.877 40.6472 18.636C40.7161 18.395 40.7341 18.1423 40.7001 17.894V12.994H42.5001V18.094C42.4903 18.5341 42.423 18.9712 42.3001 19.394C42.1999 19.7778 41.9916 20.1248 41.7001 20.394C41.4092 20.6826 41.071 20.9194 40.7001 21.094C40.2105 21.2231 39.7065 21.2903 39.2001 21.294V21.294Z" fill="white"/>
<path d="M49.9001 12.994V14.594H47.5V21.194H45.7001V14.594H43.3V12.994H49.9001Z" fill="white"/>
<path d="M58.1 17.094C58.1149 17.7076 58.0131 18.3184 57.8 18.894C57.6168 19.3735 57.3455 19.8144 57 20.194C56.6302 20.5523 56.1865 20.8254 55.7 20.994C54.6708 21.394 53.5291 21.394 52.5 20.994C52.0134 20.8254 51.5697 20.5523 51.2 20.194C50.8123 19.8285 50.5056 19.3856 50.3 18.894C50.0868 18.3184 49.985 17.7076 50 17.094C49.985 16.4804 50.0868 15.8696 50.3 15.294C50.4803 14.789 50.7907 14.3405 51.2 13.994C51.5697 13.6357 52.0134 13.3626 52.5 13.194C52.9761 12.9987 53.4854 12.8969 54 12.894C54.5479 12.8873 55.0917 12.9892 55.6 13.194C56.0674 13.4008 56.5047 13.6699 56.9 13.994C57.2877 14.3595 57.5943 14.8024 57.8 15.294C58.0131 15.8696 58.1149 16.4804 58.1 17.094V17.094ZM51.9 17.094C51.8788 17.4636 51.9125 17.8343 52 18.194C52.0715 18.4873 52.2082 18.7607 52.4 18.994C52.5893 19.215 52.8295 19.3866 53.1 19.494C53.3817 19.6257 53.6889 19.694 54 19.694C54.311 19.694 54.6182 19.6257 54.9 19.494C55.1704 19.3866 55.4106 19.215 55.6 18.994C55.7917 18.7607 55.9284 18.4873 56 18.194C56.0874 17.8343 56.1211 17.4636 56.1 17.094C56.1211 16.7244 56.0874 16.3537 56 15.994C55.9284 15.7007 55.7917 15.4272 55.6 15.194C55.4106 14.973 55.1704 14.8014 54.9 14.694C54.6182 14.5623 54.311 14.494 54 14.494C53.6889 14.494 53.3817 14.5623 53.1 14.694C52.8295 14.8014 52.5893 14.973 52.4 15.194C52.2082 15.4272 52.0715 15.7007 52 15.994C51.9125 16.3537 51.8788 16.7244 51.9 17.094V17.094Z" fill="white"/>
<path d="M38.368 6.09C38.26 6.09 38.146 6.082 38.026 6.066C37.906 6.054 37.79 6.036 37.678 6.012C37.566 5.988 37.464 5.962 37.372 5.934C37.28 5.906 37.208 5.88 37.156 5.856L37.33 5.112C37.434 5.156 37.566 5.204 37.726 5.256C37.89 5.304 38.092 5.328 38.332 5.328C38.608 5.328 38.81 5.276 38.938 5.172C39.066 5.068 39.13 4.928 39.13 4.752C39.13 4.644 39.106 4.554 39.058 4.482C39.014 4.406 38.952 4.346 38.872 4.302C38.792 4.254 38.696 4.222 38.584 4.206C38.476 4.186 38.36 4.176 38.236 4.176H37.888V3.456H38.284C38.372 3.456 38.456 3.448 38.536 3.432C38.62 3.416 38.694 3.39 38.758 3.354C38.822 3.314 38.872 3.262 38.908 3.198C38.948 3.13 38.968 3.046 38.968 2.946C38.968 2.87 38.952 2.804 38.92 2.748C38.888 2.692 38.846 2.646 38.794 2.61C38.746 2.574 38.688 2.548 38.62 2.532C38.556 2.512 38.49 2.502 38.422 2.502C38.25 2.502 38.09 2.528 37.942 2.58C37.798 2.632 37.666 2.696 37.546 2.772L37.228 2.118C37.292 2.078 37.366 2.036 37.45 1.992C37.538 1.948 37.634 1.908 37.738 1.872C37.842 1.836 37.952 1.806 38.068 1.782C38.188 1.758 38.314 1.746 38.446 1.746C38.69 1.746 38.9 1.776 39.076 1.836C39.256 1.892 39.404 1.974 39.52 2.082C39.636 2.186 39.722 2.31 39.778 2.454C39.834 2.594 39.862 2.748 39.862 2.916C39.862 3.08 39.816 3.24 39.724 3.396C39.632 3.548 39.508 3.664 39.352 3.744C39.568 3.832 39.734 3.964 39.85 4.14C39.97 4.312 40.03 4.52 40.03 4.764C40.03 4.956 39.998 5.134 39.934 5.298C39.87 5.458 39.77 5.598 39.634 5.718C39.498 5.834 39.324 5.926 39.112 5.994C38.904 6.058 38.656 6.09 38.368 6.09ZM42.3242 2.934C42.1682 3.138 42.0022 3.36 41.8262 3.6C41.6502 3.84 41.5022 4.086 41.3822 4.338H42.3242V2.934ZM43.2002 1.842V4.338H43.6442V5.07H43.2002V6H42.3242V5.07H40.5302V4.416C40.6182 4.24 40.7282 4.042 40.8602 3.822C40.9922 3.598 41.1382 3.37 41.2982 3.138C41.4622 2.902 41.6342 2.672 41.8142 2.448C41.9942 2.224 42.1742 2.022 42.3542 1.842H43.2002ZM46.9897 1.794C47.6097 1.794 48.0857 1.904 48.4177 2.124C48.7497 2.34 48.9157 2.696 48.9157 3.192C48.9157 3.692 48.7477 4.054 48.4117 4.278C48.0757 4.498 47.5957 4.608 46.9717 4.608H46.6777V6H45.7417V1.902C45.9457 1.862 46.1617 1.834 46.3897 1.818C46.6177 1.802 46.8177 1.794 46.9897 1.794ZM47.0497 2.592C46.9817 2.592 46.9137 2.594 46.8457 2.598C46.7817 2.602 46.7257 2.606 46.6777 2.61V3.81H46.9717C47.2957 3.81 47.5397 3.766 47.7037 3.678C47.8677 3.59 47.9497 3.426 47.9497 3.186C47.9497 3.07 47.9277 2.974 47.8837 2.898C47.8437 2.822 47.7837 2.762 47.7037 2.718C47.6277 2.67 47.5337 2.638 47.4217 2.622C47.3097 2.602 47.1857 2.592 47.0497 2.592ZM50.6319 5.376C50.7199 5.376 50.8039 5.374 50.8839 5.37C50.9639 5.366 51.0279 5.36 51.0759 5.352V4.674C51.0399 4.666 50.9859 4.658 50.9139 4.65C50.8419 4.642 50.7759 4.638 50.7159 4.638C50.6319 4.638 50.5519 4.644 50.4759 4.656C50.4039 4.664 50.3399 4.682 50.2839 4.71C50.2279 4.738 50.1839 4.776 50.1519 4.824C50.1199 4.872 50.1039 4.932 50.1039 5.004C50.1039 5.144 50.1499 5.242 50.2419 5.298C50.3379 5.35 50.4679 5.376 50.6319 5.376ZM50.5599 2.76C50.8239 2.76 51.0439 2.79 51.2199 2.85C51.3959 2.91 51.5359 2.996 51.6399 3.108C51.7479 3.22 51.8239 3.356 51.8679 3.516C51.9119 3.676 51.9339 3.854 51.9339 4.05V5.91C51.8059 5.938 51.6279 5.97 51.3999 6.006C51.1719 6.046 50.8959 6.066 50.5719 6.066C50.3679 6.066 50.1819 6.048 50.0139 6.012C49.8499 5.976 49.7079 5.918 49.5879 5.838C49.4679 5.754 49.3759 5.646 49.3119 5.514C49.2479 5.382 49.2159 5.22 49.2159 5.028C49.2159 4.844 49.2519 4.688 49.3239 4.56C49.3999 4.432 49.4999 4.33 49.6239 4.254C49.7479 4.178 49.8899 4.124 50.0499 4.092C50.2099 4.056 50.3759 4.038 50.5479 4.038C50.6639 4.038 50.7659 4.044 50.8539 4.056C50.9459 4.064 51.0199 4.076 51.0759 4.092V4.008C51.0759 3.856 51.0299 3.734 50.9379 3.642C50.8459 3.55 50.6859 3.504 50.4579 3.504C50.3059 3.504 50.1559 3.516 50.0079 3.54C49.8599 3.56 49.7319 3.59 49.6239 3.63L49.5099 2.91C49.5619 2.894 49.6259 2.878 49.7019 2.862C49.7819 2.842 49.8679 2.826 49.9599 2.814C50.0519 2.798 50.1479 2.786 50.2479 2.778C50.3519 2.766 50.4559 2.76 50.5599 2.76ZM53.6363 6H52.7423V2.844H53.6363V6ZM53.7203 1.932C53.7203 2.096 53.6663 2.226 53.5583 2.322C53.4543 2.414 53.3303 2.46 53.1863 2.46C53.0423 2.46 52.9163 2.414 52.8083 2.322C52.7043 2.226 52.6523 2.096 52.6523 1.932C52.6523 1.768 52.7043 1.64 52.8083 1.548C52.9163 1.452 53.0423 1.404 53.1863 1.404C53.3303 1.404 53.4543 1.452 53.5583 1.548C53.6663 1.64 53.7203 1.768 53.7203 1.932ZM54.4766 2.952C54.6286 2.908 54.8246 2.868 55.0646 2.832C55.3046 2.792 55.5566 2.772 55.8206 2.772C56.0886 2.772 56.3106 2.808 56.4866 2.88C56.6666 2.948 56.8086 3.046 56.9126 3.174C57.0166 3.302 57.0906 3.454 57.1346 3.63C57.1786 3.806 57.2006 4.002 57.2006 4.218V6H56.3066V4.326C56.3066 4.038 56.2686 3.834 56.1926 3.714C56.1166 3.594 55.9746 3.534 55.7666 3.534C55.7026 3.534 55.6346 3.538 55.5626 3.546C55.4906 3.55 55.4266 3.556 55.3706 3.564V6H54.4766V2.952ZM57.8598 4.446C57.8598 4.166 57.9018 3.922 57.9858 3.714C58.0738 3.502 58.1878 3.326 58.3278 3.186C58.4678 3.046 58.6278 2.94 58.8078 2.868C58.9918 2.796 59.1798 2.76 59.3718 2.76C59.8198 2.76 60.1738 2.898 60.4338 3.174C60.6938 3.446 60.8238 3.848 60.8238 4.38C60.8238 4.432 60.8218 4.49 60.8178 4.554C60.8138 4.614 60.8098 4.668 60.8058 4.716H58.7778C58.7978 4.9 58.8838 5.046 59.0358 5.154C59.1878 5.262 59.3918 5.316 59.6478 5.316C59.8118 5.316 59.9718 5.302 60.1278 5.274C60.2878 5.242 60.4178 5.204 60.5178 5.16L60.6378 5.886C60.5898 5.91 60.5258 5.934 60.4458 5.958C60.3658 5.982 60.2758 6.002 60.1758 6.018C60.0798 6.038 59.9758 6.054 59.8638 6.066C59.7518 6.078 59.6398 6.084 59.5278 6.084C59.2438 6.084 58.9958 6.042 58.7838 5.958C58.5758 5.874 58.4018 5.76 58.2618 5.616C58.1258 5.468 58.0238 5.294 57.9558 5.094C57.8918 4.894 57.8598 4.678 57.8598 4.446ZM59.9598 4.104C59.9558 4.028 59.9418 3.954 59.9178 3.882C59.8978 3.81 59.8638 3.746 59.8158 3.69C59.7718 3.634 59.7138 3.588 59.6418 3.552C59.5738 3.516 59.4878 3.498 59.3838 3.498C59.2838 3.498 59.1978 3.516 59.1258 3.552C59.0538 3.584 58.9938 3.628 58.9458 3.684C58.8978 3.74 58.8598 3.806 58.8318 3.882C58.8078 3.954 58.7898 4.028 58.7778 4.104H59.9598ZM60.0978 1.71L59.1078 2.544L58.6998 2.178L59.5518 1.206L60.0978 1.71ZM62.4078 6H61.5138V2.844H62.4078V6ZM62.4918 1.932C62.4918 2.096 62.4378 2.226 62.3298 2.322C62.2258 2.414 62.1018 2.46 61.9578 2.46C61.8138 2.46 61.6878 2.414 61.5798 2.322C61.4758 2.226 61.4238 2.096 61.4238 1.932C61.4238 1.768 61.4758 1.64 61.5798 1.548C61.6878 1.452 61.8138 1.404 61.9578 1.404C62.1018 1.404 62.2258 1.452 62.3298 1.548C62.4378 1.64 62.4918 1.768 62.4918 1.932ZM64.1541 5.358C64.3181 5.358 64.4341 5.342 64.5021 5.31C64.5701 5.278 64.6041 5.216 64.6041 5.124C64.6041 5.052 64.5601 4.99 64.4721 4.938C64.3841 4.882 64.2501 4.82 64.0701 4.752C63.9301 4.7 63.8021 4.646 63.6861 4.59C63.5741 4.534 63.4781 4.468 63.3981 4.392C63.3181 4.312 63.2561 4.218 63.2121 4.11C63.1681 4.002 63.1461 3.872 63.1461 3.72C63.1461 3.424 63.2561 3.19 63.4761 3.018C63.6961 2.846 63.9981 2.76 64.3821 2.76C64.5741 2.76 64.7581 2.778 64.9341 2.814C65.1101 2.846 65.2501 2.882 65.3541 2.922L65.1981 3.618C65.0941 3.582 64.9801 3.55 64.8561 3.522C64.7361 3.494 64.6001 3.48 64.4481 3.48C64.1681 3.48 64.0281 3.558 64.0281 3.714C64.0281 3.75 64.0341 3.782 64.0461 3.81C64.0581 3.838 64.0821 3.866 64.1181 3.894C64.1541 3.918 64.2021 3.946 64.2621 3.978C64.3261 4.006 64.4061 4.038 64.5021 4.074C64.6981 4.146 64.8601 4.218 64.9881 4.29C65.1161 4.358 65.2161 4.434 65.2881 4.518C65.3641 4.598 65.4161 4.688 65.4441 4.788C65.4761 4.888 65.4921 5.004 65.4921 5.136C65.4921 5.448 65.3741 5.684 65.1381 5.844C64.9061 6.004 64.5761 6.084 64.1481 6.084C63.8681 6.084 63.6341 6.06 63.4461 6.012C63.2621 5.964 63.1341 5.924 63.0621 5.892L63.2121 5.166C63.3641 5.226 63.5201 5.274 63.6801 5.31C63.8401 5.342 63.9981 5.358 64.1541 5.358Z" fill="#707070"/>
</svg>
