<svg xmlns="http://www.w3.org/2000/svg" width="140" height="95.826" viewBox="0 0 64.95 34.17"><defs><style>.cls-1{fill:#676d81;}.cls-2{fill:#fff;}.cls-3{fill:#e84d46;}.cls-4{fill:#2d314e;}</style></defs><g id="Layer_2" data-name="Layer 2"><g id="Layer_1-2" data-name="Layer 1"><rect class="cls-1" y="18.9" width="46.43" height="12.24" rx="2.5"/><path class="cls-2" d="M7.88,27.08V24.55l-1,2.53H6.48L5.42,24.55v2.53H4.63V23.57H5.74l.91,2.19.91-2.19H8.69v3.51Z"/><path class="cls-2" d="M9.47,25.67v-2.1h.81v2.08a.79.79,0,0,0,.88.83.79.79,0,0,0,.88-.83V23.57h.81v2.1c0,.87-.55,1.47-1.69,1.47S9.47,26.54,9.47,25.67Z"/><path class="cls-2" d="M16.22,27.08l-1.78-2.29v2.29h-.8V23.57h.82l1.74,2.2v-2.2H17v3.51Z"/><path class="cls-2" d="M17.78,27.08V23.57h1.48a1.77,1.77,0,1,1,0,3.51Zm2.65-1.76a1.06,1.06,0,0,0-1.17-1.09h-.68v2.19h.68A1.09,1.09,0,0,0,20.43,25.32Z"/><path class="cls-2" d="M21.68,25.33a1.82,1.82,0,0,1,2-1.81,1.82,1.82,0,1,1,0,3.62A1.82,1.82,0,0,1,21.68,25.33Zm3.09,0a1.14,1.14,0,1,0-1.13,1.15A1.09,1.09,0,0,0,24.77,25.33Z"/><path class="cls-2" d="M25.94,26.58l.44-.58a1.67,1.67,0,0,0,1.19.48c.44,0,.65-.19.65-.39,0-.61-2.16-.19-2.16-1.5,0-.59.54-1.07,1.43-1.07A2.2,2.2,0,0,1,29,24l-.45.56a1.64,1.64,0,0,0-1.09-.39c-.33,0-.53.14-.53.35,0,.55,2.16.18,2.16,1.48,0,.65-.5,1.13-1.5,1.13A2.25,2.25,0,0,1,25.94,26.58Z"/><path class="cls-2" d="M31.1,27.08V23.57h2c.72,0,1.08.43,1.08.9a.79.79,0,0,1-.64.8.86.86,0,0,1,.71.86,1,1,0,0,1-1.08.95Zm2.24-2.48c0-.22-.17-.37-.44-.37h-1V25h1C33.17,25,33.34,24.82,33.34,24.6ZM33.41,26c0-.22-.17-.4-.48-.4h-1v.8h1C33.23,26.42,33.41,26.27,33.41,26Z"/><rect class="cls-1" y="4.9" width="46.43" height="12.24" rx="2.5"/><path class="cls-2" d="M7.22,14.08V11.55L6.16,14.08H5.81l-1-2.53v2.53H4V10.57H5.08L6,12.76l.91-2.19H8v3.51Z"/><path class="cls-2" d="M8.81,12.67v-2.1h.81v2.08a.79.79,0,0,0,.88.83.78.78,0,0,0,.87-.83V10.57h.82v2.1c0,.87-.55,1.47-1.69,1.47S8.81,13.54,8.81,12.67Z"/><path class="cls-2" d="M15.56,14.08l-1.79-2.29v2.29H13V10.57h.82l1.73,2.2v-2.2h.8v3.51Z"/><path class="cls-2" d="M17.12,14.08V10.57h1.47a1.77,1.77,0,1,1,0,3.51Zm2.65-1.76a1.06,1.06,0,0,0-1.17-1.09h-.69v2.19h.68A1.09,1.09,0,0,0,19.77,12.32Z"/><path class="cls-2" d="M21,12.33a1.82,1.82,0,0,1,2-1.81,1.82,1.82,0,1,1,0,3.62A1.83,1.83,0,0,1,21,12.33Zm3.1,0A1.14,1.14,0,1,0,23,13.48,1.09,1.09,0,0,0,24.11,12.33Z"/><path class="cls-2" d="M25.28,13.58l.43-.58a1.71,1.71,0,0,0,1.19.48c.45,0,.66-.19.66-.39,0-.61-2.16-.19-2.16-1.5,0-.59.54-1.07,1.42-1.07a2.18,2.18,0,0,1,1.46.49l-.44.56a1.66,1.66,0,0,0-1.09-.39c-.34,0-.53.14-.53.35,0,.55,2.15.18,2.15,1.48,0,.65-.49,1.13-1.5,1.13A2.24,2.24,0,0,1,25.28,13.58Z"/><path class="cls-2" d="M33,14.08l-.24-.6H31.18l-.23.6H30l1.45-3.51h1l1.44,3.51Zm-1-2.76-.59,1.51h1.17Z"/><rect class="cls-3" x="40.14" y="2.67" width="16.7" height="16.7" rx="4" transform="translate(6.41 37.51) rotate(-45)"/><path class="cls-2" d="M45.82,13.93V9.32L44.76,10.4,44,9.59l2-2h1.18v6.35Z"/><path class="cls-2" d="M49.73,13.93V9.32L48.67,10.4l-.77-.81,2-2h1.18v6.35Z"/><rect class="cls-3" width="21" height="8.28" rx="0.9"/><path class="cls-2" d="M6.29,6.46V5.55H4.05V4.82L5.91,2.08H7.29V4.73h.6v.82h-.6v.91Zm0-3.55L5,4.73H6.29Z"/><path class="cls-2" d="M11.64,6.46l-1.17-1.6L9.29,6.46H8.1L9.8,4.22,8.21,2.08H9.39l1.08,1.5,1.06-1.5h1.2l-1.6,2.13,1.7,2.25Z"/><path class="cls-2" d="M13.11,4.28A2.08,2.08,0,0,1,15.29,2a2.17,2.17,0,0,1,1.38.45l-.45.72a1.24,1.24,0,0,0-.93-.35,1.18,1.18,0,0,0-1.17,1.24.34.34,0,0,0,0,.1,1.52,1.52,0,0,1,1.2-.57A1.45,1.45,0,0,1,16.93,5a1.61,1.61,0,0,1-1.8,1.5C13.7,6.54,13.11,5.51,13.11,4.28Zm2.8.79c0-.46-.42-.66-.87-.66a1.17,1.17,0,0,0-.91.42.9.9,0,0,0,.94.88C15.61,5.71,15.91,5.37,15.91,5.07Z"/><rect class="cls-3" x="40.14" y="15.67" width="16.7" height="16.7" rx="4" transform="translate(-2.78 41.32) rotate(-45)"/><path class="cls-2" d="M45,26.93V22.32L43.92,23.4l-.77-.81,2-2h1.18v6.35Z"/><path class="cls-2" d="M47.4,26.93V25.86c2.6-1.92,3.36-2.57,3.36-3.35,0-.56-.5-.83-1-.83a2.27,2.27,0,0,0-1.7.74l-.77-.9a3.25,3.25,0,0,1,2.45-1,2.15,2.15,0,0,1,2.42,2c0,1.09-.89,2-2.54,3.23h2.59v1.19Z"/></g></g></svg>