<svg xmlns="http://www.w3.org/2000/svg" width="248.113" height="89.546" viewBox="0 0 248.113 89.546">
  <g id="mundos" transform="translate(-425.915 -95.114)">
    <g id="Group_67" data-name="Group 67" transform="translate(563.163 144.747)">
      <path id="Path_66" data-name="Path 66" d="M317.14,327.653l-79.576-1.209,2.1-21.17h83.648L324.79,320Z" transform="translate(-219.48 -303.799)" fill="#9fa1a4" opacity="0.5"/>
      <path id="Path_67" data-name="Path 67" d="M325,326.944H228.878V304.566H332.735v14.728Z" transform="translate(-228.878 -304.566)" fill="#f4bdc7"/>
      <path id="Path_68" data-name="Path 68" d="M275.049,311.64v7.651l7.731-7.651Z" transform="translate(-178.923 -296.912)" fill="#fff"/>
    </g>
    <g id="Group_20" data-name="Group 20" transform="translate(553.75 178.334)" opacity="0.92">
      <g id="Group_19" data-name="Group 19">
        <path id="Path_27" data-name="Path 27" d="M374.811,48.227a2.985,2.985,0,1,0-2.982,3.16,3.075,3.075,0,0,0,2.982-3.16Z" transform="translate(-368.851 -45.061)" fill="#2d314e" opacity="0.8"/>
      </g>
    </g>
    <g id="Group_42" data-name="Group 42" transform="translate(559.915 117.099)">
      <path id="Path_55" data-name="Path 55" d="M455.792,46.869l-75.979-1.4,2.008-24.527h79.866L463.1,38Z" transform="translate(-348.987 -19.022)" fill="#f4bdc7" opacity="0.5"/>
      <path id="Path_56" data-name="Path 56" d="M475.459,46.16H371.128V20.233H483.851V37.3Z" transform="translate(-371.128 -20.233)" fill="#f4bdc7"/>
      <path id="Path_57" data-name="Path 57" d="M417.3,27.307v9.951l7.382-9.951Z" transform="translate(-311.958 -11.331)" fill="#f4bdc7"/>
    </g>
    <g id="Group_44" data-name="Group 44" transform="translate(631.555 95.114)">
      <g id="Group_43" data-name="Group 43" transform="translate(11.799)">
        <rect id="Rectangle_26" data-name="Rectangle 26" width="30.11" height="21.994"/>
        <path id="_4x6" data-name="4x6" d="M3.828-6.132q-.468.612-1,1.332a9.147,9.147,0,0,0-.888,1.476H3.828ZM5.58-8.316v4.992h.888V-1.86H5.58V0H3.828V-1.86H.24V-3.168Q.5-3.7.9-4.362T1.782-5.73q.486-.7,1.026-1.374a15,15,0,0,1,1.08-1.212Zm4.464,3.924,1.248-1.92H13.14L10.98-3.276q.72.9,1.308,1.752A14.425,14.425,0,0,1,13.224,0H11.3l-.24-.45q-.144-.27-.324-.564T10.362-1.6q-.2-.294-.39-.534-.18.228-.366.5t-.354.558q-.168.282-.33.558T8.64,0H6.816a7.862,7.862,0,0,1,.4-.708q.252-.408.546-.846t.618-.876q.324-.438.636-.822-.54-.756-1.08-1.53L6.864-6.312H8.8Zm6.468.48a3.579,3.579,0,0,0-.564.048,1.662,1.662,0,0,0-.468.132q0,.048-.006.144t-.006.168a5.287,5.287,0,0,0,.06.816,2.286,2.286,0,0,0,.2.672,1.149,1.149,0,0,0,.384.45,1.049,1.049,0,0,0,.6.162.974.974,0,0,0,.51-.126,1.154,1.154,0,0,0,.348-.318,1.353,1.353,0,0,0,.2-.426,1.656,1.656,0,0,0,.066-.45,1.335,1.335,0,0,0-.306-.942A1.35,1.35,0,0,0,16.512-3.912ZM16.74-5.3a3.7,3.7,0,0,1,1.326.21,2.438,2.438,0,0,1,.894.57,2.148,2.148,0,0,1,.5.84,3.28,3.28,0,0,1,.156,1.02,3.005,3.005,0,0,1-.174.984,2.749,2.749,0,0,1-.528.912,2.766,2.766,0,0,1-.9.672,2.935,2.935,0,0,1-1.29.264,2.782,2.782,0,0,1-2.28-.948,4,4,0,0,1-.78-2.616A5.654,5.654,0,0,1,14.04-5.52,4.187,4.187,0,0,1,15.1-7.074a4.635,4.635,0,0,1,1.668-.96,7.085,7.085,0,0,1,2.2-.342Q19-8,19.02-7.65t.048.738a6.823,6.823,0,0,0-1.146.114,3.8,3.8,0,0,0-.972.318,2.66,2.66,0,0,0-.762.558,2.388,2.388,0,0,0-.5.834,2.22,2.22,0,0,1,.54-.168A3.021,3.021,0,0,1,16.74-5.3Z" transform="translate(5.055 15.497)" fill="#fff"/>
      </g>
    </g>
    <ellipse id="Ellipse_10" data-name="Ellipse 10" cx="23.022" cy="22.782" rx="23.022" ry="22.782" transform="translate(533.708 113.488)" fill="#eee9de"/>
    <path id="Path_58" data-name="Path 58" d="M410.8,45.163a25.051,25.051,0,1,0-50.1,0,24.513,24.513,0,0,0,5.5,15.492c4.59,5.668,19.211,23.037,19.211,23.037s15.308-17.369,19.9-23.037A24.53,24.53,0,0,0,410.8,45.163Z" transform="translate(170.979 91.108)" fill="#2d314e" opacity="0.92"/>
    <path id="MUNDOS_A" data-name="MUNDOS A" d="M2.9-7.623q.2.363.457.9T3.9-5.571q.28.622.556,1.27L4.972-3.08,5.489-4.3q.275-.649.555-1.27t.539-1.155q.258-.533.457-.9H8.6q.11.759.2,1.7T8.97-3.966q.071,1.018.132,2.041T9.207,0H7.535Q7.5-1.111,7.447-2.42T7.282-5.06q-.2.462-.44,1.023T6.363-2.915q-.237.561-.456,1.072t-.374.875h-1.2q-.154-.363-.374-.875T3.5-2.915q-.237-.561-.479-1.122T2.585-5.06q-.11,1.331-.165,2.64T2.332,0H.66Q.7-.9.765-1.925T.9-3.966q.072-1.018.165-1.958t.2-1.7ZM13.827.154a3.839,3.839,0,0,1-1.386-.226A2.582,2.582,0,0,1,11.478-.7a2.5,2.5,0,0,1-.561-.957,3.932,3.932,0,0,1-.181-1.227V-7.623h1.716v4.6a2.586,2.586,0,0,0,.1.786,1.449,1.449,0,0,0,.286.528,1.021,1.021,0,0,0,.44.292,1.748,1.748,0,0,0,.566.088,1.387,1.387,0,0,0,1.017-.385,1.8,1.8,0,0,0,.391-1.309v-4.6h1.716v4.741a3.876,3.876,0,0,1-.187,1.232,2.521,2.521,0,0,1-.572.963,2.565,2.565,0,0,1-.979.622A4.055,4.055,0,0,1,13.827.154ZM23.837,0q-.737-1.309-1.6-2.585a26.271,26.271,0,0,0-1.826-2.409V0H18.722V-7.623h1.4q.363.363.8.891t.9,1.127q.457.6.907,1.243t.847,1.237v-4.5h1.7V0Zm5.016-1.4q.121.011.28.017t.38.005a2.531,2.531,0,0,0,1.909-.649,2.486,2.486,0,0,0,.621-1.793,2.517,2.517,0,0,0-.594-1.815,2.514,2.514,0,0,0-1.881-.616q-.176,0-.363.006a3.431,3.431,0,0,0-.352.027Zm4.961-2.42a4.456,4.456,0,0,1-.308,1.727,3.2,3.2,0,0,1-.875,1.221,3.73,3.73,0,0,1-1.381.726A6.4,6.4,0,0,1,29.425.1Q28.963.1,28.347.06A8.807,8.807,0,0,1,27.137-.1V-7.524a10.109,10.109,0,0,1,1.238-.148q.643-.039,1.105-.038a6.676,6.676,0,0,1,1.777.22,3.634,3.634,0,0,1,1.369.693,3.08,3.08,0,0,1,.88,1.21A4.584,4.584,0,0,1,33.814-3.817Zm2.97,0A3.465,3.465,0,0,0,36.922-2.8a2.312,2.312,0,0,0,.4.775,1.753,1.753,0,0,0,.632.5,1.993,1.993,0,0,0,.858.176,2,2,0,0,0,.852-.176,1.741,1.741,0,0,0,.638-.5,2.312,2.312,0,0,0,.4-.775,3.465,3.465,0,0,0,.138-1.012,3.521,3.521,0,0,0-.138-1.017,2.305,2.305,0,0,0-.4-.781,1.741,1.741,0,0,0-.638-.5,2,2,0,0,0-.852-.176,1.942,1.942,0,0,0-.858.182,1.808,1.808,0,0,0-.632.506,2.305,2.305,0,0,0-.4.781A3.48,3.48,0,0,0,36.784-3.817Zm5.819,0A4.691,4.691,0,0,1,42.312-2.1a3.54,3.54,0,0,1-.8,1.243,3.274,3.274,0,0,1-1.2.754,4.376,4.376,0,0,1-1.5.253A4.264,4.264,0,0,1,37.334-.1a3.389,3.389,0,0,1-1.21-.754A3.523,3.523,0,0,1,35.31-2.1a4.613,4.613,0,0,1-.3-1.721,4.466,4.466,0,0,1,.308-1.721,3.668,3.668,0,0,1,.83-1.248,3.415,3.415,0,0,1,1.21-.759A4.155,4.155,0,0,1,38.808-7.8a4.264,4.264,0,0,1,1.474.253,3.352,3.352,0,0,1,1.21.759,3.58,3.58,0,0,1,.814,1.248A4.613,4.613,0,0,1,42.6-3.817Zm3.608,2.508a2.475,2.475,0,0,0,.6-.061,1.105,1.105,0,0,0,.38-.165.552.552,0,0,0,.2-.247.882.882,0,0,0,.055-.319.737.737,0,0,0-.352-.622,5.03,5.03,0,0,0-1.21-.533q-.374-.132-.748-.3a2.757,2.757,0,0,1-.671-.429,2.052,2.052,0,0,1-.484-.627,1.964,1.964,0,0,1-.187-.9,2.22,2.22,0,0,1,.2-.951,2.031,2.031,0,0,1,.561-.721,2.567,2.567,0,0,1,.88-.457A3.95,3.95,0,0,1,46.6-7.8a4.748,4.748,0,0,1,1.331.165,4.756,4.756,0,0,1,.924.363l-.495,1.353a4.688,4.688,0,0,0-.709-.292,3.072,3.072,0,0,0-.941-.126,1.725,1.725,0,0,0-.885.17.575.575,0,0,0-.27.523.6.6,0,0,0,.1.352.962.962,0,0,0,.281.258,2.468,2.468,0,0,0,.418.209q.236.093.522.192.594.22,1.034.435a2.761,2.761,0,0,1,.731.5,1.813,1.813,0,0,1,.435.671,2.7,2.7,0,0,1,.143.935,1.986,1.986,0,0,1-.748,1.655,3.61,3.61,0,0,1-2.255.589A6.248,6.248,0,0,1,45.3.094a5.892,5.892,0,0,1-.721-.149,4.133,4.133,0,0,1-.539-.187,4.092,4.092,0,0,1-.379-.187l.484-1.364a4.315,4.315,0,0,0,.841.336A4.365,4.365,0,0,0,46.211-1.309ZM58.476,0q-.121-.4-.27-.814t-.292-.836h-2.97q-.143.418-.292.836T54.384,0H52.6q.429-1.232.814-2.277t.754-1.969Q54.538-5.17,54.9-6t.743-1.623h1.639q.374.792.737,1.623t.731,1.754q.368.924.754,1.969T60.313,0ZM56.419-5.9q-.055.165-.165.451L56-4.785q-.143.374-.313.825t-.347.946h2.167q-.176-.5-.341-.946t-.313-.825q-.148-.374-.258-.66T56.419-5.9Z" transform="translate(593.488 134.595)"/>
    <path id="MUNDOS_B" data-name="MUNDOS B" d="M2.9-7.623q.2.363.457.9T3.9-5.571q.28.622.556,1.27L4.972-3.08,5.489-4.3q.275-.649.555-1.27t.539-1.155q.258-.533.457-.9H8.6q.11.759.2,1.7T8.97-3.966q.071,1.018.132,2.041T9.207,0H7.535Q7.5-1.111,7.447-2.42T7.282-5.06q-.2.462-.44,1.023T6.363-2.915q-.237.561-.456,1.072t-.374.875h-1.2q-.154-.363-.374-.875T3.5-2.915q-.237-.561-.479-1.122T2.585-5.06q-.11,1.331-.165,2.64T2.332,0H.66Q.7-.9.765-1.925T.9-3.966q.072-1.018.165-1.958t.2-1.7ZM13.827.154a3.839,3.839,0,0,1-1.386-.226A2.582,2.582,0,0,1,11.478-.7a2.5,2.5,0,0,1-.561-.957,3.932,3.932,0,0,1-.181-1.227V-7.623h1.716v4.6a2.586,2.586,0,0,0,.1.786,1.449,1.449,0,0,0,.286.528,1.021,1.021,0,0,0,.44.292,1.748,1.748,0,0,0,.566.088,1.387,1.387,0,0,0,1.017-.385,1.8,1.8,0,0,0,.391-1.309v-4.6h1.716v4.741a3.876,3.876,0,0,1-.187,1.232,2.521,2.521,0,0,1-.572.963,2.565,2.565,0,0,1-.979.622A4.055,4.055,0,0,1,13.827.154ZM23.837,0q-.737-1.309-1.6-2.585a26.271,26.271,0,0,0-1.826-2.409V0H18.722V-7.623h1.4q.363.363.8.891t.9,1.127q.457.6.907,1.243t.847,1.237v-4.5h1.7V0Zm5.016-1.4q.121.011.28.017t.38.005a2.531,2.531,0,0,0,1.909-.649,2.486,2.486,0,0,0,.621-1.793,2.517,2.517,0,0,0-.594-1.815,2.514,2.514,0,0,0-1.881-.616q-.176,0-.363.006a3.431,3.431,0,0,0-.352.027Zm4.961-2.42a4.456,4.456,0,0,1-.308,1.727,3.2,3.2,0,0,1-.875,1.221,3.73,3.73,0,0,1-1.381.726A6.4,6.4,0,0,1,29.425.1Q28.963.1,28.347.06A8.807,8.807,0,0,1,27.137-.1V-7.524a10.109,10.109,0,0,1,1.238-.148q.643-.039,1.105-.038a6.676,6.676,0,0,1,1.777.22,3.634,3.634,0,0,1,1.369.693,3.08,3.08,0,0,1,.88,1.21A4.584,4.584,0,0,1,33.814-3.817Zm2.97,0A3.465,3.465,0,0,0,36.922-2.8a2.312,2.312,0,0,0,.4.775,1.753,1.753,0,0,0,.632.5,1.993,1.993,0,0,0,.858.176,2,2,0,0,0,.852-.176,1.741,1.741,0,0,0,.638-.5,2.312,2.312,0,0,0,.4-.775,3.465,3.465,0,0,0,.138-1.012,3.521,3.521,0,0,0-.138-1.017,2.305,2.305,0,0,0-.4-.781,1.741,1.741,0,0,0-.638-.5,2,2,0,0,0-.852-.176,1.942,1.942,0,0,0-.858.182,1.808,1.808,0,0,0-.632.506,2.305,2.305,0,0,0-.4.781A3.48,3.48,0,0,0,36.784-3.817Zm5.819,0A4.691,4.691,0,0,1,42.312-2.1a3.54,3.54,0,0,1-.8,1.243,3.274,3.274,0,0,1-1.2.754,4.376,4.376,0,0,1-1.5.253A4.264,4.264,0,0,1,37.334-.1a3.389,3.389,0,0,1-1.21-.754A3.523,3.523,0,0,1,35.31-2.1a4.613,4.613,0,0,1-.3-1.721,4.466,4.466,0,0,1,.308-1.721,3.668,3.668,0,0,1,.83-1.248,3.415,3.415,0,0,1,1.21-.759A4.155,4.155,0,0,1,38.808-7.8a4.264,4.264,0,0,1,1.474.253,3.352,3.352,0,0,1,1.21.759,3.58,3.58,0,0,1,.814,1.248A4.613,4.613,0,0,1,42.6-3.817Zm3.608,2.508a2.475,2.475,0,0,0,.6-.061,1.105,1.105,0,0,0,.38-.165.552.552,0,0,0,.2-.247.882.882,0,0,0,.055-.319.737.737,0,0,0-.352-.622,5.03,5.03,0,0,0-1.21-.533q-.374-.132-.748-.3a2.757,2.757,0,0,1-.671-.429,2.052,2.052,0,0,1-.484-.627,1.964,1.964,0,0,1-.187-.9,2.22,2.22,0,0,1,.2-.951,2.031,2.031,0,0,1,.561-.721,2.567,2.567,0,0,1,.88-.457A3.95,3.95,0,0,1,46.6-7.8a4.748,4.748,0,0,1,1.331.165,4.756,4.756,0,0,1,.924.363l-.495,1.353a4.688,4.688,0,0,0-.709-.292,3.072,3.072,0,0,0-.941-.126,1.725,1.725,0,0,0-.885.17.575.575,0,0,0-.27.523.6.6,0,0,0,.1.352.962.962,0,0,0,.281.258,2.468,2.468,0,0,0,.418.209q.236.093.522.192.594.22,1.034.435a2.761,2.761,0,0,1,.731.5,1.813,1.813,0,0,1,.435.671,2.7,2.7,0,0,1,.143.935,1.986,1.986,0,0,1-.748,1.655,3.61,3.61,0,0,1-2.255.589A6.248,6.248,0,0,1,45.3.094a5.892,5.892,0,0,1-.721-.149,4.133,4.133,0,0,1-.539-.187,4.092,4.092,0,0,1-.379-.187l.484-1.364a4.315,4.315,0,0,0,.841.336A4.365,4.365,0,0,0,46.211-1.309ZM55.913.1Q55.286.1,54.665.06a8.824,8.824,0,0,1-1.292-.181V-7.513a10.977,10.977,0,0,1,1.155-.148q.627-.049,1.166-.049a7.941,7.941,0,0,1,1.336.1,3.165,3.165,0,0,1,1.051.358,1.873,1.873,0,0,1,.688.665,1.946,1.946,0,0,1,.247,1.017,1.615,1.615,0,0,1-.88,1.441,1.8,1.8,0,0,1,.99.748,2.152,2.152,0,0,1,.264,1.067,2.049,2.049,0,0,1-.875,1.8A4.583,4.583,0,0,1,55.913.1Zm-.869-3.421v1.969q.187.022.407.033t.484.011a2.973,2.973,0,0,0,1.243-.22.816.816,0,0,0,.473-.814.8.8,0,0,0-.4-.754,2.32,2.32,0,0,0-1.133-.225Zm0-1.309h.836a2.329,2.329,0,0,0,1.133-.2.7.7,0,0,0,.341-.655A.672.672,0,0,0,57-6.138a2.262,2.262,0,0,0-1.034-.187q-.22,0-.473.005t-.451.028Z" transform="translate(592.757 158.674)"/>
    <ellipse id="Ellipse_11" data-name="Ellipse 11" cx="23.022" cy="22.782" rx="23.022" ry="22.782" transform="translate(533.708 113.488)" fill="#98c390"/>
    <path id="_03" data-name="03" d="M6.942-4.524a5.974,5.974,0,0,1-.865,3.49A2.768,2.768,0,0,1,3.692.182,2.768,2.768,0,0,1,1.307-1.033a5.974,5.974,0,0,1-.865-3.49,7.953,7.953,0,0,1,.227-2,4.408,4.408,0,0,1,.656-1.469A2.926,2.926,0,0,1,2.353-8.9a2.851,2.851,0,0,1,1.339-.312A2.768,2.768,0,0,1,6.077-8,5.948,5.948,0,0,1,6.942-4.524Zm-1.976,0A10.577,10.577,0,0,0,4.9-5.753a4.421,4.421,0,0,0-.208-.955,1.483,1.483,0,0,0-.39-.624.883.883,0,0,0-.611-.221.859.859,0,0,0-.6.221,1.573,1.573,0,0,0-.39.624,4.159,4.159,0,0,0-.214.955,10.577,10.577,0,0,0-.065,1.229,10.748,10.748,0,0,0,.065,1.235,4.167,4.167,0,0,0,.214.962,1.573,1.573,0,0,0,.39.624.859.859,0,0,0,.6.221A.883.883,0,0,0,4.3-1.7a1.483,1.483,0,0,0,.39-.624A4.428,4.428,0,0,0,4.9-3.289,10.748,10.748,0,0,0,4.966-4.524Zm5.5,4.719A6.405,6.405,0,0,1,9.724.149Q9.334.1,8.97.026T8.307-.143a3.819,3.819,0,0,1-.468-.169l.377-1.612q.338.143.865.306a4.491,4.491,0,0,0,1.307.162A2.072,2.072,0,0,0,11.7-1.794a1.112,1.112,0,0,0,.416-.91,1.1,1.1,0,0,0-.149-.592,1.143,1.143,0,0,0-.409-.39,1.819,1.819,0,0,0-.618-.208,4.71,4.71,0,0,0-.76-.059H9.425v-1.56h.858a2.879,2.879,0,0,0,.552-.052,1.475,1.475,0,0,0,.475-.175.919.919,0,0,0,.332-.338,1.069,1.069,0,0,0,.123-.54.85.85,0,0,0-.1-.429.934.934,0,0,0-.266-.3,1.162,1.162,0,0,0-.377-.175,1.648,1.648,0,0,0-.436-.059,3.06,3.06,0,0,0-1.033.169,4.315,4.315,0,0,0-.865.416L7.995-8.411q.208-.13.488-.273a4.811,4.811,0,0,1,.618-.26,5.643,5.643,0,0,1,.721-.195,4.071,4.071,0,0,1,.813-.078,4.444,4.444,0,0,1,1.372.188,2.578,2.578,0,0,1,.956.533,2.148,2.148,0,0,1,.559.806A2.722,2.722,0,0,1,13.7-6.682a1.99,1.99,0,0,1-.3,1.034,1.972,1.972,0,0,1-.806.76,2.335,2.335,0,0,1,1.085.852,2.362,2.362,0,0,1,.384,1.359,3.1,3.1,0,0,1-.208,1.15,2.32,2.32,0,0,1-.65.91,3.119,3.119,0,0,1-1.125.6A5.425,5.425,0,0,1,10.465.195Z" transform="translate(549.23 131.595)" fill="#231f20"/>
    <path id="_02" data-name="02" d="M6.942-4.524a5.974,5.974,0,0,1-.865,3.49A2.768,2.768,0,0,1,3.692.182,2.768,2.768,0,0,1,1.307-1.033a5.974,5.974,0,0,1-.865-3.49,7.953,7.953,0,0,1,.227-2,4.408,4.408,0,0,1,.656-1.469A2.926,2.926,0,0,1,2.353-8.9a2.851,2.851,0,0,1,1.339-.312A2.768,2.768,0,0,1,6.077-8,5.948,5.948,0,0,1,6.942-4.524Zm-1.976,0A10.577,10.577,0,0,0,4.9-5.753a4.421,4.421,0,0,0-.208-.955,1.483,1.483,0,0,0-.39-.624.883.883,0,0,0-.611-.221.859.859,0,0,0-.6.221,1.573,1.573,0,0,0-.39.624,4.159,4.159,0,0,0-.214.955,10.577,10.577,0,0,0-.065,1.229,10.748,10.748,0,0,0,.065,1.235,4.167,4.167,0,0,0,.214.962,1.573,1.573,0,0,0,.39.624.859.859,0,0,0,.6.221A.883.883,0,0,0,4.3-1.7a1.483,1.483,0,0,0,.39-.624A4.428,4.428,0,0,0,4.9-3.289,10.748,10.748,0,0,0,4.966-4.524Zm8.983-2.119a2.385,2.385,0,0,1-.195.949,4.382,4.382,0,0,1-.507.877,7.191,7.191,0,0,1-.7.813q-.39.39-.767.741-.2.182-.422.409t-.436.462q-.208.234-.371.435a1.081,1.081,0,0,0-.2.332h3.874V0H8.216A2.1,2.1,0,0,1,8.19-.364V-.676a3.141,3.141,0,0,1,.2-1.144,4.277,4.277,0,0,1,.527-.968,6.1,6.1,0,0,1,.734-.839q.409-.39.813-.78.312-.3.585-.566a6.447,6.447,0,0,0,.481-.52A2.373,2.373,0,0,0,11.856-6a1.215,1.215,0,0,0,.117-.514.927.927,0,0,0-.325-.806,1.343,1.343,0,0,0-.806-.234,1.916,1.916,0,0,0-.656.11,3.322,3.322,0,0,0-.559.26,3.442,3.442,0,0,0-.436.3q-.182.149-.273.241L7.956-7.995a4.906,4.906,0,0,1,1.332-.878,3.907,3.907,0,0,1,1.632-.344,4.527,4.527,0,0,1,1.365.182,2.552,2.552,0,0,1,.943.514,1.991,1.991,0,0,1,.546.806A3.076,3.076,0,0,1,13.949-6.643Z" transform="translate(549.23 150.946)" fill="#231f20"/>
    <g id="Group_66" data-name="Group 66" transform="translate(-490.716 -151)">
      <rect id="Rectangle_41" data-name="Rectangle 41" width="106" height="56" transform="translate(916.631 263)" fill="none"/>
    </g>
  </g>
</svg>
