<?xml version="1.0" encoding="utf-8"?>
<!-- Generator: Adobe Illustrator 25.2.3, SVG Export Plug-In . SVG Version: 6.00 Build 0)  -->
<svg version="1.1" id="Layer_1" xmlns="http://www.w3.org/2000/svg" width="248.113" height="89.546" xmlns:xlink="http://www.w3.org/1999/xlink" x="0px" y="0px"
	 viewBox="0 0 248.1 89.5" style="enable-background:new 0 0 248.1 89.5;" xml:space="preserve">
<style type="text/css">
	.st0{opacity:0.92;fill:#2D314E;enable-background:new    ;}
	.st1{fill:none;}
	.st2{fill:#E84D46;}
	.st3{fill:#292333;}
	.st4{fill:#FFFFFF;}
</style>
<g id="_24_julho_novo" transform="translate(200.275 451.873)">
	<path id="Path_11" class="st0" d="M-66-365.5c-0.1,1.9-1.7,3.3-3.6,3.2c-1.9-0.1-3.3-1.7-3.2-3.6c0.1-1.8,1.6-3.2,3.4-3.2
		C-67.4-369-65.9-367.4-66-365.5z"/>
</g>
<g id="mundos" transform="translate(-425.915 -95.114)">
	<g id="Group_66" transform="translate(-490.716 -151)">
		<rect id="Rectangle_41" x="916.6" y="263" class="st1" width="106" height="56"/>
	</g>
</g>
<rect x="107.2" y="18.6" class="st2" width="37.5" height="27.5"/>
<g>
	<rect x="193" y="0" class="st2" width="54.8" height="18.6"/>
</g>
<rect x="144.2" y="18.6" class="st3" width="103.7" height="27.5"/>
<g>
	<rect x="144.2" y="47.6" class="st3" width="103.6" height="27.5"/>
</g>
<rect x="107.2" y="47.6" class="st2" width="37.5" height="27.5"/>
<polygon class="st2" points="107.2,75.1 124.6,82.6 115.6,72.9 "/>
<g>
	<path class="st4" d="M119.8,40c-1,0-1.8-0.2-2.6-0.7c-0.7-0.4-1.3-1-1.8-1.8s-0.8-1.6-1-2.4c-0.2-0.9-0.3-1.8-0.3-2.7
		c0-0.9,0.1-1.8,0.3-2.7c0.2-0.9,0.5-1.7,1-2.4s1-1.3,1.8-1.8c0.7-0.4,1.6-0.7,2.6-0.7c1,0,1.8,0.2,2.6,0.7c0.7,0.4,1.3,1,1.8,1.8
		s0.8,1.5,1,2.4c0.2,0.9,0.3,1.8,0.3,2.7c0,0.9-0.1,1.8-0.3,2.7c-0.2,0.9-0.5,1.7-1,2.4s-1,1.3-1.8,1.8S120.8,40,119.8,40z
		 M117.6,37.4c0.6,0.6,1.3,0.9,2.2,0.9c0.9,0,1.6-0.3,2.2-0.9c0.6-0.6,1-1.3,1.2-2.2c0.2-0.9,0.3-1.8,0.3-2.9c0-1.1-0.1-2-0.3-2.9
		c-0.2-0.9-0.6-1.6-1.2-2.2c-0.6-0.6-1.3-0.9-2.2-0.9c-0.9,0-1.6,0.3-2.2,0.9c-0.6,0.6-1,1.3-1.2,2.2c-0.2,0.9-0.3,1.8-0.3,2.9
		c0,1.1,0.1,2,0.3,2.9C116.6,36.1,117,36.8,117.6,37.4z"/>
	<path class="st4" d="M136.1,39.7h-1.8V36h-7v-1.5l6.3-9.4h2.5v9.3h2.1V36h-2.1V39.7z M134.2,34.4v-7.7l-5.1,7.7H134.2z"/>
</g>
<g>
	<path class="st4" d="M213.2,14.5h-1.3v-2.6H207v-1.1l4.4-6.6h1.8v6.6h1.5v1.1h-1.5V14.5z M211.9,10.7V5.3l-3.6,5.4H211.9z"/>
	<path class="st4" d="M225,14.5h-1.6l-3.3-4.4l-3.3,4.4h-1.6l4-5.3l-3.8-5h1.6l3.1,4.1l3.1-4.1h1.6l-3.8,5L225,14.5z"/>
	<path class="st4" d="M230,14.7c-0.7,0-1.3-0.1-1.8-0.4c-0.5-0.3-0.9-0.7-1.2-1.2s-0.5-1.1-0.7-1.7c-0.2-0.6-0.2-1.3-0.2-2
		c0-1.5,0.4-2.8,1.1-3.8c0.7-1,1.8-1.5,3.1-1.5c1.2,0,2.1,0.4,2.9,1.2l-0.7,1c-0.6-0.7-1.3-1.1-2.2-1.1c-0.9,0-1.7,0.4-2.2,1.2
		c-0.5,0.8-0.8,1.8-0.8,2.9v0.4c0.3-0.4,0.7-0.8,1.2-1.1c0.5-0.3,1.1-0.5,1.7-0.5c1,0,1.8,0.3,2.4,0.9c0.6,0.6,1,1.4,1,2.4
		c0,0.9-0.3,1.7-1,2.4S231.1,14.7,230,14.7z M229.9,13.5c0.7,0,1.3-0.2,1.7-0.7c0.4-0.5,0.6-1,0.6-1.5c0-0.7-0.2-1.3-0.7-1.7
		c-0.4-0.4-1-0.6-1.7-0.6c-0.5,0-1,0.1-1.5,0.4s-0.8,0.7-1.1,1.1c0.1,0.8,0.3,1.4,0.7,2C228.5,13.2,229.1,13.5,229.9,13.5z"/>
</g>
<g>
	<path class="st4" d="M167.1,37.5h-1.3v-8.7l-3.5,8.7h-0.5l-3.5-8.7v8.7H157V27.2h1.8l3.2,8l3.2-8h1.8V37.5z"/>
	<path class="st4" d="M173.8,37.7c-1.4,0-2.4-0.4-3.1-1.1c-0.7-0.7-1.1-1.8-1.1-3.1v-6.3h1.3v6.3c0,1,0.2,1.7,0.8,2.3
		s1.2,0.8,2.2,0.8s1.7-0.3,2.2-0.8c0.5-0.5,0.8-1.3,0.8-2.3v-6.3h1.3v6.3c0,1.3-0.4,2.3-1.1,3.1C176.2,37.4,175.2,37.7,173.8,37.7z"
		/>
	<path class="st4" d="M189,37.5h-1.2l-6-8.2v8.2h-1.3V27.2h1.3l6,8.1v-8.1h1.3V37.5z"/>
	<path class="st4" d="M194.9,37.5h-3.5V27.2h3.5c1.6,0,2.9,0.5,3.8,1.5c1,1,1.5,2.2,1.5,3.7c0,1.5-0.5,2.7-1.5,3.7
		C197.8,37.1,196.5,37.5,194.9,37.5z M194.9,36.4c1.2,0,2.2-0.4,2.9-1.1s1.1-1.7,1.1-2.9c0-1.2-0.4-2.1-1.1-2.9
		c-0.7-0.8-1.7-1.1-2.9-1.1h-2.2v8H194.9z"/>
	<path class="st4" d="M210.7,36.2c-1,1-2.2,1.5-3.7,1.5s-2.7-0.5-3.7-1.5c-1-1-1.4-2.3-1.4-3.8s0.5-2.8,1.4-3.8c1-1,2.2-1.5,3.7-1.5
		s2.7,0.5,3.7,1.5c1,1,1.4,2.3,1.4,3.8S211.6,35.2,210.7,36.2z M207,36.6c1.1,0,2.1-0.4,2.8-1.2c0.7-0.8,1.1-1.8,1.1-3
		s-0.4-2.2-1.1-3c-0.7-0.8-1.6-1.2-2.8-1.2c-1.1,0-2.1,0.4-2.8,1.2c-0.7,0.8-1,1.8-1,3c0,1.2,0.3,2.2,1,3
		C204.9,36.2,205.8,36.6,207,36.6z"/>
	<path class="st4" d="M217.5,37.7c-1.7,0-3-0.5-4-1.6l0.8-1c0.9,1,1.9,1.5,3.2,1.5c0.8,0,1.5-0.2,1.8-0.5c0.4-0.4,0.6-0.8,0.6-1.3
		c0-0.4-0.2-0.8-0.5-1c-0.3-0.3-0.7-0.5-1.1-0.6s-0.9-0.3-1.5-0.4c-0.5-0.2-1-0.3-1.5-0.5c-0.4-0.2-0.8-0.5-1.1-0.9
		c-0.3-0.4-0.5-0.9-0.5-1.5c0-0.8,0.3-1.5,1-2.1c0.7-0.5,1.5-0.8,2.6-0.8c1.5,0,2.7,0.5,3.7,1.5l-0.8,0.9c-0.7-0.8-1.7-1.2-3-1.2
		c-0.6,0-1.1,0.2-1.5,0.5c-0.4,0.3-0.6,0.7-0.6,1.2c0,0.4,0.2,0.7,0.5,0.9c0.3,0.2,0.7,0.4,1.1,0.5c0.5,0.1,0.9,0.3,1.5,0.4
		c0.5,0.2,1,0.4,1.5,0.5s0.8,0.5,1.1,0.9c0.3,0.4,0.5,0.9,0.5,1.5c0,0.8-0.3,1.6-0.9,2.1C219.7,37.4,218.8,37.7,217.5,37.7z"/>
	<path class="st4" d="M236.1,37.5h-1.5l-0.9-2.3h-5.1l-0.9,2.3h-1.5l4.2-10.3h1.6L236.1,37.5z M233.3,34.1l-2.2-5.6l-2.2,5.6H233.3z
		"/>
</g>
<g>
	<path class="st4" d="M119.8,69c-1,0-1.8-0.2-2.6-0.7c-0.7-0.4-1.3-1-1.8-1.8s-0.8-1.6-1-2.4c-0.2-0.9-0.3-1.8-0.3-2.7
		c0-0.9,0.1-1.8,0.3-2.7c0.2-0.9,0.5-1.7,1-2.4c0.4-0.7,1-1.3,1.8-1.8c0.7-0.4,1.6-0.7,2.6-0.7c1,0,1.8,0.2,2.6,0.7s1.3,1,1.8,1.8
		c0.4,0.7,0.8,1.5,1,2.4c0.2,0.9,0.3,1.8,0.3,2.7c0,0.9-0.1,1.8-0.3,2.7c-0.2,0.9-0.5,1.7-1,2.4s-1,1.3-1.8,1.8S120.8,69,119.8,69z
		 M117.6,66.4c0.6,0.6,1.3,0.9,2.2,0.9c0.9,0,1.6-0.3,2.2-0.9c0.6-0.6,1-1.3,1.2-2.2c0.2-0.9,0.3-1.8,0.3-2.9c0-1.1-0.1-2-0.3-2.9
		c-0.2-0.9-0.6-1.6-1.2-2.2c-0.6-0.6-1.3-0.9-2.2-0.9c-0.9,0-1.6,0.3-2.2,0.9c-0.6,0.6-1,1.3-1.2,2.2c-0.2,0.9-0.3,1.8-0.3,2.9
		c0,1.1,0.1,2,0.3,2.9C116.6,65.1,117,65.8,117.6,66.4z"/>
	<path class="st4" d="M132.4,69c-1.2,0-2.2-0.2-3.1-0.7c-0.9-0.5-1.6-1-2.1-1.7l1.1-1.1c0.4,0.6,1,1.1,1.7,1.4
		c0.7,0.4,1.5,0.5,2.4,0.5c1.1,0,1.9-0.2,2.5-0.7c0.6-0.5,0.9-1.2,0.9-2c0-0.9-0.3-1.5-1-2c-0.7-0.4-1.5-0.6-2.7-0.6
		c-0.9,0-1.4,0-1.5,0v-1.7c0.2,0,0.7,0,1.5,0c1,0,1.8-0.2,2.5-0.6s1-1,1-1.8c0-0.8-0.3-1.4-0.9-1.8c-0.6-0.4-1.4-0.7-2.3-0.7
		c-1.5,0-2.8,0.6-3.9,1.8l-1-1.1c1.2-1.5,2.9-2.3,5-2.3c1.5,0,2.6,0.3,3.6,1c0.9,0.7,1.4,1.6,1.4,2.8c0,1-0.3,1.7-1,2.3
		c-0.6,0.6-1.4,0.9-2.2,1.1c0.8,0.1,1.6,0.4,2.3,1.1c0.7,0.6,1.1,1.5,1.1,2.6c0,1.2-0.5,2.3-1.4,3C135.3,68.6,134,69,132.4,69z"/>
</g>
<g>
	<path class="st4" d="M167.6,66.5h-1.3v-8.7l-3.5,8.7h-0.5l-3.5-8.7v8.7h-1.3V56.2h1.8l3.2,8l3.2-8h1.8V66.5z"/>
	<path class="st4" d="M174.3,66.7c-1.4,0-2.4-0.4-3.1-1.1c-0.7-0.7-1.1-1.8-1.1-3.1v-6.3h1.3v6.3c0,1,0.2,1.7,0.8,2.3
		c0.5,0.5,1.2,0.8,2.2,0.8c0.9,0,1.7-0.3,2.2-0.8s0.8-1.3,0.8-2.3v-6.3h1.3v6.3c0,1.3-0.4,2.3-1.1,3.1
		C176.7,66.4,175.6,66.7,174.3,66.7z"/>
	<path class="st4" d="M189.5,66.5h-1.2l-6-8.2v8.2h-1.3V56.2h1.3l6,8.1v-8.1h1.3V66.5z"/>
	<path class="st4" d="M195.4,66.5h-3.5V56.2h3.5c1.6,0,2.9,0.5,3.8,1.5s1.5,2.2,1.5,3.7c0,1.5-0.5,2.7-1.5,3.7
		C198.3,66.1,197,66.5,195.4,66.5z M195.4,65.4c1.2,0,2.2-0.4,2.9-1.1s1.1-1.7,1.1-2.9c0-1.2-0.4-2.1-1.1-2.9
		c-0.7-0.8-1.7-1.1-2.9-1.1h-2.2v8H195.4z"/>
	<path class="st4" d="M211.1,65.2c-1,1-2.2,1.5-3.7,1.5s-2.7-0.5-3.7-1.5c-1-1-1.4-2.3-1.4-3.8c0-1.5,0.5-2.8,1.4-3.8
		c1-1,2.2-1.5,3.7-1.5s2.7,0.5,3.7,1.5c1,1,1.4,2.3,1.4,3.8C212.6,62.9,212.1,64.2,211.1,65.2z M207.4,65.6c1.1,0,2.1-0.4,2.8-1.2
		c0.7-0.8,1.1-1.8,1.1-3c0-1.2-0.4-2.2-1.1-3c-0.7-0.8-1.6-1.2-2.8-1.2c-1.1,0-2.1,0.4-2.8,1.2c-0.7,0.8-1,1.8-1,3
		c0,1.2,0.3,2.2,1,3C205.4,65.2,206.3,65.6,207.4,65.6z"/>
	<path class="st4" d="M217.9,66.7c-1.7,0-3-0.5-4-1.6l0.8-1c0.9,1,1.9,1.5,3.2,1.5c0.8,0,1.5-0.2,1.8-0.5c0.4-0.4,0.6-0.8,0.6-1.3
		c0-0.4-0.2-0.8-0.5-1c-0.3-0.3-0.7-0.5-1.1-0.6s-0.9-0.3-1.5-0.4c-0.5-0.2-1-0.3-1.5-0.5c-0.4-0.2-0.8-0.5-1.1-0.9
		c-0.3-0.4-0.5-0.9-0.5-1.5c0-0.8,0.3-1.5,1-2.1s1.5-0.8,2.6-0.8c1.5,0,2.7,0.5,3.7,1.5l-0.8,0.9c-0.7-0.8-1.7-1.2-3-1.2
		c-0.6,0-1.1,0.2-1.5,0.5c-0.4,0.3-0.6,0.7-0.6,1.2c0,0.4,0.2,0.7,0.5,0.9c0.3,0.2,0.7,0.4,1.1,0.5c0.5,0.1,0.9,0.3,1.5,0.4
		s1,0.4,1.5,0.5s0.8,0.5,1.1,0.9c0.3,0.4,0.5,0.9,0.5,1.5c0,0.8-0.3,1.6-0.9,2.1C220.2,66.4,219.2,66.7,217.9,66.7z"/>
	<path class="st4" d="M232.4,66.5h-4.7V56.2h4.6c0.9,0,1.6,0.2,2.1,0.7c0.5,0.5,0.8,1.1,0.8,1.9c0,0.6-0.2,1.1-0.5,1.6
		c-0.4,0.4-0.8,0.7-1.3,0.8c0.5,0.1,1,0.4,1.4,0.9c0.4,0.5,0.6,1.1,0.6,1.7c0,0.8-0.3,1.5-0.8,2C234.1,66.3,233.3,66.5,232.4,66.5z
		 M232.1,60.7c0.6,0,1-0.2,1.3-0.5c0.3-0.3,0.5-0.7,0.5-1.2s-0.2-0.9-0.5-1.2s-0.8-0.5-1.3-0.5H229v3.3H232.1z M232.2,65.4
		c0.6,0,1.1-0.2,1.4-0.5c0.3-0.3,0.5-0.8,0.5-1.3c0-0.5-0.2-0.9-0.5-1.3c-0.3-0.3-0.8-0.5-1.4-0.5H229v3.6H232.2z"/>
</g>
</svg>
