<?xml version="1.0" encoding="utf-8"?>
<!-- Generator: Adobe Illustrator 25.2.3, SVG Export Plug-In . SVG Version: 6.00 Build 0)  -->
<svg version="1.1" id="Layer_1" xmlns="http://www.w3.org/2000/svg" width="248.113" height="89.546" xmlns:xlink="http://www.w3.org/1999/xlink" x="0px" y="0px"
	 viewBox="0 0 248.1 89.5" style="enable-background:new 0 0 248.1 89.5;" xml:space="preserve">
<style type="text/css">
	.st0{opacity:0.92;fill:#2D314E;enable-background:new    ;}
	.st1{fill:none;}
	.st2{fill:#E84D46;}
	.st3{fill:#292333;}
	.st4{fill:#FFFFFF;}
</style>
<g id="_24_julho_novo" transform="translate(200.275 451.873)">
	<path id="Path_11" class="st0" d="M-66-365.5c-0.1,1.9-1.7,3.3-3.6,3.2c-1.9-0.1-3.3-1.7-3.2-3.6c0.1-1.8,1.6-3.2,3.4-3.2
		C-67.4-369-65.9-367.4-66-365.5z"/>
</g>
<g id="mundos" transform="translate(-425.915 -95.114)">
	<g id="Group_66" transform="translate(-490.716 -151)">
		<rect id="Rectangle_41" x="916.6" y="263" class="st1" width="106" height="56"/>
	</g>
</g>
<rect x="107.2" y="18.6" class="st2" width="37.5" height="27.5"/>
<g>
	<rect x="193" y="0" class="st2" width="54.8" height="18.6"/>
</g>
<rect x="144.2" y="18.6" class="st3" width="103.7" height="27.5"/>
<g>
	<path class="st4" d="M165.1,37.4v-7.3l-2.9,7.3h-0.9l-2.9-7.3v7.3h-2.2V27.3h3l2.5,6.4l2.5-6.4h3v10.2h-2.1L165.1,37.4L165.1,37.4z
		"/>
	<path class="st4" d="M169.3,33.4v-6.1h2.2v6c0,1.4,0.8,2.4,2.4,2.4c1.6,0,2.4-1,2.4-2.4v-6h2.2v6.1c0,2.5-1.5,4.3-4.6,4.3
		C170.8,37.6,169.3,35.9,169.3,33.4z"/>
	<path class="st4" d="M187.5,37.4l-4.8-6.6v6.6h-2.2V27.3h2.2l4.7,6.4v-6.4h2.2v10.2h-2.1L187.5,37.4L187.5,37.4z"/>
	<path class="st4" d="M191.6,37.4V27.3h4c3.2,0,5.4,2,5.4,5.1c0,3.1-2.2,5.1-5.4,5.1h-4V37.4z M198.8,32.3c0-1.8-1.1-3.2-3.2-3.2
		h-1.9v6.4h1.8C197.6,35.5,198.8,34.1,198.8,32.3z"/>
	<path class="st4" d="M202,32.4c0-3.1,2.2-5.3,5.3-5.3s5.3,2.2,5.3,5.3c0,3.1-2.2,5.3-5.3,5.3C204.3,37.6,202,35.4,202,32.4z
		 M210.4,32.4c0-1.9-1.2-3.3-3.1-3.3c-1.9,0-3.1,1.4-3.1,3.3s1.2,3.3,3.1,3.3C209.2,35.7,210.4,34.2,210.4,32.4z"/>
	<path class="st4" d="M213.5,36l1.2-1.7c0.7,0.7,1.8,1.4,3.2,1.4c1.2,0,1.8-0.5,1.8-1.1c0-1.8-5.9-0.5-5.9-4.4
		c0-1.7,1.5-3.1,3.9-3.1c1.6,0,3,0.5,4,1.4l-1.2,1.6c-0.8-0.8-1.9-1.1-3-1.1c-0.9,0-1.4,0.4-1.4,1c0,1.6,5.8,0.5,5.8,4.3
		c0,1.9-1.3,3.3-4.1,3.3C215.8,37.6,214.4,37,213.5,36z"/>
	<path class="st4" d="M234.2,37.4l-0.6-1.7h-4.4l-0.6,1.7h-2.5l3.9-10.2h2.7l3.9,10.2H234.2z M231.4,29.4l-1.6,4.4h3.2L231.4,29.4z"
		/>
</g>
<g>
	<path class="st4" d="M211,14.6v-2.2h-5.1v-1.8l4.2-6.7h3.1v6.5h1.4v2h-1.4v2.2H211z M211,6l-2.9,4.4h2.9V6z"/>
	<path class="st4" d="M223,14.6l-2.7-3.9l-2.7,3.9H215l3.9-5.5l-3.6-5.2h2.7l2.4,3.7l2.4-3.7h2.7l-3.6,5.2l3.9,5.5H223z"/>
	<path class="st4" d="M226.2,9.3c0-3.2,1.8-5.5,5-5.5c1.3,0,2.4,0.4,3.2,1.1l-1,1.7c-0.6-0.5-1.2-0.8-2.1-0.8c-1.6,0-2.7,1.3-2.7,3
		c0,0.1,0,0.1,0,0.2c0.5-0.7,1.6-1.4,2.7-1.4c1.9,0,3.6,1.2,3.6,3.5c0,2.1-1.7,3.7-4.1,3.7C227.6,14.8,226.2,12.3,226.2,9.3z
		 M232.6,11.2c0-1.1-1-1.6-2-1.6c-0.8,0-1.6,0.4-2.1,1c0.1,1,0.7,2.2,2.2,2.2C232,12.8,232.6,12,232.6,11.2z"/>
</g>
<g>
	<rect x="144.2" y="47.6" class="st3" width="103.6" height="27.5"/>
</g>
<rect x="107.2" y="47.6" class="st2" width="37.5" height="27.5"/>
<g>
	<path class="st4" d="M165.2,66.4v-7.3l-2.9,7.3h-0.9l-2.9-7.3v7.3h-2.2V56.3h3l2.5,6.4l2.5-6.4h3v10.2L165.2,66.4L165.2,66.4z"/>
	<path class="st4" d="M169.4,62.4v-6.1h2.2v6c0,1.4,0.8,2.4,2.4,2.4c1.6,0,2.4-1,2.4-2.4v-6h2.2v6.1c0,2.5-1.5,4.3-4.6,4.3
		C170.9,66.6,169.4,64.9,169.4,62.4z"/>
	<path class="st4" d="M187.6,66.4l-4.8-6.6v6.6h-2.2V56.3h2.2l4.7,6.4v-6.4h2.2v10.2L187.6,66.4L187.6,66.4z"/>
	<path class="st4" d="M191.7,66.4V56.3h4c3.2,0,5.4,2,5.4,5.1c0,3.1-2.2,5.1-5.4,5.1L191.7,66.4L191.7,66.4z M198.9,61.3
		c0-1.8-1.1-3.2-3.2-3.2h-1.9v6.4h1.8C197.7,64.5,198.9,63.1,198.9,61.3z"/>
	<path class="st4" d="M202.2,61.3c0-3.1,2.2-5.3,5.3-5.3c3.1,0,5.3,2.2,5.3,5.3c0,3.1-2.2,5.3-5.3,5.3
		C204.4,66.6,202.2,64.4,202.2,61.3z M210.6,61.3c0-1.9-1.2-3.3-3.1-3.3c-1.9,0-3.1,1.4-3.1,3.3c0,1.9,1.2,3.3,3.1,3.3
		C209.4,64.7,210.6,63.2,210.6,61.3z"/>
	<path class="st4" d="M213.6,65l1.2-1.7c0.7,0.7,1.8,1.4,3.2,1.4c1.2,0,1.8-0.5,1.8-1.1c0-1.8-5.9-0.5-5.9-4.4
		c0-1.7,1.5-3.1,3.9-3.1c1.6,0,3,0.5,4,1.4l-1.2,1.6c-0.8-0.8-1.9-1.1-3-1.1c-0.9,0-1.4,0.4-1.4,1c0,1.6,5.8,0.5,5.8,4.3
		c0,1.9-1.3,3.3-4.1,3.3C216,66.6,214.6,66,213.6,65z"/>
	<path class="st4" d="M227.4,66.4V56.3h5.4c1.9,0,2.9,1.2,2.9,2.6c0,1.3-0.8,2.1-1.8,2.3c1.1,0.2,2,1.2,2,2.5c0,1.5-1,2.8-3,2.8
		L227.4,66.4L227.4,66.4z M233.4,59.2c0-0.6-0.5-1.1-1.2-1.1h-2.7v2.1h2.7C233,60.3,233.4,59.9,233.4,59.2z M233.6,63.4
		c0-0.6-0.5-1.2-1.3-1.2h-2.8v2.3h2.8C233.2,64.5,233.6,64.1,233.6,63.4z"/>
</g>
<polygon class="st2" points="107.2,75.1 124.6,82.6 115.6,72.9 "/>
<g>
	<path class="st4" d="M112.4,32.5c0-3.8,1.9-7.6,6.1-7.6c4.2,0,6.1,3.8,6.1,7.6s-1.9,7.6-6.1,7.6C114.2,40.1,112.4,36.3,112.4,32.5z
		 M121.3,32.5c0-2.7-0.8-4.8-2.9-4.8c-2.1,0-2.9,2.1-2.9,4.8s0.8,4.8,2.9,4.8C120.5,37.3,121.3,35.2,121.3,32.5z"/>
	<path class="st4" d="M132.8,39.8v-3h-7v-2.5l5.8-9.2h4.3v8.9h1.9v2.8h-1.9v3H132.8z M132.8,27.9l-4,6.1h4V27.9z"/>
</g>
<g>
	<path class="st4" d="M112.6,61.3c0-3.8,1.9-7.6,6.1-7.6c4.2,0,6.1,3.8,6.1,7.6s-1.9,7.6-6.1,7.6C114.5,68.9,112.6,65.1,112.6,61.3z
		 M121.6,61.3c0-2.7-0.8-4.8-2.9-4.8c-2.1,0-2.9,2.1-2.9,4.8s0.8,4.8,2.9,4.8C120.8,66.1,121.6,64,121.6,61.3z"/>
	<path class="st4" d="M126,66.6l1.6-2.1c1,1.1,2.6,1.7,4,1.7c1.8,0,2.8-0.8,2.8-1.9c0-1.2-0.9-1.7-2.9-1.7c-0.6,0-1.6,0-1.8,0v-2.8
		c0.3,0,1.3,0,1.8,0c1.6,0,2.7-0.5,2.7-1.6c0-1.2-1.2-1.7-2.7-1.7c-1.4,0-2.7,0.5-3.7,1.5l-1.6-2c1.2-1.3,3-2.3,5.6-2.3
		c3.4,0,5.5,1.5,5.5,4c0,1.8-1.6,3.1-3.2,3.3c1.5,0.2,3.4,1.3,3.4,3.5c0,2.5-2.3,4.3-5.8,4.3C129.1,68.9,127,67.9,126,66.6z"/>
</g>
</svg>
