<?xml version="1.0" encoding="utf-8"?>
<!-- Generator: Adobe Illustrator 25.2.3, SVG Export Plug-In . SVG Version: 6.00 Build 0)  -->
<svg version="1.1" id="Layer_1" xmlns="http://www.w3.org/2000/svg" width="214.664" height="97.275"  xmlns:xlink="http://www.w3.org/1999/xlink" x="0px" y="0px"
	 viewBox="0 0 214.7 97.3" style="enable-background:new 0 0 214.7 97.3;" xml:space="preserve">
<style type="text/css">
	.st0{opacity:0.92;fill:#2D314E;enable-background:new    ;}
	.st1{fill:none;}
	.st2{fill:#E84D46;}
	.st3{fill:#676D81;}
	.st4{fill:#292333;}
	.st5{fill:#FFFFFF;stroke:#FFFFFF;stroke-width:0.7;stroke-miterlimit:10;}
	.st6{fill:#FFFFFF;}
	.st7{fill:#FFFFFF;stroke:#FFFFFF;stroke-width:0.5;stroke-miterlimit:10;}
</style>
<g id="_24_julho_novo" transform="translate(200.275 451.873)">
	<path id="Path_11" class="st0" d="M-89.4-358.4c-0.1,1.9-1.7,3.3-3.6,3.2s-3.3-1.7-3.2-3.6c0.1-1.8,1.6-3.2,3.4-3.2
		C-90.8-361.9-89.3-360.3-89.4-358.4z"/>
</g>
<g id="naval" transform="translate(-131 -1430.655)">
	<rect id="Rectangle_50" x="131" y="1461" class="st1" width="84" height="37"/>
</g>
<rect x="107.5" y="32" class="st2" width="30.1" height="22.1"/>
<g>
	<rect x="160.5" y="17.1" class="st2" width="44" height="14.9"/>
</g>
<rect x="137.6" y="32" class="st3" width="66.9" height="22.1"/>
<g>
	<rect x="137.6" y="55.3" class="st4" width="66.9" height="22.1"/>
</g>
<rect x="107.5" y="55.3" class="st2" width="30.1" height="22.1"/>
<polygon class="st2" points="107.5,77.4 107.5,84.8 112.4,75.3 "/>
<g>
	<path class="st5" d="M118.9,47.2c-0.5,0-1-0.1-1.4-0.4c-0.4-0.2-0.7-0.5-1-1c-0.3-0.4-0.4-0.9-0.5-1.3c-0.1-0.5-0.2-1-0.2-1.5
		s0.1-1,0.2-1.5c0.1-0.5,0.3-0.9,0.5-1.3c0.3-0.4,0.5-0.7,1-1c0.4-0.2,0.9-0.4,1.4-0.4s1,0.1,1.4,0.4c0.4,0.2,0.7,0.5,1,1
		c0.3,0.4,0.4,0.8,0.5,1.3c0.1,0.5,0.2,1,0.2,1.5s-0.1,1-0.2,1.5s-0.3,0.9-0.5,1.3s-0.5,0.7-1,1C119.9,47.1,119.5,47.2,118.9,47.2z
		 M117.7,45.8c0.3,0.3,0.7,0.5,1.2,0.5s0.9-0.2,1.2-0.5c0.3-0.3,0.5-0.7,0.7-1.2c0.1-0.5,0.2-1,0.2-1.6c0-0.6-0.1-1.1-0.2-1.6
		s-0.3-0.9-0.7-1.2c-0.3-0.3-0.7-0.5-1.2-0.5c-0.5,0-0.9,0.2-1.2,0.5c-0.3,0.3-0.5,0.7-0.7,1.2c-0.1,0.5-0.2,1-0.2,1.6
		s0.1,1.1,0.2,1.6C117.2,45.1,117.4,45.5,117.7,45.8z"/>
	<path class="st5" d="M126.4,47.2c-0.5,0-1-0.1-1.4-0.3c-0.4-0.2-0.7-0.5-1-0.9c-0.3-0.4-0.4-0.8-0.5-1.3c-0.1-0.5-0.2-1-0.2-1.6
		c0-1.2,0.3-2.1,0.8-3s1.4-1.2,2.5-1.2c0.9,0,1.6,0.3,2.2,1l-0.5,0.8c-0.5-0.5-1-0.8-1.7-0.8c-0.7,0-1.3,0.3-1.7,0.9
		s-0.6,1.4-0.6,2.3v0.3c0.2-0.3,0.5-0.6,0.9-0.9c0.4-0.3,0.9-0.4,1.4-0.4c0.8,0,1.4,0.2,1.9,0.7c0.5,0.4,0.8,1.1,0.8,1.9
		c0,0.7-0.3,1.4-0.8,1.9C127.9,47,127.2,47.2,126.4,47.2z M126.3,46.3c0.6,0,1-0.2,1.4-0.5c0.3-0.3,0.5-0.8,0.5-1.2
		c0-0.5-0.2-1-0.5-1.3c-0.3-0.3-0.8-0.4-1.3-0.4c-0.4,0-0.8,0.1-1.2,0.3s-0.7,0.5-0.9,0.9c0.1,0.6,0.2,1.1,0.5,1.6
		C125.2,46.1,125.7,46.3,126.3,46.3z"/>
</g>
<g>
	<path class="st6" d="M170.1,28.9c-0.6,0-1-0.1-1.4-0.3c-0.4-0.2-0.7-0.6-1-1c-0.2-0.4-0.4-0.9-0.6-1.4c-0.1-0.5-0.2-1-0.2-1.6
		c0-1.2,0.3-2.3,0.9-3.1c0.6-0.8,1.4-1.2,2.5-1.2c1,0,1.7,0.3,2.3,1l-0.6,0.8c-0.5-0.6-1-0.9-1.8-0.9s-1.4,0.3-1.8,1
		c-0.4,0.6-0.6,1.4-0.6,2.3v0.2c0.2-0.3,0.6-0.6,1-0.9s0.9-0.4,1.4-0.4c0.8,0,1.4,0.2,1.9,0.7c0.5,0.5,0.8,1.1,0.8,1.9
		c0,0.7-0.2,1.4-0.8,1.9C171.6,28.6,170.9,28.9,170.1,28.9z M170,27.9c0.6,0,1-0.2,1.4-0.6c0.3-0.4,0.5-0.8,0.5-1.2
		c0-0.6-0.2-1-0.6-1.4c-0.3-0.3-0.8-0.5-1.4-0.5c-0.4,0-0.8,0.1-1.2,0.3c-0.4,0.2-0.6,0.6-0.9,0.9c0.1,0.6,0.2,1.1,0.6,1.6
		C168.9,27.7,169.3,27.9,170,27.9z"/>
	<path class="st6" d="M175.4,28.6c-0.2,0.2-0.3,0.2-0.5,0.2s-0.3-0.1-0.5-0.2c-0.2-0.1-0.2-0.3-0.2-0.5c0-0.2,0.1-0.3,0.2-0.5
		c0.1-0.2,0.3-0.2,0.5-0.2c0.2,0,0.3,0.1,0.5,0.2c0.2,0.1,0.2,0.3,0.2,0.5C175.7,28.3,175.6,28.5,175.4,28.6z"/>
	<path class="st6" d="M180.2,28.9c-1.3,0-2.3-0.5-2.9-1.4l0.6-0.7c0.6,0.7,1.4,1.1,2.3,1.1c0.6,0,1-0.2,1.4-0.5
		c0.3-0.3,0.6-0.8,0.6-1.3c0-0.6-0.2-1-0.6-1.3c-0.4-0.3-0.8-0.5-1.4-0.5c-0.7,0-1.4,0.2-1.9,0.8l-0.7-0.2v-4.6h5.1v0.9h-4v2.9
		c0.5-0.5,1.1-0.7,1.9-0.7c0.7,0,1.4,0.2,1.8,0.7s0.8,1.1,0.8,1.9c0,0.8-0.2,1.4-0.8,2C181.7,28.6,181,28.9,180.2,28.9z"/>
	<path class="st6" d="M191.8,28.7h-1.3l-2.7-3.5l-2.7,3.5h-1.3l3.2-4.3l-3.1-4h1.3l2.5,3.3l2.5-3.3h1.3l-3.1,4L191.8,28.7z"/>
	<path class="st6" d="M195.2,28.9c-0.6,0-1.3-0.2-1.8-0.4c-0.5-0.2-0.9-0.6-1.2-1l0.6-0.6c0.2,0.3,0.6,0.6,1,0.8
		c0.4,0.2,0.9,0.3,1.4,0.3c0.6,0,1-0.2,1.4-0.4c0.3-0.3,0.6-0.6,0.6-1.1s-0.2-0.9-0.6-1.1c-0.4-0.2-0.9-0.3-1.5-0.3
		c-0.5,0-0.8,0-0.9,0v-1c0.1,0,0.4,0,0.9,0c0.6,0,1-0.1,1.4-0.3c0.4-0.2,0.6-0.6,0.6-1c0-0.4-0.2-0.8-0.6-1
		c-0.3-0.2-0.8-0.4-1.4-0.4c-0.8,0-1.6,0.3-2.2,1l-0.6-0.6c0.7-0.9,1.7-1.3,2.8-1.3c0.8,0,1.5,0.2,2,0.6c0.6,0.4,0.8,1,0.8,1.6
		c0,0.6-0.2,1-0.6,1.3c-0.4,0.3-0.8,0.6-1.2,0.6c0.5,0.1,0.9,0.2,1.3,0.6c0.4,0.4,0.6,0.8,0.6,1.4c0,0.7-0.2,1.3-0.8,1.7
		C196.8,28.6,196.1,28.9,195.2,28.9z"/>
</g>
<g>
	<path class="st7" d="M154.1,47.2h-1l-4.8-6.6v6.6h-1v-8.3h1l4.8,6.5v-6.5h1L154.1,47.2L154.1,47.2z"/>
	<path class="st7" d="M163.1,47.2h-1.2l-0.7-1.8h-4.1l-0.7,1.8h-1.2l3.4-8.3h1.3L163.1,47.2z M160.9,44.5l-1.8-4.5l-1.8,4.5H160.9z"
		/>
	<path class="st7" d="M167.3,47.2H166l-3.4-8.3h1.2l2.8,7.2l2.8-7.2h1.2L167.3,47.2z"/>
	<path class="st7" d="M178.2,47.2H177l-0.7-1.8h-4.1l-0.7,1.8h-1.2l3.4-8.3h1.3L178.2,47.2z M176,44.5l-1.8-4.5l-1.8,4.5H176z"/>
	<path class="st7" d="M184,47.2h-4.9v-8.3h1v7.4h3.9V47.2z"/>
	<path class="st7" d="M195.8,47.2h-1.2l-0.7-1.8h-4.1l-0.7,1.8h-1.2l3.4-8.3h1.3L195.8,47.2z M193.5,44.5l-1.8-4.5l-1.8,4.5H193.5z"
		/>
</g>
<g>
	<path class="st5" d="M118.9,70.5c-0.5,0-1-0.1-1.4-0.4c-0.4-0.2-0.7-0.5-1-1s-0.4-0.9-0.5-1.3c-0.1-0.5-0.2-1-0.2-1.5
		s0.1-1,0.2-1.5c0.1-0.5,0.3-0.9,0.5-1.3c0.2-0.4,0.5-0.7,1-1c0.4-0.2,0.9-0.4,1.4-0.4c0.5,0,1,0.1,1.4,0.4c0.4,0.2,0.7,0.5,1,1
		c0.2,0.4,0.4,0.8,0.5,1.3c0.1,0.5,0.2,1,0.2,1.5s-0.1,1-0.2,1.5c-0.1,0.5-0.3,0.9-0.5,1.3s-0.5,0.7-1,1
		C119.9,70.4,119.4,70.5,118.9,70.5z M117.7,69.1c0.3,0.3,0.7,0.5,1.2,0.5c0.5,0,0.9-0.2,1.2-0.5s0.5-0.7,0.7-1.2
		c0.1-0.5,0.2-1,0.2-1.6s-0.1-1.1-0.2-1.6c-0.1-0.5-0.3-0.9-0.7-1.2c-0.3-0.3-0.7-0.5-1.2-0.5s-0.9,0.2-1.2,0.5
		c-0.3,0.3-0.5,0.7-0.7,1.2c-0.1,0.5-0.2,1-0.2,1.6s0.1,1.1,0.2,1.6C117.2,68.4,117.4,68.8,117.7,69.1z"/>
	<path class="st5" d="M126.3,70.5c-1.3,0-2.2-0.4-2.9-1.3l0.6-0.7c0.5,0.7,1.3,1.1,2.2,1.1c0.5,0,1-0.2,1.3-0.5s0.5-0.7,0.5-1.2
		c0-0.5-0.2-0.9-0.5-1.3s-0.8-0.5-1.3-0.5c-0.7,0-1.3,0.3-1.9,0.8l-0.7-0.3v-4.3h4.9v0.9h-3.9V66c0.5-0.5,1.2-0.7,1.9-0.7
		s1.3,0.2,1.8,0.7c0.5,0.4,0.8,1.1,0.8,1.9c0,0.8-0.3,1.4-0.8,1.9C127.8,70.3,127.1,70.5,126.3,70.5z"/>
</g>
<g>
	<path class="st7" d="M154.2,70.5h-1l-4.8-6.6v6.6h-1v-8.3h1l4.8,6.5v-6.5h1L154.2,70.5L154.2,70.5z"/>
	<path class="st7" d="M163.3,70.5h-1.2l-0.7-1.8h-4.1l-0.7,1.8h-1.2l3.4-8.3h1.3L163.3,70.5z M161.1,67.8l-1.8-4.5l-1.8,4.5H161.1z"
		/>
	<path class="st7" d="M167.5,70.5h-1.3l-3.4-8.3h1.2l2.8,7.2l2.8-7.2h1.2L167.5,70.5z"/>
	<path class="st7" d="M178.3,70.5h-1.2l-0.7-1.8h-4.1l-0.7,1.8h-1.2l3.4-8.3h1.3L178.3,70.5z M176.2,67.8l-1.8-4.5l-1.8,4.5H176.2z"
		/>
	<path class="st7" d="M184.2,70.5h-4.9v-8.3h1v7.4h3.9V70.5z"/>
	<path class="st7" d="M192.6,70.5h-3.8v-8.3h3.7c0.7,0,1.3,0.2,1.7,0.6c0.4,0.4,0.6,0.9,0.6,1.5c0,0.5-0.2,0.9-0.4,1.3
		c-0.3,0.3-0.6,0.6-1,0.6c0.4,0.1,0.8,0.3,1.1,0.7c0.3,0.4,0.5,0.9,0.5,1.4c0,0.6-0.2,1.2-0.6,1.6C193.9,70.3,193.4,70.5,192.6,70.5
		z M192.3,65.8c0.5,0,0.8-0.2,1-0.4c0.2-0.2,0.4-0.6,0.4-1c0-0.4-0.2-0.7-0.4-1c-0.2-0.2-0.6-0.4-1-0.4h-2.5v2.7H192.3z M192.4,69.6
		c0.5,0,0.9-0.2,1.1-0.4c0.2-0.2,0.4-0.6,0.4-1c0-0.4-0.2-0.7-0.4-1c-0.2-0.2-0.6-0.4-1.1-0.4h-2.6v2.9
		C189.8,69.6,192.4,69.6,192.4,69.6z"/>
</g>
</svg>
