<?xml version="1.0" encoding="utf-8"?>
<!-- Generator: Adobe Illustrator 25.2.3, SVG Export Plug-In . SVG Version: 6.00 Build 0)  -->
<svg version="1.1" id="Layer_1" xmlns="http://www.w3.org/2000/svg" width="214.664" height="97.275" xmlns:xlink="http://www.w3.org/1999/xlink" x="0px" y="0px"
	 viewBox="0 0 214.7 97.3" style="enable-background:new 0 0 214.7 97.3;" xml:space="preserve">
<style type="text/css">
	.st0{opacity:0.92;fill:#2D314E;enable-background:new    ;}
	.st1{fill:none;}
	.st2{fill:#E84D46;}
	.st3{fill:#676D81;}
	.st4{fill:#292333;}
	.st5{fill:#FFFFFF;}
</style>
<g id="_24_julho_novo" transform="translate(200.275 451.873)">
	<path id="Path_11" class="st0" d="M-89.4-358.4c-0.1,1.9-1.7,3.3-3.6,3.2s-3.3-1.7-3.2-3.6c0.1-1.8,1.6-3.2,3.4-3.2
		C-90.8-361.9-89.3-360.3-89.4-358.4z"/>
</g>
<g id="naval" transform="translate(-131 -1430.655)">
	<rect id="Rectangle_50" x="131" y="1461" class="st1" width="84" height="37"/>
</g>
<rect x="93.9" y="24" class="st2" width="37.5" height="27.5"/>
<g>
	<rect x="159.9" y="5.4" class="st2" width="54.8" height="18.6"/>
</g>
<rect x="131.4" y="24" class="st3" width="83.3" height="27.5"/>
<g>
	<rect x="131.4" y="53" class="st4" width="83.2" height="27.5"/>
</g>
<rect x="93.9" y="53" class="st2" width="37.5" height="27.5"/>
<polygon class="st2" points="93.9,80.5 104.1,88 101,77.9 "/>
<g>
	<path class="st5" d="M106.1,45.3c-1,0-1.8-0.2-2.6-0.7c-0.7-0.4-1.3-1-1.8-1.8s-0.8-1.6-1-2.4c-0.2-0.9-0.3-1.8-0.3-2.7
		c0-0.9,0.1-1.8,0.3-2.7c0.2-0.9,0.5-1.7,1-2.4s1-1.3,1.8-1.8c0.7-0.4,1.6-0.7,2.6-0.7c1,0,1.8,0.2,2.6,0.7c0.7,0.4,1.3,1,1.8,1.8
		s0.8,1.5,1,2.4c0.2,0.9,0.3,1.8,0.3,2.7c0,0.9-0.1,1.8-0.3,2.7c-0.2,0.9-0.5,1.7-1,2.4s-1,1.3-1.8,1.8
		C107.9,45.1,107.1,45.3,106.1,45.3z M103.9,42.8c0.6,0.6,1.3,0.9,2.2,0.9c0.9,0,1.6-0.3,2.2-0.9c0.6-0.6,1-1.3,1.2-2.2
		c0.2-0.9,0.3-1.8,0.3-2.9c0-1.1-0.1-2-0.3-2.9c-0.2-0.9-0.6-1.6-1.2-2.2c-0.6-0.6-1.3-0.9-2.2-0.9c-0.9,0-1.6,0.3-2.2,0.9
		c-0.6,0.6-1,1.3-1.2,2.2c-0.2,0.9-0.3,1.8-0.3,2.9c0,1.1,0.1,2,0.3,2.9C102.9,41.5,103.3,42.2,103.9,42.8z"/>
	<path class="st5" d="M119.7,45.3c-1,0-1.9-0.2-2.6-0.6c-0.7-0.4-1.3-1-1.8-1.7s-0.8-1.5-1-2.4c-0.2-0.9-0.3-1.8-0.3-2.9
		c0-2.1,0.5-3.9,1.5-5.4c1-1.5,2.5-2.2,4.5-2.2c1.7,0,3,0.6,4,1.8l-0.9,1.4c-0.9-1-1.9-1.5-3.1-1.5c-1.3,0-2.4,0.6-3.1,1.7
		c-0.7,1.1-1.1,2.5-1.1,4.1v0.6c0.4-0.6,0.9-1.1,1.7-1.6c0.8-0.5,1.6-0.7,2.5-0.7c1.4,0,2.5,0.4,3.4,1.2c0.9,0.8,1.4,2,1.4,3.5
		c0,1.3-0.5,2.5-1.4,3.4S121.2,45.3,119.7,45.3z M119.6,43.7c1.1,0,1.9-0.3,2.5-1c0.6-0.6,0.9-1.4,0.9-2.1c0-1-0.3-1.8-0.9-2.4
		s-1.4-0.8-2.4-0.8c-0.7,0-1.4,0.2-2.1,0.6c-0.7,0.4-1.2,0.9-1.6,1.6c0.1,1.1,0.4,2,1,2.9C117.5,43.3,118.4,43.7,119.6,43.7z"/>
</g>
<g>
	<path class="st5" d="M171.8,20.1c-0.7,0-1.3-0.1-1.8-0.4c-0.5-0.3-0.9-0.7-1.2-1.2s-0.5-1.1-0.7-1.7c-0.1-0.6-0.2-1.3-0.2-2
		c0-1.5,0.4-2.8,1.1-3.8c0.7-1,1.8-1.5,3.1-1.5c1.2,0,2.1,0.4,2.9,1.2l-0.7,1c-0.6-0.7-1.3-1.1-2.2-1.1c-0.9,0-1.7,0.4-2.2,1.2
		s-0.8,1.8-0.8,2.9V15c0.3-0.4,0.7-0.8,1.2-1.1c0.5-0.3,1.1-0.5,1.7-0.5c1,0,1.8,0.3,2.4,0.9c0.6,0.6,1,1.4,1,2.4
		c0,0.9-0.3,1.7-1,2.4C173.7,19.7,172.8,20.1,171.8,20.1z M171.7,18.9c0.7,0,1.3-0.2,1.7-0.7c0.4-0.5,0.6-1,0.6-1.5
		c0-0.7-0.2-1.3-0.7-1.7c-0.4-0.4-1-0.6-1.7-0.6c-0.5,0-1,0.1-1.5,0.4s-0.8,0.7-1.1,1.1c0.1,0.8,0.3,1.4,0.7,2
		C170.3,18.6,170.9,18.9,171.7,18.9z"/>
	<path class="st5" d="M178.5,19.8c-0.2,0.2-0.4,0.2-0.6,0.2c-0.2,0-0.4-0.1-0.6-0.2s-0.2-0.4-0.2-0.6c0-0.2,0.1-0.4,0.2-0.6
		s0.4-0.2,0.6-0.2c0.2,0,0.4,0.1,0.6,0.2s0.2,0.4,0.2,0.6C178.8,19.4,178.7,19.6,178.5,19.8z"/>
	<path class="st5" d="M184.4,20.1c-1.6,0-2.8-0.6-3.6-1.7l0.8-0.9c0.7,0.9,1.7,1.4,2.9,1.4c0.7,0,1.3-0.2,1.7-0.6s0.7-1,0.7-1.6
		c0-0.7-0.2-1.2-0.7-1.6s-1-0.6-1.7-0.6c-0.9,0-1.7,0.3-2.4,1l-0.9-0.3V9.5h6.3v1.1h-5v3.6c0.6-0.6,1.4-0.9,2.4-0.9
		c0.9,0,1.7,0.3,2.3,0.9c0.6,0.6,1,1.4,1,2.4c0,1-0.3,1.8-1,2.5C186.3,19.7,185.4,20.1,184.4,20.1z"/>
	<path class="st5" d="M198.8,19.9h-1.6l-3.3-4.4l-3.3,4.4H189l4-5.3l-3.8-5h1.6l3.1,4.1l3.1-4.1h1.6l-3.8,5L198.8,19.9z"/>
	<path class="st5" d="M203.1,20.1c-0.8,0-1.6-0.2-2.2-0.5c-0.6-0.3-1.1-0.7-1.5-1.2l0.8-0.8c0.3,0.4,0.7,0.7,1.2,1
		c0.5,0.2,1.1,0.4,1.7,0.4c0.7,0,1.3-0.2,1.8-0.5c0.4-0.4,0.7-0.8,0.7-1.4c0-0.6-0.2-1.1-0.7-1.4c-0.5-0.3-1.1-0.4-1.9-0.4
		c-0.6,0-1,0-1.1,0V14c0.1,0,0.5,0,1.1,0c0.7,0,1.3-0.1,1.7-0.4c0.5-0.3,0.7-0.7,0.7-1.3c0-0.5-0.2-1-0.7-1.3
		c-0.4-0.3-1-0.5-1.7-0.5c-1,0-2,0.4-2.7,1.3l-0.7-0.8c0.9-1.1,2.1-1.6,3.5-1.6c1,0,1.9,0.2,2.5,0.7c0.7,0.5,1,1.2,1,2
		c0,0.7-0.2,1.2-0.7,1.6c-0.5,0.4-1,0.7-1.5,0.8c0.6,0.1,1.1,0.3,1.6,0.8s0.8,1,0.8,1.8c0,0.9-0.3,1.6-1,2.1
		C205.1,19.8,204.2,20.1,203.1,20.1z"/>
</g>
<g>
	<path class="st5" d="M151.9,42.9h-1.2l-6-8.2v8.2h-1.3V32.6h1.3l6,8.1v-8.1h1.3V42.9z"/>
	<path class="st5" d="M163.2,42.9h-1.5l-0.9-2.3h-5.1l-0.9,2.3h-1.5l4.2-10.3h1.6L163.2,42.9z M160.4,39.5l-2.2-5.6l-2.2,5.6H160.4z
		"/>
	<path class="st5" d="M168.4,42.9h-1.6l-4.2-10.3h1.5l3.5,8.9l3.5-8.9h1.5L168.4,42.9z"/>
	<path class="st5" d="M181.9,42.9h-1.5l-0.9-2.3h-5.1l-0.9,2.3H172l4.2-10.3h1.6L181.9,42.9z M179.2,39.5l-2.2-5.6l-2.2,5.6H179.2z"
		/>
	<path class="st5" d="M189.2,42.9h-6.1V32.6h1.3v9.2h4.8V42.9z"/>
	<path class="st5" d="M203.8,42.9h-1.5l-0.9-2.3h-5.1l-0.9,2.3h-1.5l4.2-10.3h1.6L203.8,42.9z M201,39.5l-2.2-5.6l-2.2,5.6H201z"/>
</g>
<g>
	<path class="st5" d="M106.1,74.3c-1,0-1.8-0.2-2.6-0.7c-0.7-0.4-1.3-1-1.8-1.8s-0.8-1.6-1-2.4c-0.2-0.9-0.3-1.8-0.3-2.7
		s0.1-1.8,0.3-2.7c0.2-0.9,0.5-1.7,1-2.4c0.4-0.7,1-1.3,1.8-1.8c0.7-0.4,1.6-0.7,2.6-0.7c1,0,1.8,0.2,2.6,0.7c0.7,0.4,1.3,1,1.8,1.8
		c0.4,0.7,0.8,1.5,1,2.4c0.2,0.9,0.3,1.8,0.3,2.7s-0.1,1.8-0.3,2.7c-0.2,0.9-0.5,1.7-1,2.4s-1,1.3-1.8,1.8
		C107.9,74.1,107.1,74.3,106.1,74.3z M103.9,71.8c0.6,0.6,1.3,0.9,2.2,0.9c0.9,0,1.6-0.3,2.2-0.9c0.6-0.6,1-1.3,1.2-2.2
		c0.2-0.9,0.3-1.8,0.3-2.9s-0.1-2-0.3-2.9c-0.2-0.9-0.6-1.6-1.2-2.2c-0.6-0.6-1.3-0.9-2.2-0.9c-0.9,0-1.6,0.3-2.2,0.9
		c-0.6,0.6-1,1.3-1.2,2.2c-0.2,0.9-0.3,1.8-0.3,2.9s0.1,2,0.3,2.9C103,70.5,103.4,71.2,103.9,71.8z"/>
	<path class="st5" d="M119.5,74.3c-2.3,0-4-0.8-5.2-2.4l1.1-1.2c1,1.3,2.4,2,4,2c1,0,1.8-0.3,2.4-0.9c0.6-0.6,0.9-1.3,0.9-2.2
		c0-1-0.3-1.7-0.9-2.3c-0.6-0.6-1.4-0.9-2.4-0.9c-1.3,0-2.4,0.5-3.4,1.4l-1.3-0.5v-7.9h9V61h-7.1v5.1c0.9-0.9,2.1-1.3,3.4-1.3
		c1.3,0,2.4,0.4,3.3,1.3c0.9,0.8,1.4,2,1.4,3.4s-0.5,2.6-1.5,3.5C122.3,73.9,121,74.3,119.5,74.3z"/>
</g>
<g>
	<path class="st5" d="M152.1,71.9h-1.2l-6-8.2v8.2h-1.3V61.6h1.3l6,8.1v-8.1h1.3V71.9z"/>
	<path class="st5" d="M163.4,71.9h-1.5l-0.9-2.3h-5.1l-0.9,2.3h-1.5l4.2-10.3h1.6L163.4,71.9z M160.6,68.5l-2.2-5.6l-2.2,5.6H160.6z
		"/>
	<path class="st5" d="M168.6,71.9H167l-4.2-10.3h1.5l3.5,8.9l3.5-8.9h1.5L168.6,71.9z"/>
	<path class="st5" d="M182.1,71.9h-1.5l-0.9-2.3h-5.1l-0.9,2.3h-1.5l4.2-10.3h1.6L182.1,71.9z M179.4,68.5l-2.2-5.6l-2.2,5.6H179.4z
		"/>
	<path class="st5" d="M189.4,71.9h-6.1V61.6h1.3v9.2h4.8V71.9z"/>
	<path class="st5" d="M199.8,71.9h-4.7V61.6h4.6c0.9,0,1.6,0.2,2.1,0.7c0.5,0.5,0.8,1.1,0.8,1.9c0,0.6-0.2,1.1-0.5,1.6
		c-0.4,0.4-0.8,0.7-1.3,0.8c0.5,0.1,1,0.4,1.4,0.9c0.4,0.5,0.6,1.1,0.6,1.7c0,0.8-0.3,1.5-0.8,2C201.5,71.6,200.8,71.9,199.8,71.9z
		 M199.5,66c0.6,0,1-0.2,1.3-0.5c0.3-0.3,0.5-0.7,0.5-1.2c0-0.5-0.2-0.9-0.5-1.2c-0.3-0.3-0.8-0.5-1.3-0.5h-3.1V66H199.5z
		 M199.6,70.8c0.6,0,1.1-0.2,1.4-0.5c0.3-0.3,0.5-0.8,0.5-1.3c0-0.5-0.2-0.9-0.5-1.3c-0.3-0.3-0.8-0.5-1.4-0.5h-3.2v3.6H199.6z"/>
</g>
</svg>
