<?xml version="1.0" encoding="utf-8"?>
<!-- Generator: Adobe Illustrator 25.2.3, SVG Export Plug-In . SVG Version: 6.00 Build 0)  -->
<svg version="1.1" id="Layer_1" xmlns="http://www.w3.org/2000/svg" width="214.664" height="97.275" xmlns:xlink="http://www.w3.org/1999/xlink" x="0px" y="0px"
	 viewBox="0 0 214.7 97.3" style="enable-background:new 0 0 214.7 97.3;" xml:space="preserve">
<style type="text/css">
	.st0{opacity:0.92;fill:#2D314E;enable-background:new    ;}
	.st1{fill:none;}
	.st2{fill:#E84D46;}
	.st3{fill:#676D81;}
	.st4{fill:#FFFFFF;}
	.st5{fill:#292333;}
</style>
<g id="_24_julho_novo" transform="translate(200.275 451.873)">
	<path id="Path_11" class="st0" d="M-89.4-358.4c-0.1,1.9-1.7,3.3-3.6,3.2s-3.3-1.7-3.2-3.6c0.1-1.8,1.6-3.2,3.4-3.2
		C-90.8-361.9-89.3-360.3-89.4-358.4z"/>
</g>
<g id="naval" transform="translate(-131 -1430.655)">
	<rect id="Rectangle_50" x="131" y="1461" class="st1" width="84" height="37"/>
</g>
<rect x="93.9" y="24" class="st2" width="37.5" height="27.5"/>
<g>
	<rect x="159.8" y="5.4" class="st2" width="54.8" height="18.6"/>
</g>
<rect x="131.4" y="24" class="st3" width="83.3" height="27.5"/>
<g>
	<path class="st4" d="M150.6,42.9l-4.8-6.6v6.6h-2.2V32.7h2.2l4.7,6.4v-6.4h2.2v10.2H150.6z"/>
	<path class="st4" d="M161.7,42.9l-0.6-1.7h-4.4l-0.6,1.7h-2.5l3.9-10.2h2.7l3.9,10.2H161.7z M158.9,34.9l-1.6,4.4h3.2L158.9,34.9z"
		/>
	<path class="st4" d="M167.2,42.9l-3.9-10.2h2.5l2.8,7.8l2.8-7.8h2.5L170,42.9H167.2z"/>
	<path class="st4" d="M181.1,42.9l-0.6-1.7h-4.4l-0.6,1.7H173l3.9-10.2h2.7l3.9,10.2H181.1z M178.3,34.9l-1.6,4.4h3.2L178.3,34.9z"
		/>
	<path class="st4" d="M184.4,42.9V32.7h2.2V41h4.3v1.9H184.4z"/>
	<path class="st4" d="M203.3,42.9l-0.6-1.7h-4.4l-0.6,1.7h-2.5l3.9-10.2h2.7l3.9,10.2H203.3z M200.5,34.9l-1.6,4.4h3.2L200.5,34.9z"
		/>
</g>
<g>
	<path class="st4" d="M99.9,37.8c0-3.8,1.9-7.6,6.1-7.6s6.1,3.8,6.1,7.6s-1.9,7.6-6.1,7.6C101.7,45.4,99.9,41.6,99.9,37.8z
		 M108.8,37.8c0-2.7-0.8-4.8-2.9-4.8c-2.1,0-2.9,2.1-2.9,4.8s0.8,4.8,2.9,4.8C108,42.6,108.8,40.5,108.8,37.8z"/>
	<path class="st4" d="M113.5,37.8c0-4.4,2.5-7.6,6.8-7.6c1.8,0,3.3,0.6,4.3,1.5l-1.4,2.4c-0.8-0.7-1.6-1.1-2.9-1.1
		c-2.2,0-3.7,1.8-3.7,4.2c0,0.1,0,0.2,0,0.3c0.7-1,2.2-1.9,3.8-1.9c2.6,0,5,1.7,5,4.8c0,2.9-2.3,5-5.6,5
		C115.4,45.4,113.5,41.9,113.5,37.8z M122.3,40.4c0-1.5-1.3-2.2-2.7-2.2c-1.1,0-2.2,0.5-2.9,1.4c0.1,1.4,0.9,3,3,3
		C121.4,42.6,122.3,41.5,122.3,40.4z"/>
</g>
<g>
	<path class="st4" d="M166,14.7c0-3.2,1.8-5.5,5-5.5c1.3,0,2.4,0.4,3.2,1.1l-1,1.7c-0.6-0.5-1.2-0.8-2.1-0.8c-1.6,0-2.7,1.3-2.7,3
		c0,0.1,0,0.1,0,0.2c0.5-0.7,1.6-1.4,2.7-1.4c1.9,0,3.6,1.2,3.6,3.5c0,2.1-1.7,3.7-4.1,3.7C167.3,20.2,166,17.7,166,14.7z
		 M172.3,16.7c0-1.1-1-1.6-2-1.6c-0.8,0-1.6,0.4-2.1,1c0.1,1,0.7,2.2,2.2,2.2C171.7,18.2,172.3,17.4,172.3,16.7z"/>
	<path class="st4" d="M175.9,18.9c0-0.7,0.6-1.3,1.3-1.3c0.7,0,1.3,0.6,1.3,1.3c0,0.7-0.6,1.3-1.3,1.3
		C176.5,20.2,175.9,19.6,175.9,18.9z"/>
	<path class="st4" d="M180,18.6l1.3-1.6c0.7,0.8,1.7,1.2,2.8,1.2c1.3,0,2-0.7,2-1.6c0-0.9-0.7-1.6-1.9-1.6c-0.9,0-1.6,0.3-2.2,0.9
		l-1.6-0.4V9.4h7.3v2h-5.1V14c0.5-0.5,1.4-0.9,2.4-0.9c1.8,0,3.4,1.3,3.4,3.5c0,2.3-1.7,3.7-4.3,3.7C182.3,20.2,180.9,19.6,180,18.6
		z"/>
	<path class="st4" d="M197,20l-2.7-3.9l-2.7,3.9h-2.7l3.9-5.5l-3.6-5.2h2.7l2.4,3.7l2.4-3.7h2.7l-3.6,5.2l3.9,5.5H197z"/>
	<path class="st4" d="M200,18.5l1.2-1.5c0.7,0.8,1.9,1.2,2.9,1.2c1.3,0,2-0.6,2-1.4c0-0.8-0.7-1.2-2.1-1.2c-0.4,0-1.2,0-1.3,0v-2
		c0.2,0,0.9,0,1.3,0c1.2,0,2-0.4,2-1.1c0-0.8-0.9-1.3-2-1.3c-1,0-2,0.4-2.7,1.1l-1.1-1.4c0.9-1,2.2-1.7,4.1-1.7c2.5,0,4,1.1,4,2.9
		c0,1.3-1.2,2.2-2.3,2.4c1.1,0.1,2.5,1,2.5,2.6c0,1.8-1.6,3.1-4.2,3.1C202.2,20.2,200.8,19.5,200,18.5z"/>
</g>
<g>
	<rect x="131.4" y="53" class="st5" width="83.2" height="27.5"/>
</g>
<rect x="93.9" y="53" class="st2" width="37.5" height="27.5"/>
<g>
	<path class="st4" d="M150.7,71.8l-4.8-6.6v6.6h-2.2V61.7h2.2l4.7,6.4v-6.4h2.2v10.2L150.7,71.8L150.7,71.8z"/>
	<path class="st4" d="M161.8,71.8l-0.6-1.7h-4.4l-0.6,1.7h-2.5l3.9-10.2h2.7l3.9,10.2H161.8z M159,63.8l-1.6,4.4h3.2L159,63.8z"/>
	<path class="st4" d="M167.4,71.8l-3.9-10.2h2.5l2.8,7.8l2.8-7.8h2.5l-4,10.2H167.4z"/>
	<path class="st4" d="M181.3,71.8l-0.6-1.7h-4.4l-0.6,1.7h-2.5l3.9-10.2h2.7l3.9,10.2H181.3z M178.4,63.8l-1.6,4.4h3.2L178.4,63.8z"
		/>
	<path class="st4" d="M184.6,71.8V61.7h2.2V70h4.3v1.9L184.6,71.8L184.6,71.8z"/>
	<path class="st4" d="M196.4,71.8V61.7h5.4c1.9,0,2.9,1.2,2.9,2.6c0,1.3-0.8,2.1-1.8,2.3c1.1,0.2,2,1.2,2,2.5c0,1.5-1,2.8-3,2.8
		L196.4,71.8L196.4,71.8z M202.5,64.7c0-0.6-0.5-1.1-1.2-1.1h-2.7v2.1h2.7C202,65.7,202.5,65.3,202.5,64.7z M202.7,68.8
		c0-0.6-0.5-1.2-1.3-1.2h-2.8v2.3h2.8C202.2,69.9,202.7,69.5,202.7,68.8z"/>
</g>
<g>
	<path class="st4" d="M99.9,66.8c0-3.8,1.9-7.6,6.1-7.6s6.1,3.8,6.1,7.6c0,3.8-1.9,7.6-6.1,7.6C101.7,74.4,99.9,70.6,99.9,66.8z
		 M108.8,66.8c0-2.7-0.8-4.8-2.9-4.8c-2.1,0-2.9,2.1-2.9,4.8s0.8,4.8,2.9,4.8C108,71.6,108.8,69.5,108.8,66.8z"/>
	<path class="st4" d="M113.8,72.2l1.7-2.2c1,1,2.4,1.6,3.9,1.6c1.7,0,2.7-1,2.7-2.2c0-1.3-1-2.2-2.6-2.2c-1.2,0-2.2,0.4-3.1,1.2
		l-2.2-0.6v-8.4h10.1v2.8h-7v3.6c0.7-0.7,1.9-1.2,3.2-1.2c2.5,0,4.7,1.8,4.7,4.8c0,3.1-2.3,5.1-5.9,5.1
		C116.9,74.4,115.1,73.5,113.8,72.2z"/>
</g>
<polygon class="st2" points="93.9,80.5 104.1,88 101,77.9 "/>
</svg>
