<svg xmlns="http://www.w3.org/2000/svg" width="120" height="95.826" viewBox="0 0 56.86 36.07"><defs><style>.cls-1{fill:#676d81;}.cls-2,.cls-4{fill:#fff;}.cls-3{fill:#e84d46;}.cls-4{font-size:9.52px;font-family:ProximaNovaA-Bold, Proxima Nova Alt;font-weight:700;}.cls-5{fill:#292333;}.cls-6{fill:#2d314e;}</style></defs><g id="Layer_2" data-name="Layer 2"><g id="Layer_1-2" data-name="Layer 1"><rect class="cls-1" x="19.46" y="6.42" width="37.4" height="12.24" rx="2.24"/><path class="cls-2" d="M33.53,14.59h-.77L31,12.31v2.28h-.8v-3.5H31l1.73,2.2v-2.2h.8Z"/><path class="cls-2" d="M37.81,14.59h-.9L36.67,14H35.06l-.23.59h-.91l1.45-3.5h1Zm-1.36-1.25-.58-1.51-.59,1.51Z"/><path class="cls-2" d="M40.25,14.59h-1l-1.44-3.5h.9l1,2.69,1-2.69h.91Z"/><path class="cls-2" d="M45.58,14.59h-.9L44.44,14h-1.6l-.24.59h-.9l1.44-3.5h1Zm-1.36-1.25-.58-1.51-.58,1.51Z"/><path class="cls-2" d="M48.33,14.59H45.94v-3.5h.81v2.84h1.58Z"/><path class="cls-2" d="M53.9,14.59H53L52.76,14H51.15l-.24.59H50l1.44-3.5h1Zm-1.36-1.25L52,11.83l-.58,1.51Z"/><rect class="cls-3" x="8.93" y="4.19" width="16.7" height="16.7" rx="4" transform="translate(-3.8 15.89) rotate(-45)"/><text class="cls-4" transform="translate(11.47 15.45)">06</text><rect class="cls-5" x="19.46" y="19.8" width="37.4" height="12.24" rx="2.24"/><path class="cls-2" d="M33.53,28h-.77L31,25.69V28h-.8v-3.5H31l1.73,2.2v-2.2h.8Z"/><path class="cls-2" d="M37.81,28h-.9l-.24-.6H35.06l-.23.6h-.91l1.45-3.5h1Zm-1.36-1.25-.58-1.51-.59,1.51Z"/><path class="cls-2" d="M40.25,28h-1l-1.44-3.5h.9l1,2.68,1-2.68h.91Z"/><path class="cls-2" d="M45.58,28h-.9l-.24-.6h-1.6l-.24.6h-.9l1.44-3.5h1Zm-1.36-1.25-.58-1.51-.58,1.51Z"/><path class="cls-2" d="M48.33,28H45.94v-3.5h.81v2.84h1.58Z"/><path class="cls-2" d="M52.44,28h-2v-3.5h2a1.12,1.12,0,0,1,.8.26.81.81,0,0,1,.28.63.79.79,0,0,1-.18.53.76.76,0,0,1-.46.27.85.85,0,0,1,.71.86.9.9,0,0,1-.28.68A1.12,1.12,0,0,1,52.44,28Zm-.24-2.11a.53.53,0,0,0,.32-.1.34.34,0,0,0,.12-.27.31.31,0,0,0-.12-.26.48.48,0,0,0-.32-.11h-1v.74Zm0,1.45a.52.52,0,0,0,.35-.1.35.35,0,0,0,.13-.3.34.34,0,0,0-.13-.28.48.48,0,0,0-.35-.12h-1v.8Z"/><rect class="cls-3" x="8.93" y="17.57" width="16.7" height="16.7" rx="4" transform="translate(-13.27 19.81) rotate(-45)"/><text class="cls-4" transform="translate(11.47 28.83)">05</text><path class="cls-6" d="M.06,27.15A1.74,1.74,0,0,1,1.41,25a1.93,1.93,0,0,1,2.27,1.35,1.76,1.76,0,0,1-1.35,2.16A1.92,1.92,0,0,1,.06,27.15"/><rect class="cls-3" x="34.86" width="22" height="8.28" rx="0.92"/><path class="cls-2" d="M38.54,6.54A1.81,1.81,0,0,1,37,5.91a2.5,2.5,0,0,1-.51-1.63,2.34,2.34,0,0,1,.58-1.64A2.08,2.08,0,0,1,38.7,2a2.13,2.13,0,0,1,1.39.45l-.45.71a1.41,1.41,0,0,0-.94-.34,1.09,1.09,0,0,0-.84.36,1.25,1.25,0,0,0-.33.88.31.31,0,0,0,0,.1,1.27,1.27,0,0,1,.5-.4,1.57,1.57,0,0,1,.7-.17A1.75,1.75,0,0,1,39.87,4a1.25,1.25,0,0,1,.47,1,1.35,1.35,0,0,1-.5,1.07A1.92,1.92,0,0,1,38.54,6.54Zm0-.83a.84.84,0,0,0,.6-.2.57.57,0,0,0,0-.93,1.07,1.07,0,0,0-.61-.17,1.13,1.13,0,0,0-.92.42,1,1,0,0,0,.27.62A.87.87,0,0,0,38.49,5.71Z"/><path class="cls-2" d="M41.91,6.37a.57.57,0,0,1-.4.16.54.54,0,0,1-.4-.16.49.49,0,0,1,0-.74.54.54,0,0,1,.4-.16.57.57,0,0,1,.4.16.51.51,0,0,1,0,.74Z"/><path class="cls-2" d="M44.62,6.54a2.41,2.41,0,0,1-1.81-.66l.56-.65a1.69,1.69,0,0,0,1.24.48.93.93,0,0,0,.63-.19.55.55,0,0,0,.24-.46.58.58,0,0,0-.23-.47.92.92,0,0,0-.61-.18,1.44,1.44,0,0,0-1,.36L43,4.59V2.08h3.21V2.9H44V4a1.45,1.45,0,0,1,1-.36A1.53,1.53,0,0,1,46.05,4a1.32,1.32,0,0,1,.44,1A1.33,1.33,0,0,1,46,6.12,2.09,2.09,0,0,1,44.62,6.54Z"/><path class="cls-2" d="M51.5,6.46H50.31l-1.17-1.6L48,6.46H46.77l1.7-2.24L46.88,2.08h1.18l1.08,1.5,1.06-1.5h1.2L49.8,4.21Z"/><path class="cls-2" d="M53.52,6.54a2.9,2.9,0,0,1-1.09-.2,1.8,1.8,0,0,1-.75-.5l.52-.63a1.61,1.61,0,0,0,.59.37,1.93,1.93,0,0,0,.7.13,1.18,1.18,0,0,0,.65-.15.47.47,0,0,0,.23-.41.4.4,0,0,0-.22-.38,1.61,1.61,0,0,0-.72-.12h-.58V3.82h.58c.58,0,.87-.16.87-.47A.42.42,0,0,0,54.06,3a1.31,1.31,0,0,0-.63-.14,1.71,1.71,0,0,0-1.19.46l-.5-.59A2.37,2.37,0,0,1,53.53,2a2.26,2.26,0,0,1,1.3.32,1,1,0,0,1,.47.86.83.83,0,0,1-.3.66,1.42,1.42,0,0,1-.72.34,1.39,1.39,0,0,1,.75.32.9.9,0,0,1,.34.73,1.11,1.11,0,0,1-.5.93A2.29,2.29,0,0,1,53.52,6.54Z"/></g></g></svg>