<?xml version="1.0" encoding="utf-8"?>
<!-- Generator: Adobe Illustrator 25.2.3, SVG Export Plug-In . SVG Version: 6.00 Build 0)  -->
<svg version="1.1" id="Layer_1" xmlns="http://www.w3.org/2000/svg" width="169.418" height="80.059" xmlns:xlink="http://www.w3.org/1999/xlink" x="0px" y="0px"
	 viewBox="0 0 169.4 80.1" style="enable-background:new 0 0 169.4 80.1;" xml:space="preserve">
<style type="text/css">
	.st0{fill:#676D81;}
	.st1{fill:#681758;}
	.st2{fill:none;}
	.st3{fill:#FFFFFF;stroke:#FFFFFF;stroke-width:0.5;stroke-miterlimit:10;}
	.st4{fill:#FFFFFF;stroke:#FFFFFF;stroke-width:0.7;stroke-miterlimit:10;}
	.st5{fill:#FFFFFF;}
	.st6{opacity:0.92;fill:#2D314E;enable-background:new    ;}
</style>
<g>
	<rect x="116.1" y="33.8" class="st0" width="53.3" height="22.2"/>
</g>
<rect x="86.1" y="33.8" class="st1" width="30.2" height="22.2"/>
<g>
	<rect x="131.3" y="18.8" class="st1" width="38.1" height="15"/>
</g>
<rect x="38.5" y="30.5" class="st2" width="37.5" height="27.5"/>
<g>
	<g>
		<path class="st3" d="M137.4,48c-0.8,0.8-1.8,1.2-3,1.2s-2.2-0.4-3-1.2c-0.8-0.8-1.1-1.9-1.1-3.1c0-1.2,0.4-2.3,1.1-3.1
			c0.8-0.8,1.8-1.2,3-1.2s2.2,0.4,3,1.2s1.1,1.9,1.1,3.1C138.6,46.1,138.2,47.2,137.4,48z M134.4,48.2c0.9,0,1.7-0.3,2.3-1
			c0.6-0.6,0.9-1.5,0.9-2.4c0-1-0.3-1.8-0.9-2.4c-0.6-0.6-1.3-1-2.3-1c-0.9,0-1.7,0.3-2.3,1c-0.6,0.6-0.8,1.5-0.8,2.4
			c0,1,0.2,1.8,0.8,2.4C132.8,47.9,133.6,48.2,134.4,48.2z"/>
		<path class="st3" d="M143.6,49.2c-1.1,0-1.9-0.3-2.5-0.9c-0.6-0.6-0.9-1.5-0.9-2.5v-5.1h1v5.1c0,0.8,0.2,1.4,0.6,1.9
			c0.4,0.4,1,0.6,1.8,0.6c0.7,0,1.4-0.2,1.8-0.6c0.4-0.4,0.6-1,0.6-1.9v-5.1h1v5.1c0,1-0.3,1.9-0.9,2.5
			C145.6,48.8,144.8,49.2,143.6,49.2z"/>
		<path class="st3" d="M155.8,49h-1.2l-0.7-1.9h-4.1L149,49h-1.2l3.4-8.3h1.3L155.8,49z M153.5,46.3l-1.8-4.5l-1.8,4.5H153.5z"/>
	</g>
	<g>
		<path class="st4" d="M98.1,49c-0.6,0-1-0.1-1.4-0.4c-0.4-0.2-0.7-0.6-1-1c-0.3-0.4-0.4-0.9-0.6-1.3c-0.1-0.5-0.2-1-0.2-1.5
			s0.1-1,0.2-1.5c0.1-0.5,0.3-0.9,0.6-1.3c0.3-0.4,0.6-0.7,1-1c0.4-0.2,0.9-0.4,1.4-0.4c0.6,0,1,0.1,1.4,0.4c0.4,0.2,0.7,0.6,1,1
			s0.4,0.8,0.6,1.3c0.1,0.5,0.2,1,0.2,1.5s-0.1,1-0.2,1.5s-0.3,0.9-0.6,1.3s-0.6,0.7-1,1C99.1,48.9,98.6,49,98.1,49z M96.9,47.6
			c0.3,0.3,0.7,0.5,1.2,0.5s0.9-0.2,1.2-0.5s0.6-0.7,0.7-1.2c0.1-0.5,0.2-1,0.2-1.6c0-0.6-0.1-1.1-0.2-1.6c-0.1-0.5-0.3-0.9-0.7-1.2
			c-0.3-0.3-0.7-0.5-1.2-0.5c-0.5,0-0.9,0.2-1.2,0.5c-0.3,0.3-0.6,0.7-0.7,1.2c-0.1,0.5-0.2,1-0.2,1.6s0.1,1.1,0.2,1.6
			C96.4,46.9,96.6,47.3,96.9,47.6z"/>
		<path class="st4" d="M104.4,48.9h-1.1l3.3-7.2h-4.4v-0.9h5.5v0.7L104.4,48.9z"/>
	</g>
	<g>
		<path class="st5" d="M143.6,30.5c-0.6,0-1-0.1-1.5-0.3c-0.4-0.2-0.7-0.6-1-1s-0.4-0.9-0.6-1.4c-0.2-0.5-0.2-1-0.2-1.6
			c0-1.2,0.3-2.3,0.9-3.1c0.6-0.8,1.5-1.2,2.5-1.2c1,0,1.7,0.3,2.3,1l-0.6,0.8c-0.5-0.6-1-0.9-1.8-0.9s-1.4,0.3-1.8,1
			c-0.4,0.6-0.6,1.5-0.6,2.3v0.3c0.2-0.3,0.6-0.6,1-0.9c0.4-0.2,0.9-0.4,1.4-0.4c0.8,0,1.5,0.2,1.9,0.7s0.8,1.1,0.8,1.9
			c0,0.7-0.2,1.4-0.8,1.9S144.5,30.5,143.6,30.5z M143.5,29.7c0.6,0,1-0.2,1.4-0.6c0.3-0.4,0.5-0.8,0.5-1.2c0-0.6-0.2-1-0.6-1.4
			c-0.3-0.3-0.8-0.5-1.4-0.5c-0.4,0-0.8,0.1-1.2,0.3c-0.4,0.2-0.6,0.6-0.9,0.9c0.1,0.6,0.2,1.1,0.6,1.6
			C142.4,29.4,142.9,29.7,143.5,29.7z"/>
		<path class="st5" d="M155.1,30.5h-1.3l-2.7-3.5l-2.7,3.5h-1.3l3.2-4.3l-3.1-4h1.3l2.5,3.3l2.5-3.3h1.3l-3.1,4L155.1,30.5z"/>
		<path class="st5" d="M158.6,30.5c-0.6,0-1.3-0.2-1.8-0.4c-0.5-0.2-0.9-0.6-1.2-1l0.6-0.6c0.2,0.3,0.6,0.6,1,0.8
			c0.4,0.2,0.9,0.3,1.4,0.3c0.6,0,1-0.2,1.5-0.4c0.3-0.3,0.6-0.6,0.6-1.1c0-0.5-0.2-0.9-0.6-1.1c-0.4-0.2-0.9-0.3-1.5-0.3
			c-0.5,0-0.8,0-0.9,0v-1c0.1,0,0.4,0,0.9,0c0.6,0,1-0.1,1.4-0.3c0.4-0.2,0.6-0.6,0.6-1c0-0.4-0.2-0.8-0.6-1
			c-0.3-0.2-0.8-0.4-1.4-0.4c-0.8,0-1.6,0.3-2.2,1l-0.6-0.6c0.7-0.9,1.7-1.3,2.8-1.3c0.8,0,1.5,0.2,2,0.6c0.6,0.4,0.8,1,0.8,1.6
			c0,0.6-0.2,1-0.6,1.3c-0.4,0.3-0.8,0.6-1.2,0.6c0.5,0.1,0.9,0.2,1.3,0.6s0.6,0.8,0.6,1.5c0,0.7-0.2,1.3-0.8,1.7
			C160.2,30.4,159.5,30.5,158.6,30.5z"/>
	</g>
</g>
<g id="_24_julho_novo" transform="translate(200.275 451.873)">
	<path id="Path_11" class="st6" d="M-111-375.1c-0.1,1.9-1.7,3.3-3.6,3.2c-1.9-0.1-3.3-1.7-3.2-3.6c0.1-1.8,1.6-3.2,3.4-3.2
		C-112.4-378.6-110.9-377-111-375.1z"/>
</g>
<g id="oua" transform="translate(-470.926 -104.601)">
	<g id="Group_66" transform="translate(-445.705 -152.518)">
		<rect id="Rectangle_41" x="917.2" y="263" class="st2" width="60.8" height="56"/>
	</g>
</g>
<rect x="94.1" y="33.8" class="st2" width="75.4" height="22.2"/>
<rect x="131.2" y="18.7" class="st2" width="38.1" height="15"/>
<polygon class="st1" points="86.1,55.9 86.1,69.5 94.5,54.9 "/>
</svg>
