<svg xmlns="http://www.w3.org/2000/svg" width="100" height="95.826" viewBox="0 0 46.33 26.05"><defs><style>.cls-1{fill:#676d81;}.cls-2{fill:#fff;}.cls-3{fill:#681758;}.cls-4{fill:#2d314e;}</style></defs><g id="Layer_2" data-name="Layer 2"><g id="Layer_1-2" data-name="Layer 1"><rect class="cls-1" x="14.33" y="9.78" width="32" height="12.24" rx="2.07"/><path class="cls-2" d="M25.87,16.21a2,2,0,1,1,2,1.81A1.82,1.82,0,0,1,25.87,16.21Zm3.09,0a1.14,1.14,0,1,0-1.13,1.15A1.09,1.09,0,0,0,29,16.21Z"/><path class="cls-2" d="M30.39,16.55v-2.1h.81v2.08a.88.88,0,0,0,1.76,0V14.45h.81v2.1c0,.87-.55,1.47-1.69,1.47S30.39,17.42,30.39,16.55Z"/><path class="cls-2" d="M37.15,18l-.24-.59H35.3l-.23.59h-.9l1.44-3.5h1L38.05,18Zm-1-2.75-.59,1.51h1.17Z"/><rect class="cls-3" x="1.8" y="7.55" width="16.7" height="16.7" rx="4" transform="translate(-8.27 11.83) rotate(-45)"/><path class="cls-2" d="M5,18.81V17.74c2.6-1.92,3.36-2.57,3.36-3.35,0-.56-.51-.83-1-.83a2.27,2.27,0,0,0-1.7.74l-.77-.9a3.23,3.23,0,0,1,2.44-1,2.16,2.16,0,0,1,2.43,2c0,1.09-.89,2-2.54,3.23H9.73v1.19Z"/><path class="cls-2" d="M10.4,17.91l.72-.91a2.46,2.46,0,0,0,1.74.73c.77,0,1.2-.34,1.2-.81s-.39-.74-1.28-.74l-.79,0V15h.79c.71,0,1.18-.21,1.18-.67s-.52-.76-1.18-.76a2.29,2.29,0,0,0-1.62.66l-.67-.85a3.12,3.12,0,0,1,2.43-1c1.48,0,2.4.67,2.4,1.73a1.57,1.57,0,0,1-1.39,1.45,1.59,1.59,0,0,1,1.48,1.52c0,1.09-1,1.86-2.5,1.86A3.2,3.2,0,0,1,10.4,17.91Z"/><path class="cls-4" d="M8.61,2.2A1.74,1.74,0,0,1,10,.05,1.92,1.92,0,0,1,12.23,1.4a1.76,1.76,0,0,1-1.35,2.16A1.92,1.92,0,0,1,8.61,2.2"/><rect class="cls-3" x="25.33" y="3.78" width="21" height="8.28" rx="0.9"/><path class="cls-2" d="M29.45,8.06A2.08,2.08,0,0,1,31.63,5.8,2.19,2.19,0,0,1,33,6.25L32.56,7a1.29,1.29,0,0,0-.93-.34,1.17,1.17,0,0,0-1.17,1.24V8a1.55,1.55,0,0,1,1.2-.56,1.45,1.45,0,0,1,1.6,1.42,1.61,1.61,0,0,1-1.79,1.5C30,10.32,29.45,9.3,29.45,8.06Zm2.8.79c0-.46-.43-.65-.87-.65a1.23,1.23,0,0,0-.92.41.91.91,0,0,0,.95.89A.75.75,0,0,0,32.25,8.85Z"/><path class="cls-2" d="M37.05,10.24l-1.17-1.6-1.18,1.6H33.51L35.21,8,33.62,5.87H34.8l1.08,1.49,1.06-1.49h1.2L36.54,8l1.7,2.25Z"/><path class="cls-2" d="M38.42,9.62,38.94,9a1.94,1.94,0,0,0,1.29.5c.57,0,.88-.23.88-.56s-.29-.51-.94-.51l-.58,0V7.61h.58c.52,0,.87-.14.87-.46s-.38-.52-.87-.52A1.78,1.78,0,0,0,39,7.08l-.5-.58a2.39,2.39,0,0,1,1.79-.7C41.37,5.8,42,6.26,42,7a1.12,1.12,0,0,1-1,1,1.13,1.13,0,0,1,1.1,1c0,.75-.72,1.28-1.85,1.28A2.43,2.43,0,0,1,38.42,9.62Z"/></g></g></svg>