<?xml version="1.0" encoding="utf-8"?>
<!-- Generator: Adobe Illustrator 25.2.3, SVG Export Plug-In . SVG Version: 6.00 Build 0)  -->
<svg version="1.1" id="Layer_1" xmlns="http://www.w3.org/2000/svg" width="169.418" height="80.059" xmlns:xlink="http://www.w3.org/1999/xlink" x="0px" y="0px"
	 viewBox="0 0 169.4 80.1" style="enable-background:new 0 0 169.4 80.1;" xml:space="preserve">
<style type="text/css">
	.st0{opacity:0.92;fill:#2D314E;enable-background:new    ;}
	.st1{fill:none;}
	.st2{fill:#676D81;}
	.st3{fill:#681758;}
	.st4{enable-background:new    ;}
	.st5{fill:#FFFFFF;}
</style>
<g id="_24_julho_novo" transform="translate(200.275 451.873)">
	<path id="Path_11" class="st0" d="M-111-375.1c-0.1,1.9-1.7,3.3-3.6,3.2c-1.9-0.1-3.3-1.7-3.2-3.6c0.1-1.8,1.6-3.2,3.4-3.2
		C-112.4-378.6-110.9-377-111-375.1z"/>
</g>
<g id="oua" transform="translate(-470.926 -104.601)">
	<g id="Group_66" transform="translate(-445.705 -152.518)">
		<rect id="Rectangle_41" x="916.9" y="263" class="st1" width="60.8" height="56"/>
	</g>
</g>
<g>
	<rect x="103.3" y="30.5" class="st2" width="66.1" height="27.5"/>
</g>
<rect x="66" y="30.5" class="st3" width="37.5" height="27.5"/>
<g>
	<rect x="122" y="11.9" class="st3" width="47.3" height="18.6"/>
</g>
<rect x="75.9" y="30.5" class="st1" width="93.5" height="27.5"/>
<g class="st4">
	<path class="st5" d="M121.8,44.2c0-3.1,2.2-5.3,5.3-5.3c3.1,0,5.3,2.2,5.3,5.3s-2.2,5.3-5.3,5.3C124,49.5,121.8,47.3,121.8,44.2z
		 M130.2,44.2c0-1.9-1.2-3.3-3.1-3.3s-3.1,1.4-3.1,3.3c0,1.9,1.2,3.3,3.1,3.3S130.2,46.1,130.2,44.2z"/>
	<path class="st5" d="M133.9,45.2v-6.1h2.2v6c0,1.4,0.8,2.4,2.4,2.4s2.4-1,2.4-2.4v-6h2.2v6.1c0,2.5-1.5,4.2-4.6,4.2
		C135.4,49.5,133.9,47.7,133.9,45.2z"/>
	<path class="st5" d="M151.6,49.3l-0.6-1.7h-4.4l-0.6,1.7h-2.5l3.9-10.2h2.7l3.9,10.2H151.6z M148.8,41.3l-1.6,4.4h3.2L148.8,41.3z"
		/>
</g>
<rect x="38.5" y="30.5" class="st1" width="37.5" height="27.5"/>
<g class="st4">
	<path class="st5" d="M72.7,51.5V49c6-4.4,7.8-5.9,7.8-7.7c0-1.3-1.2-1.9-2.4-1.9c-1.7,0-2.9,0.7-3.9,1.7L72.4,39
		c1.4-1.6,3.6-2.4,5.7-2.4c3.1,0,5.6,1.8,5.6,4.7c0,2.5-2.1,4.7-5.9,7.5h6v2.7H72.7z"/>
	<path class="st5" d="M85.3,49.5l1.6-2.1c1,1.1,2.6,1.7,4,1.7c1.8,0,2.8-0.8,2.8-1.9c0-1.2-0.9-1.7-2.9-1.7c-0.6,0-1.6,0-1.8,0v-2.8
		c0.3,0,1.3,0,1.8,0c1.6,0,2.7-0.5,2.7-1.6c0-1.2-1.2-1.7-2.7-1.7c-1.4,0-2.7,0.5-3.7,1.5L85.5,39c1.2-1.3,3-2.3,5.6-2.3
		c3.4,0,5.5,1.5,5.5,4c0,1.8-1.6,3.1-3.2,3.3c1.5,0.2,3.4,1.3,3.4,3.5c0,2.5-2.3,4.3-5.8,4.3C88.4,51.8,86.4,50.8,85.3,49.5z"/>
</g>
<rect x="122" y="11.8" class="st1" width="47.3" height="18.6"/>
<g class="st4">
	<path class="st5" d="M131.3,21.2c0-3.2,1.8-5.5,5-5.5c1.3,0,2.4,0.4,3.2,1.1l-1,1.7c-0.6-0.5-1.2-0.8-2.1-0.8c-1.6,0-2.7,1.3-2.7,3
		c0,0.1,0,0.1,0,0.2c0.5-0.7,1.6-1.4,2.7-1.4c1.9,0,3.6,1.2,3.6,3.5c0,2.1-1.7,3.7-4.1,3.7C132.6,26.7,131.3,24.2,131.3,21.2z
		 M137.7,23.1c0-1.1-1-1.6-2-1.6c-0.8,0-1.6,0.4-2.1,1c0.1,1,0.7,2.2,2.2,2.2C137,24.7,137.7,23.8,137.7,23.1z"/>
	<path class="st5" d="M148.5,26.5l-2.7-3.9l-2.7,3.9h-2.7l3.9-5.5l-3.6-5.2h2.7l2.4,3.6l2.4-3.6h2.7l-3.6,5.2l3.9,5.5H148.5z"/>
	<path class="st5" d="M151.5,25l1.2-1.5c0.7,0.8,1.9,1.2,2.9,1.2c1.3,0,2-0.6,2-1.4s-0.7-1.2-2.1-1.2c-0.4,0-1.2,0-1.3,0v-2
		c0.2,0,0.9,0,1.3,0c1.2,0,2-0.4,2-1.1c0-0.8-0.9-1.3-2-1.3c-1,0-2,0.4-2.7,1.1l-1.1-1.4c0.9-1,2.2-1.7,4.1-1.7c2.5,0,4,1.1,4,2.9
		c0,1.3-1.2,2.2-2.3,2.4c1.1,0.1,2.5,1,2.5,2.6c0,1.8-1.6,3.1-4.2,3.1C153.7,26.7,152.2,25.9,151.5,25z"/>
</g>
<polygon class="st3" points="66,58 81.4,70.3 76.4,56.7 "/>
</svg>
