<?xml version="1.0" encoding="utf-8"?>
<!-- Generator: Adobe Illustrator 25.2.3, SVG Export Plug-In . SVG Version: 6.00 Build 0)  -->
<svg version="1.1" id="Layer_1" xmlns="http://www.w3.org/2000/svg" width="169.418" height="80.059" xmlns:xlink="http://www.w3.org/1999/xlink" x="0px" y="0px"
	 viewBox="0 0 169.4 80.1" style="enable-background:new 0 0 169.4 80.1;" xml:space="preserve">
<style type="text/css">
	.st0{fill:#676D81;}
	.st1{fill:#681758;}
	.st2{fill:none;}
	.st3{fill:#FFFFFF;}
	.st4{opacity:0.92;fill:#2D314E;enable-background:new    ;}
</style>
<g>
	<rect x="103.3" y="30.5" class="st0" width="66.1" height="27.5"/>
</g>
<rect x="66" y="30.5" class="st1" width="37.5" height="27.5"/>
<g>
	<rect x="122" y="11.9" class="st1" width="47.3" height="18.6"/>
</g>
<rect x="38.5" y="30.5" class="st2" width="37.5" height="27.5"/>
<g>
	<g>
		<path class="st3" d="M129.7,48.1c-1,1-2.2,1.5-3.7,1.5s-2.7-0.5-3.7-1.5c-1-1-1.4-2.3-1.4-3.8c0-1.5,0.5-2.8,1.4-3.8
			c1-1,2.2-1.5,3.7-1.5s2.7,0.5,3.7,1.5c1,1,1.4,2.3,1.4,3.8C131.2,45.8,130.7,47.1,129.7,48.1z M126,48.4c1.1,0,2.1-0.4,2.8-1.2
			c0.7-0.8,1.1-1.8,1.1-3c0-1.2-0.4-2.2-1.1-3c-0.7-0.8-1.6-1.2-2.8-1.2c-1.1,0-2.1,0.4-2.8,1.2c-0.7,0.8-1,1.8-1,3
			c0,1.2,0.3,2.2,1,3C124,48,124.9,48.4,126,48.4z"/>
		<path class="st3" d="M137.4,49.6c-1.4,0-2.4-0.4-3.1-1.1c-0.7-0.7-1.1-1.8-1.1-3.1v-6.3h1.3v6.3c0,1,0.3,1.7,0.8,2.3
			c0.5,0.5,1.2,0.8,2.2,0.8c0.9,0,1.7-0.3,2.2-0.8c0.5-0.5,0.8-1.3,0.8-2.3v-6.3h1.3v6.3c0,1.3-0.4,2.3-1.1,3.1
			C139.8,49.2,138.8,49.6,137.4,49.6z"/>
		<path class="st3" d="M152.5,49.4H151l-0.9-2.3H145l-0.9,2.3h-1.5l4.2-10.3h1.6L152.5,49.4z M149.7,46l-2.2-5.6l-2.2,5.6H149.7z"/>
	</g>
	<g>
		<path class="st3" d="M79.1,51.8c-1,0-1.8-0.2-2.6-0.7c-0.7-0.4-1.3-1-1.8-1.8s-0.8-1.6-1-2.4c-0.2-0.9-0.3-1.8-0.3-2.7
			s0.1-1.8,0.3-2.7c0.2-0.9,0.5-1.7,1-2.4s1-1.3,1.8-1.8c0.7-0.4,1.6-0.7,2.6-0.7c1,0,1.8,0.2,2.6,0.7c0.7,0.4,1.3,1,1.8,1.8
			s0.8,1.5,1,2.4c0.2,0.9,0.3,1.8,0.3,2.7s-0.1,1.8-0.3,2.7c-0.2,0.9-0.5,1.7-1,2.4s-1,1.3-1.8,1.8S80,51.8,79.1,51.8z M76.9,49.3
			c0.6,0.6,1.3,0.9,2.2,0.9c0.9,0,1.6-0.3,2.2-0.9c0.6-0.6,1-1.3,1.2-2.2c0.2-0.9,0.3-1.8,0.3-2.9c0-1.1-0.1-2-0.3-2.9
			c-0.2-0.9-0.6-1.6-1.2-2.2c-0.6-0.6-1.3-0.9-2.2-0.9c-0.9,0-1.6,0.3-2.2,0.9c-0.6,0.6-1,1.3-1.2,2.2c-0.2,0.9-0.3,1.8-0.3,2.9
			c0,1.1,0.1,2,0.3,2.9C75.9,47.9,76.3,48.7,76.9,49.3z"/>
		<path class="st3" d="M90.5,51.6h-2l5.9-13h-7.9v-1.6h10v1.3L90.5,51.6z"/>
	</g>
	<g>
		<path class="st3" d="M136.5,26.5c-0.7,0-1.3-0.1-1.8-0.4c-0.5-0.3-0.9-0.7-1.2-1.2s-0.5-1.1-0.7-1.7c-0.2-0.6-0.2-1.3-0.2-2
			c0-1.5,0.4-2.8,1.1-3.8c0.7-1,1.8-1.5,3.1-1.5c1.2,0,2.1,0.4,2.9,1.2l-0.7,1c-0.6-0.7-1.3-1.1-2.2-1.1c-0.9,0-1.7,0.4-2.2,1.2
			c-0.5,0.8-0.8,1.8-0.8,2.9v0.4c0.3-0.4,0.7-0.8,1.2-1.1c0.5-0.3,1.1-0.5,1.7-0.5c1,0,1.8,0.3,2.4,0.9c0.6,0.6,1,1.4,1,2.4
			c0,0.9-0.3,1.7-1,2.4S137.6,26.5,136.5,26.5z M136.4,25.4c0.7,0,1.3-0.2,1.7-0.7c0.4-0.5,0.6-1,0.6-1.5c0-0.7-0.2-1.3-0.7-1.7
			c-0.4-0.4-1-0.6-1.7-0.6c-0.5,0-1,0.1-1.5,0.4s-0.8,0.7-1.1,1.1c0.1,0.8,0.3,1.4,0.7,2C135,25.1,135.6,25.4,136.4,25.4z"/>
		<path class="st3" d="M150.8,26.4h-1.6l-3.3-4.4l-3.3,4.4H141l4-5.3l-3.8-5h1.6l3.1,4.1l3.1-4.1h1.6l-3.8,5L150.8,26.4z"/>
		<path class="st3" d="M155.1,26.5c-0.8,0-1.6-0.2-2.2-0.5c-0.6-0.3-1.1-0.7-1.5-1.2l0.8-0.8c0.3,0.4,0.7,0.7,1.2,1
			c0.5,0.2,1.1,0.4,1.7,0.4c0.7,0,1.3-0.2,1.8-0.5c0.4-0.4,0.7-0.8,0.7-1.4c0-0.6-0.2-1.1-0.7-1.4c-0.5-0.3-1.1-0.4-1.9-0.4
			c-0.6,0-1,0-1.1,0v-1.2c0.1,0,0.5,0,1.1,0c0.7,0,1.3-0.1,1.7-0.4c0.5-0.3,0.7-0.7,0.7-1.3c0-0.5-0.2-1-0.7-1.3
			c-0.4-0.3-1-0.5-1.7-0.5c-1,0-2,0.4-2.7,1.3l-0.7-0.8c0.9-1.1,2.1-1.6,3.5-1.6c1,0,1.9,0.2,2.5,0.7c0.7,0.5,1,1.2,1,2
			c0,0.7-0.2,1.2-0.7,1.6c-0.5,0.4-1,0.7-1.5,0.8c0.6,0.1,1.1,0.3,1.6,0.8s0.8,1,0.8,1.8c0,0.9-0.3,1.6-1,2.1
			C157.1,26.3,156.2,26.5,155.1,26.5z"/>
	</g>
</g>
<g id="_24_julho_novo" transform="translate(200.275 451.873)">
	<path id="Path_11" class="st4" d="M-111-375.1c-0.1,1.9-1.7,3.3-3.6,3.2c-1.9-0.1-3.3-1.7-3.2-3.6c0.1-1.8,1.6-3.2,3.4-3.2
		C-112.4-378.6-110.9-377-111-375.1z"/>
</g>
<g id="oua" transform="translate(-470.926 -104.601)">
	<g id="Group_66" transform="translate(-445.705 -152.518)">
		<rect id="Rectangle_41" x="917.1" y="263" class="st2" width="60.8" height="56"/>
	</g>
</g>
<rect x="75.9" y="30.5" class="st2" width="93.5" height="27.5"/>
<rect x="122" y="11.8" class="st2" width="47.3" height="18.6"/>
<polygon class="st1" points="66,58 81.4,70.3 76.4,56.7 "/>
</svg>
