<svg xmlns="http://www.w3.org/2000/svg" width="169.418" height="80.059" viewBox="0 0 169.418 80.059">
  <g id="oua" transform="translate(-470.926 -104.601)">
    <g id="Group_20" data-name="Group 20" transform="translate(553.75 178.334)" opacity="0.92">
      <g id="Group_19" data-name="Group 19">
        <path id="Path_27" data-name="Path 27" d="M374.811,48.227a2.985,2.985,0,1,0-2.982,3.16,3.075,3.075,0,0,0,2.982-3.16Z" transform="translate(-368.851 -45.061)" fill="#2d314e" opacity="0.8"/>
      </g>
    </g>
    <g id="Group_42" data-name="Group 42" transform="translate(559.915 126.595)">
      <path id="Path_55" data-name="Path 55" d="M446.657,46.869l-66.843-1.4,1.767-24.527h70.263L453.083,38Z" transform="translate(-372.654 -19.022)" fill="#bdd8f1" opacity="0.5"/>
      <path id="Path_56" data-name="Path 56" d="M444.285,46.16H371.128V20.233H450.17V37.3Z" transform="translate(-371.128 -20.233)" fill="#bdd8f1"/>
      <path id="Path_57" data-name="Path 57" d="M417.3,27.307v9.951l7.382-9.951Z" transform="translate(-345.639 -11.331)" fill="#bdd8f1"/>
    </g>
    <g id="Group_44" data-name="Group 44" transform="translate(597.555 104.601)">
      <g id="Group_43" data-name="Group 43">
        <rect id="Rectangle_26" data-name="Rectangle 26" width="41.91" height="21.994"/>
        <path id="_6x3" data-name="6x3" d="M3.288-3.912a3.579,3.579,0,0,0-.564.048,1.662,1.662,0,0,0-.468.132q0,.048-.006.144t-.006.168A5.287,5.287,0,0,0,2.3-2.6a2.286,2.286,0,0,0,.2.672,1.149,1.149,0,0,0,.384.45,1.049,1.049,0,0,0,.6.162A.974.974,0,0,0,4-1.446a1.154,1.154,0,0,0,.348-.318,1.353,1.353,0,0,0,.2-.426,1.656,1.656,0,0,0,.066-.45,1.335,1.335,0,0,0-.306-.942A1.35,1.35,0,0,0,3.288-3.912ZM3.516-5.3a3.7,3.7,0,0,1,1.326.21,2.438,2.438,0,0,1,.894.57,2.148,2.148,0,0,1,.5.84A3.28,3.28,0,0,1,6.4-2.664a3.005,3.005,0,0,1-.174.984,2.749,2.749,0,0,1-.528.912,2.766,2.766,0,0,1-.9.672A2.935,2.935,0,0,1,3.5.168,2.782,2.782,0,0,1,1.224-.78,4,4,0,0,1,.444-3.4,5.654,5.654,0,0,1,.816-5.52,4.187,4.187,0,0,1,1.878-7.074a4.635,4.635,0,0,1,1.668-.96,7.085,7.085,0,0,1,2.2-.342Q5.772-8,5.8-7.65t.048.738A6.823,6.823,0,0,0,4.7-6.8a3.8,3.8,0,0,0-.972.318,2.66,2.66,0,0,0-.762.558,2.388,2.388,0,0,0-.5.834A2.22,2.22,0,0,1,3-5.256,3.021,3.021,0,0,1,3.516-5.3Zm6.528.912,1.248-1.92H13.14L10.98-3.276q.72.9,1.308,1.752A14.425,14.425,0,0,1,13.224,0H11.3l-.24-.45q-.144-.27-.324-.564T10.362-1.6q-.2-.294-.39-.534-.18.228-.366.5t-.354.558q-.168.282-.33.558T8.64,0H6.816a7.862,7.862,0,0,1,.4-.708q.252-.408.546-.846t.618-.876q.324-.438.636-.822-.54-.756-1.08-1.53L6.864-6.312H8.8ZM15.96.18a5.913,5.913,0,0,1-.684-.042q-.36-.042-.7-.114t-.612-.156a3.525,3.525,0,0,1-.432-.156l.348-1.488q.312.132.8.282a4.145,4.145,0,0,0,1.206.15A1.913,1.913,0,0,0,17.1-1.656a1.026,1.026,0,0,0,.384-.84,1.015,1.015,0,0,0-.138-.546,1.055,1.055,0,0,0-.378-.36,1.679,1.679,0,0,0-.57-.192,4.348,4.348,0,0,0-.7-.054H15v-1.44h.792a2.658,2.658,0,0,0,.51-.048A1.361,1.361,0,0,0,16.74-5.3a.848.848,0,0,0,.306-.312.987.987,0,0,0,.114-.5.785.785,0,0,0-.1-.4.862.862,0,0,0-.246-.276,1.072,1.072,0,0,0-.348-.162,1.521,1.521,0,0,0-.4-.054,2.824,2.824,0,0,0-.954.156,3.983,3.983,0,0,0-.8.384L13.68-7.764q.192-.12.45-.252a4.441,4.441,0,0,1,.57-.24,5.209,5.209,0,0,1,.666-.18,3.758,3.758,0,0,1,.75-.072,4.1,4.1,0,0,1,1.266.174,2.379,2.379,0,0,1,.882.492,1.983,1.983,0,0,1,.516.744,2.513,2.513,0,0,1,.168.93,1.836,1.836,0,0,1-.276.954,1.821,1.821,0,0,1-.744.7,2.156,2.156,0,0,1,1,.786,2.181,2.181,0,0,1,.354,1.254,2.865,2.865,0,0,1-.192,1.062,2.142,2.142,0,0,1-.6.84,2.879,2.879,0,0,1-1.038.552A5.007,5.007,0,0,1,15.96.18Z" transform="translate(10.955 15.497)" fill="#fff"/>
      </g>
    </g>
    <ellipse id="Ellipse_10" data-name="Ellipse 10" cx="23.022" cy="22.782" rx="23.022" ry="22.782" transform="translate(533.708 113.488)" fill="#eee9de"/>
    <path id="Path_58" data-name="Path 58" d="M410.8,45.163a25.051,25.051,0,1,0-50.1,0,24.513,24.513,0,0,0,5.5,15.492c4.59,5.668,19.211,23.037,19.211,23.037s15.308-17.369,19.9-23.037A24.53,24.53,0,0,0,410.8,45.163Z" transform="translate(170.979 91.108)" fill="#2d314e" opacity="0.92"/>
    <path id="OUA-2" data-name="OUA" d="M2.321-3.817A3.465,3.465,0,0,0,2.458-2.8a2.312,2.312,0,0,0,.4.775,1.753,1.753,0,0,0,.632.5,1.993,1.993,0,0,0,.858.176A2,2,0,0,0,5.2-1.529a1.741,1.741,0,0,0,.638-.5,2.312,2.312,0,0,0,.4-.775,3.465,3.465,0,0,0,.137-1.012,3.521,3.521,0,0,0-.137-1.017,2.305,2.305,0,0,0-.4-.781,1.741,1.741,0,0,0-.638-.5,2,2,0,0,0-.852-.176,1.942,1.942,0,0,0-.858.182,1.808,1.808,0,0,0-.632.506,2.305,2.305,0,0,0-.4.781A3.48,3.48,0,0,0,2.321-3.817Zm5.819,0A4.691,4.691,0,0,1,7.849-2.1a3.54,3.54,0,0,1-.8,1.243,3.274,3.274,0,0,1-1.2.754,4.376,4.376,0,0,1-1.5.253A4.264,4.264,0,0,1,2.871-.1a3.389,3.389,0,0,1-1.21-.754A3.523,3.523,0,0,1,.847-2.1a4.613,4.613,0,0,1-.3-1.721A4.466,4.466,0,0,1,.858-5.538a3.668,3.668,0,0,1,.831-1.248A3.415,3.415,0,0,1,2.9-7.546,4.155,4.155,0,0,1,4.345-7.8a4.264,4.264,0,0,1,1.474.253,3.352,3.352,0,0,1,1.21.759,3.58,3.58,0,0,1,.814,1.248A4.613,4.613,0,0,1,8.14-3.817ZM12.65.154a3.839,3.839,0,0,1-1.386-.226A2.582,2.582,0,0,1,10.3-.7a2.5,2.5,0,0,1-.561-.957,3.932,3.932,0,0,1-.181-1.227V-7.623h1.716v4.6a2.586,2.586,0,0,0,.1.786,1.449,1.449,0,0,0,.286.528,1.021,1.021,0,0,0,.44.292,1.748,1.748,0,0,0,.566.088,1.387,1.387,0,0,0,1.017-.385,1.8,1.8,0,0,0,.391-1.309v-4.6H15.8v4.741a3.876,3.876,0,0,1-.187,1.232,2.521,2.521,0,0,1-.572.963,2.565,2.565,0,0,1-.979.622A4.055,4.055,0,0,1,12.65.154ZM22.429,0q-.121-.4-.27-.814t-.292-.836H18.9q-.143.418-.292.836T18.337,0H16.555q.429-1.232.814-2.277t.753-1.969q.368-.924.726-1.754t.743-1.623H21.23q.374.792.737,1.623T22.7-4.246q.368.924.753,1.969T24.266,0ZM20.372-5.9q-.055.165-.165.451l-.253.66q-.143.374-.314.825t-.347.946h2.167q-.176-.5-.341-.946t-.313-.825q-.149-.374-.258-.66T20.372-5.9Z" transform="translate(593.511 144.091)"/>
    <ellipse id="Ellipse_11" data-name="Ellipse 11" cx="23.022" cy="22.782" rx="23.022" ry="22.782" transform="translate(533.708 113.488)" fill="#ff8879"/>
    <path id="_07" data-name="07" d="M6.942-4.524a5.974,5.974,0,0,1-.865,3.49A2.768,2.768,0,0,1,3.692.182,2.768,2.768,0,0,1,1.307-1.033a5.974,5.974,0,0,1-.865-3.49,7.953,7.953,0,0,1,.227-2,4.408,4.408,0,0,1,.656-1.469A2.926,2.926,0,0,1,2.353-8.9a2.851,2.851,0,0,1,1.339-.312A2.768,2.768,0,0,1,6.077-8,5.948,5.948,0,0,1,6.942-4.524Zm-1.976,0A10.577,10.577,0,0,0,4.9-5.753a4.421,4.421,0,0,0-.208-.955,1.483,1.483,0,0,0-.39-.624.883.883,0,0,0-.611-.221.859.859,0,0,0-.6.221,1.573,1.573,0,0,0-.39.624,4.159,4.159,0,0,0-.214.955,10.577,10.577,0,0,0-.065,1.229,10.748,10.748,0,0,0,.065,1.235,4.167,4.167,0,0,0,.214.962,1.573,1.573,0,0,0,.39.624.859.859,0,0,0,.6.221A.883.883,0,0,0,4.3-1.7a1.483,1.483,0,0,0,.39-.624A4.428,4.428,0,0,0,4.9-3.289,10.748,10.748,0,0,0,4.966-4.524ZM9.347,0a13.022,13.022,0,0,1,.325-1.976,18.92,18.92,0,0,1,.6-2.015,17,17,0,0,1,.8-1.865,11.562,11.562,0,0,1,.9-1.514H8.06V-9.022h6.305v1.4a8.721,8.721,0,0,0-.917,1.261A14.6,14.6,0,0,0,12.5-4.531a16.869,16.869,0,0,0-.78,2.191A11.33,11.33,0,0,0,11.31,0Z" transform="translate(549.23 141.271)" fill="#231f20"/>
    <g id="Group_66" data-name="Group 66" transform="translate(-445.705 -152.518)">
      <rect id="Rectangle_41" data-name="Rectangle 41" width="60.753" height="56" transform="translate(916.631 263)" fill="none"/>
    </g>
  </g>
</svg>
