<?xml version="1.0" encoding="utf-8"?>
<!-- Generator: Adobe Illustrator 25.2.3, SVG Export Plug-In . SVG Version: 6.00 Build 0)  -->
<svg version="1.1" id="Layer_1" xmlns="http://www.w3.org/2000/svg" width="236.467" height="82.692" xmlns:xlink="http://www.w3.org/1999/xlink" x="0px" y="0px"
	 viewBox="0 0 236.5 82.7" style="enable-background:new 0 0 236.5 82.7;" xml:space="preserve">
<style type="text/css">
	.st0{opacity:0.92;fill:#2D314E;enable-background:new    ;}
	.st1{fill:none;}
	.st2{fill:#676D81;}
	.st3{fill:#681758;}
	.st4{fill:#FFFFFF;}
</style>
<g id="pandora" transform="translate(-106 -713.85)">
	<g id="pandora_novo" transform="translate(200.275 713.85)">
		<path id="Path_9" class="st0" d="M28.1,79.6c-0.1,1.8-1.7,3.2-3.5,3.1c-1.8-0.1-3.2-1.7-3.1-3.5c0.1-1.7,1.5-3.1,3.3-3.1
			C26.7,76.2,28.2,77.7,28.1,79.6z"/>
	</g>
	<rect id="Rectangle_45" x="106" y="734" class="st1" width="94" height="26"/>
</g>
<g>
	<g id="Layer_2_1_">
		<g id="Layer_1-2">
			<g>
				<rect x="138.1" y="23.1" class="st2" width="94.4" height="27.5"/>
			</g>
			<rect x="101.6" y="23.1" class="st3" width="37.5" height="27.5"/>
			<g>
				<rect x="185.1" y="4.5" class="st3" width="47.3" height="18.6"/>
			</g>
		</g>
	</g>
	<g>
		<g>
			<path class="st4" d="M150.4,41.9V31.8h4.8c2.2,0,3.4,1.5,3.4,3.3s-1.2,3.3-3.4,3.3h-2.6V42L150.4,41.9L150.4,41.9z M156.4,35.1
				c0-0.9-0.7-1.4-1.5-1.4h-2.3v2.7h2.3C155.7,36.4,156.4,35.9,156.4,35.1z"/>
			<path class="st4" d="M165.8,41.9l-0.6-1.7h-4.4l-0.6,1.7h-2.5l3.9-10.2h2.7l3.9,10.2H165.8z M163,33.9l-1.6,4.4h3.2L163,33.9z"/>
			<path class="st4" d="M176.2,41.9l-4.8-6.6v6.6h-2.2V31.8h2.2l4.7,6.4v-6.4h2.2V42L176.2,41.9L176.2,41.9z"/>
			<path class="st4" d="M180.3,41.9V31.8h4c3.2,0,5.4,2,5.4,5.1c0,3.1-2.2,5.1-5.4,5.1L180.3,41.9L180.3,41.9z M187.5,36.9
				c0-1.8-1.1-3.2-3.2-3.2h-1.9V40h1.8C186.3,40,187.5,38.6,187.5,36.9z"/>
			<path class="st4" d="M190.8,36.9c0-3.1,2.2-5.3,5.3-5.3c3.1,0,5.3,2.2,5.3,5.3c0,3.1-2.2,5.3-5.3,5.3
				C193,42.1,190.8,39.9,190.8,36.9z M199.2,36.9c0-1.9-1.2-3.3-3.1-3.3c-1.9,0-3.1,1.4-3.1,3.3c0,1.9,1.2,3.3,3.1,3.3
				C198,40.2,199.2,38.8,199.2,36.9z"/>
			<path class="st4" d="M208.7,41.9l-2-3.6h-1.6v3.6h-2.2V31.8h4.8c2.1,0,3.4,1.4,3.4,3.3c0,1.8-1.1,2.8-2.2,3l2.3,3.9L208.7,41.9
				L208.7,41.9z M208.9,35c0-0.8-0.7-1.4-1.5-1.4h-2.3v2.7h2.3C208.2,36.4,208.9,35.9,208.9,35z"/>
			<path class="st4" d="M219.8,41.9l-0.6-1.7h-4.4l-0.6,1.7h-2.5l3.9-10.2h2.7l3.9,10.2H219.8z M216.9,33.9l-1.6,4.4h3.2L216.9,33.9
				z"/>
		</g>
		<g>
			<path class="st4" d="M194.4,13.8c0-3.2,1.8-5.5,5-5.5c1.3,0,2.4,0.4,3.2,1.1l-1,1.7c-0.6-0.5-1.2-0.8-2.1-0.8
				c-1.6,0-2.7,1.3-2.7,3c0,0.1,0,0.1,0,0.2c0.5-0.7,1.6-1.4,2.7-1.4c1.9,0,3.6,1.2,3.6,3.5c0,2.1-1.7,3.7-4.1,3.7
				C195.7,19.3,194.4,16.8,194.4,13.8z M200.8,15.7c0-1.1-1-1.6-2-1.6c-0.8,0-1.6,0.4-2.1,1c0.1,1,0.7,2.2,2.2,2.2
				C200.1,17.3,200.8,16.5,200.8,15.7z"/>
			<path class="st4" d="M211.6,19.1l-2.7-3.9l-2.7,3.9h-2.7l3.9-5.5l-3.6-5.2h2.7l2.4,3.7l2.4-3.7h2.7l-3.6,5.2l3.9,5.5H211.6z"/>
			<path class="st4" d="M214.6,17.6l1.2-1.5c0.7,0.8,1.9,1.2,2.9,1.2c1.3,0,2-0.6,2-1.4c0-0.8-0.7-1.2-2.1-1.2c-0.4,0-1.2,0-1.3,0
				v-2c0.2,0,0.9,0,1.3,0c1.2,0,2-0.4,2-1.1c0-0.8-0.9-1.3-2-1.3c-1,0-2,0.4-2.7,1.1l-1.1-1.4c0.9-1,2.2-1.7,4.1-1.7
				c2.5,0,4,1.1,4,2.9c0,1.3-1.2,2.2-2.3,2.4c1.1,0.1,2.5,1,2.5,2.6c0,1.8-1.6,3.1-4.2,3.1C216.8,19.3,215.4,18.6,214.6,17.6z"/>
		</g>
	</g>
</g>
<polygon class="st3" points="101.6,50.6 114.9,70 113.3,49.3 "/>
<g>
	<path class="st4" d="M109.1,36.3c0-3.8,1.9-7.6,6.1-7.6c4.2,0,6.1,3.8,6.1,7.6s-1.9,7.6-6.1,7.6C111,43.9,109.1,40.1,109.1,36.3z
		 M118,36.3c0-2.7-0.8-4.8-2.9-4.8c-2.1,0-2.9,2.1-2.9,4.8s0.8,4.8,2.9,4.8C117.3,41.1,118,39,118,36.3z"/>
	<path class="st4" d="M126.5,43.6V33l-2.4,2.5l-1.8-1.9l4.6-4.6h2.7v14.7H126.5z"/>
</g>
</svg>
