<svg xmlns="http://www.w3.org/2000/svg" width="236.467" height="82.692" viewBox="0 0 236.467 82.692">
  <g id="pandora" transform="translate(-106 -713.85)">
    <g id="pandora_novo" transform="translate(200.275 713.85)">
      <path id="Path_9" data-name="Path 9" d="M241.473,328.014a3.289,3.289,0,1,1-3.279-3.482,3.383,3.383,0,0,1,3.279,3.482Z" transform="translate(-213.367 -248.418)" fill="#2d314e" opacity="0.92"/>
      <g id="Group_47" data-name="Group 47" transform="translate(99.793)">
        <rect id="Rectangle_28" data-name="Rectangle 28" width="40.82" height="21.994"/>
        <path id="_6X3" data-name="6X3" d="M3.562-4.238a3.877,3.877,0,0,0-.611.052,1.8,1.8,0,0,0-.507.143q0,.052-.007.156T2.431-3.7a5.728,5.728,0,0,0,.065.884,2.477,2.477,0,0,0,.221.728,1.244,1.244,0,0,0,.416.487,1.136,1.136,0,0,0,.65.176,1.055,1.055,0,0,0,.552-.137,1.25,1.25,0,0,0,.377-.345,1.466,1.466,0,0,0,.221-.461,1.794,1.794,0,0,0,.072-.487,1.446,1.446,0,0,0-.332-1.021A1.462,1.462,0,0,0,3.562-4.238Zm.247-1.508a4.012,4.012,0,0,1,1.436.227,2.641,2.641,0,0,1,.968.617,2.327,2.327,0,0,1,.546.91,3.553,3.553,0,0,1,.169,1.105A3.256,3.256,0,0,1,6.74-1.82a2.978,2.978,0,0,1-.572.988A3,3,0,0,1,5.194-.1,3.18,3.18,0,0,1,3.8.182,3.014,3.014,0,0,1,1.326-.845,4.334,4.334,0,0,1,.481-3.679a6.125,6.125,0,0,1,.4-2.3,4.536,4.536,0,0,1,1.15-1.684A5.021,5.021,0,0,1,3.842-8.7a7.675,7.675,0,0,1,2.386-.371q.026.4.052.787t.052.8a7.392,7.392,0,0,0-1.241.123,4.115,4.115,0,0,0-1.053.344,2.881,2.881,0,0,0-.826.6,2.586,2.586,0,0,0-.546.9,2.4,2.4,0,0,1,.585-.182A3.273,3.273,0,0,1,3.809-5.746ZM13.468,0q-.377-.754-.826-1.528a18.473,18.473,0,0,0-1.033-1.579q-.182.234-.462.65t-.559.884q-.28.468-.526.9T9.7,0H7.384q.572-1.053,1.332-2.21t1.7-2.457l-2.9-4.342H9.971L11.726-6.2l1.716-2.808h2.314L12.9-4.641a30.962,30.962,0,0,1,1.833,2.619Q15.47-.819,15.9,0Zm5.4.195a6.405,6.405,0,0,1-.741-.045Q17.732.1,17.368.026T16.7-.143a3.819,3.819,0,0,1-.468-.169l.377-1.612q.338.143.865.306a4.491,4.491,0,0,0,1.306.162A2.072,2.072,0,0,0,20.1-1.794a1.112,1.112,0,0,0,.416-.91,1.1,1.1,0,0,0-.149-.592,1.143,1.143,0,0,0-.41-.39,1.819,1.819,0,0,0-.618-.208,4.71,4.71,0,0,0-.76-.059h-.754v-1.56h.858a2.879,2.879,0,0,0,.552-.052,1.475,1.475,0,0,0,.475-.175.919.919,0,0,0,.332-.338,1.069,1.069,0,0,0,.123-.54.85.85,0,0,0-.1-.429.934.934,0,0,0-.267-.3,1.162,1.162,0,0,0-.377-.175,1.648,1.648,0,0,0-.436-.059,3.06,3.06,0,0,0-1.033.169,4.315,4.315,0,0,0-.865.416l-.689-1.417q.208-.13.488-.273a4.811,4.811,0,0,1,.618-.26,5.643,5.643,0,0,1,.721-.195,4.071,4.071,0,0,1,.813-.078,4.444,4.444,0,0,1,1.372.188,2.578,2.578,0,0,1,.956.533,2.148,2.148,0,0,1,.559.806A2.722,2.722,0,0,1,22.1-6.682a1.99,1.99,0,0,1-.3,1.034,1.972,1.972,0,0,1-.806.76,2.335,2.335,0,0,1,1.086.852,2.362,2.362,0,0,1,.384,1.359,3.1,3.1,0,0,1-.208,1.15,2.32,2.32,0,0,1-.65.91,3.119,3.119,0,0,1-1.125.6A5.425,5.425,0,0,1,18.863.195Z" transform="translate(6.921 13.525)" fill="#fff"/>
      </g>
      <g id="Group_48" data-name="Group 48" transform="translate(5.215 22.046)">
        <path id="Path_66" data-name="Path 66" d="M341.069,334.383l-103.506-1.572,2.736-27.536H349.1l1.92,19.156Z" transform="translate(-214.043 -303.355)" fill="#9fa1a4" opacity="0.5"/>
        <path id="Path_67" data-name="Path 67" d="M353.909,333.674H228.878V304.566H363.965v19.156Z" transform="translate(-228.878 -304.566)" fill="#bdd8f1"/>
        <path id="Path_68" data-name="Path 68" d="M275.049,311.64v9.951L285.1,311.64Z" transform="translate(-150.018 -292.484)" fill="#fff"/>
      </g>
      <path id="PANDORA-2" data-name="PANDORA" d="M3.168-7.711a4.769,4.769,0,0,1,2.618.6A2.173,2.173,0,0,1,6.7-5.148a2.2,2.2,0,0,1-.924,1.985,4.782,4.782,0,0,1-2.64.61H2.6V0H.88V-7.513a9.708,9.708,0,0,1,1.188-.154Q2.7-7.711,3.168-7.711Zm.11,1.463q-.187,0-.369.011T2.6-6.215v2.2h.539a2.921,2.921,0,0,0,1.342-.242.93.93,0,0,0,.451-.9,1.082,1.082,0,0,0-.115-.528.878.878,0,0,0-.33-.335A1.486,1.486,0,0,0,3.96-6.2,4.315,4.315,0,0,0,3.278-6.248ZM12.419,0q-.121-.4-.27-.814t-.292-.836H8.888q-.143.418-.292.836T8.327,0H6.545q.429-1.232.814-2.277t.754-1.969Q8.481-5.17,8.839-6t.743-1.623H11.22q.374.792.737,1.623t.731,1.754q.368.924.754,1.969T14.256,0ZM10.362-5.9q-.055.165-.165.451l-.253.66q-.143.374-.314.825t-.346.946h2.167q-.176-.5-.341-.946T10.8-4.785q-.148-.374-.258-.66T10.362-5.9ZM20.46,0q-.737-1.309-1.6-2.585a26.271,26.271,0,0,0-1.826-2.409V0H15.345V-7.623h1.4q.363.363.8.891t.9,1.127q.457.6.907,1.243T20.2-3.124v-4.5h1.7V0Zm5.016-1.4q.121.011.281.017t.379.005a2.531,2.531,0,0,0,1.908-.649,2.486,2.486,0,0,0,.622-1.793,2.517,2.517,0,0,0-.594-1.815,2.514,2.514,0,0,0-1.881-.616q-.176,0-.363.006a3.431,3.431,0,0,0-.352.027Zm4.961-2.42a4.456,4.456,0,0,1-.308,1.727,3.2,3.2,0,0,1-.874,1.221,3.73,3.73,0,0,1-1.381.726A6.4,6.4,0,0,1,26.048.1Q25.586.1,24.97.06A8.807,8.807,0,0,1,23.76-.1V-7.524A10.109,10.109,0,0,1,25-7.672q.643-.039,1.105-.038a6.676,6.676,0,0,1,1.777.22,3.634,3.634,0,0,1,1.369.693,3.08,3.08,0,0,1,.88,1.21A4.584,4.584,0,0,1,30.437-3.817Zm2.97,0A3.465,3.465,0,0,0,33.545-2.8a2.312,2.312,0,0,0,.4.775,1.753,1.753,0,0,0,.632.5,1.993,1.993,0,0,0,.858.176,2,2,0,0,0,.853-.176,1.741,1.741,0,0,0,.638-.5,2.312,2.312,0,0,0,.4-.775,3.465,3.465,0,0,0,.138-1.012,3.521,3.521,0,0,0-.138-1.017,2.305,2.305,0,0,0-.4-.781,1.741,1.741,0,0,0-.638-.5,2,2,0,0,0-.853-.176,1.942,1.942,0,0,0-.858.182,1.808,1.808,0,0,0-.632.506,2.305,2.305,0,0,0-.4.781A3.48,3.48,0,0,0,33.407-3.817Zm5.819,0A4.691,4.691,0,0,1,38.935-2.1a3.54,3.54,0,0,1-.8,1.243,3.274,3.274,0,0,1-1.2.754,4.376,4.376,0,0,1-1.5.253A4.264,4.264,0,0,1,33.957-.1a3.389,3.389,0,0,1-1.21-.754A3.523,3.523,0,0,1,31.933-2.1a4.613,4.613,0,0,1-.3-1.721,4.466,4.466,0,0,1,.308-1.721,3.668,3.668,0,0,1,.831-1.248,3.415,3.415,0,0,1,1.21-.759A4.155,4.155,0,0,1,35.431-7.8a4.264,4.264,0,0,1,1.474.253,3.352,3.352,0,0,1,1.21.759,3.58,3.58,0,0,1,.814,1.248A4.613,4.613,0,0,1,39.226-3.817Zm3.762-3.894a4.725,4.725,0,0,1,2.629.61,2.122,2.122,0,0,1,.913,1.9,2.145,2.145,0,0,1-.368,1.3,2.427,2.427,0,0,1-1.062.786q.231.286.484.655t.5.77q.248.4.479.836T46.992,0H45.067l-.424-.759q-.215-.385-.44-.748t-.445-.687q-.22-.325-.44-.589h-.847V0H40.755V-7.513a9.728,9.728,0,0,1,1.16-.154Q42.515-7.711,42.988-7.711Zm.1,1.463q-.187,0-.335.011l-.28.022v2.068h.484a2.923,2.923,0,0,0,1.386-.242.875.875,0,0,0,.418-.825.839.839,0,0,0-.424-.8A2.619,2.619,0,0,0,43.087-6.248ZM53.636,0q-.121-.4-.27-.814t-.292-.836H50.1q-.143.418-.292.836T49.544,0H47.762q.429-1.232.814-2.277t.754-1.969Q49.7-5.17,50.056-6T50.8-7.623h1.639q.374.792.737,1.623t.732,1.754q.368.924.753,1.969T55.473,0ZM51.579-5.9q-.055.165-.165.451l-.253.66q-.143.374-.313.825t-.347.946h2.167q-.176-.5-.341-.946t-.313-.825q-.148-.374-.258-.66T51.579-5.9Z" transform="translate(58.579 41.56)"/>
      <circle id="Ellipse_25" data-name="Ellipse 25" cx="22.782" cy="22.782" r="22.782" transform="translate(2.007 12.574)" fill="#eee9de"/>
      <path id="Path_94" data-name="Path 94" d="M226.952,325.116A24.789,24.789,0,1,1,271.1,340.608c-4.544,5.668-19.013,23.037-19.013,23.037s-15.148-17.369-19.693-23.034a24.694,24.694,0,0,1-5.442-15.495Z" transform="translate(-226.952 -289.76)" fill="#2d314e" opacity="0.92"/>
      <circle id="Ellipse_26" data-name="Ellipse 26" cx="22.782" cy="22.782" r="22.782" transform="translate(2.007 12.574)" fill="#ff8879"/>
      <path id="_01" data-name="01" d="M6.942-4.524a5.974,5.974,0,0,1-.865,3.49A2.768,2.768,0,0,1,3.692.182,2.768,2.768,0,0,1,1.307-1.033a5.974,5.974,0,0,1-.865-3.49,7.953,7.953,0,0,1,.227-2,4.408,4.408,0,0,1,.656-1.469A2.926,2.926,0,0,1,2.353-8.9a2.851,2.851,0,0,1,1.339-.312A2.768,2.768,0,0,1,6.077-8,5.948,5.948,0,0,1,6.942-4.524Zm-1.976,0A10.577,10.577,0,0,0,4.9-5.753a4.421,4.421,0,0,0-.208-.955,1.483,1.483,0,0,0-.39-.624.883.883,0,0,0-.611-.221.859.859,0,0,0-.6.221,1.573,1.573,0,0,0-.39.624,4.159,4.159,0,0,0-.214.955,10.577,10.577,0,0,0-.065,1.229,10.748,10.748,0,0,0,.065,1.235,4.167,4.167,0,0,0,.214.962,1.573,1.573,0,0,0,.39.624.859.859,0,0,0,.6.221A.883.883,0,0,0,4.3-1.7a1.483,1.483,0,0,0,.39-.624A4.428,4.428,0,0,0,4.9-3.289,10.748,10.748,0,0,0,4.966-4.524ZM8.411-7.137q.377-.156.786-.358t.8-.442q.39-.241.748-.507a5.131,5.131,0,0,0,.643-.565H12.74V0H10.8V-6.487a5.9,5.9,0,0,1-.871.474Q9.451-5.8,9-5.642Z" transform="translate(17.323 41.56)" fill="#231f20"/>
    </g>
    <rect id="Rectangle_45" data-name="Rectangle 45" width="94" height="26" transform="translate(106 734)" fill="none"/>
  </g>
</svg>
