<?xml version="1.0" encoding="utf-8"?>
<!-- Generator: Adobe Illustrator 25.2.3, SVG Export Plug-In . SVG Version: 6.00 Build 0)  -->
<svg version="1.1" id="Layer_1" xmlns="http://www.w3.org/2000/svg" width="236.467" height="82.692" xmlns:xlink="http://www.w3.org/1999/xlink" x="0px" y="0px"
	 viewBox="0 0 236.5 82.7" style="enable-background:new 0 0 236.5 82.7;" xml:space="preserve">
<style type="text/css">
	.st0{fill:#676D81;}
	.st1{fill:#681758;}
	.st2{fill:#FFFFFF;stroke:#FFFFFF;stroke-width:0.4998;stroke-miterlimit:9.9972;}
	.st3{fill:#FFFFFF;stroke:#FFFFFF;stroke-width:0.6998;stroke-miterlimit:9.9972;}
	.st4{fill:#FFFFFF;}
	.st5{opacity:0.92;fill:#2D314E;enable-background:new    ;}
	.st6{fill:none;}
</style>
<g>
	<g id="Layer_2_1_">
		<g id="Layer_1-2">
			<g>
				<rect x="148.6" y="34.2" class="st0" width="76.5" height="22.3"/>
			</g>
			<rect x="119" y="34.2" class="st1" width="30.4" height="22.3"/>
			<g>
				<rect x="186.7" y="19.1" class="st1" width="38.4" height="15.1"/>
			</g>
		</g>
	</g>
</g>
<g>
	<g>
		<path class="st2" d="M160.3,49.6h-1.1v-8.4h3.4c0.8,0,1.5,0.2,1.9,0.7c0.4,0.5,0.7,1.1,0.7,1.8c0,0.7-0.2,1.3-0.7,1.8
			c-0.5,0.5-1.1,0.7-1.9,0.7h-2.4L160.3,49.6L160.3,49.6z M162.5,45.3c0.5,0,0.9-0.2,1.2-0.5s0.5-0.6,0.5-1.1c0-0.5-0.2-0.9-0.5-1.1
			c-0.3-0.3-0.7-0.5-1.2-0.5h-2.2v3.2L162.5,45.3L162.5,45.3z"/>
		<path class="st2" d="M172.8,49.6h-1.2l-0.7-1.9h-4.1l-0.7,1.9h-1.2l3.4-8.4h1.3L172.8,49.6z M170.6,46.8l-1.8-4.5l-1.8,4.5H170.6z
			"/>
		<path class="st2" d="M180.8,49.6h-1l-4.9-6.6v6.6h-1.1v-8.4h1.1l4.9,6.6v-6.6h1.1L180.8,49.6L180.8,49.6z"/>
		<path class="st2" d="M185.7,49.6h-2.8v-8.4h2.8c1.3,0,2.4,0.4,3.1,1.2c0.8,0.8,1.2,1.8,1.2,3s-0.4,2.2-1.2,3
			C188,49.1,187,49.6,185.7,49.6z M185.7,48.7c1,0,1.8-0.3,2.4-0.9c0.6-0.6,0.9-1.4,0.9-2.4c0-1-0.3-1.7-0.9-2.4
			c-0.6-0.6-1.4-0.9-2.4-0.9h-1.8v6.5L185.7,48.7L185.7,48.7z"/>
		<path class="st2" d="M198.4,48.5c-0.8,0.8-1.8,1.2-3,1.2s-2.2-0.4-3-1.2c-0.8-0.8-1.1-1.9-1.1-3.1c0-1.2,0.4-2.3,1.1-3.1
			c0.8-0.8,1.8-1.2,3-1.2s2.2,0.4,3,1.2c0.8,0.8,1.1,1.9,1.1,3.1C199.6,46.6,199.2,47.7,198.4,48.5z M195.4,48.8
			c0.9,0,1.7-0.3,2.3-1c0.6-0.7,0.9-1.5,0.9-2.4s-0.3-1.8-0.9-2.4c-0.6-0.6-1.3-1-2.3-1c-0.9,0-1.7,0.3-2.3,1
			c-0.6,0.6-0.8,1.5-0.8,2.4s0.2,1.8,0.8,2.4C193.8,48.5,194.5,48.8,195.4,48.8z"/>
		<path class="st2" d="M207.3,49.6h-1.2l-2.1-3.3h-1.7v3.3h-1.1v-8.4h3.4c0.8,0,1.4,0.2,1.9,0.7c0.5,0.5,0.7,1.1,0.7,1.9
			c0,0.7-0.2,1.3-0.6,1.7c-0.4,0.4-1,0.6-1.5,0.7L207.3,49.6z M204.5,45.3c0.5,0,0.9-0.2,1.2-0.5s0.5-0.6,0.5-1.1
			c0-0.5-0.2-0.9-0.5-1.1c-0.3-0.3-0.7-0.4-1.2-0.4h-2.2v3.2L204.5,45.3L204.5,45.3z"/>
		<path class="st2" d="M216.1,49.6h-1.2l-0.7-1.9H210l-0.7,1.9h-1.2l3.4-8.4h1.3L216.1,49.6z M213.8,46.8l-1.8-4.5l-1.8,4.5H213.8z"
			/>
	</g>
	<g>
		<path class="st3" d="M132,49.7c-0.5,0-1.1-0.1-1.5-0.4c-0.4-0.3-0.7-0.5-1.1-1.1c-0.3-0.4-0.4-0.9-0.5-1.3
			c-0.1-0.5-0.2-1.1-0.2-1.5c0-0.5,0.1-1.1,0.2-1.5c0.1-0.5,0.3-1,0.5-1.3c0.3-0.4,0.5-0.7,1.1-1.1c0.4-0.3,0.9-0.4,1.5-0.4
			c0.5,0,1.1,0.1,1.5,0.4c0.4,0.3,0.7,0.5,1.1,1.1c0.3,0.4,0.4,0.9,0.5,1.3c0.1,0.5,0.2,1.1,0.2,1.5c0,0.5-0.1,1.1-0.2,1.5
			c-0.1,0.5-0.3,1-0.5,1.3c-0.3,0.4-0.5,0.7-1.1,1.1C133,49.6,132.5,49.7,132,49.7z M130.7,48.3c0.4,0.4,0.7,0.5,1.3,0.5
			c0.5,0,0.9-0.2,1.3-0.5c0.4-0.4,0.5-0.7,0.7-1.3c0.1-0.5,0.2-1.1,0.2-1.7s-0.1-1.2-0.2-1.7c-0.1-0.5-0.4-0.9-0.7-1.3
			c-0.4-0.4-0.7-0.5-1.3-0.5s-0.9,0.2-1.3,0.5c-0.4,0.4-0.5,0.7-0.7,1.3c-0.1,0.5-0.2,1.1-0.2,1.7s0.1,1.2,0.2,1.7
			C130.1,47.5,130.4,47.9,130.7,48.3z"/>
		<path class="st3" d="M139.2,49.6h-1.1v-7.1l-1.3,1.4l-0.6-0.6l2.2-2.2h0.9V49.6z"/>
	</g>
	<g>
		<path class="st4" d="M198.4,31.1c-0.6,0-1.1-0.1-1.5-0.3c-0.4-0.2-0.7-0.6-1-1c-0.2-0.4-0.4-0.9-0.6-1.4c-0.2-0.5-0.2-1.1-0.2-1.6
			c0-1.2,0.3-2.3,0.9-3.1c0.6-0.8,1.5-1.2,2.5-1.2s1.7,0.3,2.4,1l-0.6,0.8c-0.5-0.6-1.1-0.9-1.8-0.9c-0.7,0-1.4,0.3-1.8,1
			c-0.4,0.6-0.6,1.5-0.6,2.4V27c0.2-0.3,0.6-0.6,1-0.9c0.4-0.2,0.9-0.4,1.4-0.4c0.8,0,1.5,0.2,1.9,0.7c0.5,0.5,0.8,1.1,0.8,1.9
			c0,0.7-0.2,1.4-0.8,1.9C199.9,30.9,199.3,31.1,198.4,31.1z M198.4,30.1c0.6,0,1.1-0.2,1.4-0.6c0.3-0.4,0.5-0.8,0.5-1.2
			c0-0.6-0.2-1.1-0.6-1.4c-0.3-0.3-0.8-0.5-1.4-0.5c-0.4,0-0.8,0.1-1.2,0.3c-0.4,0.2-0.6,0.6-0.9,0.9c0.1,0.6,0.2,1.1,0.6,1.6
			C197.2,29.9,197.7,30.1,198.4,30.1z"/>
		<path class="st4" d="M210,30.9h-1.3l-2.7-3.6l-2.7,3.6H202l3.2-4.3l-3.1-4.1h1.3l2.5,3.3l2.5-3.3h1.3l-3.1,4.1L210,30.9z"/>
		<path class="st4" d="M213.5,31.1c-0.6,0-1.3-0.2-1.8-0.4c-0.5-0.2-0.9-0.6-1.2-1l0.6-0.6c0.2,0.3,0.6,0.6,1,0.8
			c0.4,0.2,0.9,0.3,1.4,0.3c0.6,0,1.1-0.2,1.5-0.4c0.3-0.3,0.6-0.6,0.6-1.1c0-0.5-0.2-0.9-0.6-1.1s-0.9-0.3-1.5-0.3
			c-0.5,0-0.8,0-0.9,0v-1c0.1,0,0.4,0,0.9,0c0.6,0,1.1-0.1,1.4-0.3c0.4-0.2,0.6-0.6,0.6-1.1c0-0.4-0.2-0.8-0.6-1.1
			c-0.3-0.2-0.8-0.4-1.4-0.4c-0.8,0-1.6,0.3-2.2,1.1l-0.6-0.6c0.7-0.9,1.7-1.3,2.8-1.3c0.8,0,1.5,0.2,2,0.6c0.6,0.4,0.8,1,0.8,1.6
			s-0.2,1-0.6,1.3s-0.8,0.6-1.2,0.6c0.5,0.1,0.9,0.2,1.3,0.6c0.4,0.4,0.6,0.8,0.6,1.5s-0.2,1.3-0.8,1.7
			C215.1,30.8,214.4,31.1,213.5,31.1z"/>
	</g>
</g>
<g id="pandora" transform="translate(-106 -713.85)">
	<g id="pandora_novo" transform="translate(200.275 713.85)">
		<path id="Path_9" class="st5" d="M28.1,79.6c-0.1,1.8-1.7,3.2-3.5,3.1c-1.8-0.1-3.2-1.7-3.1-3.5c0.1-1.7,1.5-3.1,3.3-3.1
			C26.7,76.2,28.2,77.7,28.1,79.6z"/>
	</g>
	<rect id="Rectangle_45" x="106" y="734" class="st6" width="94" height="26"/>
</g>
<polygon class="st1" points="119,56.5 119.1,68.3 124.7,55.5 "/>
</svg>
