<?xml version="1.0" encoding="utf-8"?>
<!-- Generator: Adobe Illustrator 25.2.3, SVG Export Plug-In . SVG Version: 6.00 Build 0)  -->
<svg version="1.1" id="Layer_1" xmlns="http://www.w3.org/2000/svg" width="236.467" height="82.692" xmlns:xlink="http://www.w3.org/1999/xlink" x="0px" y="0px"
	 viewBox="0 0 236.5 82.7" style="enable-background:new 0 0 236.5 82.7;" xml:space="preserve">
<style type="text/css">
	.st0{fill:#676D81;}
	.st1{fill:#681758;}
	.st2{fill:#FFFFFF;}
	.st3{opacity:0.92;fill:#2D314E;enable-background:new    ;}
	.st4{fill:none;}
</style>
<g>
	<g id="Layer_2_1_">
		<g id="Layer_1-2">
			<g>
				<rect x="138.1" y="23.1" class="st0" width="94.4" height="27.5"/>
			</g>
			<rect x="101.6" y="23.1" class="st1" width="37.5" height="27.5"/>
			<g>
				<rect x="185.1" y="4.5" class="st1" width="47.3" height="18.6"/>
			</g>
		</g>
	</g>
</g>
<g>
	<g>
		<path class="st2" d="M152.5,42h-1.3V31.7h4.2c1,0,1.8,0.3,2.4,0.9c0.6,0.6,0.9,1.3,0.9,2.2c0,0.9-0.3,1.6-0.9,2.2
			c-0.6,0.6-1.4,0.9-2.4,0.9h-2.9V42z M155.2,36.8c0.6,0,1.1-0.2,1.5-0.6c0.4-0.4,0.6-0.8,0.6-1.4c0-0.6-0.2-1.1-0.6-1.4
			c-0.4-0.4-0.9-0.6-1.5-0.6h-2.7v3.9H155.2z"/>
		<path class="st2" d="M167.9,42h-1.5l-0.9-2.3h-5.1l-0.9,2.3H158l4.2-10.3h1.6L167.9,42z M165.2,38.6L163,33l-2.2,5.6H165.2z"/>
		<path class="st2" d="M177.8,42h-1.2l-6-8.2V42h-1.3V31.7h1.3l6,8.1v-8.1h1.3V42z"/>
		<path class="st2" d="M183.8,42h-3.5V31.7h3.5c1.6,0,2.9,0.5,3.8,1.5c1,1,1.5,2.2,1.5,3.7c0,1.5-0.5,2.7-1.5,3.7
			C186.7,41.5,185.4,42,183.8,42z M183.8,40.9c1.2,0,2.2-0.4,2.9-1.1s1.1-1.7,1.1-2.9c0-1.2-0.4-2.1-1.1-2.9
			c-0.7-0.8-1.7-1.1-2.9-1.1h-2.2v8H183.8z"/>
		<path class="st2" d="M199.5,40.7c-1,1-2.2,1.5-3.7,1.5s-2.7-0.5-3.7-1.5c-1-1-1.4-2.3-1.4-3.8c0-1.5,0.5-2.8,1.4-3.8
			c1-1,2.2-1.5,3.7-1.5s2.7,0.5,3.7,1.5c1,1,1.4,2.3,1.4,3.8C201,38.4,200.5,39.7,199.5,40.7z M195.8,41.1c1.1,0,2.1-0.4,2.8-1.2
			c0.7-0.8,1.1-1.8,1.1-3c0-1.2-0.4-2.2-1.1-3c-0.7-0.8-1.6-1.2-2.8-1.2c-1.1,0-2.1,0.4-2.8,1.2c-0.7,0.8-1,1.8-1,3
			c0,1.2,0.3,2.2,1,3C193.8,40.7,194.7,41.1,195.8,41.1z"/>
		<path class="st2" d="M210.5,42H209l-2.6-4.1h-2.1V42H203V31.7h4.2c1,0,1.7,0.3,2.3,0.9s0.9,1.3,0.9,2.3c0,0.9-0.3,1.6-0.8,2.1
			c-0.5,0.5-1.2,0.8-1.9,0.9L210.5,42z M207,36.8c0.6,0,1.1-0.2,1.5-0.6c0.4-0.4,0.6-0.8,0.6-1.4c0-0.6-0.2-1.1-0.6-1.4
			c-0.4-0.4-0.9-0.5-1.5-0.5h-2.7v4H207z"/>
		<path class="st2" d="M221.3,42h-1.5l-0.9-2.3h-5.1l-0.9,2.3h-1.5l4.2-10.3h1.6L221.3,42z M218.5,38.6l-2.2-5.6l-2.2,5.6H218.5z"/>
	</g>
	<g>
		<path class="st2" d="M116.6,44.4c-1,0-1.8-0.2-2.6-0.7c-0.7-0.4-1.3-1-1.8-1.8s-0.8-1.6-1-2.4c-0.2-0.9-0.3-1.8-0.3-2.7
			s0.1-1.8,0.3-2.7c0.2-0.9,0.5-1.7,1-2.4s1-1.3,1.8-1.8c0.7-0.4,1.6-0.7,2.6-0.7c1,0,1.8,0.2,2.6,0.7c0.7,0.4,1.3,1,1.8,1.8
			s0.8,1.5,1,2.4c0.2,0.9,0.3,1.8,0.3,2.7s-0.1,1.8-0.3,2.7c-0.2,0.9-0.5,1.7-1,2.4s-1,1.3-1.8,1.8S117.6,44.4,116.6,44.4z
			 M114.4,41.9c0.6,0.6,1.3,0.9,2.2,0.9c0.9,0,1.6-0.3,2.2-0.9c0.6-0.6,1-1.3,1.2-2.2c0.2-0.9,0.3-1.8,0.3-2.9c0-1.1-0.1-2-0.3-2.9
			c-0.2-0.9-0.6-1.6-1.2-2.2c-0.6-0.6-1.3-0.9-2.2-0.9c-0.9,0-1.6,0.3-2.2,0.9c-0.6,0.6-1,1.3-1.2,2.2c-0.2,0.9-0.3,1.8-0.3,2.9
			c0,1.1,0.1,2,0.3,2.9C113.4,40.6,113.8,41.3,114.4,41.9z"/>
		<path class="st2" d="M129.1,44.2h-1.8V31.9l-2.4,2.5l-1.1-1.1l3.7-3.8h1.6V44.2z"/>
	</g>
	<g>
		<path class="st2" d="M199.5,19.2c-0.7,0-1.3-0.1-1.8-0.4c-0.5-0.3-0.9-0.7-1.2-1.2s-0.5-1.1-0.7-1.7c-0.2-0.6-0.2-1.3-0.2-2
			c0-1.5,0.4-2.8,1.1-3.8c0.7-1,1.8-1.5,3.1-1.5c1.2,0,2.1,0.4,2.9,1.2l-0.7,1c-0.6-0.7-1.3-1.1-2.2-1.1c-0.9,0-1.7,0.4-2.2,1.2
			c-0.5,0.8-0.8,1.8-0.8,2.9v0.4c0.3-0.4,0.7-0.8,1.2-1.1c0.5-0.3,1.1-0.5,1.7-0.5c1,0,1.8,0.3,2.4,0.9c0.6,0.6,1,1.4,1,2.4
			c0,0.9-0.3,1.7-1,2.4S200.6,19.2,199.5,19.2z M199.5,18c0.7,0,1.3-0.2,1.7-0.7c0.4-0.5,0.6-1,0.6-1.5c0-0.7-0.2-1.3-0.7-1.7
			c-0.4-0.4-1-0.6-1.7-0.6c-0.5,0-1,0.1-1.5,0.4s-0.8,0.7-1.1,1.1c0.1,0.8,0.3,1.4,0.7,2C198,17.8,198.6,18,199.5,18z"/>
		<path class="st2" d="M213.8,19h-1.6l-3.3-4.4l-3.3,4.4h-1.6l4-5.3l-3.8-5h1.6l3.1,4.1l3.1-4.1h1.6l-3.8,5L213.8,19z"/>
		<path class="st2" d="M218.1,19.2c-0.8,0-1.6-0.2-2.2-0.5c-0.6-0.3-1.1-0.7-1.5-1.2l0.8-0.8c0.3,0.4,0.7,0.7,1.2,1
			c0.5,0.2,1.1,0.4,1.7,0.4c0.7,0,1.3-0.2,1.8-0.5c0.4-0.4,0.7-0.8,0.7-1.4c0-0.6-0.2-1.1-0.7-1.4c-0.5-0.3-1.1-0.4-1.9-0.4
			c-0.6,0-1,0-1.1,0v-1.2c0.1,0,0.5,0,1.1,0c0.7,0,1.3-0.1,1.7-0.4c0.5-0.3,0.7-0.7,0.7-1.3c0-0.5-0.2-1-0.7-1.3
			c-0.4-0.3-1-0.5-1.7-0.5c-1,0-2,0.4-2.7,1.3l-0.7-0.8c0.9-1.1,2.1-1.6,3.5-1.6c1,0,1.9,0.2,2.5,0.7c0.7,0.5,1,1.2,1,2
			c0,0.7-0.2,1.2-0.7,1.6c-0.5,0.4-1,0.7-1.5,0.8c0.6,0.1,1.1,0.3,1.6,0.8s0.8,1,0.8,1.8c0,0.9-0.3,1.6-1,2.1
			C220.1,18.9,219.2,19.2,218.1,19.2z"/>
	</g>
</g>
<g id="pandora" transform="translate(-106 -713.85)">
	<g id="pandora_novo" transform="translate(200.275 713.85)">
		<path id="Path_9" class="st3" d="M28.1,79.6c-0.1,1.8-1.7,3.2-3.5,3.1c-1.8-0.1-3.2-1.7-3.1-3.5c0.1-1.7,1.5-3.1,3.3-3.1
			C26.7,76.2,28.2,77.7,28.1,79.6z"/>
	</g>
	<rect id="Rectangle_45" x="106" y="734" class="st4" width="94" height="26"/>
</g>
<polygon class="st1" points="101.6,50.6 114.9,70 113.3,49.3 "/>
</svg>
