<svg xmlns="http://www.w3.org/2000/svg" width="120" height="95.826" viewBox="0 0 54.33 27.82"><defs><style>.cls-1{fill:#676d81;}.cls-2{fill:#fff;}.cls-3{fill:#681758;}.cls-4{fill:#2d314e;}</style></defs><g id="Layer_2" data-name="Layer 2"><g id="Layer_1-2" data-name="Layer 1"><rect class="cls-1" x="12.33" y="6" width="42" height="12.24" rx="2.38"/><path class="cls-2" d="M23.05,14.17v-3.5H24.8a1.13,1.13,0,1,1,0,2.25h-.95v1.25Zm2.2-2.37c0-.3-.25-.47-.56-.47h-.84v.94h.84A.5.5,0,0,0,25.25,11.8Z"/><path class="cls-2" d="M29.19,14.17,29,13.58H27.35l-.23.59h-.91l1.44-3.5h1l1.45,3.5Zm-1-2.75-.58,1.5h1.17Z"/><path class="cls-2" d="M33.07,14.17l-1.78-2.28v2.28h-.8v-3.5h.82l1.74,2.2v-2.2h.79v3.5Z"/><path class="cls-2" d="M34.63,14.17v-3.5h1.48a1.76,1.76,0,1,1,0,3.5Zm2.65-1.75a1.05,1.05,0,0,0-1.17-1.09h-.68v2.19h.68A1.09,1.09,0,0,0,37.28,12.42Z"/><path class="cls-2" d="M38.53,12.42a2,2,0,1,1,2,1.82A1.82,1.82,0,0,1,38.53,12.42Zm3.09,0a1.14,1.14,0,1,0-1.13,1.15A1.09,1.09,0,0,0,41.62,12.42Z"/><path class="cls-2" d="M45.17,14.17l-.74-1.24h-.58v1.24h-.8v-3.5H44.8a1.14,1.14,0,0,1,1.27,1.13,1,1,0,0,1-.83,1l.85,1.33Zm.08-2.38c0-.29-.25-.46-.56-.46h-.84v.94h.84A.5.5,0,0,0,45.25,11.79Z"/><path class="cls-2" d="M49.3,14.17l-.24-.59H47.45l-.23.59h-.91l1.45-3.5h1l1.44,3.5Zm-1-2.75-.59,1.5h1.17Z"/><rect class="cls-3" x="1.8" y="3.77" width="16.7" height="16.7" rx="4" transform="translate(-5.6 10.73) rotate(-45)"/><path class="cls-2" d="M4.79,15V14c2.6-1.92,3.36-2.57,3.36-3.35,0-.56-.5-.83-1-.83a2.29,2.29,0,0,0-1.7.73l-.77-.89a3.25,3.25,0,0,1,2.45-1,2.14,2.14,0,0,1,2.42,2c0,1.08-.89,2-2.54,3.23H9.57V15Z"/><path class="cls-2" d="M10.38,11.86c0-1.64.81-3.28,2.63-3.28s2.62,1.64,2.62,3.28-.81,3.28-2.62,3.28S10.38,13.49,10.38,11.86Zm3.87,0c0-1.17-.33-2.08-1.24-2.08s-1.25.91-1.25,2.08.34,2.08,1.25,2.08S14.25,13,14.25,11.86Z"/><path class="cls-4" d="M8.61,26.41A1.74,1.74,0,0,1,10,24.26a1.93,1.93,0,0,1,2.27,1.35,1.76,1.76,0,0,1-1.35,2.16,1.92,1.92,0,0,1-2.27-1.36"/><rect class="cls-3" x="32.33" width="22" height="8.28" rx="0.92"/><path class="cls-2" d="M37,4.28A2.08,2.08,0,0,1,39.13,2a2.19,2.19,0,0,1,1.38.45l-.45.72a1.26,1.26,0,0,0-.93-.35A1.18,1.18,0,0,0,38,4.08v.1a1.55,1.55,0,0,1,1.2-.57A1.45,1.45,0,0,1,40.76,5,1.61,1.61,0,0,1,39,6.54C37.54,6.54,37,5.51,37,4.28Zm2.8.79c0-.46-.43-.66-.87-.66a1.21,1.21,0,0,0-.92.42.9.9,0,0,0,.95.88C39.45,5.71,39.75,5.37,39.75,5.07Z"/><path class="cls-2" d="M44.55,6.46l-1.17-1.6L42.2,6.46H41l1.7-2.24L41.12,2.08H42.3l1.08,1.5,1.06-1.5h1.2L44,4.21l1.7,2.25Z"/><path class="cls-2" d="M45.92,5.84l.52-.63a1.89,1.89,0,0,0,1.29.5c.57,0,.88-.23.88-.56s-.29-.5-.94-.5h-.58V3.82h.58c.52,0,.87-.15.87-.47s-.38-.52-.87-.52a1.74,1.74,0,0,0-1.19.46L46,2.71A2.38,2.38,0,0,1,47.77,2c1.1,0,1.77.46,1.77,1.19a1.1,1.1,0,0,1-1,1,1.15,1.15,0,0,1,1.1,1c0,.76-.72,1.29-1.85,1.29A2.43,2.43,0,0,1,45.92,5.84Z"/></g></g></svg>