<?xml version="1.0" encoding="utf-8"?>
<!-- Generator: Adobe Illustrator 25.2.3, SVG Export Plug-In . SVG Version: 6.00 Build 0)  -->
<svg version="1.1" id="Layer_1" xmlns="http://www.w3.org/2000/svg" width="149.574" height="75.317" xmlns:xlink="http://www.w3.org/1999/xlink" x="0px" y="0px"
	 viewBox="0 0 149.6 75.3" style="enable-background:new 0 0 149.6 75.3;" xml:space="preserve">
<style type="text/css">
	.st0{opacity:0.92;fill:#2D314E;enable-background:new    ;}
	.st1{fill:#E84D46;}
	.st2{fill:#DCC020;}
	.st3{fill:#D0D09B;}
	.st4{fill:#FFFFFF;stroke:#FFFFFF;stroke-width:0.7;stroke-miterlimit:9.9983;}
	.st5{fill:#FFFFFF;}
	.st6{fill:#002C46;}
	.st7{fill:#002C46;stroke:#002C46;stroke-width:0.5;stroke-miterlimit:9.9983;}
</style>
<g id="_24_julho_novo" transform="translate(200.275 451.873)">
	<path id="Path_11" class="st0" d="M-124-382.7c-0.1,1.9-1.7,3.3-3.6,3.2c-1.9-0.1-3.3-1.7-3.2-3.6c0.1-1.8,1.6-3.2,3.4-3.2
		C-125.4-386.2-123.9-384.6-124-382.7z"/>
</g>
<rect x="37.4" y="30.5" class="st1" width="30.5" height="22.3"/>
<g>
	<rect x="114.8" y="15.4" class="st1" width="34.7" height="15.1"/>
</g>
<g>
	<rect x="67.9" y="15.4" class="st2" width="47.5" height="15.1"/>
</g>
<rect x="67.9" y="30.5" class="st3" width="81.7" height="22.3"/>
<polygon class="st1" points="37.4,52.9 64.8,64 45.9,52.1 "/>
<g>
	<path class="st4" d="M48.7,46.1c-0.6,0-1-0.1-1.5-0.4c-0.4-0.3-0.8-0.6-1-1c-0.3-0.5-0.5-0.9-0.6-1.4c-0.1-0.6-0.2-1-0.2-1.6
		c0-0.6,0.1-1,0.2-1.6c0.1-0.6,0.3-1,0.6-1.4s0.6-0.8,1-1c0.4-0.3,0.9-0.4,1.5-0.4c0.6,0,1,0.1,1.5,0.4c0.4,0.3,0.8,0.6,1,1
		s0.5,0.9,0.6,1.4s0.2,1,0.2,1.6s-0.1,1-0.2,1.6c-0.1,0.6-0.3,1-0.6,1.4c-0.3,0.4-0.6,0.8-1,1S49.3,46.1,48.7,46.1z M47.4,44.6
		c0.4,0.4,0.8,0.6,1.3,0.6c0.6,0,0.9-0.2,1.3-0.6c0.4-0.4,0.6-0.8,0.8-1.3c0.1-0.6,0.2-1,0.2-1.7c0-0.7-0.1-1.2-0.2-1.7
		c-0.1-0.6-0.4-0.9-0.8-1.3c-0.4-0.4-0.8-0.6-1.3-0.6s-0.9,0.2-1.3,0.6c-0.4,0.4-0.6,0.8-0.8,1.3c-0.1,0.6-0.2,1-0.2,1.7
		c0,0.7,0.1,1.2,0.2,1.7C46.8,43.9,47.1,44.3,47.4,44.6z"/>
	<path class="st4" d="M59.4,46h-6v-0.9c1.8-1.3,3-2.5,3.8-3.2c0.8-0.8,1-1.5,1-2.2c0-0.6-0.2-0.9-0.6-1.2c-0.4-0.3-0.8-0.4-1.3-0.4
		c-1,0-1.8,0.4-2.4,1l-0.7-0.8c0.4-0.4,0.8-0.8,1.3-1c0.6-0.3,1.1-0.4,1.7-0.4c0.8,0,1.5,0.3,2.1,0.7c0.6,0.4,0.9,1,0.9,1.9
		s-0.4,1.6-1,2.5c-0.8,0.9-1.8,1.8-3.2,2.9h4.3L59.4,46L59.4,46z"/>
</g>
<g>
	<path class="st5" d="M126.2,27c-0.6,0.4-1.4,0.7-2.3,0.7c-1,0-1.7-0.3-2.3-0.7c-0.6-0.4-1-1.1-1-1.8c0-0.6,0.2-1.1,0.6-1.5
		c0.4-0.4,1-0.7,1.6-0.9c-0.6-0.2-1.1-0.4-1.4-0.8c-0.4-0.4-0.6-0.8-0.6-1.4c0-0.8,0.4-1.3,1-1.8c0.6-0.5,1.3-0.6,2.2-0.6
		c0.9,0,1.6,0.2,2.2,0.6c0.6,0.4,1,1,1,1.8c0,0.5-0.2,1.1-0.6,1.4c-0.4,0.4-0.9,0.6-1.5,0.8c0.6,0.2,1.1,0.4,1.6,0.9
		c0.5,0.5,0.6,0.9,0.6,1.5C127.2,26,126.8,26.5,126.2,27z M123.9,26.7c0.6,0,1.1-0.2,1.5-0.4c0.4-0.3,0.6-0.7,0.6-1.1
		c0-0.4-0.2-0.7-0.4-1c-0.3-0.3-0.6-0.4-0.9-0.6c-0.3-0.1-0.5-0.2-0.8-0.2c-0.3,0-0.5,0.1-0.8,0.2c-0.3,0.1-0.6,0.4-0.9,0.6
		c-0.3,0.3-0.4,0.6-0.4,1c0,0.4,0.2,0.9,0.6,1.1C122.9,26.5,123.3,26.7,123.9,26.7z M123.9,22.4c0.2,0,0.4-0.1,0.5-0.2
		c0.2-0.1,0.4-0.2,0.6-0.3c0.3-0.1,0.4-0.3,0.6-0.4c0.2-0.2,0.2-0.4,0.2-0.7c0-0.4-0.2-0.8-0.5-1.1c-0.3-0.3-0.9-0.4-1.4-0.4
		c-0.5,0-1.1,0.2-1.4,0.4c-0.4,0.3-0.5,0.6-0.5,1.1c0,0.3,0.1,0.5,0.2,0.7s0.4,0.4,0.6,0.4c0.3,0.1,0.4,0.2,0.6,0.3
		C123.6,22.3,123.7,22.3,123.9,22.4z"/>
	<path class="st5" d="M136.6,27.5h-1.4l-2.9-3.9l-2.9,3.9H128l3.5-4.7l-3.4-4.4h1.4l2.7,3.6l2.7-3.6h1.4l-3.4,4.4L136.6,27.5z"/>
	<path class="st5" d="M141,27.7c-0.6,0-1.1-0.1-1.6-0.4c-0.4-0.3-0.8-0.6-1.1-1.1c-0.3-0.5-0.4-1-0.6-1.5c-0.2-0.5-0.2-1.1-0.2-1.8
		c0-1.3,0.4-2.5,1-3.4c0.6-0.9,1.6-1.3,2.7-1.3s1.9,0.4,2.6,1.1l-0.6,0.9c-0.5-0.6-1.1-1-1.9-1c-0.8,0-1.5,0.4-1.9,1.1
		c-0.4,0.7-0.7,1.6-0.7,2.6v0.4c0.3-0.4,0.6-0.7,1.1-1c0.4-0.3,1-0.4,1.5-0.4c0.9,0,1.6,0.3,2.1,0.8c0.5,0.5,0.9,1.2,0.9,2.1
		c0,0.8-0.3,1.5-0.9,2.1C142.7,27.5,142,27.7,141,27.7z M141,26.7c0.6,0,1.1-0.2,1.5-0.6c0.4-0.4,0.5-0.9,0.5-1.3
		c0-0.6-0.2-1.1-0.6-1.5c-0.4-0.4-0.9-0.5-1.5-0.5c-0.4,0-0.9,0.1-1.3,0.4s-0.7,0.6-1,1c0.1,0.7,0.3,1.2,0.6,1.8
		C139.7,26.5,140.2,26.7,141,26.7z"/>
</g>
<g>
	<path class="st6" d="M80.7,27.5h-1.1l-5.3-7.2v7.2h-1.1v-9.1h1.1l5.3,7.1v-7.1h1.1V27.5L80.7,27.5z"/>
	<path class="st6" d="M90.3,26.4c-0.9,0.9-1.9,1.3-3.3,1.3s-2.4-0.4-3.3-1.3c-0.9-0.9-1.2-2-1.2-3.4c0-1.4,0.4-2.5,1.2-3.4
		c0.9-0.9,1.9-1.3,3.3-1.3s2.4,0.4,3.3,1.3c0.9,0.9,1.2,2,1.2,3.4C91.5,24.3,91.1,25.5,90.3,26.4z M86.9,26.7c1,0,1.9-0.4,2.5-1.1
		c0.6-0.7,1-1.6,1-2.6c0-1.1-0.4-1.9-1-2.6c-0.6-0.7-1.4-1.1-2.5-1.1c-1,0-1.9,0.4-2.5,1.1c-0.6,0.7-0.9,1.6-0.9,2.6
		c0,1.1,0.3,1.9,0.9,2.6C85.2,26.4,86,26.7,86.9,26.7z"/>
	<path class="st6" d="M97.2,27.5h-1.4l-3.7-9.1h1.3l3.1,7.9l3.1-7.9h1.3L97.2,27.5z"/>
	<path class="st6" d="M109.2,26.4c-0.9,0.9-1.9,1.3-3.3,1.3c-1.4,0-2.4-0.4-3.3-1.3c-0.9-0.9-1.2-2-1.2-3.4c0-1.4,0.4-2.5,1.2-3.4
		c0.9-0.9,1.9-1.3,3.3-1.3c1.4,0,2.4,0.4,3.3,1.3c0.9,0.9,1.2,2,1.2,3.4C110.4,24.4,110,25.5,109.2,26.4z M105.9,26.7
		c1,0,1.9-0.4,2.5-1.1c0.6-0.7,1-1.6,1-2.6c0-1.1-0.4-1.9-1-2.6c-0.6-0.7-1.4-1.1-2.5-1.1c-1,0-1.9,0.4-2.5,1.1
		c-0.6,0.7-0.9,1.6-0.9,2.6c0,1.1,0.3,1.9,0.9,2.6C104.1,26.4,104.9,26.7,105.9,26.7z"/>
</g>
<g>
	<path class="st7" d="M77.2,46.2h-1.1v-9.1h3.7c0.9,0,1.6,0.3,2.1,0.8c0.5,0.5,0.8,1.1,0.8,1.9c0,0.8-0.3,1.4-0.8,1.9
		c-0.5,0.5-1.2,0.8-2.1,0.8h-2.6V46.2z M79.7,41.6c0.5,0,1-0.2,1.3-0.4c0.4-0.4,0.5-0.7,0.5-1.2c0-0.5-0.2-1-0.5-1.2
		c-0.4-0.3-0.8-0.5-1.3-0.5h-2.5v3.4L79.7,41.6L79.7,41.6z"/>
	<path class="st7" d="M85.3,46.2h-1.1v-9.1h3.7c0.9,0,1.6,0.3,2.1,0.8c0.5,0.5,0.8,1.1,0.8,1.9c0,0.8-0.3,1.4-0.8,1.9
		c-0.5,0.5-1.2,0.8-2.1,0.8h-2.6V46.2z M87.7,41.6c0.5,0,1-0.2,1.3-0.4c0.4-0.4,0.5-0.7,0.5-1.2c0-0.5-0.2-1-0.5-1.2
		c-0.4-0.4-0.8-0.5-1.3-0.5h-2.4v3.4L87.7,41.6L87.7,41.6z"/>
	<path class="st7" d="M100.1,46.4c-1.3,0-2.5-0.4-3.4-1.3c-0.9-0.9-1.3-2-1.3-3.4s0.4-2.6,1.3-3.4c0.9-0.9,2-1.3,3.4-1.3
		c1.5,0,2.6,0.6,3.4,1.8l-1,0.5c-0.3-0.4-0.6-0.7-1.1-1c-0.4-0.3-1-0.2-1.4-0.2c-1,0-1.9,0.4-2.6,1.1c-0.7,0.7-1,1.6-1,2.6
		c0,1.1,0.4,1.9,1,2.6c0.7,0.7,1.5,1.1,2.5,1.1c0.5,0,1-0.1,1.4-0.4c0.4-0.3,0.8-0.5,1.1-1l1,0.5C102.6,45.8,101.5,46.4,100.1,46.4z
		"/>
	<path class="st7" d="M106.1,46.2H105v-9.1h1.1V46.2z"/>
	<path class="st7" d="M114.9,46.2h-1.3l-2.3-3.6h-1.9v3.6h-1.1v-9.1h3.7c0.9,0,1.5,0.3,2,0.8s0.8,1.1,0.8,2c0,0.8-0.3,1.4-0.7,1.9
		c-0.4,0.4-1.1,0.7-1.7,0.8L114.9,46.2z M111.8,41.6c0.5,0,1-0.2,1.3-0.5c0.4-0.4,0.5-0.7,0.5-1.2s-0.2-1-0.5-1.2
		c-0.4-0.4-0.8-0.4-1.3-0.4h-2.4v3.5L111.8,41.6L111.8,41.6z"/>
	<path class="st7" d="M120.9,46.4c-1.3,0-2.5-0.4-3.4-1.3c-0.9-0.9-1.3-2-1.3-3.4s0.4-2.6,1.3-3.4c0.9-0.9,2-1.3,3.4-1.3
		c1.5,0,2.6,0.6,3.4,1.8l-1,0.5c-0.3-0.4-0.6-0.7-1.1-1c-0.4-0.3-1-0.4-1.4-0.4c-1,0-1.9,0.4-2.6,1.1c-0.7,0.7-1,1.6-1,2.6
		c0,1.1,0.4,1.9,1,2.6c0.7,0.7,1.5,1.1,2.5,1.1c0.5,0,1-0.1,1.4-0.4c0.4-0.3,0.8-0.5,1.1-1l1,0.5C123.5,45.8,122.3,46.4,120.9,46.4z
		"/>
	<path class="st7" d="M129.6,46.4c-1.2,0-2.1-0.4-2.7-1c-0.6-0.6-1-1.6-1-2.7v-5.6h1.1v5.6c0,0.9,0.3,1.5,0.7,2
		c0.4,0.5,1.1,0.7,1.9,0.7s1.5-0.3,1.9-0.7c0.4-0.4,0.7-1.1,0.7-2v-5.6h1.1v5.6c0,1.1-0.4,2-1,2.7C131.7,46.1,130.8,46.4,129.6,46.4
		z"/>
	<path class="st7" d="M138.4,46.4c-1.5,0-2.6-0.4-3.5-1.4l0.7-0.9c0.8,0.9,1.7,1.3,2.8,1.3c0.7,0,1.3-0.2,1.6-0.4
		c0.4-0.4,0.5-0.7,0.5-1.1c0-0.4-0.2-0.7-0.4-0.9c-0.3-0.3-0.6-0.4-1-0.5c-0.4-0.1-0.8-0.3-1.3-0.4c-0.4-0.2-0.9-0.3-1.3-0.4
		c-0.4-0.2-0.7-0.4-1-0.8c-0.3-0.4-0.4-0.8-0.4-1.3c0-0.7,0.3-1.3,0.9-1.9c0.6-0.4,1.3-0.7,2.3-0.7c1.3,0,2.4,0.4,3.3,1.3l-0.7,0.8
		c-0.6-0.7-1.5-1.1-2.6-1.1c-0.5,0-1,0.2-1.3,0.4c-0.4,0.3-0.5,0.6-0.5,1.1c0,0.4,0.2,0.6,0.4,0.8c0.3,0.2,0.6,0.4,1,0.4
		c0.4,0.1,0.8,0.3,1.3,0.4c0.5,0.1,0.9,0.4,1.3,0.4c0.4,0.1,0.7,0.4,1,0.8c0.3,0.4,0.4,0.8,0.4,1.3c0,0.7-0.3,1.4-0.8,1.9
		C140.3,46.1,139.5,46.4,138.4,46.4z"/>
</g>
</svg>
