<svg xmlns="http://www.w3.org/2000/svg" xmlns:xlink="http://www.w3.org/1999/xlink" width="140" height="95.826" viewBox="0 0 68.41 20.3"><defs><style>.cls-1{fill:none;}.cls-2{fill:#d0d09b;}.cls-3{fill:#002c46;}.cls-4{fill:#dcc020;}.cls-5{fill:#e84d46;}.cls-6{clip-path:url(#clip-path);}.cls-7{fill:#fff;}.cls-8{fill:#2d314e;}</style><clipPath id="clip-path"><rect class="cls-1" x="51.23" y="1.64" width="13" height="5"/></clipPath></defs><g id="Layer_2" data-name="Layer 2"><g id="Layer_1-2" data-name="Layer 1"><rect class="cls-2" x="14.41" y="8.06" width="54" height="12.24" rx="2.7"/><path class="cls-3" d="M31.93,15.8V12.29h1.75a1.14,1.14,0,1,1,0,2.26h-1V15.8Zm2.19-2.38a.49.49,0,0,0-.55-.47h-.84v.94h.84A.49.49,0,0,0,34.12,13.42Z"/><path class="cls-3" d="M35.48,15.8V12.29h1.76a1.14,1.14,0,1,1,0,2.26h-1V15.8Zm2.2-2.38a.5.5,0,0,0-.56-.47h-.84v.94h.84A.5.5,0,0,0,37.68,13.42Z"/><path class="cls-3" d="M40.35,14.05a1.85,1.85,0,0,1,2-1.81,1.72,1.72,0,0,1,1.56.85l-.69.32a1,1,0,0,0-.87-.51,1.15,1.15,0,1,0,0,2.3,1,1,0,0,0,.87-.51l.69.31a1.75,1.75,0,0,1-1.56.86A1.85,1.85,0,0,1,40.35,14.05Z"/><path class="cls-3" d="M44.43,15.8V12.29h.8V15.8Z"/><path class="cls-3" d="M48.13,15.8l-.73-1.25h-.59V15.8H46V12.29h1.75A1.14,1.14,0,0,1,49,13.42a1,1,0,0,1-.83,1l.85,1.34Zm.08-2.38a.5.5,0,0,0-.56-.47h-.84v1h.84A.5.5,0,0,0,48.21,13.42Z"/><path class="cls-3" d="M49.49,14.05a1.85,1.85,0,0,1,2-1.81,1.71,1.71,0,0,1,1.56.85l-.68.32a1,1,0,0,0-.88-.51,1.15,1.15,0,1,0,0,2.3,1,1,0,0,0,.88-.51l.68.31a1.74,1.74,0,0,1-1.56.86A1.85,1.85,0,0,1,49.49,14.05Z"/><path class="cls-3" d="M53.57,14.39v-2.1h.81v2.08a.79.79,0,0,0,.89.83.78.78,0,0,0,.87-.83V12.29H57v2.1c0,.87-.56,1.47-1.69,1.47S53.57,15.26,53.57,14.39Z"/><path class="cls-3" d="M57.48,15.3l.44-.58a1.71,1.71,0,0,0,1.19.48c.45,0,.65-.19.65-.39,0-.61-2.15-.19-2.15-1.5,0-.58.54-1.07,1.42-1.07a2.18,2.18,0,0,1,1.46.49l-.45.56A1.62,1.62,0,0,0,59,12.9c-.34,0-.53.14-.53.35,0,.55,2.15.18,2.15,1.49,0,.64-.5,1.12-1.5,1.12A2.28,2.28,0,0,1,57.48,15.3Z"/><rect class="cls-4" x="16.41" width="35" height="8.28" rx="1.78"/><path class="cls-3" d="M29.47,6.57,27.33,3.64V6.57h-.95V2.08h1L29.44,4.9V2.08h1V6.57Z"/><path class="cls-3" d="M31,4.32a2.35,2.35,0,0,1,4.69,0,2.35,2.35,0,0,1-4.69,0Zm3.7,0a1.36,1.36,0,1,0-2.72,0,1.36,1.36,0,1,0,2.72,0Z"/><path class="cls-3" d="M37.58,6.57,35.85,2.08h1.09l1.24,3.44,1.25-3.44h1.08L38.78,6.57Z"/><path class="cls-3" d="M40.66,4.32a2.35,2.35,0,0,1,4.69,0,2.35,2.35,0,0,1-4.69,0Zm3.71,0a1.37,1.37,0,1,0-2.73,0,1.37,1.37,0,1,0,2.73,0Z"/><rect class="cls-5" x="47.18" width="21.1" height="8.28" rx="1.39"/><g class="cls-6"><path class="cls-7" d="M51.47,5.32a1.28,1.28,0,0,1,1-1.12c-.52-.17-.93-.48-.93-1,0-.82.93-1.15,1.8-1.15s1.81.33,1.81,1.15c0,.55-.42.86-.93,1a1.3,1.3,0,0,1,1,1.12c0,.82-.89,1.22-1.88,1.22S51.47,6.14,51.47,5.32Zm2.75-.13c0-.36-.58-.53-.87-.57s-.87.21-.87.57.38.52.87.52S54.22,5.51,54.22,5.19Zm-.08-1.86c0-.31-.33-.49-.79-.49s-.79.18-.79.49.51.46.79.5S54.14,3.65,54.14,3.33Z"/><path class="cls-7" d="M59.05,6.46l-1.17-1.6L56.7,6.46H55.52l1.69-2.24L55.62,2.08h1.19l1.07,1.5,1.06-1.5h1.2L58.55,4.21l1.7,2.25Z"/><path class="cls-7" d="M60.52,4.28A2.08,2.08,0,0,1,62.7,2a2.22,2.22,0,0,1,1.39.45l-.45.72a1.27,1.27,0,0,0-.94-.35,1.18,1.18,0,0,0-1.17,1.24.34.34,0,0,0,0,.1,1.55,1.55,0,0,1,1.2-.57A1.45,1.45,0,0,1,64.34,5a1.61,1.61,0,0,1-1.8,1.5C61.12,6.54,60.52,5.51,60.52,4.28Zm2.8.79c0-.46-.42-.66-.86-.66a1.19,1.19,0,0,0-.92.42.9.9,0,0,0,1,.88C63,5.71,63.32,5.37,63.32,5.07Z"/></g><rect class="cls-5" x="8.25" y="1.8" width="16.7" height="16.7" rx="4" transform="translate(-2.32 14.71) rotate(-45)"/><path class="cls-7" d="M13.72,13.06V8.45L12.67,9.53l-.78-.81,2-2h1.18v6.35Z"/><path class="cls-7" d="M17.63,13.06V8.45L16.58,9.53l-.77-.81,2-2H19v6.35Z"/><path class="cls-8" d="M.06,10.44A1.74,1.74,0,0,1,1.41,8.29,1.93,1.93,0,0,1,3.68,9.64,1.75,1.75,0,0,1,2.33,11.8,1.91,1.91,0,0,1,.06,10.44"/></g></g></svg>