<?xml version="1.0" encoding="utf-8"?>
<!-- Generator: Adobe Illustrator 25.2.3, SVG Export Plug-In . SVG Version: 6.00 Build 0)  -->
<svg version="1.1" id="Layer_1" xmlns="http://www.w3.org/2000/svg" width="149.574" height="75.317" xmlns:xlink="http://www.w3.org/1999/xlink" x="0px" y="0px"
	 viewBox="0 0 149.6 75.3" style="enable-background:new 0 0 149.6 75.3;" xml:space="preserve">
<style type="text/css">
	.st0{opacity:0.92;fill:#2D314E;enable-background:new    ;}
	.st1{fill:#E84D46;}
	.st2{fill:#DCC020;}
	.st3{fill:#D0D09B;}
	.st4{fill:#002C46;}
	.st5{fill:#FFFFFF;}
</style>
<g id="_24_julho_novo" transform="translate(200.275 451.873)">
	<path id="Path_11" class="st0" d="M-124-382.7c-0.1,1.9-1.7,3.3-3.6,3.2c-1.9-0.1-3.3-1.7-3.2-3.6c0.1-1.8,1.6-3.2,3.4-3.2
		C-125.4-386.2-123.9-384.6-124-382.7z"/>
</g>
<rect x="22.9" y="27.5" class="st1" width="34.5" height="25.3"/>
<g>
	<rect x="110.6" y="10.4" class="st1" width="39.3" height="17.1"/>
</g>
<g>
	<rect x="57.4" y="10.4" class="st2" width="53.8" height="17.1"/>
</g>
<rect x="57.4" y="27.5" class="st3" width="92.6" height="25.3"/>
<g>
	<path class="st4" d="M69.2,44.8v-9.3h4.4c2,0,3.1,1.4,3.1,3s-1.1,3-3.1,3h-2.4v3.3H69.2L69.2,44.8z M74.7,38.5
		c0-0.8-0.6-1.3-1.4-1.3h-2.1v2.5h2.1C74,39.7,74.7,39.3,74.7,38.5z"/>
	<path class="st4" d="M78,44.8v-9.3h4.4c2,0,3.1,1.4,3.1,3s-1.1,3-3.1,3H80v3.3H78L78,44.8z M83.4,38.5c0-0.8-0.6-1.3-1.4-1.3h-2.1
		v2.5H82C82.9,39.7,83.4,39.3,83.4,38.5z"/>
	<path class="st4" d="M89.9,40.2c0-2.9,2.2-4.9,5-4.9c2,0,3.2,1.1,3.9,2.3L97,38.4c-0.3-0.7-1.1-1.4-2.1-1.4c-1.7,0-2.9,1.3-2.9,3
		c0,1.7,1.2,3,2.9,3c0.9,0,1.8-0.6,2.2-1.4l1.7,0.8c-0.6,1.2-1.8,2.3-3.9,2.3C92.1,45,89.9,43,89.9,40.2z"/>
	<path class="st4" d="M100,44.8v-9.3h2v9.4L100,44.8L100,44.8z"/>
	<path class="st4" d="M109.1,44.8l-1.8-3.3h-1.5v3.3h-2v-9.3h4.4c1.9,0,3.1,1.3,3.1,3c0,1.7-1,2.6-2,2.8l2.1,3.6L109.1,44.8
		L109.1,44.8z M109.3,38.4c0-0.7-0.6-1.3-1.4-1.3h-2.1v2.5h2.1C108.7,39.7,109.3,39.3,109.3,38.4z"/>
	<path class="st4" d="M112.5,40.2c0-2.9,2.2-4.9,5-4.9c2,0,3.2,1.1,3.9,2.3l-1.7,0.8c-0.4-0.7-1.2-1.4-2.2-1.4c-1.7,0-2.9,1.3-2.9,3
		c0,1.7,1.2,3,2.9,3c0.9,0,1.8-0.6,2.2-1.4l1.7,0.8c-0.6,1.2-1.8,2.3-3.9,2.3C114.6,45,112.5,43,112.5,40.2z"/>
	<path class="st4" d="M122.5,41.1v-5.6h2V41c0,1.3,0.7,2.2,2.2,2.2s2.2-0.9,2.2-2.2v-5.5h2v5.6c0,2.3-1.4,4-4.2,4
		C123.9,45,122.5,43.4,122.5,41.1z"/>
	<path class="st4" d="M132.2,43.5l1.1-1.6c0.6,0.6,1.7,1.3,2.9,1.3c1.1,0,1.7-0.5,1.7-1c0-1.7-5.4-0.5-5.4-4.1
		c0-1.6,1.4-2.9,3.6-2.9c1.5,0,2.8,0.5,3.7,1.3l-1.1,1.5c-0.7-0.7-1.7-1-2.8-1c-0.8,0-1.3,0.4-1.3,0.9c0,1.5,5.3,0.5,5.3,4
		c0,1.7-1.2,3-3.8,3C134.4,45,133.1,44.4,132.2,43.5z"/>
</g>
<g>
	<path class="st5" d="M117.6,21.3c0-1.2,0.9-2.1,2.1-2.5c-1.1-0.4-1.9-1.1-1.9-2.3c0-1.8,1.9-2.6,3.8-2.6c1.8,0,3.8,0.7,3.8,2.6
		c0,1.2-0.8,1.9-1.9,2.3c1.2,0.4,2.1,1.3,2.1,2.5c0,1.8-1.8,2.8-4,2.8C119.5,24,117.6,23.2,117.6,21.3z M123.3,20.9
		c0-0.8-1.2-1.2-1.8-1.3c-0.6,0.1-1.8,0.5-1.8,1.3c0,0.7,0.8,1.2,1.8,1.2S123.3,21.7,123.3,20.9z M123.1,16.8c0-0.7-0.7-1.1-1.7-1.1
		c-1,0-1.7,0.4-1.7,1.1s1.1,1,1.7,1.1C122.1,17.8,123.1,17.5,123.1,16.8z"/>
	<path class="st5" d="M133.4,23.8l-2.5-3.6l-2.5,3.6h-2.5l3.6-5.1l-3.3-4.8h2.5l2.2,3.4l2.2-3.4h2.5l-3.3,4.8l3.6,5.1
		C135.9,23.8,133.4,23.8,133.4,23.8z"/>
	<path class="st5" d="M136.3,18.9c0-2.9,1.7-5.1,4.6-5.1c1.2,0,2.2,0.4,2.9,1l-0.9,1.6c-0.6-0.5-1.1-0.7-1.9-0.7
		c-1.5,0-2.5,1.2-2.5,2.8c0,0.1,0,0.1,0,0.2c0.5-0.6,1.5-1.3,2.5-1.3c1.7,0,3.3,1.1,3.3,3.2c0,1.9-1.6,3.4-3.8,3.4
		C137.6,24,136.3,21.7,136.3,18.9z M142.2,20.7c0-1-0.9-1.5-1.8-1.5c-0.7,0-1.5,0.4-1.9,0.9c0.1,0.9,0.6,2,2,2
		C141.6,22.1,142.2,21.4,142.2,20.7z"/>
</g>
<g>
	<path class="st4" d="M72.4,23.8l-4.7-6.4v6.4h-2.1V14h2.1l4.5,6.2V14h2.1v9.9L72.4,23.8L72.4,23.8z"/>
	<path class="st4" d="M75.9,18.9c0-2.9,2.2-5.1,5.2-5.1c3,0,5.2,2.1,5.2,5.1S84,24,81.1,24C78,24,75.9,21.9,75.9,18.9z M84,18.9
		c0-1.8-1.2-3.2-2.9-3.2c-1.8,0-2.9,1.4-2.9,3.2s1.2,3.2,2.9,3.2C82.8,22.1,84,20.8,84,18.9z"/>
	<path class="st4" d="M90.1,23.8L86.3,14h2.4l2.8,7.6l2.8-7.6h2.4l-3.8,9.9L90.1,23.8L90.1,23.8z"/>
	<path class="st4" d="M96.6,18.9c0-2.9,2.2-5.1,5.2-5.1s5.2,2.1,5.2,5.1s-2.2,5.1-5.2,5.1S96.6,21.9,96.6,18.9z M104.7,18.9
		c0-1.8-1.2-3.2-2.9-3.2c-1.8,0-2.9,1.4-2.9,3.2s1.2,3.2,2.9,3.2C103.6,22.1,104.7,20.8,104.7,18.9z"/>
</g>
<polygon class="st1" points="22.9,52.8 62.8,64.2 37.9,51.4 "/>
<g>
	<path class="st5" d="M27.4,39.6c0-3.8,1.9-7.6,6.1-7.6c4.2,0,6.1,3.8,6.1,7.6s-1.9,7.6-6.1,7.6C29.2,47.2,27.4,43.4,27.4,39.6z
		 M36.3,39.6c0-2.7-0.8-4.8-2.9-4.8c-2.1,0-2.9,2.1-2.9,4.8s0.8,4.8,2.9,4.8C35.5,44.4,36.3,42.3,36.3,39.6z"/>
	<path class="st5" d="M41.3,46.9v-2.5c6-4.4,7.8-5.9,7.8-7.7c0-1.3-1.2-1.9-2.4-1.9c-1.7,0-2.9,0.7-3.9,1.7L41,34.4
		c1.4-1.7,3.6-2.4,5.7-2.4c3.1,0,5.6,1.8,5.6,4.7c0,2.5-2.1,4.7-5.9,7.5h6v2.8H41.3z"/>
</g>
</svg>
