<?xml version="1.0" encoding="utf-8"?>
<!-- Generator: Adobe Illustrator 25.2.3, SVG Export Plug-In . SVG Version: 6.00 Build 0)  -->
<svg version="1.1" id="Layer_1" xmlns="http://www.w3.org/2000/svg" width="149.574" height="75.317" xmlns:xlink="http://www.w3.org/1999/xlink" x="0px" y="0px"
	 viewBox="0 0 149.6 75.3" style="enable-background:new 0 0 149.6 75.3;" xml:space="preserve">
<style type="text/css">
	.st0{opacity:0.92;fill:#2D314E;enable-background:new    ;}
	.st1{fill:#E84D46;}
	.st2{fill:#DCC020;}
	.st3{fill:#D0D09B;}
	.st4{fill:#FFFFFF;}
	.st5{fill:#002C46;}
</style>
<g id="_24_julho_novo" transform="translate(200.275 451.873)">
	<path id="Path_11" class="st0" d="M-124-382.7c-0.1,1.9-1.7,3.3-3.6,3.2c-1.9-0.1-3.3-1.7-3.2-3.6c0.1-1.8,1.6-3.2,3.4-3.2
		C-125.4-386.2-123.9-384.6-124-382.7z"/>
</g>
<rect x="22.9" y="27.5" class="st1" width="34.5" height="25.3"/>
<g>
	<rect x="110.6" y="10.4" class="st1" width="39.3" height="17.1"/>
</g>
<g>
	<rect x="57.4" y="10.4" class="st2" width="53.8" height="17.1"/>
</g>
<rect x="57.4" y="27.5" class="st3" width="92.6" height="25.3"/>
<polygon class="st1" points="22.9,52.8 62.8,64.2 37.9,51.4 "/>
<g>
	<path class="st4" d="M33.7,47.7c-1,0-1.8-0.2-2.6-0.7c-0.7-0.4-1.3-1-1.8-1.8s-0.8-1.6-1-2.4c-0.2-0.9-0.3-1.8-0.3-2.7
		c0-0.9,0.1-1.8,0.3-2.7c0.2-0.9,0.5-1.7,1-2.4s1-1.3,1.8-1.8c0.7-0.4,1.6-0.7,2.6-0.7c1,0,1.8,0.2,2.6,0.7c0.7,0.4,1.3,1,1.8,1.8
		s0.8,1.5,1,2.4c0.2,0.9,0.3,1.8,0.3,2.7c0,0.9-0.1,1.8-0.3,2.7c-0.2,0.9-0.5,1.7-1,2.4s-1,1.3-1.8,1.8S34.6,47.7,33.7,47.7z
		 M31.5,45.2c0.6,0.6,1.3,0.9,2.2,0.9c0.9,0,1.6-0.3,2.2-0.9c0.6-0.6,1-1.3,1.2-2.2c0.2-0.9,0.3-1.8,0.3-2.9c0-1.1-0.1-2-0.3-2.9
		c-0.2-0.9-0.6-1.6-1.2-2.2c-0.6-0.6-1.3-0.9-2.2-0.9c-0.9,0-1.6,0.3-2.2,0.9c-0.6,0.6-1,1.3-1.2,2.2c-0.2,0.9-0.3,1.8-0.3,2.9
		c0,1.1,0.1,2,0.3,2.9C30.5,43.8,30.9,44.6,31.5,45.2z"/>
	<path class="st4" d="M51.7,47.4H41.6V46c3-2.3,5.1-4.2,6.3-5.4c1.2-1.3,1.8-2.5,1.8-3.7c0-0.9-0.3-1.5-0.9-2
		c-0.6-0.5-1.3-0.7-2.2-0.7c-1.7,0-3,0.6-4,1.8l-1.1-1.2c0.6-0.7,1.3-1.3,2.2-1.7c0.9-0.4,1.9-0.6,2.9-0.6c1.3,0,2.5,0.4,3.5,1.1
		c1,0.7,1.5,1.8,1.5,3.2c0,1.4-0.6,2.7-1.8,4.1c-1.2,1.4-3,3-5.4,4.9h7.2V47.4z"/>
</g>
<g>
	<path class="st4" d="M123.5,23.5c-0.7,0.5-1.6,0.8-2.6,0.8c-1.1,0-1.9-0.3-2.6-0.8c-0.7-0.5-1.1-1.2-1.1-2c0-0.7,0.2-1.2,0.7-1.7
		c0.5-0.5,1.1-0.8,1.8-1c-0.7-0.2-1.2-0.5-1.6-0.9c-0.4-0.4-0.7-0.9-0.7-1.6c0-0.9,0.4-1.5,1.1-2c0.7-0.5,1.5-0.7,2.5-0.7
		c1,0,1.8,0.2,2.5,0.7c0.7,0.5,1.1,1.1,1.1,2c0,0.6-0.2,1.2-0.7,1.6s-1,0.7-1.7,0.9c0.7,0.2,1.3,0.5,1.8,1c0.5,0.5,0.7,1,0.7,1.7
		C124.6,22.4,124.2,23,123.5,23.5z M120.9,23.2c0.7,0,1.2-0.2,1.7-0.5c0.5-0.3,0.7-0.8,0.7-1.3c0-0.4-0.2-0.8-0.5-1.1
		s-0.7-0.5-1-0.7c-0.3-0.1-0.6-0.2-0.9-0.2c-0.3,0-0.6,0.1-0.9,0.2c-0.3,0.1-0.7,0.4-1,0.7c-0.3,0.3-0.5,0.7-0.5,1.1
		c0,0.5,0.2,1,0.7,1.3C119.7,23,120.2,23.2,120.9,23.2z M120.9,18.3c0.2,0,0.4-0.1,0.6-0.2c0.2-0.1,0.5-0.2,0.7-0.3
		c0.3-0.1,0.5-0.3,0.7-0.5s0.2-0.5,0.2-0.8c0-0.5-0.2-0.9-0.6-1.2c-0.4-0.3-1-0.5-1.6-0.5s-1.2,0.2-1.6,0.5s-0.6,0.7-0.6,1.2
		c0,0.3,0.1,0.6,0.2,0.8s0.4,0.4,0.7,0.5c0.3,0.1,0.5,0.2,0.7,0.3C120.5,18.2,120.7,18.2,120.9,18.3z"/>
	<path class="st4" d="M135.3,24.1h-1.6l-3.3-4.4l-3.3,4.4h-1.6l4-5.3l-3.8-5h1.6l3.1,4.1l3.1-4.1h1.6l-3.8,5L135.3,24.1z"/>
	<path class="st4" d="M140.3,24.3c-0.7,0-1.3-0.1-1.8-0.4c-0.5-0.3-0.9-0.7-1.2-1.2s-0.5-1.1-0.7-1.7c-0.2-0.6-0.2-1.3-0.2-2
		c0-1.5,0.4-2.8,1.1-3.8c0.7-1,1.8-1.5,3.1-1.5c1.2,0,2.1,0.4,2.9,1.2l-0.7,1c-0.6-0.7-1.3-1.1-2.2-1.1c-0.9,0-1.7,0.4-2.2,1.2
		c-0.5,0.8-0.8,1.8-0.8,2.9v0.4c0.3-0.4,0.7-0.8,1.2-1.1c0.5-0.3,1.1-0.5,1.7-0.5c1,0,1.8,0.3,2.4,0.9c0.6,0.6,1,1.4,1,2.4
		c0,0.9-0.3,1.7-1,2.4S141.4,24.3,140.3,24.3z M140.2,23.2c0.7,0,1.3-0.2,1.7-0.7c0.4-0.5,0.6-1,0.6-1.5c0-0.7-0.2-1.3-0.7-1.7
		s-1-0.6-1.7-0.6c-0.5,0-1,0.1-1.5,0.4s-0.8,0.7-1.1,1.1c0.1,0.8,0.3,1.4,0.7,2C138.8,22.9,139.4,23.2,140.2,23.2z"/>
</g>
<g>
	<path class="st5" d="M71.9,24.1h-1.2l-6-8.2v8.2h-1.3V13.8h1.3l6,8.1v-8.1h1.3V24.1z"/>
	<path class="st5" d="M82.8,22.8c-1,1-2.2,1.5-3.7,1.5s-2.7-0.5-3.7-1.5c-1-1-1.4-2.3-1.4-3.8c0-1.5,0.5-2.8,1.4-3.8
		c1-1,2.2-1.5,3.7-1.5s2.7,0.5,3.7,1.5c1,1,1.4,2.3,1.4,3.8C84.2,20.5,83.7,21.8,82.8,22.8z M79,23.2c1.1,0,2.1-0.4,2.8-1.2
		c0.7-0.8,1.1-1.8,1.1-3c0-1.2-0.4-2.2-1.1-3c-0.7-0.8-1.6-1.2-2.8-1.2c-1.1,0-2.1,0.4-2.8,1.2c-0.7,0.8-1,1.8-1,3
		c0,1.2,0.3,2.2,1,3C77,22.8,77.9,23.2,79,23.2z"/>
	<path class="st5" d="M90.6,24.1H89l-4.2-10.3h1.5l3.5,8.9l3.5-8.9h1.5L90.6,24.1z"/>
	<path class="st5" d="M104.2,22.8c-1,1-2.2,1.5-3.7,1.5s-2.7-0.5-3.7-1.5c-1-1-1.4-2.3-1.4-3.8c0-1.5,0.5-2.8,1.4-3.8
		c1-1,2.2-1.5,3.7-1.5s2.7,0.5,3.7,1.5c1,1,1.4,2.3,1.4,3.8C105.6,20.5,105.1,21.8,104.2,22.8z M100.5,23.2c1.1,0,2.1-0.4,2.8-1.2
		c0.7-0.8,1.1-1.8,1.1-3c0-1.2-0.4-2.2-1.1-3c-0.7-0.8-1.6-1.2-2.8-1.2c-1.1,0-2.1,0.4-2.8,1.2c-0.7,0.8-1,1.8-1,3
		c0,1.2,0.3,2.2,1,3C98.4,22.8,99.3,23.2,100.5,23.2z"/>
</g>
<g>
	<path class="st5" d="M68,45.3h-1.3V35h4.2c1,0,1.8,0.3,2.4,0.9c0.6,0.6,0.9,1.3,0.9,2.2c0,0.9-0.3,1.6-0.9,2.2
		c-0.6,0.6-1.4,0.9-2.4,0.9H68V45.3z M70.8,40.1c0.6,0,1.1-0.2,1.5-0.5c0.4-0.4,0.6-0.8,0.6-1.4c0-0.6-0.2-1.1-0.6-1.4
		s-0.9-0.6-1.5-0.6H68v3.9H70.8z"/>
	<path class="st5" d="M77.1,45.3h-1.3V35H80c1,0,1.8,0.3,2.4,0.9c0.6,0.6,0.9,1.3,0.9,2.2c0,0.9-0.3,1.6-0.9,2.2
		c-0.6,0.6-1.4,0.9-2.4,0.9h-2.9V45.3z M79.9,40.1c0.6,0,1.1-0.2,1.5-0.5c0.4-0.4,0.6-0.8,0.6-1.4c0-0.6-0.2-1.1-0.6-1.4
		c-0.4-0.4-0.9-0.6-1.5-0.6h-2.7v3.9H79.9z"/>
	<path class="st5" d="M93.9,45.5c-1.5,0-2.8-0.5-3.8-1.5s-1.5-2.3-1.5-3.9c0-1.6,0.5-2.9,1.5-3.9s2.3-1.5,3.8-1.5c1.7,0,3,0.7,3.9,2
		l-1.1,0.6c-0.3-0.5-0.7-0.8-1.2-1.1S94.4,36,93.9,36c-1.1,0-2.1,0.4-2.9,1.2c-0.8,0.8-1.1,1.8-1.1,3c0,1.2,0.4,2.2,1.1,3
		c0.8,0.8,1.7,1.2,2.8,1.2c0.6,0,1.1-0.1,1.6-0.4c0.5-0.3,0.9-0.6,1.2-1.1l1.1,0.6C96.8,44.8,95.5,45.5,93.9,45.5z"/>
	<path class="st5" d="M100.7,45.3h-1.3V35h1.3V45.3z"/>
	<path class="st5" d="M110.7,45.3h-1.5l-2.6-4.1h-2.1v4.1h-1.3V35h4.2c1,0,1.7,0.3,2.3,0.9s0.9,1.3,0.9,2.3c0,0.9-0.3,1.6-0.8,2.1
		s-1.2,0.8-1.9,0.9L110.7,45.3z M107.2,40.1c0.6,0,1.1-0.2,1.5-0.6c0.4-0.4,0.6-0.8,0.6-1.4c0-0.6-0.2-1.1-0.6-1.4
		c-0.4-0.4-0.9-0.5-1.5-0.5h-2.7v4H107.2z"/>
	<path class="st5" d="M117.5,45.5c-1.5,0-2.8-0.5-3.8-1.5s-1.5-2.3-1.5-3.9c0-1.6,0.5-2.9,1.5-3.9s2.3-1.5,3.8-1.5
		c1.7,0,3,0.7,3.9,2l-1.1,0.6c-0.3-0.5-0.7-0.8-1.2-1.1s-1.1-0.4-1.6-0.4c-1.1,0-2.1,0.4-2.9,1.2c-0.8,0.8-1.1,1.8-1.1,3
		c0,1.2,0.4,2.2,1.1,3c0.8,0.8,1.7,1.2,2.8,1.2c0.6,0,1.1-0.1,1.6-0.4c0.5-0.3,0.9-0.6,1.2-1.1l1.1,0.6
		C120.4,44.8,119.1,45.5,117.5,45.5z"/>
	<path class="st5" d="M127.3,45.5c-1.4,0-2.4-0.4-3.1-1.1s-1.1-1.8-1.1-3.1V35h1.3v6.3c0,1,0.3,1.7,0.8,2.3s1.2,0.8,2.2,0.8
		s1.7-0.3,2.2-0.8c0.5-0.5,0.8-1.3,0.8-2.3V35h1.3v6.3c0,1.3-0.4,2.3-1.1,3.1S128.7,45.5,127.3,45.5z"/>
	<path class="st5" d="M137.3,45.5c-1.7,0-3-0.5-4-1.6l0.8-1c0.9,1,1.9,1.5,3.2,1.5c0.8,0,1.5-0.2,1.8-0.5c0.4-0.4,0.6-0.8,0.6-1.3
		c0-0.4-0.2-0.8-0.5-1c-0.3-0.3-0.7-0.5-1.1-0.6s-0.9-0.3-1.5-0.4c-0.5-0.2-1-0.3-1.5-0.5c-0.4-0.2-0.8-0.5-1.1-0.9
		c-0.3-0.4-0.5-0.9-0.5-1.5c0-0.8,0.3-1.5,1-2.1c0.7-0.5,1.5-0.8,2.6-0.8c1.5,0,2.7,0.5,3.7,1.5l-0.8,0.9c-0.7-0.8-1.7-1.2-3-1.2
		c-0.6,0-1.1,0.2-1.5,0.5c-0.4,0.3-0.6,0.7-0.6,1.2c0,0.4,0.2,0.7,0.5,0.9c0.3,0.2,0.7,0.4,1.1,0.5c0.5,0.1,0.9,0.3,1.5,0.4
		s1,0.4,1.5,0.5s0.8,0.5,1.1,0.9c0.3,0.4,0.5,0.9,0.5,1.5c0,0.8-0.3,1.6-0.9,2.1C139.5,45.2,138.6,45.5,137.3,45.5z"/>
</g>
</svg>
