<?xml version="1.0" encoding="utf-8"?>
<!-- Generator: Adobe Illustrator 25.2.3, SVG Export Plug-In . SVG Version: 6.00 Build 0)  -->
<svg version="1.1" id="Layer_1" xmlns="http://www.w3.org/2000/svg" width="217.851" height="96.502" xmlns:xlink="http://www.w3.org/1999/xlink" x="0px" y="0px"
	 viewBox="0 0 217.9 96.5" style="enable-background:new 0 0 217.9 96.5;" xml:space="preserve">
<style type="text/css">
	.st0{fill:none;}
	.st1{fill:#E84D46;}
	.st2{fill:#676D81;}
	.st3{fill:#FFFFFF;}
	.st4{opacity:0.92;fill:#2D314E;enable-background:new    ;}
</style>
<g id="polana" transform="translate(-465 -805.847)">
	<rect id="Rectangle_47" x="465" y="849" class="st0" width="84" height="11"/>
</g>
<rect x="81.4" y="23.2" class="st1" width="37.5" height="27.5"/>
<g>
	<rect x="163.5" y="4.6" class="st1" width="54.8" height="18.6"/>
</g>
<rect x="118.9" y="23.2" class="st2" width="99.4" height="27.5"/>
<g>
	<path class="st3" d="M132.1,42.1V31.9h4.8c2.2,0,3.4,1.5,3.4,3.3s-1.2,3.3-3.4,3.3h-2.6v3.6H132.1z M138,35.2
		c0-0.9-0.7-1.4-1.5-1.4h-2.3v2.7h2.3C137.4,36.5,138,36,138,35.2z"/>
	<path class="st3" d="M141.1,37c0-3.1,2.2-5.3,5.3-5.3s5.3,2.2,5.3,5.3c0,3.1-2.2,5.3-5.3,5.3C143.3,42.2,141.1,40.1,141.1,37z
		 M149.5,37c0-1.9-1.2-3.3-3.1-3.3c-1.9,0-3.1,1.4-3.1,3.3c0,1.9,1.2,3.3,3.1,3.3S149.5,38.9,149.5,37z"/>
	<path class="st3" d="M153.2,42.1V31.9h2.2v8.3h4.3v1.9C159.7,42.1,153.2,42.1,153.2,42.1z"/>
	<path class="st3" d="M168.1,42.1l-0.6-1.7h-4.4l-0.6,1.7H160l3.9-10.2h2.7l3.9,10.2H168.1z M165.3,34.1l-1.6,4.4h3.2L165.3,34.1z"
		/>
	<path class="st3" d="M178.5,42.1l-4.8-6.6v6.6h-2.2V31.9h2.2l4.7,6.4v-6.4h2.2v10.2H178.5z"/>
	<path class="st3" d="M189.7,42.1l-0.6-1.7h-4.4l-0.6,1.7h-2.5l3.9-10.2h2.7l3.9,10.2H189.7z M186.8,34.1l-1.6,4.4h3.2L186.8,34.1z"
		/>
	<path class="st3" d="M197,42.1V31.9h5.4c1.9,0,2.9,1.2,2.9,2.6c0,1.3-0.8,2.1-1.8,2.3c1.1,0.2,2,1.2,2,2.5c0,1.5-1,2.8-3,2.8H197z
		 M203,34.9c0-0.6-0.5-1.1-1.2-1.1h-2.7v2.1h2.7C202.6,35.9,203,35.5,203,34.9z M203.2,39c0-0.6-0.5-1.2-1.3-1.2h-2.8v2.3h2.8
		C202.7,40.2,203.2,39.7,203.2,39z"/>
</g>
<g>
	<path class="st3" d="M176.5,13.9c0-3.2,1.8-5.5,5-5.5c1.3,0,2.4,0.4,3.2,1.1l-1,1.7c-0.6-0.5-1.2-0.8-2.1-0.8c-1.6,0-2.7,1.3-2.7,3
		c0,0.1,0,0.1,0,0.2c0.5-0.7,1.6-1.4,2.7-1.4c1.9,0,3.6,1.2,3.6,3.5c0,2.1-1.7,3.7-4.1,3.7C177.9,19.4,176.5,17,176.5,13.9z
		 M182.9,15.9c0-1.1-1-1.6-2-1.6c-0.8,0-1.6,0.4-2.1,1c0.1,1,0.7,2.2,2.2,2.2C182.2,17.4,182.9,16.6,182.9,15.9z"/>
	<path class="st3" d="M193.7,19.3l-2.7-3.9l-2.7,3.9h-2.7l3.9-5.5l-3.6-5.2h2.7l2.4,3.7l2.4-3.7h2.7l-3.6,5.2l3.9,5.5H193.7z"/>
	<path class="st3" d="M196.7,17.7l1.2-1.5c0.7,0.8,1.9,1.2,2.9,1.2c1.3,0,2-0.6,2-1.4c0-0.8-0.7-1.2-2.1-1.2c-0.4,0-1.2,0-1.3,0v-2
		c0.2,0,0.9,0,1.3,0c1.2,0,2-0.4,2-1.1c0-0.8-0.9-1.3-2-1.3c-1,0-2,0.4-2.7,1.1l-1.1-1.4c0.9-1,2.2-1.7,4.1-1.7c2.5,0,4,1.1,4,2.9
		c0,1.3-1.2,2.2-2.3,2.4c1.1,0.1,2.5,1,2.5,2.6c0,1.8-1.6,3.1-4.2,3.1C199,19.4,197.5,18.7,196.7,17.7z"/>
</g>
<g>
	<rect x="118.9" y="52.2" class="st2" width="99.2" height="27.5"/>
</g>
<rect x="81.4" y="52.2" class="st1" width="37.5" height="27.5"/>
<g>
	<path class="st3" d="M131.9,71.1V60.9h4.8c2.2,0,3.4,1.5,3.4,3.3s-1.2,3.3-3.4,3.3h-2.6v3.6C134.1,71.1,131.9,71.1,131.9,71.1z
		 M137.9,64.2c0-0.9-0.7-1.4-1.5-1.4h-2.3v2.7h2.3C137.2,65.5,137.9,65,137.9,64.2z"/>
	<path class="st3" d="M140.9,66c0-3.1,2.2-5.3,5.3-5.3s5.3,2.2,5.3,5.3c0,3.1-2.2,5.3-5.3,5.3C143.2,71.2,140.9,69,140.9,66z
		 M149.3,66c0-1.9-1.2-3.3-3.1-3.3c-1.9,0-3.1,1.4-3.1,3.3s1.2,3.3,3.1,3.3S149.3,67.9,149.3,66z"/>
	<path class="st3" d="M153,71.1V60.9h2.2v8.3h4.3v1.9C159.5,71.1,153,71.1,153,71.1z"/>
	<path class="st3" d="M168,71.1l-0.6-1.7H163l-0.6,1.7h-2.5l3.9-10.2h2.7l3.9,10.2H168z M165.1,63.1l-1.6,4.4h3.2L165.1,63.1z"/>
	<path class="st3" d="M178.4,71.1l-4.8-6.6v6.6h-2.2V60.9h2.2l4.7,6.4v-6.4h2.2v10.2H178.4z"/>
	<path class="st3" d="M189.5,71.1l-0.6-1.7h-4.4l-0.6,1.7h-2.5l3.9-10.2h2.7l3.9,10.2H189.5z M186.7,63.1l-1.6,4.4h3.2L186.7,63.1z"
		/>
	<path class="st3" d="M203.8,71.1l-0.6-1.7h-4.4l-0.6,1.7h-2.5l3.9-10.2h2.7l3.9,10.2H203.8z M201,63.1l-1.6,4.4h3.2L201,63.1z"/>
</g>
<g id="_24_julho_novo" transform="translate(200.275 451.873)">
	<path id="Path_11" class="st4" d="M-87.3-358.6c-0.1,1.9-1.7,3.3-3.6,3.2c-1.9-0.1-3.3-1.7-3.2-3.6c0.1-1.8,1.6-3.2,3.4-3.2
		C-88.7-362.1-87.2-360.5-87.3-358.6z"/>
</g>
<polygon class="st1" points="81.4,79.7 103.4,88.6 92.4,77.4 "/>
<g>
	<path class="st3" d="M95.6,45.1V34.5L93.2,37l-1.8-1.9l4.6-4.6h2.7v14.7H95.6z"/>
	<path class="st3" d="M104.7,45.1V34.5l-2.4,2.5l-1.8-1.9l4.6-4.6h2.7v14.7H104.7z"/>
</g>
<g>
	<path class="st3" d="M93,72.6V62l-2.4,2.5l-1.8-1.9l4.6-4.6h2.7v14.7H93z"/>
	<path class="st3" d="M98.3,65.3c0-3.8,1.9-7.6,6.1-7.6c4.2,0,6.1,3.8,6.1,7.6s-1.9,7.6-6.1,7.6C100.2,72.9,98.3,69.1,98.3,65.3z
		 M107.3,65.3c0-2.7-0.8-4.8-2.9-4.8c-2.1,0-2.9,2.1-2.9,4.8s0.8,4.8,2.9,4.8C106.5,70.1,107.3,68,107.3,65.3z"/>
</g>
</svg>
