<?xml version="1.0" encoding="utf-8"?>
<!-- Generator: Adobe Illustrator 25.2.3, SVG Export Plug-In . SVG Version: 6.00 Build 0)  -->
<svg version="1.1" id="Layer_1" xmlns="http://www.w3.org/2000/svg" width="217.851" height="96.502" xmlns:xlink="http://www.w3.org/1999/xlink" x="0px" y="0px"
	 viewBox="0 0 217.9 96.5" style="enable-background:new 0 0 217.9 96.5;" xml:space="preserve">
<style type="text/css">
	.st0{fill:none;}
	.st1{fill:#E84D46;}
	.st2{fill:#676D81;}
	.st3{opacity:0.92;fill:#2D314E;enable-background:new    ;}
	.st4{fill:#FFFFFF;}
</style>
<g id="polana" transform="translate(-465 -805.847)">
	<rect id="Rectangle_47" x="465" y="849" class="st0" width="84" height="11"/>
</g>
<rect x="81.4" y="23.2" class="st1" width="37.5" height="27.5"/>
<g>
	<rect x="163.5" y="4.6" class="st1" width="54.8" height="18.6"/>
</g>
<rect x="118.9" y="23.2" class="st2" width="99.4" height="27.5"/>
<g>
	<rect x="118.9" y="52.2" class="st2" width="99.2" height="27.5"/>
</g>
<rect x="81.4" y="52.2" class="st1" width="37.5" height="27.5"/>
<g id="_24_julho_novo" transform="translate(200.275 451.873)">
	<path id="Path_11" class="st3" d="M-87.3-358.6c-0.1,1.9-1.7,3.3-3.6,3.2c-1.9-0.1-3.3-1.7-3.2-3.6c0.1-1.8,1.6-3.2,3.4-3.2
		C-88.7-362.1-87.2-360.5-87.3-358.6z"/>
</g>
<polygon class="st1" points="81.4,79.7 103.4,88.6 92.4,77.4 "/>
<g>
	<path class="st4" d="M98.4,44.3h-1.8V32l-2.4,2.5l-1.1-1.1l3.7-3.8h1.6V44.3z"/>
	<path class="st4" d="M105.9,44.3H104V32l-2.4,2.5l-1.1-1.1l3.7-3.8h1.6V44.3z"/>
</g>
<g>
	<path class="st4" d="M181.7,19.3c-0.7,0-1.3-0.1-1.8-0.4c-0.5-0.3-0.9-0.7-1.2-1.2s-0.5-1.1-0.7-1.7c-0.2-0.6-0.2-1.3-0.2-2
		c0-1.5,0.4-2.8,1.1-3.8s1.8-1.5,3.1-1.5c1.2,0,2.1,0.4,2.9,1.2l-0.7,1c-0.6-0.7-1.3-1.1-2.2-1.1c-0.9,0-1.7,0.4-2.2,1.2
		s-0.8,1.8-0.8,2.9v0.4c0.3-0.4,0.7-0.8,1.2-1.1c0.5-0.3,1.1-0.5,1.7-0.5c1,0,1.8,0.3,2.4,0.9c0.6,0.6,1,1.4,1,2.4
		c0,0.9-0.3,1.7-1,2.4C183.7,18.9,182.8,19.3,181.7,19.3z M181.6,18.1c0.7,0,1.3-0.2,1.7-0.7c0.4-0.5,0.6-1,0.6-1.5
		c0-0.7-0.2-1.3-0.7-1.7c-0.4-0.4-1-0.6-1.7-0.6c-0.5,0-1,0.1-1.5,0.4s-0.8,0.7-1.1,1.1c0.1,0.8,0.3,1.4,0.7,2
		C180.2,17.8,180.8,18.1,181.6,18.1z"/>
	<path class="st4" d="M196,19.1h-1.6l-3.3-4.4l-3.3,4.4h-1.6l4-5.3l-3.8-5h1.6l3.1,4.1l3.1-4.1h1.6l-3.8,5L196,19.1z"/>
	<path class="st4" d="M200.3,19.3c-0.8,0-1.6-0.2-2.2-0.5c-0.6-0.3-1.1-0.7-1.5-1.2l0.8-0.8c0.3,0.4,0.7,0.7,1.2,1
		c0.5,0.2,1.1,0.4,1.7,0.4c0.7,0,1.3-0.2,1.8-0.5c0.4-0.4,0.7-0.8,0.7-1.4c0-0.6-0.2-1.1-0.7-1.4c-0.5-0.3-1.1-0.4-1.9-0.4
		c-0.6,0-1,0-1.1,0v-1.2c0.1,0,0.5,0,1.1,0c0.7,0,1.3-0.1,1.7-0.4c0.5-0.3,0.7-0.7,0.7-1.3c0-0.5-0.2-1-0.7-1.3
		c-0.4-0.3-1-0.5-1.7-0.5c-1,0-2,0.4-2.7,1.3l-0.7-0.8c0.9-1.1,2.1-1.6,3.5-1.6c1,0,1.9,0.2,2.5,0.7c0.7,0.5,1,1.2,1,2
		c0,0.7-0.2,1.2-0.7,1.6c-0.5,0.4-1,0.7-1.5,0.8c0.6,0.1,1.1,0.3,1.6,0.8s0.8,1,0.8,1.8c0,0.9-0.3,1.6-1,2.1
		C202.3,19,201.4,19.3,200.3,19.3z"/>
</g>
<g>
	<path class="st4" d="M134.2,42.1h-1.3V31.8h4.2c1,0,1.8,0.3,2.4,0.9c0.6,0.6,0.9,1.3,0.9,2.2c0,0.9-0.3,1.6-0.9,2.2
		c-0.6,0.6-1.4,0.9-2.4,0.9h-2.9V42.1z M136.9,36.9c0.6,0,1.1-0.2,1.5-0.6c0.4-0.4,0.6-0.8,0.6-1.4c0-0.6-0.2-1.1-0.6-1.4
		c-0.4-0.4-0.9-0.6-1.5-0.6h-2.7v3.9H136.9z"/>
	<path class="st4" d="M150.4,40.8c-1,1-2.2,1.5-3.7,1.5s-2.7-0.5-3.7-1.5c-1-1-1.4-2.3-1.4-3.8s0.5-2.8,1.4-3.8c1-1,2.2-1.5,3.7-1.5
		s2.7,0.5,3.7,1.5c1,1,1.4,2.3,1.4,3.8S151.4,39.8,150.4,40.8z M146.7,41.2c1.1,0,2.1-0.4,2.8-1.2c0.7-0.8,1.1-1.8,1.1-3
		s-0.4-2.2-1.1-3s-1.6-1.2-2.8-1.2c-1.1,0-2.1,0.4-2.8,1.2c-0.7,0.8-1,1.8-1,3c0,1.2,0.3,2.2,1,3C144.6,40.8,145.6,41.2,146.7,41.2z
		"/>
	<path class="st4" d="M159.8,42.1h-6.1V31.8h1.3V41h4.8V42.1z"/>
	<path class="st4" d="M170.4,42.1h-1.5l-0.9-2.3h-5.1l-0.9,2.3h-1.5l4.2-10.3h1.6L170.4,42.1z M167.6,38.7l-2.2-5.6l-2.2,5.6H167.6z
		"/>
	<path class="st4" d="M180.3,42.1H179l-6-8.2v8.2h-1.3V31.8h1.3l6,8.1v-8.1h1.3V42.1z"/>
	<path class="st4" d="M191.5,42.1h-1.5l-0.9-2.3H184l-0.9,2.3h-1.5l4.2-10.3h1.6L191.5,42.1z M188.8,38.7l-2.2-5.6l-2.2,5.6H188.8z"
		/>
	<path class="st4" d="M201.6,42.1h-4.7V31.8h4.6c0.9,0,1.6,0.2,2.1,0.7c0.5,0.5,0.8,1.1,0.8,1.9c0,0.6-0.2,1.1-0.5,1.6
		c-0.4,0.4-0.8,0.7-1.3,0.8c0.5,0.1,1,0.4,1.4,0.9c0.4,0.5,0.6,1.1,0.6,1.7c0,0.8-0.3,1.5-0.8,2C203.3,41.9,202.5,42.1,201.6,42.1z
		 M201.3,36.3c0.6,0,1-0.2,1.3-0.5c0.3-0.3,0.5-0.7,0.5-1.2c0-0.5-0.2-0.9-0.5-1.2c-0.3-0.3-0.8-0.5-1.3-0.5h-3.1v3.3H201.3z
		 M201.4,41c0.6,0,1.1-0.2,1.4-0.5c0.3-0.3,0.5-0.8,0.5-1.3c0-0.5-0.2-0.9-0.5-1.3c-0.3-0.3-0.8-0.5-1.4-0.5h-3.2V41H201.4z"/>
</g>
<g>
	<path class="st4" d="M95.4,73.3h-1.8V61l-2.4,2.5l-1.1-1.1l3.7-3.8h1.6V73.3z"/>
	<path class="st4" d="M103.9,73.5c-1,0-1.8-0.2-2.6-0.7c-0.7-0.4-1.3-1-1.8-1.8s-0.8-1.6-1-2.4c-0.2-0.9-0.3-1.8-0.3-2.7
		s0.1-1.8,0.3-2.7c0.2-0.9,0.5-1.7,1-2.4c0.4-0.7,1-1.3,1.8-1.8c0.7-0.4,1.6-0.7,2.6-0.7c1,0,1.8,0.2,2.6,0.7c0.7,0.4,1.3,1,1.8,1.8
		c0.4,0.7,0.8,1.5,1,2.4c0.2,0.9,0.3,1.8,0.3,2.7s-0.1,1.8-0.3,2.7c-0.2,0.9-0.5,1.7-1,2.4s-1,1.3-1.8,1.8S104.8,73.5,103.9,73.5z
		 M101.7,71c0.6,0.6,1.3,0.9,2.2,0.9c0.9,0,1.6-0.3,2.2-0.9c0.6-0.6,1-1.3,1.2-2.2c0.2-0.9,0.3-1.8,0.3-2.9s-0.1-2-0.3-2.9
		c-0.2-0.9-0.6-1.6-1.2-2.2c-0.6-0.6-1.3-0.9-2.2-0.9c-0.9,0-1.6,0.3-2.2,0.9c-0.6,0.6-1,1.3-1.2,2.2c-0.2,0.9-0.3,1.8-0.3,2.9
		s0.1,2,0.3,2.9C100.7,69.7,101.1,70.4,101.7,71z"/>
</g>
<g>
	<path class="st4" d="M133.9,71.1h-1.3V60.8h4.2c1,0,1.8,0.3,2.4,0.9c0.6,0.6,0.9,1.3,0.9,2.2s-0.3,1.6-0.9,2.2
		c-0.6,0.6-1.4,0.9-2.4,0.9h-2.9V71.1z M136.6,65.9c0.6,0,1.1-0.2,1.5-0.6c0.4-0.4,0.6-0.8,0.6-1.4s-0.2-1.1-0.6-1.4
		c-0.4-0.4-0.9-0.6-1.5-0.6h-2.7v3.9H136.6z"/>
	<path class="st4" d="M150.1,69.8c-1,1-2.2,1.5-3.7,1.5s-2.7-0.5-3.7-1.5c-1-1-1.4-2.3-1.4-3.8c0-1.5,0.5-2.8,1.4-3.8
		c1-1,2.2-1.5,3.7-1.5s2.7,0.5,3.7,1.5c1,1,1.4,2.3,1.4,3.8C151.5,67.5,151.1,68.8,150.1,69.8z M146.4,70.2c1.1,0,2.1-0.4,2.8-1.2
		c0.7-0.8,1.1-1.8,1.1-3c0-1.2-0.4-2.2-1.1-3c-0.7-0.8-1.6-1.2-2.8-1.2c-1.1,0-2.1,0.4-2.8,1.2s-1,1.8-1,3c0,1.2,0.3,2.2,1,3
		C144.3,69.8,145.2,70.2,146.4,70.2z"/>
	<path class="st4" d="M159.5,71.1h-6.1V60.8h1.3V70h4.8V71.1z"/>
	<path class="st4" d="M170,71.1h-1.5l-0.9-2.3h-5.1l-0.9,2.3h-1.5l4.2-10.3h1.6L170,71.1z M167.3,67.7l-2.2-5.6l-2.2,5.6H167.3z"/>
	<path class="st4" d="M179.9,71.1h-1.2l-6-8.2v8.2h-1.3V60.8h1.3l6,8.1v-8.1h1.3V71.1z"/>
	<path class="st4" d="M191.2,71.1h-1.5l-0.9-2.3h-5.1l-0.9,2.3h-1.5l4.2-10.3h1.6L191.2,71.1z M188.4,67.7l-2.2-5.6l-2.2,5.6H188.4z
		"/>
	<path class="st4" d="M205.4,71.1h-1.5l-0.9-2.3h-5.1l-0.9,2.3h-1.5l4.2-10.3h1.6L205.4,71.1z M202.7,67.7l-2.2-5.6l-2.2,5.6H202.7z
		"/>
</g>
</svg>
