<svg xmlns="http://www.w3.org/2000/svg" xmlns:xlink="http://www.w3.org/1999/xlink" width="160" height="95.826" viewBox="0 0 78.22 23.09"><defs><style>.cls-1{fill:none;}.cls-2{fill:#d0d09b;}.cls-3{fill:#002c46;}.cls-4{fill:#e84d46;}.cls-5{fill:#fff;}.cls-6{fill:#2d314e;}.cls-7{clip-path:url(#clip-path);}</style><clipPath id="clip-path"><rect class="cls-1" x="2.55" y="2.11" width="16" height="5"/></clipPath></defs><g id="Layer_2" data-name="Layer 2"><g id="Layer_1-2" data-name="Layer 1"><rect class="cls-2" y="6.82" width="58.77" height="12.24" rx="1.57"/><path class="cls-3" d="M3.66,15V11.5H5.41a1.13,1.13,0,0,1,1.26,1.12,1.14,1.14,0,0,1-1.26,1.13h-1V15Zm2.2-2.38a.5.5,0,0,0-.56-.47H4.46v.94H5.3A.5.5,0,0,0,5.86,12.62Z"/><path class="cls-3" d="M7,13.25a1.82,1.82,0,0,1,2-1.81,1.82,1.82,0,1,1,0,3.62A1.82,1.82,0,0,1,7,13.25Zm3.09,0A1.09,1.09,0,0,0,9,12.1a1.15,1.15,0,0,0,0,2.3A1.09,1.09,0,0,0,10.13,13.25Z"/><path class="cls-3" d="M11.52,15V11.5h.81v2.84h1.58V15Z"/><path class="cls-3" d="M17.08,15l-.23-.6H15.24L15,15H14.1l1.44-3.5h1L18,15Zm-1-2.76-.58,1.51h1.17Z"/><path class="cls-3" d="M21,15l-1.78-2.29V15h-.8V11.5h.82l1.74,2.2V11.5h.79V15Z"/><path class="cls-3" d="M25.11,15l-.24-.6h-1.6L23,15h-.9l1.44-3.5h1L26,15Zm-1-2.76-.58,1.51h1.16Z"/><path class="cls-3" d="M27.64,14.5l.43-.58a1.71,1.71,0,0,0,1.19.48c.45,0,.66-.18.66-.39,0-.61-2.16-.18-2.16-1.5,0-.58.54-1.07,1.42-1.07a2.16,2.16,0,0,1,1.46.49l-.44.56a1.71,1.71,0,0,0-1.09-.39c-.34,0-.53.14-.53.35,0,.55,2.15.18,2.15,1.49,0,.64-.49,1.12-1.5,1.12A2.24,2.24,0,0,1,27.64,14.5Z"/><path class="cls-3" d="M31.13,13.25a2,2,0,0,1,3.91,0,1.79,1.79,0,0,1-.48,1.24l.27.3-.56.42-.3-.32a2.26,2.26,0,0,1-.88.17A1.83,1.83,0,0,1,31.13,13.25Zm2.35,1.09-.41-.45.55-.43.41.46a1.17,1.17,0,0,0,.19-.67,1.14,1.14,0,1,0-1.13,1.15A1.23,1.23,0,0,0,33.48,14.34Z"/><path class="cls-3" d="M35.65,13.6V11.5h.81v2.07a.88.88,0,0,0,1.76,0V11.5H39v2.1c0,.86-.55,1.46-1.69,1.46S35.65,14.46,35.65,13.6Z"/><path class="cls-3" d="M42.41,15l-.24-.6h-1.6l-.24.6h-.9l1.44-3.5h1L43.31,15Zm-1-2.76-.59,1.51H42Z"/><path class="cls-3" d="M45.82,15l-.73-1.25H44.5V15h-.79V11.5h1.75a1.13,1.13,0,0,1,1.26,1.12,1,1,0,0,1-.82,1L46.74,15Zm.08-2.38a.5.5,0,0,0-.56-.47H44.5v.95h.84A.5.5,0,0,0,45.9,12.62Z"/><path class="cls-3" d="M47.36,15V11.5H50v.65H48.16v.74H50v.65H48.16v.8H50V15Z"/><rect class="cls-4" x="53.82" y="4.59" width="16.7" height="16.7" rx="4" transform="translate(9.06 47.75) rotate(-45)"/><path class="cls-5" d="M59.29,15.85V11.24l-1.06,1.08-.77-.81,2-2h1.18v6.35Z"/><path class="cls-5" d="M61.72,15.85V14.79c2.6-1.93,3.36-2.57,3.36-3.36,0-.56-.51-.82-1-.82a2.26,2.26,0,0,0-1.7.73l-.77-.9a3.22,3.22,0,0,1,2.44-1c1.36,0,2.43.76,2.43,2,0,1.09-.89,2-2.54,3.23H66.5v1.19Z"/><path class="cls-6" d="M74.54,13.33a1.74,1.74,0,0,1,1.35-2.15,1.92,1.92,0,0,1,2.27,1.35,1.76,1.76,0,0,1-1.35,2.16,1.92,1.92,0,0,1-2.27-1.36"/><rect class="cls-4" width="21.1" height="8.28" rx="0.89"/><g class="cls-7"><path class="cls-5" d="M4.26,6.46V3.28L3.48,4l-.57-.56L4.39,2.08h.87V6.46Z"/><path class="cls-5" d="M6.63,6.46,8.3,2.9H6V2.08H9.46v.65L7.72,6.46Z"/><path class="cls-5" d="M13.18,6.46,12,4.86l-1.18,1.6H9.64l1.7-2.24L9.74,2.08h1.19L12,3.58l1.06-1.5h1.2L12.67,4.21l1.7,2.25Z"/><path class="cls-5" d="M14.75,5.88l.55-.65a1.75,1.75,0,0,0,1.25.48c.55,0,.87-.29.87-.65s-.31-.65-.85-.65a1.4,1.4,0,0,0-1,.36l-.69-.18V2.08h3.21V2.9H15.89V4a1.57,1.57,0,0,1,1-.36A1.42,1.42,0,0,1,18.43,5c0,.93-.75,1.52-1.88,1.52A2.41,2.41,0,0,1,14.75,5.88Z"/></g></g></g></svg>