<?xml version="1.0" encoding="utf-8"?>
<!-- Generator: Adobe Illustrator 25.2.3, SVG Export Plug-In . SVG Version: 6.00 Build 0)  -->
<svg version="1.1" id="Layer_1" xmlns="http://www.w3.org/2000/svg" width="243.725" height="95.826" xmlns:xlink="http://www.w3.org/1999/xlink" x="0px" y="0px"
	 viewBox="0 0 243.7 95.8" style="enable-background:new 0 0 243.7 95.8;" xml:space="preserve">
<style type="text/css">
	.st0{opacity:0.92;fill:#2D314E;enable-background:new    ;}
	.st1{fill:none;}
	.st2{fill:#E84D46;}
	.st3{fill:#D0D09B;}
	.st4{fill:#FFFFFF;}
	.st5{fill:#002C46;}
</style>
<g id="xenon_1" transform="translate(-200.275 -451.873)">
	<g id="_24_julho_novo" transform="translate(200.275 451.873)">
		<path id="Path_11" class="st0" d="M126.2,92.6c-0.1,1.9-1.7,3.3-3.6,3.2c-1.9-0.1-3.3-1.7-3.2-3.6c0.1-1.8,1.6-3.2,3.4-3.2
			C124.8,89.1,126.3,90.7,126.2,92.6z"/>
	</g>
	<rect id="Rectangle_43" x="348" y="487" class="st1" width="96" height="26"/>
</g>
<rect x="95" y="40.5" class="st2" width="37.5" height="27.5"/>
<g>
	<rect x="1.4" y="21.9" class="st2" width="54.8" height="18.6"/>
</g>
<rect x="1.4" y="40.5" class="st3" width="94.2" height="27.5"/>
<polygon class="st2" points="132.5,68 125,83 126.2,65.5 "/>
<g>
	<path class="st4" d="M110.3,61.9c-1,0-1.8-0.2-2.6-0.7c-0.7-0.4-1.3-1-1.8-1.8s-0.8-1.6-1-2.4c-0.2-0.9-0.3-1.8-0.3-2.7
		c0-0.9,0.1-1.8,0.3-2.7c0.2-0.9,0.5-1.7,1-2.4c0.4-0.7,1-1.3,1.8-1.8c0.7-0.4,1.6-0.7,2.6-0.7c1,0,1.8,0.2,2.6,0.7
		c0.7,0.4,1.3,1,1.8,1.8c0.4,0.7,0.8,1.5,1,2.4c0.2,0.9,0.3,1.8,0.3,2.7c0,0.9-0.1,1.8-0.3,2.7c-0.2,0.9-0.5,1.7-1,2.4
		s-1,1.3-1.8,1.8S111.3,61.9,110.3,61.9z M108.1,59.3c0.6,0.6,1.3,0.9,2.2,0.9c0.9,0,1.6-0.3,2.2-0.9c0.6-0.6,1-1.3,1.2-2.2
		c0.2-0.9,0.3-1.8,0.3-2.9c0-1.1-0.1-2-0.3-2.9c-0.2-0.9-0.6-1.6-1.2-2.2c-0.6-0.6-1.3-0.9-2.2-0.9c-0.9,0-1.6,0.3-2.2,0.9
		c-0.6,0.6-1,1.3-1.2,2.2c-0.2,0.9-0.3,1.8-0.3,2.9c0,1.1,0.1,2,0.3,2.9C107.1,58,107.5,58.7,108.1,59.3z"/>
	<path class="st4" d="M122.8,61.6H121V49.3l-2.4,2.5l-1.1-1.1l3.7-3.8h1.6V61.6z"/>
</g>
<g>
	<path class="st4" d="M16.6,36.4h-1.3v-8.6l-1.7,1.8l-0.8-0.8l2.6-2.7h1.1V36.4z"/>
	<path class="st4" d="M21.1,36.4h-1.4l4.2-9.2h-5.6V26h7.1v0.9L21.1,36.4z"/>
	<path class="st4" d="M35.7,36.4h-1.6L30.8,32l-3.3,4.4H26l4-5.3l-3.8-5h1.6l3.1,4.1l3.1-4.1h1.6l-3.8,5L35.7,36.4z"/>
	<path class="st4" d="M40.6,36.6c-1.6,0-2.8-0.6-3.6-1.7l0.8-0.9c0.7,0.9,1.7,1.4,2.9,1.4c0.7,0,1.3-0.2,1.7-0.6s0.7-1,0.7-1.6
		c0-0.7-0.2-1.2-0.7-1.6s-1-0.6-1.7-0.6c-0.9,0-1.7,0.3-2.4,1l-0.9-0.3V26h6.3v1.1h-5v3.6c0.6-0.6,1.4-0.9,2.4-0.9
		c0.9,0,1.7,0.3,2.3,0.9c0.6,0.6,1,1.4,1,2.4c0,1-0.3,1.8-1,2.5C42.5,36.3,41.6,36.6,40.6,36.6z"/>
</g>
<g>
	<path class="st5" d="M13.5,59.4h-1.3V49.1h4.2c1,0,1.8,0.3,2.4,0.9s0.9,1.3,0.9,2.2c0,0.9-0.3,1.6-0.9,2.2
		c-0.6,0.6-1.4,0.9-2.4,0.9h-2.9V59.4z M16.2,54.2c0.6,0,1.1-0.2,1.5-0.5c0.4-0.4,0.6-0.8,0.6-1.4c0-0.6-0.2-1.1-0.6-1.4
		c-0.4-0.4-0.9-0.5-1.5-0.5h-2.7v3.9H16.2z"/>
	<path class="st5" d="M21,59.3c-0.2,0.2-0.4,0.2-0.6,0.2c-0.2,0-0.4-0.1-0.6-0.2c-0.2-0.2-0.2-0.4-0.2-0.6c0-0.2,0.1-0.4,0.2-0.6
		c0.2-0.2,0.4-0.2,0.6-0.2c0.2,0,0.4,0.1,0.6,0.2c0.2,0.2,0.2,0.4,0.2,0.6C21.2,59,21.1,59.2,21,59.3z"/>
	<path class="st5" d="M30.7,59.6c-1.7,0-3-0.5-4-1.6l0.8-1c0.9,1,1.9,1.5,3.2,1.5c0.8,0,1.5-0.2,1.8-0.5c0.4-0.4,0.6-0.8,0.6-1.3
		c0-0.4-0.2-0.8-0.5-1c-0.3-0.3-0.7-0.5-1.1-0.6s-0.9-0.3-1.5-0.4c-0.5-0.2-1-0.3-1.5-0.5c-0.4-0.2-0.8-0.5-1.1-0.9
		c-0.3-0.4-0.5-0.9-0.5-1.5c0-0.8,0.3-1.5,1-2.1s1.5-0.8,2.6-0.8c1.5,0,2.7,0.5,3.7,1.5l-0.8,0.9c-0.7-0.8-1.7-1.2-3-1.2
		c-0.6,0-1.1,0.2-1.5,0.5c-0.4,0.3-0.6,0.7-0.6,1.2c0,0.4,0.2,0.7,0.5,0.9c0.3,0.2,0.7,0.4,1.1,0.5c0.5,0.1,0.9,0.3,1.5,0.4
		s1,0.4,1.5,0.5s0.8,0.5,1.1,0.9c0.3,0.4,0.5,0.9,0.5,1.5c0,0.8-0.3,1.6-0.9,2.1C33,59.3,32,59.6,30.7,59.6z"/>
	<path class="st5" d="M41.2,59.6c-1.5,0-2.7-0.5-3.7-1.5c-1-1-1.4-2.3-1.4-3.8c0-1.5,0.5-2.8,1.4-3.8c1-1,2.2-1.5,3.7-1.5
		s2.7,0.5,3.7,1.5c1,1,1.4,2.3,1.4,3.8c0,1.5-0.5,2.8-1.4,3.8l1,1L45,59.9l-1-1.1C43.2,59.4,42.3,59.6,41.2,59.6z M41.2,58.5
		c0.7,0,1.4-0.2,2-0.5l-1.5-1.6l0.9-0.8l1.5,1.6c0.6-0.8,1-1.8,1-2.9c0-1.2-0.4-2.2-1.1-3c-0.7-0.8-1.6-1.2-2.8-1.2
		c-1.1,0-2.1,0.4-2.8,1.2c-0.7,0.8-1,1.8-1,3c0,1.2,0.3,2.2,1,3C39.1,58.1,40,58.5,41.2,58.5z"/>
	<path class="st5" d="M52.6,59.6c-1.4,0-2.4-0.4-3.1-1.1s-1.1-1.8-1.1-3.1v-6.3h1.3v6.3c0,1,0.3,1.7,0.8,2.3s1.2,0.8,2.2,0.8
		s1.7-0.3,2.2-0.8c0.5-0.5,0.8-1.3,0.8-2.3v-6.3h1.3v6.3c0,1.3-0.4,2.3-1.1,3.1S53.9,59.6,52.6,59.6z"/>
	<path class="st5" d="M67.7,59.4h-1.5l-0.9-2.3h-5.1l-0.9,2.3h-1.5l4.2-10.3h1.6L67.7,59.4z M64.9,56l-2.2-5.6L60.5,56H64.9z"/>
	<path class="st5" d="M76.5,59.4H75l-2.6-4.1h-2.1v4.1H69V49.1h4.2c1,0,1.7,0.3,2.3,0.9s0.9,1.3,0.9,2.3c0,0.9-0.3,1.6-0.8,2.1
		s-1.2,0.8-1.9,0.9L76.5,59.4z M73,54.2c0.6,0,1.1-0.2,1.5-0.6c0.4-0.4,0.6-0.8,0.6-1.4c0-0.6-0.2-1.1-0.6-1.4
		c-0.4-0.4-0.9-0.5-1.5-0.5h-2.7v4H73z"/>
	<path class="st5" d="M85.2,59.4h-6.8V49.1h6.8v1.1h-5.5v3.3h5.4v1.1h-5.4v3.6h5.5V59.4z"/>
</g>
</svg>
