<?xml version="1.0" encoding="utf-8"?>
<!-- Generator: Adobe Illustrator 25.2.3, SVG Export Plug-In . SVG Version: 6.00 Build 0)  -->
<svg version="1.1" id="Layer_1" xmlns="http://www.w3.org/2000/svg" width="243.725" height="95.826" xmlns:xlink="http://www.w3.org/1999/xlink" x="0px" y="0px"
	 viewBox="0 0 243.7 95.8" style="enable-background:new 0 0 243.7 95.8;" xml:space="preserve">
<style type="text/css">
	.st0{opacity:0.92;fill:#2D314E;enable-background:new    ;}
	.st1{fill:none;}
	.st2{fill:#E84D46;}
	.st3{fill:#D0D09B;}
	.st4{fill:#002C46;}
	.st5{fill:#FFFFFF;}
</style>
<g id="xenon_1" transform="translate(-200.275 -451.873)">
	<g id="_24_julho_novo" transform="translate(200.275 451.873)">
		<path id="Path_11" class="st0" d="M126.2,92.6c-0.1,1.9-1.7,3.3-3.6,3.2c-1.9-0.1-3.3-1.7-3.2-3.6c0.1-1.8,1.6-3.2,3.4-3.2
			C124.8,89.1,126.3,90.7,126.2,92.6z"/>
	</g>
	<rect id="Rectangle_43" x="348" y="487" class="st1" width="96" height="26"/>
</g>
<rect x="95" y="40.5" class="st2" width="37.5" height="27.5"/>
<g>
	<rect x="1.4" y="21.9" class="st2" width="54.8" height="18.6"/>
</g>
<rect x="1.4" y="40.5" class="st3" width="94.2" height="27.5"/>
<g>
	<path class="st4" d="M11.1,59.3V49.1h4.8c2.2,0,3.4,1.5,3.4,3.3c0,1.8-1.2,3.3-3.4,3.3h-2.6v3.6C13.3,59.3,11.1,59.3,11.1,59.3z
		 M17.1,52.4c0-0.9-0.7-1.4-1.5-1.4h-2.3v2.7h2.3C16.5,53.8,17.1,53.3,17.1,52.4z"/>
	<path class="st4" d="M19.1,58.2c0-0.7,0.6-1.2,1.2-1.2c0.6,0,1.2,0.6,1.2,1.2c0,0.7-0.6,1.2-1.2,1.2C19.7,59.4,19.1,58.9,19.1,58.2
		z"/>
	<path class="st4" d="M26.5,57.9l1.2-1.7c0.7,0.7,1.8,1.4,3.2,1.4c1.2,0,1.8-0.5,1.8-1.1c0-1.8-5.9-0.5-5.9-4.4
		c0-1.7,1.5-3.1,3.9-3.1c1.6,0,3,0.5,4,1.4L33.4,52c-0.8-0.8-1.9-1.1-3-1.1c-0.9,0-1.4,0.4-1.4,1c0,1.6,5.8,0.5,5.8,4.3
		c0,1.9-1.3,3.3-4.1,3.3C28.8,59.5,27.4,58.8,26.5,57.9z"/>
	<path class="st4" d="M35.8,54.2c0-3.1,2.2-5.3,5.3-5.3c3.1,0,5.3,2.2,5.3,5.3c0,1.4-0.5,2.7-1.3,3.6l0.7,0.9l-1.4,1.2L43.6,59
		c-0.7,0.3-1.5,0.5-2.4,0.5C38.1,59.5,35.8,57.3,35.8,54.2z M42.2,57.4l-1.1-1.3l1.5-1.2l1.1,1.3c0.3-0.5,0.5-1.2,0.5-1.9
		c0-1.9-1.2-3.3-3.1-3.3c-1.9,0-3.1,1.4-3.1,3.3c0,1.9,1.2,3.3,3.1,3.3C41.5,57.6,41.9,57.5,42.2,57.4z"/>
	<path class="st4" d="M48,55.2v-6.1h2.2v6c0,1.4,0.8,2.4,2.4,2.4c1.6,0,2.4-1,2.4-2.4v-6h2.2v6.1c0,2.5-1.5,4.3-4.6,4.3
		C49.5,59.5,48,57.8,48,55.2z"/>
	<path class="st4" d="M65.7,59.3l-0.6-1.7h-4.4l-0.6,1.7h-2.5l3.9-10.2h2.7l3.9,10.2H65.7z M62.9,51.3l-1.6,4.4h3.2L62.9,51.3z"/>
	<path class="st4" d="M74.8,59.3l-2-3.6h-1.6v3.6H69V49.1h4.8c2.1,0,3.4,1.4,3.4,3.3c0,1.8-1.1,2.8-2.2,3l2.3,3.9H74.8z M75.1,52.4
		c0-0.8-0.7-1.4-1.5-1.4h-2.3v2.7h2.3C74.4,53.8,75.1,53.3,75.1,52.4z"/>
	<path class="st4" d="M78.9,59.3V49.1h7.2V51h-5v2.1H86V55h-4.9v2.3h5v1.9h-7.2V59.3z"/>
</g>
<g>
	<path class="st5" d="M14.2,36.5v-7.7l-1.8,1.8l-1.3-1.4l3.4-3.4h2v10.7H14.2z"/>
	<path class="st5" d="M19.5,36.5l3.8-8.7h-5.4v-2h8v1.6l-4,9.1H19.5z"/>
	<path class="st5" d="M34.3,36.5l-2.7-3.9l-2.7,3.9h-2.7l3.9-5.5l-3.6-5.2h2.7l2.4,3.7l2.4-3.7h2.7L33.1,31l3.9,5.5H34.3z"/>
	<path class="st5" d="M37.7,35.1l1.3-1.6c0.7,0.8,1.7,1.2,2.8,1.2c1.3,0,2-0.7,2-1.6c0-0.9-0.7-1.6-1.9-1.6c-0.9,0-1.6,0.3-2.2,0.9
		L38.1,32v-6.1h7.3v2h-5.1v2.6c0.5-0.5,1.4-0.9,2.4-0.9c1.8,0,3.4,1.3,3.4,3.5c0,2.3-1.7,3.7-4.3,3.7C40,36.7,38.6,36.1,37.7,35.1z"
		/>
</g>
<polygon class="st2" points="132.5,68 125,83 126.2,65.5 "/>
<g>
	<path class="st5" d="M103.5,54.4c0-3.8,1.9-7.6,6.1-7.6c4.2,0,6.1,3.8,6.1,7.6s-1.9,7.6-6.1,7.6C105.4,62,103.5,58.2,103.5,54.4z
		 M112.5,54.4c0-2.7-0.8-4.8-2.9-4.8c-2.1,0-2.9,2.1-2.9,4.8s0.8,4.8,2.9,4.8C111.7,59.2,112.5,57.1,112.5,54.4z"/>
	<path class="st5" d="M120.9,61.7V51.1l-2.4,2.5l-1.8-1.9l4.6-4.6h2.7v14.7H120.9z"/>
</g>
</svg>
