<svg xmlns="http://www.w3.org/2000/svg" width="120" height="95.826" viewBox="0 0 54.33 39.82"><defs><style>.cls-1{fill:#676d81;}.cls-2{fill:#fff;}.cls-3{fill:#e84d46;}.cls-4{fill:#2d314e;}</style></defs><g id="Layer_2" data-name="Layer 2"><g id="Layer_1-2" data-name="Layer 1"><rect class="cls-1" x="11.33" y="19" width="43" height="12.24" rx="2.41"/><path class="cls-2" d="M22.05,27.17v-3.5H23.8a1.13,1.13,0,1,1,0,2.25h-.95v1.25Zm2.2-2.37c0-.3-.25-.47-.56-.47h-.84v.94h.84A.5.5,0,0,0,24.25,24.8Z"/><path class="cls-2" d="M25.43,25.42a2,2,0,1,1,2,1.82A1.82,1.82,0,0,1,25.43,25.42Zm3.09,0a1.14,1.14,0,1,0-1.13,1.15A1.09,1.09,0,0,0,28.52,25.42Z"/><path class="cls-2" d="M29.91,27.17v-3.5h.81v2.85H32.3v.65Z"/><path class="cls-2" d="M35.47,27.17l-.23-.59H33.63l-.24.59h-.9l1.44-3.5h1l1.45,3.5Zm-1-2.75-.58,1.5H35Z"/><path class="cls-2" d="M39.35,27.17l-1.78-2.28v2.28h-.8v-3.5h.82l1.74,2.2v-2.2h.79v3.5Z"/><path class="cls-2" d="M43.5,27.17l-.24-.59h-1.6l-.24.59h-.9L42,23.67h1l1.44,3.5Zm-1-2.75-.58,1.5H43Z"/><path class="cls-2" d="M48.87,27.17l-.23-.59H47l-.23.59h-.91l1.44-3.5h1l1.45,3.5Zm-1-2.75-.58,1.5h1.17Z"/><rect class="cls-1" x="11.33" y="5" width="43" height="12.24" rx="2.41"/><path class="cls-2" d="M22.05,14.17v-3.5H23.8a1.13,1.13,0,1,1,0,2.25h-.95v1.25Zm2.2-2.37c0-.3-.25-.47-.56-.47h-.84v.94h.84A.5.5,0,0,0,24.25,11.8Z"/><path class="cls-2" d="M25.43,12.42a2,2,0,1,1,2,1.82A1.82,1.82,0,0,1,25.43,12.42Zm3.09,0a1.14,1.14,0,1,0-1.13,1.15A1.09,1.09,0,0,0,28.52,12.42Z"/><path class="cls-2" d="M29.91,14.17v-3.5h.81v2.85H32.3v.65Z"/><path class="cls-2" d="M35.47,14.17l-.23-.59H33.63l-.24.59h-.9l1.44-3.5h1l1.45,3.5Zm-1-2.75-.58,1.5H35Z"/><path class="cls-2" d="M39.35,14.17l-1.78-2.28v2.28h-.8v-3.5h.82l1.74,2.2v-2.2h.79v3.5Z"/><path class="cls-2" d="M43.5,14.17l-.24-.59h-1.6l-.24.59h-.9L42,10.67h1l1.44,3.5Zm-1-2.75-.58,1.5H43Z"/><path class="cls-2" d="M46.28,14.17v-3.5h2c.71,0,1.07.43,1.07.89a.8.8,0,0,1-.64.81.85.85,0,0,1,.72.85,1,1,0,0,1-1.09.95Zm2.24-2.48c0-.21-.17-.36-.44-.36h-1v.73h1C48.35,12.06,48.52,11.92,48.52,11.69Zm.07,1.43c0-.22-.17-.4-.48-.4h-1v.8h1C48.41,13.52,48.59,13.37,48.59,13.12Z"/><rect class="cls-3" x="1.8" y="2.77" width="16.7" height="16.7" rx="4" transform="translate(-4.89 10.43) rotate(-45)"/><path class="cls-2" d="M4.93,10.86c0-1.64.81-3.28,2.63-3.28s2.62,1.64,2.62,3.28-.8,3.28-2.62,3.28S4.93,12.49,4.93,10.86Zm3.87,0c0-1.17-.33-2.08-1.24-2.08s-1.25.91-1.25,2.08.34,2.08,1.25,2.08S8.8,12,8.8,10.86Z"/><path class="cls-2" d="M13.78,14V12.71h-3V11.65l2.53-4h1.86v3.84H16v1.19h-.82V14Zm0-5.15-1.71,2.64h1.71Z"/><path class="cls-4" d="M8.61,38.41A1.74,1.74,0,0,1,10,36.26a1.93,1.93,0,0,1,2.27,1.35,1.76,1.76,0,0,1-1.35,2.16,1.92,1.92,0,0,1-2.27-1.36"/><rect class="cls-3" x="33.33" width="21" height="8.28" rx="0.9"/><path class="cls-2" d="M37.44,4.28A2.09,2.09,0,0,1,39.63,2,2.19,2.19,0,0,1,41,2.47l-.45.72a1.26,1.26,0,0,0-.93-.35,1.18,1.18,0,0,0-1.17,1.24v.1a1.55,1.55,0,0,1,1.2-.57A1.45,1.45,0,0,1,41.26,5a1.61,1.61,0,0,1-1.79,1.5A2,2,0,0,1,37.44,4.28Zm2.81.79c0-.46-.43-.66-.87-.66a1.21,1.21,0,0,0-.92.42.9.9,0,0,0,.95.88C40,5.71,40.25,5.37,40.25,5.07Z"/><path class="cls-2" d="M45.05,6.46l-1.17-1.6L42.7,6.46H41.51l1.7-2.24L41.62,2.08H42.8l1.08,1.5,1-1.5h1.21l-1.6,2.13,1.7,2.25Z"/><path class="cls-2" d="M46.42,5.84l.52-.63a1.89,1.89,0,0,0,1.29.5c.57,0,.88-.23.88-.56s-.29-.5-.94-.5h-.58V3.82h.58c.52,0,.87-.15.87-.47s-.38-.52-.87-.52A1.74,1.74,0,0,0,47,3.3l-.5-.59A2.38,2.38,0,0,1,48.27,2C49.37,2,50,2.48,50,3.21a1.1,1.1,0,0,1-1,1,1.15,1.15,0,0,1,1.1,1c0,.76-.72,1.29-1.85,1.29A2.43,2.43,0,0,1,46.42,5.84Z"/><rect class="cls-3" x="1.8" y="15.77" width="16.7" height="16.7" rx="4" transform="translate(-14.08 14.24) rotate(-45)"/><path class="cls-2" d="M4.64,23.86c0-1.64.81-3.28,2.63-3.28s2.62,1.64,2.62,3.28-.8,3.28-2.62,3.28S4.64,25.49,4.64,23.86Zm3.87,0c0-1.17-.33-2.08-1.24-2.08S6,22.69,6,23.86s.34,2.08,1.25,2.08S8.51,25,8.51,23.86Z"/><path class="cls-2" d="M10.68,26.19l.75-.94a2.32,2.32,0,0,0,1.69.69c.75,0,1.18-.43,1.18-.94s-.42-.94-1.14-.94a1.82,1.82,0,0,0-1.33.51l-.95-.26V20.68h4.36v1.19h-3v1.55a2,2,0,0,1,1.41-.53,2,2,0,0,1,2,2.05,2.24,2.24,0,0,1-2.54,2.2A3.19,3.19,0,0,1,10.68,26.19Z"/></g></g></svg>