<svg xmlns="http://www.w3.org/2000/svg" width="266.343" height="84.965" viewBox="0 0 266.343 84.965">
  <g id="ponto_final" transform="translate(-88 -349.572)">
    <g id="ponto_final_novo" transform="translate(200.275 349.663)">
      <path id="Path_10" data-name="Path 10" d="M195.427,293.825a3.123,3.123,0,1,1-3.117-3.312,3.209,3.209,0,0,1,3.117,3.312Z" transform="translate(-167.277 -211.885)" fill="#2d314e" opacity="0.92"/>
      <g id="Group_18" data-name="Group 18" transform="translate(100.32 -0.091)">
        <rect id="Rectangle_10" data-name="Rectangle 10" width="51.75" height="21.994"/>
        <path id="_6.5x3" data-name="6.5x3" d="M3.562-4.238a3.877,3.877,0,0,0-.611.052,1.8,1.8,0,0,0-.507.143q0,.052-.007.156T2.431-3.7a5.728,5.728,0,0,0,.065.884,2.477,2.477,0,0,0,.221.728,1.244,1.244,0,0,0,.416.487,1.136,1.136,0,0,0,.65.176,1.055,1.055,0,0,0,.552-.137,1.25,1.25,0,0,0,.377-.345,1.466,1.466,0,0,0,.221-.461,1.794,1.794,0,0,0,.072-.487,1.446,1.446,0,0,0-.332-1.021A1.462,1.462,0,0,0,3.562-4.238Zm.247-1.508a4.012,4.012,0,0,1,1.436.227,2.641,2.641,0,0,1,.968.617,2.327,2.327,0,0,1,.546.91,3.553,3.553,0,0,1,.169,1.105A3.256,3.256,0,0,1,6.74-1.82a2.978,2.978,0,0,1-.572.988A3,3,0,0,1,5.194-.1,3.18,3.18,0,0,1,3.8.182,3.014,3.014,0,0,1,1.326-.845,4.334,4.334,0,0,1,.481-3.679a6.125,6.125,0,0,1,.4-2.3,4.536,4.536,0,0,1,1.15-1.684A5.021,5.021,0,0,1,3.842-8.7a7.675,7.675,0,0,1,2.386-.371q.026.4.052.787t.052.8a7.392,7.392,0,0,0-1.241.123,4.115,4.115,0,0,0-1.053.344,2.881,2.881,0,0,0-.826.6,2.586,2.586,0,0,0-.546.9,2.4,2.4,0,0,1,.585-.182A3.273,3.273,0,0,1,3.809-5.746Zm6.253,4.719a1.088,1.088,0,0,1-.371.891,1.283,1.283,0,0,1-.838.306,1.283,1.283,0,0,1-.839-.306,1.088,1.088,0,0,1-.371-.891,1.088,1.088,0,0,1,.371-.89,1.283,1.283,0,0,1,.839-.306,1.283,1.283,0,0,1,.838.306A1.088,1.088,0,0,1,10.062-1.027ZM15-2.652a1.314,1.314,0,0,0-.169-.669,1.265,1.265,0,0,0-.585-.488,4.11,4.11,0,0,0-1.118-.3,12.416,12.416,0,0,0-1.768-.1q.143-1.209.234-2.457t.143-2.34h4.875v1.625h-3.25q-.026.468-.058.9t-.072.76a4.827,4.827,0,0,1,2.8.891,2.611,2.611,0,0,1,.9,2.112,2.991,2.991,0,0,1-.221,1.157,2.489,2.489,0,0,1-.663.923,3.147,3.147,0,0,1-1.112.611,5.006,5.006,0,0,1-1.566.221,6.241,6.241,0,0,1-.734-.045Q12.259.1,11.9.032t-.644-.149a2.5,2.5,0,0,1-.442-.156l.351-1.6a5.708,5.708,0,0,0,.858.28,5.19,5.19,0,0,0,1.274.136,1.934,1.934,0,0,0,1.3-.357A1.089,1.089,0,0,0,15-2.652Zm6.2-2.106,1.352-2.08h2l-2.34,3.289q.78.975,1.417,1.9A15.627,15.627,0,0,1,24.648,0h-2.08l-.26-.488q-.156-.292-.351-.611t-.41-.637q-.214-.319-.423-.579-.195.247-.4.546t-.383.6q-.182.306-.358.6T19.682,0H17.706a8.517,8.517,0,0,1,.429-.767q.273-.442.591-.917t.67-.949q.351-.474.689-.891-.585-.819-1.17-1.658L17.758-6.838h2.093ZM27.612.195a6.405,6.405,0,0,1-.741-.045Q26.481.1,26.117.026t-.663-.169a3.819,3.819,0,0,1-.468-.169l.377-1.612q.338.143.865.306a4.491,4.491,0,0,0,1.306.162,2.072,2.072,0,0,0,1.313-.338,1.112,1.112,0,0,0,.416-.91,1.1,1.1,0,0,0-.149-.592,1.143,1.143,0,0,0-.41-.39,1.819,1.819,0,0,0-.618-.208,4.71,4.71,0,0,0-.76-.059h-.754v-1.56h.858a2.879,2.879,0,0,0,.552-.052,1.475,1.475,0,0,0,.475-.175.919.919,0,0,0,.332-.338,1.069,1.069,0,0,0,.123-.54.85.85,0,0,0-.1-.429.934.934,0,0,0-.267-.3,1.162,1.162,0,0,0-.377-.175,1.648,1.648,0,0,0-.436-.059A3.06,3.06,0,0,0,26.7-7.41a4.315,4.315,0,0,0-.865.416l-.689-1.417q.208-.13.488-.273a4.811,4.811,0,0,1,.618-.26,5.643,5.643,0,0,1,.721-.195,4.071,4.071,0,0,1,.813-.078,4.444,4.444,0,0,1,1.372.188,2.578,2.578,0,0,1,.956.533,2.148,2.148,0,0,1,.559.806,2.722,2.722,0,0,1,.182,1.007,1.99,1.99,0,0,1-.3,1.034,1.972,1.972,0,0,1-.806.76,2.335,2.335,0,0,1,1.086.852,2.362,2.362,0,0,1,.384,1.359,3.1,3.1,0,0,1-.208,1.15,2.32,2.32,0,0,1-.65.91,3.119,3.119,0,0,1-1.125.6A5.425,5.425,0,0,1,27.612.195Z" transform="translate(9.921 15.525)" fill="#fff"/>
      </g>
      <g id="Group_45" data-name="Group 45" transform="translate(28.509 21.904)">
        <path id="Path_59" data-name="Path 59" d="M303.819,299.383l-103.506-1.572,2.736-27.536h108.8l1.92,19.156Z" transform="translate(-188.21 -268.355)" fill="#9fa1a4" opacity="0.5"/>
        <path id="Path_60" data-name="Path 60" d="M306.092,298.674H191.628V269.566H315.3v19.156Z" transform="translate(-191.628 -269.566)" fill="#bdd8f1"/>
        <path id="Path_61" data-name="Path 61" d="M237.8,276.64v9.951l10.056-9.951Z" transform="translate(-124.185 -257.483)" fill="#fff"/>
      </g>
      <path id="PONTO_FINAL-2" data-name="PONTO FINAL" d="M3.168-7.711a4.769,4.769,0,0,1,2.618.6A2.173,2.173,0,0,1,6.7-5.148a2.2,2.2,0,0,1-.924,1.985,4.782,4.782,0,0,1-2.64.61H2.6V0H.88V-7.513a9.708,9.708,0,0,1,1.188-.154Q2.7-7.711,3.168-7.711Zm.11,1.463q-.187,0-.369.011T2.6-6.215v2.2h.539a2.921,2.921,0,0,0,1.342-.242.93.93,0,0,0,.451-.9,1.082,1.082,0,0,0-.115-.528.878.878,0,0,0-.33-.335A1.486,1.486,0,0,0,3.96-6.2,4.315,4.315,0,0,0,3.278-6.248ZM9.5-3.817A3.465,3.465,0,0,0,9.642-2.8a2.312,2.312,0,0,0,.4.775,1.753,1.753,0,0,0,.632.5,1.993,1.993,0,0,0,.858.176,2,2,0,0,0,.852-.176,1.741,1.741,0,0,0,.638-.5,2.312,2.312,0,0,0,.4-.775,3.465,3.465,0,0,0,.137-1.012,3.521,3.521,0,0,0-.137-1.017,2.305,2.305,0,0,0-.4-.781,1.741,1.741,0,0,0-.638-.5,2,2,0,0,0-.852-.176,1.942,1.942,0,0,0-.858.182,1.808,1.808,0,0,0-.632.506,2.305,2.305,0,0,0-.4.781A3.48,3.48,0,0,0,9.5-3.817Zm5.819,0A4.691,4.691,0,0,1,15.031-2.1a3.54,3.54,0,0,1-.8,1.243,3.274,3.274,0,0,1-1.2.754,4.376,4.376,0,0,1-1.5.253A4.264,4.264,0,0,1,10.054-.1a3.389,3.389,0,0,1-1.21-.754A3.523,3.523,0,0,1,8.03-2.1a4.613,4.613,0,0,1-.3-1.721,4.466,4.466,0,0,1,.308-1.721,3.668,3.668,0,0,1,.83-1.248,3.416,3.416,0,0,1,1.21-.759A4.155,4.155,0,0,1,11.528-7.8,4.264,4.264,0,0,1,13-7.546a3.352,3.352,0,0,1,1.21.759,3.58,3.58,0,0,1,.814,1.248A4.613,4.613,0,0,1,15.323-3.817ZM21.967,0q-.737-1.309-1.6-2.585a26.271,26.271,0,0,0-1.826-2.409V0H16.852V-7.623h1.4q.363.363.8.891t.9,1.127q.457.6.907,1.243T21.7-3.124v-4.5h1.7V0Zm8.954-7.623V-6.16h-2.3V0H26.906V-6.16h-2.3V-7.623Zm2.387,3.806A3.465,3.465,0,0,0,33.445-2.8a2.312,2.312,0,0,0,.4.775,1.753,1.753,0,0,0,.632.5,1.993,1.993,0,0,0,.858.176,2,2,0,0,0,.852-.176,1.741,1.741,0,0,0,.638-.5,2.312,2.312,0,0,0,.4-.775,3.465,3.465,0,0,0,.138-1.012,3.521,3.521,0,0,0-.138-1.017,2.305,2.305,0,0,0-.4-.781,1.741,1.741,0,0,0-.638-.5,2,2,0,0,0-.852-.176,1.942,1.942,0,0,0-.858.182,1.808,1.808,0,0,0-.632.506,2.305,2.305,0,0,0-.4.781A3.48,3.48,0,0,0,33.308-3.817Zm5.819,0A4.691,4.691,0,0,1,38.835-2.1a3.54,3.54,0,0,1-.8,1.243,3.274,3.274,0,0,1-1.2.754,4.376,4.376,0,0,1-1.5.253A4.264,4.264,0,0,1,33.858-.1a3.389,3.389,0,0,1-1.21-.754A3.523,3.523,0,0,1,31.834-2.1a4.613,4.613,0,0,1-.3-1.721,4.466,4.466,0,0,1,.308-1.721,3.668,3.668,0,0,1,.83-1.248,3.415,3.415,0,0,1,1.21-.759A4.155,4.155,0,0,1,35.332-7.8a4.264,4.264,0,0,1,1.474.253,3.352,3.352,0,0,1,1.21.759,3.58,3.58,0,0,1,.814,1.248A4.613,4.613,0,0,1,39.127-3.817ZM43.4,0V-7.623h5.1v1.441H45.111v1.595h3.014v1.441H45.111V0Zm6.413-7.623h1.716V0H49.808ZM58.5,0Q57.761-1.309,56.9-2.585a26.271,26.271,0,0,0-1.826-2.409V0H53.383V-7.623h1.4q.363.363.8.891t.9,1.127q.456.6.907,1.243t.847,1.237v-4.5h1.705V0Zm8.4,0q-.121-.4-.27-.814t-.292-.836h-2.97q-.143.418-.292.836T62.81,0H61.028q.429-1.232.814-2.277T62.6-4.246q.368-.924.726-1.754t.743-1.623H65.7q.374.792.737,1.623t.731,1.754q.368.924.754,1.969T68.739,0ZM64.845-5.9q-.055.165-.165.451l-.253.66q-.143.374-.313.825t-.347.946h2.167q-.176-.5-.341-.946t-.314-.825q-.148-.374-.258-.66T64.845-5.9ZM74.921-1.474V0H69.828V-7.623h1.716v6.149Z" transform="translate(57.441 42.368)"/>
      <circle id="Ellipse_22" data-name="Ellipse 22" cx="22.782" cy="22.782" r="22.782" transform="translate(2.007 14.09)" fill="#eee9de"/>
      <path id="Path_92" data-name="Path 92" d="M181.1,290.728a24.789,24.789,0,1,1,44.143,15.492c-4.544,5.668-19.013,23.037-19.013,23.037s-15.148-17.369-19.693-23.034A24.694,24.694,0,0,1,181.1,290.728Z" transform="translate(-181.1 -253.857)" fill="#2d314e" opacity="0.92"/>
      <circle id="Ellipse_23" data-name="Ellipse 23" cx="22.782" cy="22.782" r="22.782" transform="translate(2.007 14.09)" fill="#ff8879"/>
      <path id="_04" data-name="04" d="M6.942-4.524a5.974,5.974,0,0,1-.865,3.49A2.768,2.768,0,0,1,3.692.182,2.768,2.768,0,0,1,1.307-1.033a5.974,5.974,0,0,1-.865-3.49,7.953,7.953,0,0,1,.227-2,4.408,4.408,0,0,1,.656-1.469A2.926,2.926,0,0,1,2.353-8.9a2.851,2.851,0,0,1,1.339-.312A2.768,2.768,0,0,1,6.077-8,5.948,5.948,0,0,1,6.942-4.524Zm-1.976,0A10.577,10.577,0,0,0,4.9-5.753a4.421,4.421,0,0,0-.208-.955,1.483,1.483,0,0,0-.39-.624.883.883,0,0,0-.611-.221.859.859,0,0,0-.6.221,1.573,1.573,0,0,0-.39.624,4.159,4.159,0,0,0-.214.955,10.577,10.577,0,0,0-.065,1.229,10.748,10.748,0,0,0,.065,1.235,4.167,4.167,0,0,0,.214.962,1.573,1.573,0,0,0,.39.624.859.859,0,0,0,.6.221A.883.883,0,0,0,4.3-1.7a1.483,1.483,0,0,0,.39-.624A4.428,4.428,0,0,0,4.9-3.289,10.748,10.748,0,0,0,4.966-4.524Zm6.682-2.119q-.507.663-1.079,1.443a9.909,9.909,0,0,0-.962,1.6h2.041Zm1.9-2.366V-3.6h.962v1.586h-.962V0h-1.9V-2.015H7.761V-3.432Q8.047-4,8.476-4.726t.955-1.482q.527-.761,1.112-1.489a16.252,16.252,0,0,1,1.17-1.313Z" transform="translate(17.533 43.368)" fill="#231f20"/>
    </g>
    <rect id="Rectangle_42" data-name="Rectangle 42" width="112" height="72" transform="translate(88 356)" fill="none"/>
  </g>
</svg>
