<?xml version="1.0" encoding="utf-8"?>
<!-- Generator: Adobe Illustrator 25.2.3, SVG Export Plug-In . SVG Version: 6.00 Build 0)  -->
<svg version="1.1" id="Layer_1" xmlns="http://www.w3.org/2000/svg" width="264.343" height="84.965" xmlns:xlink="http://www.w3.org/1999/xlink" x="0px" y="0px"
	 viewBox="0 0 266.3 85" style="enable-background:new 0 0 266.3 85;" xml:space="preserve">
<style type="text/css">
	.st0{opacity:0.92;fill:#2D314E;enable-background:new    ;}
	.st1{fill:none;}
	.st2{fill:#676D81;}
	.st3{fill:#681758;}
	.st4{fill:#FFFFFF;}
</style>
<g id="ponto_final" transform="translate(-88 -349.572)">
	<g id="ponto_final_novo" transform="translate(200.275 349.663)">
		<path id="Path_10" class="st0" d="M28.2,81.9c-0.1,1.7-1.6,3-3.3,2.9c-1.7-0.1-3-1.6-2.9-3.3c0.1-1.6,1.5-2.9,3.1-2.9
			C26.8,78.7,28.2,80.2,28.2,81.9L28.2,81.9z"/>
	</g>
	<rect id="Rectangle_42" x="88.1" y="356" class="st1" width="112" height="72"/>
</g>
<g>
	<g id="Layer_2_2_">
		<g id="Layer_1-2_1_">
			<g>
				<rect x="151.4" y="35.4" class="st2" width="114.2" height="27.5"/>
			</g>
			<rect x="114.9" y="35.4" class="st3" width="37.5" height="27.5"/>
			<g>
				<rect x="210.8" y="16.8" class="st3" width="54.8" height="18.6"/>
			</g>
		</g>
	</g>
	<g>
		<g>
			<path class="st4" d="M160.7,54.3V44.1h4.8c2.2,0,3.4,1.5,3.4,3.3s-1.2,3.3-3.4,3.3h-2.6v3.6C162.9,54.3,160.7,54.3,160.7,54.3z
				 M166.7,47.4c0-0.9-0.7-1.4-1.5-1.4h-2.3v2.7h2.3C166,48.7,166.7,48.2,166.7,47.4z"/>
			<path class="st4" d="M169.8,49.2c0-3.1,2.2-5.3,5.3-5.3s5.3,2.2,5.3,5.3s-2.2,5.3-5.3,5.3S169.8,52.3,169.8,49.2z M178.2,49.2
				c0-1.9-1.2-3.3-3.1-3.3c-1.9,0-3.1,1.4-3.1,3.3c0,1.9,1.2,3.3,3.1,3.3C176.9,52.5,178.2,51.1,178.2,49.2z"/>
			<path class="st4" d="M188.9,54.3l-4.8-6.6v6.6h-2.2V44.1h2.2l4.7,6.4v-6.4h2.2v10.2H188.9z"/>
			<path class="st4" d="M195.4,54.3V46h-3v-1.9h8.1V46h-3v8.3H195.4z"/>
			<path class="st4" d="M201,49.2c0-3.1,2.2-5.3,5.3-5.3s5.3,2.2,5.3,5.3s-2.2,5.3-5.3,5.3C203.3,54.5,201,52.3,201,49.2z
				 M209.4,49.2c0-1.9-1.2-3.3-3.1-3.3c-1.9,0-3.1,1.4-3.1,3.3c0,1.9,1.2,3.3,3.1,3.3S209.4,51.1,209.4,49.2z"/>
			<path class="st4" d="M217.1,54.3V44.1h7.2V46h-5v2.1h4.9V50h-4.9v4.2L217.1,54.3L217.1,54.3z"/>
			<path class="st4" d="M225.8,54.3V44.1h2.2v10.2H225.8z"/>
			<path class="st4" d="M237,54.3l-4.8-6.6v6.6H230V44.1h2.2l4.7,6.4v-6.4h2.2v10.2H237z"/>
			<path class="st4" d="M248.1,54.3l-0.6-1.7h-4.4l-0.6,1.7H240l3.9-10.2h2.7l3.9,10.2H248.1z M245.3,46.3l-1.6,4.4h3.2L245.3,46.3z
				"/>
			<path class="st4" d="M251.4,54.3V44.1h2.2v8.3h4.3v1.9H251.4z"/>
		</g>
		<g>
			<path class="st4" d="M123.6,56.5V54c6-4.4,7.8-5.9,7.8-7.7c0-1.3-1.2-1.9-2.4-1.9c-1.7,0-2.9,0.7-3.9,1.7l-1.8-2.1
				c1.4-1.7,3.6-2.4,5.7-2.4c3.1,0,5.6,1.8,5.6,4.7c0,2.5-2.1,4.7-5.9,7.5h6v2.8L123.6,56.5L123.6,56.5z"/>
			<path class="st4" d="M140.2,56.5V45.9l-2.4,2.5l-1.8-1.9l4.6-4.6h2.7v14.7h-3.1V56.5z"/>
		</g>
		<g>
			<path class="st4" d="M217,26.2c0-3.2,1.8-5.5,5-5.5c1.3,0,2.4,0.4,3.2,1.1l-1,1.7c-0.6-0.5-1.2-0.8-2.1-0.8c-1.6,0-2.7,1.3-2.7,3
				c0,0.1,0,0.1,0,0.2c0.5-0.7,1.6-1.4,2.7-1.4c1.9,0,3.6,1.2,3.6,3.5c0,2.1-1.7,3.7-4.1,3.7C218.3,31.7,217,29.2,217,26.2z
				 M223.4,28.1c0-1.1-1-1.6-2-1.6c-0.8,0-1.6,0.4-2.1,1c0.1,1,0.7,2.2,2.2,2.2C222.7,29.6,223.4,28.8,223.4,28.1z"/>
			<path class="st4" d="M226.9,30.3c0-0.7,0.6-1.3,1.3-1.3s1.3,0.6,1.3,1.3c0,0.7-0.6,1.3-1.3,1.3S226.9,31.1,226.9,30.3z"/>
			<path class="st4" d="M231,30.1l1.3-1.6c0.7,0.8,1.7,1.2,2.8,1.2c1.3,0,2-0.7,2-1.6s-0.7-1.6-1.9-1.6c-0.9,0-1.6,0.3-2.2,0.9
				l-1.6-0.4v-6.1h7.3v2h-5.1v2.6c0.5-0.5,1.4-0.9,2.4-0.9c1.8,0,3.4,1.3,3.4,3.5c0,2.3-1.7,3.7-4.3,3.7
				C233.3,31.7,232,31.1,231,30.1z"/>
			<path class="st4" d="M248,31.5l-2.7-3.9l-2.7,3.9h-2.7l3.9-5.5l-3.6-5.2h2.7l2.4,3.7l2.4-3.7h2.7l-3.6,5.2l3.9,5.5H248z"/>
			<path class="st4" d="M251,29.9l1.2-1.5c0.7,0.8,1.9,1.2,2.9,1.2c1.3,0,2-0.6,2-1.4S256.4,27,255,27c-0.4,0-1.2,0-1.3,0v-2
				c0.2,0,0.9,0,1.3,0c1.2,0,2-0.4,2-1.1c0-0.8-0.9-1.3-2-1.3c-1,0-2,0.4-2.7,1.1l-1.1-1.4c0.9-1,2.2-1.7,4.1-1.7c2.5,0,4,1.1,4,2.9
				c0,1.3-1.2,2.2-2.3,2.4c1.1,0.1,2.5,1,2.5,2.6c0,1.8-1.6,3.1-4.2,3.1C253.3,31.7,251.8,30.9,251,29.9z"/>
		</g>
	</g>
</g>
<polygon class="st3" points="114.9,62.9 130.9,73.7 123.8,59.8 "/>
</svg>
