<?xml version="1.0" encoding="utf-8"?>
<!-- Generator: Adobe Illustrator 25.2.3, SVG Export Plug-In . SVG Version: 6.00 Build 0)  -->
<svg version="1.1" id="Layer_1" xmlns="http://www.w3.org/2000/svg" width="264.343" height="84.965" xmlns:xlink="http://www.w3.org/1999/xlink" x="0px" y="0px"
	 viewBox="0 0 264.3 85" style="enable-background:new 0 0 264.3 85;" xml:space="preserve">
<style type="text/css">
	.st0{opacity:0.92;fill:#2D314E;enable-background:new    ;}
	.st1{fill:none;}
	.st2{fill:#676D81;}
	.st3{fill:#681758;}
	.st4{fill:#FFFFFF;}
</style>
<g id="ponto_final" transform="translate(-88 -349.572)">
	<g id="ponto_final_novo" transform="translate(200.275 349.663)">
		<path id="Path_10" class="st0" d="M27.2,81.6c-0.1,1.7-1.6,3-3.3,2.9c-1.7-0.1-3-1.6-2.9-3.3c0.1-1.6,1.5-2.9,3.1-2.9
			C25.8,78.4,27.2,79.9,27.2,81.6L27.2,81.6z"/>
	</g>
	<rect id="Rectangle_42" x="88.1" y="356.2" class="st1" width="111.2" height="71.5"/>
</g>
<g>
	<g id="Layer_2_2_">
		<g id="Layer_1-2_1_">
			<g>
				<rect x="150.3" y="35.4" class="st2" width="113.4" height="27.3"/>
			</g>
			<rect x="114.1" y="35.4" class="st3" width="37.2" height="27.3"/>
			<g>
				<rect x="209.3" y="17" class="st3" width="54.4" height="18.5"/>
			</g>
		</g>
	</g>
	<g>
		<g>
			<path class="st4" d="M159.5,54.2V44.1h4.8c2.2,0,3.4,1.5,3.4,3.3c0,1.8-1.2,3.3-3.4,3.3h-2.6v3.6
				C161.7,54.2,159.5,54.2,159.5,54.2z M165.5,47.3c0-0.9-0.7-1.4-1.5-1.4h-2.3v2.7h2.3C164.8,48.6,165.5,48.1,165.5,47.3z"/>
			<path class="st4" d="M168.6,49.1c0-3.1,2.2-5.3,5.3-5.3s5.3,2.2,5.3,5.3s-2.2,5.3-5.3,5.3S168.6,52.2,168.6,49.1z M176.9,49.1
				c0-1.9-1.2-3.3-3.1-3.3s-3.1,1.4-3.1,3.3s1.2,3.3,3.1,3.3C175.6,52.4,176.9,51,176.9,49.1z"/>
			<path class="st4" d="M187.5,54.2l-4.8-6.6v6.6h-2.2V44.1h2.2l4.7,6.4v-6.4h2.2v10.1H187.5z"/>
			<path class="st4" d="M194,54.2V46h-3v-1.9h8V46h-3v8.2H194z"/>
			<path class="st4" d="M199.5,49.1c0-3.1,2.2-5.3,5.3-5.3s5.3,2.2,5.3,5.3s-2.2,5.3-5.3,5.3C201.8,54.4,199.5,52.2,199.5,49.1z
				 M207.9,49.1c0-1.9-1.2-3.3-3.1-3.3c-1.9,0-3.1,1.4-3.1,3.3s1.2,3.3,3.1,3.3S207.9,51,207.9,49.1z"/>
			<path class="st4" d="M215.5,54.2V44.1h7.1V46h-5V48h4.9v1.9h-4.9v4.2L215.5,54.2L215.5,54.2z"/>
			<path class="st4" d="M224.1,54.2V44.1h2.2v10.1H224.1z"/>
			<path class="st4" d="M235.3,54.2l-4.8-6.6v6.6h-2.2V44.1h2.2l4.7,6.4v-6.4h2.2v10.1H235.3z"/>
			<path class="st4" d="M246.3,54.2l-0.6-1.7h-4.4l-0.6,1.7h-2.5l3.9-10.1h2.7l3.9,10.1H246.3z M243.5,46.3l-1.6,4.4h3.2L243.5,46.3
				z"/>
			<path class="st4" d="M249.6,54.2V44.1h2.2v8.2h4.3v1.9H249.6z"/>
		</g>
		<g>
			<path class="st4" d="M215.4,26.3c0-3.2,1.8-5.5,5-5.5c1.3,0,2.4,0.4,3.2,1.1l-1,1.7c-0.6-0.5-1.2-0.8-2.1-0.8
				c-1.6,0-2.7,1.3-2.7,3c0,0.1,0,0.1,0,0.2c0.5-0.7,1.6-1.4,2.7-1.4c1.9,0,3.6,1.2,3.6,3.5c0,2.1-1.7,3.7-4.1,3.7
				C216.7,31.8,215.4,29.3,215.4,26.3z M221.8,28.2c0-1.1-1-1.6-2-1.6c-0.8,0-1.6,0.4-2.1,1c0.1,1,0.7,2.2,2.2,2.2
				C221.1,29.7,221.8,28.9,221.8,28.2z"/>
			<path class="st4" d="M225.2,30.4c0-0.7,0.6-1.3,1.3-1.3s1.3,0.6,1.3,1.3c0,0.7-0.6,1.3-1.3,1.3S225.2,31.2,225.2,30.4z"/>
			<path class="st4" d="M229.3,30.2l1.3-1.6c0.7,0.8,1.7,1.2,2.8,1.2c1.3,0,2-0.7,2-1.6c0-0.9-0.7-1.6-1.9-1.6
				c-0.9,0-1.6,0.3-2.2,0.9l-1.6-0.4V21h7.2v2h-5.1v2.6c0.5-0.5,1.4-0.9,2.4-0.9c1.8,0,3.4,1.3,3.4,3.5c0,2.3-1.7,3.7-4.3,3.7
				C231.6,31.8,230.3,31.2,229.3,30.2z"/>
			<path class="st4" d="M246.2,31.6l-2.7-3.9l-2.7,3.9h-2.7l3.9-5.5l-3.6-5.2h2.7l2.4,3.7l2.4-3.7h2.7l-3.6,5.2l3.9,5.5H246.2z"/>
			<path class="st4" d="M249.2,30l1.2-1.5c0.7,0.8,1.9,1.2,2.9,1.2c1.3,0,2-0.6,2-1.4s-0.7-1.2-2.1-1.2c-0.4,0-1.2,0-1.3,0v-2
				c0.2,0,0.9,0,1.3,0c1.2,0,2-0.4,2-1.1c0-0.8-0.9-1.3-2-1.3c-1,0-2,0.4-2.7,1.1l-1.1-1.4c0.9-1,2.2-1.7,4.1-1.7c2.5,0,4,1.1,4,2.9
				c0,1.3-1.2,2.2-2.3,2.4c1.1,0.1,2.5,1,2.5,2.6c0,1.8-1.6,3.1-4.2,3.1C251.4,31.8,249.9,31,249.2,30z"/>
		</g>
	</g>
</g>
<polygon class="st3" points="114.1,62.7 129.9,73.5 122.9,59.7 "/>
<g>
	<path class="st4" d="M119.5,48.6c0-3.8,1.9-7.6,6.1-7.6c4.2,0,6.1,3.8,6.1,7.6s-1.9,7.6-6.1,7.6C121.4,56.2,119.5,52.4,119.5,48.6z
		 M128.5,48.6c0-2.7-0.8-4.8-2.9-4.8c-2.1,0-2.9,2.1-2.9,4.8s0.8,4.8,2.9,4.8C127.7,53.4,128.5,51.3,128.5,48.6z"/>
	<path class="st4" d="M140,56v-3h-7v-2.5l5.8-9.2h4.3v8.9h1.9v2.8h-1.9v3H140z M140,44.1l-4,6.1h4V44.1z"/>
</g>
</svg>
