<svg xmlns="http://www.w3.org/2000/svg" width="140" height="95.826" viewBox="0 0 65.33 27.82"><defs><style>.cls-1{fill:#676d81;}.cls-2{fill:#fff;}.cls-3{fill:#681758;}.cls-4{fill:#2d314e;}</style></defs><g id="Layer_2" data-name="Layer 2"><g id="Layer_1-2" data-name="Layer 1"><rect class="cls-1" x="9.21" y="6" width="56.12" height="12.24" rx="2.75"/><path class="cls-2" d="M24.05,14.17v-3.5H25.8a1.13,1.13,0,1,1,0,2.25h-.95v1.25Zm2.2-2.37c0-.3-.25-.47-.56-.47h-.84v.94h.84A.5.5,0,0,0,26.25,11.8Z"/><path class="cls-2" d="M27.43,12.42a2,2,0,1,1,2,1.82A1.82,1.82,0,0,1,27.43,12.42Zm3.09,0a1.14,1.14,0,1,0-1.13,1.15A1.09,1.09,0,0,0,30.52,12.42Z"/><path class="cls-2" d="M34.53,14.17l-1.79-2.28v2.28H32v-3.5h.82l1.73,2.2v-2.2h.8v3.5Z"/><path class="cls-2" d="M37,14.17V11.33H35.86v-.66h3v.66H37.75v2.84Z"/><path class="cls-2" d="M39.22,12.42a2,2,0,1,1,2,1.82A1.83,1.83,0,0,1,39.22,12.42Zm3.09,0a1.14,1.14,0,1,0-1.13,1.15A1.09,1.09,0,0,0,42.31,12.42Z"/><path class="cls-2" d="M45.23,14.17v-3.5h2.65v.66H46v.73h1.81v.66H46v1.45Z"/><path class="cls-2" d="M48.48,14.17v-3.5h.8v3.5Z"/><path class="cls-2" d="M52.65,14.17l-1.79-2.28v2.28h-.79v-3.5h.82l1.73,2.2v-2.2h.8v3.5Z"/><path class="cls-2" d="M56.79,14.17l-.23-.59H55l-.23.59h-.91l1.44-3.5h1l1.45,3.5Zm-1-2.75-.58,1.5h1.17Z"/><path class="cls-2" d="M58.06,14.17v-3.5h.8v2.85h1.58v.65Z"/><rect class="cls-3" x="1.8" y="3.77" width="16.7" height="16.7" rx="4" transform="translate(-5.6 10.73) rotate(-45)"/><path class="cls-2" d="M5.79,15V14c2.6-1.92,3.36-2.57,3.36-3.35,0-.56-.51-.83-1-.83a2.28,2.28,0,0,0-1.7.73l-.78-.89a3.27,3.27,0,0,1,2.45-1,2.15,2.15,0,0,1,2.43,2c0,1.08-.9,2-2.54,3.23h2.59V15Z"/><path class="cls-2" d="M13,15V10.42l-1.05,1.07-.77-.8,2-2h1.19V15Z"/><path class="cls-4" d="M8.61,26.41A1.74,1.74,0,0,1,10,24.26a1.93,1.93,0,0,1,2.27,1.35,1.76,1.76,0,0,1-1.35,2.16,1.92,1.92,0,0,1-2.27-1.36"/><rect class="cls-3" x="40.33" width="25" height="8.28" rx="0.98"/><path class="cls-2" d="M43.35,4.28A2.08,2.08,0,0,1,45.53,2a2.22,2.22,0,0,1,1.39.45l-.45.72a1.27,1.27,0,0,0-.94-.35,1.18,1.18,0,0,0-1.17,1.24.34.34,0,0,0,0,.1,1.55,1.55,0,0,1,1.2-.57A1.45,1.45,0,0,1,47.17,5a1.61,1.61,0,0,1-1.8,1.5C44,6.54,43.35,5.51,43.35,4.28Zm2.8.79c0-.46-.42-.66-.86-.66a1.19,1.19,0,0,0-.92.42.9.9,0,0,0,1,.88C45.86,5.71,46.15,5.37,46.15,5.07Z"/><path class="cls-2" d="M47.77,6a.57.57,0,1,1,.57.53A.56.56,0,0,1,47.77,6Z"/><path class="cls-2" d="M49.64,5.88l.56-.65a1.73,1.73,0,0,0,1.24.48c.55,0,.87-.29.87-.65s-.31-.65-.84-.65a1.42,1.42,0,0,0-1,.36l-.69-.18V2.08H53V2.9H50.79V4a1.52,1.52,0,0,1,1-.36A1.42,1.42,0,0,1,53.32,5c0,.93-.74,1.52-1.87,1.52A2.42,2.42,0,0,1,49.64,5.88Z"/><path class="cls-2" d="M57.14,6.46,56,4.86l-1.18,1.6H53.6l1.7-2.24L53.71,2.08h1.18L56,3.58,57,2.08h1.2l-1.6,2.13,1.7,2.25Z"/><path class="cls-2" d="M58.51,5.84,59,5.21a1.85,1.85,0,0,0,1.28.5c.57,0,.89-.23.89-.56s-.29-.5-1-.5h-.58V3.82h.58c.52,0,.88-.15.88-.47s-.39-.52-.88-.52a1.74,1.74,0,0,0-1.19.46l-.5-.59A2.38,2.38,0,0,1,60.36,2c1.1,0,1.77.46,1.77,1.19a1.09,1.09,0,0,1-1,1,1.15,1.15,0,0,1,1.09,1c0,.76-.72,1.29-1.84,1.29A2.44,2.44,0,0,1,58.51,5.84Z"/></g></g></svg>