<?xml version="1.0" encoding="utf-8"?>
<!-- Generator: Adobe Illustrator 25.2.3, SVG Export Plug-In . SVG Version: 6.00 Build 0)  -->
<svg version="1.1" id="Layer_1" xmlns="http://www.w3.org/2000/svg" width="264.343" height="84.965" xmlns:xlink="http://www.w3.org/1999/xlink" x="0px" y="0px"
	 viewBox="0 0 264.3 85" style="enable-background:new 0 0 264.3 85;" xml:space="preserve">
<style type="text/css">
	.st0{fill:#676D81;}
	.st1{fill:#681758;}
	.st2{fill:#FFFFFF;stroke:#FFFFFF;stroke-width:0.4996;stroke-miterlimit:9.9918;}
	.st3{fill:#FFFFFF;stroke:#FFFFFF;stroke-width:0.6994;stroke-miterlimit:9.9918;}
	.st4{fill:#FFFFFF;}
	.st5{opacity:0.92;fill:#2D314E;enable-background:new    ;}
	.st6{fill:none;}
</style>
<g>
	<g id="Layer_2_2_">
		<g id="Layer_1-2_1_">
			<g>
				<rect x="166.3" y="40.4" class="st0" width="94.2" height="22.7"/>
			</g>
			<rect x="136.2" y="40.4" class="st1" width="30.9" height="22.7"/>
			<g>
				<rect x="215.3" y="25.1" class="st1" width="45.2" height="15.4"/>
			</g>
		</g>
	</g>
</g>
<g>
	<g>
		<path class="st2" d="M175.4,56h-1.1v-8.6h3.5c0.8,0,1.5,0.2,2,0.7c0.5,0.5,0.7,1.1,0.7,1.8c0,0.7-0.2,1.3-0.7,1.8
			c-0.5,0.5-1.2,0.7-2,0.7h-2.4V56z M177.7,51.6c0.5,0,0.9-0.2,1.2-0.5c0.3-0.3,0.5-0.7,0.5-1.2s-0.2-0.9-0.5-1.2
			c-0.3-0.3-0.7-0.5-1.2-0.5h-2.2v3.2L177.7,51.6L177.7,51.6z"/>
		<path class="st2" d="M188.9,54.9c-0.8,0.8-1.8,1.2-3.1,1.2c-1.2,0-2.2-0.4-3.1-1.2c-0.8-0.8-1.2-1.9-1.2-3.2
			c0-1.2,0.4-2.3,1.2-3.2c0.8-0.8,1.8-1.2,3.1-1.2c1.2,0,2.2,0.4,3.1,1.2c0.8,0.8,1.2,1.9,1.2,3.2C190.1,53,189.7,54,188.9,54.9z
			 M185.9,55.1c0.9,0,1.7-0.3,2.3-1c0.6-0.7,0.9-1.5,0.9-2.5s-0.3-1.8-0.9-2.5c-0.6-0.7-1.3-1-2.3-1c-0.9,0-1.7,0.3-2.3,1
			c-0.6,0.7-0.8,1.5-0.8,2.5s0.2,1.8,0.8,2.5C184.1,54.8,184.9,55.1,185.9,55.1z"/>
		<path class="st2" d="M198.9,56h-1l-5-6.8V56h-1.2v-8.6h1.1l5,6.7v-6.7h1.1L198.9,56L198.9,56z"/>
		<path class="st2" d="M204,56h-1v-7.6h-2.7v-0.9h6.5v0.9H204V56L204,56z"/>
		<path class="st2" d="M214.8,54.9c-0.8,0.8-1.8,1.2-3.1,1.2c-1.2,0-2.2-0.4-3.1-1.2c-0.8-0.8-1.2-1.9-1.2-3.2
			c0-1.2,0.4-2.3,1.2-3.2c0.8-0.8,1.8-1.2,3.1-1.2c1.2,0,2.2,0.4,3.1,1.2c0.8,0.8,1.2,1.9,1.2,3.2C216.1,53,215.7,54,214.8,54.9z
			 M211.8,55.1c0.9,0,1.7-0.3,2.3-1c0.6-0.7,0.9-1.5,0.9-2.5s-0.3-1.8-0.9-2.5c-0.6-0.7-1.3-1-2.3-1c-0.9,0-1.7,0.3-2.3,1
			c-0.6,0.7-0.8,1.5-0.8,2.5s0.2,1.8,0.8,2.5C210.1,54.8,210.9,55.1,211.8,55.1z"/>
		<path class="st2" d="M222.1,56H221v-8.6h5.6v0.9H222V51h4.5v1H222L222.1,56L222.1,56z"/>
		<path class="st2" d="M229.2,56h-1.1v-8.6h1.1V56z"/>
		<path class="st2" d="M238.3,56h-1l-5-6.8V56h-1.1v-8.6h1.1l5,6.7v-6.7h1.1L238.3,56L238.3,56z"/>
		<path class="st2" d="M247.6,56h-1.2l-0.7-1.9h-4.2l-0.7,1.9h-1.2l3.5-8.6h1.3L247.6,56z M245.4,53.1l-1.8-4.6l-1.8,4.6H245.4z"/>
		<path class="st2" d="M253.7,56h-5.1v-8.6h1.1V55h4V56z"/>
	</g>
	<g>
		<path class="st3" d="M148.4,55.8c-0.5,0-1-0.2-1.4-0.4c-0.4-0.2-0.8-0.5-1-1c-0.3-0.4-0.4-0.8-0.5-1.3c-0.2-0.4-0.2-1-0.2-1.4
			s0.1-1,0.2-1.4c0.2-0.4,0.3-0.9,0.5-1.3c0.2-0.4,0.5-0.8,1-1c0.4-0.2,0.8-0.4,1.4-0.4c0.6,0,1,0.2,1.4,0.4c0.4,0.2,0.8,0.5,1,1
			c0.2,0.4,0.4,0.8,0.5,1.3c0.2,0.4,0.2,1,0.2,1.4s-0.1,1-0.2,1.4c-0.2,0.4-0.3,0.9-0.5,1.3s-0.5,0.8-1,1
			C149.4,55.6,148.9,55.8,148.4,55.8z M147.3,54.4c0.3,0.3,0.8,0.4,1.2,0.4c0.4,0,0.8-0.2,1.2-0.4c0.3-0.3,0.5-0.8,0.7-1.2
			s0.2-1,0.2-1.6c0-0.6-0.1-1.1-0.2-1.6c-0.2-0.4-0.3-0.8-0.7-1.2c-0.3-0.3-0.8-0.4-1.2-0.4c-0.4,0-0.8,0.2-1.2,0.4
			c-0.3,0.3-0.5,0.8-0.7,1.2c-0.2,0.4-0.2,1-0.2,1.6c0,0.6,0.1,1.1,0.2,1.6C146.7,53.6,146.9,54.1,147.3,54.4z"/>
		<path class="st3" d="M157.2,55.5h-1v-2h-3.8v-0.8l3.4-5.1h1.3v5.1h1.1v0.8h-1.1L157.2,55.5L157.2,55.5z M156.2,52.7v-4.2l-2.8,4.2
			H156.2z"/>
	</g>
	<g>
		<path class="st4" d="M225,37.1c-0.6,0-1.1-0.1-1.5-0.3c-0.4-0.2-0.7-0.6-1-1c-0.2-0.4-0.4-0.9-0.6-1.4c-0.2-0.5-0.2-1.1-0.2-1.7
			c0-1.2,0.3-2.3,0.9-3.2c0.6-0.8,1.5-1.2,2.6-1.2c1,0,1.7,0.3,2.4,1l-0.6,0.8c-0.5-0.6-1.1-0.9-1.8-0.9s-1.4,0.3-1.8,1
			c-0.4,0.7-0.7,1.5-0.7,2.4V33c0.2-0.3,0.6-0.7,1-0.9c0.4-0.2,0.9-0.4,1.4-0.4c0.8,0,1.5,0.2,2,0.7c0.5,0.5,0.8,1.2,0.8,2
			c0,0.7-0.2,1.4-0.8,2C226.5,37,225.8,37.1,225,37.1z M224.9,36.2c0.6,0,1.1-0.2,1.4-0.6c0.3-0.4,0.5-0.8,0.5-1.2
			c0-0.6-0.2-1.1-0.6-1.4c-0.3-0.3-0.8-0.5-1.4-0.5c-0.4,0-0.8,0.1-1.2,0.3c-0.4,0.2-0.7,0.6-0.9,0.9c0.1,0.7,0.2,1.2,0.6,1.7
			C223.7,36,224.2,36.2,224.9,36.2z"/>
		<path class="st4" d="M230.5,37c-0.2,0.2-0.3,0.2-0.5,0.2c-0.2,0-0.3-0.1-0.5-0.2c-0.2-0.1-0.2-0.3-0.2-0.5c0-0.2,0.1-0.3,0.2-0.5
			c0.1-0.2,0.3-0.2,0.5-0.2c0.2,0,0.3,0.1,0.5,0.2c0.2,0.1,0.2,0.3,0.2,0.5C230.8,36.6,230.7,36.8,230.5,37z"/>
		<path class="st4" d="M235.4,37.1c-1.3,0-2.3-0.5-3-1.4l0.7-0.7c0.6,0.7,1.4,1.2,2.4,1.2c0.6,0,1.1-0.2,1.4-0.5
			c0.3-0.3,0.6-0.8,0.6-1.3c0-0.6-0.2-1-0.6-1.3c-0.4-0.3-0.8-0.5-1.4-0.5c-0.7,0-1.4,0.2-2,0.8l-0.7-0.2v-4.6h5.2v0.9h-4.2v3
			c0.5-0.5,1.2-0.7,2-0.7c0.7,0,1.4,0.2,1.9,0.7c0.5,0.5,0.8,1.2,0.8,2c0,0.8-0.2,1.5-0.8,2.1C237,36.9,236.3,37.1,235.4,37.1z"/>
		<path class="st4" d="M247.4,37h-1.3l-2.7-3.7l-2.7,3.7h-1.3l3.3-4.4l-3.2-4.2h1.3l2.6,3.4l2.6-3.4h1.3l-3.2,4.2L247.4,37z"/>
		<path class="st4" d="M251,37.1c-0.7,0-1.3-0.2-1.8-0.4c-0.5-0.2-0.9-0.6-1.2-1l0.7-0.7c0.2,0.3,0.6,0.6,1,0.8
			c0.4,0.2,0.9,0.3,1.4,0.3c0.6,0,1.1-0.2,1.5-0.4c0.3-0.3,0.6-0.7,0.6-1.2s-0.2-0.9-0.6-1.2c-0.4-0.2-0.9-0.3-1.6-0.3
			c-0.5,0-0.8,0-0.9,0v-1c0.1,0,0.4,0,0.9,0c0.6,0,1.1-0.1,1.4-0.3c0.4-0.2,0.6-0.6,0.6-1.1c0-0.4-0.2-0.8-0.6-1.1
			c-0.3-0.2-0.8-0.4-1.4-0.4c-0.8,0-1.7,0.3-2.2,1.1l-0.6-0.7c0.7-0.9,1.7-1.3,2.9-1.3c0.8,0,1.6,0.2,2.1,0.6c0.6,0.4,0.8,1,0.8,1.7
			c0,0.6-0.2,1-0.6,1.3c-0.4,0.3-0.8,0.6-1.2,0.7c0.5,0.1,0.9,0.2,1.3,0.7c0.4,0.4,0.7,0.8,0.7,1.5s-0.2,1.3-0.8,1.7
			C252.6,37,251.9,37.1,251,37.1z"/>
	</g>
</g>
<g id="ponto_final" transform="translate(-88 -349.572)">
	<g id="ponto_final_novo" transform="translate(200.275 349.663)">
		<path id="Path_10" class="st5" d="M27.2,81.6c-0.1,1.7-1.6,3-3.3,2.9c-1.7-0.1-3-1.6-2.9-3.3c0.1-1.6,1.5-2.9,3.1-2.9
			C25.8,78.4,27.2,79.9,27.2,81.6L27.2,81.6z"/>
	</g>
	<rect id="Rectangle_42" x="88.5" y="356.2" class="st6" width="111.2" height="71.5"/>
</g>
<polygon class="st1" points="136.2,63 136.2,72 143.5,60.5 "/>
</svg>
