<?xml version="1.0" encoding="utf-8"?>
<!-- Generator: Adobe Illustrator 25.2.3, SVG Export Plug-In . SVG Version: 6.00 Build 0)  -->
<svg version="1.1" id="Layer_1" xmlns="http://www.w3.org/2000/svg" width="264.343" height="84.965" xmlns:xlink="http://www.w3.org/1999/xlink" x="0px" y="0px"
	 viewBox="0 0 264.3 85" style="enable-background:new 0 0 264.3 85;" xml:space="preserve">
<style type="text/css">
	.st0{fill:#676D81;}
	.st1{fill:#681758;}
	.st2{fill:#FFFFFF;}
	.st3{opacity:0.92;fill:#2D314E;enable-background:new    ;}
	.st4{fill:none;}
</style>
<g>
	<g id="Layer_2_2_">
		<g id="Layer_1-2_1_">
			<g>
				<rect x="150.3" y="35.4" class="st0" width="113.4" height="27.3"/>
			</g>
			<rect x="114.1" y="35.4" class="st1" width="37.2" height="27.3"/>
			<g>
				<rect x="209.3" y="17" class="st1" width="54.4" height="18.5"/>
			</g>
		</g>
	</g>
</g>
<g>
	<g>
		<path class="st2" d="M161.3,54.2h-1.3V43.9h4.2c1,0,1.8,0.3,2.4,0.9c0.6,0.6,0.9,1.3,0.9,2.2s-0.3,1.6-0.9,2.2
			c-0.6,0.6-1.4,0.9-2.4,0.9h-2.9V54.2z M164.1,48.9c0.6,0,1.1-0.2,1.5-0.6c0.4-0.4,0.6-0.8,0.6-1.4s-0.2-1.1-0.6-1.4
			c-0.4-0.4-0.9-0.6-1.5-0.6h-2.7v3.9H164.1z"/>
		<path class="st2" d="M177.6,52.9c-1,1-2.2,1.5-3.7,1.5s-2.7-0.5-3.7-1.5c-1-1-1.4-2.3-1.4-3.8c0-1.5,0.5-2.8,1.4-3.8
			c1-1,2.2-1.5,3.7-1.5s2.7,0.5,3.7,1.5c1,1,1.4,2.3,1.4,3.8C179,50.6,178.5,51.8,177.6,52.9z M173.9,53.2c1.1,0,2.1-0.4,2.8-1.2
			c0.7-0.8,1.1-1.8,1.1-3c0-1.2-0.4-2.2-1.1-3c-0.7-0.8-1.6-1.2-2.8-1.2c-1.1,0-2.1,0.4-2.8,1.2s-1,1.8-1,3c0,1.2,0.3,2.2,1,3
			C171.8,52.8,172.7,53.2,173.9,53.2z"/>
		<path class="st2" d="M189.6,54.2h-1.2l-6-8.2v8.2H181V43.9h1.3l6,8.1v-8.1h1.3V54.2z"/>
		<path class="st2" d="M195.8,54.2h-1.3V45h-3.3v-1.1h7.8V45h-3.3V54.2z"/>
		<path class="st2" d="M208.8,52.9c-1,1-2.2,1.5-3.7,1.5s-2.7-0.5-3.7-1.5c-1-1-1.4-2.3-1.4-3.8c0-1.5,0.5-2.8,1.4-3.8
			c1-1,2.2-1.5,3.7-1.5s2.7,0.5,3.7,1.5c1,1,1.4,2.3,1.4,3.8C210.3,50.6,209.8,51.8,208.8,52.9z M205.1,53.2c1.1,0,2.1-0.4,2.8-1.2
			c0.7-0.8,1.1-1.8,1.1-3c0-1.2-0.4-2.2-1.1-3c-0.7-0.8-1.6-1.2-2.8-1.2c-1.1,0-2.1,0.4-2.8,1.2s-1,1.8-1,3c0,1.2,0.3,2.2,1,3
			C203.1,52.8,204,53.2,205.1,53.2z"/>
		<path class="st2" d="M217.6,54.2h-1.3V43.9h6.8V45h-5.5v3.3h5.4v1.1h-5.4V54.2z"/>
		<path class="st2" d="M226.1,54.2h-1.3V43.9h1.3V54.2z"/>
		<path class="st2" d="M237.1,54.2h-1.2l-6-8.2v8.2h-1.3V43.9h1.3l6,8.1v-8.1h1.3V54.2z"/>
		<path class="st2" d="M248.3,54.2h-1.5l-0.9-2.3h-5.1l-0.9,2.3h-1.5l4.2-10.3h1.6L248.3,54.2z M245.6,50.7l-2.2-5.6l-2.2,5.6H245.6
			z"/>
		<path class="st2" d="M255.6,54.2h-6.1V43.9h1.3V53h4.8V54.2z"/>
	</g>
	<g>
		<path class="st2" d="M126.6,56.6c-1,0-1.8-0.2-2.6-0.7c-0.7-0.4-1.3-1-1.8-1.8s-0.8-1.6-1-2.4c-0.2-0.9-0.3-1.8-0.3-2.7
			s0.1-1.8,0.3-2.7c0.2-0.9,0.5-1.7,1-2.4c0.4-0.7,1-1.3,1.8-1.8c0.7-0.4,1.6-0.7,2.6-0.7c1,0,1.8,0.2,2.6,0.7
			c0.7,0.4,1.3,1,1.8,1.8c0.4,0.7,0.8,1.5,1,2.4c0.2,0.9,0.3,1.8,0.3,2.7s-0.1,1.8-0.3,2.7c-0.2,0.9-0.5,1.7-1,2.4s-1,1.3-1.8,1.8
			S127.5,56.6,126.6,56.6z M124.4,54.1c0.6,0.6,1.3,0.9,2.2,0.9c0.9,0,1.6-0.3,2.2-0.9c0.6-0.6,1-1.3,1.2-2.2
			c0.2-0.9,0.3-1.8,0.3-2.9c0-1.1-0.1-2-0.3-2.9c-0.2-0.9-0.6-1.6-1.2-2.2c-0.6-0.6-1.3-0.9-2.2-0.9c-0.9,0-1.6,0.3-2.2,0.9
			c-0.6,0.6-1,1.3-1.2,2.2c-0.2,0.9-0.3,1.8-0.3,2.9c0,1.1,0.1,2,0.3,2.9C123.4,52.7,123.8,53.5,124.4,54.1z"/>
		<path class="st2" d="M142.8,56.3H141v-3.7h-7v-1.5l6.3-9.4h2.5V51h2.1v1.6h-2.1V56.3z M141,51v-7.7l-5.1,7.7H141z"/>
	</g>
	<g>
		<path class="st2" d="M221,31.5c-0.7,0-1.3-0.1-1.8-0.4c-0.5-0.3-0.9-0.7-1.2-1.2s-0.5-1.1-0.7-1.7c-0.2-0.6-0.2-1.3-0.2-2
			c0-1.5,0.4-2.8,1.1-3.8c0.7-1,1.8-1.5,3.1-1.5c1.2,0,2.1,0.4,2.9,1.2l-0.7,1c-0.6-0.7-1.3-1.1-2.2-1.1c-0.9,0-1.7,0.4-2.2,1.2
			c-0.5,0.8-0.8,1.8-0.8,2.9v0.4c0.3-0.4,0.7-0.8,1.2-1.1c0.5-0.3,1.1-0.5,1.7-0.5c1,0,1.8,0.3,2.4,0.9c0.6,0.6,1,1.4,1,2.4
			c0,0.9-0.3,1.7-1,2.4S222,31.5,221,31.5z M220.9,30.4c0.7,0,1.3-0.2,1.7-0.7c0.4-0.5,0.6-1,0.6-1.5c0-0.7-0.2-1.3-0.7-1.7
			c-0.4-0.4-1-0.6-1.7-0.6c-0.5,0-1,0.1-1.5,0.4s-0.8,0.7-1.1,1.1c0.1,0.8,0.3,1.4,0.7,2C219.5,30.1,220.1,30.4,220.9,30.4z"/>
		<path class="st2" d="M227.7,31.3c-0.2,0.2-0.4,0.2-0.6,0.2c-0.2,0-0.4-0.1-0.6-0.2s-0.2-0.4-0.2-0.6c0-0.2,0.1-0.4,0.2-0.6
			s0.4-0.2,0.6-0.2c0.2,0,0.4,0.1,0.6,0.2s0.2,0.4,0.2,0.6C228,30.9,227.9,31.1,227.7,31.3z"/>
		<path class="st2" d="M233.6,31.5c-1.6,0-2.8-0.6-3.6-1.7l0.8-0.9c0.7,0.9,1.7,1.4,2.9,1.4c0.7,0,1.3-0.2,1.7-0.6s0.7-1,0.7-1.6
			c0-0.7-0.2-1.2-0.7-1.6s-1-0.6-1.7-0.6c-0.9,0-1.7,0.3-2.4,1l-0.9-0.3V21h6.3v1.1h-5v3.6c0.6-0.6,1.4-0.9,2.4-0.9
			c0.9,0,1.7,0.3,2.3,0.9c0.6,0.6,1,1.4,1,2.4c0,1-0.3,1.8-1,2.5C235.5,31.2,234.6,31.5,233.6,31.5z"/>
		<path class="st2" d="M248,31.4h-1.6l-3.3-4.4l-3.3,4.4h-1.6l4-5.3l-3.8-5h1.6l3.1,4.1l3.1-4.1h1.6l-3.8,5L248,31.4z"/>
		<path class="st2" d="M252.3,31.5c-0.8,0-1.6-0.2-2.2-0.5c-0.6-0.3-1.1-0.7-1.5-1.2l0.8-0.8c0.3,0.4,0.7,0.7,1.2,1
			c0.5,0.2,1.1,0.4,1.7,0.4c0.7,0,1.3-0.2,1.8-0.5c0.4-0.4,0.7-0.8,0.7-1.4c0-0.6-0.2-1.1-0.7-1.4c-0.5-0.3-1.1-0.4-1.9-0.4
			c-0.6,0-1,0-1.1,0v-1.2c0.1,0,0.5,0,1.1,0c0.7,0,1.3-0.1,1.7-0.4c0.5-0.3,0.7-0.7,0.7-1.3c0-0.5-0.2-1-0.7-1.3
			c-0.4-0.3-1-0.5-1.7-0.5c-1,0-2,0.4-2.7,1.3l-0.7-0.8c0.9-1.1,2.1-1.6,3.5-1.6c1,0,1.9,0.2,2.5,0.7c0.7,0.5,1,1.2,1,2
			c0,0.7-0.2,1.2-0.7,1.6c-0.5,0.4-1,0.7-1.5,0.8c0.6,0.1,1.1,0.3,1.6,0.8s0.8,1,0.8,1.8c0,0.9-0.3,1.6-1,2.1
			C254.3,31.3,253.4,31.5,252.3,31.5z"/>
	</g>
</g>
<g id="ponto_final" transform="translate(-88 -349.572)">
	<g id="ponto_final_novo" transform="translate(200.275 349.663)">
		<path id="Path_10" class="st3" d="M27.2,81.6c-0.1,1.7-1.6,3-3.3,2.9c-1.7-0.1-3-1.6-2.9-3.3c0.1-1.6,1.5-2.9,3.1-2.9
			C25.8,78.4,27.2,79.9,27.2,81.6L27.2,81.6z"/>
	</g>
	<rect id="Rectangle_42" x="88.2" y="356.2" class="st4" width="111.2" height="71.5"/>
</g>
<polygon class="st1" points="114.1,62.7 129.9,73.5 122.9,59.7 "/>
</svg>
