<?xml version="1.0" encoding="utf-8"?>
<!-- Generator: Adobe Illustrator 25.2.3, SVG Export Plug-In . SVG Version: 6.00 Build 0)  -->
<svg version="1.1" id="Layer_1" xmlns="http://www.w3.org/2000/svg"  width="169.418" height="80.059" xmlns:xlink="http://www.w3.org/1999/xlink" x="0px" y="0px"
	 viewBox="0 0 169.4 80.1" style="enable-background:new 0 0 169.4 80.1;" xml:space="preserve">
<style type="text/css">
	.st0{fill:#676D81;}
	.st1{fill:#681758;}
	.st2{fill:#FFFFFF;}
	.st3{opacity:0.92;fill:#2D314E;enable-background:new    ;}
	.st4{fill:none;}
</style>
<g>
	<g id="Layer_2_1_">
		<g id="Layer_1-2">
			<g>
				<rect x="75" y="23.9" class="st0" width="94.4" height="27.5"/>
			</g>
			<rect x="38.6" y="23.9" class="st1" width="37.5" height="27.5"/>
			<g>
				<rect x="122.1" y="5.4" class="st1" width="47.3" height="18.6"/>
			</g>
		</g>
	</g>
</g>
<g>
	<g>
		<path class="st2" d="M109.6,42.8h-1.5l-2.6-4.1h-2.1v4.1h-1.3V32.5h4.2c1,0,1.7,0.3,2.3,0.9c0.6,0.6,0.9,1.3,0.9,2.3
			c0,0.9-0.3,1.6-0.8,2.1c-0.5,0.5-1.2,0.8-1.9,0.9L109.6,42.8z M106.1,37.6c0.6,0,1.1-0.2,1.5-0.6c0.4-0.4,0.6-0.8,0.6-1.4
			c0-0.6-0.2-1.1-0.6-1.4c-0.4-0.4-0.9-0.5-1.5-0.5h-2.7v4H106.1z"/>
		<path class="st2" d="M120,41.5c-1,1-2.2,1.5-3.7,1.5s-2.7-0.5-3.7-1.5c-1-1-1.4-2.3-1.4-3.8c0-1.5,0.5-2.8,1.4-3.8
			c1-1,2.2-1.5,3.7-1.5s2.7,0.5,3.7,1.5c1,1,1.4,2.3,1.4,3.8C121.4,39.2,121,40.5,120,41.5z M116.3,41.8c1.1,0,2.1-0.4,2.8-1.2
			c0.7-0.8,1.1-1.8,1.1-3c0-1.2-0.4-2.2-1.1-3c-0.7-0.8-1.6-1.2-2.8-1.2c-1.1,0-2.1,0.4-2.8,1.2c-0.7,0.8-1,1.8-1,3
			c0,1.2,0.3,2.2,1,3C114.2,41.4,115.1,41.8,116.3,41.8z"/>
		<path class="st2" d="M132,42.8h-1.2l-6-8.2v8.2h-1.3V32.5h1.3l6,8.1v-8.1h1.3V42.8z"/>
		<path class="st2" d="M135.7,42.8h-1.3V32.5h1.3V42.8z"/>
		<path class="st2" d="M144,42.8h-6.1V32.5h1.3v9.2h4.8V42.8z"/>
	</g>
	<g>
		<path class="st2" d="M50.9,45.3c-1,0-1.8-0.2-2.6-0.7c-0.7-0.4-1.3-1-1.8-1.8s-0.8-1.6-1-2.4c-0.2-0.9-0.3-1.8-0.3-2.7
			s0.1-1.8,0.3-2.7c0.2-0.9,0.5-1.7,1-2.4s1-1.3,1.8-1.8c0.7-0.4,1.6-0.7,2.6-0.7c1,0,1.8,0.2,2.6,0.7c0.7,0.4,1.3,1,1.8,1.8
			s0.8,1.5,1,2.4c0.2,0.9,0.3,1.8,0.3,2.7s-0.1,1.8-0.3,2.7c-0.2,0.9-0.5,1.7-1,2.4s-1,1.3-1.8,1.8S51.9,45.3,50.9,45.3z M48.7,42.7
			c0.6,0.6,1.3,0.9,2.2,0.9c0.9,0,1.6-0.3,2.2-0.9c0.6-0.6,1-1.3,1.2-2.2c0.2-0.9,0.3-1.8,0.3-2.9c0-1.1-0.1-2-0.3-2.9
			c-0.2-0.9-0.6-1.6-1.2-2.2c-0.6-0.6-1.3-0.9-2.2-0.9c-0.9,0-1.6,0.3-2.2,0.9c-0.6,0.6-1,1.3-1.2,2.2c-0.2,0.9-0.3,1.8-0.3,2.9
			c0,1.1,0.1,2,0.3,2.9C47.7,41.4,48.1,42.1,48.7,42.7z"/>
		<path class="st2" d="M68.9,45H58.8v-1.5c3-2.3,5.1-4.2,6.3-5.4c1.2-1.3,1.8-2.5,1.8-3.7c0-0.9-0.3-1.5-0.9-2
			c-0.6-0.5-1.3-0.7-2.2-0.7c-1.7,0-3,0.6-4,1.8l-1.1-1.2c0.6-0.7,1.3-1.3,2.2-1.7c0.9-0.4,1.9-0.6,2.9-0.6c1.3,0,2.5,0.4,3.5,1.1
			c1,0.7,1.5,1.8,1.5,3.2c0,1.4-0.6,2.7-1.8,4.1c-1.2,1.4-3,3-5.4,4.9h7.2V45z"/>
	</g>
	<g>
		<path class="st2" d="M136.6,20c-0.7,0-1.3-0.1-1.8-0.4c-0.5-0.3-0.9-0.7-1.2-1.2s-0.5-1.1-0.7-1.7c-0.2-0.6-0.2-1.3-0.2-2
			c0-1.5,0.4-2.8,1.1-3.8c0.7-1,1.8-1.5,3.1-1.5c1.2,0,2.1,0.4,2.9,1.2l-0.7,1c-0.6-0.7-1.3-1.1-2.2-1.1c-0.9,0-1.7,0.4-2.2,1.2
			c-0.5,0.8-0.8,1.8-0.8,2.9v0.4c0.3-0.4,0.7-0.8,1.2-1.1c0.5-0.3,1.1-0.5,1.7-0.5c1,0,1.8,0.3,2.4,0.9c0.6,0.6,1,1.4,1,2.4
			c0,0.9-0.3,1.7-1,2.4S137.7,20,136.6,20z M136.5,18.9c0.7,0,1.3-0.2,1.7-0.7c0.4-0.5,0.6-1,0.6-1.5c0-0.7-0.2-1.3-0.7-1.7
			c-0.4-0.4-1-0.6-1.7-0.6c-0.5,0-1,0.1-1.5,0.4s-0.8,0.7-1.1,1.1c0.1,0.8,0.3,1.4,0.7,2C135.1,18.6,135.7,18.9,136.5,18.9z"/>
		<path class="st2" d="M150.9,19.8h-1.6l-3.3-4.4l-3.3,4.4h-1.6l4-5.3l-3.8-5h1.6l3.1,4.1l3.1-4.1h1.6l-3.8,5L150.9,19.8z"/>
		<path class="st2" d="M155.2,20c-0.8,0-1.6-0.2-2.2-0.5c-0.6-0.3-1.1-0.7-1.5-1.2l0.8-0.8c0.3,0.4,0.7,0.7,1.2,1
			c0.5,0.2,1.1,0.4,1.7,0.4c0.7,0,1.3-0.2,1.8-0.5c0.4-0.4,0.7-0.8,0.7-1.4c0-0.6-0.2-1.1-0.7-1.4c-0.5-0.3-1.1-0.4-1.9-0.4
			c-0.6,0-1,0-1.1,0v-1.2c0.1,0,0.5,0,1.1,0c0.7,0,1.3-0.1,1.7-0.4c0.5-0.3,0.7-0.7,0.7-1.3c0-0.5-0.2-1-0.7-1.3
			c-0.4-0.3-1-0.5-1.7-0.5c-1,0-2,0.4-2.7,1.3l-0.7-0.8c0.9-1.1,2.1-1.6,3.5-1.6c1,0,1.9,0.2,2.5,0.7c0.7,0.5,1,1.2,1,2
			c0,0.7-0.2,1.2-0.7,1.6c-0.5,0.4-1,0.7-1.5,0.8c0.6,0.1,1.1,0.3,1.6,0.8s0.8,1,0.8,1.8c0,0.9-0.3,1.6-1,2.1
			C157.2,19.7,156.3,20,155.2,20z"/>
	</g>
</g>
<g id="_24_julho_novo" transform="translate(200.275 451.873)">
	<path id="Path_11" class="st3" d="M-111-375c-0.1,1.9-1.7,3.3-3.6,3.2c-1.9-0.1-3.3-1.7-3.2-3.6c0.1-1.8,1.6-3.2,3.4-3.2
		C-112.4-378.5-110.9-376.9-111-375z"/>
</g>
<g id="ronil" transform="translate(-470.926 -104.601)">
	<g id="Group_66" transform="translate(-445.705 -152.518)">
		<rect id="Rectangle_41" x="916.9" y="263" class="st4" width="60.8" height="56"/>
	</g>
</g>
<polygon class="st1" points="38.6,51.4 75.2,68.9 50,48.8 "/>
</svg>
