<?xml version="1.0" encoding="utf-8"?>
<!-- Generator: Adobe Illustrator 25.2.3, SVG Export Plug-In . SVG Version: 6.00 Build 0)  -->
<svg version="1.1" id="Layer_1" xmlns="http://www.w3.org/2000/svg" width="169.418" height="80.059" xmlns:xlink="http://www.w3.org/1999/xlink" x="0px" y="0px"
	 viewBox="0 0 169.4 80.1" style="enable-background:new 0 0 169.4 80.1;" xml:space="preserve">
<style type="text/css">
	.st0{opacity:0.92;fill:#2D314E;enable-background:new    ;}
	.st1{fill:none;}
	.st2{fill:#676D81;}
	.st3{fill:#681758;}
	.st4{fill:#FFFFFF;}
</style>
<g id="_24_julho_novo" transform="translate(200.275 451.873)">
	<path id="Path_11" class="st0" d="M-111-375c-0.1,1.9-1.7,3.3-3.6,3.2s-3.3-1.7-3.2-3.6c0.1-1.8,1.6-3.2,3.4-3.2
		C-112.4-378.5-110.9-376.9-111-375z"/>
</g>
<g id="ronil" transform="translate(-470.926 -104.601)">
	<g id="Group_66" transform="translate(-445.705 -152.518)">
		<rect id="Rectangle_41" x="916.7" y="263" class="st1" width="60.8" height="56"/>
	</g>
</g>
<g>
	<g id="Layer_2_1_">
		<g id="Layer_1-2">
			<g>
				<rect x="75" y="23.9" class="st2" width="94.4" height="27.5"/>
			</g>
			<rect x="38.6" y="23.9" class="st3" width="37.5" height="27.5"/>
			<g>
				<rect x="122.1" y="5.4" class="st3" width="47.3" height="18.6"/>
			</g>
		</g>
	</g>
	<g>
		<g>
			<path class="st4" d="M107.2,42.8l-2-3.6h-1.6v3.6h-2.2V32.6h4.8c2.1,0,3.4,1.4,3.4,3.3c0,1.8-1.1,2.8-2.2,3l2.3,3.9H107.2z
				 M107.4,35.9c0-0.8-0.7-1.4-1.5-1.4h-2.3v2.7h2.3C106.7,37.3,107.4,36.8,107.4,35.9z"/>
			<path class="st4" d="M110.8,37.7c0-3.1,2.2-5.3,5.3-5.3c3.1,0,5.3,2.2,5.3,5.3s-2.2,5.3-5.3,5.3S110.8,40.8,110.8,37.7z
				 M119.2,37.7c0-1.9-1.2-3.3-3.1-3.3c-1.9,0-3.1,1.4-3.1,3.3c0,1.9,1.2,3.3,3.1,3.3C117.9,41.1,119.2,39.6,119.2,37.7z"/>
			<path class="st4" d="M129.9,42.8l-4.8-6.6v6.6h-2.2V32.6h2.2l4.7,6.4v-6.4h2.2v10.2H129.9z"/>
			<path class="st4" d="M134,42.8V32.6h2.2v10.2H134z"/>
			<path class="st4" d="M138.1,42.8V32.6h2.2v8.3h4.3v1.9H138.1z"/>
		</g>
		<g>
			<path class="st4" d="M50.5,45V34.4l-2.4,2.5L46.3,35l4.6-4.6h2.7V45H50.5z"/>
			<path class="st4" d="M56.6,43.8l1.4-2.4c0.8,0.7,1.6,1.1,2.9,1.1c2.4,0,3.7-2,3.7-4.1c0-0.1,0-0.2,0-0.3c-0.7,1-2.2,1.9-3.8,1.9
				c-2.6,0-5-1.7-5-4.8c0-2.9,2.3-5,5.6-5c4.5,0,6.3,3.4,6.3,7.6c0,4.4-2.5,7.6-6.8,7.6C59.1,45.3,57.6,44.7,56.6,43.8z M64.5,35.9
				c-0.1-1.4-0.9-3-3-3c-1.7,0-2.6,1.1-2.6,2.2c0,1.5,1.3,2.2,2.7,2.2C62.8,37.3,63.8,36.8,64.5,35.9z"/>
		</g>
		<g>
			<path class="st4" d="M131.3,14.7c0-3.2,1.8-5.5,5-5.5c1.3,0,2.4,0.4,3.2,1.1l-1,1.7c-0.6-0.5-1.2-0.8-2.1-0.8
				c-1.6,0-2.7,1.3-2.7,3c0,0.1,0,0.1,0,0.2c0.5-0.7,1.6-1.4,2.7-1.4c1.9,0,3.6,1.2,3.6,3.5c0,2.1-1.7,3.7-4.1,3.7
				C132.7,20.2,131.3,17.7,131.3,14.7z M137.7,16.6c0-1.1-1-1.6-2-1.6c-0.8,0-1.6,0.4-2.1,1c0.1,1,0.7,2.2,2.2,2.2
				C137.1,18.2,137.7,17.3,137.7,16.6z"/>
			<path class="st4" d="M148.5,20l-2.7-3.9l-2.7,3.9h-2.7l3.9-5.5l-3.6-5.2h2.7l2.4,3.7l2.4-3.7h2.7l-3.6,5.2l3.9,5.5H148.5z"/>
			<path class="st4" d="M151.5,18.5l1.2-1.5c0.7,0.8,1.9,1.2,2.9,1.2c1.3,0,2-0.6,2-1.4c0-0.8-0.7-1.2-2.1-1.2c-0.4,0-1.2,0-1.3,0
				v-2c0.2,0,0.9,0,1.3,0c1.2,0,2-0.4,2-1.1c0-0.8-0.9-1.3-2-1.3c-1,0-2,0.4-2.7,1.1l-1.1-1.4c0.9-1,2.2-1.7,4.1-1.7
				c2.5,0,4,1.1,4,2.9c0,1.3-1.2,2.2-2.3,2.4c1.1,0.1,2.5,1,2.5,2.6c0,1.8-1.6,3.1-4.2,3.1C153.8,20.2,152.3,19.4,151.5,18.5z"/>
		</g>
	</g>
</g>
<polygon class="st3" points="38.6,51.4 75.2,68.9 50,48.8 "/>
</svg>
