<?xml version="1.0" encoding="utf-8"?>
<!-- Generator: Adobe Illustrator 25.2.3, SVG Export Plug-In . SVG Version: 6.00 Build 0)  -->
<svg version="1.1" id="Layer_1" xmlns="http://www.w3.org/2000/svg" width="169.418" height="80.059" xmlns:xlink="http://www.w3.org/1999/xlink" x="0px" y="0px"
	 viewBox="0 0 169.4 80.1" style="enable-background:new 0 0 169.4 80.1;" xml:space="preserve">
<style type="text/css">
	.st0{fill:#676D81;}
	.st1{fill:#681758;}
	.st2{fill:#FFFFFF;stroke:#FFFFFF;stroke-width:0.5;stroke-miterlimit:10;}
	.st3{fill:#FFFFFF;stroke:#FFFFFF;stroke-width:0.7;stroke-miterlimit:10;}
	.st4{fill:#FFFFFF;}
	.st5{opacity:0.92;fill:#2D314E;enable-background:new    ;}
	.st6{fill:none;}
</style>
<g>
	<rect x="115.8" y="29.2" class="st0" width="53.6" height="22.2"/>
</g>
<rect x="86.5" y="29.2" class="st1" width="30.2" height="22.2"/>
<g>
	<rect x="131.3" y="14.3" class="st1" width="38.2" height="15"/>
</g>
<g>
	<path class="st2" d="M133.5,44.4h-1.2l-2.1-3.3h-1.7v3.3h-1v-8.3h3.4c0.8,0,1.4,0.2,1.9,0.7c0.5,0.5,0.7,1,0.7,1.9
		c0,0.7-0.2,1.3-0.6,1.7s-1,0.6-1.5,0.7L133.5,44.4z M130.7,40.2c0.5,0,0.9-0.2,1.2-0.5c0.3-0.3,0.5-0.6,0.5-1.1s-0.2-0.9-0.5-1.1
		c-0.3-0.3-0.7-0.4-1.2-0.4h-2.2v3.2L130.7,40.2L130.7,40.2z"/>
	<path class="st2" d="M141.9,43.4c-0.8,0.8-1.8,1.2-3,1.2c-1.2,0-2.2-0.4-3-1.2c-0.8-0.8-1.1-1.9-1.1-3.1s0.4-2.3,1.1-3.1
		c0.8-0.8,1.8-1.2,3-1.2c1.2,0,2.2,0.4,3,1.2c0.8,0.8,1.1,1.9,1.1,3.1S142.7,42.6,141.9,43.4z M138.9,43.6c0.9,0,1.7-0.3,2.3-1
		c0.6-0.6,0.9-1.5,0.9-2.4c0-1-0.3-1.8-0.9-2.4c-0.6-0.6-1.3-1-2.3-1c-0.9,0-1.7,0.3-2.3,1c-0.6,0.6-0.8,1.5-0.8,2.4
		c0,1,0.2,1.8,0.8,2.4C137.3,43.3,138,43.6,138.9,43.6z"/>
	<path class="st2" d="M151.6,44.4h-1l-4.8-6.6v6.6h-1v-8.3h1l4.8,6.5v-6.5h1L151.6,44.4L151.6,44.4z"/>
	<path class="st2" d="M154.6,44.4h-1v-8.3h1V44.4z"/>
	<path class="st2" d="M161.3,44.4h-4.9v-8.3h1v7.4h3.9V44.4z"/>
</g>
<g>
	<path class="st3" d="M97.9,44.5c-0.6,0-1-0.1-1.4-0.4c-0.4-0.2-0.7-0.6-1-1c-0.3-0.4-0.4-0.9-0.6-1.3c-0.1-0.5-0.2-1-0.2-1.5
		c0-0.5,0.1-1,0.2-1.5s0.3-0.9,0.6-1.3c0.3-0.4,0.6-0.7,1-1c0.4-0.2,0.9-0.4,1.4-0.4c0.6,0,1,0.1,1.4,0.4c0.4,0.2,0.7,0.6,1,1
		c0.3,0.4,0.4,0.8,0.6,1.3s0.2,1,0.2,1.5c0,0.5-0.1,1-0.2,1.5s-0.3,0.9-0.6,1.3c-0.3,0.4-0.6,0.7-1,1C98.9,44.4,98.5,44.5,97.9,44.5
		z M96.7,43.1c0.3,0.3,0.7,0.5,1.2,0.5c0.5,0,0.9-0.2,1.2-0.5s0.6-0.7,0.7-1.2c0.1-0.5,0.2-1,0.2-1.6s-0.1-1.1-0.2-1.6
		c-0.1-0.5-0.3-0.9-0.7-1.2c-0.3-0.3-0.7-0.5-1.2-0.5c-0.5,0-0.9,0.2-1.2,0.5c-0.3,0.3-0.6,0.7-0.7,1.2c-0.1,0.5-0.2,1-0.2,1.6
		c0,0.6,0.1,1.1,0.2,1.6C96.2,42.4,96.4,42.8,96.7,43.1z"/>
	<path class="st3" d="M108,44.4h-5.6v-0.8c1.7-1.3,2.8-2.3,3.5-3c0.7-0.7,1-1.4,1-2.1c0-0.5-0.2-0.8-0.5-1.1s-0.7-0.4-1.2-0.4
		c-0.9,0-1.7,0.3-2.2,1l-0.6-0.7c0.3-0.4,0.7-0.7,1.2-0.9c0.5-0.2,1.1-0.3,1.6-0.3c0.7,0,1.4,0.2,1.9,0.6c0.6,0.4,0.8,1,0.8,1.8
		c0,0.8-0.3,1.5-1,2.3c-0.7,0.8-1.7,1.7-3,2.7h4L108,44.4L108,44.4z"/>
</g>
<g>
	<path class="st4" d="M143,26c-0.6,0-1-0.1-1.5-0.3c-0.4-0.2-0.7-0.6-1-1s-0.4-0.9-0.6-1.4c-0.2-0.5-0.2-1-0.2-1.6
		c0-1.2,0.3-2.3,0.9-3.1c0.6-0.8,1.5-1.2,2.5-1.2c1,0,1.7,0.3,2.3,1l-0.6,0.8c-0.5-0.6-1-0.9-1.8-0.9c-0.7,0-1.4,0.3-1.8,1
		c-0.4,0.6-0.6,1.5-0.6,2.3V22c0.2-0.3,0.6-0.6,1-0.9s0.9-0.4,1.4-0.4c0.8,0,1.5,0.2,1.9,0.7c0.5,0.5,0.8,1.1,0.8,1.9
		c0,0.7-0.2,1.4-0.8,1.9C144.5,25.9,143.8,26,143,26z M142.9,25.2c0.6,0,1-0.2,1.4-0.6c0.3-0.4,0.5-0.8,0.5-1.2c0-0.6-0.2-1-0.6-1.4
		c-0.3-0.3-0.8-0.5-1.4-0.5c-0.4,0-0.8,0.1-1.2,0.3c-0.4,0.2-0.6,0.6-0.9,0.9c0.1,0.6,0.2,1.1,0.6,1.6
		C141.7,24.9,142.2,25.2,142.9,25.2z"/>
	<path class="st4" d="M154.5,25.9h-1.3l-2.7-3.5l-2.7,3.5h-1.3l3.2-4.3l-3.1-4h1.3l2.5,3.3l2.5-3.3h1.3l-3.1,4L154.5,25.9z"/>
	<path class="st4" d="M158,26c-0.6,0-1.3-0.2-1.8-0.4c-0.5-0.2-0.9-0.6-1.2-1l0.6-0.6c0.2,0.3,0.6,0.6,1,0.8
		c0.4,0.2,0.9,0.3,1.4,0.3c0.6,0,1-0.2,1.5-0.4c0.3-0.3,0.6-0.6,0.6-1.1c0-0.5-0.2-0.9-0.6-1.1c-0.4-0.2-0.9-0.3-1.5-0.3
		c-0.5,0-0.8,0-0.9,0v-1c0.1,0,0.4,0,0.9,0c0.6,0,1-0.1,1.4-0.3c0.4-0.2,0.6-0.6,0.6-1c0-0.4-0.2-0.8-0.6-1
		c-0.3-0.2-0.8-0.4-1.4-0.4c-0.8,0-1.6,0.3-2.2,1l-0.6-0.6c0.7-0.9,1.7-1.3,2.8-1.3c0.8,0,1.5,0.2,2,0.6c0.6,0.4,0.8,1,0.8,1.6
		c0,0.6-0.2,1-0.6,1.3s-0.8,0.6-1.2,0.6c0.5,0.1,0.9,0.2,1.3,0.6c0.4,0.4,0.6,0.8,0.6,1.5c0,0.7-0.2,1.3-0.8,1.7
		C159.6,25.8,158.9,26,158,26z"/>
</g>
<g id="_24_julho_novo" transform="translate(200.275 451.873)">
	<path id="Path_11" class="st5" d="M-111-375c-0.1,1.9-1.7,3.3-3.6,3.2c-1.9-0.1-3.3-1.7-3.2-3.6c0.1-1.8,1.6-3.2,3.4-3.2
		C-112.4-378.5-110.9-376.9-111-375z"/>
</g>
<g id="ronil" transform="translate(-470.926 -104.601)">
	<g id="Group_66" transform="translate(-445.705 -152.518)">
		<rect id="Rectangle_41" x="917" y="263" class="st6" width="60.8" height="56"/>
	</g>
</g>
<polygon class="st1" points="86.5,51.4 86.5,65.5 95.7,49.3 "/>
</svg>
