<svg xmlns="http://www.w3.org/2000/svg" xmlns:xlink="http://www.w3.org/1999/xlink" width="100" height="95.826" viewBox="0 0 45.97 26.05"><defs><style>.cls-1{fill:none;}.cls-2{fill:#676d81;}.cls-3{fill:#fff;}.cls-4{fill:#681758;}.cls-5{fill:#2d314e;}.cls-6{clip-path:url(#clip-path);}</style><clipPath id="clip-path"><rect class="cls-1" x="4.05" y="6.42" width="13" height="5"/></clipPath></defs><g id="Layer_2" data-name="Layer 2"><g id="Layer_1-2" data-name="Layer 1"><rect class="cls-2" y="9.78" width="36.25" height="12.24" rx="2.21"/><path class="cls-3" d="M9.84,18,9.1,16.71H8.52V18h-.8v-3.5H9.47a1.14,1.14,0,0,1,1.26,1.13,1,1,0,0,1-.82,1L10.76,18Zm.08-2.37a.5.5,0,0,0-.56-.47H8.52v.94h.84C9.67,16.05,9.92,15.88,9.92,15.58Z"/><path class="cls-3" d="M11.2,16.21a1.82,1.82,0,0,1,2-1.81,1.82,1.82,0,1,1,0,3.62A1.82,1.82,0,0,1,11.2,16.21Zm3.09,0a1.14,1.14,0,1,0-1.13,1.15A1.09,1.09,0,0,0,14.29,16.21Z"/><path class="cls-3" d="M18.3,18l-1.79-2.28V18h-.79v-3.5h.82l1.73,2.2v-2.2h.8V18Z"/><path class="cls-3" d="M19.86,18v-3.5h.79V18Z"/><path class="cls-3" d="M21.41,18v-3.5h.8V17.3h1.58V18Z"/><rect class="cls-4" x="27.47" y="7.55" width="16.7" height="16.7" rx="4" transform="translate(-0.75 29.99) rotate(-45)"/><path class="cls-3" d="M32.94,18.81V14.2l-1,1.08-.78-.81,2-2h1.18v6.35Z"/><path class="cls-3" d="M35.56,18.26l.6-1a1.69,1.69,0,0,0,1.27.5A1.65,1.65,0,0,0,39,15.93v-.15a2.12,2.12,0,0,1-1.64.82,2,2,0,0,1-2.16-2.06,2.23,2.23,0,0,1,2.42-2.19c1.94,0,2.75,1.49,2.75,3.28s-1.09,3.28-3,3.28A2.77,2.77,0,0,1,35.56,18.26ZM39,14.84a1.28,1.28,0,0,0-1.29-1.29,1,1,0,0,0-1.13.94c0,.66.58.95,1.17.95A1.62,1.62,0,0,0,39,14.84Z"/><path class="cls-5" d="M34.28,2.2A1.74,1.74,0,0,1,35.63.05,1.92,1.92,0,0,1,37.9,1.4a1.76,1.76,0,0,1-1.35,2.16A1.92,1.92,0,0,1,34.28,2.2"/><rect class="cls-4" y="4.78" width="21.1" height="8.28" rx="1.39"/><g class="cls-6"><path class="cls-3" d="M4.29,9.06A2.08,2.08,0,0,1,6.47,6.8a2.17,2.17,0,0,1,1.38.45L7.4,8a1.29,1.29,0,0,0-.93-.34A1.17,1.17,0,0,0,5.3,8.87a.28.28,0,0,0,0,.09,1.52,1.52,0,0,1,1.2-.56,1.45,1.45,0,0,1,1.6,1.42,1.61,1.61,0,0,1-1.8,1.5C4.88,11.32,4.29,10.3,4.29,9.06Zm2.8.79c0-.46-.42-.65-.87-.65a1.2,1.2,0,0,0-.91.41.9.9,0,0,0,.94.89A.75.75,0,0,0,7.09,9.85Z"/><path class="cls-3" d="M11.89,11.24l-1.17-1.6-1.18,1.6H8.35L10.05,9,8.46,6.87H9.64l1.08,1.49,1.06-1.49H13L11.38,9l1.7,2.25Z"/><path class="cls-3" d="M13.26,10.62l.53-.62a1.9,1.9,0,0,0,1.28.5c.57,0,.89-.23.89-.56s-.29-.51-1-.51l-.58,0V8.61H15c.52,0,.88-.14.88-.46s-.39-.52-.88-.52a1.78,1.78,0,0,0-1.19.45l-.5-.58a2.39,2.39,0,0,1,1.79-.7c1.1,0,1.77.46,1.77,1.19a1.11,1.11,0,0,1-1,1A1.13,1.13,0,0,1,17,10c0,.75-.72,1.28-1.84,1.28A2.44,2.44,0,0,1,13.26,10.62Z"/></g></g></g></svg>