<svg xmlns="http://www.w3.org/2000/svg" xmlns:xlink="http://www.w3.org/1999/xlink" width="100" height="95.826" viewBox="0 0 44.57 26.37"><defs><style>.cls-1{fill:none;}.cls-2{fill:#676d81;}.cls-3{fill:#fff;}.cls-4{fill:#55bcbd;}.cls-5{fill:#002c46;}.cls-6{fill:#2d314e;}.cls-7{clip-path:url(#clip-path);}</style><clipPath id="clip-path"><rect class="cls-1" x="4.05" y="1.64" width="13" height="5"/></clipPath></defs><g id="Layer_2" data-name="Layer 2"><g id="Layer_1-2" data-name="Layer 1"><rect class="cls-2" y="4.55" width="32.23" height="12.24" rx="2.08"/><path class="cls-3" d="M3.49,13.3l.44-.58a1.67,1.67,0,0,0,1.19.48c.44,0,.65-.19.65-.39,0-.61-2.15-.19-2.15-1.5,0-.58.54-1.07,1.42-1.07a2.18,2.18,0,0,1,1.46.49l-.45.56A1.62,1.62,0,0,0,5,10.9c-.33,0-.52.14-.52.35,0,.55,2.15.18,2.15,1.49,0,.64-.5,1.12-1.5,1.12A2.27,2.27,0,0,1,3.49,13.3Z"/><path class="cls-3" d="M7,12.05a1.85,1.85,0,0,1,2-1.81,1.72,1.72,0,0,1,1.56.85l-.69.32A1,1,0,0,0,9,10.9a1.15,1.15,0,1,0,0,2.3,1,1,0,0,0,.87-.51l.69.31A1.75,1.75,0,0,1,9,13.86,1.85,1.85,0,0,1,7,12.05Z"/><path class="cls-3" d="M13.66,13.8l-.24-.6h-1.6l-.24.6h-.9l1.44-3.51h1l1.44,3.51Zm-1-2.76L12,12.55H13.2Z"/><path class="cls-3" d="M14.92,13.8V10.29h.81v2.85h1.58v.66Z"/><path class="cls-3" d="M20.48,13.8l-.23-.6H18.64l-.24.6h-.9l1.44-3.51h1l1.45,3.51Zm-1-2.76-.58,1.51H20Z"/><rect class="cls-4" x="26.07" y="2.32" width="16.7" height="16.7" rx="4" transform="translate(2.54 27.47) rotate(-45)"/><path class="cls-5" d="M31.54,13.58V9l-1.05,1.08-.77-.81,2-2H32.9v6.35Z"/><path class="cls-5" d="M33.86,11.93a1.81,1.81,0,0,1,1.36-1.62A1.6,1.6,0,0,1,34,8.81c0-1.2,1.27-1.68,2.45-1.68s2.45.48,2.45,1.68a1.62,1.62,0,0,1-1.26,1.5A1.82,1.82,0,0,1,39,11.93c0,1.18-1.22,1.77-2.55,1.77S33.86,13.11,33.86,11.93Zm3.73-.19c0-.52-.79-.77-1.18-.83s-1.18.31-1.18.83.51.75,1.18.75S37.59,12.2,37.59,11.74ZM37.48,9c0-.45-.45-.71-1.07-.71s-1.08.26-1.08.71.69.67,1.08.73S37.48,9.51,37.48,9Z"/><path class="cls-6" d="M32.88,25a1.75,1.75,0,0,1,1.35-2.15,1.92,1.92,0,0,1,2.27,1.35,1.75,1.75,0,0,1-1.35,2.16A1.93,1.93,0,0,1,32.88,25"/><rect class="cls-4" width="21.1" height="8.28" rx="1.39"/><g class="cls-7"><path class="cls-5" d="M4.29,4.28A2.08,2.08,0,0,1,6.47,2a2.17,2.17,0,0,1,1.38.45l-.45.72a1.26,1.26,0,0,0-.93-.35A1.18,1.18,0,0,0,5.3,4.08a.34.34,0,0,0,0,.1,1.52,1.52,0,0,1,1.2-.57A1.45,1.45,0,0,1,8.11,5a1.61,1.61,0,0,1-1.8,1.5C4.88,6.54,4.29,5.51,4.29,4.28Zm2.8.79c0-.46-.42-.66-.87-.66a1.17,1.17,0,0,0-.91.42.9.9,0,0,0,.94.88C6.79,5.71,7.09,5.37,7.09,5.07Z"/><path class="cls-5" d="M11.89,6.46l-1.17-1.6L9.54,6.46H8.35l1.7-2.24L8.46,2.08H9.64l1.08,1.5,1.06-1.5H13l-1.6,2.13,1.7,2.25Z"/><path class="cls-5" d="M13.26,5.84l.53-.63a1.85,1.85,0,0,0,1.28.5c.57,0,.89-.23.89-.56s-.29-.5-1-.5h-.58V3.82H15c.52,0,.88-.15.88-.47s-.39-.52-.88-.52a1.74,1.74,0,0,0-1.19.46l-.5-.59A2.38,2.38,0,0,1,15.11,2c1.1,0,1.77.46,1.77,1.19a1.09,1.09,0,0,1-1,1,1.15,1.15,0,0,1,1.09,1c0,.76-.72,1.29-1.84,1.29A2.44,2.44,0,0,1,13.26,5.84Z"/></g></g></g></svg>