<?xml version="1.0" encoding="utf-8"?>
<!-- Generator: Adobe Illustrator 25.2.3, SVG Export Plug-In . SVG Version: 6.00 Build 0)  -->
<svg version="1.1" id="Layer_1" xmlns="http://www.w3.org/2000/svg" width="142.207" height="70.828" xmlns:xlink="http://www.w3.org/1999/xlink" x="0px" y="0px"
	 viewBox="0 0 142.2 70.8" style="enable-background:new 0 0 142.2 70.8;" xml:space="preserve">
<style type="text/css">
	.st0{opacity:0.92;fill:#2D314E;enable-background:new    ;}
	.st1{fill:#676D81;}
	.st2{fill:#55BCBD;}
	.st3{fill:#002C46;}
	.st4{fill:#FFFFFF;}
</style>
<g id="_24_julho_novo" transform="translate(200.275 451.873)">
	<path id="Path_11" class="st0" d="M-127.3-384.2c-0.1,1.9-1.7,3.3-3.6,3.2c-1.9-0.1-3.3-1.7-3.2-3.6c0.1-1.8,1.6-3.2,3.4-3.2
		C-128.7-387.7-127.2-386.1-127.3-384.2z"/>
</g>
<g id="scala" transform="translate(-4.405 0.296)">
	<g id="Layer_2_1_">
		<g id="Layer_1-2">
			<g>
				<rect x="44.2" y="24.8" class="st1" width="94.4" height="27.5"/>
			</g>
			<rect x="6.7" y="24.8" class="st2" width="37.5" height="27.5"/>
			<g>
				<rect x="91.3" y="6.2" class="st2" width="47.3" height="18.6"/>
			</g>
		</g>
	</g>
</g>
<polygon class="st2" points="2.3,52.6 52.6,63.8 21.6,51 "/>
<g>
	<path class="st3" d="M14.6,46.4c-1,0-1.8-0.2-2.6-0.7s-1.3-1-1.8-1.8c-0.4-0.7-0.8-1.6-1-2.4C9.1,40.7,9,39.8,9,38.8
		c0-0.9,0.1-1.8,0.3-2.7c0.2-0.9,0.5-1.7,1-2.4c0.4-0.7,1-1.3,1.8-1.8c0.7-0.4,1.6-0.7,2.6-0.7c1,0,1.8,0.2,2.6,0.7
		c0.7,0.4,1.3,1,1.8,1.8c0.4,0.7,0.8,1.5,1,2.4c0.2,0.9,0.3,1.8,0.3,2.7c0,0.9-0.1,1.8-0.3,2.7c-0.2,0.9-0.5,1.7-1,2.4
		c-0.4,0.7-1,1.3-1.8,1.8S15.6,46.4,14.6,46.4z M12.4,43.9c0.6,0.6,1.3,0.9,2.2,0.9c0.9,0,1.6-0.3,2.2-0.9c0.6-0.6,1-1.3,1.2-2.2
		c0.2-0.9,0.3-1.8,0.3-2.9c0-1.1-0.1-2-0.3-2.9c-0.2-0.9-0.6-1.6-1.2-2.2s-1.3-0.9-2.2-0.9c-0.9,0-1.6,0.3-2.2,0.9s-1,1.3-1.2,2.2
		c-0.2,0.9-0.3,1.8-0.3,2.9c0,1.1,0.1,2,0.3,2.9C11.4,42.6,11.8,43.3,12.4,43.9z"/>
	<path class="st3" d="M31.5,45.3c-1,0.7-2.3,1.1-3.8,1.1S25,46.1,24,45.4c-1-0.7-1.5-1.7-1.5-2.9c0-0.9,0.3-1.7,1-2.4
		c0.7-0.7,1.5-1.2,2.5-1.5c-0.9-0.3-1.7-0.7-2.3-1.3c-0.6-0.6-0.9-1.3-0.9-2.2c0-1.2,0.5-2.2,1.5-2.8c1-0.7,2.2-1,3.5-1
		c1.3,0,2.5,0.3,3.5,1c1,0.7,1.5,1.6,1.5,2.8c0,0.9-0.3,1.6-0.9,2.2s-1.4,1-2.3,1.3c1,0.3,1.8,0.8,2.5,1.5c0.7,0.7,1,1.5,1,2.4
		C33,43.7,32.5,44.6,31.5,45.3z M27.8,44.8c0.9,0,1.7-0.2,2.4-0.7c0.7-0.5,1-1.1,1-1.8c0-0.6-0.2-1.1-0.7-1.6s-0.9-0.8-1.4-0.9
		c-0.5-0.2-0.9-0.3-1.3-0.3c-0.4,0-0.8,0.2-1.3,0.3c-0.5,0.2-0.9,0.5-1.4,0.9c-0.5,0.4-0.7,1-0.7,1.6c0,0.8,0.3,1.4,1,1.8
		C26,44.6,26.8,44.8,27.8,44.8z M27.8,37.9c0.3,0,0.6-0.1,0.9-0.2s0.6-0.2,1-0.4c0.4-0.2,0.7-0.4,0.9-0.8c0.2-0.3,0.4-0.7,0.4-1.1
		c0-0.7-0.3-1.3-0.9-1.8s-1.4-0.7-2.3-0.7c-0.9,0-1.7,0.2-2.3,0.6c-0.6,0.4-0.9,1-0.9,1.8c0,0.4,0.1,0.8,0.4,1.1s0.5,0.6,0.9,0.8
		c0.4,0.2,0.7,0.3,1,0.4C27.2,37.7,27.5,37.8,27.8,37.9z"/>
</g>
<g>
	<path class="st3" d="M101.4,21.2c-0.7,0-1.3-0.1-1.8-0.4c-0.5-0.3-0.9-0.7-1.2-1.2s-0.5-1.1-0.7-1.7c-0.2-0.6-0.2-1.3-0.2-2
		c0-1.5,0.4-2.8,1.1-3.8c0.7-1,1.8-1.5,3.1-1.5c1.2,0,2.1,0.4,2.9,1.2l-0.7,1c-0.6-0.7-1.3-1.1-2.2-1.1c-0.9,0-1.7,0.4-2.2,1.2
		c-0.5,0.8-0.8,1.8-0.8,2.9v0.4c0.3-0.4,0.7-0.8,1.2-1.1c0.5-0.3,1.1-0.5,1.7-0.5c1,0,1.8,0.3,2.4,0.9c0.6,0.6,1,1.4,1,2.4
		c0,0.9-0.3,1.7-1,2.4S102.5,21.2,101.4,21.2z M101.3,20c0.7,0,1.3-0.2,1.7-0.7c0.4-0.5,0.6-1,0.6-1.5c0-0.7-0.2-1.3-0.7-1.7
		c-0.4-0.4-1-0.6-1.7-0.6c-0.5,0-1,0.1-1.5,0.4s-0.8,0.7-1.1,1.1c0.1,0.8,0.3,1.4,0.7,2C99.9,19.7,100.5,20,101.3,20z"/>
	<path class="st3" d="M115.7,21h-1.6l-3.3-4.4l-3.3,4.4h-1.6l4-5.3l-3.8-5h1.6l3.1,4.1l3.1-4.1h1.6l-3.8,5L115.7,21z"/>
	<path class="st3" d="M120,21.2c-0.8,0-1.6-0.2-2.2-0.5c-0.6-0.3-1.1-0.7-1.5-1.2l0.8-0.8c0.3,0.4,0.7,0.7,1.2,1
		c0.5,0.2,1.1,0.4,1.7,0.4c0.7,0,1.3-0.2,1.8-0.5c0.4-0.4,0.7-0.8,0.7-1.4c0-0.6-0.2-1.1-0.7-1.4c-0.5-0.3-1.1-0.4-1.9-0.4
		c-0.6,0-1,0-1.1,0v-1.2c0.1,0,0.5,0,1.1,0c0.7,0,1.3-0.1,1.7-0.4c0.5-0.3,0.7-0.7,0.7-1.3c0-0.5-0.2-1-0.7-1.3
		c-0.4-0.3-1-0.5-1.7-0.5c-1,0-2,0.4-2.7,1.3l-0.7-0.8c0.9-1.1,2.1-1.6,3.5-1.6c1,0,1.9,0.2,2.5,0.7c0.7,0.5,1,1.2,1,2
		c0,0.7-0.2,1.2-0.7,1.6c-0.5,0.4-1,0.7-1.5,0.8c0.6,0.1,1.1,0.3,1.6,0.8s0.8,1,0.8,1.8c0,0.9-0.3,1.6-1,2.1
		C122,20.9,121.1,21.2,120,21.2z"/>
</g>
<g>
	<path class="st4" d="M67.7,44.2c-1.7,0-3-0.5-4-1.6l0.8-1c0.9,1,1.9,1.5,3.2,1.5c0.8,0,1.5-0.2,1.8-0.5c0.4-0.4,0.6-0.8,0.6-1.3
		c0-0.4-0.2-0.8-0.5-1c-0.3-0.3-0.7-0.5-1.1-0.6s-0.9-0.3-1.5-0.4c-0.5-0.2-1-0.3-1.5-0.5c-0.4-0.2-0.8-0.5-1.1-0.9
		s-0.5-0.9-0.5-1.5c0-0.8,0.3-1.5,1-2.1c0.7-0.5,1.5-0.8,2.6-0.8c1.5,0,2.7,0.5,3.7,1.5l-0.8,0.9c-0.7-0.8-1.7-1.2-3-1.2
		c-0.6,0-1.1,0.2-1.5,0.5c-0.4,0.3-0.6,0.7-0.6,1.2c0,0.4,0.2,0.7,0.5,0.9s0.7,0.4,1.1,0.5c0.4,0.1,0.9,0.3,1.5,0.4s1,0.4,1.5,0.5
		s0.8,0.5,1.1,0.9s0.5,0.9,0.5,1.5c0,0.8-0.3,1.6-0.9,2.1C70,43.9,69,44.2,67.7,44.2z"/>
	<path class="st4" d="M78.4,44.2c-1.5,0-2.8-0.5-3.8-1.5s-1.5-2.3-1.5-3.9c0-1.6,0.5-2.9,1.5-3.9c1-1,2.3-1.5,3.8-1.5
		c1.7,0,3,0.7,3.9,2l-1.1,0.6c-0.3-0.5-0.7-0.8-1.2-1.1s-1.1-0.4-1.6-0.4c-1.1,0-2.1,0.4-2.9,1.2c-0.8,0.8-1.1,1.8-1.1,3
		c0,1.2,0.4,2.2,1.1,3c0.8,0.8,1.7,1.2,2.8,1.2c0.6,0,1.1-0.1,1.6-0.4c0.5-0.3,0.9-0.6,1.2-1.1l1.1,0.6C81.3,43.5,80,44.2,78.4,44.2
		z"/>
	<path class="st4" d="M92.8,44h-1.5l-0.9-2.3h-5.1L84.4,44h-1.5l4.2-10.3h1.6L92.8,44z M90,40.6L87.8,35l-2.2,5.6H90z"/>
	<path class="st4" d="M100.1,44H94V33.7h1.3v9.2h4.8V44z"/>
	<path class="st4" d="M110.6,44h-1.5l-0.9-2.3h-5.1l-0.9,2.3h-1.5l4.2-10.3h1.6L110.6,44z M107.9,40.6l-2.2-5.6l-2.2,5.6H107.9z"/>
</g>
</svg>
