<svg xmlns="http://www.w3.org/2000/svg" width="142.207" height="70.828" viewBox="0 0 142.207 70.828">
  <g id="scala" transform="translate(-4.405 0.296)">
    <g id="Group_16" data-name="Group 16" transform="translate(70.473 63.05)">
      <g id="Group_15" data-name="Group 15">
        <g id="Group_14" data-name="Group 14" opacity="0.92">
          <path id="Path_25" data-name="Path 25" d="M268.881,289.623a3.526,3.526,0,1,0-3.515,3.74,3.626,3.626,0,0,0,3.515-3.74Z" transform="translate(-261.843 -285.881)" fill="#2d314e"/>
        </g>
      </g>
    </g>
    <g id="Group_17" data-name="Group 17" transform="translate(96.084 -0.296)">
      <rect id="Rectangle_9" data-name="Rectangle 9" width="40.82" height="21.994"/>
      <path id="_6x3" data-name="6x3" d="M3.288-3.912a3.579,3.579,0,0,0-.564.048,1.662,1.662,0,0,0-.468.132q0,.048-.006.144t-.006.168A5.287,5.287,0,0,0,2.3-2.6a2.286,2.286,0,0,0,.2.672,1.149,1.149,0,0,0,.384.45,1.049,1.049,0,0,0,.6.162A.974.974,0,0,0,4-1.446a1.154,1.154,0,0,0,.348-.318,1.353,1.353,0,0,0,.2-.426,1.656,1.656,0,0,0,.066-.45,1.335,1.335,0,0,0-.306-.942A1.35,1.35,0,0,0,3.288-3.912ZM3.516-5.3a3.7,3.7,0,0,1,1.326.21,2.438,2.438,0,0,1,.894.57,2.148,2.148,0,0,1,.5.84A3.28,3.28,0,0,1,6.4-2.664a3.005,3.005,0,0,1-.174.984,2.749,2.749,0,0,1-.528.912,2.766,2.766,0,0,1-.9.672A2.935,2.935,0,0,1,3.5.168,2.782,2.782,0,0,1,1.224-.78,4,4,0,0,1,.444-3.4,5.654,5.654,0,0,1,.816-5.52,4.187,4.187,0,0,1,1.878-7.074a4.635,4.635,0,0,1,1.668-.96,7.085,7.085,0,0,1,2.2-.342Q5.772-8,5.8-7.65t.048.738A6.823,6.823,0,0,0,4.7-6.8a3.8,3.8,0,0,0-.972.318,2.66,2.66,0,0,0-.762.558,2.388,2.388,0,0,0-.5.834A2.22,2.22,0,0,1,3-5.256,3.021,3.021,0,0,1,3.516-5.3Zm6.528.912,1.248-1.92H13.14L10.98-3.276q.72.9,1.308,1.752A14.425,14.425,0,0,1,13.224,0H11.3l-.24-.45q-.144-.27-.324-.564T10.362-1.6q-.2-.294-.39-.534-.18.228-.366.5t-.354.558q-.168.282-.33.558T8.64,0H6.816a7.862,7.862,0,0,1,.4-.708q.252-.408.546-.846t.618-.876q.324-.438.636-.822-.54-.756-1.08-1.53L6.864-6.312H8.8ZM15.96.18a5.913,5.913,0,0,1-.684-.042q-.36-.042-.7-.114t-.612-.156a3.525,3.525,0,0,1-.432-.156l.348-1.488q.312.132.8.282a4.145,4.145,0,0,0,1.206.15A1.913,1.913,0,0,0,17.1-1.656a1.026,1.026,0,0,0,.384-.84,1.015,1.015,0,0,0-.138-.546,1.055,1.055,0,0,0-.378-.36,1.679,1.679,0,0,0-.57-.192,4.348,4.348,0,0,0-.7-.054H15v-1.44h.792a2.658,2.658,0,0,0,.51-.048A1.361,1.361,0,0,0,16.74-5.3a.848.848,0,0,0,.306-.312.987.987,0,0,0,.114-.5.785.785,0,0,0-.1-.4.862.862,0,0,0-.246-.276,1.072,1.072,0,0,0-.348-.162,1.521,1.521,0,0,0-.4-.054,2.824,2.824,0,0,0-.954.156,3.983,3.983,0,0,0-.8.384L13.68-7.764q.192-.12.45-.252a4.441,4.441,0,0,1,.57-.24,5.209,5.209,0,0,1,.666-.18,3.758,3.758,0,0,1,.75-.072,4.1,4.1,0,0,1,1.266.174,2.379,2.379,0,0,1,.882.492,1.983,1.983,0,0,1,.516.744,2.513,2.513,0,0,1,.168.93,1.836,1.836,0,0,1-.276.954,1.821,1.821,0,0,1-.744.7,2.156,2.156,0,0,1,1,.786,2.181,2.181,0,0,1,.354,1.254,2.865,2.865,0,0,1-.192,1.062,2.142,2.142,0,0,1-.6.84,2.879,2.879,0,0,1-1.038.552A5.007,5.007,0,0,1,15.96.18Z" transform="translate(8.921 15.525)" fill="#fff"/>
    </g>
    <path id="Path_26" data-name="Path 26" d="M310.784,276.812v14.08l14.079-14.08Z" transform="translate(-178.251 -230.404)" fill="#fff" opacity="0.8"/>
    <g id="Group_46" data-name="Group 46" transform="translate(12.957 22.046)">
      <path id="Path_62" data-name="Path 62" d="M378.819,297.633l-103.506-1.572,2.736-27.536h108.8l1.92,19.156Z" transform="translate(-262.155 -266.605)" fill="#9fa1a4" opacity="0.5"/>
      <path id="Path_63" data-name="Path 63" d="M382.069,296.924H266.628V267.816H391.353v19.156Z" transform="translate(-266.628 -267.816)" fill="#bdd8f1"/>
      <path id="Path_64" data-name="Path 64" d="M312.8,274.89v9.951l10.056-9.951Z" transform="translate(-198.129 -255.734)" fill="#fff"/>
    </g>
    <path id="SCALA-2" data-name="SCALA" d="M3.228-1.428a2.7,2.7,0,0,0,.654-.066,1.206,1.206,0,0,0,.414-.18.6.6,0,0,0,.216-.27.963.963,0,0,0,.06-.348.8.8,0,0,0-.384-.678,5.487,5.487,0,0,0-1.32-.582q-.408-.144-.816-.33A3.008,3.008,0,0,1,1.32-4.35a2.239,2.239,0,0,1-.528-.684,2.142,2.142,0,0,1-.2-.978A2.422,2.422,0,0,1,.8-7.05a2.216,2.216,0,0,1,.612-.786,2.8,2.8,0,0,1,.96-.5,4.309,4.309,0,0,1,1.272-.174,5.18,5.18,0,0,1,1.452.18,5.188,5.188,0,0,1,1.008.4l-.54,1.476a5.114,5.114,0,0,0-.774-.318,3.352,3.352,0,0,0-1.026-.138,1.882,1.882,0,0,0-.966.186.628.628,0,0,0-.294.57.658.658,0,0,0,.108.384,1.05,1.05,0,0,0,.306.282,2.692,2.692,0,0,0,.456.228q.258.1.57.21.648.24,1.128.474a3.012,3.012,0,0,1,.8.546,1.978,1.978,0,0,1,.474.732A2.941,2.941,0,0,1,6.5-2.28,2.166,2.166,0,0,1,5.688-.474a3.938,3.938,0,0,1-2.46.642,6.816,6.816,0,0,1-1-.066A6.428,6.428,0,0,1,1.446-.06a4.508,4.508,0,0,1-.588-.2,4.465,4.465,0,0,1-.414-.2L.972-1.956a4.708,4.708,0,0,0,.918.366A4.761,4.761,0,0,0,3.228-1.428Zm8.616,1.6A4.041,4.041,0,0,1,8.754-.96a4.5,4.5,0,0,1-1.062-3.2,4.927,4.927,0,0,1,.324-1.842A3.969,3.969,0,0,1,8.9-7.374a3.713,3.713,0,0,1,1.344-.846,4.848,4.848,0,0,1,1.692-.288,5.423,5.423,0,0,1,.96.078,6.225,6.225,0,0,1,.756.18,3.731,3.731,0,0,1,.54.21q.216.108.312.168l-.54,1.512a4.53,4.53,0,0,0-.894-.348,4.266,4.266,0,0,0-1.158-.144,2.558,2.558,0,0,0-.846.144,1.913,1.913,0,0,0-.732.462,2.3,2.3,0,0,0-.51.822A3.449,3.449,0,0,0,9.636-4.2a4.369,4.369,0,0,0,.126,1.074,2.278,2.278,0,0,0,.408.858,1.959,1.959,0,0,0,.738.57,2.626,2.626,0,0,0,1.1.21,5.031,5.031,0,0,0,.732-.048,5.435,5.435,0,0,0,.576-.114,3.024,3.024,0,0,0,.444-.15q.192-.084.348-.156l.516,1.5a4.386,4.386,0,0,1-1.116.432A6.5,6.5,0,0,1,11.844.168ZM21.84,0q-.132-.432-.294-.888T21.228-1.8h-3.24q-.156.456-.318.912T17.376,0H15.432q.468-1.344.888-2.484t.822-2.148q.4-1.008.792-1.914t.81-1.77h1.788q.408.864.8,1.77t.8,1.914q.4,1.008.822,2.148T23.844,0ZM19.6-6.432q-.06.18-.18.492l-.276.72q-.156.408-.342.9T18.42-3.288h2.364q-.192-.54-.372-1.032t-.342-.9q-.162-.408-.282-.72T19.6-6.432ZM30.588-1.608V0H25.032V-8.316H26.9v6.708ZM37.836,0q-.132-.432-.294-.888T37.224-1.8h-3.24q-.156.456-.318.912T33.372,0H31.428q.468-1.344.888-2.484t.822-2.148q.4-1.008.792-1.914t.81-1.77h1.788q.408.864.8,1.77t.8,1.914q.4,1.008.822,2.148T39.84,0ZM35.592-6.432q-.06.18-.18.492l-.276.72q-.156.408-.342.9t-.378,1.032H36.78q-.192-.54-.372-1.032t-.342-.9q-.162-.408-.282-.72T35.592-6.432Z" transform="translate(67.104 42.06)"/>
    <g id="Group_58" data-name="Group 58" transform="matrix(-0.035, -0.999, 0.999, -0.035, 6.135, 66.791)">
      <path id="Path_93" data-name="Path 93" d="M269.986,274.312a24.789,24.789,0,1,1,25.688,39.1c-7.052,1.747-29.089,6.775-29.089,6.775s-1.506-23-1.679-30.259A24.676,24.676,0,0,1,269.986,274.312Z" transform="translate(-264.898 -264.561)" fill="#2d314e" opacity="0.92"/>
      <circle id="Ellipse_24" data-name="Ellipse 24" cx="22.782" cy="22.782" r="22.782" transform="translate(2.009 2.008)" fill="#ffcd70"/>
    </g>
    <path id="_06" data-name="06" d="M6.942-4.524a5.974,5.974,0,0,1-.865,3.49A2.768,2.768,0,0,1,3.692.182,2.768,2.768,0,0,1,1.307-1.033a5.974,5.974,0,0,1-.865-3.49,7.953,7.953,0,0,1,.227-2,4.408,4.408,0,0,1,.656-1.469A2.926,2.926,0,0,1,2.353-8.9a2.851,2.851,0,0,1,1.339-.312A2.768,2.768,0,0,1,6.077-8,5.948,5.948,0,0,1,6.942-4.524Zm-1.976,0A10.577,10.577,0,0,0,4.9-5.753a4.421,4.421,0,0,0-.208-.955,1.483,1.483,0,0,0-.39-.624.883.883,0,0,0-.611-.221.859.859,0,0,0-.6.221,1.573,1.573,0,0,0-.39.624,4.159,4.159,0,0,0-.214.955,10.577,10.577,0,0,0-.065,1.229,10.748,10.748,0,0,0,.065,1.235,4.167,4.167,0,0,0,.214.962,1.573,1.573,0,0,0,.39.624.859.859,0,0,0,.6.221A.883.883,0,0,0,4.3-1.7a1.483,1.483,0,0,0,.39-.624A4.428,4.428,0,0,0,4.9-3.289,10.748,10.748,0,0,0,4.966-4.524Zm6.1.286a3.877,3.877,0,0,0-.611.052,1.8,1.8,0,0,0-.507.143q0,.052-.007.156T9.932-3.7A5.728,5.728,0,0,0,10-2.821a2.477,2.477,0,0,0,.221.728,1.244,1.244,0,0,0,.416.487,1.136,1.136,0,0,0,.65.176,1.055,1.055,0,0,0,.552-.137,1.25,1.25,0,0,0,.377-.345,1.466,1.466,0,0,0,.221-.461,1.794,1.794,0,0,0,.072-.487,1.446,1.446,0,0,0-.332-1.021A1.462,1.462,0,0,0,11.063-4.238Zm.247-1.508a4.012,4.012,0,0,1,1.436.227,2.641,2.641,0,0,1,.969.617,2.327,2.327,0,0,1,.546.91,3.553,3.553,0,0,1,.169,1.105,3.256,3.256,0,0,1-.189,1.066,2.978,2.978,0,0,1-.572.988,3,3,0,0,1-.975.728,3.18,3.18,0,0,1-1.4.286A3.014,3.014,0,0,1,8.827-.845a4.334,4.334,0,0,1-.845-2.834,6.125,6.125,0,0,1,.4-2.3,4.536,4.536,0,0,1,1.15-1.684A5.021,5.021,0,0,1,11.342-8.7a7.675,7.675,0,0,1,2.386-.371q.026.4.052.787t.052.8a7.392,7.392,0,0,0-1.241.123,4.115,4.115,0,0,0-1.053.344,2.881,2.881,0,0,0-.826.6,2.586,2.586,0,0,0-.546.9,2.4,2.4,0,0,1,.585-.182A3.273,3.273,0,0,1,11.31-5.746Z" transform="translate(22.974 46.045)" fill="#231f20"/>
  </g>
</svg>
