<?xml version="1.0" encoding="utf-8"?>
<!-- Generator: Adobe Illustrator 25.2.3, SVG Export Plug-In . SVG Version: 6.00 Build 0)  -->
<svg version="1.1" id="Layer_1" xmlns="http://www.w3.org/2000/svg" width="142.207" height="70.828" xmlns:xlink="http://www.w3.org/1999/xlink" x="0px" y="0px"
	 viewBox="0 0 142.2 70.8" style="enable-background:new 0 0 142.2 70.8;" xml:space="preserve">
<style type="text/css">
	.st0{opacity:0.92;fill:#2D314E;enable-background:new    ;}
	.st1{fill:#676D81;}
	.st2{fill:#FFFFFF;}
	.st3{fill:#55BCBD;}
	.st4{clip-path:url(#SVGID_2_);}
	.st5{fill:#002C46;}
</style>
<g id="_24_julho_novo" transform="translate(200.275 451.873)">
	<path id="Path_11" class="st0" d="M-127.3-384.2c-0.1,1.9-1.7,3.3-3.6,3.2c-1.9-0.1-3.3-1.7-3.2-3.6c0.1-1.8,1.6-3.2,3.4-3.2
		C-128.7-387.7-127.2-386.1-127.3-384.2z"/>
</g>
<g id="scala" transform="translate(-4.405 0.296)">
	<g id="Layer_2_1_">
		<g id="Layer_1-2">
			<g>
				<rect x="44.2" y="24.8" class="st1" width="94.4" height="27.5"/>
				<g>
					<path class="st2" d="M67.6,40.9l1.2-1.5c0.8,0.8,2,1.3,3.2,1.3s1.7-0.5,1.7-1c0-1.6-5.7-0.5-5.7-4c0-1.5,1.4-2.8,3.8-2.8
						c1.4-0.1,2.8,0.4,3.9,1.3l-1.2,1.5c-0.8-0.7-1.8-1-2.8-1c-0.9,0-1.4,0.4-1.4,0.9c0,1.5,5.7,0.5,5.7,4c0,1.7-1.3,3-4,3
						C70.4,42.5,68.8,42,67.6,40.9z"/>
					<path class="st2" d="M76.9,37.6c0-2.7,2.3-4.9,5-4.8c0.1,0,0.2,0,0.3,0c1.7-0.1,3.3,0.8,4.1,2.3l-1.8,0.8
						c-0.5-0.8-1.4-1.4-2.3-1.4c-1.7,0-3.1,1.4-3.1,3.1s1.4,3.1,3.1,3.1c1,0,1.8-0.5,2.3-1.4l1.8,0.8c-0.9,1.5-2.4,2.3-4.1,2.3
						c-2.7,0.2-5.1-1.8-5.3-4.5C76.9,37.8,76.9,37.7,76.9,37.6z"/>
					<path class="st2" d="M94.6,42.2L94,40.6h-4.2l-0.6,1.6h-2.4l3.8-9.3h2.7l3.8,9.3C97.1,42.2,94.6,42.2,94.6,42.2z M92,34.9
						l-1.8,4h3.2L92,34.9z"/>
					<path class="st2" d="M97.9,42.2v-9.3h2.1v7.6h4.2v1.8L97.9,42.2z"/>
					<path class="st2" d="M112.7,42.2l-0.6-1.6h-4.3l-0.6,1.6h-2.4l3.8-9.3h2.7l3.8,9.3H112.7z M110,34.9l-1.5,4h2.9L110,34.9z"/>
				</g>
			</g>
			<rect x="6.7" y="24.8" class="st3" width="37.5" height="27.5"/>
			<g>
				<rect x="91.2" y="6.2" class="st3" width="47.3" height="18.6"/>
				<g>
					<g>
						<g>
							<defs>
								<rect id="SVGID_1_" x="100.3" y="9.9" width="29.2" height="11.2"/>
							</defs>
							<clipPath id="SVGID_2_">
								<use xlink:href="#SVGID_1_"  style="overflow:visible;"/>
							</clipPath>
							<g class="st4">
								<path class="st5" d="M100.8,15.9c-0.3-2.6,1.6-4.8,4.2-5.1c0.2,0,0.5,0,0.7,0c1.1,0,2.2,0.3,3.1,1l-1,1.6
									c-0.6-0.5-1.3-0.8-2.1-0.8c-1.5,0-2.6,1.2-2.6,2.7c0,0.1,0,0.1,0,0.2c0,0.1,0,0.1,0,0.2c0.7-0.8,1.6-1.3,2.7-1.3
									c1.8-0.2,3.4,1.1,3.6,2.9c0,0.1,0,0.2,0,0.2c-0.1,2-1.8,3.5-3.8,3.4c-0.1,0-0.1,0-0.2,0C102.2,20.9,100.8,18.6,100.8,15.9z
									 M107.1,17.6c0-1-0.9-1.5-2-1.5c-0.8,0-1.5,0.3-2,0.9c0,1.1,0.9,2,2.1,2l0,0C106.4,19.1,107.1,18.3,107.1,17.6z"/>
								<path class="st5" d="M117.9,20.7l-2.6-3.6l-2.6,3.6H110l3.8-5l-3.6-4.8h2.6l2.4,3.4l2.4-3.4h2.7l-3.6,4.8l3.8,5H117.9z"/>
								<path class="st5" d="M121,19.4l1.2-1.4c0.8,0.7,1.8,1.1,2.9,1.1c1.3,0,2-0.5,2-1.3c0-0.7-0.7-1.1-2.2-1.1h-1.3v-1.9h1.4
									c1.2,0,2-0.3,2-1.1c0-0.8-0.9-1.2-2-1.2c-1,0-1.9,0.4-2.7,1l-1.1-1.3c1.1-1.1,2.5-1.6,4-1.6c2.5,0,4,1,4,2.7
									c-0.1,1.2-1,2.1-2.2,2.2c1.3,0.1,2.3,1,2.4,2.2c0,1.7-1.6,2.9-4.1,2.9C123.6,20.9,122.1,20.4,121,19.4z"/>
							</g>
						</g>
					</g>
				</g>
			</g>
		</g>
	</g>
</g>
<polygon class="st3" points="2.3,52.6 52.6,63.8 21.6,51 "/>
<g>
	<path class="st5" d="M8.3,38.8c0-3.8,1.9-7.6,6.1-7.6c4.2,0,6.1,3.8,6.1,7.6s-1.9,7.6-6.1,7.6C10.2,46.4,8.3,42.6,8.3,38.8z
		 M17.3,38.8c0-2.7-0.8-4.8-2.9-4.8c-2.1,0-2.9,2.1-2.9,4.8s0.8,4.8,2.9,4.8C16.5,43.7,17.3,41.6,17.3,38.8z"/>
	<path class="st5" d="M22,42.4c0-1.8,1.4-3.1,3.1-3.8c-1.6-0.6-2.9-1.6-2.9-3.5c0-2.8,2.9-3.9,5.7-3.9c2.7,0,5.7,1.1,5.7,3.9
		c0,1.8-1.3,2.9-2.9,3.5c1.7,0.6,3.1,2,3.1,3.8c0,2.7-2.8,4.1-5.9,4.1S22,45.1,22,42.4z M30.6,41.9c0-1.2-1.8-1.8-2.7-1.9
		c-0.9,0.1-2.7,0.7-2.7,1.9c0,1.1,1.2,1.7,2.7,1.7C29.4,43.7,30.6,43,30.6,41.9z M30.3,35.7c0-1-1-1.6-2.5-1.6
		c-1.5,0-2.5,0.6-2.5,1.6c0,1.1,1.6,1.5,2.5,1.7C28.8,37.2,30.3,36.8,30.3,35.7z"/>
</g>
</svg>
