<?xml version="1.0" encoding="utf-8"?>
<!-- Generator: Adobe Illustrator 25.2.3, SVG Export Plug-In . SVG Version: 6.00 Build 0)  -->
<svg version="1.1" id="Layer_1" xmlns="http://www.w3.org/2000/svg" width="142.207" height="70.828" xmlns:xlink="http://www.w3.org/1999/xlink" x="0px" y="0px"
	 viewBox="0 0 142.2 70.8" style="enable-background:new 0 0 142.2 70.8;" xml:space="preserve">
<style type="text/css">
	.st0{opacity:0.92;fill:#2D314E;enable-background:new    ;}
	.st1{fill:#676D81;}
	.st2{fill:#55BCBD;}
	.st3{fill:#002C46;stroke:#002C46;stroke-width:0.7;stroke-miterlimit:10;}
	.st4{fill:#002C46;}
	.st5{fill:#FFFFFF;stroke:#FFFFFF;stroke-width:0.5;stroke-miterlimit:10;}
</style>
<g id="_24_julho_novo" transform="translate(200.275 451.873)">
	<path id="Path_11" class="st0" d="M-127.3-384.2c-0.1,1.9-1.7,3.3-3.6,3.2c-1.9-0.1-3.3-1.7-3.2-3.6c0.1-1.8,1.6-3.2,3.4-3.2
		C-128.7-387.7-127.2-386.1-127.3-384.2z"/>
</g>
<g>
	<rect x="87" y="29" class="st1" width="55.2" height="22.1"/>
</g>
<rect x="56.8" y="29" class="st2" width="30.1" height="22.1"/>
<g>
	<rect x="104.2" y="14.1" class="st2" width="38" height="14.9"/>
</g>
<polygon class="st2" points="56.8,51.1 66.8,60.1 61.8,49.8 "/>
<g>
	<path class="st3" d="M68.2,44.4c-0.6,0-1-0.1-1.5-0.4c-0.5-0.3-0.7-0.6-1-1c-0.2-0.4-0.5-0.9-0.6-1.4c-0.1-0.5-0.1-1-0.1-1.5
		c0-0.5,0.1-1,0.2-1.5c0.1-0.5,0.3-1,0.6-1.4c0.2-0.4,0.6-0.7,1-1c0.4-0.2,0.9-0.4,1.5-0.4s1,0.1,1.5,0.4c0.4,0.2,0.7,0.6,1,1
		c0.2,0.4,0.5,0.9,0.6,1.4c0.1,0.5,0.2,1,0.2,1.5c0,0.5-0.1,1-0.2,1.5c-0.1,0.5-0.3,1-0.6,1.4c-0.2,0.4-0.6,0.7-1,1
		C69.3,44.3,68.8,44.4,68.2,44.4z M67,43c0.3,0.3,0.7,0.5,1.3,0.5s0.9-0.2,1.3-0.5c0.3-0.3,0.6-0.7,0.7-1.3c0.1-0.5,0.2-1,0.2-1.7
		c0-0.6-0.1-1.1-0.2-1.7c-0.1-0.5-0.3-0.9-0.7-1.3c-0.3-0.3-0.7-0.5-1.3-0.5s-0.9,0.2-1.3,0.5s-0.6,0.7-0.7,1.3
		c-0.1,0.5-0.2,1-0.2,1.7s0.1,1.1,0.2,1.7C66.4,42.2,66.6,42.6,67,43z"/>
	<path class="st3" d="M77.9,43.8c-0.6,0.4-1.3,0.6-2.2,0.6s-1.5-0.2-2.1-0.6s-0.9-1-0.9-1.7c0-0.5,0.2-1,0.6-1.4
		c0.4-0.4,0.9-0.7,1.4-0.9c-0.5-0.2-1-0.4-1.3-0.7c-0.3-0.3-0.5-0.7-0.5-1.3c0-0.7,0.3-1.3,0.9-1.6c0.6-0.4,1.3-0.6,2-0.6
		c0.7,0,1.4,0.2,2,0.6c0.6,0.4,0.9,0.9,0.9,1.6c0,0.5-0.2,0.9-0.5,1.3s-0.8,0.6-1.3,0.7c0.6,0.2,1,0.5,1.4,0.9
		c0.4,0.4,0.6,0.9,0.6,1.4C78.7,42.8,78.4,43.4,77.9,43.8z M75.8,43.5c0.5,0,1-0.1,1.4-0.4c0.4-0.3,0.6-0.6,0.6-1
		c0-0.3-0.1-0.6-0.4-0.9s-0.5-0.5-0.8-0.5c-0.3-0.1-0.5-0.2-0.7-0.2c-0.2,0-0.5,0.1-0.7,0.2c-0.3,0.1-0.5,0.3-0.8,0.5
		c-0.3,0.2-0.4,0.6-0.4,0.9c0,0.5,0.2,0.8,0.6,1C74.7,43.4,75.2,43.5,75.8,43.5z M75.8,39.5c0.2,0,0.3-0.1,0.5-0.1
		c0.2-0.1,0.3-0.1,0.6-0.2c0.2-0.1,0.4-0.2,0.5-0.5c0.1-0.2,0.2-0.4,0.2-0.6c0-0.4-0.2-0.7-0.5-1s-0.8-0.4-1.3-0.4
		c-0.5,0-1,0.1-1.3,0.3c-0.3,0.2-0.5,0.6-0.5,1c0,0.2,0.1,0.5,0.2,0.6c0.2,0.2,0.3,0.3,0.5,0.5c0.2,0.1,0.4,0.2,0.6,0.2
		C75.4,39.4,75.6,39.5,75.8,39.5z"/>
</g>
<g>
	<path class="st4" d="M115.9,25.9c-0.6,0-1-0.1-1.4-0.3s-0.7-0.6-1-1c-0.2-0.4-0.4-0.9-0.6-1.4c-0.2-0.5-0.2-1-0.2-1.6
		c0-1.2,0.3-2.2,0.9-3.1c0.6-0.8,1.4-1.2,2.5-1.2c1,0,1.7,0.3,2.3,1l-0.6,0.8c-0.5-0.6-1-0.9-1.8-0.9c-0.7,0-1.4,0.3-1.8,1
		c-0.4,0.6-0.6,1.4-0.6,2.3v0.3c0.2-0.3,0.6-0.6,1-0.9c0.4-0.2,0.9-0.4,1.4-0.4c0.8,0,1.4,0.2,1.9,0.7c0.5,0.5,0.8,1.1,0.8,1.9
		c0,0.7-0.2,1.4-0.8,1.9C117.4,25.7,116.7,25.9,115.9,25.9z M115.8,24.9c0.6,0,1-0.2,1.4-0.6c0.3-0.4,0.5-0.8,0.5-1.2
		c0-0.6-0.2-1-0.6-1.4c-0.3-0.3-0.8-0.5-1.4-0.5c-0.4,0-0.8,0.1-1.2,0.3s-0.6,0.6-0.9,0.9c0.1,0.6,0.2,1.1,0.6,1.6
		C114.7,24.7,115.1,24.9,115.8,24.9z"/>
	<path class="st4" d="M127.3,25.7h-1.3l-2.7-3.5l-2.7,3.5h-1.3l3.2-4.3l-3.1-4h1.3l2.5,3.3l2.5-3.3h1.3l-3.1,4L127.3,25.7z"/>
	<path class="st4" d="M130.8,25.9c-0.6,0-1.3-0.2-1.8-0.4s-0.9-0.6-1.2-1l0.6-0.6c0.2,0.3,0.6,0.6,1,0.8c0.4,0.2,0.9,0.3,1.4,0.3
		c0.6,0,1-0.2,1.4-0.4c0.3-0.3,0.6-0.6,0.6-1.1s-0.2-0.9-0.6-1.1s-0.9-0.3-1.5-0.3c-0.5,0-0.8,0-0.9,0v-1c0.1,0,0.4,0,0.9,0
		c0.6,0,1-0.1,1.4-0.3c0.4-0.2,0.6-0.6,0.6-1c0-0.4-0.2-0.8-0.6-1c-0.3-0.2-0.8-0.4-1.4-0.4c-0.8,0-1.6,0.3-2.2,1l-0.6-0.6
		c0.7-0.9,1.7-1.3,2.8-1.3c0.8,0,1.5,0.2,2,0.6c0.6,0.4,0.8,1,0.8,1.6c0,0.6-0.2,1-0.6,1.3c-0.4,0.3-0.8,0.6-1.2,0.6
		c0.5,0.1,0.9,0.2,1.3,0.6c0.4,0.4,0.6,0.8,0.6,1.4c0,0.7-0.2,1.3-0.8,1.7C132.4,25.7,131.7,25.9,130.8,25.9z"/>
</g>
<g>
	<path class="st5" d="M99.3,44.4c-1.4,0-2.4-0.4-3.2-1.3l0.6-0.8c0.7,0.8,1.5,1.2,2.6,1.2c0.6,0,1.2-0.2,1.4-0.4
		c0.3-0.3,0.5-0.6,0.5-1c0-0.3-0.2-0.6-0.4-0.8c-0.2-0.2-0.6-0.4-0.9-0.5c-0.3-0.1-0.7-0.2-1.2-0.3c-0.4-0.2-0.8-0.2-1.2-0.4
		c-0.3-0.2-0.6-0.4-0.9-0.7c-0.2-0.3-0.4-0.7-0.4-1.2c0-0.6,0.2-1.2,0.8-1.7c0.6-0.4,1.2-0.6,2.1-0.6c1.2,0,2.2,0.4,3,1.2l-0.6,0.7
		c-0.6-0.6-1.4-1-2.4-1c-0.5,0-0.9,0.2-1.2,0.4c-0.3,0.2-0.5,0.6-0.5,1c0,0.3,0.2,0.6,0.4,0.7c0.2,0.2,0.6,0.3,0.9,0.4
		c0.3,0.1,0.7,0.2,1.2,0.3s0.8,0.3,1.2,0.4c0.4,0.1,0.6,0.4,0.9,0.7c0.2,0.3,0.4,0.7,0.4,1.2c0,0.6-0.2,1.3-0.7,1.7
		C101.1,44.1,100.3,44.4,99.3,44.4z"/>
	<path class="st5" d="M107.9,44.4c-1.2,0-2.2-0.4-3.1-1.2c-0.8-0.8-1.2-1.8-1.2-3.1c0-1.3,0.4-2.3,1.2-3.1c0.8-0.8,1.8-1.2,3.1-1.2
		c1.4,0,2.4,0.6,3.1,1.6l-0.9,0.5c-0.2-0.4-0.6-0.6-1-0.9c-0.4-0.2-0.9-0.3-1.3-0.3c-0.9,0-1.7,0.3-2.3,1c-0.6,0.6-0.9,1.4-0.9,2.4
		s0.3,1.8,0.9,2.4c0.6,0.6,1.4,1,2.2,1c0.5,0,0.9-0.1,1.3-0.3c0.4-0.2,0.7-0.5,1-0.9l0.9,0.5C110.2,43.8,109.1,44.4,107.9,44.4z"/>
	<path class="st5" d="M119.4,44.2h-1.2l-0.7-1.8h-4.1l-0.7,1.8h-1.2l3.4-8.3h1.3L119.4,44.2z M117.2,41.5l-1.8-4.5l-1.8,4.5H117.2z"
		/>
	<path class="st5" d="M125.3,44.2h-4.9v-8.3h1v7.4h3.9C125.3,43.3,125.3,44.2,125.3,44.2z"/>
	<path class="st5" d="M133.7,44.2h-1.2l-0.7-1.8h-4.1l-0.7,1.8h-1.2l3.4-8.3h1.3L133.7,44.2z M131.6,41.5l-1.8-4.5l-1.8,4.5H131.6z"
		/>
</g>
</svg>
