<?xml version="1.0" encoding="utf-8"?>
<!-- Generator: Adobe Illustrator 25.2.3, SVG Export Plug-In . SVG Version: 6.00 Build 0)  -->
<svg version="1.1" id="Layer_1" xmlns="http://www.w3.org/2000/svg" width="200" height="90" xmlns:xlink="http://www.w3.org/1999/xlink" x="0px" y="0px"
	 viewBox="0 0 200 90" style="enable-background:new 0 0 200 90;" xml:space="preserve">
<style type="text/css">
	.st0{fill:#55BCBD;}
	.st1{opacity:0.92;fill:#2D314E;enable-background:new    ;}
	.st2{fill:#D0D09B;}
	.st3{fill:#292333;}
	.st4{fill:#002C46;stroke:#002C46;stroke-width:0.7;stroke-miterlimit:10;}
	.st5{fill:#002C46;}
	.st6{fill:#002C46;stroke:#002C46;stroke-width:0.5;stroke-miterlimit:10;}
	.st7{fill:#FFFFFF;stroke:#FFFFFF;stroke-width:0.5;stroke-miterlimit:10;}
</style>
<g>
	<g>
		<rect x="155.7" y="5.5" class="st0" width="44.1" height="16.5"/>
	</g>
</g>
<g id="_24_julho_novo" transform="translate(200.275 451.873)">
	<path id="Path_11" class="st1" d="M-113.2-369.9c-0.1,1.8-1.6,3.2-3.4,3.1s-3.2-1.6-3.1-3.4c0.1-1.7,1.5-3.1,3.3-3.1
		C-114.6-373.3-113.1-371.7-113.2-369.9z"/>
</g>
<g>
	<rect x="108.7" y="20.6" class="st2" width="91.1" height="22.1"/>
</g>
<g>
	<rect x="79.3" y="20.6" class="st0" width="30.1" height="22.1"/>
</g>
<g>
	<rect x="108.7" y="43.3" class="st3" width="91.1" height="22.1"/>
</g>
<g>
	<g id="Layer_1-2_13_">
		<rect x="79.3" y="43.3" class="st0" width="30.1" height="22.1"/>
	</g>
</g>
<polygon class="st0" points="79.3,65.5 84.1,72.8 84.1,62.8 "/>
<g>
	<path class="st4" d="M90.5,36.3c-0.7,0-1.1-0.1-1.6-0.5c-0.5-0.3-0.9-0.7-1.1-1.1c-0.3-0.5-0.5-0.9-0.7-1.5
		c-0.1-0.6-0.2-1.1-0.2-1.7s0.1-1.1,0.2-1.7c0.1-0.6,0.3-1,0.7-1.5c0.3-0.5,0.7-0.9,1.1-1.1c0.5-0.3,0.9-0.5,1.6-0.5
		s1.1,0.1,1.6,0.5c0.5,0.3,0.9,0.7,1.1,1.1s0.5,0.9,0.7,1.5c0.1,0.6,0.2,1.1,0.2,1.7s-0.1,1.1-0.2,1.7c-0.1,0.6-0.3,1-0.7,1.5
		c-0.3,0.5-0.7,0.9-1.1,1.1C91.6,36.2,91.2,36.3,90.5,36.3z M89.2,34.8c0.4,0.4,0.9,0.6,1.3,0.6c0.6,0,0.9-0.2,1.3-0.6
		s0.7-0.9,0.8-1.3c0.1-0.6,0.2-1.1,0.2-1.8c0-0.7-0.1-1.2-0.2-1.8c-0.1-0.6-0.4-0.9-0.8-1.3C91.5,28.2,91,28,90.5,28
		c-0.6,0-0.9,0.2-1.3,0.6c-0.4,0.4-0.7,0.9-0.8,1.3c-0.1,0.6-0.2,1.1-0.2,1.8c0,0.7,0.1,1.2,0.2,1.8C88.5,33.9,88.8,34.4,89.2,34.8z
		"/>
	<path class="st4" d="M98.4,36.3c-0.8,0-1.3-0.1-1.9-0.5c-0.6-0.3-0.9-0.7-1.3-1l0.7-0.7c0.3,0.4,0.7,0.7,1,0.9
		c0.5,0.3,0.9,0.3,1.5,0.3c0.7,0,1.1-0.1,1.5-0.5c0.4-0.3,0.6-0.8,0.6-1.2c0-0.6-0.2-0.9-0.7-1.2S98.8,32,98.1,32
		c-0.6,0-0.9,0-0.9,0V31c0.1,0,0.5,0,0.9,0c0.7,0,1.1-0.1,1.5-0.4c0.4-0.3,0.7-0.7,0.7-1.1s-0.2-0.9-0.6-1.1s-0.9-0.5-1.4-0.5
		c-0.9,0-1.7,0.4-2.5,1.1l-0.7-0.7c0.8-0.9,1.8-1.4,3.1-1.4c0.9,0,1.6,0.2,2.3,0.7c0.6,0.5,0.9,0.9,0.9,1.7c0,0.7-0.2,1-0.7,1.4
		c-0.4,0.4-0.9,0.6-1.3,0.7c0.5,0.1,0.9,0.3,1.4,0.7c0.5,0.4,0.7,0.9,0.7,1.6c0,0.8-0.3,1.4-0.9,1.9C100.2,36,99.3,36.3,98.4,36.3z"
		/>
</g>
<g>
	<path class="st4" d="M90.6,59.1c-0.7,0-1.1-0.1-1.6-0.5c-0.5-0.3-0.8-0.7-1.1-1.1c-0.3-0.5-0.5-1-0.7-1.5c-0.1-0.6-0.2-1.1-0.2-1.7
		s0.1-1.1,0.2-1.7s0.3-1,0.7-1.5c0.3-0.5,0.7-0.8,1.1-1.1s1-0.5,1.6-0.5s1.1,0.1,1.6,0.5c0.5,0.3,0.8,0.7,1.1,1.1
		c0.3,0.5,0.5,0.9,0.7,1.5c0.1,0.6,0.2,1.1,0.2,1.7S94,55.4,93.9,56s-0.3,1-0.7,1.5c-0.3,0.5-0.7,0.8-1.1,1.1
		C91.7,59,91.2,59.1,90.6,59.1z M89.2,57.6c0.4,0.4,0.8,0.6,1.4,0.6s1-0.2,1.4-0.6c0.4-0.4,0.7-0.8,0.8-1.4c0.1-0.6,0.2-1.1,0.2-1.8
		s-0.1-1.2-0.2-1.8c-0.1-0.6-0.4-1-0.8-1.4s-0.8-0.6-1.4-0.6s-1,0.2-1.4,0.6c-0.4,0.4-0.7,0.8-0.8,1.4c-0.1,0.6-0.2,1.1-0.2,1.8
		s0.1,1.2,0.2,1.8S88.9,57.2,89.2,57.6z"/>
	<path class="st4" d="M100.7,58.9h-1.1v-2.4h-4.3v-0.9l4-5.8h1.6v5.8h1.3v1h-1.3L100.7,58.9L100.7,58.9z M99.6,55.6v-4.8l-3.2,4.8
		H99.6z"/>
</g>
<g>
	<path class="st5" d="M171.6,17.2c-0.6,0.5-1.5,0.7-2.4,0.7c-1,0-1.8-0.3-2.4-0.7c-0.6-0.5-1-1.1-1-1.8c0-0.6,0.2-1.1,0.6-1.6
		c0.5-0.5,1-0.7,1.7-0.9c-0.6-0.2-1.1-0.5-1.5-0.8c-0.4-0.4-0.6-0.8-0.6-1.5c0-0.8,0.4-1.4,1-1.8c0.6-0.5,1.4-0.6,2.3-0.6
		s1.7,0.2,2.3,0.6c0.6,0.5,1,1,1,1.8c0,0.6-0.2,1.1-0.6,1.5c-0.5,0.4-0.9,0.6-1.6,0.8c0.6,0.2,1.2,0.5,1.7,0.9
		c0.5,0.5,0.6,0.9,0.6,1.6C172.5,16.1,172.2,16.8,171.6,17.2z M169.1,17c0.6,0,1.1-0.2,1.6-0.5s0.6-0.7,0.6-1.2c0-0.4-0.2-0.7-0.5-1
		s-0.6-0.5-0.9-0.6c-0.3-0.1-0.6-0.2-0.8-0.2s-0.6,0.1-0.8,0.2c-0.3,0.1-0.6,0.4-0.9,0.6c-0.3,0.3-0.5,0.6-0.5,1
		c0,0.5,0.2,0.9,0.6,1.2C168,16.8,168.5,17,169.1,17z M169.1,12.4c0.2,0,0.4-0.1,0.6-0.2c0.2-0.1,0.5-0.2,0.6-0.3
		c0.3-0.1,0.5-0.3,0.6-0.5c0.2-0.2,0.2-0.5,0.2-0.7c0-0.5-0.2-0.8-0.6-1.1c-0.4-0.3-0.9-0.5-1.5-0.5s-1.1,0.2-1.5,0.5
		s-0.6,0.6-0.6,1.1c0,0.3,0.1,0.6,0.2,0.7c0.1,0.2,0.4,0.4,0.6,0.5c0.3,0.1,0.5,0.2,0.6,0.3C168.7,12.4,168.9,12.4,169.1,12.4z"/>
	<path class="st5" d="M182.5,17.8H181l-3-4.1l-3,4.1h-1.5l3.7-4.9l-3.5-4.6h1.5l2.9,3.8l2.9-3.8h1.5l-3.5,4.6L182.5,17.8z"/>
	<path class="st5" d="M188.7,17.8h-1.2v-2.4H183v-1l4.1-6.1h1.7v6.1h1.4v1h-1.4v2.4H188.7z M187.5,14.4v-5l-3.3,5H187.5z"/>
</g>
<g>
	<path class="st6" d="M118.2,36.4H117v-8.5h-3v-1h7.2v1h-3V36.4L118.2,36.4z"/>
	<path class="st6" d="M122.6,36.3c-0.2,0.2-0.4,0.2-0.6,0.2s-0.4-0.1-0.6-0.2c-0.2-0.2-0.2-0.4-0.2-0.6c0-0.2,0.1-0.4,0.2-0.6
		c0.2-0.2,0.4-0.2,0.6-0.2s0.4,0.1,0.6,0.2c0.2,0.2,0.2,0.4,0.2,0.6C122.8,36,122.7,36.1,122.6,36.3z"/>
	<path class="st6" d="M131.6,36.6c-1.6,0-2.8-0.5-3.7-1.5l0.7-0.9c0.8,0.9,1.8,1.4,3,1.4c0.7,0,1.4-0.2,1.7-0.5
		c0.4-0.4,0.6-0.7,0.6-1.2c0-0.4-0.2-0.7-0.5-0.9c-0.3-0.3-0.6-0.5-1-0.6s-0.8-0.3-1.4-0.4c-0.6-0.1-0.9-0.3-1.4-0.5s-0.7-0.5-1-0.8
		c-0.3-0.4-0.5-0.8-0.5-1.4c0-0.7,0.3-1.4,0.9-1.9c0.6-0.5,1.4-0.7,2.4-0.7c1.4,0,2.5,0.5,3.4,1.4l-0.7,0.8
		c-0.6-0.7-1.6-1.1-2.8-1.1c-0.6,0-1,0.2-1.4,0.5s-0.6,0.6-0.6,1.1c0,0.4,0.2,0.6,0.5,0.8c0.3,0.2,0.6,0.4,1,0.5s0.8,0.3,1.4,0.4
		c0.5,0.2,0.9,0.4,1.4,0.5c0.5,0.2,0.7,0.5,1,0.8c0.3,0.4,0.5,0.8,0.5,1.4c0,0.7-0.3,1.5-0.8,1.9C133.7,36.3,132.8,36.6,131.6,36.6z
		"/>
	<path class="st6" d="M141.2,36.6c-1.4,0-2.5-0.5-3.4-1.4s-1.3-2.1-1.3-3.5s0.5-2.6,1.3-3.5c0.9-0.9,2-1.4,3.4-1.4s2.5,0.5,3.4,1.4
		s1.3,2.1,1.3,3.5c0,1.4-0.5,2.6-1.3,3.5l0.9,0.9l-0.8,0.7l-0.9-1C143.1,36.3,142.2,36.6,141.2,36.6z M141.2,35.5
		c0.6,0,1.3-0.2,1.8-0.5l-1.4-1.5l0.8-0.7l1.4,1.5c0.6-0.7,0.9-1.7,0.9-2.7c0-1.1-0.4-2-1-2.8c-0.6-0.7-1.5-1.1-2.6-1.1
		c-1,0-1.9,0.4-2.6,1.1c-0.6,0.7-0.9,1.7-0.9,2.8s0.3,2,0.9,2.8C139.3,35.1,140.1,35.5,141.2,35.5z"/>
	<path class="st6" d="M151.7,36.6c-1.3,0-2.2-0.4-2.9-1c-0.6-0.6-1-1.7-1-2.9v-5.8h1.2v5.8c0,0.9,0.3,1.6,0.7,2.1
		c0.5,0.6,1.1,0.7,2,0.7s1.6-0.3,2-0.7c0.5-0.5,0.7-1.2,0.7-2.1v-5.8h1.2v5.8c0,1.2-0.4,2.1-1,2.9C154.1,36.3,153,36.6,151.7,36.6z"
		/>
	<path class="st6" d="M165.6,36.4h-1.4l-0.8-2.1h-4.7l-0.8,2.1h-1.4l3.9-9.5h1.5L165.6,36.4z M163.1,33.2l-2-5.2l-2,5.2H163.1z"/>
	<path class="st6" d="M173.8,36.4h-1.4l-2.4-3.8h-1.9v3.8h-1.2v-9.6h3.9c0.9,0,1.6,0.3,2.1,0.8c0.6,0.6,0.8,1.2,0.8,2.1
		c0,0.8-0.3,1.5-0.7,1.9c-0.5,0.5-1.1,0.7-1.8,0.8L173.8,36.4z M170.6,31.5c0.6,0,1-0.2,1.4-0.6s0.6-0.7,0.6-1.3s-0.2-1-0.6-1.3
		c-0.4-0.4-0.8-0.5-1.4-0.5h-2.5v3.7L170.6,31.5L170.6,31.5z"/>
	<path class="st6" d="M181.8,36.4h-6.3v-9.6h6.3v1h-5.1V31h5v1h-5v3.3h5.1V36.4z"/>
	<path class="st6" d="M195.5,36.4h-1.4l-0.8-2.1h-4.7l-0.8,2.1h-1.4l3.9-9.5h1.5L195.5,36.4z M193,33.2l-2-5.2l-2,5.2H193z"/>
</g>
<g>
	<path class="st7" d="M118.4,59.2h-1.2v-8.5h-3v-1h7.2v1h-3V59.2L118.4,59.2z"/>
	<path class="st7" d="M122.8,59.1c-0.2,0.2-0.4,0.2-0.6,0.2s-0.4-0.1-0.6-0.2c-0.2-0.2-0.2-0.4-0.2-0.6c0-0.2,0.1-0.4,0.2-0.6
		c0.2-0.2,0.4-0.2,0.6-0.2s0.4,0.1,0.6,0.2c0.2,0.2,0.2,0.4,0.2,0.6C123,58.7,122.9,58.9,122.8,59.1z"/>
	<path class="st7" d="M131.7,59.4c-1.6,0-2.8-0.5-3.7-1.5l0.7-0.9c0.8,0.9,1.8,1.4,3,1.4c0.7,0,1.4-0.2,1.7-0.5
		c0.4-0.4,0.6-0.7,0.6-1.2c0-0.4-0.2-0.7-0.5-0.9c-0.3-0.3-0.6-0.5-1-0.6s-0.8-0.3-1.4-0.4c-0.6-0.1-0.9-0.3-1.4-0.5s-0.7-0.5-1-0.8
		c-0.3-0.4-0.5-0.8-0.5-1.4c0-0.7,0.3-1.4,0.9-1.9c0.6-0.5,1.4-0.7,2.4-0.7c1.4,0,2.5,0.5,3.4,1.4l-0.7,0.8
		c-0.6-0.7-1.6-1.1-2.8-1.1c-0.6,0-1,0.2-1.4,0.5s-0.6,0.6-0.6,1.1c0,0.4,0.2,0.6,0.5,0.8s0.6,0.4,1,0.5s0.8,0.3,1.4,0.4
		c0.5,0.2,0.9,0.4,1.4,0.5c0.5,0.2,0.7,0.5,1,0.8s0.5,0.8,0.5,1.4c0,0.7-0.3,1.5-0.8,1.9C133.9,59.1,132.9,59.4,131.7,59.4z"/>
	<path class="st7" d="M141.4,59.4c-1.4,0-2.5-0.5-3.4-1.4s-1.3-2.1-1.3-3.5s0.5-2.6,1.3-3.5c0.9-0.9,2-1.4,3.4-1.4s2.5,0.5,3.4,1.4
		s1.3,2.1,1.3,3.5s-0.5,2.6-1.3,3.5l0.9,0.9l-0.8,0.7l-0.9-1C143.3,59.1,142.4,59.4,141.4,59.4z M141.4,58.3c0.6,0,1.3-0.2,1.8-0.5
		l-1.4-1.5l0.8-0.7l1.4,1.5c0.6-0.7,0.9-1.7,0.9-2.7c0-1.1-0.4-2-1-2.8c-0.6-0.7-1.5-1.1-2.6-1.1c-1,0-1.9,0.4-2.6,1.1
		s-0.9,1.7-0.9,2.8s0.3,2,0.9,2.8C139.5,57.9,140.3,58.3,141.4,58.3z"/>
	<path class="st7" d="M151.8,59.4c-1.3,0-2.2-0.4-2.9-1c-0.6-0.6-1-1.7-1-2.9v-5.8h1.2v5.8c0,0.9,0.3,1.6,0.7,2.1
		c0.5,0.6,1.1,0.7,2,0.7s1.6-0.3,2-0.7c0.5-0.5,0.7-1.2,0.7-2.1v-5.8h1.2v5.8c0,1.2-0.4,2.1-1,2.9C154.2,59.1,153.1,59.4,151.8,59.4
		z"/>
	<path class="st7" d="M165.8,59.2h-1.4l-0.8-2.1h-4.7l-0.8,2.1h-1.4l3.9-9.5h1.5L165.8,59.2z M163.3,56l-2-5.2l-2,5.2H163.3z"/>
	<path class="st7" d="M174,59.2h-1.4l-2.4-3.8h-1.9v3.8h-1.2v-9.6h3.9c0.9,0,1.6,0.3,2.1,0.8c0.6,0.6,0.8,1.2,0.8,2.1
		c0,0.8-0.3,1.5-0.7,1.9c-0.5,0.5-1.1,0.7-1.8,0.8L174,59.2z M170.7,54.3c0.6,0,1-0.2,1.4-0.6c0.4-0.4,0.6-0.7,0.6-1.3
		s-0.2-1-0.6-1.3c-0.4-0.4-0.8-0.5-1.4-0.5h-2.5v3.7L170.7,54.3L170.7,54.3z"/>
	<path class="st7" d="M182,59.2h-6.3v-9.6h6.3v1h-5.1v3h5v1h-5V58h5.1V59.2z"/>
	<path class="st7" d="M192,59.2h-4.3v-9.6h4.2c0.8,0,1.5,0.2,1.9,0.6c0.5,0.5,0.7,1,0.7,1.8c0,0.6-0.2,1-0.5,1.5
		c-0.4,0.4-0.7,0.6-1.2,0.7c0.5,0.1,0.9,0.4,1.3,0.8s0.6,1,0.6,1.6c0,0.7-0.3,1.4-0.7,1.8C193.4,58.9,192.8,59.2,192,59.2z
		 M191.7,53.8c0.6,0,0.9-0.2,1.2-0.5s0.5-0.6,0.5-1.1s-0.2-0.8-0.5-1.1s-0.7-0.5-1.2-0.5h-2.9v3L191.7,53.8L191.7,53.8z M191.7,58.1
		c0.6,0,1-0.2,1.3-0.5s0.5-0.7,0.5-1.2s-0.2-0.8-0.5-1.2c-0.3-0.3-0.7-0.5-1.3-0.5h-3V58h3V58.1z"/>
</g>
</svg>
