<svg xmlns="http://www.w3.org/2000/svg" xmlns:xlink="http://www.w3.org/1999/xlink" width="150" height="95.826" viewBox="0 0 75.83 36.09"><defs><style>.cls-1{fill:none;}.cls-2{fill:#d0d09b;}.cls-3{fill:#002c46;}.cls-4{fill:#55bcbd;}.cls-5{fill:#2d314e;}.cls-6{fill:#292333;}.cls-7{fill:#fff;}.cls-8{clip-path:url(#clip-path);}</style><clipPath id="clip-path"><rect class="cls-1" x="4.05" y="1.64" width="13" height="5"/></clipPath></defs><g id="Layer_2" data-name="Layer 2"><g id="Layer_1-2" data-name="Layer 1"><rect class="cls-2" y="5.82" width="56" height="12.24" rx="1.53"/><path class="cls-3" d="M4.14,14V11.15H3.05V10.5H6v.65H4.94V14Z"/><path class="cls-3" d="M6.59,14V10.5h.8V14Z"/><path class="cls-3" d="M11.43,14V11.47L10.37,14H10L9,11.47V14h-.8V10.5H9.29l.91,2.18.91-2.18h1.12V14Z"/><path class="cls-3" d="M13,14V10.5h2.65v.65H13.82v.74h1.81v.65H13.82v.8h1.85V14Z"/><path class="cls-3" d="M16.08,13.5l.44-.58a1.67,1.67,0,0,0,1.19.48c.44,0,.65-.18.65-.39,0-.61-2.15-.18-2.15-1.5,0-.58.53-1.07,1.42-1.07a2.18,2.18,0,0,1,1.46.49l-.45.56a1.68,1.68,0,0,0-1.09-.39c-.33,0-.52.14-.52.35,0,.55,2.15.18,2.15,1.49,0,.64-.5,1.12-1.5,1.12A2.27,2.27,0,0,1,16.08,13.5Z"/><path class="cls-3" d="M21,13.5l.43-.58a1.71,1.71,0,0,0,1.19.48c.45,0,.65-.18.65-.39,0-.61-2.15-.18-2.15-1.5,0-.58.54-1.07,1.42-1.07a2.18,2.18,0,0,1,1.46.49l-.44.56a1.71,1.71,0,0,0-1.09-.39c-.34,0-.53.14-.53.35,0,.55,2.15.18,2.15,1.49,0,.64-.5,1.12-1.5,1.12A2.24,2.24,0,0,1,21,13.5Z"/><path class="cls-3" d="M24.48,12.25a1.82,1.82,0,0,1,2-1.81,1.82,1.82,0,0,1,1.95,1.81,1.75,1.75,0,0,1-.49,1.24l.28.3-.56.42-.3-.32a2.26,2.26,0,0,1-.88.17A1.82,1.82,0,0,1,24.48,12.25Zm2.35,1.09-.41-.45.55-.43.41.46a1.17,1.17,0,0,0,.19-.67,1.14,1.14,0,1,0-1.13,1.15A1.23,1.23,0,0,0,26.83,13.34Z"/><path class="cls-3" d="M29,12.6V10.5h.81v2.07a.88.88,0,0,0,1.76,0V10.5h.81v2.1c0,.86-.55,1.46-1.69,1.46S29,13.46,29,12.6Z"/><path class="cls-3" d="M35.76,14l-.24-.6H33.91l-.23.6h-.91l1.45-3.5h1L36.66,14Zm-1-2.76-.59,1.51H35.3Z"/><path class="cls-3" d="M39.17,14l-.73-1.25h-.59V14h-.8V10.5h1.76a1.13,1.13,0,0,1,1.26,1.12,1,1,0,0,1-.83,1L40.09,14Zm.08-2.38a.5.5,0,0,0-.56-.47h-.84v.95h.84A.5.5,0,0,0,39.25,11.62Z"/><path class="cls-3" d="M40.71,14V10.5h2.65v.65H41.51v.74h1.81v.65H41.51v.8h1.85V14Z"/><path class="cls-3" d="M48.11,14l-.24-.6H46.26L46,14h-.91l1.45-3.5h1L49,14Zm-1-2.76-.59,1.51h1.17Z"/><rect class="cls-4" x="51.44" y="3.59" width="16.7" height="16.7" rx="4" transform="translate(9.07 45.77) rotate(-45)"/><path class="cls-3" d="M54.3,11.68c0-1.64.81-3.27,2.63-3.27s2.63,1.63,2.63,3.27S58.75,15,56.93,15,54.3,13.32,54.3,11.68Zm3.88,0c0-1.17-.34-2.07-1.25-2.07s-1.25.9-1.25,2.07.34,2.09,1.25,2.09S58.18,12.85,58.18,11.68Z"/><path class="cls-3" d="M60.07,14l.71-.91a2.5,2.5,0,0,0,1.75.73c.77,0,1.19-.34,1.19-.81s-.39-.74-1.27-.74l-.79,0V11h.79c.7,0,1.18-.2,1.18-.67s-.52-.75-1.18-.75a2.33,2.33,0,0,0-1.62.65l-.68-.84a3.15,3.15,0,0,1,2.43-1c1.49,0,2.4.66,2.4,1.72a1.56,1.56,0,0,1-1.39,1.45,1.59,1.59,0,0,1,1.49,1.52c0,1.1-1,1.87-2.51,1.87A3.19,3.19,0,0,1,60.07,14Z"/><path class="cls-5" d="M72.16,12.33a1.74,1.74,0,0,1,1.34-2.15,1.92,1.92,0,0,1,2.27,1.35,1.74,1.74,0,0,1-1.34,2.16,1.92,1.92,0,0,1-2.27-1.36"/><rect class="cls-6" y="19.82" width="56" height="12.24" rx="1.53"/><path class="cls-7" d="M3.14,28V25.15H2.05V24.5H5v.65H3.94V28Z"/><path class="cls-7" d="M5.59,28V24.5h.8V28Z"/><path class="cls-7" d="M10.43,28V25.47L9.37,28H9L8,25.47V28h-.8V24.5H8.29l.91,2.18.91-2.18h1.12V28Z"/><path class="cls-7" d="M12,28V24.5h2.65v.65H12.82v.74h1.81v.65H12.82v.8h1.85V28Z"/><path class="cls-7" d="M15.08,27.5l.44-.58a1.67,1.67,0,0,0,1.19.48c.44,0,.65-.18.65-.39,0-.61-2.15-.18-2.15-1.5,0-.58.53-1.07,1.42-1.07a2.18,2.18,0,0,1,1.46.49l-.45.56a1.68,1.68,0,0,0-1.09-.39c-.33,0-.52.14-.52.35,0,.55,2.15.18,2.15,1.49,0,.64-.5,1.12-1.5,1.12A2.27,2.27,0,0,1,15.08,27.5Z"/><path class="cls-7" d="M20,27.5l.43-.58a1.71,1.71,0,0,0,1.19.48c.45,0,.65-.18.65-.39,0-.61-2.15-.18-2.15-1.5,0-.58.54-1.07,1.42-1.07a2.18,2.18,0,0,1,1.46.49l-.44.56a1.71,1.71,0,0,0-1.09-.39c-.34,0-.53.14-.53.35,0,.55,2.15.18,2.15,1.49,0,.64-.5,1.12-1.5,1.12A2.24,2.24,0,0,1,20,27.5Z"/><path class="cls-7" d="M23.48,26.25a1.82,1.82,0,0,1,2-1.81,1.82,1.82,0,0,1,1.95,1.81,1.75,1.75,0,0,1-.49,1.24l.28.3-.56.42-.3-.32a2.26,2.26,0,0,1-.88.17A1.82,1.82,0,0,1,23.48,26.25Zm2.35,1.09-.41-.45.55-.43.41.46a1.17,1.17,0,0,0,.19-.67,1.14,1.14,0,1,0-1.13,1.15A1.23,1.23,0,0,0,25.83,27.34Z"/><path class="cls-7" d="M28,26.6V24.5h.81v2.07a.88.88,0,0,0,1.76,0V24.5h.81v2.1c0,.86-.55,1.46-1.69,1.46S28,27.46,28,26.6Z"/><path class="cls-7" d="M34.76,28l-.24-.6H32.91l-.23.6h-.91l1.45-3.5h1L35.66,28Zm-1-2.76-.59,1.51H34.3Z"/><path class="cls-7" d="M38.17,28l-.73-1.25h-.59V28h-.8V24.5h1.76a1.13,1.13,0,0,1,1.26,1.12,1,1,0,0,1-.83,1L39.09,28Zm.08-2.38a.5.5,0,0,0-.56-.47h-.84v1h.84A.5.5,0,0,0,38.25,25.62Z"/><path class="cls-7" d="M39.71,28V24.5h2.65v.65H40.51v.74h1.81v.65H40.51v.8h1.85V28Z"/><path class="cls-7" d="M44.52,28V24.5h2c.71,0,1.08.42,1.08.89a.79.79,0,0,1-.65.8.86.86,0,0,1,.72.86,1,1,0,0,1-1.09.95Zm2.23-2.48c0-.22-.17-.37-.44-.37h-1v.74h1C46.58,25.89,46.75,25.75,46.75,25.52Zm.08,1.42c0-.22-.17-.4-.48-.4h-1v.8h1C46.65,27.34,46.83,27.19,46.83,26.94Z"/><rect class="cls-4" x="51.44" y="17.59" width="16.7" height="16.7" rx="4" transform="translate(-0.83 49.87) rotate(-45)"/><path class="cls-3" d="M54.3,25.68c0-1.64.81-3.27,2.63-3.27s2.63,1.63,2.63,3.27S58.75,29,56.93,29,54.3,27.32,54.3,25.68Zm3.88,0c0-1.17-.34-2.07-1.25-2.07s-1.25.9-1.25,2.07.34,2.09,1.25,2.09S58.18,26.85,58.18,25.68Z"/><path class="cls-3" d="M63.15,28.85V27.54h-3V26.47l2.52-4h1.87v3.85h.81v1.19h-.81v1.31Zm0-5.15-1.71,2.65h1.71Z"/><rect class="cls-4" width="21.1" height="8.28" rx="0.89"/><g class="cls-8"><path class="cls-3" d="M4.29,5.33a1.3,1.3,0,0,1,1-1.13c-.52-.17-.93-.48-.93-1C4.37,2.35,5.31,2,6.18,2S8,2.35,8,3.17c0,.55-.41.86-.93,1a1.3,1.3,0,0,1,1,1.13c0,.81-.9,1.21-1.88,1.21S4.29,6.14,4.29,5.33Zm2.76-.14c0-.36-.59-.53-.87-.57s-.87.21-.87.57.37.52.87.52S7.05,5.51,7.05,5.19ZM7,3.33c0-.31-.33-.49-.78-.49s-.8.18-.8.49.51.46.8.51S7,3.65,7,3.33Z"/><path class="cls-3" d="M11.88,6.46,10.7,4.86,9.52,6.46H8.34L10,4.22,8.44,2.08H9.63l1.07,1.5,1.06-1.5H13L11.37,4.21l1.7,2.25Z"/><path class="cls-3" d="M15.52,6.46V5.55H13.28V4.82l1.86-2.74h1.38V4.73h.6v.82h-.6v.91Zm0-3.55L14.26,4.73h1.26Z"/></g></g></g></svg>