<svg width="180" height="73" viewBox="0 0 180 73" fill="none" xmlns="http://www.w3.org/2000/svg">
<g clip-path="url(#clip0_246:2)">
<path opacity="0.5" d="M174.098 54.2019L112.286 52.9594L113.374 35.3322H177.437L180 48.2226L174.098 54.2019Z" fill="#9FA1A4"/>
<path opacity="0.5" d="M174.021 35.0992L112.286 34.478L113.374 13.8223H177.437L180 29.7412L174.021 35.0992Z" fill="#9FA1A4"/>
<path d="M170.216 34.3227H79.1287V13.8223H177.438V27.4116L170.216 34.3227Z" fill="#C0966B"/>
<path d="M170.216 34.3227V27.4116H177.438L170.216 34.3227Z" fill="white"/>
<path d="M99.629 21.4323V22.5971H97.843V27.4116H96.5228V22.5971H94.7368V21.4323H99.629V21.4323Z" fill="black"/>
<path d="M100.483 21.4323H101.803V27.3339H100.483V21.4323Z" fill="black"/>
<path d="M104.754 21.4323C104.832 21.5876 104.987 21.8206 105.142 22.1312C105.298 22.4418 105.453 22.6748 105.531 23.063C105.608 23.4513 105.841 23.6842 105.997 24.0725C106.152 24.3831 106.307 24.6937 106.385 25.0044C106.54 24.6937 106.618 24.3831 106.773 24.0725C106.928 23.7619 107.084 23.3736 107.239 23.063C107.394 22.7524 107.55 22.4418 107.627 22.1312C107.705 21.8206 107.86 21.5876 108.015 21.4323H109.258C109.336 21.8206 109.336 22.2865 109.413 22.7524C109.491 23.2183 109.491 23.7619 109.569 24.3055C109.569 24.849 109.646 25.3926 109.646 25.8585C109.646 26.4021 109.724 26.868 109.724 27.3339H108.404C108.404 26.7904 108.326 26.1691 108.326 25.4703C108.326 24.7714 108.248 24.0725 108.171 23.4513C108.093 23.6842 107.938 23.9172 107.86 24.2278C107.705 24.5384 107.627 24.7714 107.472 25.082C107.317 25.3926 107.239 25.6256 107.084 25.9362C106.928 26.2468 106.851 26.4021 106.773 26.6351H105.841C105.764 26.4798 105.686 26.2468 105.531 25.9362C105.453 25.7032 105.298 25.3926 105.142 25.082C104.987 24.7714 104.909 24.5384 104.754 24.2278C104.599 23.9172 104.521 23.6842 104.443 23.4513C104.366 24.1502 104.366 24.849 104.288 25.4703C104.288 26.1691 104.21 26.7904 104.21 27.3339H102.89C102.89 26.868 102.968 26.4021 102.968 25.8585C102.968 25.315 103.046 24.7714 103.046 24.3055C103.046 23.7619 103.123 23.296 103.201 22.7524C103.279 22.2088 103.279 21.8206 103.356 21.4323H104.754V21.4323Z" fill="black"/>
<path d="M110.811 27.4116V21.5099H114.771V22.5971H112.131V23.7619H114.461V24.849H112.131V26.2468H115.004V27.3339H110.811V27.4116Z" fill="black"/>
<path d="M117.644 26.4021C117.8 26.4021 117.955 26.4021 118.11 26.3245C118.266 26.3245 118.343 26.2468 118.421 26.1692C118.499 26.0915 118.576 26.0139 118.576 26.0139C118.576 25.9362 118.654 25.8586 118.654 25.7809C118.654 25.6256 118.576 25.3926 118.343 25.315C118.188 25.1597 117.877 25.082 117.412 24.9267C117.256 24.8491 117.023 24.7714 116.868 24.6938C116.713 24.6161 116.48 24.4608 116.324 24.3831C116.169 24.2278 116.014 24.0725 115.936 23.9172C115.858 23.7619 115.781 23.529 115.781 23.2183C115.781 22.9077 115.858 22.6748 115.936 22.4418C116.014 22.2089 116.169 22.0536 116.402 21.8982C116.557 21.7429 116.79 21.5876 117.101 21.51C117.412 21.4323 117.644 21.3547 118.033 21.3547C118.421 21.3547 118.809 21.4323 119.042 21.51C119.353 21.5876 119.586 21.6653 119.741 21.8206L119.353 22.9077C119.198 22.8301 119.042 22.7524 118.809 22.6748C118.576 22.5971 118.343 22.5971 118.11 22.5971C117.8 22.5971 117.567 22.6748 117.412 22.7524C117.256 22.8301 117.179 22.9854 117.179 23.1407C117.179 23.2183 117.179 23.3737 117.256 23.4513C117.334 23.529 117.412 23.6066 117.489 23.6843C117.567 23.7619 117.722 23.7619 117.8 23.8396C117.955 23.9172 118.033 23.9172 118.188 23.9949C118.499 24.0725 118.732 24.2278 118.965 24.3055C119.198 24.3831 119.353 24.5384 119.508 24.6938C119.663 24.8491 119.741 25.0044 119.819 25.2373C119.896 25.4703 119.896 25.7032 119.896 25.9362C119.896 26.4798 119.741 26.9457 119.353 27.2563C118.965 27.5669 118.343 27.7222 117.567 27.7222C117.334 27.7222 117.101 27.7222 116.868 27.6446C116.635 27.6446 116.48 27.5669 116.324 27.5669C116.169 27.5669 116.014 27.4893 115.936 27.4116C115.781 27.334 115.703 27.334 115.625 27.2563L116.014 26.1692C116.169 26.2468 116.402 26.3245 116.635 26.4021C116.946 26.3245 117.256 26.4021 117.644 26.4021Z" fill="black"/>
<path d="M124.633 26.4021C124.789 26.4021 124.944 26.4021 125.099 26.3245C125.254 26.3245 125.332 26.2468 125.41 26.1692C125.487 26.0915 125.565 26.0139 125.565 26.0139C125.565 25.9362 125.643 25.8586 125.643 25.7809C125.643 25.6256 125.565 25.3926 125.332 25.315C125.177 25.1597 124.866 25.082 124.4 24.9267C124.245 24.8491 124.012 24.7714 123.857 24.6938C123.701 24.6161 123.468 24.4608 123.313 24.3831C123.158 24.2278 123.003 24.0725 122.925 23.9172C122.847 23.7619 122.77 23.529 122.77 23.2183C122.77 22.9077 122.847 22.6748 122.925 22.4418C123.003 22.2089 123.158 22.0536 123.391 21.8982C123.546 21.7429 123.779 21.5876 124.09 21.51C124.323 21.4323 124.633 21.3547 125.022 21.3547C125.41 21.3547 125.798 21.4323 126.031 21.51C126.342 21.5876 126.575 21.6653 126.73 21.8206L126.342 22.9077C126.186 22.8301 126.031 22.7524 125.798 22.6748C125.565 22.5971 125.332 22.5971 125.099 22.5971C124.789 22.5971 124.556 22.6748 124.4 22.7524C124.245 22.8301 124.167 22.9854 124.167 23.1407C124.167 23.2183 124.167 23.3737 124.245 23.4513C124.323 23.529 124.4 23.6066 124.478 23.6843C124.556 23.7619 124.711 23.7619 124.789 23.8396C124.944 23.9172 125.022 23.9172 125.177 23.9949C125.487 24.0725 125.72 24.2278 125.953 24.3055C126.186 24.3831 126.342 24.5384 126.497 24.6938C126.652 24.8491 126.73 25.0044 126.808 25.2373C126.885 25.4703 126.885 25.7032 126.885 25.9362C126.885 26.4798 126.73 26.9457 126.342 27.2563C125.953 27.5669 125.41 27.7222 124.556 27.7222C124.323 27.7222 124.09 27.7222 123.857 27.6446C123.624 27.6446 123.468 27.5669 123.313 27.5669C123.158 27.5669 123.003 27.4893 122.925 27.4116C122.77 27.334 122.692 27.334 122.614 27.2563L123.003 26.1692C123.158 26.2468 123.391 26.3245 123.624 26.4021C123.934 26.3245 124.245 26.4021 124.633 26.4021Z" fill="black"/>
<path d="M133.641 24.3831C133.641 24.7714 133.563 25.1597 133.486 25.4703C133.408 25.7809 133.253 26.0915 133.02 26.3245C132.864 26.5574 132.631 26.7904 132.321 26.9457C132.088 27.101 131.777 27.2563 131.467 27.3339C131.467 27.4116 131.544 27.5669 131.622 27.6446C131.7 27.7222 131.855 27.7999 132.01 27.7999C132.166 27.8775 132.321 27.8775 132.554 27.8775C132.787 27.8775 132.942 27.9552 133.175 27.9552L132.864 28.9647C132.398 28.9647 132.01 28.887 131.7 28.8093C131.389 28.7317 131.078 28.654 130.923 28.4987C130.69 28.3434 130.535 28.1881 130.38 28.0328C130.224 27.8775 130.147 27.6446 130.069 27.4116C129.681 27.3339 129.37 27.2563 129.059 27.101C128.749 26.9457 128.516 26.7127 128.283 26.4798C128.05 26.2468 127.895 25.9362 127.739 25.5479C127.584 25.1597 127.584 24.7714 127.584 24.3055C127.584 23.7619 127.662 23.3736 127.817 22.9854C127.972 22.5971 128.205 22.2865 128.438 22.0535C128.671 21.8206 129.059 21.5876 129.37 21.4323C129.758 21.277 130.069 21.1993 130.457 21.1993C130.845 21.1993 131.234 21.277 131.622 21.4323C132.01 21.5876 132.321 21.7429 132.554 22.0535C132.787 22.2865 133.02 22.6748 133.175 22.9854C133.563 23.4513 133.641 23.9172 133.641 24.3831ZM129.137 24.3831C129.137 24.6937 129.137 24.9267 129.215 25.1597C129.292 25.3926 129.37 25.6256 129.525 25.7809C129.681 25.9362 129.836 26.0915 129.991 26.1691C130.147 26.2468 130.38 26.3245 130.69 26.3245C130.923 26.3245 131.156 26.2468 131.389 26.1691C131.622 26.0915 131.777 25.9362 131.855 25.7809C132.01 25.6256 132.088 25.3926 132.166 25.1597C132.243 24.9267 132.243 24.6937 132.243 24.3831C132.243 24.0725 132.243 23.8395 132.166 23.6066C132.088 23.3736 132.01 23.1407 131.855 22.9854C131.7 22.8301 131.544 22.6748 131.389 22.5971C131.234 22.5194 131.001 22.4418 130.69 22.4418C130.457 22.4418 130.224 22.5194 129.991 22.5971C129.836 22.6748 129.603 22.8301 129.525 22.9854C129.37 23.1407 129.292 23.3736 129.215 23.6066C129.137 23.8395 129.137 24.1502 129.137 24.3831Z" fill="black"/>
<path d="M137.058 27.4892C136.669 27.4892 136.281 27.4116 135.971 27.3339C135.66 27.2563 135.427 27.0233 135.194 26.868C134.961 26.7127 134.883 26.4021 134.728 26.0915C134.65 25.7809 134.573 25.4703 134.573 25.1597V21.5099H135.893V25.082C135.893 25.315 135.893 25.5479 135.971 25.7032C136.048 25.8585 136.126 26.0138 136.203 26.0915C136.281 26.1691 136.436 26.2468 136.514 26.3244C136.669 26.4021 136.825 26.4021 136.98 26.4021C137.291 26.4021 137.601 26.3244 137.757 26.0915C137.989 25.8585 138.067 25.5479 138.067 25.082V21.5099H139.387V25.1597C139.387 25.4703 139.31 25.8585 139.232 26.0915C139.154 26.3244 138.999 26.6351 138.766 26.868C138.533 27.101 138.3 27.2563 137.989 27.3339C137.834 27.4116 137.446 27.4892 137.058 27.4892Z" fill="black"/>
<path d="M144.59 27.4116C144.512 27.1786 144.435 27.0233 144.357 26.7904C144.279 26.5574 144.202 26.3245 144.124 26.1691H141.795C141.717 26.4021 141.639 26.6351 141.562 26.7904C141.484 27.0233 141.406 27.2563 141.329 27.4116H139.931C140.164 26.7904 140.397 26.1691 140.552 25.6256C140.785 25.082 140.94 24.5384 141.173 24.0725C141.329 23.6066 141.562 23.1407 141.717 22.6748C141.872 22.2088 142.105 21.8206 142.261 21.4323H143.503C143.736 21.8206 143.891 22.2865 144.047 22.6748C144.202 23.1407 144.435 23.5289 144.59 24.0725C144.745 24.6161 144.978 25.082 145.211 25.6256C145.444 26.1691 145.6 26.7904 145.833 27.4116H144.59ZM142.959 22.8301C142.959 22.9077 142.882 23.063 142.804 23.2183C142.726 23.3736 142.649 23.5289 142.571 23.7619C142.493 23.9172 142.416 24.1502 142.338 24.3831C142.261 24.6161 142.183 24.849 142.028 25.082H143.736C143.658 24.849 143.581 24.6161 143.503 24.3831C143.425 24.1502 143.348 23.9172 143.27 23.7619C143.192 23.6066 143.115 23.3736 143.037 23.2183C142.959 23.063 143.037 22.9077 142.959 22.8301Z" fill="black"/>
<path d="M148.473 21.3547C149.327 21.3547 150.026 21.51 150.492 21.8206C150.958 22.1312 151.191 22.5971 151.191 23.296C151.191 23.6843 151.113 24.0725 150.88 24.3055C150.647 24.5385 150.414 24.7714 150.026 24.9267C150.181 25.082 150.259 25.2373 150.414 25.4703C150.569 25.6256 150.647 25.8586 150.802 26.0915C150.958 26.3245 151.035 26.4798 151.191 26.7127C151.346 26.9457 151.424 27.1787 151.501 27.4116H150.026C149.948 27.2563 149.793 27.0234 149.715 26.7904C149.638 26.5574 149.482 26.4021 149.405 26.2468C149.249 26.0915 149.172 25.8586 149.094 25.7032C149.016 25.5479 148.861 25.3926 148.783 25.2373H148.162V27.4116H146.764V21.5876C147.075 21.51 147.386 21.51 147.696 21.4323C148.007 21.3547 148.24 21.3547 148.473 21.3547ZM148.55 22.5195C148.473 22.5195 148.395 22.5195 148.317 22.5195C148.24 22.5195 148.162 22.5195 148.085 22.5195V24.1502H148.473C148.939 24.1502 149.327 24.0725 149.56 23.9949C149.793 23.8396 149.871 23.6843 149.871 23.3737C149.871 23.063 149.793 22.9077 149.56 22.7524C149.327 22.5971 149.016 22.5195 148.55 22.5195Z" fill="black"/>
<path d="M152.433 27.4116V21.5099H156.393V22.5971H153.753V23.7619H156.083V24.849H153.753V26.2468H156.626V27.3339H152.433V27.4116Z" fill="black"/>
<path d="M163.693 27.4116C163.615 27.1786 163.538 27.0233 163.46 26.7904C163.382 26.5574 163.305 26.3245 163.227 26.1691H160.897C160.82 26.4021 160.742 26.6351 160.664 26.7904C160.587 27.0233 160.509 27.2563 160.431 27.4116H159.034C159.267 26.7904 159.5 26.1691 159.655 25.6256C159.888 25.082 160.043 24.5384 160.276 24.0725C160.431 23.6066 160.664 23.1407 160.82 22.6748C160.975 22.2088 161.208 21.8206 161.363 21.4323H162.606C162.761 21.8206 162.994 22.2865 163.149 22.6748C163.305 23.1407 163.538 23.5289 163.693 24.0725C163.848 24.5384 164.081 25.082 164.314 25.6256C164.547 26.1691 164.702 26.7904 164.935 27.4116H163.693ZM162.062 22.8301C162.062 22.9077 161.985 23.063 161.907 23.2183C161.829 23.3736 161.752 23.5289 161.674 23.7619C161.596 23.9172 161.519 24.1502 161.441 24.3831C161.363 24.6161 161.286 24.849 161.13 25.082H162.839C162.761 24.849 162.683 24.6161 162.606 24.3831C162.528 24.1502 162.45 23.9172 162.373 23.7619C162.295 23.6066 162.217 23.3736 162.14 23.2183C162.062 23.063 162.062 22.9077 162.062 22.8301Z" fill="black"/>
<path d="M170.216 52.9594H77.8086V35.3322H177.438V45.9706L170.216 52.9594Z" fill="#F3BDC7"/>
<path d="M170.216 52.9594V45.9706H177.438L170.216 52.9594Z" fill="white"/>
<path d="M99.629 40.2243V41.3891H97.843V46.2036H96.5228V41.3891H94.7368V40.2243H99.629Z" fill="black"/>
<path d="M100.483 40.2243H101.803V46.126H100.483V40.2243Z" fill="black"/>
<path d="M104.754 40.2243C104.832 40.3796 104.987 40.6126 105.142 40.9232C105.298 41.2338 105.453 41.4668 105.531 41.855C105.608 42.2433 105.841 42.4762 105.997 42.8645C106.152 43.1751 106.307 43.4857 106.385 43.7964C106.54 43.4857 106.618 43.1751 106.773 42.8645C106.928 42.5539 107.084 42.1656 107.239 41.855C107.394 41.5444 107.55 41.2338 107.627 40.9232C107.705 40.6126 107.86 40.3796 108.015 40.2243H109.258C109.336 40.6126 109.336 41.0785 109.413 41.5444C109.491 42.0103 109.491 42.5539 109.569 43.0975C109.569 43.641 109.646 44.1846 109.646 44.6505C109.646 45.1941 109.724 45.66 109.724 46.126H108.404C108.404 45.5824 108.326 44.9612 108.326 44.2623C108.326 43.5634 108.248 42.8645 108.171 42.2433C108.093 42.4763 107.938 42.7092 107.86 43.0198C107.705 43.3304 107.627 43.5634 107.472 43.874C107.317 44.1846 107.239 44.4176 107.084 44.7282C106.928 45.0388 106.851 45.1941 106.773 45.4271H105.841C105.764 45.2718 105.686 45.0388 105.531 44.7282C105.453 44.4952 105.298 44.1846 105.142 43.874C104.987 43.5634 104.909 43.3304 104.754 43.0198C104.599 42.7092 104.521 42.4763 104.443 42.2433C104.366 42.9422 104.366 43.641 104.288 44.2623C104.288 44.9612 104.21 45.5824 104.21 46.126H102.89C102.89 45.66 102.968 45.1941 102.968 44.6505C102.968 44.107 103.046 43.5634 103.046 43.0975C103.046 42.5539 103.123 42.088 103.201 41.5444C103.279 41.0008 103.279 40.6126 103.356 40.2243H104.754Z" fill="black"/>
<path d="M110.811 46.126V40.2243H114.771V41.3115H112.131V42.4762H114.461V43.5634H112.131V45.0388H115.004V46.126H110.811Z" fill="black"/>
<path d="M117.644 45.1165C117.8 45.1165 117.955 45.1165 118.11 45.0388C118.266 45.0388 118.343 44.9612 118.421 44.8835C118.499 44.8059 118.576 44.7282 118.576 44.7282C118.576 44.6506 118.654 44.5729 118.654 44.4953C118.654 44.3399 118.576 44.107 118.343 44.0293C118.188 43.874 117.877 43.7964 117.412 43.6411C117.256 43.5634 117.023 43.4858 116.868 43.4081C116.713 43.3305 116.48 43.1752 116.324 43.0975C116.169 42.9422 116.014 42.7869 115.936 42.6316C115.858 42.4763 115.781 42.2433 115.781 41.9327C115.781 41.6221 115.858 41.3891 115.936 41.1562C116.014 40.9232 116.169 40.7679 116.402 40.6126C116.557 40.4573 116.79 40.302 117.101 40.2243C117.412 40.1467 117.644 40.069 118.033 40.069C118.421 40.069 118.809 40.1467 119.042 40.2243C119.353 40.302 119.586 40.3796 119.741 40.535L119.353 41.6221C119.198 41.5444 119.042 41.4668 118.809 41.3891C118.576 41.3115 118.343 41.3115 118.11 41.3115C117.8 41.3115 117.567 41.3891 117.412 41.4668C117.256 41.5444 117.179 41.6997 117.179 41.8551C117.179 41.9327 117.179 42.088 117.256 42.1657C117.334 42.2433 117.412 42.321 117.489 42.3986C117.567 42.4763 117.722 42.4763 117.8 42.5539C117.955 42.6316 118.033 42.6316 118.188 42.7092C118.499 42.7869 118.732 42.9422 118.965 43.0198C119.198 43.0975 119.353 43.2528 119.508 43.4081C119.663 43.5634 119.741 43.7187 119.819 43.9517C119.896 44.1846 119.896 44.4176 119.896 44.6506C119.896 45.1941 119.741 45.66 119.353 45.9707C118.965 46.2813 118.343 46.4366 117.567 46.4366C117.334 46.4366 117.101 46.4366 116.868 46.3589C116.635 46.3589 116.48 46.2813 116.324 46.2813C116.169 46.2813 116.014 46.2036 115.936 46.126C115.781 46.0483 115.703 46.0483 115.625 45.9707L116.014 44.8835C116.169 44.9612 116.402 45.0388 116.635 45.1165C116.946 45.0388 117.256 45.1165 117.644 45.1165Z" fill="black"/>
<path d="M124.633 45.1165C124.789 45.1165 124.944 45.1165 125.099 45.0388C125.254 45.0388 125.332 44.9612 125.41 44.8835C125.487 44.8059 125.565 44.7282 125.565 44.7282C125.565 44.6506 125.643 44.5729 125.643 44.4953C125.643 44.3399 125.565 44.107 125.332 44.0293C125.177 43.874 124.866 43.7964 124.4 43.6411C124.245 43.5634 124.012 43.4858 123.857 43.4081C123.701 43.3305 123.468 43.1752 123.313 43.0975C123.158 42.9422 123.003 42.7869 122.925 42.6316C122.847 42.4763 122.77 42.2433 122.77 41.9327C122.77 41.6221 122.847 41.3891 122.925 41.1562C123.003 40.9232 123.158 40.7679 123.391 40.6126C123.546 40.4573 123.779 40.302 124.09 40.2243C124.323 40.1467 124.633 40.069 125.022 40.069C125.41 40.069 125.798 40.1467 126.031 40.2243C126.342 40.302 126.575 40.3796 126.73 40.535L126.342 41.6221C126.186 41.5444 126.031 41.4668 125.798 41.3891C125.565 41.3115 125.332 41.3115 125.099 41.3115C124.789 41.3115 124.556 41.3891 124.4 41.4668C124.245 41.5444 124.167 41.6997 124.167 41.8551C124.167 41.9327 124.167 42.088 124.245 42.1657C124.323 42.2433 124.4 42.321 124.478 42.3986C124.556 42.4763 124.711 42.4763 124.789 42.5539C124.944 42.6316 125.022 42.6316 125.177 42.7092C125.487 42.7869 125.72 42.9422 125.953 43.0198C126.186 43.0975 126.342 43.2528 126.497 43.4081C126.652 43.5634 126.73 43.7187 126.808 43.9517C126.885 44.1846 126.885 44.4176 126.885 44.6506C126.885 45.1941 126.73 45.66 126.342 45.9707C125.953 46.2813 125.41 46.4366 124.556 46.4366C124.323 46.4366 124.09 46.4366 123.857 46.3589C123.624 46.3589 123.468 46.2813 123.313 46.2813C123.158 46.2813 123.003 46.2036 122.925 46.126C122.77 46.0483 122.692 46.0483 122.614 45.9707L123.003 44.8835C123.158 44.9612 123.391 45.0388 123.624 45.1165C123.934 45.0388 124.245 45.1165 124.633 45.1165Z" fill="black"/>
<path d="M133.641 43.1751C133.641 43.5634 133.563 43.9516 133.486 44.2623C133.408 44.5729 133.253 44.8835 133.02 45.1164C132.864 45.3494 132.631 45.5824 132.321 45.7377C132.088 45.893 131.777 46.0483 131.467 46.1259C131.467 46.2036 131.544 46.3589 131.622 46.4365C131.7 46.5142 131.855 46.5918 132.01 46.5918C132.166 46.6695 132.321 46.6695 132.554 46.6695C132.787 46.6695 132.942 46.7472 133.175 46.7472L132.864 47.7566C132.398 47.7566 132.01 47.679 131.7 47.6013C131.389 47.5237 131.078 47.446 130.923 47.2907C130.69 47.1354 130.535 46.9801 130.38 46.8248C130.224 46.6695 130.147 46.4365 130.069 46.2036C129.681 46.1259 129.37 46.0483 129.059 45.893C128.749 45.7377 128.516 45.5047 128.283 45.2717C128.05 45.0388 127.895 44.7282 127.739 44.3399C127.584 43.9516 127.584 43.5634 127.584 43.0975C127.584 42.5539 127.662 42.1656 127.817 41.7774C127.972 41.3891 128.205 41.0785 128.438 40.8455C128.671 40.6126 129.059 40.3796 129.37 40.2243C129.758 40.069 130.069 39.9913 130.457 39.9913C130.845 39.9913 131.234 40.069 131.622 40.2243C132.01 40.3796 132.321 40.5349 132.554 40.8455C132.787 41.0785 133.02 41.4667 133.175 41.7774C133.563 42.2433 133.641 42.6315 133.641 43.1751ZM129.137 43.1751C129.137 43.4857 129.137 43.7187 129.215 43.9516C129.292 44.1846 129.37 44.4176 129.525 44.5729C129.681 44.7282 129.836 44.8835 129.991 44.9611C130.147 45.0388 130.38 45.1164 130.69 45.1164C130.923 45.1164 131.156 45.0388 131.389 44.9611C131.622 44.8835 131.777 44.7282 131.855 44.5729C132.01 44.4176 132.088 44.1846 132.166 43.9516C132.243 43.7187 132.243 43.4857 132.243 43.1751C132.243 42.8645 132.243 42.6315 132.166 42.3986C132.088 42.1656 132.01 41.9327 131.855 41.7774C131.7 41.622 131.544 41.4667 131.389 41.3891C131.234 41.3114 131.001 41.2338 130.69 41.2338C130.457 41.2338 130.224 41.3114 129.991 41.3891C129.836 41.4667 129.603 41.622 129.525 41.7774C129.37 41.9327 129.292 42.1656 129.215 42.3986C129.137 42.6315 129.137 42.8645 129.137 43.1751Z" fill="black"/>
<path d="M137.058 46.2812C136.669 46.2812 136.281 46.2036 135.971 46.1259C135.66 46.0483 135.427 45.8153 135.194 45.66C134.961 45.5047 134.883 45.1941 134.728 44.8835C134.65 44.5729 134.573 44.2623 134.573 43.9516V40.3019H135.893V43.874C135.893 44.1069 135.893 44.3399 135.971 44.4952C136.048 44.6505 136.126 44.8058 136.203 44.8835C136.281 44.9611 136.436 45.0388 136.514 45.1164C136.669 45.1941 136.825 45.1941 136.98 45.1941C137.291 45.1941 137.601 45.1164 137.757 44.8835C137.989 44.6505 138.067 44.3399 138.067 43.874V40.3019H139.387V43.9516C139.387 44.2623 139.31 44.6505 139.232 44.8835C139.154 45.1164 138.999 45.4271 138.766 45.66C138.533 45.893 138.3 46.0483 137.989 46.1259C137.834 46.2036 137.446 46.2812 137.058 46.2812Z" fill="black"/>
<path d="M144.59 46.126C144.512 45.893 144.435 45.7377 144.357 45.5047C144.279 45.2718 144.202 45.0388 144.124 44.8835H141.795C141.717 45.1165 141.639 45.3494 141.562 45.5047C141.484 45.7377 141.406 45.9707 141.329 46.126H139.931C140.164 45.5047 140.397 44.8835 140.552 44.3399C140.785 43.7964 140.94 43.2528 141.173 42.7869C141.329 42.321 141.562 41.855 141.717 41.3891C141.872 40.9232 142.105 40.5349 142.261 40.1467H143.503C143.736 40.5349 143.891 41.0009 144.047 41.3891C144.202 41.855 144.435 42.2433 144.59 42.7869C144.745 43.3304 144.978 43.7964 145.211 44.3399C145.444 44.8835 145.6 45.5047 145.833 46.126H144.59ZM142.959 41.5444C142.959 41.6221 142.882 41.7774 142.804 41.9327C142.726 42.088 142.649 42.2433 142.571 42.4763C142.493 42.6316 142.416 42.8645 142.338 43.0975C142.261 43.3304 142.183 43.5634 142.028 43.7964H143.736C143.658 43.5634 143.581 43.3304 143.503 43.0975C143.425 42.8645 143.348 42.6316 143.27 42.4763C143.192 42.321 143.115 42.088 143.037 41.9327C142.959 41.7774 143.037 41.6221 142.959 41.5444Z" fill="black"/>
<path d="M148.473 40.1467C149.327 40.1467 150.026 40.302 150.492 40.6126C150.958 40.9232 151.191 41.3891 151.191 42.088C151.191 42.4763 151.113 42.8645 150.88 43.0975C150.647 43.3304 150.414 43.5634 150.026 43.7187C150.181 43.874 150.259 44.0293 150.414 44.2623C150.569 44.4176 150.647 44.6506 150.802 44.8835C150.958 45.1165 151.035 45.2718 151.191 45.5047C151.346 45.7377 151.424 45.9707 151.501 46.2036H150.026C149.948 46.0483 149.793 45.8154 149.715 45.5824C149.638 45.3494 149.482 45.1941 149.405 45.0388C149.249 44.8835 149.172 44.6506 149.094 44.4952C149.016 44.3399 148.861 44.1846 148.783 44.0293H148.162V46.2036H146.764V40.3796C147.075 40.302 147.386 40.302 147.696 40.2243C148.007 40.1467 148.24 40.1467 148.473 40.1467ZM148.55 41.3115C148.473 41.3115 148.395 41.3115 148.317 41.3115C148.24 41.3115 148.162 41.3115 148.085 41.3115V42.9422H148.473C148.939 42.9422 149.327 42.8645 149.56 42.7869C149.793 42.6316 149.871 42.4763 149.871 42.1656C149.871 41.855 149.793 41.6997 149.56 41.5444C149.327 41.3115 149.016 41.3115 148.55 41.3115Z" fill="black"/>
<path d="M152.433 46.126V40.2243H156.393V41.3115H153.753V42.4762H156.083V43.5634H153.753V45.0388H156.626V46.126H152.433Z" fill="black"/>
<path d="M161.674 46.2036C161.363 46.2036 161.053 46.2036 160.742 46.2036C160.431 46.2036 160.121 46.1259 159.732 46.0483V40.302C160.043 40.2243 160.276 40.2243 160.664 40.2243C160.975 40.2243 161.285 40.2243 161.596 40.2243C161.984 40.2243 162.295 40.2243 162.606 40.302C162.916 40.3796 163.227 40.4573 163.382 40.6126C163.615 40.7679 163.77 40.9232 163.926 41.1561C164.081 41.3891 164.081 41.6221 164.081 41.9327C164.081 42.3986 163.848 42.7869 163.382 43.0198C163.77 43.1751 164.003 43.3304 164.159 43.5634C164.314 43.7963 164.392 44.107 164.392 44.4176C164.392 45.0388 164.159 45.5047 163.693 45.8153C163.227 46.1259 162.528 46.2036 161.674 46.2036ZM160.975 42.5539H161.596C161.984 42.5539 162.295 42.4762 162.45 42.3986C162.606 42.3209 162.683 42.088 162.683 41.855C162.683 41.6221 162.606 41.4668 162.373 41.3891C162.217 41.3114 161.907 41.2338 161.596 41.2338C161.518 41.2338 161.363 41.2338 161.208 41.2338C161.053 41.2338 160.975 41.2338 160.82 41.2338V42.5539H160.975ZM160.975 43.5634V45.1164C161.053 45.1164 161.208 45.1164 161.285 45.1164C161.363 45.1164 161.518 45.1164 161.674 45.1164C162.062 45.1164 162.373 45.0388 162.606 44.9611C162.839 44.8835 162.994 44.6505 162.994 44.3399C162.994 44.0293 162.916 43.874 162.683 43.7187C162.45 43.5634 162.217 43.5634 161.829 43.5634H160.975Z" fill="black"/>
<path opacity="0.92" d="M74.6246 69.5772C74.5469 71.3632 72.9939 72.6833 71.2855 72.528C69.4995 72.4504 68.1794 70.8973 68.3347 69.1889C68.4123 67.4806 69.8101 66.1605 71.5185 66.1605C73.2268 66.2381 74.6246 67.7135 74.6246 69.5772Z" fill="#2D314E"/>
<path d="M177.395 1.83264H159.379V13.8689H177.395V1.83264Z" fill="black"/>
<path d="M165.359 9.28731C165.359 9.52027 165.281 9.75323 165.203 9.98619C165.126 10.2192 164.97 10.3745 164.815 10.5298C164.66 10.6851 164.427 10.8404 164.194 10.918C163.883 10.9957 163.573 11.0733 163.262 11.0733C162.951 11.0733 162.563 10.9957 162.252 10.918C162.019 10.8404 161.786 10.6851 161.631 10.5298C161.476 10.3745 161.321 10.2192 161.321 9.98619C161.243 9.83089 161.243 9.59793 161.243 9.44262C161.243 9.28731 161.243 9.13201 161.321 8.9767C161.398 8.8214 161.398 8.74374 161.476 8.58844C161.554 8.51078 161.631 8.35548 161.709 8.27782C161.786 8.20017 161.942 8.12252 162.019 7.96721C161.786 7.8119 161.631 7.57894 161.476 7.34599C161.321 7.11303 161.321 6.88007 161.321 6.56945C161.321 6.33649 161.398 6.10353 161.476 5.94823C161.554 5.71527 161.709 5.55996 161.864 5.40466C162.019 5.24935 162.252 5.09404 162.485 5.01639C162.718 4.93874 163.029 4.86108 163.262 4.86108C163.573 4.86108 163.883 4.93874 164.116 5.01639C164.349 5.09404 164.582 5.24935 164.737 5.40466C164.893 5.55996 164.97 5.71527 165.048 5.94823C165.126 6.10353 165.126 6.33649 165.126 6.4918C165.126 6.72476 165.048 7.03537 164.893 7.26833C164.893 7.50129 164.66 7.73425 164.504 7.8119C164.815 7.96721 165.048 8.20017 165.203 8.51078C165.281 8.74374 165.359 9.05436 165.359 9.28731ZM162.408 9.36497C162.408 9.44262 162.408 9.52027 162.485 9.59793C162.485 9.67558 162.563 9.75323 162.641 9.83089C162.718 9.90854 162.796 9.98619 162.874 9.98619C163.029 10.0638 163.107 10.0638 163.262 10.0638C163.495 10.0638 163.728 9.98619 163.883 9.83089C164.038 9.75323 164.116 9.52027 164.116 9.36497C164.116 9.20966 164.116 9.13201 164.038 8.9767C163.961 8.89905 163.883 8.74374 163.805 8.74374C163.728 8.66609 163.573 8.58844 163.417 8.51078C163.262 8.43313 163.107 8.43313 162.951 8.35548C162.796 8.43313 162.641 8.58844 162.563 8.74374C162.485 8.9767 162.408 9.13201 162.408 9.36497ZM164.038 6.56945C164.038 6.4918 164.038 6.41415 164.038 6.33649C164.038 6.25884 163.961 6.18119 163.883 6.10353C163.805 6.02588 163.728 5.94823 163.65 5.94823C163.573 5.87058 163.417 5.87058 163.34 5.87058C163.262 5.87058 163.107 5.87058 163.029 5.94823C162.951 5.94823 162.874 6.02588 162.796 6.10353C162.641 6.18119 162.641 6.25884 162.563 6.33649C162.563 6.41415 162.563 6.4918 162.563 6.56945C162.563 6.72476 162.641 6.95772 162.796 7.11303C162.951 7.26833 163.184 7.42364 163.495 7.50129C163.65 7.42364 163.805 7.26833 163.883 7.11303C163.961 6.95772 164.038 6.72476 164.038 6.56945ZM169.707 10.9957C169.552 10.6851 169.397 10.2968 169.164 9.98619C168.931 9.59793 168.698 9.28731 168.465 8.9767C168.387 9.05435 168.309 9.20966 168.154 9.36497C167.999 9.52027 167.921 9.75323 167.766 9.90854C167.61 10.1415 167.533 10.2968 167.455 10.5298C167.378 10.7627 167.3 10.8404 167.222 10.9957H165.669C165.902 10.5298 166.213 10.0638 166.523 9.52027C166.834 8.9767 167.222 8.51078 167.61 7.88956L165.669 5.01639H167.3L168.465 6.88007L169.629 5.01639H171.183L169.319 7.88956C169.785 8.43313 170.173 9.05436 170.561 9.59793C170.872 10.1415 171.105 10.5298 171.338 10.918L169.707 10.9957ZM174.056 6.56945C173.823 6.88007 173.59 7.19068 173.357 7.50129C173.046 7.88956 172.891 8.20017 172.658 8.58844H173.978V6.56945H174.056ZM175.298 5.01639V8.58844H175.919V9.59793H175.298V10.918H174.056V9.59793H171.493V8.66609C171.648 8.43313 171.804 8.12252 171.959 7.8119C172.114 7.50129 172.347 7.19068 172.58 6.80241C172.813 6.4918 173.046 6.18119 173.279 5.79292C173.512 5.48231 173.745 5.1717 174.056 4.93874L175.298 5.01639Z" fill="white"/>
<path opacity="0.92" d="M91.5673 28.1659C91.5969 17.1386 82.7097 8.15751 71.7419 8.17785C60.7146 8.14827 51.7335 17.0354 51.7539 28.0032C51.7078 32.5274 53.2531 36.9678 56.0943 40.4681C59.747 45.0553 71.3309 59.0376 71.3309 59.0376C71.3309 59.0376 83.5618 45.071 87.2471 40.5599C89.9742 37.0696 91.5712 32.6305 91.5673 28.1659Z" fill="#2D314E"/>
<path d="M68.4985 9.65289C58.8676 11.3474 52.4339 20.5284 54.1284 30.1593C55.8229 39.7901 65.0039 46.2238 74.6348 44.5293C84.2656 42.8348 90.6993 33.6538 89.0048 24.0229C87.3103 14.3921 78.1293 7.95839 68.4985 9.65289Z" fill="#FFCD70"/>
<path d="M71.3632 19.8016C71.3632 20.9664 71.1302 21.8982 70.6643 22.5195C70.1984 23.1407 69.5771 23.4513 68.8006 23.4513C68.0241 23.4513 67.4028 23.1407 66.9369 22.5195C66.471 21.8982 66.238 20.9664 66.238 19.8016C66.238 19.1804 66.3157 18.7145 66.3933 18.2486C66.5486 17.7826 66.704 17.3944 66.9369 17.0838C67.1699 16.7731 67.4028 16.5402 67.7134 16.3849C68.0241 16.2296 68.3347 16.1519 68.7229 16.1519C69.4995 16.1519 70.1207 16.4625 70.5866 17.0838C71.1302 17.705 71.3632 18.6368 71.3632 19.8016ZM69.8101 19.8016C69.8101 19.4133 69.8101 19.1027 69.7324 18.8698C69.7324 18.5592 69.6548 18.3262 69.5771 18.0932C69.4995 17.8603 69.4218 17.705 69.2665 17.6273C69.1112 17.5497 68.9559 17.472 68.8006 17.472C68.6453 17.472 68.49 17.5497 68.3347 17.6273C68.1794 17.705 68.1017 17.9379 68.0241 18.0932C67.9464 18.3262 67.8688 18.5592 67.8688 18.8698C67.8688 19.1804 67.7911 19.491 67.7911 19.8016C67.7911 20.1122 67.7911 20.5005 67.8688 20.7335C67.8688 21.0441 67.9464 21.277 68.0241 21.51C68.1017 21.7429 68.1794 21.8982 68.3347 21.9759C68.49 22.0536 68.6453 22.1312 68.8006 22.1312C68.9559 22.1312 69.1112 22.0536 69.2665 21.9759C69.4218 21.8982 69.4995 21.6653 69.5771 21.51C69.6548 21.3547 69.7324 21.0441 69.7324 20.7335C69.8101 20.4228 69.8101 20.1122 69.8101 19.8016Z" fill="black"/>
<path d="M74.0034 23.4513C73.8481 23.4513 73.6151 23.4513 73.4598 23.4513C73.2268 23.4513 73.0715 23.3736 72.8386 23.3736C72.6833 23.296 72.4503 23.296 72.295 23.2183C72.1397 23.1407 71.9844 23.1407 71.9067 23.063L72.2174 21.8206C72.3727 21.8982 72.6056 21.9759 72.9162 22.0535C73.2268 22.1312 73.5375 22.2088 73.9257 22.2088C74.3916 22.2088 74.7023 22.1312 74.9352 21.9759C75.1682 21.8205 75.2458 21.5876 75.2458 21.277C75.2458 21.1217 75.2458 20.9664 75.1682 20.8111C75.0905 20.6558 75.0129 20.5781 74.8576 20.5004C74.7023 20.4228 74.547 20.3451 74.3916 20.3451C74.2363 20.3451 74.0034 20.2675 73.7704 20.2675H73.1492V19.025H73.8481C74.0034 19.025 74.1587 19.025 74.314 18.9474C74.4693 18.9474 74.5469 18.8697 74.7023 18.7921C74.7799 18.7144 74.8576 18.6368 74.9352 18.5591C75.0129 18.4815 75.0129 18.3262 75.0129 18.1709C75.0129 18.0155 75.0129 17.9379 74.9352 17.8602C74.8576 17.7826 74.7799 17.7049 74.7023 17.6273C74.6246 17.5496 74.547 17.5496 74.3916 17.472C74.314 17.472 74.1587 17.3943 74.081 17.3943C73.7704 17.3943 73.5375 17.472 73.3045 17.5496C73.0715 17.6273 72.8386 17.7826 72.6056 17.8602L72.062 16.7731C72.1397 16.6954 72.295 16.6178 72.4503 16.5401C72.6056 16.4625 72.7609 16.3848 72.9162 16.3072C73.0715 16.2295 73.3045 16.2295 73.4598 16.1519C73.6928 16.0742 73.8481 16.0742 74.081 16.0742C74.4693 16.0742 74.8576 16.1519 75.1682 16.2295C75.4788 16.3072 75.7118 16.4625 75.9447 16.6178C76.1777 16.7731 76.2553 17.0061 76.4106 17.239C76.4883 17.472 76.5659 17.7049 76.5659 18.0155C76.5659 18.3262 76.4883 18.5591 76.333 18.7921C76.1777 19.025 75.9447 19.258 75.7117 19.4133C76.1 19.5686 76.333 19.8016 76.5659 20.1122C76.7989 20.4228 76.8765 20.7334 76.8765 21.1993C76.8765 21.5099 76.7989 21.8206 76.7212 22.1312C76.6436 22.4418 76.4106 22.6747 76.1777 22.83C75.9447 22.9853 75.6341 23.2183 75.3235 23.296C74.8576 23.3736 74.4693 23.4513 74.0034 23.4513Z" fill="black"/>
<path d="M71.3632 35.2545C71.3632 36.4193 71.1302 37.3511 70.6643 37.9724C70.1984 38.5936 69.5771 38.9042 68.8006 38.9042C68.0241 38.9042 67.4028 38.5936 66.9369 37.9724C66.471 37.3511 66.238 36.4193 66.238 35.2545C66.238 34.6333 66.3157 34.1674 66.3933 33.7014C66.5486 33.2355 66.704 32.8472 66.9369 32.5366C67.1699 32.226 67.4028 31.9931 67.7134 31.8378C68.0241 31.6824 68.3347 31.6048 68.7229 31.6048C69.4995 31.6048 70.1207 31.9154 70.5866 32.5366C71.1302 33.1579 71.3632 34.0897 71.3632 35.2545ZM69.8101 35.2545C69.8101 34.8662 69.8101 34.5556 69.7324 34.3227C69.7324 34.012 69.6548 33.7791 69.5771 33.5461C69.4995 33.3132 69.4218 33.1579 69.2665 33.0802C69.1112 33.0026 68.9559 32.9249 68.8006 32.9249C68.6453 32.9249 68.49 33.0026 68.3347 33.0802C68.1794 33.1579 68.1017 33.3908 68.0241 33.5461C67.9464 33.7791 67.8688 34.012 67.8688 34.3227C67.8688 34.6333 67.7911 34.9439 67.7911 35.2545C67.7911 35.5651 67.7911 35.9534 67.8688 36.1863C67.8688 36.4969 67.9464 36.7299 68.0241 36.9629C68.1017 37.1958 68.1794 37.3511 68.3347 37.4288C68.49 37.5064 68.6453 37.5841 68.8006 37.5841C68.9559 37.5841 69.1112 37.5064 69.2665 37.4288C69.4218 37.3511 69.4995 37.1182 69.5771 36.9629C69.6548 36.8076 69.7324 36.4969 69.7324 36.1863C69.8101 35.9534 69.8101 35.6428 69.8101 35.2545Z" fill="black"/>
<path d="M73.1491 38.8266C73.2268 38.3607 73.3044 37.8171 73.3821 37.2735C73.4598 36.7299 73.6927 36.1864 73.848 35.7204C74.0033 35.1769 74.2363 34.711 74.4692 34.245C74.7022 33.7791 74.9352 33.3908 75.1681 33.0802H72.1396V31.7601H77.0318V32.8473C76.7988 33.0802 76.5659 33.3908 76.3329 33.8568C76.1 34.245 75.7894 34.7886 75.5564 35.2545C75.3234 35.7981 75.0905 36.3417 74.9352 36.9629C74.7799 37.5841 74.6245 38.2053 74.6245 38.7489H73.1491V38.8266Z" fill="black"/>
</g>
<defs>
<clipPath id="clip0_246:2">
<rect width="180" height="72.528" fill="white"/>
</clipPath>
</defs>
</svg>
