<?xml version="1.0" encoding="utf-8"?>
<!-- Generator: Adobe Illustrator 25.2.3, SVG Export Plug-In . SVG Version: 6.00 Build 0)  -->
<svg version="1.1" id="Layer_1" xmlns="http://www.w3.org/2000/svg" width="200" height="90" xmlns:xlink="http://www.w3.org/1999/xlink" x="0px" y="0px"
	 viewBox="0 0 200 90" style="enable-background:new 0 0 200 90;" xml:space="preserve">
<style type="text/css">
	.st0{fill:#55BCBD;}
	.st1{opacity:0.92;fill:#2D314E;enable-background:new    ;}
	.st2{fill:#D0D09B;}
	.st3{fill:#292333;}
	.st4{fill:#002C46;}
	.st5{fill:#FFFFFF;}
</style>
<g>
	<g>
		<rect x="130.8" y="4.4" class="st0" width="47.8" height="17.9"/>
	</g>
</g>
<g id="_24_julho_novo" transform="translate(200.275 451.873)">
	<path id="Path_11" class="st1" d="M-112.7-369.9c-0.1,2.1-1.9,3.7-4,3.6s-3.7-1.9-3.6-4c0.1-2,1.8-3.6,3.8-3.6
		C-114.3-373.8-112.6-372-112.7-369.9z"/>
</g>
<g>
	<rect x="79.8" y="20.7" class="st2" width="98.8" height="24"/>
</g>
<g>
	<rect x="47.9" y="20.7" class="st0" width="32.7" height="24"/>
</g>
<g>
	<rect x="79.8" y="45.4" class="st3" width="98.8" height="24"/>
</g>
<g>
	<g id="Layer_1-2_13_">
		<rect x="47.9" y="45.4" class="st0" width="32.7" height="24"/>
	</g>
</g>
<polygon class="st0" points="47.9,69.4 73.7,76.8 58.6,67.6 "/>
<g>
	<path class="st4" d="M58.1,40.3c-1,0-1.8-0.2-2.6-0.7c-0.7-0.4-1.3-1-1.8-1.8s-0.8-1.6-1-2.4c-0.2-0.9-0.3-1.8-0.3-2.7
		c0-0.9,0.1-1.8,0.3-2.7c0.2-0.9,0.5-1.7,1-2.4s1-1.3,1.8-1.8c0.7-0.4,1.6-0.7,2.6-0.7c1,0,1.8,0.2,2.6,0.7c0.7,0.4,1.3,1,1.8,1.8
		s0.8,1.5,1,2.4c0.2,0.9,0.3,1.8,0.3,2.7c0,0.9-0.1,1.8-0.3,2.7c-0.2,0.9-0.5,1.7-1,2.4s-1,1.3-1.8,1.8S59.1,40.3,58.1,40.3z
		 M55.9,37.8c0.6,0.6,1.3,0.9,2.2,0.9c0.9,0,1.6-0.3,2.2-0.9c0.6-0.6,1-1.3,1.2-2.2c0.2-0.9,0.3-1.8,0.3-2.9c0-1.1-0.1-2-0.3-2.9
		c-0.2-0.9-0.6-1.6-1.2-2.2c-0.6-0.6-1.3-0.9-2.2-0.9c-0.9,0-1.6,0.3-2.2,0.9c-0.6,0.6-1,1.3-1.2,2.2c-0.2,0.9-0.3,1.8-0.3,2.9
		c0,1.1,0.1,2,0.3,2.9C54.9,36.4,55.3,37.2,55.9,37.8z"/>
	<path class="st4" d="M70.7,40.3c-1.2,0-2.2-0.2-3.1-0.7c-0.9-0.5-1.6-1-2.1-1.7l1.1-1.1c0.4,0.6,1,1.1,1.7,1.4
		c0.7,0.4,1.5,0.5,2.4,0.5c1.1,0,1.9-0.2,2.5-0.7c0.6-0.5,0.9-1.2,0.9-2c0-0.9-0.3-1.5-1-2c-0.7-0.4-1.5-0.6-2.7-0.6
		c-0.9,0-1.4,0-1.5,0v-1.7c0.2,0,0.7,0,1.5,0c1,0,1.8-0.2,2.5-0.6s1-1,1-1.8c0-0.8-0.3-1.4-0.9-1.8c-0.6-0.4-1.4-0.7-2.3-0.7
		c-1.5,0-2.8,0.6-3.9,1.8l-1-1.1c1.2-1.5,2.9-2.3,5-2.3c1.5,0,2.6,0.3,3.6,1c0.9,0.7,1.4,1.6,1.4,2.8c0,1-0.3,1.7-1,2.3
		c-0.6,0.6-1.4,0.9-2.2,1.1c0.8,0.1,1.6,0.4,2.3,1.1c0.7,0.6,1.1,1.5,1.1,2.6c0,1.2-0.5,2.3-1.4,3C73.6,39.9,72.3,40.3,70.7,40.3z"
		/>
</g>
<g>
	<path class="st4" d="M58.1,65c-1,0-1.8-0.2-2.6-0.7c-0.7-0.4-1.3-1-1.8-1.8s-0.8-1.6-1-2.4c-0.2-0.9-0.3-1.8-0.3-2.7
		c0-0.9,0.1-1.8,0.3-2.7c0.2-0.9,0.5-1.7,1-2.4c0.4-0.7,1-1.3,1.8-1.8c0.7-0.4,1.6-0.7,2.6-0.7c1,0,1.8,0.2,2.6,0.7
		c0.7,0.4,1.3,1,1.8,1.8c0.4,0.7,0.8,1.5,1,2.4c0.2,0.9,0.3,1.8,0.3,2.7c0,0.9-0.1,1.8-0.3,2.7c-0.2,0.9-0.5,1.7-1,2.4
		s-1,1.3-1.8,1.8S59.1,65,58.1,65z M55.9,62.5c0.6,0.6,1.3,0.9,2.2,0.9c0.9,0,1.6-0.3,2.2-0.9c0.6-0.6,1-1.3,1.2-2.2
		c0.2-0.9,0.3-1.8,0.3-2.9c0-1.1-0.1-2-0.3-2.9c-0.2-0.9-0.6-1.6-1.2-2.2c-0.6-0.6-1.3-0.9-2.2-0.9c-0.9,0-1.6,0.3-2.2,0.9
		c-0.6,0.6-1,1.3-1.2,2.2c-0.2,0.9-0.3,1.8-0.3,2.9c0,1.1,0.1,2,0.3,2.9C54.9,61.1,55.3,61.9,55.9,62.5z"/>
	<path class="st4" d="M74.3,64.7h-1.8V61h-7v-1.5l6.3-9.4h2.5v9.3h2.1V61h-2.1V64.7z M72.5,59.4v-7.7l-5.1,7.7H72.5z"/>
</g>
<g>
	<path class="st4" d="M148,17.1c-0.7,0.5-1.6,0.8-2.6,0.8c-1.1,0-1.9-0.3-2.6-0.8c-0.7-0.5-1.1-1.2-1.1-2c0-0.7,0.2-1.2,0.7-1.7
		c0.5-0.5,1.1-0.8,1.8-1c-0.7-0.2-1.2-0.5-1.6-0.9c-0.4-0.4-0.7-0.9-0.7-1.6c0-0.9,0.4-1.5,1.1-2c0.7-0.5,1.5-0.7,2.5-0.7
		c1,0,1.8,0.2,2.5,0.7c0.7,0.5,1.1,1.1,1.1,2c0,0.6-0.2,1.2-0.7,1.6s-1,0.7-1.7,0.9c0.7,0.2,1.3,0.5,1.8,1c0.5,0.5,0.7,1,0.7,1.7
		C149,15.9,148.7,16.6,148,17.1z M145.3,16.8c0.7,0,1.2-0.2,1.7-0.5c0.5-0.3,0.7-0.8,0.7-1.3c0-0.4-0.2-0.8-0.5-1.1s-0.7-0.5-1-0.7
		c-0.3-0.1-0.6-0.2-0.9-0.2c-0.3,0-0.6,0.1-0.9,0.2c-0.3,0.1-0.7,0.4-1,0.7c-0.3,0.3-0.5,0.7-0.5,1.1c0,0.5,0.2,1,0.7,1.3
		C144.1,16.6,144.7,16.8,145.3,16.8z M145.3,11.9c0.2,0,0.4-0.1,0.6-0.2c0.2-0.1,0.5-0.2,0.7-0.3c0.3-0.1,0.5-0.3,0.7-0.5
		s0.2-0.5,0.2-0.8c0-0.5-0.2-0.9-0.6-1.2c-0.4-0.3-1-0.5-1.6-0.5s-1.2,0.2-1.6,0.5s-0.6,0.7-0.6,1.2c0,0.3,0.1,0.6,0.2,0.8
		s0.4,0.4,0.7,0.5c0.3,0.1,0.5,0.2,0.7,0.3C144.9,11.8,145.1,11.8,145.3,11.9z"/>
	<path class="st4" d="M159.8,17.7h-1.6l-3.3-4.4l-3.3,4.4H150l4-5.3l-3.8-5h1.6l3.1,4.1l3.1-4.1h1.6l-3.8,5L159.8,17.7z"/>
	<path class="st4" d="M166.6,17.7h-1.3v-2.6h-4.9V14l4.4-6.6h1.8V14h1.5v1.1h-1.5V17.7z M165.3,14V8.6l-3.6,5.4H165.3z"/>
</g>
<g>
	<path class="st4" d="M90.1,37.9h-1.3v-9.2h-3.3v-1.1h7.8v1.1h-3.3V37.9z"/>
	<path class="st4" d="M94.9,37.8c-0.2,0.2-0.4,0.2-0.6,0.2c-0.2,0-0.4-0.1-0.6-0.2c-0.2-0.2-0.2-0.4-0.2-0.6c0-0.2,0.1-0.4,0.2-0.6
		c0.2-0.2,0.4-0.2,0.6-0.2c0.2,0,0.4,0.1,0.6,0.2c0.2,0.2,0.2,0.4,0.2,0.6C95.1,37.4,95,37.6,94.9,37.8z"/>
	<path class="st4" d="M104.6,38.1c-1.7,0-3-0.5-4-1.6l0.8-1c0.9,1,1.9,1.5,3.2,1.5c0.8,0,1.5-0.2,1.8-0.5c0.4-0.4,0.6-0.8,0.6-1.3
		c0-0.4-0.2-0.8-0.5-1c-0.3-0.3-0.7-0.5-1.1-0.6c-0.4-0.1-0.9-0.3-1.5-0.4s-1-0.3-1.5-0.5c-0.5-0.2-0.8-0.5-1.1-0.9
		s-0.5-0.9-0.5-1.5c0-0.8,0.3-1.5,1-2.1c0.7-0.5,1.5-0.8,2.6-0.8c1.5,0,2.7,0.5,3.7,1.5l-0.8,0.9c-0.7-0.8-1.7-1.2-3-1.2
		c-0.6,0-1.1,0.2-1.5,0.5c-0.4,0.3-0.6,0.7-0.6,1.2c0,0.4,0.2,0.7,0.5,0.9c0.3,0.2,0.7,0.4,1.1,0.5c0.4,0.1,0.9,0.3,1.5,0.4
		c0.5,0.2,1,0.4,1.5,0.5c0.5,0.2,0.8,0.5,1.1,0.9s0.5,0.9,0.5,1.5c0,0.8-0.3,1.6-0.9,2.1C106.9,37.8,105.9,38.1,104.6,38.1z"/>
	<path class="st4" d="M115.1,38.1c-1.5,0-2.7-0.5-3.7-1.5c-1-1-1.4-2.3-1.4-3.8c0-1.5,0.5-2.8,1.4-3.8c1-1,2.2-1.5,3.7-1.5
		s2.7,0.5,3.7,1.5c1,1,1.4,2.3,1.4,3.8c0,1.5-0.5,2.8-1.4,3.8l1,1l-0.9,0.8l-1-1.1C117.1,37.8,116.1,38.1,115.1,38.1z M115.1,36.9
		c0.7,0,1.4-0.2,2-0.5l-1.5-1.6l0.9-0.8l1.5,1.6c0.6-0.8,1-1.8,1-2.9c0-1.2-0.4-2.2-1.1-3c-0.7-0.8-1.6-1.2-2.8-1.2
		c-1.1,0-2.1,0.4-2.8,1.2c-0.7,0.8-1,1.8-1,3c0,1.2,0.3,2.2,1,3C113,36.5,113.9,36.9,115.1,36.9z"/>
	<path class="st4" d="M126.4,38.1c-1.4,0-2.4-0.4-3.1-1.1s-1.1-1.8-1.1-3.1v-6.3h1.3v6.3c0,1,0.3,1.7,0.8,2.3s1.2,0.8,2.2,0.8
		s1.7-0.3,2.2-0.8c0.5-0.5,0.8-1.3,0.8-2.3v-6.3h1.3v6.3c0,1.3-0.4,2.3-1.1,3.1S127.8,38.1,126.4,38.1z"/>
	<path class="st4" d="M141.5,37.9H140l-0.9-2.3H134l-0.9,2.3h-1.5l4.2-10.3h1.6L141.5,37.9z M138.8,34.4l-2.2-5.6l-2.2,5.6H138.8z"
		/>
	<path class="st4" d="M150.4,37.9h-1.5l-2.6-4.1h-2.1v4.1h-1.3V27.5h4.2c1,0,1.7,0.3,2.3,0.9s0.9,1.3,0.9,2.3c0,0.9-0.3,1.6-0.8,2.1
		c-0.5,0.5-1.2,0.8-1.9,0.9L150.4,37.9z M146.9,32.6c0.6,0,1.1-0.2,1.5-0.6c0.4-0.4,0.6-0.8,0.6-1.4c0-0.6-0.2-1.1-0.6-1.4
		c-0.4-0.4-0.9-0.5-1.5-0.5h-2.7v4H146.9z"/>
	<path class="st4" d="M159.1,37.9h-6.8V27.5h6.8v1.1h-5.5V32h5.4v1.1h-5.4v3.6h5.5V37.9z"/>
	<path class="st4" d="M174,37.9h-1.5l-0.9-2.3h-5.1l-0.9,2.3h-1.5l4.2-10.3h1.6L174,37.9z M171.2,34.4l-2.2-5.6l-2.2,5.6H171.2z"/>
</g>
<g>
	<path class="st5" d="M90.3,62.6h-1.3v-9.2h-3.3v-1.1h7.8v1.1h-3.3V62.6z"/>
	<path class="st5" d="M95.1,62.5c-0.2,0.2-0.4,0.2-0.6,0.2c-0.2,0-0.4-0.1-0.6-0.2c-0.2-0.2-0.2-0.4-0.2-0.6c0-0.2,0.1-0.4,0.2-0.6
		c0.2-0.2,0.4-0.2,0.6-0.2c0.2,0,0.4,0.1,0.6,0.2c0.2,0.2,0.2,0.4,0.2,0.6C95.3,62.1,95.2,62.3,95.1,62.5z"/>
	<path class="st5" d="M104.8,62.8c-1.7,0-3-0.5-4-1.6l0.8-1c0.9,1,1.9,1.5,3.2,1.5c0.8,0,1.5-0.2,1.8-0.5c0.4-0.4,0.6-0.8,0.6-1.3
		c0-0.4-0.2-0.8-0.5-1c-0.3-0.3-0.7-0.5-1.1-0.6c-0.4-0.1-0.9-0.3-1.5-0.4s-1-0.3-1.5-0.5c-0.5-0.2-0.8-0.5-1.1-0.9
		s-0.5-0.9-0.5-1.5c0-0.8,0.3-1.5,1-2.1c0.7-0.5,1.5-0.8,2.6-0.8c1.5,0,2.7,0.5,3.7,1.5l-0.8,0.9c-0.7-0.8-1.7-1.2-3-1.2
		c-0.6,0-1.1,0.2-1.5,0.5c-0.4,0.3-0.6,0.7-0.6,1.2c0,0.4,0.2,0.7,0.5,0.9c0.3,0.2,0.7,0.4,1.1,0.5c0.4,0.1,0.9,0.3,1.5,0.4
		c0.5,0.2,1,0.4,1.5,0.5c0.5,0.2,0.8,0.5,1.1,0.9s0.5,0.9,0.5,1.5c0,0.8-0.3,1.6-0.9,2.1C107.1,62.5,106.1,62.8,104.8,62.8z"/>
	<path class="st5" d="M115.3,62.8c-1.5,0-2.7-0.5-3.7-1.5c-1-1-1.4-2.3-1.4-3.8c0-1.5,0.5-2.8,1.4-3.8c1-1,2.2-1.5,3.7-1.5
		s2.7,0.5,3.7,1.5c1,1,1.4,2.3,1.4,3.8c0,1.5-0.5,2.8-1.4,3.8l1,1l-0.9,0.8l-1-1.1C117.3,62.5,116.3,62.8,115.3,62.8z M115.3,61.6
		c0.7,0,1.4-0.2,2-0.5l-1.5-1.6l0.9-0.8l1.5,1.6c0.6-0.8,1-1.8,1-2.9c0-1.2-0.4-2.2-1.1-3c-0.7-0.8-1.6-1.2-2.8-1.2
		c-1.1,0-2.1,0.4-2.8,1.2s-1,1.8-1,3c0,1.2,0.3,2.2,1,3C113.2,61.2,114.1,61.6,115.3,61.6z"/>
	<path class="st5" d="M126.6,62.8c-1.4,0-2.4-0.4-3.1-1.1s-1.1-1.8-1.1-3.1v-6.3h1.3v6.3c0,1,0.3,1.7,0.8,2.3s1.2,0.8,2.2,0.8
		s1.7-0.3,2.2-0.8c0.5-0.5,0.8-1.3,0.8-2.3v-6.3h1.3v6.3c0,1.3-0.4,2.3-1.1,3.1S128,62.8,126.6,62.8z"/>
	<path class="st5" d="M141.7,62.6h-1.5l-0.9-2.3h-5.1l-0.9,2.3h-1.5l4.2-10.3h1.6L141.7,62.6z M139,59.1l-2.2-5.6l-2.2,5.6H139z"/>
	<path class="st5" d="M150.6,62.6h-1.5l-2.6-4.1h-2.1v4.1h-1.3V52.2h4.2c1,0,1.7,0.3,2.3,0.9s0.9,1.3,0.9,2.3c0,0.9-0.3,1.6-0.8,2.1
		c-0.5,0.5-1.2,0.8-1.9,0.9L150.6,62.6z M147.1,57.3c0.6,0,1.1-0.2,1.5-0.6c0.4-0.4,0.6-0.8,0.6-1.4c0-0.6-0.2-1.1-0.6-1.4
		c-0.4-0.4-0.9-0.5-1.5-0.5h-2.7v4H147.1z"/>
	<path class="st5" d="M159.3,62.6h-6.8V52.2h6.8v1.1h-5.5v3.3h5.4v1.1h-5.4v3.6h5.5V62.6z"/>
	<path class="st5" d="M170.1,62.6h-4.7V52.2h4.6c0.9,0,1.6,0.2,2.1,0.7c0.5,0.5,0.8,1.1,0.8,1.9c0,0.6-0.2,1.1-0.5,1.6
		c-0.4,0.4-0.8,0.7-1.3,0.8c0.5,0.1,1,0.4,1.4,0.9c0.4,0.5,0.6,1.1,0.6,1.7c0,0.8-0.3,1.5-0.8,2C171.7,62.3,171,62.6,170.1,62.6z
		 M169.8,56.7c0.6,0,1-0.2,1.3-0.5c0.3-0.3,0.5-0.7,0.5-1.2c0-0.5-0.2-0.9-0.5-1.2c-0.3-0.3-0.8-0.5-1.3-0.5h-3.1v3.3H169.8z
		 M169.8,61.4c0.6,0,1.1-0.2,1.4-0.5c0.3-0.3,0.5-0.8,0.5-1.3c0-0.5-0.2-0.9-0.5-1.3c-0.3-0.3-0.8-0.5-1.4-0.5h-3.2v3.6H169.8z"/>
</g>
</svg>
