<svg xmlns="http://www.w3.org/2000/svg" xmlns:xlink="http://www.w3.org/1999/xlink" width="140" height="95.826" viewBox="0 0 72.83 23.09"><defs><style>.cls-1{fill:none;}.cls-2{fill:#d0d09b;}.cls-3{fill:#002c46;}.cls-4{fill:#55bcbd;}.cls-5{fill:#2d314e;}.cls-6{clip-path:url(#clip-path);}</style><clipPath id="clip-path"><rect class="cls-1" x="4.05" y="1.64" width="13" height="5"/></clipPath></defs><g id="Layer_2" data-name="Layer 2"><g id="Layer_1-2" data-name="Layer 1"><rect class="cls-2" y="6.82" width="56" height="12.24" rx="1.53"/><path class="cls-3" d="M4.14,15V12.15H3.05V11.5H6v.65H4.94V15Z"/><path class="cls-3" d="M6.59,15V11.5h.8V15Z"/><path class="cls-3" d="M11.43,15V12.47l-1,2.53H10L9,12.47V15h-.8V11.5H9.29l.91,2.18.91-2.18h1.12V15Z"/><path class="cls-3" d="M13,15V11.5h2.65v.65H13.82v.74h1.81v.65H13.82v.8h1.85V15Z"/><path class="cls-3" d="M16.08,14.5l.44-.58a1.67,1.67,0,0,0,1.19.48c.44,0,.65-.18.65-.39,0-.61-2.15-.18-2.15-1.5,0-.58.53-1.07,1.42-1.07a2.18,2.18,0,0,1,1.46.49l-.45.56a1.68,1.68,0,0,0-1.09-.39c-.33,0-.52.14-.52.35,0,.55,2.15.18,2.15,1.49,0,.64-.5,1.12-1.5,1.12A2.27,2.27,0,0,1,16.08,14.5Z"/><path class="cls-3" d="M21,14.5l.44-.58a1.71,1.71,0,0,0,1.19.48c.45,0,.65-.18.65-.39,0-.61-2.15-.18-2.15-1.5,0-.58.54-1.07,1.42-1.07a2.18,2.18,0,0,1,1.46.49l-.44.56a1.71,1.71,0,0,0-1.09-.39c-.34,0-.53.14-.53.35,0,.55,2.15.18,2.15,1.49,0,.64-.5,1.12-1.5,1.12A2.28,2.28,0,0,1,21,14.5Z"/><path class="cls-3" d="M24.48,13.25a1.82,1.82,0,0,1,2-1.81,1.82,1.82,0,0,1,1.95,1.81,1.75,1.75,0,0,1-.49,1.24l.28.3-.56.42-.3-.32a2.26,2.26,0,0,1-.88.17A1.82,1.82,0,0,1,24.48,13.25Zm2.35,1.09-.41-.45.55-.43.41.46a1.17,1.17,0,0,0,.19-.67,1.14,1.14,0,1,0-1.13,1.15A1.23,1.23,0,0,0,26.83,14.34Z"/><path class="cls-3" d="M29,13.6V11.5h.81v2.07a.88.88,0,0,0,1.76,0V11.5h.81v2.1c0,.86-.55,1.46-1.69,1.46S29,14.46,29,13.6Z"/><path class="cls-3" d="M35.76,15l-.24-.6H33.91l-.23.6h-.91l1.45-3.5h1L36.66,15Zm-1-2.76-.59,1.51H35.3Z"/><path class="cls-3" d="M39.17,15l-.73-1.25h-.59V15h-.8V11.5h1.76a1.13,1.13,0,0,1,1.26,1.12,1,1,0,0,1-.83,1L40.09,15Zm.08-2.38a.5.5,0,0,0-.56-.47h-.84v.95h.84A.5.5,0,0,0,39.25,12.62Z"/><path class="cls-3" d="M40.71,15V11.5h2.65v.65H41.51v.74h1.81v.65H41.51v.8h1.85V15Z"/><rect class="cls-4" x="48.44" y="4.59" width="16.7" height="16.7" rx="4" transform="translate(7.48 43.95) rotate(-45)"/><path class="cls-3" d="M53.91,15.85V11.24l-1.06,1.08-.77-.81,2-2h1.18v6.35Z"/><path class="cls-3" d="M56.36,15l.75-.94a2.29,2.29,0,0,0,1.68.7c.76,0,1.18-.43,1.18-.95s-.42-.94-1.14-.94a1.79,1.79,0,0,0-1.33.52l-.94-.26V9.5h4.36v1.19h-3v1.55a2,2,0,0,1,1.4-.53,2,2,0,0,1,2,2.06c0,1.34-1,2.2-2.54,2.2A3.16,3.16,0,0,1,56.36,15Z"/><path class="cls-5" d="M69.16,13.33a1.74,1.74,0,0,1,1.34-2.15,1.92,1.92,0,0,1,2.27,1.35,1.74,1.74,0,0,1-1.34,2.16,1.92,1.92,0,0,1-2.27-1.36"/><rect class="cls-4" width="21.1" height="8.28" rx="0.89"/><g class="cls-6"><path class="cls-3" d="M4.29,5.33a1.3,1.3,0,0,1,1-1.13c-.52-.17-.93-.48-.93-1C4.37,2.35,5.31,2,6.18,2S8,2.35,8,3.17c0,.55-.41.86-.93,1a1.3,1.3,0,0,1,1,1.13c0,.81-.9,1.21-1.88,1.21S4.29,6.14,4.29,5.33Zm2.76-.14c0-.36-.59-.53-.87-.57s-.87.21-.87.57.37.52.87.52S7.05,5.51,7.05,5.19ZM7,3.33c0-.31-.33-.48-.78-.48s-.8.17-.8.48.51.46.8.51S7,3.65,7,3.33Z"/><path class="cls-3" d="M11.88,6.46,10.7,4.86,9.52,6.46H8.34L10,4.22,8.44,2.08H9.63l1.07,1.5,1.06-1.5H13L11.37,4.21l1.7,2.25Z"/><path class="cls-3" d="M15.52,6.46V5.55H13.28V4.82l1.86-2.74h1.38V4.73h.6v.82h-.6v.91Zm0-3.55L14.26,4.73h1.26Z"/></g></g></g></svg>