<?xml version="1.0" encoding="utf-8"?>
<!-- Generator: Adobe Illustrator 25.2.3, SVG Export Plug-In . SVG Version: 6.00 Build 0)  -->
<svg version="1.1" id="Layer_1" xmlns="http://www.w3.org/2000/svg" width="200" height="90" xmlns:xlink="http://www.w3.org/1999/xlink" x="0px" y="0px"
	 viewBox="0 0 200 90" style="enable-background:new 0 0 200 90;" xml:space="preserve">
<style type="text/css">
	.st0{opacity:0.92;fill:#2D314E;enable-background:new    ;}
	.st1{fill:#D0D09B;}
	.st2{fill:#002C46;}
	.st3{fill:#55BCBD;}
	.st4{fill:#292333;}
	.st5{fill:#FFFFFF;}
</style>
<g id="_24_julho_novo" transform="translate(200.275 451.873)">
	<path id="Path_11" class="st0" d="M-112.7-369.9c-0.1,2.1-1.9,3.7-4,3.6c-2.1-0.1-3.7-1.9-3.6-4c0.1-2,1.8-3.6,3.8-3.6
		C-114.3-373.8-112.6-372-112.7-369.9z"/>
</g>
<g>
	<rect x="79.8" y="20.7" class="st1" width="98.8" height="24"/>
	<path class="st2" d="M92.9,37.1v-7.2h-2.7v-1.7h7.1v1.7h-2.7v7.2H92.9z"/>
	<path class="st2" d="M97,36.2c0-0.6,0.6-1,1-1c0.6,0,1,0.6,1,1c0,0.6-0.6,1-1,1C97.4,37.2,97,36.7,97,36.2z"/>
	<path class="st2" d="M103.4,35.9l1-1.4c0.6,0.6,1.6,1.2,2.8,1.2c1,0,1.6-0.4,1.6-1c0-1.6-5.1-0.4-5.1-3.9c0-1.4,1.3-2.7,3.4-2.7
		c1.4,0,2.7,0.4,3.4,1.2l-1,1.4c-0.7-0.7-1.7-1-2.7-1c-0.8,0-1.2,0.3-1.2,0.9c0,1.4,5.1,0.4,5.1,3.8c0,1.7-1.1,2.9-3.6,2.9
		C105.4,37.2,104.2,36.7,103.4,35.9z"/>
	<path class="st2" d="M111.6,32.7c0-2.7,1.9-4.7,4.7-4.7c2.7,0,4.7,1.9,4.7,4.7c0,1.2-0.4,2.3-1.1,3.1l0.6,0.8l-1.3,1l-0.7-0.8
		c-0.6,0.2-1.3,0.4-2.1,0.4C113.6,37.2,111.6,35.3,111.6,32.7z M117.2,35.4l-1-1.1l1.3-1l1,1.1c0.2-0.4,0.4-1,0.4-1.7
		c0-1.7-1-2.9-2.7-2.9s-2.7,1.2-2.7,2.9c0,1.7,1,2.9,2.7,2.9C116.6,35.6,116.9,35.4,117.2,35.4z"/>
	<path class="st2" d="M122.2,33.6v-5.3h1.8v5.2c0,1.2,0.7,2.1,2.1,2.1c1.4,0,2.1-0.9,2.1-2.1v-5.2h1.9v5.3c0,2.2-1.3,3.8-4,3.8
		C123.4,37.2,122.2,35.8,122.2,33.6z"/>
	<path class="st2" d="M137.7,37.1l-0.6-1.4h-3.8l-0.6,1.4h-2.2l3.4-8.9h2.3l3.4,8.9H137.7z M135.1,30.1l-1.4,3.9h2.8L135.1,30.1z"/>
	<path class="st2" d="M145.7,37.1l-1.8-3.1h-1.4v3.1h-1.8v-8.8h4.2c1.8,0,3,1.2,3,2.9c0,1.6-1,2.4-1.9,2.7l2,3.4L145.7,37.1
		L145.7,37.1z M145.8,31c0-0.7-0.6-1.2-1.3-1.2h-2v2.4h2C145.2,32.2,145.8,31.8,145.8,31z"/>
	<path class="st2" d="M149.2,37.1v-8.8h6.3V30h-4.4v1.8h4.2v1.7h-4.2v2h4.3v1.7H149.2z"/>
	<path class="st2" d="M166.4,37.1l-0.6-1.4H162l-0.6,1.4h-2.2l3.4-8.9h2.3l3.4,8.9H166.4z M164,30.1l-1.4,3.9h2.8L164,30.1z"/>
</g>
<g>
	<rect x="47.9" y="20.7" class="st3" width="32.7" height="24"/>
	<g>
		<path class="st2" d="M53.2,32.7c0-3.3,1.7-6.7,5.3-6.7c3.7,0,5.3,3.3,5.3,6.7c0,3.3-1.7,6.7-5.3,6.7
			C54.8,39.2,53.2,35.9,53.2,32.7z M61,32.7c0-2.3-0.7-4.2-2.6-4.2c-1.8,0-2.6,1.8-2.6,4.2c0,2.4,0.7,4.2,2.6,4.2S61,35.1,61,32.7z"
			/>
		<path class="st2" d="M64.9,37.2l1.4-1.8c0.9,1,2.2,1.4,3.4,1.4c1.6,0,2.4-0.7,2.4-1.7s-0.8-1.4-2.6-1.4c-0.6,0-1.4,0-1.6,0v-2.4
			c0.2,0,1.1,0,1.6,0c1.4,0,2.3-0.4,2.3-1.4c0-1-1-1.4-2.3-1.4c-1.2,0-2.3,0.4-3.2,1.3L65,28c1-1.1,2.7-2,4.9-2c3,0,4.8,1.3,4.8,3.4
			c0,1.6-1.4,2.7-2.8,2.9c1.3,0.2,3,1.1,3,3c0,2.2-2,3.8-5.1,3.8C67.6,39.2,65.8,38.3,64.9,37.2z"/>
	</g>
</g>
<g>
	<rect x="79.8" y="45.4" class="st4" width="98.8" height="24"/>
	<path class="st5" d="M92.9,61.9v-7.2h-2.7V53h7.1v1.7h-2.7v7.2H92.9z"/>
	<path class="st5" d="M97.1,61c0-0.6,0.6-1,1-1c0.4,0,1,0.6,1,1c0,0.6-0.6,1-1,1C97.7,62,97.1,61.6,97.1,61z"/>
	<path class="st5" d="M103.6,60.7l1-1.4c0.6,0.6,1.6,1.2,2.8,1.2c1,0,1.6-0.4,1.6-1c0-1.6-5.1-0.4-5.1-3.9c0-1.4,1.3-2.7,3.4-2.7
		c1.4,0,2.7,0.4,3.4,1.2l-1,1.4c-0.7-0.7-1.7-1-2.7-1c-0.8,0-1.2,0.3-1.2,0.9c0,1.4,5.1,0.4,5.1,3.8c0,1.7-1.1,2.9-3.6,2.9
		C105.7,62,104.4,61.4,103.6,60.7z"/>
	<path class="st5" d="M111.8,57.4c0-2.7,1.9-4.7,4.7-4.7s4.7,1.9,4.7,4.7c0,1.2-0.4,2.3-1.1,3.1l0.6,0.8l-1.3,1l-0.7-0.8
		c-0.6,0.2-1.3,0.4-2.1,0.4C113.7,62,111.8,60.1,111.8,57.4z M117.2,60.2l-1-1.1l1.3-1l1,1.1c0.2-0.4,0.4-1,0.4-1.7
		c0-1.7-1-2.9-2.7-2.9s-2.7,1.2-2.7,2.9c0,1.7,1,2.9,2.7,2.9C116.8,60.3,117,60.3,117.2,60.2z"/>
	<path class="st5" d="M122.3,58.3V53h1.9v5.2c0,1.2,0.7,2.1,2.1,2.1s2.1-0.9,2.1-2.1V53h1.9v5.3c0,2.2-1.3,3.8-4,3.8
		C123.7,62,122.3,60.6,122.3,58.3z"/>
	<path class="st5" d="M137.8,61.9l-0.6-1.4h-3.9l-0.6,1.4h-2.2L134,53h2.3l3.4,8.9H137.8z M135.3,54.9l-1.4,3.9h2.8L135.3,54.9z"/>
	<path class="st5" d="M145.8,61.9l-1.8-3.1h-1.4v3.1h-1.9V53h4.2c1.8,0,3,1.2,3,2.9c0,1.6-1,2.4-1.9,2.7l2,3.4h-2.2V61.9z M146,55.9
		c0-0.7-0.6-1.2-1.3-1.2h-2V57h2C145.3,57,146,56.6,146,55.9z"/>
	<path class="st5" d="M149.2,61.9V53h6.3v1.7h-4.3v1.8h4.2v1.7h-4.2v2.1h4.3v1.7H149.2z"/>
	<path class="st5" d="M160.4,61.9V53h4.7c1.7,0,2.6,1,2.6,2.2c0,1.1-0.7,1.8-1.6,2c1,0.2,1.8,1,1.8,2.2c0,1.3-0.9,2.4-2.7,2.4H160.4
		z M165.8,55.7c0-0.6-0.4-1-1-1h-2.3v1.8h2.3C165.3,56.6,165.8,56.1,165.8,55.7z M165.9,59.2c0-0.6-0.4-1-1.1-1h-2.4v2.1h2.4
		C165.4,60.2,165.9,59.8,165.9,59.2z"/>
</g>
<g>
	<g id="Layer_1-2_13_">
		<rect x="47.9" y="45.4" class="st3" width="32.7" height="24"/>
	</g>
	<g>
		<path class="st2" d="M53.1,57.4c0-3.3,1.7-6.7,5.3-6.7c3.7,0,5.3,3.3,5.3,6.7s-1.7,6.7-5.3,6.7C54.8,64.1,53.1,60.8,53.1,57.4z
			 M60.9,57.4c0-2.3-0.7-4.2-2.6-4.2c-1.8,0-2.6,1.8-2.6,4.2c0,2.3,0.7,4.2,2.6,4.2S60.9,59.8,60.9,57.4z"/>
		<path class="st2" d="M71,63.9v-2.7h-6.1V59l5.1-8h3.8v7.8h1.7v2.4h-1.7v2.7H71z M71,53.4l-3.4,5.3H71V53.4z"/>
	</g>
</g>
<g>
	<g>
		<rect x="130.8" y="4.4" class="st3" width="47.8" height="16.2"/>
	</g>
	<g>
		<path class="st2" d="M142.1,14.8c0-1.1,0.9-2,2-2.3c-1-0.3-1.8-1-1.8-2.2c0-1.8,1.8-2.4,3.6-2.4c1.8,0,3.6,0.7,3.6,2.4
			c0,1.1-0.8,1.8-1.8,2.2c1.1,0.3,2,1.2,2,2.3c0,1.8-1.8,2.7-3.8,2.7C144,17.3,142.1,16.4,142.1,14.8z M147.7,14.4
			c0-0.8-1.1-1.1-1.8-1.2c-0.6,0.1-1.8,0.4-1.8,1.2c0,0.7,0.8,1.1,1.8,1.1C146.9,15.6,147.7,15.2,147.7,14.4z M147.4,10.6
			c0-0.7-0.7-1-1.6-1c-1,0-1.6,0.3-1.6,1c0,0.7,1,1,1.6,1C146.4,11.6,147.4,11.2,147.4,10.6z"/>
		<path class="st2" d="M157.1,17.2l-2.3-3.4l-2.3,3.4h-2.3l3.4-4.8l-3.1-4.6h2.3l2.1,3.2l2.1-3.2h2.3l-3.1,4.6l3.4,4.8H157.1z"/>
		<path class="st2" d="M164.3,17.2v-2h-4.4v-1.6l3.7-5.9h2.7v5.7h1.2v1.8h-1.2v1.9h-1.9V17.2z M164.3,9.7l-2.6,3.9h2.6V9.7z"/>
	</g>
</g>
<polygon class="st3" points="47.9,69.4 73.7,76.8 58.6,67.6 "/>
</svg>
