<?xml version="1.0" encoding="utf-8"?>
<!-- Generator: Adobe Illustrator 25.2.3, SVG Export Plug-In . SVG Version: 6.00 Build 0)  -->
<svg version="1.1" id="Layer_1" xmlns="http://www.w3.org/2000/svg" width="200" height="90" xmlns:xlink="http://www.w3.org/1999/xlink" x="0px" y="0px"
	 viewBox="0 0 180 73" style="enable-background:new 0 0 180 73;" xml:space="preserve">
<style type="text/css">
	.st0{opacity:0.92;fill:#2D314E;enable-background:new    ;}
	.st1{fill:#D0D09B;}
	.st2{fill:#FFFFFF;}
	.st3{fill:#55BCBD;}
	.st4{fill:#002C46;}
	.st5{fill:#292333;}
</style>
<g id="_24_julho_novo" transform="translate(200.275 451.873)">
	<path id="Path_11" class="st0" d="M-121.5-382.1c-0.1,1.9-1.7,3.3-3.6,3.2c-1.9-0.1-3.3-1.7-3.2-3.6c0.1-1.8,1.6-3.2,3.4-3.2
		C-122.9-385.6-121.4-384-121.5-382.1z"/>
</g>
<g>
	<g>
		<defs>
			<rect id="SVGID_1_" x="19.4" y="15.7" width="141.3" height="56.9"/>
		</defs>
		<clipPath id="SVGID_2_">
			<use xlink:href="#SVGID_1_"  style="overflow:visible;"/>
		</clipPath>
	</g>
</g>
<g>
	<rect x="71.8" y="14.6" class="st1" width="88.9" height="21.6"/>
	<path class="st2" d="M83.6,29.4v-6.5h-2.4v-1.5h6.4v1.5h-2.4v6.5H83.6z"/>
	<path class="st2" d="M87.3,28.6c0-0.5,0.5-0.9,0.9-0.9c0.5,0,0.9,0.5,0.9,0.9c0,0.5-0.5,0.9-0.9,0.9C87.7,29.5,87.3,29,87.3,28.6z"
		/>
	<path class="st2" d="M93.1,28.3l0.9-1.3c0.5,0.5,1.4,1.1,2.5,1.1c0.9,0,1.4-0.4,1.4-0.9c0-1.4-4.6-0.4-4.6-3.5
		c0-1.3,1.2-2.4,3.1-2.4c1.3,0,2.4,0.4,3.1,1.1l-0.9,1.3c-0.6-0.6-1.5-0.9-2.4-0.9c-0.7,0-1.1,0.3-1.1,0.8c0,1.3,4.6,0.4,4.6,3.4
		c0,1.5-1,2.6-3.2,2.6C94.9,29.5,93.8,29,93.1,28.3z"/>
	<path class="st2" d="M100.4,25.4c0-2.4,1.7-4.2,4.2-4.2c2.4,0,4.2,1.7,4.2,4.2c0,1.1-0.4,2.1-1,2.8l0.5,0.7l-1.2,0.9l-0.6-0.7
		c-0.5,0.2-1.2,0.4-1.9,0.4C102.2,29.5,100.4,27.8,100.4,25.4z M105.5,27.9l-0.9-1l1.2-0.9l0.9,1c0.2-0.4,0.4-0.9,0.4-1.5
		c0-1.5-0.9-2.6-2.4-2.6c-1.5,0-2.4,1.1-2.4,2.6c0,1.5,0.9,2.6,2.4,2.6C104.9,28,105.2,27.9,105.5,27.9z"/>
	<path class="st2" d="M110,26.2v-4.8h1.6v4.7c0,1.1,0.6,1.9,1.9,1.9s1.9-0.8,1.9-1.9v-4.7h1.7v4.8c0,2-1.2,3.4-3.6,3.4
		C111.1,29.5,110,28.2,110,26.2z"/>
	<path class="st2" d="M123.9,29.4l-0.5-1.3H120l-0.5,1.3h-2l3.1-8h2.1l3.1,8H123.9z M121.6,23.1l-1.3,3.5h2.5L121.6,23.1z"/>
	<path class="st2" d="M131.1,29.4l-1.6-2.8h-1.3v2.8h-1.6v-7.9h3.8c1.6,0,2.7,1.1,2.7,2.6c0,1.4-0.9,2.2-1.7,2.4l1.8,3.1L131.1,29.4
		L131.1,29.4z M131.2,23.9c0-0.6-0.5-1.1-1.2-1.1h-1.8V25h1.8C130.7,25,131.2,24.6,131.2,23.9z"/>
	<path class="st2" d="M134.3,29.4v-7.9h5.7v1.5H136v1.6h3.8v1.5H136v1.8h3.9v1.5H134.3z"/>
	<path class="st2" d="M149.8,29.4l-0.5-1.3h-3.5l-0.5,1.3h-2l3.1-8h2.1l3.1,8H149.8z M147.6,23.1l-1.3,3.5h2.5L147.6,23.1z"/>
</g>
<g>
	<rect x="43.1" y="14.6" class="st3" width="29.4" height="21.6"/>
	<g>
		<path class="st4" d="M47.9,25.4c0-3,1.5-6,4.8-6c3.3,0,4.8,3,4.8,6s-1.5,6-4.8,6C49.3,31.3,47.9,28.3,47.9,25.4z M54.9,25.4
			c0-2.1-0.6-3.8-2.3-3.8c-1.6,0-2.3,1.6-2.3,3.8s0.6,3.8,2.3,3.8S54.9,27.6,54.9,25.4z"/>
		<path class="st4" d="M58.4,29.5l1.3-1.6c0.8,0.9,2,1.3,3.1,1.3c1.4,0,2.2-0.6,2.2-1.5c0-0.9-0.7-1.3-2.3-1.3c-0.5,0-1.3,0-1.4,0
			v-2.2c0.2,0,1,0,1.4,0c1.3,0,2.1-0.4,2.1-1.3c0-0.9-0.9-1.3-2.1-1.3c-1.1,0-2.1,0.4-2.9,1.2l-1.3-1.6c0.9-1,2.4-1.8,4.4-1.8
			c2.7,0,4.3,1.2,4.3,3.1c0,1.4-1.3,2.4-2.5,2.6c1.2,0.2,2.7,1,2.7,2.7c0,2-1.8,3.4-4.6,3.4C60.8,31.3,59.2,30.5,58.4,29.5z"/>
	</g>
</g>
<g>
	<rect x="71.8" y="36.9" class="st5" width="88.9" height="21.6"/>
	<path class="st2" d="M83.6,51.7v-6.5h-2.4v-1.5h6.4v1.5h-2.4v6.5H83.6z"/>
	<path class="st2" d="M87.4,50.9c0-0.5,0.5-0.9,0.9-0.9s0.9,0.5,0.9,0.9c0,0.5-0.5,0.9-0.9,0.9S87.4,51.4,87.4,50.9z"/>
	<path class="st2" d="M93.2,50.6l0.9-1.3c0.5,0.5,1.4,1.1,2.5,1.1c0.9,0,1.4-0.4,1.4-0.9c0-1.4-4.6-0.4-4.6-3.5
		c0-1.3,1.2-2.4,3.1-2.4c1.3,0,2.4,0.4,3.1,1.1l-0.9,1.3c-0.6-0.6-1.5-0.9-2.4-0.9c-0.7,0-1.1,0.3-1.1,0.8c0,1.3,4.6,0.4,4.6,3.4
		c0,1.5-1,2.6-3.2,2.6C95.1,51.8,94,51.3,93.2,50.6z"/>
	<path class="st2" d="M100.6,47.7c0-2.4,1.7-4.2,4.2-4.2s4.2,1.7,4.2,4.2c0,1.1-0.4,2.1-1,2.8l0.5,0.7l-1.2,0.9l-0.6-0.7
		c-0.5,0.2-1.2,0.4-1.9,0.4C102.3,51.8,100.6,50.1,100.6,47.7z M105.5,50.2l-0.9-1l1.2-0.9l0.9,1c0.2-0.4,0.4-0.9,0.4-1.5
		c0-1.5-0.9-2.6-2.4-2.6s-2.4,1.1-2.4,2.6s0.9,2.6,2.4,2.6C105.1,50.3,105.3,50.3,105.5,50.2z"/>
	<path class="st2" d="M110.1,48.5v-4.8h1.7v4.7c0,1.1,0.6,1.9,1.9,1.9s1.9-0.8,1.9-1.9v-4.7h1.7v4.8c0,2-1.2,3.4-3.6,3.4
		C111.3,51.8,110.1,50.5,110.1,48.5z"/>
	<path class="st2" d="M124,51.7l-0.5-1.3h-3.5l-0.5,1.3h-2l3.1-8h2.1l3.1,8H124z M121.8,45.4l-1.3,3.5h2.5L121.8,45.4z"/>
	<path class="st2" d="M131.2,51.7l-1.6-2.8h-1.3v2.8h-1.7v-8h3.8c1.6,0,2.7,1.1,2.7,2.6c0,1.4-0.9,2.2-1.7,2.4l1.8,3.1H131.2z
		 M131.4,46.3c0-0.6-0.5-1.1-1.2-1.1h-1.8v2.1h1.8C130.8,47.3,131.4,46.9,131.4,46.3z"/>
	<path class="st2" d="M134.3,51.7v-8h5.7v1.5h-3.9v1.6h3.8v1.5h-3.8v1.9h3.9v1.5H134.3z"/>
	<path class="st2" d="M144.4,51.7v-8h4.2c1.5,0,2.3,0.9,2.3,2c0,1-0.6,1.6-1.4,1.8c0.9,0.2,1.6,0.9,1.6,2c0,1.2-0.8,2.2-2.4,2.2
		H144.4z M149.2,46.1c0-0.5-0.4-0.9-0.9-0.9h-2.1v1.6h2.1C148.8,46.9,149.2,46.5,149.2,46.1z M149.3,49.3c0-0.5-0.4-0.9-1-0.9h-2.2
		v1.9h2.2C148.9,50.2,149.3,49.8,149.3,49.3z"/>
</g>
<g>
	<g id="Layer_1-2_13_">
		<rect x="43.1" y="36.9" class="st3" width="29.4" height="21.6"/>
	</g>
	<g>
		<path class="st4" d="M47.8,47.7c0-3,1.5-6,4.8-6c3.3,0,4.8,3,4.8,6s-1.5,6-4.8,6C49.3,53.7,47.8,50.7,47.8,47.7z M54.8,47.7
			c0-2.1-0.6-3.8-2.3-3.8c-1.6,0-2.3,1.6-2.3,3.8c0,2.1,0.6,3.8,2.3,3.8S54.8,49.8,54.8,47.7z"/>
		<path class="st4" d="M63.9,53.5v-2.4h-5.5v-2l4.6-7.2h3.4v7h1.5v2.2h-1.5v2.4H63.9z M63.9,44.1l-3.1,4.8h3.1V44.1z"/>
	</g>
</g>
<g>
	<g>
		<rect x="117.7" class="st3" width="43" height="14.6"/>
	</g>
	<g>
		<path class="st4" d="M127.9,9.3c0-1,0.8-1.8,1.8-2.1c-0.9-0.3-1.6-0.9-1.6-2c0-1.6,1.6-2.2,3.2-2.2s3.2,0.6,3.2,2.2
			c0,1-0.7,1.6-1.6,2c1,0.3,1.8,1.1,1.8,2.1c0,1.6-1.6,2.4-3.4,2.4C129.6,11.6,127.9,10.8,127.9,9.3z M132.9,9c0-0.7-1-1-1.6-1.1
			c-0.5,0.1-1.6,0.4-1.6,1.1c0,0.6,0.7,1,1.6,1S132.9,9.7,132.9,9z M132.7,5.5c0-0.6-0.6-0.9-1.4-0.9c-0.9,0-1.4,0.3-1.4,0.9
			c0,0.6,0.9,0.9,1.4,0.9C131.8,6.4,132.7,6.1,132.7,5.5z"/>
		<path class="st4" d="M141.4,11.5l-2.1-3.1l-2.1,3.1h-2.1l3.1-4.3l-2.8-4.1h2.1l1.9,2.9l1.9-2.9h2.1l-2.8,4.1l3.1,4.3H141.4z"/>
		<path class="st4" d="M147.9,11.5V9.7h-4V8.3l3.3-5.3h2.4v5.1h1.1v1.6h-1.1v1.7H147.9z M147.9,4.7l-2.3,3.5h2.3V4.7z"/>
	</g>
</g>
<polygon class="st3" points="43.1,58.5 66.3,65.1 52.7,56.8 "/>
</svg>
