<?xml version="1.0" encoding="utf-8"?>
<!-- Generator: Adobe Illustrator 25.2.3, SVG Export Plug-In . SVG Version: 6.00 Build 0)  -->
<svg version="1.1" id="Layer_1" xmlns="http://www.w3.org/2000/svg" width="243.725" height="95.826" xmlns:xlink="http://www.w3.org/1999/xlink" x="0px" y="0px"
	 viewBox="0 0 243.7 95.8" style="enable-background:new 0 0 243.7 95.8;" xml:space="preserve">
<style type="text/css">
	.st0{opacity:0.92;fill:#2D314E;enable-background:new    ;}
	.st1{fill:none;}
	.st2{fill:#E84D46;}
	.st3{fill:#292333;}
	.st4{fill:#FFFFFF;}
	.st5{fill:#676D81;}
</style>
<g id="xenon_1" transform="translate(-200.275 -451.873)">
	<g id="_24_julho_novo" transform="translate(200.275 451.873)">
		<path id="Path_11" class="st0" d="M126.2,92.6c-0.1,1.9-1.7,3.3-3.6,3.2c-1.9-0.1-3.3-1.7-3.2-3.6c0.1-1.8,1.6-3.2,3.4-3.2
			C124.8,89.1,126.3,90.7,126.2,92.6z"/>
	</g>
	<rect id="Rectangle_43" x="348" y="487" class="st1" width="96" height="26"/>
</g>
<rect x="94.2" y="21.4" class="st2" width="37.5" height="27.5"/>
<g>
	<rect x="1.9" y="2.8" class="st2" width="54.8" height="18.6"/>
</g>
<rect x="1.9" y="21.4" class="st3" width="92.3" height="27.5"/>
<g>
	<path class="st4" d="M22.8,40.2l-2.5-3.7l-2.6,3.7h-2.6l3.7-5.2l-3.5-5h2.6l2.3,3.5l2.3-3.5h2.6l-3.4,5l3.7,5.2H22.8z"/>
	<path class="st4" d="M26.3,40.2V30.1h7.2V32h-5v2.1h4.9V36h-4.9v2.3h5v1.9H26.3z"/>
	<path class="st4" d="M42.2,40.2l-4.8-6.6v6.6h-2.2V30.1h2.2l4.7,6.4v-6.4h2.2v10.2h-2.1V40.2z"/>
	<path class="st4" d="M45.8,35.1c0-3.1,2.2-5.3,5.3-5.3c3.1,0,5.3,2.2,5.3,5.3c0,3.1-2.2,5.3-5.3,5.3C48.1,40.4,45.8,38.2,45.8,35.1
		z M54.2,35.1c0-1.9-1.2-3.3-3.1-3.3S48,33.2,48,35.1c0,1.9,1.2,3.3,3.1,3.3C53,38.5,54.2,37,54.2,35.1z"/>
	<path class="st4" d="M65,40.2l-4.8-6.6v6.6H58V30.1h2.2l4.7,6.4v-6.4h2.2v10.2H65V40.2z"/>
	<path class="st4" d="M73,40.2V30.1h5.4c1.9,0,2.9,1.2,2.9,2.6c0,1.3-0.8,2.1-1.8,2.3c1.1,0.2,2,1.2,2,2.5c0,1.5-1,2.8-3,2.8H73
		V40.2z M79.1,33c0-0.6-0.5-1.1-1.2-1.1h-2.7V34h2.7C78.6,34.1,79.1,33.7,79.1,33z M79.3,37.2c0-0.6-0.5-1.2-1.3-1.2h-2.8v2.3H78
		C78.8,38.3,79.3,37.9,79.3,37.2z"/>
</g>
<g>
	<path class="st4" d="M100.9,35.1c0-3.8,1.9-7.6,6.1-7.6c4.2,0,6.1,3.8,6.1,7.6c0,3.8-1.9,7.6-6.1,7.6
		C102.7,42.7,100.9,38.9,100.9,35.1z M109.8,35.1c0-2.7-0.8-4.8-2.9-4.8c-2.1,0-2.9,2.1-2.9,4.8c0,2.7,0.8,4.8,2.9,4.8
		C109,40,109.8,37.9,109.8,35.1z"/>
	<path class="st4" d="M116.4,42.5l5.3-11.9h-7.4v-2.8h11V30l-5.5,12.5H116.4z"/>
</g>
<g id="Layer_1-2_13_">
	<rect x="94.2" y="49.8" class="st2" width="37.5" height="27.5"/>
</g>
<rect x="1.9" y="49.8" class="st5" width="92.3" height="27.5"/>
<g>
	<path class="st4" d="M22.6,68.6l-2.5-3.7l-2.6,3.7h-2.6l3.7-5.2l-3.5-5h2.6l2.4,3.6l2.3-3.5H25l-3.5,4.9l3.7,5.2H22.6z"/>
	<path class="st4" d="M26.2,68.6V58.5h7.2v1.9h-5v2.1h4.9v1.9h-4.9v2.3h5v1.9C33.4,68.6,26.2,68.6,26.2,68.6z"/>
	<path class="st4" d="M42.1,68.6L37.2,62v6.6h-2.1V58.5h2.2l4.7,6.4v-6.4h2.2v10.2h-2.1V68.6z"/>
	<path class="st4" d="M45.7,63.6c0-3.1,2.2-5.3,5.3-5.3c3.1,0,5.3,2.2,5.3,5.3s-2.2,5.3-5.3,5.3C47.9,68.8,45.7,66.6,45.7,63.6z
		 M54.1,63.6c0-1.9-1.2-3.3-3.1-3.3c-1.9,0-3.1,1.4-3.1,3.3c0,1.9,1.2,3.3,3.1,3.3S54.1,65.5,54.1,63.6z"/>
	<path class="st4" d="M64.8,68.6L60,62v6.6h-2.2V58.5h2.3l4.7,6.4v-6.4H67v10.2h-2.2V68.6z"/>
	<path class="st4" d="M79.9,68.6l-0.6-1.7h-4.4l-0.6,1.7h-2.5l3.9-10.2h2.7l3.9,10.2H79.9z M77.1,60.6L75.5,65h3.2L77.1,60.6z"/>
</g>
<g>
	<path class="st4" d="M100.2,63.6c0-3.8,1.9-7.6,6.1-7.6c4.2,0,6.1,3.8,6.1,7.6c0,3.8-1.9,7.6-6.1,7.6
		C102.1,71.2,100.2,67.4,100.2,63.6z M109.1,63.6c0-2.7-0.8-4.8-2.9-4.8s-2.9,2.1-2.9,4.8s0.8,4.8,2.9,4.8
		C108.4,68.4,109.1,66.3,109.1,63.6z"/>
	<path class="st4" d="M113.9,67.1c0-1.8,1.4-3.1,3.1-3.8c-1.6-0.6-2.9-1.6-2.9-3.5c0-2.8,2.9-3.9,5.7-3.9c2.7,0,5.7,1.1,5.7,3.9
		c0,1.8-1.3,2.9-2.9,3.5c1.7,0.6,3.1,2,3.1,3.8c0,2.7-2.8,4.1-5.9,4.1S113.9,69.8,113.9,67.1z M122.5,66.7c0-1.2-1.8-1.8-2.7-1.9
		c-0.9,0.1-2.7,0.7-2.7,1.9c0,1.1,1.2,1.7,2.7,1.7C121.2,68.4,122.5,67.7,122.5,66.7z M122.2,60.4c0-1-1-1.6-2.5-1.6
		c-1.5,0-2.5,0.6-2.5,1.6c0,1.1,1.6,1.5,2.5,1.7C120.7,61.9,122.2,61.5,122.2,60.4z"/>
</g>
<g>
	<path class="st4" d="M14.9,12.1c0-3.2,1.8-5.5,5-5.5c1.3,0,2.4,0.4,3.2,1.1l-1,1.7c-0.6-0.5-1.2-0.8-2.1-0.8c-1.6,0-2.7,1.3-2.7,3
		c0,0.1,0,0.1,0,0.2c0.5-0.7,1.6-1.4,2.7-1.4c1.9,0,3.6,1.2,3.6,3.5c0,2.1-1.7,3.7-4.1,3.7C16.3,17.6,14.9,15.1,14.9,12.1z M21.3,14
		c0-1.1-1-1.6-2-1.6c-0.8,0-1.6,0.4-2.1,1c0.1,1,0.7,2.2,2.2,2.2C20.7,15.6,21.3,14.8,21.3,14z"/>
	<path class="st4" d="M32.1,17.4l-2.7-3.9l-2.7,3.9H24l3.9-5.5l-3.6-5.2H27l2.4,3.7l2.4-3.7h2.7L31,11.9l3.9,5.5H32.1z"/>
	<path class="st4" d="M35.1,15.9l1.2-1.5c0.7,0.8,1.9,1.2,2.9,1.2c1.3,0,2-0.6,2-1.4c0-0.8-0.7-1.2-2.1-1.2c-0.4,0-1.2,0-1.3,0v-2
		c0.2,0,0.9,0,1.3,0c1.2,0,2-0.4,2-1.1c0-0.8-0.9-1.3-2-1.3c-1,0-2,0.4-2.7,1.1l-1.1-1.4c0.9-1,2.2-1.7,4.1-1.7c2.5,0,4,1.1,4,2.9
		c0,1.3-1.2,2.2-2.3,2.4c1.1,0.1,2.5,1,2.5,2.6c0,1.8-1.6,3.1-4.2,3.1C37.4,17.6,35.9,16.9,35.1,15.9z"/>
</g>
<polygon class="st2" points="131.7,77.3 124.6,86.6 123.3,75.9 "/>
</svg>
