<?xml version="1.0" encoding="utf-8"?>
<!-- Generator: Adobe Illustrator 25.2.3, SVG Export Plug-In . SVG Version: 6.00 Build 0)  -->
<svg version="1.1" id="Layer_1" xmlns="http://www.w3.org/2000/svg" width="243.725" height="95.826" xmlns:xlink="http://www.w3.org/1999/xlink" x="0px" y="0px"
	 viewBox="0 0 243.7 95.8" style="enable-background:new 0 0 243.7 95.8;" xml:space="preserve">
<style type="text/css">
	.st0{opacity:0.92;fill:#2D314E;enable-background:new    ;}
	.st1{fill:none;}
	.st2{fill:#E84D46;}
	.st3{fill:#292333;}
	.st4{fill:#676D81;}
	.st5{fill:#FFFFFF;stroke:#FFFFFF;stroke-width:0.7;stroke-miterlimit:10;}
	.st6{fill:#FFFFFF;}
	.st7{fill:#FFFFFF;stroke:#FFFFFF;stroke-width:0.5;stroke-miterlimit:10;}
</style>
<g id="xenon_1" transform="translate(-200.275 -451.873)">
	<g id="_24_julho_novo" transform="translate(200.275 451.873)">
		<path id="Path_11" class="st0" d="M126.2,92.6c-0.1,1.9-1.7,3.3-3.6,3.2c-1.9-0.1-3.3-1.7-3.2-3.6c0.1-1.8,1.6-3.2,3.4-3.2
			C124.8,89.1,126.3,90.7,126.2,92.6z"/>
	</g>
	<rect id="Rectangle_43" x="348" y="487" class="st1" width="96" height="26"/>
</g>
<rect x="92.4" y="29.3" class="st2" width="30.4" height="22.3"/>
<g>
	<rect x="17.5" y="14.2" class="st2" width="44.5" height="15.1"/>
</g>
<rect x="17.5" y="29.3" class="st3" width="74.9" height="22.3"/>
<g id="Layer_1-2_13_">
	<rect x="92.4" y="52.3" class="st2" width="30.4" height="22.3"/>
</g>
<rect x="17.5" y="52.3" class="st4" width="74.9" height="22.3"/>
<polygon class="st2" points="122.8,74.6 122.8,83.2 116.7,73.6 "/>
<g>
	<path class="st5" d="M104.4,44.8c-0.6,0-1-0.1-1.5-0.4c-0.4-0.2-0.7-0.6-1-1c-0.3-0.5-0.5-0.9-0.6-1.4c-0.1-0.5-0.2-1-0.2-1.6
		s0.1-1,0.2-1.6c0.1-0.5,0.3-1,0.6-1.4c0.3-0.4,0.6-0.7,1-1c0.4-0.2,0.9-0.4,1.5-0.4c0.6,0,1,0.1,1.5,0.4c0.4,0.2,0.7,0.6,1,1
		s0.5,0.9,0.6,1.4c0.1,0.5,0.2,1,0.2,1.6s-0.1,1-0.2,1.6c-0.1,0.5-0.3,1-0.6,1.4c-0.3,0.4-0.6,0.7-1,1
		C105.4,44.7,104.9,44.8,104.4,44.8z M103.1,43.3c0.3,0.3,0.7,0.5,1.3,0.5s0.9-0.2,1.3-0.5c0.3-0.3,0.6-0.7,0.7-1.3
		c0.1-0.5,0.2-1,0.2-1.7c0-0.6-0.1-1.2-0.2-1.7c-0.1-0.5-0.3-0.9-0.7-1.3c-0.3-0.3-0.7-0.5-1.3-0.5s-0.9,0.2-1.3,0.5
		c-0.3,0.3-0.6,0.7-0.7,1.3s-0.2,1-0.2,1.7c0,0.6,0.1,1.2,0.2,1.7C102.6,42.6,102.8,43,103.1,43.3z"/>
	<path class="st5" d="M111,44.7h-1.2l3.4-7.5h-4.6v-0.9h5.8V37L111,44.7z"/>
</g>
<g>
	<path class="st6" d="M32.2,26.1c-0.6,0-1.1-0.1-1.5-0.3s-0.7-0.6-1-1c-0.2-0.4-0.4-0.9-0.6-1.4c-0.2-0.5-0.2-1.1-0.2-1.6
		c0-1.2,0.3-2.3,0.9-3.1c0.6-0.8,1.5-1.2,2.5-1.2c1,0,1.7,0.3,2.4,1l-0.6,0.8c-0.5-0.6-1.1-0.9-1.8-0.9s-1.4,0.3-1.8,1
		c-0.4,0.6-0.6,1.5-0.6,2.4V22c0.2-0.3,0.6-0.6,1-0.9c0.4-0.2,0.9-0.4,1.4-0.4c0.8,0,1.5,0.2,1.9,0.7c0.5,0.5,0.8,1.1,0.8,1.9
		c0,0.7-0.2,1.4-0.8,1.9C33.9,25.8,33.1,26.1,32.2,26.1z M32.2,25.1c0.6,0,1.1-0.2,1.4-0.6c0.3-0.4,0.5-0.8,0.5-1.2
		c0-0.6-0.2-1.1-0.6-1.4c-0.3-0.3-0.8-0.5-1.4-0.5c-0.4,0-0.8,0.1-1.2,0.3s-0.6,0.6-0.9,0.9c0.1,0.6,0.2,1.1,0.6,1.6
		C31,24.9,31.6,25.1,32.2,25.1z"/>
	<path class="st6" d="M43.9,25.9h-1.3l-2.7-3.6l-2.7,3.6h-1.3l3.2-4.3l-3.1-4.1h1.3l2.5,3.3l2.5-3.3h1.3l-3.1,4.1L43.9,25.9z"/>
	<path class="st6" d="M47.3,26.1c-0.6,0-1.3-0.2-1.8-0.4c-0.5-0.2-0.9-0.6-1.2-1l0.6-0.6c0.2,0.3,0.6,0.6,1,0.8
		c0.4,0.2,0.9,0.3,1.4,0.3c0.6,0,1.1-0.2,1.5-0.4c0.3-0.3,0.6-0.6,0.6-1.1s-0.2-0.9-0.6-1.1c-0.4-0.2-0.9-0.3-1.5-0.3
		c-0.5,0-0.8,0-0.9,0v-1c0.1,0,0.4,0,0.9,0c0.6,0,1.1-0.1,1.4-0.3c0.4-0.2,0.6-0.6,0.6-1.1c0-0.4-0.2-0.8-0.6-1.1
		c-0.3-0.2-0.8-0.4-1.4-0.4c-0.8,0-1.6,0.3-2.2,1.1l-0.6-0.6c0.7-0.9,1.7-1.3,2.8-1.3c0.8,0,1.5,0.2,2,0.6c0.6,0.4,0.8,1,0.8,1.6
		c0,0.6-0.2,1-0.6,1.3c-0.4,0.3-0.8,0.6-1.2,0.6c0.5,0.1,0.9,0.2,1.3,0.6c0.4,0.4,0.6,0.8,0.6,1.5c0,0.7-0.2,1.3-0.8,1.7
		C49,25.9,48.3,26.1,47.3,26.1z"/>
</g>
<g>
	<path class="st7" d="M36,44.6h-1.3L32,41l-2.7,3.6h-1.2l3.2-4.3l-3.1-4.1h1.3l2.5,3.3l2.5-3.3h1.3l-3.1,4.1L36,44.6z"/>
	<path class="st7" d="M42.6,44.6h-5.5v-8.4h5.5v0.9h-4.5v2.7h4.4v0.9h-4.4v2.9h4.5V44.6z"/>
	<path class="st7" d="M51.2,44.6h-1L45.4,38v6.7h-1.1v-8.4h1.1l4.9,6.6v-6.6h1.1L51.2,44.6L51.2,44.6z"/>
	<path class="st7" d="M60,43.6c-0.8,0.8-1.8,1.2-3,1.2c-1.2,0-2.2-0.4-3-1.2c-0.8-0.8-1.1-1.9-1.1-3.1c0-1.2,0.4-2.3,1.1-3.1
		c0.8-0.8,1.8-1.2,3-1.2s2.2,0.4,3,1.2s1.1,1.9,1.1,3.1C61.1,41.7,60.8,42.7,60,43.6z M57,43.9c0.9,0,1.7-0.3,2.3-1
		c0.6-0.6,0.9-1.5,0.9-2.4s-0.3-1.8-0.9-2.4s-1.3-1-2.3-1c-0.9,0-1.7,0.3-2.3,1c-0.6,0.6-0.8,1.5-0.8,2.4s0.2,1.8,0.8,2.4
		C55.4,43.6,56.1,43.9,57,43.9z"/>
	<path class="st7" d="M69.7,44.6h-1L63.9,38v6.7h-1.1v-8.4h1.1l4.9,6.6v-6.6h1.1L69.7,44.6L69.7,44.6z"/>
	<path class="st7" d="M78.8,44.6H75v-8.4h3.7c0.7,0,1.3,0.2,1.7,0.6c0.4,0.4,0.6,0.9,0.6,1.5c0,0.5-0.2,0.9-0.4,1.3
		c-0.3,0.3-0.6,0.6-1.1,0.6c0.4,0.1,0.8,0.3,1.1,0.7c0.3,0.4,0.5,0.9,0.5,1.4c0,0.6-0.2,1.2-0.6,1.6C80.1,44.5,79.6,44.6,78.8,44.6z
		 M78.5,39.9c0.5,0,0.8-0.2,1.1-0.4c0.2-0.2,0.4-0.6,0.4-1c0-0.4-0.2-0.7-0.4-1c-0.2-0.2-0.6-0.4-1.1-0.4H76v2.7L78.5,39.9
		L78.5,39.9z M78.6,43.7c0.5,0,0.9-0.2,1.1-0.4c0.2-0.2,0.4-0.6,0.4-1.1c0-0.4-0.2-0.7-0.4-1.1c-0.2-0.2-0.6-0.4-1.1-0.4H76v2.9
		H78.6z"/>
</g>
<g>
	<path class="st5" d="M104.3,67.5c-0.5,0-0.9-0.1-1.3-0.4c-0.4-0.2-0.7-0.5-0.9-0.9s-0.4-0.8-0.5-1.2c-0.1-0.5-0.2-0.9-0.2-1.4
		s0.1-0.9,0.2-1.4c0.1-0.5,0.3-0.9,0.5-1.2c0.2-0.4,0.5-0.7,0.9-0.9c0.4-0.2,0.8-0.4,1.3-0.4c0.5,0,0.9,0.1,1.3,0.4
		c0.4,0.3,0.7,0.5,0.9,0.9c0.2,0.4,0.4,0.8,0.5,1.2c0.1,0.5,0.2,0.9,0.2,1.4s-0.1,0.9-0.2,1.4c-0.1,0.5-0.3,0.9-0.5,1.2
		c-0.3,0.4-0.5,0.7-0.9,0.9C105.2,67.4,104.8,67.5,104.3,67.5z M103.2,66.1c0.3,0.3,0.7,0.5,1.1,0.5c0.5,0,0.8-0.2,1.1-0.5
		c0.3-0.3,0.5-0.7,0.6-1.1c0.1-0.5,0.2-0.9,0.2-1.5s-0.1-1-0.2-1.5s-0.3-0.8-0.6-1.1c-0.3-0.3-0.7-0.5-1.1-0.5
		c-0.5,0-0.8,0.2-1.1,0.5c-0.3,0.3-0.5,0.7-0.6,1.1c-0.1,0.5-0.2,0.9-0.2,1.5c0,0.6,0.1,1,0.2,1.5C102.7,65.4,102.9,65.8,103.2,66.1
		z"/>
	<path class="st5" d="M113,66.9c-0.5,0.4-1.2,0.6-2,0.6s-1.4-0.2-2-0.6c-0.5-0.4-0.8-0.9-0.8-1.5c0-0.5,0.2-0.9,0.5-1.2
		c0.4-0.4,0.8-0.6,1.3-0.8c-0.5-0.2-0.9-0.4-1.2-0.7c-0.3-0.3-0.5-0.7-0.5-1.1c0-0.6,0.3-1.1,0.8-1.4c0.5-0.4,1.1-0.5,1.8-0.5
		c0.7,0,1.3,0.2,1.8,0.5c0.5,0.4,0.8,0.8,0.8,1.4c0,0.5-0.2,0.8-0.5,1.1c-0.3,0.3-0.7,0.5-1.2,0.7c0.5,0.2,0.9,0.4,1.3,0.8
		c0.4,0.4,0.5,0.8,0.5,1.2C113.8,66,113.5,66.5,113,66.9z M111.1,66.6c0.5,0,0.9-0.1,1.2-0.4c0.4-0.3,0.5-0.6,0.5-0.9
		c0-0.3-0.1-0.6-0.4-0.8c-0.3-0.3-0.5-0.4-0.7-0.5c-0.3-0.1-0.5-0.2-0.7-0.2s-0.4,0.1-0.7,0.2c-0.3,0.1-0.5,0.3-0.7,0.5
		c-0.3,0.2-0.4,0.5-0.4,0.8c0,0.4,0.2,0.7,0.5,0.9C110.2,66.5,110.6,66.6,111.1,66.6z M111.1,63c0.2,0,0.3-0.1,0.5-0.1
		c0.2-0.1,0.3-0.1,0.5-0.2c0.2-0.1,0.4-0.2,0.5-0.4c0.1-0.2,0.2-0.4,0.2-0.6c0-0.4-0.2-0.7-0.5-0.9c-0.3-0.2-0.7-0.4-1.2-0.4
		c-0.5,0-0.9,0.1-1.2,0.3c-0.3,0.2-0.5,0.5-0.5,0.9c0,0.2,0.1,0.4,0.2,0.6s0.3,0.3,0.5,0.4c0.2,0.1,0.4,0.2,0.5,0.2
		C110.8,63,110.9,63,111.1,63z"/>
</g>
<g>
	<path class="st7" d="M35.8,67.7h-1.3l-2.7-3.6l-2.7,3.6h-1.3l3.2-4.3L28,59.3h1.3l2.5,3.3l2.5-3.3h1.3l-3.1,4.1L35.8,67.7z"/>
	<path class="st7" d="M42.5,67.7H37v-8.4h5.5v0.9H38v2.7h4.4v1H38v2.9h4.5C42.5,66.8,42.5,67.7,42.5,67.7z"/>
	<path class="st7" d="M51.1,67.7H50L45.2,61v6.7h-1.1v-8.4h1.1l4.9,6.6v-6.6h1.1V67.7z"/>
	<path class="st7" d="M59.8,66.6c-0.8,0.8-1.8,1.2-3,1.2c-1.2,0-2.2-0.4-3-1.2c-0.8-0.8-1.1-1.9-1.1-3.1c0-1.2,0.4-2.3,1.1-3.1
		c0.8-0.8,1.8-1.2,3-1.2c1.2,0,2.2,0.4,3,1.2c0.8,0.8,1.1,1.9,1.1,3.1C61,64.7,60.7,65.8,59.8,66.6z M56.8,66.9c0.9,0,1.7-0.3,2.3-1
		c0.6-0.6,0.9-1.5,0.9-2.4c0-1-0.3-1.8-0.9-2.4s-1.3-1-2.3-1c-0.9,0-1.7,0.3-2.3,1s-0.8,1.5-0.8,2.4c0,1,0.2,1.8,0.8,2.4
		C55.1,66.6,55.9,66.9,56.8,66.9z"/>
	<path class="st7" d="M69.6,67.7h-1L63.7,61v6.7h-1.1v-8.4h1.1l4.9,6.6v-6.6h1.1L69.6,67.7L69.6,67.7z"/>
	<path class="st7" d="M82,67.7h-1.2l-0.7-1.9h-4.1l-0.7,1.9H74l3.4-8.4h1.3L82,67.7z M79.7,64.9l-1.8-4.5l-1.8,4.5H79.7z"/>
</g>
</svg>
