<?xml version="1.0" encoding="utf-8"?>
<!-- Generator: Adobe Illustrator 25.2.3, SVG Export Plug-In . SVG Version: 6.00 Build 0)  -->
<svg version="1.1" id="Layer_1" xmlns="http://www.w3.org/2000/svg" width="243.725" height="95.826" xmlns:xlink="http://www.w3.org/1999/xlink" x="0px" y="0px"
	 viewBox="0 0 243.7 95.8" style="enable-background:new 0 0 243.7 95.8;" xml:space="preserve">
<style type="text/css">
	.st0{opacity:0.92;fill:#2D314E;enable-background:new    ;}
	.st1{fill:none;}
	.st2{fill:#E84D46;}
	.st3{fill:#292333;}
	.st4{fill:#676D81;}
	.st5{fill:#FFFFFF;}
</style>
<g id="xenon_1" transform="translate(-200.275 -451.873)">
	<g id="_24_julho_novo" transform="translate(200.275 451.873)">
		<path id="Path_11" class="st0" d="M126.2,92.6c-0.1,1.9-1.7,3.3-3.6,3.2c-1.9-0.1-3.3-1.7-3.2-3.6c0.1-1.8,1.6-3.2,3.4-3.2
			C124.8,89.1,126.3,90.7,126.2,92.6z"/>
	</g>
	<rect id="Rectangle_43" x="348" y="487" class="st1" width="96" height="26"/>
</g>
<rect x="94.2" y="21.4" class="st2" width="37.5" height="27.5"/>
<g>
	<rect x="1.9" y="2.8" class="st2" width="54.8" height="18.6"/>
</g>
<rect x="1.9" y="21.4" class="st3" width="92.3" height="27.5"/>
<g id="Layer_1-2_13_">
	<rect x="94.2" y="49.8" class="st2" width="37.5" height="27.5"/>
</g>
<rect x="1.9" y="49.8" class="st4" width="92.3" height="27.5"/>
<polygon class="st2" points="131.7,77.3 124.6,86.6 123.3,75.9 "/>
<g>
	<path class="st5" d="M107.3,42.7c-1,0-1.8-0.2-2.6-0.7c-0.7-0.4-1.3-1-1.8-1.8s-0.8-1.6-1-2.4c-0.2-0.9-0.3-1.8-0.3-2.7
		c0-0.9,0.1-1.8,0.3-2.7c0.2-0.9,0.5-1.7,1-2.4s1-1.3,1.8-1.8c0.7-0.4,1.6-0.7,2.6-0.7c1,0,1.8,0.2,2.6,0.7c0.7,0.4,1.3,1,1.8,1.8
		s0.8,1.5,1,2.4c0.2,0.9,0.3,1.8,0.3,2.7c0,0.9-0.1,1.8-0.3,2.7c-0.2,0.9-0.5,1.7-1,2.4s-1,1.3-1.8,1.8S108.2,42.7,107.3,42.7z
		 M105.1,40.2c0.6,0.6,1.3,0.9,2.2,0.9c0.9,0,1.6-0.3,2.2-0.9c0.6-0.6,1-1.3,1.2-2.2c0.2-0.9,0.3-1.8,0.3-2.9c0-1.1-0.1-2-0.3-2.9
		c-0.2-0.9-0.6-1.6-1.2-2.2c-0.6-0.6-1.3-0.9-2.2-0.9c-0.9,0-1.6,0.3-2.2,0.9c-0.6,0.6-1,1.3-1.2,2.2c-0.2,0.9-0.3,1.8-0.3,2.9
		c0,1.1,0.1,2,0.3,2.9C104.1,38.9,104.5,39.6,105.1,40.2z"/>
	<path class="st5" d="M118.7,42.5h-2l5.9-13h-7.9v-1.6h10v1.3L118.7,42.5z"/>
</g>
<g>
	<path class="st5" d="M20.1,17.5c-0.7,0-1.3-0.1-1.8-0.4c-0.5-0.3-0.9-0.7-1.2-1.2s-0.5-1.1-0.7-1.7c-0.2-0.6-0.2-1.3-0.2-2
		c0-1.5,0.4-2.8,1.1-3.8s1.8-1.5,3.1-1.5c1.2,0,2.1,0.4,2.9,1.2l-0.7,1c-0.6-0.7-1.3-1.1-2.2-1.1c-0.9,0-1.7,0.4-2.2,1.2
		s-0.8,1.8-0.8,2.9v0.4c0.3-0.4,0.7-0.8,1.2-1.1c0.5-0.3,1.1-0.5,1.7-0.5c1,0,1.8,0.3,2.4,0.9c0.6,0.6,1,1.4,1,2.4
		c0,0.9-0.3,1.7-1,2.4C22.1,17.1,21.2,17.5,20.1,17.5z M20.1,16.3c0.7,0,1.3-0.2,1.7-0.7c0.4-0.5,0.6-1,0.6-1.5
		c0-0.7-0.2-1.3-0.7-1.7c-0.4-0.4-1-0.6-1.7-0.6c-0.5,0-1,0.1-1.5,0.4s-0.8,0.7-1.1,1.1c0.1,0.8,0.3,1.4,0.7,2
		C18.6,16,19.3,16.3,20.1,16.3z"/>
	<path class="st5" d="M34.4,17.3h-1.6l-3.3-4.4l-3.3,4.4h-1.6l4-5.3l-3.8-5h1.6l3.1,4.1l3.1-4.1h1.6l-3.8,5L34.4,17.3z"/>
	<path class="st5" d="M38.7,17.5c-0.8,0-1.6-0.2-2.2-0.5c-0.6-0.3-1.1-0.7-1.5-1.2l0.8-0.8c0.3,0.4,0.7,0.7,1.2,1
		c0.5,0.2,1.1,0.4,1.7,0.4c0.7,0,1.3-0.2,1.8-0.5c0.4-0.4,0.7-0.8,0.7-1.4c0-0.6-0.2-1.1-0.7-1.4c-0.5-0.3-1.1-0.4-1.9-0.4
		c-0.6,0-1,0-1.1,0v-1.2c0.1,0,0.5,0,1.1,0c0.7,0,1.3-0.1,1.7-0.4c0.5-0.3,0.7-0.7,0.7-1.3c0-0.5-0.2-1-0.7-1.3
		c-0.4-0.3-1-0.5-1.7-0.5c-1,0-2,0.4-2.7,1.3l-0.7-0.8c0.9-1.1,2.1-1.6,3.5-1.6c1,0,1.9,0.2,2.5,0.7c0.7,0.5,1,1.2,1,2
		c0,0.7-0.2,1.2-0.7,1.6c-0.5,0.4-1,0.7-1.5,0.8c0.6,0.1,1.1,0.3,1.6,0.8s0.8,1,0.8,1.8c0,0.9-0.3,1.6-1,2.1
		C40.7,17.2,39.9,17.5,38.7,17.5z"/>
</g>
<g>
	<path class="st5" d="M24.7,40.3h-1.6l-3.3-4.4l-3.3,4.4H15l4-5.3l-3.8-5h1.6l3.1,4.1l3.1-4.1h1.6l-3.8,5L24.7,40.3z"/>
	<path class="st5" d="M32.9,40.3h-6.8V30h6.8v1.1h-5.5v3.3h5.4v1.1h-5.4v3.6h5.5V40.3z"/>
	<path class="st5" d="M43.5,40.3h-1.2l-6-8.2v8.2h-1.3V30h1.3l6,8.1V30h1.3V40.3z"/>
	<path class="st5" d="M54.3,39c-1,1-2.2,1.5-3.7,1.5S47.9,40,46.9,39c-1-1-1.4-2.3-1.4-3.8s0.5-2.8,1.4-3.8c1-1,2.2-1.5,3.7-1.5
		s2.7,0.5,3.7,1.5c1,1,1.4,2.3,1.4,3.8S55.3,38,54.3,39z M50.6,39.4c1.1,0,2.1-0.4,2.8-1.2c0.7-0.8,1.1-1.8,1.1-3s-0.4-2.2-1.1-3
		c-0.7-0.8-1.6-1.2-2.8-1.2c-1.1,0-2.1,0.4-2.8,1.2c-0.7,0.8-1,1.8-1,3c0,1.2,0.3,2.2,1,3C48.6,39,49.5,39.4,50.6,39.4z"/>
	<path class="st5" d="M66.3,40.3h-1.2l-6-8.2v8.2h-1.3V30h1.3l6,8.1V30h1.3V40.3z"/>
	<path class="st5" d="M77.5,40.3h-4.7V30h4.6c0.9,0,1.6,0.2,2.1,0.7c0.5,0.5,0.8,1.1,0.8,1.9c0,0.6-0.2,1.1-0.5,1.6
		c-0.4,0.4-0.8,0.7-1.3,0.8c0.5,0.1,1,0.4,1.4,0.9c0.4,0.5,0.6,1.1,0.6,1.7c0,0.8-0.3,1.5-0.8,2C79.1,40.1,78.4,40.3,77.5,40.3z
		 M77.1,34.5c0.6,0,1-0.2,1.3-0.5c0.3-0.3,0.5-0.7,0.5-1.2c0-0.5-0.2-0.9-0.5-1.2c-0.3-0.3-0.8-0.5-1.3-0.5H74v3.3H77.1z M77.2,39.2
		c0.6,0,1.1-0.2,1.4-0.5c0.3-0.3,0.5-0.8,0.5-1.3c0-0.5-0.2-0.9-0.5-1.3c-0.3-0.3-0.8-0.5-1.4-0.5H74v3.6H77.2z"/>
</g>
<g>
	<path class="st5" d="M106.6,71.2c-1,0-1.8-0.2-2.6-0.7c-0.7-0.4-1.3-1-1.8-1.8s-0.8-1.6-1-2.4c-0.2-0.9-0.3-1.8-0.3-2.7
		c0-0.9,0.1-1.8,0.3-2.7c0.2-0.9,0.5-1.7,1-2.4c0.4-0.7,1-1.3,1.8-1.8c0.7-0.4,1.6-0.7,2.6-0.7c1,0,1.8,0.2,2.6,0.7s1.3,1,1.8,1.8
		c0.4,0.7,0.8,1.5,1,2.4c0.2,0.9,0.3,1.8,0.3,2.7c0,0.9-0.1,1.8-0.3,2.7c-0.2,0.9-0.5,1.7-1,2.4s-1,1.3-1.8,1.8
		S107.5,71.2,106.6,71.2z M104.4,68.6c0.6,0.6,1.3,0.9,2.2,0.9c0.9,0,1.6-0.3,2.2-0.9c0.6-0.6,1-1.3,1.2-2.2
		c0.2-0.9,0.3-1.8,0.3-2.9c0-1.1-0.1-2-0.3-2.9c-0.2-0.9-0.6-1.6-1.2-2.2c-0.6-0.6-1.3-0.9-2.2-0.9c-0.9,0-1.6,0.3-2.2,0.9
		c-0.6,0.6-1,1.3-1.2,2.2c-0.2,0.9-0.3,1.8-0.3,2.9c0,1.1,0.1,2,0.3,2.9C103.4,67.3,103.8,68,104.4,68.6z"/>
	<path class="st5" d="M123.4,70.1c-1,0.7-2.3,1.1-3.8,1.1s-2.7-0.4-3.8-1.1c-1-0.7-1.5-1.7-1.5-2.9c0-0.9,0.3-1.7,1-2.4
		c0.7-0.7,1.5-1.2,2.5-1.5c-0.9-0.3-1.7-0.7-2.3-1.3c-0.6-0.6-0.9-1.3-0.9-2.2c0-1.2,0.5-2.2,1.5-2.8c1-0.7,2.2-1,3.5-1
		c1.3,0,2.5,0.3,3.5,1c1,0.7,1.5,1.6,1.5,2.8c0,0.9-0.3,1.6-0.9,2.2c-0.6,0.6-1.4,1-2.3,1.3c1,0.3,1.8,0.8,2.5,1.5
		c0.7,0.7,1,1.5,1,2.4C125,68.4,124.4,69.4,123.4,70.1z M119.7,69.5c0.9,0,1.7-0.2,2.4-0.7c0.7-0.5,1-1.1,1-1.8
		c0-0.6-0.2-1.1-0.7-1.6s-0.9-0.8-1.4-0.9c-0.5-0.2-0.9-0.3-1.3-0.3c-0.4,0-0.8,0.2-1.3,0.3c-0.5,0.2-0.9,0.5-1.4,0.9
		c-0.5,0.4-0.7,1-0.7,1.6c0,0.8,0.3,1.4,1,1.8C117.9,69.3,118.7,69.5,119.7,69.5z M119.7,62.6c0.3,0,0.6-0.1,0.9-0.2
		c0.3-0.1,0.6-0.2,1-0.4c0.4-0.2,0.7-0.4,0.9-0.8c0.2-0.3,0.4-0.7,0.4-1.1c0-0.7-0.3-1.3-0.9-1.8c-0.6-0.4-1.4-0.7-2.3-0.7
		c-0.9,0-1.7,0.2-2.3,0.6c-0.6,0.4-0.9,1-0.9,1.8c0,0.4,0.1,0.8,0.4,1.1s0.5,0.6,0.9,0.8c0.4,0.2,0.7,0.3,1,0.4
		C119.1,62.5,119.4,62.5,119.7,62.6z"/>
</g>
<g>
	<path class="st5" d="M24.5,68.7h-1.6l-3.3-4.4l-3.3,4.4h-1.6l4-5.3l-3.8-5h1.6l3.1,4.1l3.1-4.1h1.6l-3.8,5L24.5,68.7z"/>
	<path class="st5" d="M32.7,68.7h-6.8V58.4h6.8v1.1h-5.5v3.3h5.4V64h-5.4v3.6h5.5V68.7z"/>
	<path class="st5" d="M43.3,68.7H42l-6-8.2v8.2h-1.3V58.4H36l6,8.1v-8.1h1.3V68.7z"/>
	<path class="st5" d="M54.1,67.4c-1,1-2.2,1.5-3.7,1.5s-2.7-0.5-3.7-1.5c-1-1-1.4-2.3-1.4-3.8c0-1.5,0.5-2.8,1.4-3.8
		c1-1,2.2-1.5,3.7-1.5s2.7,0.5,3.7,1.5c1,1,1.4,2.3,1.4,3.8C55.5,65.1,55.1,66.4,54.1,67.4z M50.4,67.8c1.1,0,2.1-0.4,2.8-1.2
		c0.7-0.8,1.1-1.8,1.1-3c0-1.2-0.4-2.2-1.1-3c-0.7-0.8-1.6-1.2-2.8-1.2c-1.1,0-2.1,0.4-2.8,1.2c-0.7,0.8-1,1.8-1,3
		c0,1.2,0.3,2.2,1,3C48.3,67.4,49.3,67.8,50.4,67.8z"/>
	<path class="st5" d="M66.1,68.7h-1.2l-6-8.2v8.2h-1.3V58.4h1.3l6,8.1v-8.1h1.3V68.7z"/>
	<path class="st5" d="M81.4,68.7h-1.5L79,66.4h-5.1l-0.9,2.3h-1.5l4.2-10.3h1.6L81.4,68.7z M78.6,65.3l-2.2-5.6l-2.2,5.6H78.6z"/>
</g>
</svg>
