<svg xmlns="http://www.w3.org/2000/svg" xmlns:xlink="http://www.w3.org/1999/xlink" width="100" height="95.826" viewBox="0 0 49.57 40.37"><defs><style>.cls-1{fill:none;}.cls-2{fill:#676d81;}.cls-3{fill:#fff;}.cls-4{fill:#e84d46;}.cls-5{fill:#292333;}.cls-6{fill:#2d314e;}.cls-7{clip-path:url(#clip-path);}</style><clipPath id="clip-path"><rect class="cls-1" x="4.05" y="1.64" width="13" height="5"/></clipPath></defs><g id="Layer_2" data-name="Layer 2"><g id="Layer_1-2" data-name="Layer 1"><rect class="cls-2" y="19.18" width="39.23" height="8.97" rx="1.97"/><path class="cls-3" d="M5.18,25.8l-.94-1.29L3.3,25.8H2.35L3.71,24,2.44,22.29h1l.85,1.2.85-1.2h1L4.78,24,6.14,25.8Z"/><path class="cls-3" d="M6.54,25.8V22.29H9.19V23H7.33v.74H9.15v.65H7.33v.8H9.19v.66Z"/><path class="cls-3" d="M12.44,25.8l-1.79-2.29V25.8H9.86V22.29h.82l1.73,2.2v-2.2h.8V25.8Z"/><path class="cls-3" d="M13.82,24.05a1.82,1.82,0,0,1,2-1.81,1.82,1.82,0,1,1,0,3.62A1.82,1.82,0,0,1,13.82,24.05Zm3.09,0a1.14,1.14,0,1,0-1.13,1.15A1.09,1.09,0,0,0,16.91,24.05Z"/><path class="cls-3" d="M20.92,25.8l-1.79-2.29V25.8h-.79V22.29h.82l1.73,2.2v-2.2h.8V25.8Z"/><path class="cls-3" d="M26.55,25.8l-.23-.6H24.71l-.23.6h-.91L25,22.29h1l1.45,3.51Zm-1-2.76-.58,1.51H26.1Z"/><rect class="cls-4" x="31.07" y="16.32" width="16.7" height="16.7" rx="4" transform="translate(-5.9 35.1) rotate(-45)"/><path class="cls-3" d="M33.9,24.41c0-1.64.81-3.28,2.63-3.28s2.63,1.64,2.63,3.28-.81,3.28-2.63,3.28S33.9,26.05,33.9,24.41Zm3.88,0c0-1.17-.34-2.08-1.25-2.08s-1.25.91-1.25,2.08.34,2.08,1.25,2.08S37.78,25.58,37.78,24.41Z"/><path class="cls-3" d="M39.81,25.93a1.81,1.81,0,0,1,1.36-1.62,1.6,1.6,0,0,1-1.25-1.5c0-1.2,1.26-1.68,2.44-1.68s2.45.48,2.45,1.68a1.61,1.61,0,0,1-1.26,1.5,1.82,1.82,0,0,1,1.37,1.62c0,1.18-1.22,1.76-2.56,1.76S39.81,27.11,39.81,25.93Zm3.73-.19c0-.52-.79-.77-1.18-.83s-1.18.31-1.18.83.52.75,1.18.75S43.54,26.2,43.54,25.74ZM43.43,23c0-.45-.45-.71-1.07-.71s-1.07.26-1.07.71.68.67,1.07.73S43.43,23.51,43.43,23Z"/><rect class="cls-5" y="4.55" width="36.23" height="12.24" rx="2.21"/><path class="cls-3" d="M5.18,13.8l-.94-1.29L3.3,13.8H2.35L3.71,12,2.44,10.29h1l.85,1.2.85-1.2h1L4.78,12,6.14,13.8Z"/><path class="cls-3" d="M6.54,13.8V10.29H9.19V11H7.33v.74H9.15v.65H7.33v.8H9.19v.66Z"/><path class="cls-3" d="M12.44,13.8l-1.79-2.29V13.8H9.86V10.29h.82l1.73,2.2v-2.2h.8V13.8Z"/><path class="cls-3" d="M13.82,12.05a1.82,1.82,0,0,1,2-1.81,1.82,1.82,0,1,1,0,3.62A1.82,1.82,0,0,1,13.82,12.05Zm3.09,0a1.14,1.14,0,1,0-2.27,0,1.14,1.14,0,1,0,2.27,0Z"/><path class="cls-3" d="M20.92,13.8l-1.79-2.29V13.8h-.79V10.29h.82l1.73,2.2v-2.2h.8V13.8Z"/><path class="cls-3" d="M24,13.8V10.29h2a.94.94,0,0,1,1.07.9.79.79,0,0,1-.64.8.86.86,0,0,1,.72.86,1,1,0,0,1-1.09,1Zm2.24-2.48c0-.22-.17-.37-.44-.37h-1v.74h1C26,11.69,26.2,11.54,26.2,11.32Zm.07,1.42c0-.22-.17-.4-.48-.4h-1v.8h1C26.09,13.14,26.27,13,26.27,12.74Z"/><rect class="cls-4" x="31.07" y="2.32" width="16.7" height="16.7" rx="4" transform="translate(4 31) rotate(-45)"/><path class="cls-3" d="M33.9,10.41c0-1.64.81-3.28,2.63-3.28s2.63,1.64,2.63,3.28-.81,3.28-2.63,3.28S33.9,12.05,33.9,10.41Zm3.88,0c0-1.17-.34-2.08-1.25-2.08s-1.25.91-1.25,2.08.34,2.08,1.25,2.08S37.78,11.58,37.78,10.41Z"/><path class="cls-3" d="M40.63,13.58l2.28-5.16h-3.2V7.23h4.77v.94l-2.36,5.41Z"/><path class="cls-6" d="M37.88,39a1.75,1.75,0,0,1,1.35-2.15,1.92,1.92,0,0,1,2.27,1.35,1.75,1.75,0,0,1-1.35,2.16A1.93,1.93,0,0,1,37.88,39"/><rect class="cls-4" width="21.1" height="8.28" rx="1.39"/><g class="cls-7"><path class="cls-3" d="M4.29,4.28A2.08,2.08,0,0,1,6.47,2a2.12,2.12,0,0,1,1.38.45l-.45.72a1.26,1.26,0,0,0-.93-.35A1.18,1.18,0,0,0,5.3,4.08a.34.34,0,0,0,0,.1,1.52,1.52,0,0,1,1.2-.57A1.45,1.45,0,0,1,8.11,5a1.61,1.61,0,0,1-1.8,1.5C4.88,6.54,4.29,5.51,4.29,4.28Zm2.8.79c0-.46-.42-.66-.87-.66a1.17,1.17,0,0,0-.91.42.9.9,0,0,0,.94.88C6.79,5.71,7.09,5.37,7.09,5.07Z"/><path class="cls-3" d="M11.89,6.46l-1.17-1.6L9.54,6.46H8.35l1.7-2.24L8.46,2.08H9.64l1.08,1.5,1.06-1.5H13l-1.6,2.13,1.7,2.25Z"/><path class="cls-3" d="M13.26,5.84l.53-.63a1.85,1.85,0,0,0,1.28.5c.57,0,.88-.23.88-.56s-.28-.5-.94-.5h-.58V3.82H15c.52,0,.88-.15.88-.47s-.39-.52-.88-.52a1.74,1.74,0,0,0-1.19.46l-.5-.59A2.38,2.38,0,0,1,15.11,2c1.1,0,1.77.46,1.77,1.19a1.09,1.09,0,0,1-1,1,1.15,1.15,0,0,1,1.09,1c0,.76-.72,1.29-1.84,1.29A2.44,2.44,0,0,1,13.26,5.84Z"/></g></g></g></svg>