<svg xmlns="http://www.w3.org/2000/svg" width="248.113" height="89.546" viewBox="0 0 248.113 89.546">
  <g id="xiquelene" transform="translate(-425.915 -95.114)">
    <g id="Group_67" data-name="Group 67" transform="translate(563.163 144.747)">
      <path id="Path_66" data-name="Path 66" d="M317.14,327.653l-79.576-1.209,2.1-21.17h83.648L324.79,320Z" transform="translate(-219.48 -303.799)" fill="#9fa1a4" opacity="0.5"/>
      <path id="Path_67" data-name="Path 67" d="M325,326.944H228.878V304.566H332.735v14.728Z" transform="translate(-228.878 -304.566)" fill="#f4bdc7"/>
      <path id="Path_68" data-name="Path 68" d="M275.049,311.64v7.651l7.731-7.651Z" transform="translate(-178.923 -296.912)" fill="#fff"/>
    </g>
    <g id="Group_20" data-name="Group 20" transform="translate(553.75 178.334)" opacity="0.92">
      <g id="Group_19" data-name="Group 19">
        <path id="Path_27" data-name="Path 27" d="M374.811,48.227a2.985,2.985,0,1,0-2.982,3.16,3.075,3.075,0,0,0,2.982-3.16Z" transform="translate(-368.851 -45.061)" fill="#2d314e" opacity="0.8"/>
      </g>
    </g>
    <g id="Group_42" data-name="Group 42" transform="translate(559.915 117.099)">
      <path id="Path_55" data-name="Path 55" d="M455.792,46.869l-75.979-1.4,2.008-24.527h79.866L463.1,38Z" transform="translate(-348.987 -19.022)" fill="#f4bdc7" opacity="0.5"/>
      <path id="Path_56" data-name="Path 56" d="M475.459,46.16H371.128V20.233H483.851V37.3Z" transform="translate(-371.128 -20.233)" fill="#f4bdc7"/>
      <path id="Path_57" data-name="Path 57" d="M417.3,27.307v9.951l7.382-9.951Z" transform="translate(-311.958 -11.331)" fill="#f4bdc7"/>
    </g>
    <g id="Group_44" data-name="Group 44" transform="translate(618.555 95.114)">
      <g id="Group_43" data-name="Group 43">
        <rect id="Rectangle_26" data-name="Rectangle 26" width="41.91" height="21.994"/>
        <path id="_4x6" data-name="4x6" d="M3.828-6.132q-.468.612-1,1.332a9.147,9.147,0,0,0-.888,1.476H3.828ZM5.58-8.316v4.992h.888V-1.86H5.58V0H3.828V-1.86H.24V-3.168Q.5-3.7.9-4.362T1.782-5.73q.486-.7,1.026-1.374a15,15,0,0,1,1.08-1.212Zm4.464,3.924,1.248-1.92H13.14L10.98-3.276q.72.9,1.308,1.752A14.425,14.425,0,0,1,13.224,0H11.3l-.24-.45q-.144-.27-.324-.564T10.362-1.6q-.2-.294-.39-.534-.18.228-.366.5t-.354.558q-.168.282-.33.558T8.64,0H6.816a7.862,7.862,0,0,1,.4-.708q.252-.408.546-.846t.618-.876q.324-.438.636-.822-.54-.756-1.08-1.53L6.864-6.312H8.8Zm6.468.48a3.579,3.579,0,0,0-.564.048,1.662,1.662,0,0,0-.468.132q0,.048-.006.144t-.006.168a5.287,5.287,0,0,0,.06.816,2.286,2.286,0,0,0,.2.672,1.149,1.149,0,0,0,.384.45,1.049,1.049,0,0,0,.6.162.974.974,0,0,0,.51-.126,1.154,1.154,0,0,0,.348-.318,1.353,1.353,0,0,0,.2-.426,1.656,1.656,0,0,0,.066-.45,1.335,1.335,0,0,0-.306-.942A1.35,1.35,0,0,0,16.512-3.912ZM16.74-5.3a3.7,3.7,0,0,1,1.326.21,2.438,2.438,0,0,1,.894.57,2.148,2.148,0,0,1,.5.84,3.28,3.28,0,0,1,.156,1.02,3.005,3.005,0,0,1-.174.984,2.749,2.749,0,0,1-.528.912,2.766,2.766,0,0,1-.9.672,2.935,2.935,0,0,1-1.29.264,2.782,2.782,0,0,1-2.28-.948,4,4,0,0,1-.78-2.616A5.654,5.654,0,0,1,14.04-5.52,4.187,4.187,0,0,1,15.1-7.074a4.635,4.635,0,0,1,1.668-.96,7.085,7.085,0,0,1,2.2-.342Q19-8,19.02-7.65t.048.738a6.823,6.823,0,0,0-1.146.114,3.8,3.8,0,0,0-.972.318,2.66,2.66,0,0,0-.762.558,2.388,2.388,0,0,0-.5.834,2.22,2.22,0,0,1,.54-.168A3.021,3.021,0,0,1,16.74-5.3Z" transform="translate(10.955 15.497)" fill="#fff"/>
      </g>
    </g>
    <ellipse id="Ellipse_10" data-name="Ellipse 10" cx="23.022" cy="22.782" rx="23.022" ry="22.782" transform="translate(533.708 113.488)" fill="#eee9de"/>
    <path id="Path_58" data-name="Path 58" d="M410.8,45.163a25.051,25.051,0,1,0-50.1,0,24.513,24.513,0,0,0,5.5,15.492c4.59,5.668,19.211,23.037,19.211,23.037s15.308-17.369,19.9-23.037A24.53,24.53,0,0,0,410.8,45.163Z" transform="translate(170.979 91.108)" fill="#2d314e" opacity="0.92"/>
    <path id="XIQUELENE_A" data-name="XIQUELENE A" d="M5.258,0q-.319-.638-.7-1.293a15.631,15.631,0,0,0-.874-1.336q-.154.2-.391.55t-.473.748q-.237.4-.445.759T2.068,0H.11Q.594-.891,1.237-1.87T2.673-3.949L.22-7.623H2.3L3.784-5.247,5.236-7.623H7.194l-2.42,3.7A26.2,26.2,0,0,1,6.325-1.711Q6.952-.693,7.315,0ZM8.4-7.623H10.12V0H8.4ZM13.42-3.817A3.465,3.465,0,0,0,13.557-2.8a2.312,2.312,0,0,0,.4.775,1.753,1.753,0,0,0,.633.5,1.993,1.993,0,0,0,.858.176,2,2,0,0,0,.852-.176,1.741,1.741,0,0,0,.638-.5,2.312,2.312,0,0,0,.4-.775,3.465,3.465,0,0,0,.138-1.012,3.521,3.521,0,0,0-.138-1.017,2.305,2.305,0,0,0-.4-.781,1.741,1.741,0,0,0-.638-.5,2,2,0,0,0-.852-.176,1.942,1.942,0,0,0-.858.182,1.808,1.808,0,0,0-.633.506,2.305,2.305,0,0,0-.4.781A3.48,3.48,0,0,0,13.42-3.817Zm5.819,0a4.911,4.911,0,0,1-.2,1.446,3.722,3.722,0,0,1-.556,1.128,3.226,3.226,0,0,1-.853.8,3.511,3.511,0,0,1-1.089.462.618.618,0,0,0,.242.357,1.577,1.577,0,0,0,.473.226,3.745,3.745,0,0,0,.666.132q.38.044.819.077l-.352,1.254a8.222,8.222,0,0,1-1.469-.17,3.738,3.738,0,0,1-1.034-.38,2.04,2.04,0,0,1-.671-.594,2.685,2.685,0,0,1-.38-.814,3.932,3.932,0,0,1-1.265-.379,3.251,3.251,0,0,1-1.012-.787,3.607,3.607,0,0,1-.671-1.188,4.756,4.756,0,0,1-.242-1.573,4.466,4.466,0,0,1,.308-1.721,3.668,3.668,0,0,1,.831-1.248A3.415,3.415,0,0,1,14-7.546,4.155,4.155,0,0,1,15.444-7.8a4.264,4.264,0,0,1,1.474.253,3.352,3.352,0,0,1,1.21.759,3.58,3.58,0,0,1,.814,1.248A4.613,4.613,0,0,1,19.239-3.817ZM23.749.154a3.839,3.839,0,0,1-1.386-.226A2.582,2.582,0,0,1,21.4-.7a2.5,2.5,0,0,1-.561-.957,3.932,3.932,0,0,1-.181-1.227V-7.623h1.716v4.6a2.586,2.586,0,0,0,.1.786,1.449,1.449,0,0,0,.286.528,1.021,1.021,0,0,0,.44.292,1.748,1.748,0,0,0,.566.088,1.387,1.387,0,0,0,1.017-.385,1.8,1.8,0,0,0,.391-1.309v-4.6H26.9v4.741a3.876,3.876,0,0,1-.187,1.232,2.521,2.521,0,0,1-.572.963,2.565,2.565,0,0,1-.979.622A4.055,4.055,0,0,1,23.749.154ZM28.644,0V-7.623h5.148v1.441H30.36v1.5h3.047v1.408H30.36v1.837h3.685V0ZM40.5-1.474V0H35.409V-7.623h1.716v6.149ZM41.7,0V-7.623h5.148v1.441H43.417v1.5h3.047v1.408H43.417v1.837H47.1V0Zm11.88,0q-.737-1.309-1.595-2.585A26.271,26.271,0,0,0,50.16-4.994V0H48.466V-7.623h1.4q.363.363.8.891t.9,1.127q.456.6.907,1.243t.847,1.237v-4.5h1.705V0Zm3.3,0V-7.623h5.148v1.441H58.6v1.5h3.047v1.408H58.6v1.837h3.685V0ZM71.489,0q-.121-.4-.27-.814t-.292-.836h-2.97q-.143.418-.292.836T67.4,0H65.615q.429-1.232.814-2.277t.753-1.969q.368-.924.726-1.754t.743-1.623H70.29q.374.792.737,1.623t.731,1.754q.368.924.754,1.969T73.326,0ZM69.432-5.9q-.055.165-.165.451l-.253.66q-.143.374-.313.825t-.347.946h2.167q-.176-.5-.341-.946t-.313-.825q-.149-.374-.259-.66T69.432-5.9Z" transform="translate(586.981 134.595)"/>
    <path id="XIQUELENE_B" data-name="XIQUELENE B" d="M5.258,0q-.319-.638-.7-1.293a15.631,15.631,0,0,0-.874-1.336q-.154.2-.391.55t-.473.748q-.237.4-.445.759T2.068,0H.11Q.594-.891,1.237-1.87T2.673-3.949L.22-7.623H2.3L3.784-5.247,5.236-7.623H7.194l-2.42,3.7A26.2,26.2,0,0,1,6.325-1.711Q6.952-.693,7.315,0ZM8.4-7.623H10.12V0H8.4ZM13.42-3.817A3.465,3.465,0,0,0,13.557-2.8a2.312,2.312,0,0,0,.4.775,1.753,1.753,0,0,0,.633.5,1.993,1.993,0,0,0,.858.176,2,2,0,0,0,.852-.176,1.741,1.741,0,0,0,.638-.5,2.312,2.312,0,0,0,.4-.775,3.465,3.465,0,0,0,.138-1.012,3.521,3.521,0,0,0-.138-1.017,2.305,2.305,0,0,0-.4-.781,1.741,1.741,0,0,0-.638-.5,2,2,0,0,0-.852-.176,1.942,1.942,0,0,0-.858.182,1.808,1.808,0,0,0-.633.506,2.305,2.305,0,0,0-.4.781A3.48,3.48,0,0,0,13.42-3.817Zm5.819,0a4.911,4.911,0,0,1-.2,1.446,3.722,3.722,0,0,1-.556,1.128,3.226,3.226,0,0,1-.853.8,3.511,3.511,0,0,1-1.089.462.618.618,0,0,0,.242.357,1.577,1.577,0,0,0,.473.226,3.745,3.745,0,0,0,.666.132q.38.044.819.077l-.352,1.254a8.222,8.222,0,0,1-1.469-.17,3.738,3.738,0,0,1-1.034-.38,2.04,2.04,0,0,1-.671-.594,2.685,2.685,0,0,1-.38-.814,3.932,3.932,0,0,1-1.265-.379,3.251,3.251,0,0,1-1.012-.787,3.607,3.607,0,0,1-.671-1.188,4.756,4.756,0,0,1-.242-1.573,4.466,4.466,0,0,1,.308-1.721,3.668,3.668,0,0,1,.831-1.248A3.415,3.415,0,0,1,14-7.546,4.155,4.155,0,0,1,15.444-7.8a4.264,4.264,0,0,1,1.474.253,3.352,3.352,0,0,1,1.21.759,3.58,3.58,0,0,1,.814,1.248A4.613,4.613,0,0,1,19.239-3.817ZM23.749.154a3.839,3.839,0,0,1-1.386-.226A2.582,2.582,0,0,1,21.4-.7a2.5,2.5,0,0,1-.561-.957,3.932,3.932,0,0,1-.181-1.227V-7.623h1.716v4.6a2.586,2.586,0,0,0,.1.786,1.449,1.449,0,0,0,.286.528,1.021,1.021,0,0,0,.44.292,1.748,1.748,0,0,0,.566.088,1.387,1.387,0,0,0,1.017-.385,1.8,1.8,0,0,0,.391-1.309v-4.6H26.9v4.741a3.876,3.876,0,0,1-.187,1.232,2.521,2.521,0,0,1-.572.963,2.565,2.565,0,0,1-.979.622A4.055,4.055,0,0,1,23.749.154ZM28.644,0V-7.623h5.148v1.441H30.36v1.5h3.047v1.408H30.36v1.837h3.685V0ZM40.5-1.474V0H35.409V-7.623h1.716v6.149ZM41.7,0V-7.623h5.148v1.441H43.417v1.5h3.047v1.408H43.417v1.837H47.1V0Zm11.88,0q-.737-1.309-1.595-2.585A26.271,26.271,0,0,0,50.16-4.994V0H48.466V-7.623h1.4q.363.363.8.891t.9,1.127q.456.6.907,1.243t.847,1.237v-4.5h1.705V0Zm3.3,0V-7.623h5.148v1.441H58.6v1.5h3.047v1.408H58.6v1.837h3.685V0ZM68.926.1Q68.3.1,67.677.06a8.824,8.824,0,0,1-1.293-.181V-7.513a10.976,10.976,0,0,1,1.155-.148q.627-.049,1.166-.049a7.941,7.941,0,0,1,1.337.1,3.165,3.165,0,0,1,1.05.358,1.873,1.873,0,0,1,.688.665,1.946,1.946,0,0,1,.248,1.017,1.615,1.615,0,0,1-.88,1.441,1.8,1.8,0,0,1,.99.748A2.152,2.152,0,0,1,72.4-2.31a2.049,2.049,0,0,1-.875,1.8A4.583,4.583,0,0,1,68.926.1Zm-.869-3.421v1.969q.187.022.407.033t.484.011a2.973,2.973,0,0,0,1.243-.22.816.816,0,0,0,.473-.814.8.8,0,0,0-.4-.754,2.32,2.32,0,0,0-1.133-.225Zm0-1.309h.836a2.329,2.329,0,0,0,1.133-.2.7.7,0,0,0,.341-.655.672.672,0,0,0-.352-.649,2.262,2.262,0,0,0-1.034-.187q-.22,0-.473.005t-.451.028Z" transform="translate(586.251 158.674)"/>
    <ellipse id="Ellipse_11" data-name="Ellipse 11" cx="23.022" cy="22.782" rx="23.022" ry="22.782" transform="translate(533.708 113.488)" fill="#ff8879"/>
    <path id="_10" data-name="10" d="M.91-7.137q.377-.156.787-.358t.8-.442q.39-.241.747-.507a5.131,5.131,0,0,0,.643-.565H5.239V0H3.3V-6.487a5.9,5.9,0,0,1-.871.474Q1.95-5.8,1.5-5.642ZM14.443-4.524a5.974,5.974,0,0,1-.865,3.49A2.768,2.768,0,0,1,11.193.182,2.768,2.768,0,0,1,8.807-1.033a5.974,5.974,0,0,1-.865-3.49,7.953,7.953,0,0,1,.227-2,4.408,4.408,0,0,1,.656-1.469A2.926,2.926,0,0,1,9.854-8.9a2.851,2.851,0,0,1,1.339-.312A2.768,2.768,0,0,1,13.578-8,5.948,5.948,0,0,1,14.443-4.524Zm-1.976,0A10.577,10.577,0,0,0,12.4-5.753a4.421,4.421,0,0,0-.208-.955,1.483,1.483,0,0,0-.39-.624.883.883,0,0,0-.611-.221.859.859,0,0,0-.6.221,1.573,1.573,0,0,0-.39.624,4.159,4.159,0,0,0-.214.955,10.577,10.577,0,0,0-.065,1.229,10.748,10.748,0,0,0,.065,1.235,4.167,4.167,0,0,0,.214.962,1.573,1.573,0,0,0,.39.624.859.859,0,0,0,.6.221A.883.883,0,0,0,11.8-1.7a1.483,1.483,0,0,0,.39-.624,4.428,4.428,0,0,0,.208-.962A10.748,10.748,0,0,0,12.467-4.524Z" transform="translate(549.23 131.595)" fill="#231f20"/>
    <path id="_11" data-name="11" d="M.91-7.137q.377-.156.787-.358t.8-.442q.39-.241.747-.507a5.131,5.131,0,0,0,.643-.565H5.239V0H3.3V-6.487a5.9,5.9,0,0,1-.871.474Q1.95-5.8,1.5-5.642Zm7.5,0q.377-.156.786-.358t.8-.442q.39-.241.748-.507a5.131,5.131,0,0,0,.643-.565H12.74V0H10.8V-6.487a5.9,5.9,0,0,1-.871.474Q9.451-5.8,9-5.642Z" transform="translate(549.23 150.946)" fill="#231f20"/>
    <g id="Group_66" data-name="Group 66" transform="translate(-490.716 -151)">
      <rect id="Rectangle_41" data-name="Rectangle 41" width="106" height="56" transform="translate(916.631 263)" fill="none"/>
    </g>
  </g>
</svg>
