<?xml version="1.0" encoding="utf-8"?>
<!-- Generator: Adobe Illustrator 25.2.3, SVG Export Plug-In . SVG Version: 6.00 Build 0)  -->
<svg version="1.1" id="Layer_1" xmlns="http://www.w3.org/2000/svg" width="248.113" height="89.546" xmlns:xlink="http://www.w3.org/1999/xlink" x="0px" y="0px"
	 viewBox="0 0 248.1 89.5" style="enable-background:new 0 0 248.1 89.5;" xml:space="preserve">
<style type="text/css">
	.st0{fill:#292333}
	.st1{fill:#681758;}
	.st2{fill:#FFFFFF;stroke:#FFFFFF;stroke-width:0.5;stroke-miterlimit:10.0005;}
	.st3{fill:#FFFFFF;stroke:#FFFFFF;stroke-width:0.7;stroke-miterlimit:10.0005;}
	.st4{fill:#FFFFFF;}
	.st5{opacity:0.92;fill:#2D314E;enable-background:new    ;}
	.st6{fill:none;}
</style>
<g>
	<g>
		<g id="Layer_2_6_">
			<g id="Layer_1-2_7_">
				<g>
					<rect x="156.6" y="24.2" class="st0" width="91.6" height="22.1"/>
				</g>
				<rect x="127.4" y="24.2" class="st1" width="30.1" height="22.1"/>
				<g>
					<rect x="204.3" y="9.3" class="st1" width="44" height="14.9"/>
				</g>
			</g>
		</g>
	</g>
	<g>
		<g id="Layer_2_5_">
			<g id="Layer_1-2_6_">
				<g>
					<rect x="156.6" y="47.5" class="st0" width="91.6" height="22.1"/>
				</g>
				<rect x="127.4" y="47.5" class="st1" width="30.1" height="22.1"/>
			</g>
		</g>
	</g>
</g>
<g>
	<g>
		<path class="st2" d="M172.4,39.4h-1.3l-2.6-3.5l-2.6,3.5h-1.3l3.2-4.3l-3-4h1.3l2.5,3.3l2.5-3.3h1.3l-3,4L172.4,39.4z"/>
		<path class="st2" d="M174.5,39.4h-1v-8.3h1V39.4L174.5,39.4z"/>
		<path class="st2" d="M180.3,39.6c-1.2,0-2.2-0.4-3-1.2s-1.1-1.8-1.1-3c0-1.2,0.4-2.2,1.1-3c0.8-0.8,1.8-1.2,3-1.2s2.2,0.4,3,1.2
			c0.8,0.8,1.1,1.8,1.1,3c0,1.2-0.4,2.2-1.1,3l0.8,0.8l-0.7,0.6l-0.8-0.9C181.9,39.3,181.1,39.6,180.3,39.6z M180.3,38.6
			c0.6,0,1.1-0.2,1.6-0.4l-1.2-1.3l0.7-0.6l1.2,1.3c0.5-0.6,0.8-1.4,0.8-2.3c0-1-0.3-1.8-0.9-2.4c-0.6-0.6-1.3-1-2.2-1
			s-1.7,0.3-2.2,1c-0.6,0.6-0.8,1.4-0.8,2.4c0,1,0.2,1.8,0.8,2.4C178.6,38.3,179.3,38.6,180.3,38.6z"/>
		<path class="st2" d="M189.4,39.6c-1.1,0-1.9-0.3-2.5-0.9c-0.6-0.6-0.9-1.4-0.9-2.5v-5.1h1v5.1c0,0.8,0.2,1.4,0.6,1.8
			c0.4,0.5,1,0.6,1.8,0.6c0.8,0,1.4-0.2,1.8-0.6c0.4-0.4,0.6-1,0.6-1.8v-5.1h1v5.1c0,1-0.3,1.8-0.9,2.5
			C191.5,39.3,190.5,39.6,189.4,39.6z"/>
		<path class="st2" d="M200.2,39.4h-5.5v-8.3h5.5V32h-4.4v2.6h4.3v0.9h-4.3v2.9h4.4V39.4z"/>
		<path class="st2" d="M206.5,39.4h-4.9v-8.3h1v7.4h3.9V39.4z"/>
		<path class="st2" d="M213.4,39.4h-5.5v-8.3h5.5V32H209v2.6h4.3v0.9H209v2.9h4.4V39.4z"/>
		<path class="st2" d="M221.9,39.4h-1l-4.8-6.6v6.6h-1v-8.3h1l4.8,6.5v-6.5h1V39.4L221.9,39.4z"/>
		<path class="st2" d="M229.3,39.4h-5.5v-8.3h5.5V32h-4.4v2.6h4.3v0.9h-4.3v2.9h4.4V39.4z"/>
		<path class="st2" d="M241.2,39.4H240l-0.7-1.8h-4.1l-0.7,1.8h-1.2l3.4-8.3h1.3L241.2,39.4z M239,36.7l-1.8-4.5l-1.8,4.5H239z"/>
	</g>
	<g>
		<path class="st3" d="M141.3,39.4h-1v-6.9l-1.4,1.4l-0.6-0.6l2.1-2.1h0.9V39.4z"/>
		<path class="st3" d="M145.5,39.4h-1v-6.9l-1.4,1.4l-0.6-0.6l2.1-2.1h0.9V39.4z"/>
	</g>
	<g>
		<path class="st2" d="M172.6,62.7h-1.3l-2.6-3.5l-2.6,3.5h-1.3l3.2-4.3l-3-4h1.3l2.5,3.3l2.5-3.3h1.3l-3,4L172.6,62.7z"/>
		<path class="st2" d="M174.8,62.7h-1v-8.3h1V62.7z"/>
		<path class="st2" d="M180.5,62.8c-1.2,0-2.2-0.4-3-1.2c-0.8-0.8-1.1-1.8-1.1-3c0-1.2,0.4-2.2,1.1-3c0.8-0.8,1.8-1.2,3-1.2
			s2.2,0.4,3,1.2c0.8,0.8,1.1,1.8,1.1,3c0,1.2-0.4,2.2-1.1,3l0.8,0.8l-0.7,0.6l-0.8-0.9C182.1,62.6,181.4,62.8,180.5,62.8z
			 M180.5,61.9c0.6,0,1.1-0.2,1.6-0.4l-1.2-1.3l0.7-0.6l1.2,1.3c0.5-0.6,0.8-1.4,0.8-2.3c0-1-0.3-1.8-0.9-2.4c-0.6-0.6-1.3-1-2.2-1
			s-1.7,0.3-2.2,1c-0.6,0.6-0.8,1.4-0.8,2.4s0.2,1.8,0.8,2.4C178.8,61.5,179.6,61.9,180.5,61.9z"/>
		<path class="st2" d="M189.6,62.8c-1.1,0-1.9-0.3-2.5-0.9c-0.6-0.6-0.9-1.4-0.9-2.5v-5.1h1v5.1c0,0.8,0.2,1.4,0.6,1.8
			c0.4,0.4,1,0.6,1.8,0.6c0.8,0,1.4-0.2,1.8-0.6s0.6-1,0.6-1.8v-5.1h1v5.1c0,1-0.3,1.8-0.9,2.5C191.7,62.6,190.7,62.8,189.6,62.8z"
			/>
		<path class="st2" d="M200.4,62.7h-5.5v-8.3h5.5v0.9H196v2.6h4.3v0.9H196v2.9h4.4V62.7z"/>
		<path class="st2" d="M206.8,62.7h-4.9v-8.3h1v7.4h3.9V62.7z"/>
		<path class="st2" d="M213.5,62.7H208v-8.3h5.5v0.9h-4.4v2.6h4.3v0.9h-4.3v2.9h4.4V62.7z"/>
		<path class="st2" d="M222,62.7h-1l-4.8-6.6v6.6h-1v-8.3h1l4.8,6.5v-6.5h1V62.7L222,62.7z"/>
		<path class="st2" d="M229.4,62.7H224v-8.3h5.5v0.9H225v2.6h4.3v0.9H225v2.9h4.4V62.7z"/>
		<path class="st2" d="M238.1,62.7h-3.8v-8.3h3.7c0.7,0,1.3,0.2,1.7,0.6c0.4,0.4,0.6,0.9,0.6,1.5c0,0.5-0.2,0.9-0.4,1.3
			c-0.3,0.3-0.6,0.6-1,0.6c0.4,0.1,0.8,0.3,1.1,0.7c0.3,0.4,0.5,0.9,0.5,1.4c0,0.6-0.2,1.2-0.6,1.6
			C239.4,62.4,238.8,62.7,238.1,62.7z M237.8,57.9c0.5,0,0.8-0.2,1-0.4c0.2-0.2,0.4-0.6,0.4-1c0-0.4-0.2-0.7-0.4-1
			c-0.2-0.2-0.6-0.4-1-0.4h-2.5v2.6L237.8,57.9L237.8,57.9z M237.9,61.7c0.5,0,0.9-0.2,1.1-0.4c0.2-0.2,0.4-0.6,0.4-1
			c0-0.4-0.2-0.7-0.4-1c-0.2-0.2-0.6-0.4-1.1-0.4h-2.6v2.9h2.6V61.7z"/>
	</g>
	<g>
		<path class="st3" d="M139.7,62.6h-1v-6.8l-1.3,1.4l-0.6-0.6l2-2.1h0.9C139.7,54.5,139.7,62.6,139.7,62.6z"/>
		<path class="st3" d="M144.4,62.7c-0.5,0-1-0.1-1.4-0.3c-0.3-0.3-0.7-0.5-1-1c-0.3-0.4-0.4-0.9-0.5-1.3c-0.1-0.5-0.2-1-0.2-1.5
			s0.1-1,0.2-1.5c0.1-0.5,0.3-1,0.5-1.3c0.3-0.3,0.5-0.7,1-1c0.3-0.3,0.9-0.3,1.4-0.3s1,0.1,1.4,0.3c0.4,0.3,0.7,0.5,1,1
			c0.3,0.3,0.4,0.9,0.5,1.3c0.1,0.4,0.2,1,0.2,1.5s-0.1,1-0.2,1.5c-0.1,0.5-0.3,1-0.5,1.3c-0.3,0.3-0.5,0.7-1,1
			C145.4,62.6,144.9,62.7,144.4,62.7z M143.2,61.3c0.3,0.3,0.7,0.5,1.2,0.5c0.5,0,0.9-0.2,1.2-0.5c0.3-0.3,0.5-0.7,0.7-1.2
			c0.1-0.5,0.2-1,0.2-1.6s-0.1-1.1-0.2-1.6c-0.1-0.5-0.3-0.9-0.7-1.2c-0.3-0.3-0.7-0.5-1.2-0.5c-0.5,0-0.9,0.2-1.2,0.5
			c-0.3,0.3-0.5,0.7-0.7,1.2c-0.1,0.5-0.2,1-0.2,1.6s0.1,1.1,0.2,1.6C142.6,60.5,142.9,61.1,143.2,61.3z"/>
	</g>
	<g>
		<path class="st4" d="M220.5,20.9h-1v-2.1h-3.9v-0.9l3.5-5.3h1.4v5.3h1.2v0.9h-1.2V20.9z M219.5,17.9v-4.3l-2.9,4.3H219.5z"/>
		<path class="st4" d="M230,20.9h-1.3l-2.6-3.5l-2.6,3.5h-1.3l3.2-4.3l-3-4h1.3l2.5,3.3l2.5-3.3h1.3l-3,4L230,20.9z"/>
		<path class="st4" d="M234,21c-0.6,0-1-0.1-1.4-0.3s-0.7-0.6-1-1c-0.2-0.4-0.4-0.9-0.6-1.4c-0.2-0.5-0.2-1-0.2-1.6
			c0-1.2,0.3-2.2,0.9-3c0.6-0.8,1.4-1.2,2.5-1.2c1,0,1.7,0.3,2.3,1l-0.6,0.8c-0.5-0.6-1-0.9-1.8-0.9s-1.4,0.3-1.8,1
			c-0.4,0.7-0.6,1.4-0.6,2.3V17c0.2-0.3,0.6-0.6,1-0.9c0.4-0.2,0.9-0.4,1.4-0.4c0.8,0,1.4,0.2,1.9,0.7c0.5,0.5,0.8,1.1,0.8,1.9
			c0,0.7-0.2,1.4-0.8,1.9C235.5,20.9,234.9,21,234,21z M233.9,20.1c0.6,0,1-0.2,1.4-0.6c0.3-0.4,0.5-0.8,0.5-1.2
			c0-0.6-0.2-1-0.6-1.4c-0.3-0.3-0.8-0.5-1.4-0.5c-0.4,0-0.8,0.1-1.2,0.3c-0.4,0.2-0.6,0.6-0.9,0.9c0.1,0.6,0.2,1.1,0.6,1.6
			C232.8,19.9,233.3,20.1,233.9,20.1z"/>
	</g>
</g>
<g id="_24_julho_novo" transform="translate(200.275 451.873)">
	<path id="Path_11" class="st5" d="M-66-365.5c-0.1,1.9-1.7,3.3-3.6,3.2c-1.9-0.1-3.3-1.7-3.2-3.6c0.1-1.8,1.6-3.2,3.4-3.2
		C-67.4-369-65.9-367.4-66-365.5z"/>
</g>
<g id="xiquelene" transform="translate(-425.915 -95.114)">
	<g id="Group_66" transform="translate(-490.716 -151)">
		<rect id="Rectangle_41" x="916.6" y="263" class="st6" width="106" height="56"/>
	</g>
</g>
<polygon class="st1" points="127.4,69.6 130.9,78 133.4,67.8 "/>
</svg>
