<svg xmlns="http://www.w3.org/2000/svg" width="160" height="95.826" viewBox="0 0 61.63 39.51"><defs><style>.cls-1{fill:#676d81;}.cls-2{fill:#fff;}.cls-3{fill:#681758;}.cls-4{fill:#2d314e;}</style></defs><g id="Layer_2" data-name="Layer 2"><g id="Layer_1-2" data-name="Layer 1"><rect class="cls-1" x="11.33" y="18.69" width="50.3" height="12.24" rx="2.6"/><path class="cls-2" d="M24.49,26.87l-.94-1.28-.94,1.28h-.95L23,25.07l-1.27-1.7h.95l.85,1.19.85-1.19h1l-1.27,1.7,1.36,1.8Z"/><path class="cls-2" d="M25.85,26.87v-3.5h.79v3.5Z"/><path class="cls-2" d="M27.25,25.12a2,2,0,0,1,3.91,0,1.79,1.79,0,0,1-.48,1.24l.27.3-.56.42-.3-.32a2.26,2.26,0,0,1-.88.17A1.83,1.83,0,0,1,27.25,25.12Zm2.35,1.09-.41-.45.55-.42.41.45a1.17,1.17,0,0,0,.19-.67,1.14,1.14,0,1,0-1.13,1.15A1.23,1.23,0,0,0,29.6,26.21Z"/><path class="cls-2" d="M31.77,25.47v-2.1h.81v2.07a.88.88,0,0,0,1.76,0V23.37h.81v2.1c0,.86-.55,1.46-1.69,1.46S31.77,26.33,31.77,25.47Z"/><path class="cls-2" d="M35.94,26.87v-3.5h2.65V24H36.74v.74h1.81v.65H36.74v.8h1.85v.66Z"/><path class="cls-2" d="M39.22,26.87v-3.5H40v2.84h1.58v.66Z"/><path class="cls-2" d="M42.2,26.87v-3.5h2.65V24H43v.74h1.82v.65H43v.8h1.86v.66Z"/><path class="cls-2" d="M48.1,26.87l-1.79-2.29v2.29h-.79v-3.5h.81l1.74,2.2v-2.2h.8v3.5Z"/><path class="cls-2" d="M49.65,26.87v-3.5H52.3V24H50.45v.74h1.82v.65H50.45v.8H52.3v.66Z"/><path class="cls-2" d="M57.05,26.87l-.24-.6h-1.6l-.24.6h-.9l1.44-3.5h1L58,26.87Zm-1-2.76-.58,1.51H56.6Z"/><rect class="cls-1" x="11.33" y="4.69" width="50.3" height="12.24" rx="2.6"/><path class="cls-2" d="M24.49,13.87l-.94-1.28-.94,1.28h-.95L23,12.07l-1.27-1.7h.95l.85,1.19.85-1.19h1l-1.27,1.7,1.36,1.8Z"/><path class="cls-2" d="M25.85,13.87v-3.5h.79v3.5Z"/><path class="cls-2" d="M27.25,12.12a2,2,0,0,1,3.91,0,1.79,1.79,0,0,1-.48,1.24l.27.3-.56.42-.3-.32a2.26,2.26,0,0,1-.88.17A1.83,1.83,0,0,1,27.25,12.12Zm2.35,1.09-.41-.45.55-.42.41.45a1.17,1.17,0,0,0,.19-.67,1.14,1.14,0,1,0-1.13,1.15A1.23,1.23,0,0,0,29.6,13.21Z"/><path class="cls-2" d="M31.77,12.47v-2.1h.81v2.07a.88.88,0,0,0,1.76,0V10.37h.81v2.1c0,.86-.55,1.46-1.69,1.46S31.77,13.33,31.77,12.47Z"/><path class="cls-2" d="M35.94,13.87v-3.5h2.65V11H36.74v.74h1.81v.65H36.74v.8h1.85v.66Z"/><path class="cls-2" d="M39.22,13.87v-3.5H40v2.84h1.58v.66Z"/><path class="cls-2" d="M42.2,13.87v-3.5h2.65V11H43v.74h1.82v.65H43v.8h1.86v.66Z"/><path class="cls-2" d="M48.1,13.87l-1.79-2.29v2.29h-.79v-3.5h.81l1.74,2.2v-2.2h.8v3.5Z"/><path class="cls-2" d="M49.65,13.87v-3.5H52.3V11H50.45v.74h1.82v.65H50.45v.8H52.3v.66Z"/><path class="cls-2" d="M54.46,13.87v-3.5h2c.72,0,1.08.42,1.08.89a.79.79,0,0,1-.64.8.86.86,0,0,1,.71.86,1,1,0,0,1-1.09.95Zm2.24-2.48c0-.22-.17-.37-.44-.37h-1v.74h1C56.53,11.76,56.7,11.62,56.7,11.39Zm.07,1.42c0-.22-.17-.4-.48-.4h-1v.8h1C56.59,13.21,56.77,13.06,56.77,12.81Z"/><rect class="cls-3" x="1.8" y="2.46" width="16.7" height="16.7" rx="4" transform="translate(-4.67 10.34) rotate(-45)"/><path class="cls-2" d="M7.48,13.72V9.11L6.42,10.19l-.77-.81,2-2H8.83v6.35Z"/><path class="cls-2" d="M11.39,13.72V9.11l-1.05,1.08-.77-.81,2-2h1.18v6.35Z"/><path class="cls-4" d="M8.61,38.11A1.74,1.74,0,0,1,10,36a1.92,1.92,0,0,1,2.27,1.35,1.76,1.76,0,0,1-1.35,2.16,1.92,1.92,0,0,1-2.27-1.36"/><rect class="cls-3" x="40.63" width="21" height="8.28" rx="0.9"/><path class="cls-2" d="M46.92,6.46V5.55H44.68V4.82l1.86-2.74h1.38V4.73h.6v.82h-.6v.91Zm0-3.55L45.66,4.73h1.26Z"/><path class="cls-2" d="M52.27,6.46,51.1,4.86l-1.18,1.6H48.73l1.7-2.24L48.84,2.08H50l1.07,1.5,1.06-1.5h1.2L51.77,4.21l1.7,2.25Z"/><path class="cls-2" d="M53.74,4.28A2.08,2.08,0,0,1,55.92,2a2.22,2.22,0,0,1,1.39.45l-.45.72a1.28,1.28,0,0,0-.94-.35,1.18,1.18,0,0,0-1.17,1.25.31.31,0,0,0,0,.09A1.55,1.55,0,0,1,56,3.61,1.45,1.45,0,0,1,57.56,5a1.61,1.61,0,0,1-1.8,1.5C54.34,6.54,53.74,5.51,53.74,4.28Zm2.8.79c0-.46-.42-.66-.86-.66a1.19,1.19,0,0,0-.92.42.9.9,0,0,0,.94.88C56.25,5.71,56.54,5.37,56.54,5.07Z"/><rect class="cls-3" x="1.8" y="15.46" width="16.7" height="16.7" rx="4" transform="translate(-13.87 14.15) rotate(-45)"/><path class="cls-2" d="M6.64,26.72V22.11L5.58,23.19l-.77-.81,2-2H8v6.35Z"/><path class="cls-2" d="M9.06,26.72V25.66c2.6-1.93,3.36-2.57,3.36-3.36,0-.56-.5-.82-1-.82a2.26,2.26,0,0,0-1.71.73l-.77-.9a3.24,3.24,0,0,1,2.45-1c1.36,0,2.42.76,2.42,2,0,1.09-.89,2-2.54,3.23h2.59v1.19Z"/></g></g></svg>