<?xml version="1.0" encoding="utf-8"?>
<!-- Generator: Adobe Illustrator 25.2.3, SVG Export Plug-In . SVG Version: 6.00 Build 0)  -->
<svg version="1.1" id="Layer_1" xmlns="http://www.w3.org/2000/svg" width="248.113" height="89.546" xmlns:xlink="http://www.w3.org/1999/xlink" x="0px" y="0px"
	 viewBox="0 0 248.1 89.5" style="enable-background:new 0 0 248.1 89.5;" xml:space="preserve">
<style type="text/css">
	.st0{opacity:0.92;fill:#2D314E;enable-background:new    ;}
	.st1{fill:none;}
	.st2{fill:#676D81;}
	.st3{fill:#681758;}
	.st4{fill:#FFFFFF;}
</style>
<g id="_24_julho_novo" transform="translate(200.275 451.873)">
	<path id="Path_11" class="st0" d="M-66-365.5c-0.1,1.9-1.7,3.3-3.6,3.2c-1.9-0.1-3.3-1.7-3.2-3.6c0.1-1.8,1.6-3.2,3.4-3.2
		C-67.4-369-65.9-367.4-66-365.5z"/>
</g>
<g id="xiquelene" transform="translate(-425.915 -95.114)">
	<g id="Group_66" transform="translate(-490.716 -151)">
		<rect id="Rectangle_41" x="916.6" y="263" class="st1" width="106" height="56"/>
	</g>
</g>
<g>
	<g>
		<g id="Layer_2_6_">
			<g id="Layer_1-2_7_">
				<g>
					<rect x="133.9" y="18.6" class="st2" width="114.2" height="27.5"/>
				</g>
				<rect x="97.4" y="18.6" class="st3" width="37.5" height="27.5"/>
				<g>
					<rect x="193.3" y="0" class="st3" width="54.8" height="18.6"/>
				</g>
			</g>
		</g>
		<g>
			<g>
				<rect x="134.9" y="18.6" class="st2" width="113.3" height="27.5"/>
				<path class="st4" d="M150.6,37.4l-2.5-3.7l-2.6,3.7h-2.6l3.7-5.2l-3.5-5h2.6l2.3,3.5l2.3-3.5h2.6l-3.5,4.9l3.7,5.2h-2.5V37.4z"
					/>
				<path class="st4" d="M154.1,37.4V27.3h2.2v10.2h-2.2V37.4z"/>
				<path class="st4" d="M157.8,32.4c0-3.1,2.2-5.3,5.3-5.3c3.1,0,5.3,2.2,5.3,5.3c0,1.4-0.5,2.7-1.3,3.6l0.7,0.9l-1.5,1.2l-0.8-0.9
					c-0.7,0.3-1.5,0.5-2.4,0.5C160,37.6,157.8,35.4,157.8,32.4z M164.2,35.5l-1.1-1.3l1.5-1.2l1.1,1.3c0.3-0.5,0.5-1.2,0.5-1.9
					c0-1.9-1.2-3.3-3.1-3.3c-1.9,0-3.1,1.4-3.1,3.3c0,1.9,1.2,3.3,3.1,3.3C163.5,35.7,163.9,35.6,164.2,35.5z"/>
				<path class="st4" d="M169.9,33.4v-6.1h2.2v6c0,1.4,0.8,2.4,2.4,2.4c1.6,0,2.4-1,2.4-2.4v-6h2.2v6.1c0,2.5-1.5,4.3-4.6,4.3
					C171.4,37.6,169.9,35.9,169.9,33.4z"/>
				<path class="st4" d="M181.1,37.4V27.3h7.2v1.9h-5v2.1h4.9v1.9h-4.9v2.3h5v1.9H181.1z"/>
				<path class="st4" d="M189.9,37.4V27.3h2.2v8.3h4.3v1.9h-6.5V37.4z"/>
				<path class="st4" d="M197.9,37.4V27.3h7.2v1.9h-5v2.1h4.9v1.9h-5v2.3h5v1.9H197.9z"/>
				<path class="st4" d="M213.8,37.4l-4.8-6.6v6.6h-2.2V27.3h2.2l4.7,6.4v-6.4h2.2v10.2h-2.1L213.8,37.4L213.8,37.4z"/>
				<path class="st4" d="M217.9,37.4V27.3h7.2v1.9h-5v2.1h4.9v1.9h-5v2.3h5v1.9H217.9z"/>
				<path class="st4" d="M237.7,37.4l-0.6-1.7h-4.4l-0.6,1.7h-2.5l3.9-10.2h2.7l3.9,10.2H237.7z M234.9,29.4l-1.6,4.4h3.2
					L234.9,29.4z"/>
			</g>
			<g>
				<path class="st4" d="M111.6,39.7V29l-2.4,2.5l-1.8-1.9L112,25h2.7v14.7H111.6z"/>
				<path class="st4" d="M120.6,39.7V29l-2.4,2.5l-1.8-1.9L121,25h2.7v14.7H120.6z"/>
			</g>
			<g>
				<path class="st4" d="M211.2,14.6v-2.2h-5.1v-1.8l4.2-6.7h3.1v6.5h1.4v2h-1.4v2.2H211.2z M211.2,6l-2.9,4.4h2.9V6z"/>
				<path class="st4" d="M223.3,14.6l-2.7-3.9l-2.7,3.9h-2.7l3.9-5.5l-3.6-5.2h2.7l2.4,3.7l2.4-3.7h2.7l-3.6,5.2l3.9,5.5H223.3z"/>
				<path class="st4" d="M226.5,9.3c0-3.2,1.8-5.5,5-5.5c1.3,0,2.4,0.4,3.2,1.1l-1,1.7c-0.6-0.5-1.2-0.8-2.1-0.8
					c-1.6,0-2.7,1.3-2.7,3c0,0.1,0,0.1,0,0.2c0.5-0.7,1.6-1.4,2.7-1.4c1.9,0,3.6,1.2,3.6,3.5c0,2.1-1.7,3.7-4.1,3.7
					C227.9,14.8,226.5,12.3,226.5,9.3z M232.9,11.2c0-1.1-1-1.6-2-1.6c-0.8,0-1.6,0.4-2.1,1c0.1,1,0.7,2.2,2.2,2.2
					C232.2,12.8,232.9,12,232.9,11.2z"/>
			</g>
		</g>
	</g>
	<g>
		<g id="Layer_2_5_">
			<g id="Layer_1-2_6_">
				<g>
					<rect x="133.9" y="47.6" class="st2" width="114.2" height="27.5"/>
				</g>
				<rect x="97.4" y="47.6" class="st3" width="37.5" height="27.5"/>
			</g>
		</g>
		<g>
			<g>
				<path class="st4" d="M150.7,66.4l-2.5-3.7l-2.6,3.7H143l3.7-5.2l-3.5-5h2.6l2.3,3.5l2.3-3.5h2.6l-3.5,4.9l3.7,5.2h-2.5
					L150.7,66.4L150.7,66.4z"/>
				<path class="st4" d="M154.3,66.4V56.3h2.2v10.2L154.3,66.4L154.3,66.4z"/>
				<path class="st4" d="M158,61.3c0-3.1,2.2-5.3,5.3-5.3s5.3,2.2,5.3,5.3c0,1.4-0.5,2.7-1.3,3.6l0.7,0.9l-1.5,1.2l-0.8-0.9
					c-0.7,0.3-1.5,0.5-2.4,0.5C160.2,66.6,158,64.4,158,61.3z M164.3,64.5l-1.1-1.3l1.5-1.2l1.1,1.3c0.3-0.5,0.5-1.2,0.5-1.9
					c0-1.9-1.2-3.3-3.1-3.3c-1.9,0-3.1,1.4-3.1,3.3c0,1.9,1.2,3.3,3.1,3.3C163.7,64.7,164,64.6,164.3,64.5z"/>
				<path class="st4" d="M170.1,62.4v-6.1h2.2v6c0,1.4,0.8,2.4,2.4,2.4c1.6,0,2.4-1,2.4-2.4v-6h2.2v6.1c0,2.5-1.5,4.3-4.6,4.3
					C171.6,66.6,170.1,64.9,170.1,62.4z"/>
				<path class="st4" d="M181.3,66.4V56.3h7.2v1.9h-5v2.1h4.9v1.9h-4.9v2.3h5v1.9H181.3z"/>
				<path class="st4" d="M190.1,66.4V56.3h2.2v8.3h4.3v1.9L190.1,66.4L190.1,66.4z"/>
				<path class="st4" d="M198,66.4V56.3h7.2v1.9h-5v2.1h4.9v1.9h-4.9v2.3h5v1.9H198z"/>
				<path class="st4" d="M213.9,66.4l-4.8-6.6v6.6h-2.2V56.3h2.2l4.7,6.4v-6.4h2.2v10.2L213.9,66.4L213.9,66.4z"/>
				<path class="st4" d="M218,66.4V56.3h7.2v1.9h-5v2.1h4.9v1.9h-4.9v2.3h5v1.9H218z"/>
				<path class="st4" d="M230.8,66.4V56.3h5.4c1.9,0,2.9,1.2,2.9,2.6c0,1.3-0.8,2.1-1.8,2.3c1.1,0.2,2,1.2,2,2.5c0,1.5-1,2.8-3,2.8
					L230.8,66.4L230.8,66.4z M236.9,59.2c0-0.6-0.5-1.1-1.2-1.1H233v2.1h2.7C236.4,60.3,236.9,59.9,236.9,59.2z M237.1,63.4
					c0-0.6-0.5-1.2-1.3-1.2H233v2.3h2.8C236.6,64.5,237.1,64.1,237.1,63.4z"/>
			</g>
		</g>
	</g>
</g>
<polygon class="st3" points="97.4,75.1 122.6,82.1 108.7,72.9 "/>
<g>
	<path class="st4" d="M109.8,68.5V57.9l-2.4,2.5l-1.8-1.9l4.6-4.6h2.7v14.7H109.8z"/>
	<path class="st4" d="M115.1,61.2c0-3.8,1.9-7.6,6.1-7.6c4.2,0,6.1,3.8,6.1,7.6s-1.9,7.6-6.1,7.6C117,68.8,115.1,65,115.1,61.2z
		 M124.1,61.2c0-2.7-0.8-4.8-2.9-4.8c-2.1,0-2.9,2.1-2.9,4.8s0.8,4.8,2.9,4.8C123.3,66,124.1,63.9,124.1,61.2z"/>
</g>
</svg>
