<?xml version="1.0" encoding="utf-8"?>
<!-- Generator: Adobe Illustrator 25.2.3, SVG Export Plug-In . SVG Version: 6.00 Build 0)  -->
<svg version="1.1" id="Layer_1" xmlns="http://www.w3.org/2000/svg" width="248.113" height="89.546" xmlns:xlink="http://www.w3.org/1999/xlink" x="0px" y="0px"
	 viewBox="0 0 248.1 89.5" style="enable-background:new 0 0 248.1 89.5;" xml:space="preserve">
<style type="text/css">
	.st0{fill:#676D81;}
	.st1{fill:#681758;}
	.st2{fill:#FFFFFF;}
	.st3{opacity:0.92;fill:#2D314E;enable-background:new    ;}
	.st4{fill:none;}
</style>
<g>
	<g>
		<g id="Layer_2_6_">
			<g id="Layer_1-2_7_">
				<g>
					<rect x="133.9" y="18.6" class="st0" width="114.2" height="27.5"/>
				</g>
				<rect x="97.4" y="18.6" class="st1" width="37.5" height="27.5"/>
				<g>
					<rect x="193.3" y="0" class="st1" width="54.8" height="18.6"/>
				</g>
			</g>
		</g>
	</g>
	<g>
		<g id="Layer_2_5_">
			<g id="Layer_1-2_6_">
				<g>
					<rect x="133.9" y="47.6" class="st0" width="114.2" height="27.5"/>
				</g>
				<rect x="97.4" y="47.6" class="st1" width="37.5" height="27.5"/>
			</g>
		</g>
	</g>
</g>
<g>
	<g>
		<path class="st2" d="M153.6,37.5H152l-3.3-4.4l-3.3,4.4h-1.6l4-5.3l-3.8-5h1.6l3.1,4.1l3.1-4.1h1.6l-3.8,5L153.6,37.5z"/>
		<path class="st2" d="M156.2,37.5H155V27.2h1.3V37.5z"/>
		<path class="st2" d="M163.4,37.7c-1.5,0-2.7-0.5-3.7-1.5c-1-1-1.4-2.3-1.4-3.8c0-1.5,0.5-2.8,1.4-3.8c1-1,2.2-1.5,3.7-1.5
			c1.5,0,2.7,0.5,3.7,1.5c1,1,1.4,2.3,1.4,3.8c0,1.5-0.5,2.8-1.4,3.8l1,1l-0.9,0.8l-1-1.1C165.4,37.4,164.4,37.7,163.4,37.7z
			 M163.4,36.5c0.7,0,1.4-0.2,2-0.5l-1.5-1.6l0.9-0.8l1.5,1.6c0.6-0.8,1-1.8,1-2.9c0-1.2-0.4-2.2-1.1-3c-0.7-0.8-1.6-1.2-2.8-1.2
			c-1.1,0-2.1,0.4-2.8,1.2c-0.7,0.8-1,1.8-1,3c0,1.2,0.3,2.2,1,3C161.3,36.1,162.2,36.5,163.4,36.5z"/>
		<path class="st2" d="M174.7,37.7c-1.4,0-2.4-0.4-3.1-1.1s-1.1-1.8-1.1-3.1v-6.3h1.3v6.3c0,1,0.3,1.7,0.8,2.3s1.2,0.8,2.2,0.8
			s1.7-0.3,2.2-0.8c0.5-0.5,0.8-1.3,0.8-2.3v-6.3h1.3v6.3c0,1.3-0.4,2.3-1.1,3.1S176.1,37.7,174.7,37.7z"/>
		<path class="st2" d="M188.2,37.5h-6.8V27.2h6.8v1.1h-5.5v3.3h5.4v1.1h-5.4v3.6h5.5V37.5z"/>
		<path class="st2" d="M196.1,37.5H190V27.2h1.3v9.2h4.8V37.5z"/>
		<path class="st2" d="M204.6,37.5h-6.8V27.2h6.8v1.1h-5.5v3.3h5.4v1.1h-5.4v3.6h5.5V37.5z"/>
		<path class="st2" d="M215.2,37.5H214l-6-8.2v8.2h-1.3V27.2h1.3l6,8.1v-8.1h1.3V37.5z"/>
		<path class="st2" d="M224.4,37.5h-6.8V27.2h6.8v1.1h-5.5v3.3h5.4v1.1h-5.4v3.6h5.5V37.5z"/>
		<path class="st2" d="M239.3,37.5h-1.5l-0.9-2.3h-5.1l-0.9,2.3h-1.5l4.2-10.3h1.6L239.3,37.5z M236.6,34.1l-2.2-5.6l-2.2,5.6H236.6
			z"/>
	</g>
	<g>
		<path class="st2" d="M114.4,39.7h-1.8V27.4l-2.4,2.5l-1.1-1.1l3.7-3.8h1.6V39.7z"/>
		<path class="st2" d="M121.9,39.7h-1.8V27.4l-2.4,2.5l-1.1-1.1l3.7-3.8h1.6V39.7z"/>
	</g>
	<g>
		<path class="st2" d="M153.8,66.5h-1.6l-3.3-4.4l-3.3,4.4h-1.6l4-5.3l-3.8-5h1.6l3.1,4.1l3.1-4.1h1.6l-3.8,5L153.8,66.5z"/>
		<path class="st2" d="M156.5,66.5h-1.3V56.1h1.3V66.5z"/>
		<path class="st2" d="M163.6,66.7c-1.5,0-2.7-0.5-3.7-1.5c-1-1-1.4-2.3-1.4-3.8c0-1.5,0.5-2.8,1.4-3.8c1-1,2.2-1.5,3.7-1.5
			s2.7,0.5,3.7,1.5c1,1,1.4,2.3,1.4,3.8c0,1.5-0.5,2.8-1.4,3.8l1,1l-0.9,0.8l-1-1.1C165.6,66.4,164.7,66.7,163.6,66.7z M163.6,65.5
			c0.7,0,1.4-0.2,2-0.5l-1.5-1.6l0.9-0.8l1.5,1.6c0.6-0.8,1-1.8,1-2.9c0-1.2-0.4-2.2-1.1-3c-0.7-0.8-1.6-1.2-2.8-1.2
			c-1.1,0-2.1,0.4-2.8,1.2c-0.7,0.8-1,1.8-1,3c0,1.2,0.3,2.2,1,3C161.5,65.1,162.5,65.5,163.6,65.5z"/>
		<path class="st2" d="M175,66.7c-1.4,0-2.4-0.4-3.1-1.1s-1.1-1.8-1.1-3.1v-6.3h1.3v6.3c0,1,0.3,1.7,0.8,2.3s1.2,0.8,2.2,0.8
			s1.7-0.3,2.2-0.8c0.5-0.5,0.8-1.3,0.8-2.3v-6.3h1.3v6.3c0,1.3-0.4,2.3-1.1,3.1S176.3,66.7,175,66.7z"/>
		<path class="st2" d="M188.4,66.5h-6.8V56.1h6.8v1.1h-5.5v3.3h5.4v1.1h-5.4v3.6h5.5V66.5z"/>
		<path class="st2" d="M196.4,66.5h-6.1V56.1h1.3v9.2h4.8V66.5z"/>
		<path class="st2" d="M204.8,66.5h-6.8V56.1h6.8v1.1h-5.5v3.3h5.4v1.1h-5.4v3.6h5.5V66.5z"/>
		<path class="st2" d="M215.4,66.5h-1.2l-6-8.2v8.2h-1.3V56.1h1.3l6,8.1v-8.1h1.3V66.5z"/>
		<path class="st2" d="M224.6,66.5h-6.8V56.1h6.8v1.1h-5.5v3.3h5.4v1.1h-5.4v3.6h5.5V66.5z"/>
		<path class="st2" d="M235.4,66.5h-4.7V56.1h4.6c0.9,0,1.6,0.2,2.1,0.7c0.5,0.5,0.8,1.1,0.8,1.9c0,0.6-0.2,1.1-0.5,1.6
			c-0.4,0.4-0.8,0.7-1.3,0.8c0.5,0.1,1,0.4,1.4,0.9c0.4,0.5,0.6,1.1,0.6,1.7c0,0.8-0.3,1.5-0.8,2C237.1,66.2,236.3,66.5,235.4,66.5z
			 M235.1,60.6c0.6,0,1-0.2,1.3-0.5c0.3-0.3,0.5-0.7,0.5-1.2s-0.2-0.9-0.5-1.2s-0.8-0.5-1.3-0.5H232v3.3H235.1z M235.2,65.3
			c0.6,0,1.1-0.2,1.4-0.5c0.3-0.3,0.5-0.8,0.5-1.3c0-0.5-0.2-0.9-0.5-1.3c-0.3-0.3-0.8-0.5-1.4-0.5H232v3.6H235.2z"/>
	</g>
	<g>
		<path class="st2" d="M111.4,68.7h-1.8V56.4l-2.4,2.5l-1.1-1.1l3.7-3.8h1.6V68.7z"/>
		<path class="st2" d="M119.9,68.9c-1,0-1.8-0.2-2.6-0.7c-0.7-0.4-1.3-1-1.8-1.8s-0.8-1.6-1-2.4c-0.2-0.9-0.3-1.8-0.3-2.7
			s0.1-1.8,0.3-2.7c0.2-0.9,0.5-1.7,1-2.4c0.4-0.7,1-1.3,1.8-1.8c0.7-0.4,1.6-0.7,2.6-0.7c1,0,1.8,0.2,2.6,0.7s1.3,1,1.8,1.8
			c0.4,0.7,0.8,1.5,1,2.4c0.2,0.9,0.3,1.8,0.3,2.7s-0.1,1.8-0.3,2.7c-0.2,0.9-0.5,1.7-1,2.4s-1,1.3-1.8,1.8S120.8,68.9,119.9,68.9z
			 M117.7,66.4c0.6,0.6,1.3,0.9,2.2,0.9c0.9,0,1.6-0.3,2.2-0.9c0.6-0.6,1-1.3,1.2-2.2c0.2-0.9,0.3-1.8,0.3-2.9c0-1.1-0.1-2-0.3-2.9
			c-0.2-0.9-0.6-1.6-1.2-2.2c-0.6-0.6-1.3-0.9-2.2-0.9c-0.9,0-1.6,0.3-2.2,0.9c-0.6,0.6-1,1.3-1.2,2.2c-0.2,0.9-0.3,1.8-0.3,2.9
			c0,1.1,0.1,2,0.3,2.9C116.7,65,117.1,65.8,117.7,66.4z"/>
	</g>
	<g>
		<path class="st2" d="M213.5,14.4h-1.3v-2.6h-4.9v-1.1l4.4-6.6h1.8v6.6h1.5v1.1h-1.5V14.4z M212.2,10.7V5.3l-3.6,5.4H212.2z"/>
		<path class="st2" d="M225.3,14.4h-1.6l-3.3-4.4l-3.3,4.4h-1.6l4-5.3l-3.8-5h1.6l3.1,4.1l3.1-4.1h1.6l-3.8,5L225.3,14.4z"/>
		<path class="st2" d="M230.3,14.6c-0.7,0-1.3-0.1-1.8-0.4c-0.5-0.3-0.9-0.7-1.2-1.2s-0.5-1.1-0.7-1.7c-0.2-0.6-0.2-1.3-0.2-2
			c0-1.5,0.4-2.8,1.1-3.8c0.7-1,1.8-1.5,3.1-1.5c1.2,0,2.1,0.4,2.9,1.2l-0.7,1c-0.6-0.7-1.3-1.1-2.2-1.1c-0.9,0-1.7,0.4-2.2,1.2
			c-0.5,0.8-0.8,1.8-0.8,2.9v0.4c0.3-0.4,0.7-0.8,1.2-1.1c0.5-0.3,1.1-0.5,1.7-0.5c1,0,1.8,0.3,2.4,0.9c0.6,0.6,1,1.4,1,2.4
			c0,0.9-0.3,1.7-1,2.4S231.4,14.6,230.3,14.6z M230.2,13.5c0.7,0,1.3-0.2,1.7-0.7c0.4-0.5,0.6-1,0.6-1.5c0-0.7-0.2-1.3-0.7-1.7
			c-0.4-0.4-1-0.6-1.7-0.6c-0.5,0-1,0.1-1.5,0.4s-0.8,0.7-1.1,1.1c0.1,0.8,0.3,1.4,0.7,2C228.8,13.2,229.4,13.5,230.2,13.5z"/>
	</g>
</g>
<g id="_24_julho_novo" transform="translate(200.275 451.873)">
	<path id="Path_11" class="st3" d="M-66-365.5c-0.1,1.9-1.7,3.3-3.6,3.2c-1.9-0.1-3.3-1.7-3.2-3.6c0.1-1.8,1.6-3.2,3.4-3.2
		C-67.4-369-65.9-367.4-66-365.5z"/>
</g>
<g id="xiquelene" transform="translate(-425.915 -95.114)">
	<g id="Group_66" transform="translate(-490.716 -151)">
		<rect id="Rectangle_41" x="916.6" y="263" class="st4" width="106" height="56"/>
	</g>
</g>
<polygon class="st1" points="97.4,75.1 122.6,82.1 108.7,72.9 "/>
</svg>
