<svg xmlns="http://www.w3.org/2000/svg" xmlns:xlink="http://www.w3.org/1999/xlink" width="140" height="95.826" viewBox="0 0 58.58 27.46"><defs><style>.cls-1{fill:none;}.cls-2{fill:#676d81;}.cls-3{fill:#fff;}.cls-4{fill:#55bcbd;}.cls-5{clip-path:url(#clip-path);}.cls-6{fill:#002c46;}.cls-7{fill:#2d314e;}</style><clipPath id="clip-path"><rect class="cls-1" x="41.53" y="1.64" width="13" height="5"/></clipPath></defs><g id="Layer_2" data-name="Layer 2"><g id="Layer_1-2" data-name="Layer 1"><rect class="cls-2" x="9.21" y="5.64" width="49.37" height="12.24" rx="1.53"/><path class="cls-3" d="M27.12,13.82v-.61L28.89,11H27.12v-.66h2.82v.6l-1.77,2.25H30v.66Z"/><path class="cls-3" d="M33.22,13.82l-.24-.6h-1.6l-.24.6h-.9l1.44-3.51h1l1.44,3.51Zm-1-2.76-.58,1.51h1.16Z"/><path class="cls-3" d="M37.77,13.82V11.29l-1.05,2.53h-.35l-1.06-2.53v2.53h-.79V10.31h1.11l.91,2.19.91-2.19h1.13v3.51Z"/><path class="cls-3" d="M39.36,13.82V10.31h2c.72,0,1.08.43,1.08.9a.79.79,0,0,1-.64.8.86.86,0,0,1,.72.86,1,1,0,0,1-1.09,1Zm2.24-2.48c0-.22-.17-.37-.44-.37h-1v.74h1C41.43,11.71,41.6,11.56,41.6,11.34Zm.07,1.42c0-.22-.17-.4-.48-.4h-1v.8h1C41.49,13.16,41.67,13,41.67,12.76Z"/><path class="cls-3" d="M43.13,13.82V10.31h.8v3.51Z"/><rect class="cls-4" x="37.48" width="21.1" height="8.28" rx="0.91"/><g class="cls-5"><path class="cls-6" d="M41.76,4.28A2.09,2.09,0,0,1,44,2a2.19,2.19,0,0,1,1.38.45l-.45.72A1.25,1.25,0,0,0,44,2.85a1.17,1.17,0,0,0-1.17,1.24v.09A1.55,1.55,0,0,1,44,3.61,1.45,1.45,0,0,1,45.58,5a1.61,1.61,0,0,1-1.79,1.5A2,2,0,0,1,41.76,4.28Zm2.81.79c0-.46-.43-.66-.87-.66a1.21,1.21,0,0,0-.92.42.9.9,0,0,0,.95.88C44.27,5.71,44.57,5.37,44.57,5.07Z"/><path class="cls-6" d="M49.37,6.46,48.2,4.86,47,6.46H45.83l1.7-2.24L45.94,2.08h1.18l1.08,1.5,1.06-1.5h1.2l-1.6,2.13,1.7,2.25Z"/><path class="cls-6" d="M50.74,5.84l.52-.63a1.89,1.89,0,0,0,1.29.5c.57,0,.88-.23.88-.56s-.29-.5-.94-.5h-.58V3.82h.58c.52,0,.87-.15.87-.47s-.38-.51-.87-.51a1.73,1.73,0,0,0-1.19.45l-.5-.59A2.38,2.38,0,0,1,52.59,2c1.1,0,1.77.46,1.77,1.19a1.1,1.1,0,0,1-1,1,1.15,1.15,0,0,1,1.1,1c0,.76-.72,1.29-1.85,1.29A2.43,2.43,0,0,1,50.74,5.84Z"/></g><rect class="cls-4" x="1.8" y="3.41" width="16.7" height="16.7" rx="4" transform="translate(-5.34 10.62) rotate(-45)"/><path class="cls-6" d="M7.27,14.67V10.06l-1,1.08-.78-.81,2-2H8.62v6.35Z"/><path class="cls-6" d="M12.53,14.67V13.36h-3V12.29l2.52-4h1.87v3.85h.82v1.19h-.82v1.31Zm0-5.15-1.72,2.65h1.72Z"/><path class="cls-7" d="M8.61,26.06A1.74,1.74,0,0,1,10,23.91a1.92,1.92,0,0,1,2.27,1.35,1.76,1.76,0,0,1-1.35,2.16,1.92,1.92,0,0,1-2.27-1.36"/></g></g></svg>