<svg xmlns="http://www.w3.org/2000/svg" xmlns:xlink="http://www.w3.org/1999/xlink" width="120" height="95.826" viewBox="0 0 58.58 39.05"><defs><style>.cls-1{fill:none;}.cls-2{fill:#292333;}.cls-3{fill:#fff;}.cls-4{fill:#55bcbd;}.cls-5{clip-path:url(#clip-path);}.cls-6{fill:#002c46;}.cls-7{fill:#2d314e;}.cls-8{fill:#676d81;}</style><clipPath id="clip-path"><rect class="cls-1" x="41.53" y="5.78" width="13" height="5"/></clipPath></defs><g id="Layer_2" data-name="Layer 2"><g id="Layer_1-2" data-name="Layer 1"><rect class="cls-2" x="9.21" y="9.78" width="49.37" height="12.24" rx="1.53"/><path class="cls-3" d="M27.12,18v-.61l1.77-2.24H27.12v-.66h2.82v.6L28.17,17.3H30V18Z"/><path class="cls-3" d="M33.22,18l-.24-.6h-1.6l-.24.6h-.9l1.44-3.51h1L34.12,18Zm-1-2.76-.58,1.51h1.16Z"/><path class="cls-3" d="M37.77,18V15.43L36.72,18h-.35l-1.06-2.53V18h-.79V14.45h1.11l.91,2.19.91-2.19h1.13V18Z"/><path class="cls-3" d="M39.36,18V14.45h2c.72,0,1.08.43,1.08.9a.79.79,0,0,1-.64.8.85.85,0,0,1,.71.85,1,1,0,0,1-1.08,1Zm2.24-2.48c0-.22-.17-.37-.44-.37h-1v.73h1C41.43,15.84,41.6,15.7,41.6,15.48Zm.07,1.42c0-.22-.17-.4-.48-.4h-1v.8h1C41.49,17.3,41.67,17.15,41.67,16.9Z"/><path class="cls-3" d="M43.13,18V14.45h.8V18Z"/><path class="cls-3" d="M46.2,18V14.45h2a.94.94,0,0,1,1.07.9.79.79,0,0,1-.64.8.86.86,0,0,1,.72.85,1,1,0,0,1-1.09,1Zm2.24-2.48c0-.22-.17-.37-.44-.37H47v.73h1C48.27,15.84,48.44,15.7,48.44,15.48Zm.07,1.42c0-.22-.17-.4-.48-.4H47v.8h1C48.33,17.3,48.51,17.15,48.51,16.9Z"/><rect class="cls-4" x="37.48" y="4.14" width="21.1" height="8.28" rx="0.91"/><g class="cls-5"><path class="cls-6" d="M41.77,8.42A2.07,2.07,0,0,1,44,6.16a2.14,2.14,0,0,1,1.38.45l-.45.72A1.26,1.26,0,0,0,44,7a1.18,1.18,0,0,0-1.17,1.24v.1A1.55,1.55,0,0,1,44,7.75a1.45,1.45,0,0,1,1.6,1.43,1.61,1.61,0,0,1-1.79,1.5C42.36,10.68,41.77,9.65,41.77,8.42Zm2.79.79c0-.46-.42-.66-.86-.66a1.21,1.21,0,0,0-.92.42.9.9,0,0,0,.95.88C44.27,9.85,44.56,9.51,44.56,9.21Z"/><path class="cls-6" d="M49.37,10.6,48.19,9,47,10.6H45.83l1.7-2.24L45.94,6.22h1.18l1.07,1.5,1.07-1.5h1.2l-1.6,2.13,1.7,2.25Z"/><path class="cls-6" d="M50.74,10l.52-.63a1.89,1.89,0,0,0,1.29.5c.57,0,.88-.23.88-.56s-.28-.5-.94-.5h-.58V8h.58c.52,0,.87-.15.87-.47S53,7,52.49,7a1.74,1.74,0,0,0-1.19.46l-.5-.59a2.38,2.38,0,0,1,1.79-.69c1.1,0,1.77.46,1.77,1.19a1.1,1.1,0,0,1-1,1,1.15,1.15,0,0,1,1.1,1.05c0,.76-.72,1.29-1.85,1.29A2.43,2.43,0,0,1,50.74,10Z"/></g><rect class="cls-4" x="1.8" y="7.55" width="16.7" height="16.7" rx="4" transform="translate(-8.27 11.83) rotate(-45)"/><path class="cls-7" d="M8.61,2.2A1.74,1.74,0,0,1,10,.05,1.92,1.92,0,0,1,12.23,1.4a1.76,1.76,0,0,1-1.35,2.16A1.92,1.92,0,0,1,8.61,2.2"/><path class="cls-6" d="M5.66,15.64c0-1.64.81-3.28,2.63-3.28s2.63,1.64,2.63,3.28-.81,3.28-2.63,3.28S5.66,17.28,5.66,15.64Zm3.88,0c0-1.17-.33-2.08-1.25-2.08S7,14.47,7,15.64s.35,2.08,1.25,2.08S9.54,16.81,9.54,15.64Z"/><path class="cls-6" d="M13.17,18.81V14.2l-1.05,1.08-.77-.81,2-2h1.18v6.35Z"/><rect class="cls-8" x="9.21" y="22.78" width="49.37" height="12.24" rx="1.53"/><path class="cls-3" d="M27.12,31v-.61l1.77-2.24H27.12v-.66h2.82v.6L28.17,30.3H30V31Z"/><path class="cls-3" d="M33.22,31l-.24-.6h-1.6l-.24.6h-.9l1.44-3.51h1L34.12,31Zm-1-2.76-.58,1.51h1.16Z"/><path class="cls-3" d="M37.77,31V28.43L36.72,31h-.35l-1.06-2.53V31h-.79V27.45h1.11l.91,2.19.91-2.19h1.13V31Z"/><path class="cls-3" d="M39.36,31V27.45h2c.72,0,1.08.43,1.08.9a.79.79,0,0,1-.64.8.85.85,0,0,1,.71.85,1,1,0,0,1-1.08,1Zm2.24-2.48c0-.22-.17-.37-.44-.37h-1v.73h1C41.43,28.84,41.6,28.7,41.6,28.48Zm.07,1.42c0-.22-.17-.4-.48-.4h-1v.8h1C41.49,30.3,41.67,30.15,41.67,29.9Z"/><path class="cls-3" d="M43.13,31V27.45h.8V31Z"/><path class="cls-3" d="M48.79,31l-.23-.6H47l-.23.6h-.91l1.44-3.51h1L49.7,31Zm-1-2.76-.58,1.51h1.17Z"/><rect class="cls-4" x="1.8" y="20.55" width="16.7" height="16.7" rx="4" transform="translate(-17.46 15.64) rotate(-45)"/><path class="cls-6" d="M4.66,28.64c0-1.64.81-3.28,2.63-3.28S9.92,27,9.92,28.64s-.81,3.28-2.63,3.28S4.66,30.28,4.66,28.64Zm3.88,0c0-1.17-.33-2.08-1.25-2.08S6,27.47,6,28.64s.35,2.08,1.25,2.08S8.54,29.81,8.54,28.64Z"/><path class="cls-6" d="M10.69,31.81V30.74c2.6-1.92,3.36-2.57,3.36-3.35,0-.56-.5-.83-1-.83a2.27,2.27,0,0,0-1.7.74l-.77-.9a3.23,3.23,0,0,1,2.44-1,2.16,2.16,0,0,1,2.43,2c0,1.09-.89,2-2.54,3.23h2.59v1.19Z"/></g></g></svg>