<?xml version="1.0" encoding="utf-8"?>
<!-- Generator: Adobe Illustrator 25.2.3, SVG Export Plug-In . SVG Version: 6.00 Build 0)  -->
<svg version="1.1" id="Layer_1" xmlns="http://www.w3.org/2000/svg" width="243.725" height="95.826" xmlns:xlink="http://www.w3.org/1999/xlink" x="0px" y="0px"
	 viewBox="0 0 243.7 95.8" style="enable-background:new 0 0 243.7 95.8;" xml:space="preserve">
<style type="text/css">
	.st0{fill:#55BCBD;}
	.st1{fill:#292333;}
	.st2{fill:#676D81;}
	.st3{fill:#002C46;stroke:#002C46;stroke-width:0.7;stroke-miterlimit:10.001;}
	.st4{fill:#002C46;}
	.st5{fill:#FFFFFF;stroke:#FFFFFF;stroke-width:0.5001;stroke-miterlimit:10.001;}
	.st6{opacity:0.92;fill:#2D314E;enable-background:new    ;}
	.st7{fill:none;}
</style>
<g>
	<g>
		<g id="Layer_1-2_14_">
			<rect x="105.5" y="23.1" class="st0" width="29.9" height="21.9"/>
			<g>
				<rect x="16" y="8.2" class="st0" width="43.6" height="19.2"/>
			</g>
		</g>
		<g>
			<rect x="16" y="23.1" class="st1" width="90.2" height="21.9"/>
		</g>
		<g id="Layer_1-2_13_">
			<polygon class="st0" points="105.5,45.7 135.3,45.7 135.3,67.6 112.7,67.6 107.1,67.6 105.5,67.6 			"/>
		</g>
		<g>
			<rect x="16" y="45.7" class="st2" width="90.2" height="21.9"/>
		</g>
	</g>
	<polygon class="st0" points="135.3,66.3 135.3,77.1 128.5,64.9 	"/>
</g>
<g>
	<path class="st3" d="M118.4,38.5c-0.6,0-1-0.1-1.6-0.4c-0.4-0.3-0.8-0.6-1-1c-0.3-0.4-0.4-1-0.6-1.4c-0.1-0.5-0.2-1-0.2-1.6
		c0-0.5,0.1-1,0.2-1.6c0.1-0.5,0.3-1,0.6-1.4c0.3-0.3,0.6-0.8,1-1s1-0.4,1.6-0.4s1,0.1,1.6,0.4c0.4,0.3,0.8,0.6,1,1
		c0.3,0.4,0.4,0.9,0.6,1.4c0.1,0.5,0.2,1,0.2,1.6c0,0.5-0.1,1-0.2,1.6c-0.1,0.5-0.3,1-0.6,1.4c-0.3,0.4-0.6,0.8-1,1
		C119.5,38.4,119,38.5,118.4,38.5z M117.1,37c0.3,0.3,0.8,0.5,1.3,0.5s1-0.2,1.3-0.5c0.3-0.3,0.6-0.8,0.7-1.3c0.1-0.5,0.2-1,0.2-1.7
		c0-0.6-0.1-1.2-0.2-1.7c-0.1-0.5-0.3-1-0.7-1.3c-0.3-0.3-0.8-0.5-1.3-0.5s-1,0.2-1.3,0.5c-0.3,0.3-0.6,0.8-0.7,1.3
		c-0.1,0.5-0.2,1-0.2,1.7c0,0.7,0.1,1.2,0.2,1.7C116.6,36.3,116.8,36.6,117.1,37z"/>
	<path class="st3" d="M125.8,38.4h-1v-7.3l-1.4,1.5l-0.6-0.6l2.2-2.3h1C125.8,29.7,125.8,38.4,125.8,38.4z"/>
</g>
<g>
	<path class="st3" d="M116.9,61.1c-0.6,0-1-0.1-1.6-0.4c-0.4-0.3-0.8-0.6-1-1c-0.3-0.4-0.4-1-0.6-1.4c-0.1-0.5-0.2-1-0.2-1.6
		c0-0.5,0.1-1,0.2-1.6c0.1-0.5,0.3-1,0.6-1.4c0.3-0.4,0.6-0.8,1-1c0.4-0.3,1-0.4,1.6-0.4c0.6,0,1,0.1,1.6,0.4c0.4,0.3,0.8,0.6,1,1
		c0.3,0.4,0.4,0.9,0.6,1.4c0.1,0.5,0.2,1,0.2,1.6c0,0.5-0.1,1-0.2,1.6c-0.1,0.5-0.3,1-0.6,1.4c-0.3,0.3-0.6,0.8-1,1
		C118,61,117.4,61.1,116.9,61.1z M115.6,59.6c0.3,0.3,0.8,0.5,1.3,0.5c0.5,0,1-0.2,1.3-0.5c0.3-0.3,0.6-0.8,0.7-1.3
		c0.1-0.5,0.2-1,0.2-1.7c0-0.6-0.1-1.2-0.2-1.7c-0.1-0.5-0.3-1-0.7-1.3c-0.3-0.3-0.8-0.5-1.3-0.5c-0.5,0-1,0.2-1.3,0.5
		c-0.3,0.3-0.6,0.8-0.7,1.3c-0.1,0.5-0.2,1-0.2,1.7s0.1,1.2,0.2,1.7C115.1,58.8,115.2,59.2,115.6,59.6z"/>
	<path class="st3" d="M127.4,60.9h-5.9v-0.9c1.7-1.4,3-2.4,3.7-3.2c0.7-0.8,1-1.5,1-2.2c0-0.5-0.2-0.9-0.5-1.2
		c-0.3-0.3-0.8-0.4-1.3-0.4c-1,0-1.7,0.3-2.3,1l-0.6-0.7c0.3-0.4,0.8-0.8,1.3-1c0.5-0.3,1.1-0.3,1.7-0.3c0.8,0,1.5,0.3,2.1,0.6
		c0.6,0.3,0.9,1,0.9,1.9c0,0.9-0.3,1.6-1,2.4c-0.7,0.9-1.7,1.7-3.2,2.9h4.2L127.4,60.9L127.4,60.9z"/>
</g>
<g>
	<path class="st4" d="M29.7,20.4c-0.6,0-1.2-0.1-1.6-0.4c-0.4-0.3-0.8-0.6-1.1-1.1s-0.4-1-0.6-1.5c-0.2-0.5-0.2-1.2-0.2-1.8
		c0-1.3,0.4-2.5,1-3.4c0.6-0.9,1.6-1.3,2.7-1.3s1.9,0.4,2.6,1.1l-0.6,0.9c-0.5-0.6-1.2-1-2-1s-1.5,0.4-2,1.1s-0.7,1.6-0.7,2.6V16
		c0.3-0.4,0.6-0.7,1.1-1c0.4-0.3,1-0.4,1.5-0.4c0.9,0,1.6,0.3,2.1,0.8c0.5,0.5,0.9,1.2,0.9,2.1c0,0.8-0.3,1.5-0.9,2.1
		C31.4,20.2,30.6,20.4,29.7,20.4z M29.7,19.4c0.6,0,1.2-0.2,1.5-0.6c0.4-0.4,0.5-0.9,0.5-1.3c0-0.6-0.2-1.2-0.6-1.5
		c-0.4-0.4-0.9-0.5-1.5-0.5c-0.4,0-0.9,0.1-1.3,0.4c-0.4,0.3-0.7,0.6-1,1c0.1,0.7,0.3,1.2,0.6,1.8C28.3,19.2,28.9,19.4,29.7,19.4z"
		/>
	<path class="st4" d="M42.3,20.2h-1.4L38,16.3l-2.9,3.9h-1.4l3.5-4.7l-3.4-4.4h1.4l2.7,3.6l2.7-3.6H42l-3.4,4.4L42.3,20.2z"/>
	<path class="st4" d="M46.2,20.4c-0.7,0-1.4-0.2-2-0.4c-0.5-0.3-1-0.6-1.3-1.1l0.7-0.7c0.3,0.4,0.6,0.6,1.1,0.9
		c0.4,0.2,1,0.4,1.5,0.4c0.6,0,1.2-0.2,1.6-0.4c0.4-0.4,0.6-0.7,0.6-1.2s-0.2-1-0.6-1.2c-0.4-0.3-1-0.4-1.7-0.4c-0.5,0-0.9,0-1,0
		v-1.1c0.1,0,0.4,0,1,0c0.6,0,1.2-0.1,1.5-0.4c0.4-0.3,0.6-0.6,0.6-1.2c0-0.4-0.2-0.9-0.6-1.2c-0.4-0.3-0.9-0.4-1.5-0.4
		c-0.9,0-1.8,0.4-2.4,1.2l-0.6-0.7c0.8-1,1.9-1.4,3.1-1.4c0.9,0,1.7,0.2,2.2,0.6c0.6,0.4,0.9,1.1,0.9,1.8c0,0.6-0.2,1.1-0.6,1.4
		c-0.4,0.4-0.9,0.6-1.3,0.7c0.5,0.1,1,0.3,1.4,0.7s0.7,0.9,0.7,1.6c0,0.8-0.3,1.4-0.9,1.9C47.9,20.1,47.1,20.4,46.2,20.4z"/>
</g>
<g>
	<path class="st5" d="M42.3,38.7h-6.7v-1l5.1-7.2h-5.1v-1h6.6v1L37,37.7h5.3V38.7z"/>
	<path class="st5" d="M51.9,38.7h-1.3l-0.8-2h-4.5l-0.9,2h-1.3l3.7-9.1h1.4L51.9,38.7z M49.4,35.6l-2-5l-2,5H49.4z"/>
	<path class="st5" d="M62,38.7h-1V31l-3.1,7.7h-0.4L54.4,31v7.7h-1.2v-9.1h1.6l2.8,7.1l2.8-7.1H62V38.7z"/>
	<path class="st5" d="M68.4,38.7h-4.2v-9.1h4.1c0.8,0,1.4,0.2,1.9,0.6c0.4,0.4,0.7,1,0.7,1.7c0,0.5-0.2,1-0.4,1.4
		c-0.4,0.4-0.7,0.6-1.2,0.7c0.4,0.1,0.9,0.4,1.2,0.8c0.4,0.4,0.5,1,0.5,1.5c0,0.7-0.3,1.3-0.7,1.8C69.8,38.5,69.2,38.7,68.4,38.7z
		 M68.1,33.5c0.5,0,0.9-0.2,1.2-0.4c0.3-0.2,0.4-0.6,0.4-1.1c0-0.4-0.2-0.8-0.4-1.1c-0.2-0.3-0.7-0.4-1.2-0.4h-2.7v2.9L68.1,33.5
		L68.1,33.5z M68.1,37.7c0.5,0,1-0.2,1.2-0.4c0.3-0.3,0.4-0.7,0.4-1.2c0-0.5-0.2-0.8-0.4-1.2c-0.3-0.3-0.7-0.4-1.2-0.4h-2.7v3.2
		C65.4,37.7,68.1,37.7,68.1,37.7z"/>
	<path class="st5" d="M74,38.7h-1.2v-9.1H74V38.7z"/>
	<path class="st5" d="M83.8,38.7h-4.2v-9.1h4.1c0.8,0,1.4,0.2,1.9,0.6c0.4,0.4,0.7,1,0.7,1.7c0,0.5-0.2,1-0.4,1.4
		c-0.4,0.4-0.7,0.6-1.2,0.7c0.4,0.1,0.9,0.4,1.2,0.8c0.4,0.4,0.5,1,0.5,1.5c0,0.7-0.3,1.3-0.7,1.8C85.3,38.6,84.7,38.7,83.8,38.7z
		 M83.6,33.5c0.5,0,0.9-0.2,1.2-0.4c0.3-0.3,0.4-0.6,0.4-1.1c0-0.4-0.2-0.8-0.4-1.1c-0.3-0.3-0.7-0.4-1.2-0.4h-2.7v2.9L83.6,33.5
		L83.6,33.5z M83.7,37.7c0.5,0,1-0.2,1.2-0.4c0.2-0.2,0.4-0.7,0.4-1.2c0-0.5-0.2-0.8-0.4-1.2c-0.3-0.3-0.7-0.4-1.2-0.4h-2.8v3.2
		C80.9,37.7,83.7,37.7,83.7,37.7z"/>
</g>
<g>
	<path class="st5" d="M42.1,61.3h-6.7v-1l5.1-7.2h-5.1v-1H42v1l-5.1,7.2h5.2C42.1,60.3,42.1,61.3,42.1,61.3z"/>
	<path class="st5" d="M51.7,61.3h-1.3l-0.8-2H45l-0.8,2h-1.3l3.7-9.1H48L51.7,61.3z M49.3,58.2l-2-5l-2,5H49.3z"/>
	<path class="st5" d="M61.9,61.3h-1.2v-7.7l-3.1,7.7h-0.4l-3.1-7.7v7.7h-1.2v-9.1h1.6l2.8,7.1l2.8-7.1h1.7v9.1H61.9z"/>
	<path class="st5" d="M68.2,61.3H64v-9.1h4c0.8,0,1.4,0.2,1.9,0.6c0.4,0.4,0.7,1,0.7,1.7c0,0.5-0.2,1-0.4,1.4
		c-0.4,0.4-0.7,0.6-1.2,0.7c0.4,0.1,0.9,0.4,1.2,0.8c0.3,0.4,0.5,1,0.5,1.5c0,0.7-0.3,1.3-0.7,1.8C69.6,61.2,69,61.3,68.2,61.3z
		 M67.9,56.1c0.5,0,0.9-0.2,1.2-0.4c0.3-0.3,0.4-0.6,0.4-1.1c0-0.4-0.2-0.8-0.4-1.1c-0.3-0.3-0.7-0.4-1.2-0.4h-2.7V56L67.9,56.1
		L67.9,56.1z M68,60.3c0.5,0,1-0.2,1.2-0.4c0.2-0.2,0.4-0.7,0.4-1.2c0-0.5-0.2-0.8-0.4-1.2c-0.3-0.3-0.7-0.4-1.2-0.4h-2.8v3.2
		C65.2,60.3,68,60.3,68,60.3z"/>
	<path class="st5" d="M73.8,61.3h-1.2v-9.1h1.2V61.3z"/>
	<path class="st5" d="M87.4,61.3h-1.3l-0.8-2h-4.5l-0.8,2h-1.3l3.6-9.1h1.4L87.4,61.3z M84.9,58.2l-2-5l-2,5H84.9z"/>
</g>
<g id="zambi" transform="translate(-200.275 -451.873)">
	<g id="_24_julho_novo" transform="translate(200.275 451.873)">
		<path id="Path_11" class="st6" d="M138.2,88.1c-0.1,1.7-1.5,3-3.2,2.9c-1.7-0.1-3-1.5-2.9-3.2c0.1-1.6,1.4-2.9,3.1-2.9
			C136.9,84.9,138.3,86.4,138.2,88.1z"/>
	</g>
	<rect id="Rectangle_43" x="357.8" y="488.3" class="st7" width="86.2" height="23.4"/>
</g>
</svg>
