<?xml version="1.0" encoding="utf-8"?>
<!-- Generator: Adobe Illustrator 25.2.3, SVG Export Plug-In . SVG Version: 6.00 Build 0)  -->
<svg version="1.1" id="Layer_1" xmlns="http://www.w3.org/2000/svg" width="243.725" height="95.826" xmlns:xlink="http://www.w3.org/1999/xlink" x="0px" y="0px"
	 viewBox="0 0 243.7 95.8" style="enable-background:new 0 0 243.7 95.8;" xml:space="preserve">
<style type="text/css">
	.st0{fill:#55BCBD;}
	.st1{fill:#292333;}
	.st2{fill:#676D81;}
	.st3{fill:#002C46;}
	.st4{fill:#FFFFFF;}
	.st5{opacity:0.92;fill:#2D314E;enable-background:new    ;}
	.st6{fill:none;}
</style>
<g>
	<g>
		<g id="Layer_1-2_14_">
			<rect x="101.2" y="22.4" class="st0" width="33.7" height="24.7"/>
			<g>
				<rect x="0.3" y="5.7" class="st0" width="49.2" height="21.7"/>
			</g>
		</g>
		<g>
			<rect x="0.3" y="22.5" class="st1" width="101.8" height="24.7"/>
		</g>
		<g id="Layer_1-2_13_">
			<polygon class="st0" points="101.2,47.9 134.8,47.9 134.8,72.6 109.4,72.6 103,72.6 101.2,72.6 			"/>
		</g>
		<g>
			<rect x="0.3" y="48" class="st2" width="101.8" height="24.7"/>
		</g>
	</g>
	<polygon class="st0" points="134.8,71.2 134.8,83.4 122,68.5 	"/>
</g>
<g>
	<path class="st3" d="M114.7,42.4c-1,0-1.8-0.2-2.6-0.7c-0.7-0.4-1.3-1-1.8-1.8s-0.8-1.6-1-2.4c-0.2-0.9-0.3-1.8-0.3-2.7
		c0-0.9,0.1-1.8,0.3-2.7c0.2-0.9,0.5-1.7,1-2.4s1-1.3,1.8-1.8c0.7-0.4,1.6-0.7,2.6-0.7c1,0,1.8,0.2,2.6,0.7c0.7,0.4,1.3,1,1.8,1.8
		s0.8,1.5,1,2.4c0.2,0.9,0.3,1.8,0.3,2.7c0,0.9-0.1,1.8-0.3,2.7c-0.2,0.9-0.5,1.7-1,2.4s-1,1.3-1.8,1.8S115.7,42.4,114.7,42.4z
		 M112.5,39.8c0.6,0.6,1.3,0.9,2.2,0.9c0.9,0,1.6-0.3,2.2-0.9c0.6-0.6,1-1.3,1.2-2.2c0.2-0.9,0.3-1.8,0.3-2.9c0-1.1-0.1-2-0.3-2.9
		c-0.2-0.9-0.6-1.6-1.2-2.2c-0.6-0.6-1.3-0.9-2.2-0.9c-0.9,0-1.6,0.3-2.2,0.9c-0.6,0.6-1,1.3-1.2,2.2c-0.2,0.9-0.3,1.8-0.3,2.9
		c0,1.1,0.1,2,0.3,2.9C111.5,38.5,111.9,39.2,112.5,39.8z"/>
	<path class="st3" d="M127.2,42.1h-1.8V29.8l-2.4,2.5l-1.1-1.1l3.7-3.8h1.6V42.1z"/>
</g>
<g>
	<path class="st3" d="M112,67.9c-1,0-1.8-0.2-2.6-0.7c-0.7-0.4-1.3-1-1.8-1.8s-0.8-1.6-1-2.4c-0.2-0.9-0.3-1.8-0.3-2.7
		c0-0.9,0.1-1.8,0.3-2.7c0.2-0.9,0.5-1.7,1-2.4c0.4-0.7,1-1.3,1.8-1.8c0.7-0.4,1.6-0.7,2.6-0.7c1,0,1.8,0.2,2.6,0.7s1.3,1,1.8,1.8
		c0.4,0.7,0.8,1.5,1,2.4c0.2,0.9,0.3,1.8,0.3,2.7c0,0.9-0.1,1.8-0.3,2.7c-0.2,0.9-0.5,1.7-1,2.4s-1,1.3-1.8,1.8S112.9,67.9,112,67.9
		z M109.8,65.3c0.6,0.6,1.3,0.9,2.2,0.9c0.9,0,1.6-0.3,2.2-0.9c0.6-0.6,1-1.3,1.2-2.2c0.2-0.9,0.3-1.8,0.3-2.9c0-1.1-0.1-2-0.3-2.9
		c-0.2-0.9-0.6-1.6-1.2-2.2c-0.6-0.6-1.3-0.9-2.2-0.9c-0.9,0-1.6,0.3-2.2,0.9c-0.6,0.6-1,1.3-1.2,2.2c-0.2,0.9-0.3,1.8-0.3,2.9
		c0,1.1,0.1,2,0.3,2.9C108.8,64,109.2,64.7,109.8,65.3z"/>
	<path class="st3" d="M130,67.6h-10.1v-1.5c3-2.3,5.1-4.2,6.3-5.4c1.2-1.3,1.8-2.5,1.8-3.7c0-0.9-0.3-1.5-0.9-2
		c-0.6-0.5-1.3-0.7-2.2-0.7c-1.7,0-3,0.6-4,1.8l-1.1-1.2c0.6-0.7,1.3-1.3,2.2-1.7c0.9-0.4,1.9-0.6,2.9-0.6c1.3,0,2.5,0.4,3.5,1.1
		c1,0.7,1.5,1.8,1.5,3.2c0,1.4-0.6,2.7-1.8,4.1c-1.2,1.4-3,3-5.4,4.9h7.2V67.6z"/>
</g>
<g>
	<path class="st3" d="M15.7,19.4c-0.7,0-1.3-0.1-1.8-0.4c-0.5-0.3-0.9-0.7-1.2-1.2s-0.5-1.1-0.7-1.7c-0.2-0.6-0.2-1.3-0.2-2
		c0-1.5,0.4-2.8,1.1-3.8c0.7-1,1.8-1.5,3.1-1.5c1.2,0,2.1,0.4,2.9,1.2l-0.7,1c-0.6-0.7-1.3-1.1-2.2-1.1c-0.9,0-1.7,0.4-2.2,1.2
		c-0.5,0.8-0.8,1.8-0.8,2.9v0.4c0.3-0.4,0.7-0.8,1.2-1.1c0.5-0.3,1.1-0.5,1.7-0.5c1,0,1.8,0.3,2.4,0.9c0.6,0.6,1,1.4,1,2.4
		c0,0.9-0.3,1.7-1,2.4S16.8,19.4,15.7,19.4z M15.7,18.3c0.7,0,1.3-0.2,1.7-0.7c0.4-0.5,0.6-1,0.6-1.5c0-0.7-0.2-1.3-0.7-1.7
		c-0.4-0.4-1-0.6-1.7-0.6c-0.5,0-1,0.1-1.5,0.4s-0.8,0.7-1.1,1.1c0.1,0.8,0.3,1.4,0.7,2C14.2,18,14.8,18.3,15.7,18.3z"/>
	<path class="st3" d="M30,19.2h-1.6l-3.3-4.4l-3.3,4.4h-1.6l4-5.3l-3.8-5h1.6l3.1,4.1l3.1-4.1h1.6l-3.8,5L30,19.2z"/>
	<path class="st3" d="M34.3,19.4c-0.8,0-1.6-0.2-2.2-0.5c-0.6-0.3-1.1-0.7-1.5-1.2l0.8-0.8c0.3,0.4,0.7,0.7,1.2,1
		c0.5,0.2,1.1,0.4,1.7,0.4c0.7,0,1.3-0.2,1.8-0.5c0.4-0.4,0.7-0.8,0.7-1.4c0-0.6-0.2-1.1-0.7-1.4c-0.5-0.3-1.1-0.4-1.9-0.4
		c-0.6,0-1,0-1.1,0v-1.2c0.1,0,0.5,0,1.1,0c0.7,0,1.3-0.1,1.7-0.4c0.5-0.3,0.7-0.7,0.7-1.3c0-0.5-0.2-1-0.7-1.3
		c-0.4-0.3-1-0.5-1.7-0.5c-1,0-2,0.4-2.7,1.3l-0.7-0.8c0.9-1.1,2.1-1.6,3.5-1.6c1,0,1.9,0.2,2.5,0.7c0.7,0.5,1,1.2,1,2
		c0,0.7-0.2,1.2-0.7,1.6c-0.5,0.4-1,0.7-1.5,0.8c0.6,0.1,1.1,0.3,1.6,0.8s0.8,1,0.8,1.8c0,0.9-0.3,1.6-1,2.1
		C36.3,19.1,35.4,19.4,34.3,19.4z"/>
</g>
<g>
	<path class="st4" d="M30,40h-7.6v-1.1l5.8-8.1h-5.8v-1.1h7.5v1.1L24,38.9H30V40z"/>
	<path class="st4" d="M40.8,40h-1.5l-0.9-2.3h-5.1L32.3,40h-1.5L35,29.7h1.6L40.8,40z M38,36.6L35.8,31l-2.2,5.6H38z"/>
	<path class="st4" d="M52.2,40H51v-8.7L47.5,40h-0.5l-3.5-8.7V40h-1.3V29.7H44l3.2,8l3.2-8h1.8V40z"/>
	<path class="st4" d="M59.4,40h-4.7V29.7h4.6c0.9,0,1.6,0.2,2.1,0.7c0.5,0.5,0.8,1.1,0.8,1.9c0,0.6-0.2,1.1-0.5,1.6
		c-0.4,0.4-0.8,0.7-1.3,0.8c0.5,0.1,1,0.4,1.4,0.9c0.4,0.5,0.6,1.1,0.6,1.7c0,0.8-0.3,1.5-0.8,2C61,39.8,60.3,40,59.4,40z
		 M59.1,34.2c0.6,0,1-0.2,1.3-0.5c0.3-0.3,0.5-0.7,0.5-1.2c0-0.5-0.2-0.9-0.5-1.2c-0.3-0.3-0.8-0.5-1.3-0.5H56v3.3H59.1z M59.1,38.9
		c0.6,0,1.1-0.2,1.4-0.5c0.3-0.3,0.5-0.8,0.5-1.3c0-0.5-0.2-0.9-0.5-1.3c-0.3-0.3-0.8-0.5-1.4-0.5H56v3.6H59.1z"/>
	<path class="st4" d="M65.7,40h-1.3V29.7h1.3V40z"/>
	<path class="st4" d="M76.8,40h-4.7V29.7h4.6c0.9,0,1.6,0.2,2.1,0.7c0.5,0.5,0.8,1.1,0.8,1.9c0,0.6-0.2,1.1-0.5,1.6
		c-0.4,0.4-0.8,0.7-1.3,0.8c0.5,0.1,1,0.4,1.4,0.9c0.4,0.5,0.6,1.1,0.6,1.7c0,0.8-0.3,1.5-0.8,2C78.5,39.8,77.8,40,76.8,40z
		 M76.5,34.2c0.6,0,1-0.2,1.3-0.5c0.3-0.3,0.5-0.7,0.5-1.2c0-0.5-0.2-0.9-0.5-1.2c-0.3-0.3-0.8-0.5-1.3-0.5h-3.1v3.3H76.5z
		 M76.6,38.9c0.6,0,1.1-0.2,1.4-0.5c0.3-0.3,0.5-0.8,0.5-1.3c0-0.5-0.2-0.9-0.5-1.3c-0.3-0.3-0.8-0.5-1.4-0.5h-3.2v3.6H76.6z"/>
</g>
<g>
	<path class="st4" d="M29.7,65.5h-7.6v-1.1l5.8-8.1h-5.8v-1.1h7.5v1.1l-5.8,8.1h5.9V65.5z"/>
	<path class="st4" d="M40.6,65.5h-1.5l-0.9-2.3H33l-0.9,2.3h-1.5l4.2-10.3h1.6L40.6,65.5z M37.8,62.1l-2.2-5.6l-2.2,5.6H37.8z"/>
	<path class="st4" d="M52,65.5h-1.3v-8.7l-3.5,8.7h-0.5l-3.5-8.7v8.7h-1.3V55.2h1.8l3.2,8l3.2-8H52V65.5z"/>
	<path class="st4" d="M59.2,65.5h-4.7V55.2H59c0.9,0,1.6,0.2,2.1,0.7c0.5,0.5,0.8,1.1,0.8,1.9c0,0.6-0.2,1.1-0.5,1.6
		c-0.4,0.4-0.8,0.7-1.3,0.8c0.5,0.1,1,0.4,1.4,0.9c0.4,0.5,0.6,1.1,0.6,1.7c0,0.8-0.3,1.5-0.8,2C60.8,65.3,60.1,65.5,59.2,65.5z
		 M58.8,59.7c0.6,0,1-0.2,1.3-0.5c0.3-0.3,0.5-0.7,0.5-1.2s-0.2-0.9-0.5-1.2s-0.8-0.5-1.3-0.5h-3.1v3.3H58.8z M58.9,64.4
		c0.6,0,1.1-0.2,1.4-0.5c0.3-0.3,0.5-0.8,0.5-1.3c0-0.5-0.2-0.9-0.5-1.3c-0.3-0.3-0.8-0.5-1.4-0.5h-3.2v3.6H58.9z"/>
	<path class="st4" d="M65.5,65.5h-1.3V55.2h1.3V65.5z"/>
	<path class="st4" d="M80.8,65.5h-1.5l-0.9-2.3h-5.1l-0.9,2.3h-1.5L75,55.2h1.6L80.8,65.5z M78,62.1l-2.2-5.6l-2.2,5.6H78z"/>
</g>
<g id="zambi" transform="translate(-200.275 -451.873)">
	<g id="_24_julho_novo" transform="translate(200.275 451.873)">
		<path id="Path_11" class="st5" d="M138.2,88.1c-0.1,1.7-1.5,3-3.2,2.9c-1.7-0.1-3-1.5-2.9-3.2c0.1-1.6,1.4-2.9,3.1-2.9
			C136.9,84.9,138.3,86.4,138.2,88.1z"/>
	</g>
	<rect id="Rectangle_43" x="357.8" y="488.3" class="st6" width="86.2" height="23.4"/>
</g>
</svg>
