<?xml version="1.0" encoding="utf-8"?>
<!-- Generator: Adobe Illustrator 25.2.3, SVG Export Plug-In . SVG Version: 6.00 Build 0)  -->
<svg version="1.1" id="Layer_1" xmlns="http://www.w3.org/2000/svg" width="243.725" height="95.826" xmlns:xlink="http://www.w3.org/1999/xlink" x="0px" y="0px"
	 viewBox="0 0 271.3 95.8" style="enable-background:new 0 0 271.3 95.8;" xml:space="preserve">
<style type="text/css">
	.st0{opacity:0.92;fill:#2D314E;enable-background:new    ;}
	.st1{fill:none;}
	.st2{fill:#55BCBD;}
	.st3{fill:#292333;}
	.st4{fill:#FFFFFF;}
	.st5{fill:#002C46;}
	.st6{fill:#676D81;}
</style>
<g id="zambi" transform="translate(-200.275 -451.873)">
	<g id="_24_julho_novo" transform="translate(200.275 451.873)">
		<path id="Path_11" class="st0" d="M153.8,92.6c-0.1,1.9-1.7,3.3-3.6,3.2c-1.9-0.1-3.3-1.7-3.2-3.6c0.1-1.8,1.6-3.2,3.4-3.2
			C152.4,89.1,153.9,90.7,153.8,92.6z"/>
	</g>
	<rect id="Rectangle_43" x="375.6" y="487" class="st1" width="96" height="26"/>
</g>
<g>
	<g>
		<g id="Layer_1-2_14_">
			<rect x="112.6" y="19.5" class="st2" width="37.5" height="27.5"/>
			<g>
				<rect x="0.3" y="0.9" class="st2" width="54.8" height="18.6"/>
			</g>
		</g>
		<g>
			<rect x="0.3" y="19.6" class="st3" width="113.3" height="27.5"/>
			<path class="st4" d="M27.2,38.4v-1.8l4.8-6.5h-4.8v-1.9h7.6v1.7L30,36.4h4.9v1.9h-7.7V38.4z"/>
			<path class="st4" d="M43.6,38.4L43,36.7h-4.4L38,38.4h-2.5l3.9-10.2h2.7L46,38.4H43.6z M40.8,30.4l-1.6,4.4h3.2L40.8,30.4z"/>
			<path class="st4" d="M55.8,38.4V31l-2.9,7.3H52L49.2,31v7.3H47V28.2h3l2.5,6.4l2.5-6.4h3v10.2H55.8z"/>
			<path class="st4" d="M60,38.4V28.2h5.4c1.9,0,2.9,1.2,2.9,2.6c0,1.3-0.8,2.1-1.8,2.3c1.1,0.2,2,1.2,2,2.5c0,1.5-1,2.8-3,2.8H60z
				 M66.1,31.2c0-0.6-0.5-1.1-1.2-1.1h-2.7v2.1h2.7C65.6,32.2,66.1,31.8,66.1,31.2z M66.3,35.3c0-0.6-0.5-1.2-1.3-1.2h-2.8v2.3H65
				C65.8,36.5,66.3,36,66.3,35.3z"/>
			<path class="st4" d="M70.1,38.4V28.2h2.2v10.2H70.1z"/>
			<path class="st4" d="M78.2,38.4V28.2h5.4c1.9,0,2.9,1.2,2.9,2.6c0,1.3-0.8,2.1-1.8,2.3c1.1,0.2,2,1.2,2,2.5c0,1.5-1,2.8-3,2.8
				H78.2z M84.3,31.2c0-0.6-0.5-1.1-1.2-1.1h-2.7v2.1h2.7C83.8,32.2,84.3,31.8,84.3,31.2z M84.5,35.3c0-0.6-0.5-1.2-1.3-1.2h-2.8
				v2.3h2.8C84,36.5,84.5,36,84.5,35.3z"/>
		</g>
		<g>
			<path class="st5" d="M120.7,33.3c0-3.8,1.9-7.6,6.1-7.6c4.2,0,6.1,3.8,6.1,7.6c0,3.8-1.9,7.6-6.1,7.6
				C122.6,40.9,120.7,37.1,120.7,33.3z M129.7,33.3c0-2.7-0.8-4.8-2.9-4.8s-2.9,2.1-2.9,4.8c0,2.7,0.8,4.8,2.9,4.8
				S129.7,36,129.7,33.3z"/>
			<path class="st5" d="M138.1,40.6V30l-2.4,2.5l-1.8-1.9l4.6-4.6h2.7v14.7h-3.1V40.6z"/>
		</g>
		<g id="Layer_1-2_13_">
			<polygon class="st2" points="112.6,47.9 150.1,47.9 150.1,75.4 121.8,75.4 114.6,75.4 112.6,75.4 			"/>
		</g>
		<g>
			<rect x="0.3" y="48" class="st6" width="113.3" height="27.5"/>
			<path class="st4" d="M27,66.8V65l4.8-6.5H27v-1.9h7.6v1.7l-4.8,6.5h4.9v1.9H27C27,66.7,27,66.8,27,66.8z"/>
			<path class="st4" d="M43.4,66.8l-0.6-1.7h-4.4l-0.6,1.7h-2.4l3.9-10.2H42l3.9,10.2H43.4z M40.6,58.8L39,63.2h3.2L40.6,58.8z"/>
			<path class="st4" d="M55.7,66.8v-7.3l-2.9,7.3h-0.9L49,59.5v7.3h-2.2V56.6h3l2.5,6.4l2.5-6.4h3v10.2
				C57.8,66.8,55.7,66.8,55.7,66.8z"/>
			<path class="st4" d="M59.9,66.8V56.6h5.4c1.9,0,2.9,1.2,2.9,2.6c0,1.3-0.8,2.1-1.8,2.3c1.1,0.2,2,1.2,2,2.5c0,1.5-1,2.8-3,2.8
				C65.4,66.8,59.9,66.8,59.9,66.8z M65.9,59.6c0-0.6-0.5-1.1-1.2-1.1H62v2.1h2.7C65.5,60.7,65.9,60.3,65.9,59.6z M66.1,63.7
				c0-0.6-0.5-1.2-1.3-1.2H62v2.3h2.8C65.6,64.9,66.1,64.5,66.1,63.7z"/>
			<path class="st4" d="M70,66.8V56.6h2.2v10.2C72.2,66.8,70,66.8,70,66.8z"/>
			<path class="st4" d="M85.1,66.8l-0.6-1.7h-4.4l-0.6,1.7H77l3.9-10.2h2.7l3.9,10.2H85.1z M82.3,58.8l-1.6,4.4h3.2L82.3,58.8z"/>
		</g>
		<g>
			<path class="st5" d="M118.7,61.7c0-3.8,1.9-7.6,6.1-7.6c4.2,0,6.1,3.8,6.1,7.6s-1.9,7.6-6.1,7.6
				C120.5,69.3,118.7,65.5,118.7,61.7z M127.6,61.7c0-2.7-0.8-4.8-2.9-4.8c-2.1,0-2.9,2.1-2.9,4.8c0,2.7,0.8,4.8,2.9,4.8
				C126.8,66.5,127.6,64.4,127.6,61.7z"/>
			<path class="st5" d="M132.6,69v-2.5c6-4.4,7.8-5.9,7.8-7.7c0-1.3-1.2-1.9-2.4-1.9c-1.7,0-2.9,0.7-3.9,1.7l-1.8-2.1
				c1.4-1.7,3.6-2.4,5.7-2.4c3.1,0,5.6,1.8,5.6,4.7c0,2.5-2.1,4.7-5.9,7.5h6V69H132.6z"/>
		</g>
		<g>
			<path class="st5" d="M13.3,10.2c0-3.2,1.8-5.5,5-5.5c1.3,0,2.4,0.4,3.2,1.1l-1,1.7c-0.6-0.5-1.2-0.8-2.1-0.8
				c-1.6,0-2.7,1.3-2.7,3c0,0.1,0,0.1,0,0.2c0.5-0.7,1.6-1.4,2.7-1.4c1.9,0,3.6,1.2,3.6,3.5c0,2.1-1.7,3.7-4.1,3.7
				C14.7,15.8,13.3,13.3,13.3,10.2z M19.7,12.2c0-1.1-1-1.6-2-1.6c-0.8,0-1.6,0.4-2.1,1c0.1,1,0.7,2.2,2.2,2.2
				C19.1,13.7,19.7,12.9,19.7,12.2z"/>
			<path class="st5" d="M30.5,15.6l-2.7-3.9l-2.7,3.9h-2.7l3.9-5.5l-3.6-5.2h2.7l2.4,3.7l2.4-3.7h2.7l-3.5,5.2l3.9,5.5H30.5z"/>
			<path class="st5" d="M33.5,14l1.2-1.5c0.7,0.8,1.9,1.2,2.9,1.2c1.3,0,2-0.6,2-1.4c0-0.8-0.7-1.2-2.1-1.2c-0.4,0-1.2,0-1.3,0v-2
				c0.2,0,0.9,0,1.3,0c1.2,0,2-0.4,2-1.1c0-0.8-0.9-1.3-2-1.3c-1,0-2,0.4-2.7,1.1l-1.1-1.4c0.9-1,2.2-1.7,4.1-1.7c2.5,0,4,1.1,4,2.9
				c0,1.3-1.2,2.2-2.3,2.4c1.1,0.1,2.5,1,2.5,2.6c0,1.8-1.6,3.1-4.2,3.1C35.8,15.8,34.3,15,33.5,14z"/>
		</g>
	</g>
	<polygon class="st2" points="150.1,73.8 150.1,87.4 135.8,70.8 	"/>
</g>
</svg>
